<?xml version="1.0" encoding="UTF-8" standalone="no"?>
<!DOCTYPE svg PUBLIC "-//W3C//DTD SVG 1.1//EN"
 "http://www.w3.org/Graphics/SVG/1.1/DTD/svg11.dtd">
<!-- Generated by graphviz version 12.2.1 (0)
 -->
<!-- Title: shared::TemporaryDirectory::sub Pages: 1 -->
<svg width="312pt" height="78pt"
 viewBox="0.00 0.00 312.25 78.00" xmlns="http://www.w3.org/2000/svg" xmlns:xlink="http://www.w3.org/1999/xlink">
<g id="graph0" class="graph" transform="scale(1 1) rotate(0) translate(4 74)">
<title>shared::TemporaryDirectory::sub</title>
<!-- Node1 -->
<g id="Node000001" class="node">
<title>Node1</title>
<g id="a_Node000001"><a xlink:title="Create a subdirectory/file in the temp dir.">
<polygon fill="#999999" stroke="#666666" points="304.25,-48 145.75,-48 145.75,-28 304.25,-28 304.25,-48"/>
<text text-anchor="middle" x="225" y="-34.5" font-family="Helvetica,sans-Serif" font-size="10.00">shared::TemporaryDirectory::sub</text>
</a>
</g>
</g>
<!-- Node2 -->
<g id="Node000002" class="node">
<title>Node2</title>
<g id="a_Node000002"><a xlink:href="namespacegenerate.html#a06d09480d1b42592ffc0654698d15b6d" target="_top" xlink:title="Create a .flatpak&#45;info file for the program.">
<polygon fill="white" stroke="#666666" points="109.75,-70 0,-70 0,-50 109.75,-50 109.75,-70"/>
<text text-anchor="middle" x="54.88" y="-56.5" font-family="Helvetica,sans-Serif" font-size="10.00">generate::flatpak_info</text>
</a>
</g>
</g>
<!-- Node1&#45;&gt;Node2 -->
<g id="edge1_Node000001_Node000002" class="edge">
<title>Node1&#45;&gt;Node2</title>
<g id="a_edge1_Node000001_Node000002"><a xlink:title=" ">
<path fill="none" stroke="#63b8ff" d="M134.12,-49.76C125.9,-50.84 117.75,-51.9 109.99,-52.92"/>
<polygon fill="#63b8ff" stroke="#63b8ff" points="134.39,-53.26 143.85,-48.49 133.48,-46.31 134.39,-53.26"/>
</a>
</g>
</g>
<!-- Node3 -->
<g id="Node000003" class="node">
<title>Node3</title>
<g id="a_Node000003"><a xlink:href="namespacegenerate.html#a5c0026523dd30f942c55ad25f1b607b4" target="_top" xlink:title="Spawn an instance of the xdg&#45;dbus&#45;proxy for the application instance.">
<polygon fill="white" stroke="#666666" points="105.62,-32 4.12,-32 4.12,0 105.62,0 105.62,-32"/>
<text text-anchor="start" x="12.12" y="-18.5" font-family="Helvetica,sans-Serif" font-size="10.00">generate::xdg_dbus</text>
<text text-anchor="middle" x="54.88" y="-6.5" font-family="Helvetica,sans-Serif" font-size="10.00">_proxy</text>
</a>
</g>
</g>
<!-- Node1&#45;&gt;Node3 -->
<g id="edge2_Node000001_Node000003" class="edge">
<title>Node1&#45;&gt;Node3</title>
<g id="a_edge2_Node000001_Node000003"><a xlink:title=" ">
<path fill="none" stroke="#63b8ff" d="M133.95,-26.22C124.24,-24.95 114.65,-23.69 105.68,-22.52"/>
<polygon fill="#63b8ff" stroke="#63b8ff" points="133.48,-29.69 143.85,-27.51 134.39,-22.74 133.48,-29.69"/>
</a>
</g>
</g>
</g>
</svg>
