<?xml version="1.0" encoding="UTF-8" standalone="no"?>
<!DOCTYPE svg PUBLIC "-//W3C//DTD SVG 1.1//EN"
 "http://www.w3.org/Graphics/SVG/1.1/DTD/svg11.dtd">
<!-- Generated by graphviz version 12.2.1 (0)
 -->
<!-- Title: shared::TemporaryDirectory Pages: 1 -->
<svg width="137pt" height="140pt"
 viewBox="0.00 0.00 136.75 140.00" xmlns="http://www.w3.org/2000/svg" xmlns:xlink="http://www.w3.org/1999/xlink">
<g id="graph0" class="graph" transform="scale(1 1) rotate(0) translate(4 136)">
<title>shared::TemporaryDirectory</title>
<!-- Node1 -->
<g id="Node000001" class="node">
<title>Node1</title>
<g id="a_Node000001"><a xlink:title="A Temporary Directory A directory that destroys itself upon falling out of scope.">
<polygon fill="#999999" stroke="none" points="128.75,-132 0,-132 0,0 128.75,0 128.75,-132"/>
<text text-anchor="start" x="4" y="-118.5" font-family="Helvetica,sans-Serif" font-size="10.00">shared::TemporaryDirectory</text>
<text text-anchor="start" x="62.88" y="-102.5" font-family="Helvetica,sans-Serif" font-size="10.00"> </text>
<text text-anchor="start" x="7.31" y="-86.5" font-family="Helvetica,sans-Serif" font-size="10.00">+</text>
<text text-anchor="start" x="20.62" y="-86.5" font-family="Helvetica,sans-Serif" font-size="10.00">TemporaryDirectory()</text>
<text text-anchor="start" x="7.31" y="-70.5" font-family="Helvetica,sans-Serif" font-size="10.00">+</text>
<text text-anchor="start" x="20.62" y="-70.5" font-family="Helvetica,sans-Serif" font-size="10.00">~TemporaryDirectory()</text>
<text text-anchor="start" x="7.31" y="-54.5" font-family="Helvetica,sans-Serif" font-size="10.00">+</text>
<text text-anchor="start" x="20.62" y="-54.5" font-family="Helvetica,sans-Serif" font-size="10.00">get_path()</text>
<text text-anchor="start" x="7.31" y="-38.5" font-family="Helvetica,sans-Serif" font-size="10.00">+</text>
<text text-anchor="start" x="20.62" y="-38.5" font-family="Helvetica,sans-Serif" font-size="10.00">create()</text>
<text text-anchor="start" x="7.31" y="-22.5" font-family="Helvetica,sans-Serif" font-size="10.00">+</text>
<text text-anchor="start" x="20.62" y="-22.5" font-family="Helvetica,sans-Serif" font-size="10.00">sub()</text>
<text text-anchor="start" x="7.31" y="-6.5" font-family="Helvetica,sans-Serif" font-size="10.00">+</text>
<text text-anchor="start" x="20.62" y="-6.5" font-family="Helvetica,sans-Serif" font-size="10.00">get_name()</text>
<polygon fill="#666666" stroke="#666666" points="0,-114 0,-114 128.75,-114 128.75,-114 0,-114"/>
<polygon fill="#666666" stroke="#666666" points="0,-98 0,-98 128.75,-98 128.75,-98 0,-98"/>
<polygon fill="none" stroke="#666666" points="0,0 0,-132 128.75,-132 128.75,0 0,0"/>
</a>
</g>
</g>
</g>
</svg>
