<?xml version="1.0" encoding="UTF-8" standalone="no"?>
<!DOCTYPE svg PUBLIC "-//W3C//DTD SVG 1.1//EN"
 "http://www.w3.org/Graphics/SVG/1.1/DTD/svg11.dtd">
<!-- Generated by graphviz version 12.2.1 (0)
 -->
<!-- Title: arg::Arg::operator&lt; Pages: 1 -->
<svg width="219pt" height="46pt"
 viewBox="0.00 0.00 218.50 46.00" xmlns="http://www.w3.org/2000/svg" xmlns:xlink="http://www.w3.org/1999/xlink">
<g id="graph0" class="graph" transform="scale(1 1) rotate(0) translate(4 42)">
<title>arg::Arg::operator&lt;</title>
<!-- Node1 -->
<g id="Node000001" class="node">
<title>Node1</title>
<g id="a_Node000001"><a xlink:title="Check if the current value is underneath the provided.">
<polygon fill="#999999" stroke="#666666" points="97.75,-20 0,-20 0,0 97.75,0 97.75,-20"/>
<text text-anchor="middle" x="48.88" y="-6.5" font-family="Helvetica,sans-Serif" font-size="10.00">arg::Arg::operator&lt;</text>
</a>
</g>
</g>
<!-- Node2 -->
<g id="Node000002" class="node">
<title>Node2</title>
<g id="a_Node000002"><a xlink:href="classarg_1_1Arg.html#a21e98a732b95986cd4930bea6eba5939" target="_top" xlink:title="Return the current level of the argument.">
<polygon fill="white" stroke="#666666" points="210.5,-20 133.75,-20 133.75,0 210.5,0 210.5,-20"/>
<text text-anchor="middle" x="172.12" y="-6.5" font-family="Helvetica,sans-Serif" font-size="10.00">arg::Arg::level</text>
</a>
</g>
</g>
<!-- Node1&#45;&gt;Node2 -->
<g id="edge1_Node000001_Node000002" class="edge">
<title>Node1&#45;&gt;Node2</title>
<g id="a_edge1_Node000001_Node000002"><a xlink:title=" ">
<path fill="none" stroke="#63b8ff" d="M98.14,-10C106.04,-10 114.23,-10 122.15,-10"/>
<polygon fill="#63b8ff" stroke="#63b8ff" points="121.97,-13.5 131.97,-10 121.97,-6.5 121.97,-13.5"/>
</a>
</g>
</g>
<!-- Node2&#45;&gt;Node2 -->
<g id="edge2_Node000002_Node000002" class="edge">
<title>Node2&#45;&gt;Node2</title>
<g id="a_edge2_Node000002_Node000002"><a xlink:title=" ">
<path fill="none" stroke="#63b8ff" d="M152.54,-20.34C144.17,-28.98 150.7,-38 172.12,-38 183.84,-38 191.1,-35.3 193.91,-31.44"/>
<polygon fill="#63b8ff" stroke="#63b8ff" points="197.38,-30.95 192,-21.82 190.51,-32.31 197.38,-30.95"/>
</a>
</g>
</g>
</g>
</svg>
