<?xml version="1.0" encoding="UTF-8" standalone="no"?>
<!DOCTYPE svg PUBLIC "-//W3C//DTD SVG 1.1//EN"
 "http://www.w3.org/Graphics/SVG/1.1/DTD/svg11.dtd">
<!-- Generated by graphviz version 12.2.1 (0)
 -->
<!-- Title: arg::Arg::level Pages: 1 -->
<svg width="234pt" height="104pt"
 viewBox="0.00 0.00 233.50 104.00" xmlns="http://www.w3.org/2000/svg" xmlns:xlink="http://www.w3.org/1999/xlink">
<g id="graph0" class="graph" transform="scale(1 1) rotate(0) translate(4 100)">
<title>arg::Arg::level</title>
<!-- Node1 -->
<g id="Node000001" class="node">
<title>Node1</title>
<g id="a_Node000001"><a xlink:title="Return the current level of the argument.">
<polygon fill="#999999" stroke="#666666" points="225.5,-58 148.75,-58 148.75,-38 225.5,-38 225.5,-58"/>
<text text-anchor="middle" x="187.12" y="-44.5" font-family="Helvetica,sans-Serif" font-size="10.00">arg::Arg::level</text>
</a>
</g>
</g>
<!-- Node1&#45;&gt;Node1 -->
<g id="edge1_Node000001_Node000001" class="edge">
<title>Node1&#45;&gt;Node1</title>
<g id="a_edge1_Node000001_Node000001"><a xlink:title=" ">
<path fill="none" stroke="#63b8ff" d="M210.23,-69.44C207.26,-73.3 199.55,-76 187.12,-76 164.4,-76 157.47,-66.98 166.35,-58.34"/>
<polygon fill="#63b8ff" stroke="#63b8ff" points="213.69,-68.89 208.21,-59.82 206.84,-70.33 213.69,-68.89"/>
</a>
</g>
</g>
<!-- Node2 -->
<g id="Node000002" class="node">
<title>Node2</title>
<g id="a_Node000002"><a xlink:href="classarg_1_1Arg.html#a31d34718cb360af261b8b1035f842bac" target="_top" xlink:title="Return whether the argument was set.">
<polygon fill="white" stroke="#666666" points="112.75,-96 0,-96 0,-76 112.75,-76 112.75,-96"/>
<text text-anchor="middle" x="56.38" y="-82.5" font-family="Helvetica,sans-Serif" font-size="10.00">arg::Arg::operator bool</text>
</a>
</g>
</g>
<!-- Node1&#45;&gt;Node2 -->
<g id="edge2_Node000001_Node000002" class="edge">
<title>Node1&#45;&gt;Node2</title>
<g id="a_edge2_Node000001_Node000002"><a xlink:title=" ">
<path fill="none" stroke="#63b8ff" d="M139.67,-61.71C124.22,-66.27 107.26,-71.28 92.78,-75.55"/>
<polygon fill="#63b8ff" stroke="#63b8ff" points="140.55,-65.1 149.15,-58.91 138.57,-58.39 140.55,-65.1"/>
</a>
</g>
</g>
<!-- Node3 -->
<g id="Node000003" class="node">
<title>Node3</title>
<g id="a_Node000003"><a xlink:href="classarg_1_1Arg.html#a8502415554ccbaa4f1f8c8bcd0601916" target="_top" xlink:title="Check if the current value is underneath the provided.">
<polygon fill="white" stroke="#666666" points="105.25,-58 7.5,-58 7.5,-38 105.25,-38 105.25,-58"/>
<text text-anchor="middle" x="56.38" y="-44.5" font-family="Helvetica,sans-Serif" font-size="10.00">arg::Arg::operator&lt;</text>
</a>
</g>
</g>
<!-- Node1&#45;&gt;Node3 -->
<g id="edge3_Node000001_Node000003" class="edge">
<title>Node1&#45;&gt;Node3</title>
<g id="a_edge3_Node000001_Node000003"><a xlink:title=" ">
<path fill="none" stroke="#63b8ff" d="M137.09,-48C126.68,-48 115.7,-48 105.34,-48"/>
<polygon fill="#63b8ff" stroke="#63b8ff" points="137.03,-51.5 147.03,-48 137.03,-44.5 137.03,-51.5"/>
</a>
</g>
</g>
<!-- Node4 -->
<g id="Node000004" class="node">
<title>Node4</title>
<g id="a_Node000004"><a xlink:href="classarg_1_1Arg.html#abd0845c34d68b3925a58a9dbc54545ee" target="_top" xlink:title="Check if the current value meets the provided.">
<polygon fill="white" stroke="#666666" points="108.25,-20 4.5,-20 4.5,0 108.25,0 108.25,-20"/>
<text text-anchor="middle" x="56.38" y="-6.5" font-family="Helvetica,sans-Serif" font-size="10.00">arg::Arg::operator&gt;=</text>
</a>
</g>
</g>
<!-- Node1&#45;&gt;Node4 -->
<g id="edge4_Node000001_Node000004" class="edge">
<title>Node1&#45;&gt;Node4</title>
<g id="a_edge4_Node000001_Node000004"><a xlink:title=" ">
<path fill="none" stroke="#63b8ff" d="M139.67,-34.29C124.22,-29.73 107.26,-24.72 92.78,-20.45"/>
<polygon fill="#63b8ff" stroke="#63b8ff" points="138.57,-37.61 149.15,-37.09 140.55,-30.9 138.57,-37.61"/>
</a>
</g>
</g>
</g>
</svg>
