<?xml version="1.0" encoding="UTF-8" standalone="no"?>
<!DOCTYPE svg PUBLIC "-//W3C//DTD SVG 1.1//EN"
 "http://www.w3.org/Graphics/SVG/1.1/DTD/svg11.dtd">
<!-- Generated by graphviz version 12.2.1 (0)
 -->
<!-- Title: arg::Arg::operator&gt;= Pages: 1 -->
<svg width="225pt" height="46pt"
 viewBox="0.00 0.00 224.50 46.00" xmlns="http://www.w3.org/2000/svg" xmlns:xlink="http://www.w3.org/1999/xlink">
<g id="graph0" class="graph" transform="scale(1 1) rotate(0) translate(4 42)">
<title>arg::Arg::operator&gt;=</title>
<!-- Node1 -->
<g id="Node000001" class="node">
<title>Node1</title>
<g id="a_Node000001"><a xlink:title="Check if the current value meets the provided.">
<polygon fill="#999999" stroke="#666666" points="103.75,-20 0,-20 0,0 103.75,0 103.75,-20"/>
<text text-anchor="middle" x="51.88" y="-6.5" font-family="Helvetica,sans-Serif" font-size="10.00">arg::Arg::operator&gt;=</text>
</a>
</g>
</g>
<!-- Node2 -->
<g id="Node000002" class="node">
<title>Node2</title>
<g id="a_Node000002"><a xlink:href="classarg_1_1Arg.html#a21e98a732b95986cd4930bea6eba5939" target="_top" xlink:title="Return the current level of the argument.">
<polygon fill="white" stroke="#666666" points="216.5,-20 139.75,-20 139.75,0 216.5,0 216.5,-20"/>
<text text-anchor="middle" x="178.12" y="-6.5" font-family="Helvetica,sans-Serif" font-size="10.00">arg::Arg::level</text>
</a>
</g>
</g>
<!-- Node1&#45;&gt;Node2 -->
<g id="edge1_Node000001_Node000002" class="edge">
<title>Node1&#45;&gt;Node2</title>
<g id="a_edge1_Node000001_Node000002"><a xlink:title=" ">
<path fill="none" stroke="#63b8ff" d="M104.13,-10C111.94,-10 119.99,-10 127.76,-10"/>
<polygon fill="#63b8ff" stroke="#63b8ff" points="127.76,-13.5 137.76,-10 127.76,-6.5 127.76,-13.5"/>
</a>
</g>
</g>
<!-- Node2&#45;&gt;Node2 -->
<g id="edge2_Node000002_Node000002" class="edge">
<title>Node2&#45;&gt;Node2</title>
<g id="a_edge2_Node000002_Node000002"><a xlink:title=" ">
<path fill="none" stroke="#63b8ff" d="M158.07,-20.34C149.49,-28.98 156.18,-38 178.12,-38 190.13,-38 197.56,-35.3 200.44,-31.44"/>
<polygon fill="#63b8ff" stroke="#63b8ff" points="203.91,-30.93 198.49,-21.82 197.05,-32.32 203.91,-30.93"/>
</a>
</g>
</g>
</g>
</svg>
