<?xml version="1.0" encoding="UTF-8" standalone="no"?>
<!DOCTYPE svg PUBLIC "-//W3C//DTD SVG 1.1//EN"
 "http://www.w3.org/Graphics/SVG/1.1/DTD/svg11.dtd">
<!-- Generated by graphviz version 12.2.1 (0)
 -->
<!-- Title: shared::setorize Pages: 1 -->
<svg width="587pt" height="103pt"
 viewBox="0.00 0.00 586.75 103.00" xmlns="http://www.w3.org/2000/svg" xmlns:xlink="http://www.w3.org/1999/xlink">
<g id="graph0" class="graph" transform="scale(1 1) rotate(0) translate(4 99)">
<title>shared::setorize</title>
<!-- Node1 -->
<g id="Node000001" class="node">
<title>Node1</title>
<g id="a_Node000001"><a xlink:title="A Blocking Parser that splits the output into a set.">
<polygon fill="#999999" stroke="#666666" points="578.75,-58 493,-58 493,-38 578.75,-38 578.75,-58"/>
<text text-anchor="middle" x="535.88" y="-44.5" font-family="Helvetica,sans-Serif" font-size="10.00">shared::setorize</text>
</a>
</g>
</g>
<!-- Node2 -->
<g id="Node000002" class="node">
<title>Node2</title>
<g id="a_Node000002"><a xlink:href="namespacelibraries.html#a4dfd6ab45adf8dc18ea57bc1f88eaedf" target="_top" xlink:title="Recursively resolve all shared&#45;libraries needed by a library.">
<polygon fill="white" stroke="#666666" points="457,-39 387.75,-39 387.75,-19 457,-19 457,-39"/>
<text text-anchor="middle" x="422.38" y="-25.5" font-family="Helvetica,sans-Serif" font-size="10.00">libraries::get</text>
</a>
</g>
</g>
<!-- Node1&#45;&gt;Node2 -->
<g id="edge1_Node000001_Node000002" class="edge">
<title>Node1&#45;&gt;Node2</title>
<g id="a_edge1_Node000001_Node000002"><a xlink:title=" ">
<path fill="none" stroke="#63b8ff" d="M481.56,-38.91C473.28,-37.5 464.94,-36.08 457.26,-34.77"/>
<polygon fill="#63b8ff" stroke="#63b8ff" points="480.78,-42.33 491.23,-40.56 481.96,-35.43 480.78,-42.33"/>
</a>
</g>
</g>
<!-- Node4 -->
<g id="Node000004" class="node">
<title>Node4</title>
<g id="a_Node000004"><a xlink:href="namespacebinaries.html#ac1478c81b2eb2c4ecdba98e92c4e7651" target="_top" xlink:title="Parse a binary to determine dependencies.">
<polygon fill="white" stroke="#666666" points="351.75,-77 272,-77 272,-57 351.75,-57 351.75,-77"/>
<text text-anchor="middle" x="311.88" y="-63.5" font-family="Helvetica,sans-Serif" font-size="10.00">binaries::parse</text>
</a>
</g>
</g>
<!-- Node1&#45;&gt;Node4 -->
<g id="edge9_Node000001_Node000004" class="edge">
<title>Node1&#45;&gt;Node4</title>
<g id="a_edge9_Node000001_Node000004"><a xlink:title=" ">
<path fill="none" stroke="#63b8ff" d="M481.22,-52.59C441.36,-56 387.9,-60.58 352.02,-63.65"/>
<polygon fill="#63b8ff" stroke="#63b8ff" points="481.42,-56.09 491.09,-51.75 480.83,-49.11 481.42,-56.09"/>
</a>
</g>
</g>
<!-- Node3 -->
<g id="Node000003" class="node">
<title>Node3</title>
<g id="a_Node000003"><a xlink:href="namespacegenerate.html#a38dcdfdf9293b8aafe77392021d65019" target="_top" xlink:title="Generate the bulk of the main program command.">
<polygon fill="white" stroke="#666666" points="225.88,-20 147.62,-20 147.62,0 225.88,0 225.88,-20"/>
<text text-anchor="middle" x="186.75" y="-6.5" font-family="Helvetica,sans-Serif" font-size="10.00">generate::cmd</text>
</a>
</g>
</g>
<!-- Node2&#45;&gt;Node3 -->
<g id="edge2_Node000002_Node000003" class="edge">
<title>Node2&#45;&gt;Node3</title>
<g id="a_edge2_Node000002_Node000003"><a xlink:title=" ">
<path fill="none" stroke="#63b8ff" d="M376.33,-18.8C368.18,-17.28 359.74,-15.92 351.75,-15 309.02,-10.09 259.64,-9.23 226.32,-9.35"/>
<polygon fill="#63b8ff" stroke="#63b8ff" points="375.59,-22.22 386.07,-20.72 376.94,-15.35 375.59,-22.22"/>
</a>
</g>
</g>
<!-- Node2&#45;&gt;Node4 -->
<g id="edge3_Node000002_Node000004" class="edge">
<title>Node2&#45;&gt;Node4</title>
<g id="a_edge3_Node000002_Node000004"><a xlink:title=" ">
<path fill="none" stroke="#63b8ff" d="M380.7,-43.24C368.1,-47.66 354.44,-52.44 342.71,-56.55"/>
<polygon fill="#63b8ff" stroke="#63b8ff" points="381.73,-46.59 390.01,-39.98 379.42,-39.99 381.73,-46.59"/>
</a>
</g>
</g>
<!-- Node5 -->
<g id="Node000005" class="node">
<title>Node5</title>
<g id="a_Node000005"><a xlink:href="namespacegenerate.html#a17cf0da8addab269d21c2c8074d85c4e" target="_top" xlink:title="Setup the Proxy&#39;s SOF.">
<polygon fill="white" stroke="#666666" points="236,-67 137.5,-67 137.5,-47 236,-47 236,-67"/>
<text text-anchor="middle" x="186.75" y="-53.5" font-family="Helvetica,sans-Serif" font-size="10.00">generate::proxy_lib</text>
</a>
</g>
</g>
<!-- Node2&#45;&gt;Node5 -->
<g id="edge8_Node000002_Node000005" class="edge">
<title>Node2&#45;&gt;Node5</title>
<g id="a_edge8_Node000002_Node000005"><a xlink:title=" ">
<path fill="none" stroke="#63b8ff" d="M376.09,-34.43C335.96,-39.24 277.52,-46.24 236.4,-51.17"/>
<polygon fill="#63b8ff" stroke="#63b8ff" points="376.39,-37.92 385.9,-33.25 375.56,-30.97 376.39,-37.92"/>
</a>
</g>
</g>
<!-- Node4&#45;&gt;Node3 -->
<g id="edge4_Node000004_Node000003" class="edge">
<title>Node4&#45;&gt;Node3</title>
<g id="a_edge4_Node000004_Node000003"><a xlink:title=" ">
<path fill="none" stroke="#63b8ff" d="M278.01,-51.78C256.57,-41.86 229.15,-29.17 210.19,-20.39"/>
<polygon fill="#63b8ff" stroke="#63b8ff" points="276.37,-54.88 286.92,-55.91 279.31,-48.53 276.37,-54.88"/>
</a>
</g>
</g>
<!-- Node4&#45;&gt;Node4 -->
<g id="edge5_Node000004_Node000004" class="edge">
<title>Node4&#45;&gt;Node4</title>
<g id="a_edge5_Node000004_Node000004"><a xlink:title=" ">
<path fill="none" stroke="#63b8ff" d="M331.41,-88.44C328.89,-92.3 322.38,-95 311.88,-95 292.67,-95 286.81,-85.98 294.32,-77.34"/>
<polygon fill="#63b8ff" stroke="#63b8ff" points="334.89,-88.06 329.7,-78.83 328,-89.29 334.89,-88.06"/>
</a>
</g>
</g>
<!-- Node4&#45;&gt;Node5 -->
<g id="edge6_Node000004_Node000005" class="edge">
<title>Node4&#45;&gt;Node5</title>
<g id="a_edge6_Node000004_Node000005"><a xlink:title=" ">
<path fill="none" stroke="#63b8ff" d="M260.19,-62.88C252.25,-62.24 244.06,-61.57 236.17,-60.93"/>
<polygon fill="#63b8ff" stroke="#63b8ff" points="259.82,-66.36 270.07,-63.69 260.39,-59.39 259.82,-66.36"/>
</a>
</g>
</g>
<!-- Node6 -->
<g id="Node000006" class="node">
<title>Node6</title>
<g id="a_Node000006"><a xlink:href="namespacegenerate.html#a5c0026523dd30f942c55ad25f1b607b4" target="_top" xlink:title="Spawn an instance of the xdg&#45;dbus&#45;proxy for the application instance.">
<polygon fill="white" stroke="#666666" points="101.5,-73 0,-73 0,-41 101.5,-41 101.5,-73"/>
<text text-anchor="start" x="8" y="-59.5" font-family="Helvetica,sans-Serif" font-size="10.00">generate::xdg_dbus</text>
<text text-anchor="middle" x="50.75" y="-47.5" font-family="Helvetica,sans-Serif" font-size="10.00">_proxy</text>
</a>
</g>
</g>
<!-- Node5&#45;&gt;Node6 -->
<g id="edge7_Node000005_Node000006" class="edge">
<title>Node5&#45;&gt;Node6</title>
<g id="a_edge7_Node000005_Node000006"><a xlink:title=" ">
<path fill="none" stroke="#63b8ff" d="M126.08,-57C117.99,-57 109.76,-57 101.86,-57"/>
<polygon fill="#63b8ff" stroke="#63b8ff" points="125.86,-60.5 135.86,-57 125.86,-53.5 125.86,-60.5"/>
</a>
</g>
</g>
</g>
</svg>
