<?xml version="1.0" encoding="UTF-8" standalone="no"?>
<!DOCTYPE svg PUBLIC "-//W3C//DTD SVG 1.1//EN"
 "http://www.w3.org/Graphics/SVG/1.1/DTD/svg11.dtd">
<!-- Generated by graphviz version 12.2.1 (0)
 -->
<!-- Title: binaries::symlink Pages: 1 -->
<svg width="235pt" height="78pt"
 viewBox="0.00 0.00 235.00 78.00" xmlns="http://www.w3.org/2000/svg" xmlns:xlink="http://www.w3.org/1999/xlink">
<g id="graph0" class="graph" transform="scale(1 1) rotate(0) translate(4 74)">
<title>binaries::symlink</title>
<!-- Node1 -->
<g id="Node000001" class="node">
<title>Node1</title>
<g id="a_Node000001"><a xlink:title="Symlink to /usr/bin.">
<polygon fill="#999999" stroke="#666666" points="227,-48 137.5,-48 137.5,-28 227,-28 227,-48"/>
<text text-anchor="middle" x="182.25" y="-34.5" font-family="Helvetica,sans-Serif" font-size="10.00">binaries::symlink</text>
</a>
</g>
</g>
<!-- Node2 -->
<g id="Node000002" class="node">
<title>Node2</title>
<g id="a_Node000002"><a xlink:href="namespacegenerate.html#a38dcdfdf9293b8aafe77392021d65019" target="_top" xlink:title="Generate the bulk of the main program command.">
<polygon fill="white" stroke="#666666" points="89.88,-70 11.62,-70 11.62,-50 89.88,-50 89.88,-70"/>
<text text-anchor="middle" x="50.75" y="-56.5" font-family="Helvetica,sans-Serif" font-size="10.00">generate::cmd</text>
</a>
</g>
</g>
<!-- Node1&#45;&gt;Node2 -->
<g id="edge1_Node000001_Node000002" class="edge">
<title>Node1&#45;&gt;Node2</title>
<g id="a_edge1_Node000001_Node000002"><a xlink:title=" ">
<path fill="none" stroke="#63b8ff" d="M125.73,-47.43C113.73,-49.47 101.3,-51.58 90.13,-53.48"/>
<polygon fill="#63b8ff" stroke="#63b8ff" points="126.28,-50.89 135.55,-45.76 125.11,-43.99 126.28,-50.89"/>
</a>
</g>
</g>
<!-- Node3 -->
<g id="Node000003" class="node">
<title>Node3</title>
<g id="a_Node000003"><a xlink:href="namespacegenerate.html#a5c0026523dd30f942c55ad25f1b607b4" target="_top" xlink:title="Spawn an instance of the xdg&#45;dbus&#45;proxy for the application instance.">
<polygon fill="white" stroke="#666666" points="101.5,-32 0,-32 0,0 101.5,0 101.5,-32"/>
<text text-anchor="start" x="8" y="-18.5" font-family="Helvetica,sans-Serif" font-size="10.00">generate::xdg_dbus</text>
<text text-anchor="middle" x="50.75" y="-6.5" font-family="Helvetica,sans-Serif" font-size="10.00">_proxy</text>
</a>
</g>
</g>
<!-- Node1&#45;&gt;Node3 -->
<g id="edge2_Node000001_Node000003" class="edge">
<title>Node1&#45;&gt;Node3</title>
<g id="a_edge2_Node000001_Node000003"><a xlink:title=" ">
<path fill="none" stroke="#63b8ff" d="M125.97,-28.61C118,-27.26 109.85,-25.87 101.99,-24.53"/>
<polygon fill="#63b8ff" stroke="#63b8ff" points="125.11,-32.01 135.55,-30.24 126.28,-25.11 125.11,-32.01"/>
</a>
</g>
</g>
</g>
</svg>
