<?xml version="1.0" encoding="UTF-8" standalone="no"?>
<!DOCTYPE svg PUBLIC "-//W3C//DTD SVG 1.1//EN"
 "http://www.w3.org/Graphics/SVG/1.1/DTD/svg11.dtd">
<!-- Generated by graphviz version 12.2.1 (0)
 -->
<!-- Title: shared::wildcard Pages: 1 -->
<svg width="461pt" height="85pt"
 viewBox="0.00 0.00 460.50 85.00" xmlns="http://www.w3.org/2000/svg" xmlns:xlink="http://www.w3.org/1999/xlink">

<svg id="main" version="1.1" xmlns="http://www.w3.org/2000/svg" xmlns:xlink="http://www.w3.org/1999/xlink" xml:space="preserve">

<style type="text/css"><![CDATA[
.node, .edge {opacity: 0.7;}
.node.selected, .edge.selected {opacity: 1;}
.edge:hover path { stroke: red; }
.edge:hover polygon { stroke: red; fill: red; }
]]></style>
<script type="application/ecmascript" xlink:href="svg.min.js"/>
<svg id="graph" class="graph">
<g id="graph0" class="graph" transform="scale(1 1) rotate(0) translate(4 81)">
<title>shared::wildcard</title>
<!-- Node1 -->
<g id="Node000001" class="node">
<title>Node1</title>
<g id="a_Node000001"><a xlink:title="Resolve wildcard patterns.">
<polygon fill="#999999" stroke="#666666" points="87.25,-58 0,-58 0,-38 87.25,-38 87.25,-58"/>
<text text-anchor="middle" x="43.62" y="-44.5" font-family="Helvetica,sans-Serif" font-size="10.00">shared::wildcard</text>
</a>
</g>
</g>
<!-- Node2 -->
<g id="Node000002" class="node">
<title>Node2</title>
<g id="a_Node000002"><a xlink:href="namespaceshared.html#a585cdabc1b4758c65001d7dd03cb6715" target="_top" xlink:title="Execute stuff.">
<polygon fill="white" stroke="#666666" points="206.38,-77 134.12,-77 134.12,-57 206.38,-57 206.38,-77"/>
<text text-anchor="middle" x="170.25" y="-63.5" font-family="Helvetica,sans-Serif" font-size="10.00">shared::exec</text>
</a>
</g>
</g>
<!-- Node1&#45;&gt;Node2 -->
<g id="edge1_Node000001_Node000002" class="edge">
<title>Node1&#45;&gt;Node2</title>
<g id="a_edge1_Node000001_Node000002"><a xlink:title=" ">
<path fill="none" stroke="#63b8ff" d="M87.51,-54.54C98.81,-56.26 111.06,-58.13 122.55,-59.88"/>
<polygon fill="#63b8ff" stroke="#63b8ff" points="121.82,-63.31 132.23,-61.36 122.87,-56.39 121.82,-63.31"/>
</a>
</g>
</g>
<!-- Node3 -->
<g id="Node000003" class="node">
<title>Node3</title>
<g id="a_Node000003"><a xlink:href="namespaceshared.html#a3736db9aa00bd9e0a56aeaf1057066c0" target="_top" xlink:title="Split the contents of an FD.">
<polygon fill="white" stroke="#666666" points="217.25,-39 123.25,-39 123.25,-19 217.25,-19 217.25,-39"/>
<text text-anchor="middle" x="170.25" y="-25.5" font-family="Helvetica,sans-Serif" font-size="10.00">shared::fd_splitter</text>
</a>
</g>
</g>
<!-- Node1&#45;&gt;Node3 -->
<g id="edge2_Node000001_Node000003" class="edge">
<title>Node1&#45;&gt;Node3</title>
<g id="a_edge2_Node000001_Node000003"><a xlink:title=" ">
<path fill="none" stroke="#63b8ff" d="M87.51,-41.46C95.27,-40.28 103.47,-39.03 111.56,-37.8"/>
<polygon fill="#63b8ff" stroke="#63b8ff" points="112.02,-41.27 121.38,-36.3 110.97,-34.35 112.02,-41.27"/>
</a>
</g>
</g>
<!-- Node4 -->
<g id="Node000004" class="node">
<title>Node4</title>
<g id="a_Node000004"><a xlink:href="namespaceshared.html#a80f3b59804700742a5a0c6ea15bf24f9" target="_top" xlink:title="A Blocking Parser that returns the output in a single string.">
<polygon fill="white" stroke="#666666" points="331.12,-58 255.88,-58 255.88,-38 331.12,-38 331.12,-58"/>
<text text-anchor="middle" x="293.5" y="-44.5" font-family="Helvetica,sans-Serif" font-size="10.00">shared::dump</text>
</a>
</g>
</g>
<!-- Node3&#45;&gt;Node4 -->
<g id="edge3_Node000003_Node000004" class="edge">
<title>Node3&#45;&gt;Node4</title>
<g id="a_edge3_Node000003_Node000004"><a xlink:title=" ">
<path fill="none" stroke="#63b8ff" d="M217.44,-36.24C226.18,-37.61 235.36,-39.05 244.17,-40.43"/>
<polygon fill="#63b8ff" stroke="#63b8ff" points="243.56,-43.87 253.98,-41.96 244.65,-36.96 243.56,-43.87"/>
</a>
</g>
</g>
<!-- Node5 -->
<g id="Node000005" class="node">
<title>Node5</title>
<g id="a_Node000005"><a xlink:href="namespaceshared.html#a690cc836408825d804377522d9d99a07" target="_top" xlink:title="Split a string.">
<polygon fill="white" stroke="#666666" points="333.75,-20 253.25,-20 253.25,0 333.75,0 333.75,-20"/>
<text text-anchor="middle" x="293.5" y="-6.5" font-family="Helvetica,sans-Serif" font-size="10.00">shared::splitter</text>
</a>
</g>
</g>
<!-- Node3&#45;&gt;Node5 -->
<g id="edge4_Node000003_Node000005" class="edge">
<title>Node3&#45;&gt;Node5</title>
<g id="a_edge4_Node000003_Node000005"><a xlink:title=" ">
<path fill="none" stroke="#63b8ff" d="M217.44,-21.76C225.35,-20.52 233.61,-19.23 241.64,-17.97"/>
<polygon fill="#63b8ff" stroke="#63b8ff" points="241.94,-21.47 251.28,-16.46 240.86,-14.55 241.94,-21.47"/>
</a>
</g>
</g>
<!-- Node6 -->
<g id="Node000006" class="node">
<title>Node6</title>
<g id="a_Node000006"><a xlink:href="namespaceshared.html#a6282d0d8d2ab3f70038d7428729c15ca" target="_top" xlink:title="Escape a string.">
<polygon fill="white" stroke="#666666" points="452.5,-20 369.75,-20 369.75,0 452.5,0 452.5,-20"/>
<text text-anchor="middle" x="411.12" y="-6.5" font-family="Helvetica,sans-Serif" font-size="10.00">shared::escape</text>
</a>
</g>
</g>
<!-- Node5&#45;&gt;Node6 -->
<g id="edge5_Node000005_Node000006" class="edge">
<title>Node5&#45;&gt;Node6</title>
<g id="a_edge5_Node000005_Node000006"><a xlink:title=" ">
<path fill="none" stroke="#63b8ff" d="M333.97,-10C341.71,-10 349.93,-10 358.01,-10"/>
<polygon fill="#63b8ff" stroke="#63b8ff" points="357.75,-13.5 367.75,-10 357.75,-6.5 357.75,-13.5"/>
</a>
</g>
</g>
</g>
</svg>
</svg>

<style type='text/css'>
<![CDATA[
[data-mouse-over-selected='false'] { opacity: 0.7; }
[data-mouse-over-selected='true']  { opacity: 1.0; }
]]>
</style>
<script type="application/ecmascript"><![CDATA[
document.addEventListener('DOMContentLoaded', (event) => {
  highlightEdges();
  highlightAdjacentNodes();
});
]]></script>
</svg>
