<?xml version="1.0" encoding="UTF-8" standalone="no"?>
<!DOCTYPE svg PUBLIC "-//W3C//DTD SVG 1.1//EN"
 "http://www.w3.org/Graphics/SVG/1.1/DTD/svg11.dtd">
<!-- Generated by graphviz version 12.2.1 (0)
 -->
<!-- Title: generate::script Pages: 1 -->
<svg width="200pt" height="66pt"
 viewBox="0.00 0.00 199.75 66.00" xmlns="http://www.w3.org/2000/svg" xmlns:xlink="http://www.w3.org/1999/xlink">
<g id="graph0" class="graph" transform="scale(1 1) rotate(0) translate(4 62)">
<title>generate::script</title>
<!-- Node1 -->
<g id="Node000001" class="node">
<title>Node1</title>
<g id="a_Node000001"><a xlink:title="Generate a script for the sandbox.">
<polygon fill="#999999" stroke="#666666" points="83.5,-39 0,-39 0,-19 83.5,-19 83.5,-39"/>
<text text-anchor="middle" x="41.75" y="-25.5" font-family="Helvetica,sans-Serif" font-size="10.00">generate::script</text>
</a>
</g>
</g>
<!-- Node2 -->
<g id="Node000002" class="node">
<title>Node2</title>
<g id="a_Node000002"><a xlink:href="namespaceshared.html#aa381bd3e7caf6ab85ad8d8518fd4adf2" target="_top" xlink:title="Execute stuff.">
<polygon fill="white" stroke="#666666" points="191.75,-58 119.5,-58 119.5,-38 191.75,-38 191.75,-58"/>
<text text-anchor="middle" x="155.62" y="-44.5" font-family="Helvetica,sans-Serif" font-size="10.00">shared::exec</text>
</a>
</g>
</g>
<!-- Node1&#45;&gt;Node2 -->
<g id="edge1_Node000001_Node000002" class="edge">
<title>Node1&#45;&gt;Node2</title>
<g id="a_edge1_Node000001_Node000002"><a xlink:title=" ">
<path fill="none" stroke="#63b8ff" d="M83.77,-35.97C91.66,-37.31 99.97,-38.72 108.01,-40.08"/>
<polygon fill="#63b8ff" stroke="#63b8ff" points="107.2,-43.5 117.65,-41.72 108.37,-36.59 107.2,-43.5"/>
</a>
</g>
</g>
<!-- Node3 -->
<g id="Node000003" class="node">
<title>Node3</title>
<g id="a_Node000003"><a xlink:href="namespaceshared.html#a2f7cb04abbe01ba7193f2d2a6d520355" target="_top" xlink:title="Join a vector into a string.">
<polygon fill="white" stroke="#666666" points="188.75,-20 122.5,-20 122.5,0 188.75,0 188.75,-20"/>
<text text-anchor="middle" x="155.62" y="-6.5" font-family="Helvetica,sans-Serif" font-size="10.00">shared::join</text>
</a>
</g>
</g>
<!-- Node1&#45;&gt;Node3 -->
<g id="edge2_Node000001_Node000003" class="edge">
<title>Node1&#45;&gt;Node3</title>
<g id="a_edge2_Node000001_Node000003"><a xlink:title=" ">
<path fill="none" stroke="#63b8ff" d="M83.77,-22.03C92.53,-20.55 101.82,-18.97 110.68,-17.46"/>
<polygon fill="#63b8ff" stroke="#63b8ff" points="111.25,-20.92 120.52,-15.79 110.07,-14.02 111.25,-20.92"/>
</a>
</g>
</g>
</g>
</svg>
