<?xml version="1.0" encoding="UTF-8" standalone="no"?>
<!DOCTYPE svg PUBLIC "-//W3C//DTD SVG 1.1//EN"
 "http://www.w3.org/Graphics/SVG/1.1/DTD/svg11.dtd">
<!-- Generated by graphviz version 12.2.1 (0)
 -->
<!-- Title: generate::cmd Pages: 1 -->
<svg width="845pt" height="950pt"
 viewBox="0.00 0.00 844.50 949.71" xmlns="http://www.w3.org/2000/svg" xmlns:xlink="http://www.w3.org/1999/xlink">
<g id="graph0" class="graph" transform="scale(1 1) rotate(0) translate(4 945.71)">
<title>generate::cmd</title>
<!-- Node1 -->
<g id="Node000001" class="node">
<title>Node1</title>
<g id="a_Node000001"><a xlink:title="Generate the bulk of the main program command.">
<polygon fill="#999999" stroke="#666666" points="78.25,-685.63 0,-685.63 0,-665.63 78.25,-665.63 78.25,-685.63"/>
<text text-anchor="middle" x="39.12" y="-672.13" font-family="Helvetica,sans-Serif" font-size="10.00">generate::cmd</text>
</a>
</g>
</g>
<!-- Node2 -->
<g id="Node000002" class="node">
<title>Node2</title>
<g id="a_Node000002"><a xlink:href="namespaceshared.html#a993cd576fb1a43b497dc350728bd8c80" target="_top" xlink:title="Batch multiple iterations of an accumulator function together, threaded.">
<polygon fill="white" stroke="#666666" points="464.88,-742.63 389.62,-742.63 389.62,-722.63 464.88,-722.63 464.88,-742.63"/>
<text text-anchor="middle" x="427.25" y="-729.13" font-family="Helvetica,sans-Serif" font-size="10.00">shared::batch</text>
</a>
</g>
</g>
<!-- Node1&#45;&gt;Node2 -->
<g id="edge1_Node000001_Node000002" class="edge">
<title>Node1&#45;&gt;Node2</title>
<g id="a_edge1_Node000001_Node000002"><a xlink:title=" ">
<path fill="none" stroke="#63b8ff" d="M58.68,-686.04C73.3,-693.7 94.45,-703.62 114.25,-708.63 205.54,-731.73 316.24,-734.55 378.21,-733.97"/>
<polygon fill="#63b8ff" stroke="#63b8ff" points="378.1,-737.47 388.06,-733.84 378.01,-730.47 378.1,-737.47"/>
</a>
</g>
</g>
<!-- Node3 -->
<g id="Node000003" class="node">
<title>Node3</title>
<g id="a_Node000003"><a xlink:href="namespaceshared.html#a1636cc0cb46e6be8f452dbc1e92a1e28" target="_top" xlink:title="Extend a container in place.">
<polygon fill="white" stroke="#666666" points="594.5,-837.63 514,-837.63 514,-817.63 594.5,-817.63 594.5,-837.63"/>
<text text-anchor="middle" x="554.25" y="-824.13" font-family="Helvetica,sans-Serif" font-size="10.00">shared::extend</text>
</a>
</g>
</g>
<!-- Node1&#45;&gt;Node3 -->
<g id="edge4_Node000001_Node000003" class="edge">
<title>Node1&#45;&gt;Node3</title>
<g id="a_edge4_Node000001_Node000003"><a xlink:title=" ">
<path fill="none" stroke="#63b8ff" d="M39.68,-685.94C38.71,-723.05 41.01,-850.43 114.25,-903.63 245.18,-998.74 455.3,-887.64 527.74,-843.85"/>
<polygon fill="#63b8ff" stroke="#63b8ff" points="529.42,-846.93 536.11,-838.71 525.76,-840.96 529.42,-846.93"/>
</a>
</g>
</g>
<!-- Node4 -->
<g id="Node000004" class="node">
<title>Node4</title>
<g id="a_Node000004"><a xlink:href="namespaceshared.html#aa381bd3e7caf6ab85ad8d8518fd4adf2" target="_top" xlink:title="Execute stuff.">
<polygon fill="white" stroke="#666666" points="590.38,-504.63 518.12,-504.63 518.12,-484.63 590.38,-484.63 590.38,-504.63"/>
<text text-anchor="middle" x="554.25" y="-491.13" font-family="Helvetica,sans-Serif" font-size="10.00">shared::exec</text>
</a>
</g>
</g>
<!-- Node1&#45;&gt;Node4 -->
<g id="edge3_Node000001_Node000004" class="edge">
<title>Node1&#45;&gt;Node4</title>
<g id="a_edge3_Node000001_Node000004"><a xlink:title=" ">
<path fill="none" stroke="#63b8ff" d="M56.17,-665.2C70.71,-656.3 93.05,-643.96 114.25,-637.63 190.7,-614.83 405.04,-644.15 471.25,-599.63 499.3,-580.77 485.82,-558.78 507.25,-532.63 513.44,-525.09 521.3,-517.95 528.77,-511.94"/>
<polygon fill="#63b8ff" stroke="#63b8ff" points="530.84,-514.76 536.66,-505.9 526.59,-509.2 530.84,-514.76"/>
</a>
</g>
</g>
<!-- Node5 -->
<g id="Node000005" class="node">
<title>Node5</title>
<g id="a_Node000005"><a xlink:href="namespaceshared.html#a9ed709af90ab0108e5c3a8afdd3e7042" target="_top" xlink:title="Split the contents of an FD.">
<polygon fill="white" stroke="#666666" points="601.25,-561.63 507.25,-561.63 507.25,-541.63 601.25,-541.63 601.25,-561.63"/>
<text text-anchor="middle" x="554.25" y="-548.13" font-family="Helvetica,sans-Serif" font-size="10.00">shared::fd_splitter</text>
</a>
</g>
</g>
<!-- Node1&#45;&gt;Node5 -->
<g id="edge5_Node000001_Node000005" class="edge">
<title>Node1&#45;&gt;Node5</title>
<g id="a_edge5_Node000001_Node000005"><a xlink:title=" ">
<path fill="none" stroke="#63b8ff" d="M78.67,-685.64C158.45,-704.04 344.77,-734.89 471.25,-659.63 505.99,-638.97 531.02,-597.44 543.73,-572.33"/>
<polygon fill="#63b8ff" stroke="#63b8ff" points="546.83,-573.97 548.04,-563.44 540.53,-570.92 546.83,-573.97"/>
</a>
</g>
</g>
<!-- Node9 -->
<g id="Node000009" class="node">
<title>Node9</title>
<g id="a_Node000009"><a xlink:href="namespacelibraries.html#a4dfd6ab45adf8dc18ea57bc1f88eaedf" target="_top" xlink:title="Recursively resolve all shared&#45;libraries needed by a library.">
<polygon fill="white" stroke="#666666" points="328.88,-514.63 259.62,-514.63 259.62,-494.63 328.88,-494.63 328.88,-514.63"/>
<text text-anchor="middle" x="294.25" y="-501.13" font-family="Helvetica,sans-Serif" font-size="10.00">libraries::get</text>
</a>
</g>
</g>
<!-- Node1&#45;&gt;Node9 -->
<g id="edge10_Node000001_Node000009" class="edge">
<title>Node1&#45;&gt;Node9</title>
<g id="a_edge10_Node000001_Node000009"><a xlink:title=" ">
<path fill="none" stroke="#63b8ff" d="M49.03,-665.62C62.29,-651.06 88.46,-623.7 114.25,-604.63 161.79,-569.48 223,-537.85 260.12,-519.96"/>
<polygon fill="#63b8ff" stroke="#63b8ff" points="261.49,-523.19 269.01,-515.73 258.48,-516.87 261.49,-523.19"/>
</a>
</g>
</g>
<!-- Node11 -->
<g id="Node000011" class="node">
<title>Node11</title>
<g id="a_Node000011"><a xlink:href="namespaceshared.html#a99724c73af55fa92ae29fee700152917" target="_top" xlink:title="Log output to console, if verbose.">
<polygon fill="white" stroke="#666666" points="459.25,-248.63 395.25,-248.63 395.25,-228.63 459.25,-228.63 459.25,-248.63"/>
<text text-anchor="middle" x="427.25" y="-235.13" font-family="Helvetica,sans-Serif" font-size="10.00">shared::log</text>
</a>
</g>
</g>
<!-- Node1&#45;&gt;Node11 -->
<g id="edge22_Node000001_Node000011" class="edge">
<title>Node1&#45;&gt;Node11</title>
<g id="a_edge22_Node000001_Node000011"><a xlink:title=" ">
<path fill="none" stroke="#63b8ff" d="M40.2,-665.3C40.87,-595.77 47.63,-195.92 114.25,-98.63 175.27,-9.52 258.4,31.77 347.25,-29.63 409.84,-72.89 422.9,-172.55 425.58,-216.79"/>
<polygon fill="#63b8ff" stroke="#63b8ff" points="422.08,-216.83 426.04,-226.65 429.07,-216.5 422.08,-216.83"/>
</a>
</g>
</g>
<!-- Node12 -->
<g id="Node000012" class="node">
<title>Node12</title>
<g id="a_Node000012"><a xlink:href="namespaceshared.html#afac154f1bef460ef6f24705f6c033f37" target="_top" xlink:title="Read a file.">
<polygon fill="white" stroke="#666666" points="471.25,-438.63 383.25,-438.63 383.25,-418.63 471.25,-418.63 471.25,-438.63"/>
<text text-anchor="middle" x="427.25" y="-425.13" font-family="Helvetica,sans-Serif" font-size="10.00">shared::read_file</text>
</a>
</g>
</g>
<!-- Node1&#45;&gt;Node12 -->
<g id="edge38_Node000001_Node000012" class="edge">
<title>Node1&#45;&gt;Node12</title>
<g id="a_edge38_Node000001_Node000012"><a xlink:title=" ">
<path fill="none" stroke="#63b8ff" d="M43.45,-665.39C51.73,-641.3 75.46,-580.44 114.25,-544.63 187.41,-477.11 303.41,-447.93 371.45,-436.07"/>
<polygon fill="#63b8ff" stroke="#63b8ff" points="371.98,-439.53 381.26,-434.43 370.82,-432.63 371.98,-439.53"/>
</a>
</g>
</g>
<!-- Node15 -->
<g id="Node000015" class="node">
<title>Node15</title>
<g id="a_Node000015"><a xlink:href="namespacebinaries.html#ac1478c81b2eb2c4ecdba98e92c4e7651" target="_top" xlink:title="Parse a binary to determine dependencies.">
<polygon fill="white" stroke="#666666" points="199.62,-305.63 119.88,-305.63 119.88,-285.63 199.62,-285.63 199.62,-305.63"/>
<text text-anchor="middle" x="159.75" y="-292.13" font-family="Helvetica,sans-Serif" font-size="10.00">binaries::parse</text>
</a>
</g>
</g>
<!-- Node1&#45;&gt;Node15 -->
<g id="edge23_Node000001_Node000015" class="edge">
<title>Node1&#45;&gt;Node15</title>
<g id="a_edge23_Node000001_Node000015"><a xlink:title=" ">
<path fill="none" stroke="#63b8ff" d="M43.3,-665.47C59.18,-614.59 130.15,-387.23 152.2,-316.62"/>
<polygon fill="#63b8ff" stroke="#63b8ff" points="155.42,-318.04 155.06,-307.45 148.74,-315.96 155.42,-318.04"/>
</a>
</g>
</g>
<!-- Node19 -->
<g id="Node000019" class="node">
<title>Node19</title>
<g id="a_Node000019"><a xlink:href="namespaceshared.html#a8d237bf1ea1e2a6fb5c7d30bcb51f593" target="_top" xlink:title="Batch multiple iterations of an accumulator function together.">
<polygon fill="white" stroke="#666666" points="347.25,-58.63 241.25,-58.63 241.25,-38.63 347.25,-38.63 347.25,-58.63"/>
<text text-anchor="middle" x="294.25" y="-45.13" font-family="Helvetica,sans-Serif" font-size="10.00">shared::single_batch</text>
</a>
</g>
</g>
<!-- Node1&#45;&gt;Node19 -->
<g id="edge43_Node000001_Node000019" class="edge">
<title>Node1&#45;&gt;Node19</title>
<g id="a_edge43_Node000001_Node000019"><a xlink:title=" ">
<path fill="none" stroke="#63b8ff" d="M40.67,-665.4C43.42,-618.98 57.94,-424.07 114.25,-276.63 153.03,-175.1 157.25,-136.62 241.25,-67.63 242.55,-66.57 243.92,-65.56 245.33,-64.6"/>
<polygon fill="#63b8ff" stroke="#63b8ff" points="246.91,-67.73 253.92,-59.79 243.49,-61.62 246.91,-67.73"/>
</a>
</g>
</g>
<!-- Node22 -->
<g id="Node000022" class="node">
<title>Node22</title>
<g id="a_Node000022"><a xlink:href="namespacebinaries.html#a8c5deb9459b44c3bdf9bb6d78ee53322" target="_top" xlink:title="Setup the sandbox for the used binaries.">
<polygon fill="white" stroke="#666666" points="199.62,-894.63 119.88,-894.63 119.88,-874.63 199.62,-874.63 199.62,-894.63"/>
<text text-anchor="middle" x="159.75" y="-881.13" font-family="Helvetica,sans-Serif" font-size="10.00">binaries::setup</text>
</a>
</g>
</g>
<!-- Node1&#45;&gt;Node22 -->
<g id="edge39_Node000001_Node000022" class="edge">
<title>Node1&#45;&gt;Node22</title>
<g id="a_edge39_Node000001_Node000022"><a xlink:title=" ">
<path fill="none" stroke="#63b8ff" d="M41.31,-685.77C45.46,-716.8 62.02,-811.72 114.25,-865.63 114.97,-866.37 115.72,-867.09 116.49,-867.77"/>
<polygon fill="#63b8ff" stroke="#63b8ff" points="114.24,-870.47 124.46,-873.29 118.23,-864.72 114.24,-870.47"/>
</a>
</g>
</g>
<!-- Node23 -->
<g id="Node000023" class="node">
<title>Node23</title>
<g id="a_Node000023"><a xlink:href="namespaceshared.html#acf7d9b7a4de8ca12d42e2132f2f4b4e7" target="_top" xlink:title="Share a path with the sandbox using a mode.">
<polygon fill="white" stroke="#666666" points="197.38,-856.63 122.12,-856.63 122.12,-836.63 197.38,-836.63 197.38,-856.63"/>
<text text-anchor="middle" x="159.75" y="-843.13" font-family="Helvetica,sans-Serif" font-size="10.00">shared::share</text>
</a>
</g>
</g>
<!-- Node1&#45;&gt;Node23 -->
<g id="edge41_Node000001_Node000023" class="edge">
<title>Node1&#45;&gt;Node23</title>
<g id="a_edge41_Node000001_Node000023"><a xlink:title=" ">
<path fill="none" stroke="#63b8ff" d="M42.49,-685.99C49.13,-712.93 70.42,-785.95 114.25,-827.63 115.13,-828.47 116.06,-829.28 117.02,-830.05"/>
<polygon fill="#63b8ff" stroke="#63b8ff" points="114.84,-832.81 125.13,-835.32 118.65,-826.94 114.84,-832.81"/>
</a>
</g>
</g>
<!-- Node24 -->
<g id="Node000024" class="node">
<title>Node24</title>
<g id="a_Node000024"><a xlink:href="namespacebinaries.html#a3dceb9be58009eef337fd18d7ee738d4" target="_top" xlink:title="Symlink to /usr/bin.">
<polygon fill="white" stroke="#666666" points="204.5,-818.63 115,-818.63 115,-798.63 204.5,-798.63 204.5,-818.63"/>
<text text-anchor="middle" x="159.75" y="-805.13" font-family="Helvetica,sans-Serif" font-size="10.00">binaries::symlink</text>
</a>
</g>
</g>
<!-- Node1&#45;&gt;Node24 -->
<g id="edge44_Node000001_Node000024" class="edge">
<title>Node1&#45;&gt;Node24</title>
<g id="a_edge44_Node000001_Node000024"><a xlink:title=" ">
<path fill="none" stroke="#63b8ff" d="M44.31,-685.91C53.69,-707.81 78.47,-759.56 114.25,-789.63 115.5,-790.68 116.81,-791.68 118.17,-792.63"/>
<polygon fill="#63b8ff" stroke="#63b8ff" points="115.98,-795.4 126.38,-797.44 119.53,-789.37 115.98,-795.4"/>
</a>
</g>
</g>
<!-- Node25 -->
<g id="Node000025" class="node">
<title>Node25</title>
<g id="a_Node000025"><a xlink:href="namespacelibraries.html#aaf67d1825dab30fecb532ea92077ebe3" target="_top" xlink:title="Add symlink commands.">
<polygon fill="white" stroke="#666666" points="204.5,-780.63 115,-780.63 115,-760.63 204.5,-760.63 204.5,-780.63"/>
<text text-anchor="middle" x="159.75" y="-767.13" font-family="Helvetica,sans-Serif" font-size="10.00">libraries::symlink</text>
</a>
</g>
</g>
<!-- Node1&#45;&gt;Node25 -->
<g id="edge46_Node000001_Node000025" class="edge">
<title>Node1&#45;&gt;Node25</title>
<g id="a_edge46_Node000001_Node000025"><a xlink:title=" ">
<path fill="none" stroke="#63b8ff" d="M48.99,-685.7C62.21,-700.32 88.32,-727.76 114.25,-746.63 118.16,-749.48 122.45,-752.22 126.78,-754.75"/>
<polygon fill="#63b8ff" stroke="#63b8ff" points="125,-757.77 135.44,-759.55 128.39,-751.64 125,-757.77"/>
</a>
</g>
</g>
<!-- Node26 -->
<g id="Node000026" class="node">
<title>Node26</title>
<g id="a_Node000026"><a xlink:href="namespaceshared.html#ae5d42a7f6819f149991304227a611c78" target="_top" xlink:title="A Blocking Parser that splits the output into a vector.">
<polygon fill="white" stroke="#666666" points="205.25,-666.63 114.25,-666.63 114.25,-646.63 205.25,-646.63 205.25,-666.63"/>
<text text-anchor="middle" x="159.75" y="-653.13" font-family="Helvetica,sans-Serif" font-size="10.00">shared::vectorize</text>
</a>
</g>
</g>
<!-- Node1&#45;&gt;Node26 -->
<g id="edge48_Node000001_Node000026" class="edge">
<title>Node1&#45;&gt;Node26</title>
<g id="a_edge48_Node000001_Node000026"><a xlink:title=" ">
<path fill="none" stroke="#63b8ff" d="M78.64,-669.47C86.27,-668.24 94.43,-666.94 102.51,-665.64"/>
<polygon fill="#63b8ff" stroke="#63b8ff" points="103.01,-669.11 112.33,-664.07 101.91,-662.19 103.01,-669.11"/>
</a>
</g>
</g>
<!-- Node2&#45;&gt;Node3 -->
<g id="edge2_Node000002_Node000003" class="edge">
<title>Node2&#45;&gt;Node3</title>
<g id="a_edge2_Node000002_Node000003"><a xlink:title=" ">
<path fill="none" stroke="#63b8ff" d="M448.89,-743.04C456.16,-746.99 464.25,-751.73 471.25,-756.63 494.41,-772.87 518.62,-794.49 534.67,-809.59"/>
<polygon fill="#63b8ff" stroke="#63b8ff" points="531.95,-811.83 541.6,-816.19 536.77,-806.76 531.95,-811.83"/>
</a>
</g>
</g>
<!-- Node6 -->
<g id="Node000006" class="node">
<title>Node6</title>
<g id="a_Node000006"><a xlink:href="namespaceshared.html#a80f3b59804700742a5a0c6ea15bf24f9" target="_top" xlink:title="A Blocking Parser that returns the output in a single string.">
<polygon fill="white" stroke="#666666" points="715.12,-409.63 639.88,-409.63 639.88,-389.63 715.12,-389.63 715.12,-409.63"/>
<text text-anchor="middle" x="677.5" y="-396.13" font-family="Helvetica,sans-Serif" font-size="10.00">shared::dump</text>
</a>
</g>
</g>
<!-- Node5&#45;&gt;Node6 -->
<g id="edge6_Node000005_Node000006" class="edge">
<title>Node5&#45;&gt;Node6</title>
<g id="a_edge6_Node000005_Node000006"><a xlink:title=" ">
<path fill="none" stroke="#63b8ff" d="M569.89,-541.32C579.44,-534.18 591.84,-524.11 601.25,-513.63 627.93,-483.94 652.06,-444 665.46,-420.13"/>
<polygon fill="#63b8ff" stroke="#63b8ff" points="668.49,-421.88 670.25,-411.43 662.36,-418.5 668.49,-421.88"/>
</a>
</g>
</g>
<!-- Node7 -->
<g id="Node000007" class="node">
<title>Node7</title>
<g id="a_Node000007"><a xlink:href="namespaceshared.html#a6282d0d8d2ab3f70038d7428729c15ca" target="_top" xlink:title="Escape a string.">
<polygon fill="white" stroke="#666666" points="836.5,-561.63 753.75,-561.63 753.75,-541.63 836.5,-541.63 836.5,-561.63"/>
<text text-anchor="middle" x="795.12" y="-548.13" font-family="Helvetica,sans-Serif" font-size="10.00">shared::escape</text>
</a>
</g>
</g>
<!-- Node5&#45;&gt;Node7 -->
<g id="edge7_Node000005_Node000007" class="edge">
<title>Node5&#45;&gt;Node7</title>
<g id="a_edge7_Node000005_Node000007"><a xlink:title=" ">
<path fill="none" stroke="#63b8ff" d="M601.59,-551.63C641.9,-551.63 700.25,-551.63 742.13,-551.63"/>
<polygon fill="#63b8ff" stroke="#63b8ff" points="741.97,-555.13 751.97,-551.63 741.97,-548.13 741.97,-555.13"/>
</a>
</g>
</g>
<!-- Node8 -->
<g id="Node000008" class="node">
<title>Node8</title>
<g id="a_Node000008"><a xlink:href="namespaceshared.html#a690cc836408825d804377522d9d99a07" target="_top" xlink:title="Split a string.">
<polygon fill="white" stroke="#666666" points="717.75,-542.63 637.25,-542.63 637.25,-522.63 717.75,-522.63 717.75,-542.63"/>
<text text-anchor="middle" x="677.5" y="-529.13" font-family="Helvetica,sans-Serif" font-size="10.00">shared::splitter</text>
</a>
</g>
</g>
<!-- Node5&#45;&gt;Node8 -->
<g id="edge8_Node000005_Node000008" class="edge">
<title>Node5&#45;&gt;Node8</title>
<g id="a_edge8_Node000005_Node000008"><a xlink:title=" ">
<path fill="none" stroke="#63b8ff" d="M601.44,-544.4C609.35,-543.16 617.61,-541.86 625.64,-540.6"/>
<polygon fill="#63b8ff" stroke="#63b8ff" points="625.94,-544.1 635.28,-539.09 624.86,-537.18 625.94,-544.1"/>
</a>
</g>
</g>
<!-- Node8&#45;&gt;Node7 -->
<g id="edge9_Node000008_Node000007" class="edge">
<title>Node8&#45;&gt;Node7</title>
<g id="a_edge9_Node000008_Node000007"><a xlink:title=" ">
<path fill="none" stroke="#63b8ff" d="M717.97,-539.12C725.71,-540.39 733.93,-541.74 742.01,-543.07"/>
<polygon fill="#63b8ff" stroke="#63b8ff" points="741.33,-546.51 751.77,-544.67 742.47,-539.6 741.33,-546.51"/>
</a>
</g>
</g>
<!-- Node9&#45;&gt;Node2 -->
<g id="edge11_Node000009_Node000002" class="edge">
<title>Node9&#45;&gt;Node2</title>
<g id="a_edge11_Node000009_Node000002"><a xlink:title=" ">
<path fill="none" stroke="#63b8ff" d="M301.22,-515.02C321.42,-550.19 387.48,-665.16 414.53,-712.24"/>
<polygon fill="#63b8ff" stroke="#63b8ff" points="411.48,-713.94 419.49,-720.87 417.54,-710.46 411.48,-713.94"/>
</a>
</g>
</g>
<!-- Node9&#45;&gt;Node4 -->
<g id="edge12_Node000009_Node000004" class="edge">
<title>Node9&#45;&gt;Node4</title>
<g id="a_edge12_Node000009_Node000004"><a xlink:title=" ">
<path fill="none" stroke="#63b8ff" d="M329.24,-495.53C345.46,-491.64 365.22,-487.56 383.25,-485.63 422.14,-481.48 432.2,-483.5 471.25,-485.63 482.73,-486.26 495.06,-487.38 506.6,-488.62"/>
<polygon fill="#63b8ff" stroke="#63b8ff" points="505.97,-492.07 516.3,-489.72 506.75,-485.12 505.97,-492.07"/>
</a>
</g>
</g>
<!-- Node9&#45;&gt;Node5 -->
<g id="edge13_Node000009_Node000005" class="edge">
<title>Node9&#45;&gt;Node5</title>
<g id="a_edge13_Node000009_Node000005"><a xlink:title=" ">
<path fill="none" stroke="#63b8ff" d="M329.02,-512.33C345.36,-515.96 365.29,-520.22 383.25,-523.63 420.58,-530.73 462.71,-537.68 495.7,-542.88"/>
<polygon fill="#63b8ff" stroke="#63b8ff" points="495.05,-546.32 505.47,-544.41 496.13,-539.4 495.05,-546.32"/>
</a>
</g>
</g>
<!-- Node10 -->
<g id="Node000010" class="node">
<title>Node10</title>
<g id="a_Node000010"><a xlink:href="namespaceshared.html#a2f7cb04abbe01ba7193f2d2a6d520355" target="_top" xlink:title="Join a vector into a string.">
<polygon fill="white" stroke="#666666" points="460.38,-400.63 394.12,-400.63 394.12,-380.63 460.38,-380.63 460.38,-400.63"/>
<text text-anchor="middle" x="427.25" y="-387.13" font-family="Helvetica,sans-Serif" font-size="10.00">shared::join</text>
</a>
</g>
</g>
<!-- Node9&#45;&gt;Node10 -->
<g id="edge14_Node000009_Node000010" class="edge">
<title>Node9&#45;&gt;Node10</title>
<g id="a_edge14_Node000009_Node000010"><a xlink:title=" ">
<path fill="none" stroke="#63b8ff" d="M302.63,-494.2C316.52,-475.18 348.3,-434.58 383.25,-409.63 384.8,-408.53 386.43,-407.46 388.11,-406.44"/>
<polygon fill="#63b8ff" stroke="#63b8ff" points="389.56,-409.64 396.72,-401.82 386.25,-403.47 389.56,-409.64"/>
</a>
</g>
</g>
<!-- Node9&#45;&gt;Node11 -->
<g id="edge15_Node000009_Node000011" class="edge">
<title>Node9&#45;&gt;Node11</title>
<g id="a_edge15_Node000009_Node000011"><a xlink:title=" ">
<path fill="none" stroke="#63b8ff" d="M300.39,-494.21C319.91,-454.56 389.74,-312.77 416.09,-259.27"/>
<polygon fill="#63b8ff" stroke="#63b8ff" points="419.2,-260.86 420.48,-250.35 412.92,-257.77 419.2,-260.86"/>
</a>
</g>
</g>
<!-- Node9&#45;&gt;Node12 -->
<g id="edge16_Node000009_Node000012" class="edge">
<title>Node9&#45;&gt;Node12</title>
<g id="a_edge16_Node000009_Node000012"><a xlink:title=" ">
<path fill="none" stroke="#63b8ff" d="M320.98,-494.16C329.55,-490.31 339.01,-485.65 347.25,-480.63 364.57,-470.1 366.35,-463.83 383.25,-452.63 387.45,-449.85 392,-447.08 396.51,-444.45"/>
<polygon fill="#63b8ff" stroke="#63b8ff" points="397.86,-447.71 404.86,-439.75 394.43,-441.61 397.86,-447.71"/>
</a>
</g>
</g>
<!-- Node13 -->
<g id="Node000013" class="node">
<title>Node13</title>
<g id="a_Node000013"><a xlink:href="namespaceshared.html#a219683cbcfb575bb29797638cadafb7b" target="_top" xlink:title="A Blocking Parser that splits the output into a set.">
<polygon fill="white" stroke="#666666" points="470.12,-590.63 384.38,-590.63 384.38,-570.63 470.12,-570.63 470.12,-590.63"/>
<text text-anchor="middle" x="427.25" y="-577.13" font-family="Helvetica,sans-Serif" font-size="10.00">shared::setorize</text>
</a>
</g>
</g>
<!-- Node9&#45;&gt;Node13 -->
<g id="edge17_Node000009_Node000013" class="edge">
<title>Node9&#45;&gt;Node13</title>
<g id="a_edge17_Node000009_Node000013"><a xlink:title=" ">
<path fill="none" stroke="#63b8ff" d="M312.71,-515.12C330.41,-525.71 358.63,-542.49 383.25,-556.63 387.79,-559.24 392.63,-561.98 397.35,-564.63"/>
<polygon fill="#63b8ff" stroke="#63b8ff" points="395.6,-567.66 406.03,-569.48 399.01,-561.55 395.6,-567.66"/>
</a>
</g>
</g>
<!-- Node14 -->
<g id="Node000014" class="node">
<title>Node14</title>
<g id="a_Node000014"><a xlink:href="namespaceshared.html#a6955b6b671ef8b660a0d6ed018712923" target="_top" xlink:title="Resolve wildcard patterns.">
<polygon fill="white" stroke="#666666" points="470.88,-514.63 383.62,-514.63 383.62,-494.63 470.88,-494.63 470.88,-514.63"/>
<text text-anchor="middle" x="427.25" y="-501.13" font-family="Helvetica,sans-Serif" font-size="10.00">shared::wildcard</text>
</a>
</g>
</g>
<!-- Node9&#45;&gt;Node14 -->
<g id="edge19_Node000009_Node000014" class="edge">
<title>Node9&#45;&gt;Node14</title>
<g id="a_edge19_Node000009_Node000014"><a xlink:title=" ">
<path fill="none" stroke="#63b8ff" d="M329.33,-504.63C342.37,-504.63 357.59,-504.63 372.05,-504.63"/>
<polygon fill="#63b8ff" stroke="#63b8ff" points="371.91,-508.13 381.91,-504.63 371.91,-501.13 371.91,-508.13"/>
</a>
</g>
</g>
<!-- Node13&#45;&gt;Node5 -->
<g id="edge18_Node000013_Node000005" class="edge">
<title>Node13&#45;&gt;Node5</title>
<g id="a_edge18_Node000013_Node000005"><a xlink:title=" ">
<path fill="none" stroke="#63b8ff" d="M470.57,-570.82C479.13,-568.83 488.27,-566.71 497.22,-564.63"/>
<polygon fill="#63b8ff" stroke="#63b8ff" points="497.98,-568.05 506.93,-562.38 496.4,-561.23 497.98,-568.05"/>
</a>
</g>
</g>
<!-- Node14&#45;&gt;Node4 -->
<g id="edge20_Node000014_Node000004" class="edge">
<title>Node14&#45;&gt;Node4</title>
<g id="a_edge20_Node000014_Node000004"><a xlink:title=" ">
<path fill="none" stroke="#63b8ff" d="M471.27,-501.19C482.71,-500.28 495.12,-499.28 506.74,-498.36"/>
<polygon fill="#63b8ff" stroke="#63b8ff" points="506.83,-501.86 516.52,-497.57 506.27,-494.88 506.83,-501.86"/>
</a>
</g>
</g>
<!-- Node14&#45;&gt;Node5 -->
<g id="edge21_Node000014_Node000005" class="edge">
<title>Node14&#45;&gt;Node5</title>
<g id="a_edge21_Node000014_Node000005"><a xlink:title=" ">
<path fill="none" stroke="#63b8ff" d="M455.99,-515.06C473.31,-521.58 495.84,-530.05 514.86,-537.2"/>
<polygon fill="#63b8ff" stroke="#63b8ff" points="513.58,-540.46 524.17,-540.7 516.04,-533.9 513.58,-540.46"/>
</a>
</g>
</g>
<!-- Node15&#45;&gt;Node4 -->
<g id="edge25_Node000015_Node000004" class="edge">
<title>Node15&#45;&gt;Node4</title>
<g id="a_edge25_Node000015_Node000004"><a xlink:title=" ">
<path fill="none" stroke="#63b8ff" d="M179.02,-306.06C194.97,-314.71 218.97,-326.68 241.25,-333.63 340.16,-364.49 384.21,-315.44 471.25,-371.63 509.36,-396.24 533.93,-445.5 545.5,-473.64"/>
<polygon fill="#63b8ff" stroke="#63b8ff" points="542.2,-474.83 549.11,-482.87 548.72,-472.28 542.2,-474.83"/>
</a>
</g>
</g>
<!-- Node15&#45;&gt;Node6 -->
<g id="edge24_Node000015_Node000006" class="edge">
<title>Node15&#45;&gt;Node6</title>
<g id="a_edge24_Node000015_Node000006"><a xlink:title=" ">
<path fill="none" stroke="#63b8ff" d="M199.95,-292.18C237.87,-289.65 296.85,-287.86 347.25,-295.63 458.01,-312.71 582.59,-360.31 641.74,-384.74"/>
<polygon fill="#63b8ff" stroke="#63b8ff" points="640.36,-387.96 650.94,-388.58 643.06,-381.5 640.36,-387.96"/>
</a>
</g>
</g>
<!-- Node15&#45;&gt;Node9 -->
<g id="edge26_Node000015_Node000009" class="edge">
<title>Node15&#45;&gt;Node9</title>
<g id="a_edge26_Node000015_Node000009"><a xlink:title=" ">
<path fill="none" stroke="#63b8ff" d="M165.56,-306.02C177.14,-330.64 208.09,-394.11 241.25,-442.63 251.73,-457.98 265.27,-474.02 275.9,-485.94"/>
<polygon fill="#63b8ff" stroke="#63b8ff" points="273.04,-487.99 282.35,-493.05 278.22,-483.29 273.04,-487.99"/>
</a>
</g>
</g>
<!-- Node15&#45;&gt;Node10 -->
<g id="edge29_Node000015_Node000010" class="edge">
<title>Node15&#45;&gt;Node10</title>
<g id="a_edge29_Node000015_Node000010"><a xlink:title=" ">
<path fill="none" stroke="#63b8ff" d="M168.86,-305.96C182.1,-321.99 210.02,-352.47 241.25,-366.63 286.42,-387.13 343.76,-391.69 382.54,-392.05"/>
<polygon fill="#63b8ff" stroke="#63b8ff" points="382.43,-395.55 392.43,-392.04 382.43,-388.55 382.43,-395.55"/>
</a>
</g>
</g>
<!-- Node15&#45;&gt;Node11 -->
<g id="edge30_Node000015_Node000011" class="edge">
<title>Node15&#45;&gt;Node11</title>
<g id="a_edge30_Node000015_Node000011"><a xlink:title=" ">
<path fill="none" stroke="#63b8ff" d="M181.75,-285.26C197.7,-277.82 220.37,-268.17 241.25,-262.63 289.2,-249.93 345.99,-243.84 383.88,-240.99"/>
<polygon fill="#63b8ff" stroke="#63b8ff" points="383.77,-244.51 393.5,-240.31 383.27,-237.52 383.77,-244.51"/>
</a>
</g>
</g>
<!-- Node15&#45;&gt;Node12 -->
<g id="edge33_Node000015_Node000012" class="edge">
<title>Node15&#45;&gt;Node12</title>
<g id="a_edge33_Node000015_Node000012"><a xlink:title=" ">
<path fill="none" stroke="#63b8ff" d="M166.03,-305.83C177.05,-325.98 204.54,-370.87 241.25,-392.63 280.96,-416.17 333.08,-424.7 371.88,-427.61"/>
<polygon fill="#63b8ff" stroke="#63b8ff" points="371.24,-431.08 381.45,-428.23 371.69,-424.1 371.24,-431.08"/>
</a>
</g>
</g>
<!-- Node15&#45;&gt;Node13 -->
<g id="edge34_Node000015_Node000013" class="edge">
<title>Node15&#45;&gt;Node13</title>
<g id="a_edge34_Node000015_Node000013"><a xlink:title=" ">
<path fill="none" stroke="#63b8ff" d="M161.24,-305.99C163.5,-341.69 175.85,-460.83 241.25,-523.63 276.63,-557.61 331.79,-571.37 372.68,-576.92"/>
<polygon fill="#63b8ff" stroke="#63b8ff" points="372.23,-580.39 382.58,-578.13 373.07,-573.44 372.23,-580.39"/>
</a>
</g>
</g>
<!-- Node15&#45;&gt;Node15 -->
<g id="edge32_Node000015_Node000015" class="edge">
<title>Node15&#45;&gt;Node15</title>
<g id="a_edge32_Node000015_Node000015"><a xlink:title=" ">
<path fill="none" stroke="#63b8ff" d="M140.58,-305.97C132.39,-314.61 138.78,-323.63 159.75,-323.63 171.22,-323.63 178.32,-320.94 181.07,-317.08"/>
<polygon fill="#63b8ff" stroke="#63b8ff" points="184.54,-316.61 179.2,-307.46 177.67,-317.94 184.54,-316.61"/>
</a>
</g>
</g>
<!-- Node16 -->
<g id="Node000016" class="node">
<title>Node16</title>
<g id="a_Node000016"><a xlink:href="namespaceshared.html#ad05481a6e28afc976d57ddcba12e8a4d" target="_top" xlink:title="A Blocking Parser that returns the first count of the output.">
<polygon fill="white" stroke="#666666" points="330.38,-96.63 258.12,-96.63 258.12,-76.63 330.38,-76.63 330.38,-96.63"/>
<text text-anchor="middle" x="294.25" y="-83.13" font-family="Helvetica,sans-Serif" font-size="10.00">shared::head</text>
</a>
</g>
</g>
<!-- Node15&#45;&gt;Node16 -->
<g id="edge27_Node000015_Node000016" class="edge">
<title>Node15&#45;&gt;Node16</title>
<g id="a_edge27_Node000015_Node000016"><a xlink:title=" ">
<path fill="none" stroke="#63b8ff" d="M164.61,-285.21C178.67,-247.41 227.1,-119.09 241.25,-105.63 243.22,-103.76 245.39,-102.07 247.69,-100.55"/>
<polygon fill="#63b8ff" stroke="#63b8ff" points="249.22,-103.69 256.37,-95.87 245.91,-97.53 249.22,-103.69"/>
</a>
</g>
</g>
<!-- Node17 -->
<g id="Node000017" class="node">
<title>Node17</title>
<g id="a_Node000017"><a xlink:href="namespaceshared.html#a48902b7bb96ff218057c3b363b43ea8a" target="_top" xlink:title="Compose a return value from an accumulator function.">
<polygon fill="white" stroke="#666666" points="326.25,-324.63 262.25,-324.63 262.25,-304.63 326.25,-304.63 326.25,-324.63"/>
<text text-anchor="middle" x="294.25" y="-311.13" font-family="Helvetica,sans-Serif" font-size="10.00">shared::init</text>
</a>
</g>
</g>
<!-- Node15&#45;&gt;Node17 -->
<g id="edge28_Node000015_Node000017" class="edge">
<title>Node15&#45;&gt;Node17</title>
<g id="a_edge28_Node000015_Node000017"><a xlink:title=" ">
<path fill="none" stroke="#63b8ff" d="M199.79,-301.23C215.91,-303.54 234.64,-306.23 251.08,-308.59"/>
<polygon fill="#63b8ff" stroke="#63b8ff" points="250.14,-311.99 260.54,-309.94 251.14,-305.06 250.14,-311.99"/>
</a>
</g>
</g>
<!-- Node18 -->
<g id="Node000018" class="node">
<title>Node18</title>
<g id="a_Node000018"><a xlink:href="namespaceshared.html#a4ddc24b4d99e824f9b941fa905fb0a81" target="_top" xlink:title="A Blocking Parser that returns the first line of output.">
<polygon fill="white" stroke="#666666" points="337.88,-210.63 250.62,-210.63 250.62,-190.63 337.88,-190.63 337.88,-210.63"/>
<text text-anchor="middle" x="294.25" y="-197.13" font-family="Helvetica,sans-Serif" font-size="10.00">shared::one_line</text>
</a>
</g>
</g>
<!-- Node15&#45;&gt;Node18 -->
<g id="edge31_Node000015_Node000018" class="edge">
<title>Node15&#45;&gt;Node18</title>
<g id="a_edge31_Node000015_Node000018"><a xlink:title=" ">
<path fill="none" stroke="#63b8ff" d="M170.39,-285.42C184.77,-270.61 213.15,-242.95 241.25,-224.63 246.07,-221.49 251.37,-218.54 256.69,-215.86"/>
<polygon fill="#63b8ff" stroke="#63b8ff" points="257.91,-219.16 265.44,-211.7 254.91,-212.83 257.91,-219.16"/>
</a>
</g>
</g>
<!-- Node15&#45;&gt;Node19 -->
<g id="edge35_Node000015_Node000019" class="edge">
<title>Node15&#45;&gt;Node19</title>
<g id="a_edge35_Node000015_Node000019"><a xlink:title=" ">
<path fill="none" stroke="#63b8ff" d="M164.82,-285.18C172.81,-264.52 191.04,-217 205.25,-176.63 222.19,-128.51 205.74,-104.27 241.25,-67.63 241.98,-66.88 242.75,-66.15 243.54,-65.46"/>
<polygon fill="#63b8ff" stroke="#63b8ff" points="245.4,-68.43 251.67,-59.89 241.44,-62.65 245.4,-68.43"/>
</a>
</g>
</g>
<!-- Node20 -->
<g id="Node000020" class="node">
<title>Node20</title>
<g id="a_Node000020"><a xlink:href="namespaceshared.html#ae0ec3e8d4de79340eda47eabfd075feb" target="_top" xlink:title="Strip all instance of character from a string.">
<polygon fill="white" stroke="#666666" points="329.25,-172.63 259.25,-172.63 259.25,-152.63 329.25,-152.63 329.25,-172.63"/>
<text text-anchor="middle" x="294.25" y="-159.13" font-family="Helvetica,sans-Serif" font-size="10.00">shared::strip</text>
</a>
</g>
</g>
<!-- Node15&#45;&gt;Node20 -->
<g id="edge36_Node000015_Node000020" class="edge">
<title>Node15&#45;&gt;Node20</title>
<g id="a_edge36_Node000015_Node000020"><a xlink:title=" ">
<path fill="none" stroke="#63b8ff" d="M165.41,-285.22C175.83,-263.04 203.15,-210.79 241.25,-181.63 243.55,-179.87 246.04,-178.26 248.63,-176.79"/>
<polygon fill="#63b8ff" stroke="#63b8ff" points="250.13,-179.95 257.61,-172.44 247.09,-173.64 250.13,-179.95"/>
</a>
</g>
</g>
<!-- Node21 -->
<g id="Node000021" class="node">
<title>Node21</title>
<g id="a_Node000021"><a xlink:href="namespaceshared.html#a77e45bc6735a35fbc38891b166e40a7b" target="_top" xlink:title="Trim characters from the front and end of a string.">
<polygon fill="white" stroke="#666666" points="328.12,-134.63 260.38,-134.63 260.38,-114.63 328.12,-114.63 328.12,-134.63"/>
<text text-anchor="middle" x="294.25" y="-121.13" font-family="Helvetica,sans-Serif" font-size="10.00">shared::trim</text>
</a>
</g>
</g>
<!-- Node15&#45;&gt;Node21 -->
<g id="edge37_Node000015_Node000021" class="edge">
<title>Node15&#45;&gt;Node21</title>
<g id="a_edge37_Node000015_Node000021"><a xlink:title=" ">
<path fill="none" stroke="#63b8ff" d="M163.35,-285.52C170.78,-258.57 194.66,-184.25 241.25,-143.63 243.85,-141.37 246.74,-139.37 249.78,-137.6"/>
<polygon fill="#63b8ff" stroke="#63b8ff" points="251.06,-140.87 258.54,-133.36 248.01,-134.57 251.06,-140.87"/>
</a>
</g>
</g>
<!-- Node22&#45;&gt;Node3 -->
<g id="edge40_Node000022_Node000003" class="edge">
<title>Node22&#45;&gt;Node3</title>
<g id="a_edge40_Node000022_Node000003"><a xlink:title=" ">
<path fill="none" stroke="#63b8ff" d="M199.7,-881.51C258.74,-876.44 374.29,-865.17 471.25,-847.63 481.84,-845.72 493.11,-843.25 503.8,-840.72"/>
<polygon fill="#63b8ff" stroke="#63b8ff" points="504.31,-844.19 513.19,-838.42 502.65,-837.39 504.31,-844.19"/>
</a>
</g>
</g>
<!-- Node23&#45;&gt;Node3 -->
<g id="edge42_Node000023_Node000003" class="edge">
<title>Node23&#45;&gt;Node3</title>
<g id="a_edge42_Node000023_Node000003"><a xlink:title=" ">
<path fill="none" stroke="#63b8ff" d="M197.68,-844.85C268.16,-841.43 421.98,-833.99 502.23,-830.1"/>
<polygon fill="#63b8ff" stroke="#63b8ff" points="502.19,-833.61 512.01,-829.63 501.85,-826.62 502.19,-833.61"/>
</a>
</g>
</g>
<!-- Node24&#45;&gt;Node3 -->
<g id="edge45_Node000024_Node000003" class="edge">
<title>Node24&#45;&gt;Node3</title>
<g id="a_edge45_Node000024_Node000003"><a xlink:title=" ">
<path fill="none" stroke="#63b8ff" d="M204.63,-810.76C277.89,-814.3 424.69,-821.41 502.36,-825.17"/>
<polygon fill="#63b8ff" stroke="#63b8ff" points="502.09,-828.66 512.25,-825.65 502.43,-821.67 502.09,-828.66"/>
</a>
</g>
</g>
<!-- Node25&#45;&gt;Node3 -->
<g id="edge47_Node000025_Node000003" class="edge">
<title>Node25&#45;&gt;Node3</title>
<g id="a_edge47_Node000025_Node000003"><a xlink:title=" ">
<path fill="none" stroke="#63b8ff" d="M204.97,-777.02C265.2,-785.73 376.38,-801.82 471.25,-815.63 481.28,-817.1 492.01,-818.66 502.28,-820.16"/>
<polygon fill="#63b8ff" stroke="#63b8ff" points="501.73,-823.62 512.13,-821.61 502.74,-816.69 501.73,-823.62"/>
</a>
</g>
</g>
<!-- Node26&#45;&gt;Node5 -->
<g id="edge49_Node000026_Node000005" class="edge">
<title>Node26&#45;&gt;Node5</title>
<g id="a_edge49_Node000026_Node000005"><a xlink:title=" ">
<path fill="none" stroke="#63b8ff" d="M205.54,-662.46C268.11,-668.6 383.82,-672.54 471.25,-632.63 500.7,-619.19 525.68,-590.38 540.08,-571.01"/>
<polygon fill="#63b8ff" stroke="#63b8ff" points="542.76,-573.27 545.73,-563.09 537.07,-569.2 542.76,-573.27"/>
</a>
</g>
</g>
</g>
</svg>
