<?xml version="1.0" encoding="UTF-8" standalone="no"?>
<!DOCTYPE svg PUBLIC "-//W3C//DTD SVG 1.1//EN"
 "http://www.w3.org/Graphics/SVG/1.1/DTD/svg11.dtd">
<!-- Generated by graphviz version 12.2.1 (0)
 -->
<!-- Title: shared::read_file Pages: 1 -->
<svg width="506pt" height="352pt"
 viewBox="0.00 0.00 506.25 351.65" xmlns="http://www.w3.org/2000/svg" xmlns:xlink="http://www.w3.org/1999/xlink">
<g id="graph0" class="graph" transform="scale(1 1) rotate(0) translate(4 347.65)">
<title>shared::read_file</title>
<!-- Node1 -->
<g id="Node000001" class="node">
<title>Node1</title>
<g id="a_Node000001"><a xlink:title="Read a file.">
<polygon fill="#999999" stroke="#666666" points="498.25,-171 410.25,-171 410.25,-151 498.25,-151 498.25,-171"/>
<text text-anchor="middle" x="454.25" y="-157.5" font-family="Helvetica,sans-Serif" font-size="10.00">shared::read_file</text>
</a>
</g>
</g>
<!-- Node2 -->
<g id="Node000002" class="node">
<title>Node2</title>
<g id="a_Node000002"><a xlink:href="namespacegenerate.html#a38dcdfdf9293b8aafe77392021d65019" target="_top" xlink:title="Generate the bulk of the main program command.">
<polygon fill="white" stroke="#666666" points="89.88,-304 11.62,-304 11.62,-284 89.88,-284 89.88,-304"/>
<text text-anchor="middle" x="50.75" y="-290.5" font-family="Helvetica,sans-Serif" font-size="10.00">generate::cmd</text>
</a>
</g>
</g>
<!-- Node1&#45;&gt;Node2 -->
<g id="edge1_Node000001_Node000002" class="edge">
<title>Node1&#45;&gt;Node2</title>
<g id="a_edge1_Node000001_Node000002"><a xlink:title=" ">
<path fill="none" stroke="#63b8ff" d="M445.73,-181.89C434.54,-210.02 410.8,-259.67 374.25,-287 288.54,-351.09 242.31,-352.65 137.5,-331 112.89,-325.92 86.64,-313.42 69.77,-304.36"/>
<polygon fill="#63b8ff" stroke="#63b8ff" points="448.95,-183.29 449.23,-172.7 442.4,-180.8 448.95,-183.29"/>
</a>
</g>
</g>
<!-- Node3 -->
<g id="Node000003" class="node">
<title>Node3</title>
<g id="a_Node000003"><a xlink:href="namespacegenerate.html#aca905bc877bc18f8cb6a2cb1eaec6988" target="_top" xlink:title="Generate a desktop file for the sandbox.">
<polygon fill="white" stroke="#666666" points="374.25,-152 253.25,-152 253.25,-132 374.25,-132 374.25,-152"/>
<text text-anchor="middle" x="313.75" y="-138.5" font-family="Helvetica,sans-Serif" font-size="10.00">generate::desktop_entry</text>
</a>
</g>
</g>
<!-- Node1&#45;&gt;Node3 -->
<g id="edge2_Node000001_Node000003" class="edge">
<title>Node1&#45;&gt;Node3</title>
<g id="a_edge2_Node000001_Node000003"><a xlink:title=" ">
<path fill="none" stroke="#63b8ff" d="M398.51,-153.49C390.63,-152.41 382.5,-151.29 374.53,-150.2"/>
<polygon fill="#63b8ff" stroke="#63b8ff" points="397.93,-156.94 408.31,-154.83 398.88,-150.01 397.93,-156.94"/>
</a>
</g>
</g>
<!-- Node4 -->
<g id="Node000004" class="node">
<title>Node4</title>
<g id="a_Node000004"><a xlink:href="namespacesyscalls.html#aabdab752b02a21ab92e3af4fabba493b" target="_top" xlink:title="Generate a syscall filter.">
<polygon fill="white" stroke="#666666" points="352.12,-96 275.38,-96 275.38,-76 352.12,-76 352.12,-96"/>
<text text-anchor="middle" x="313.75" y="-82.5" font-family="Helvetica,sans-Serif" font-size="10.00">syscalls::filter</text>
</a>
</g>
</g>
<!-- Node1&#45;&gt;Node4 -->
<g id="edge3_Node000001_Node000004" class="edge">
<title>Node1&#45;&gt;Node4</title>
<g id="a_edge3_Node000001_Node000004"><a xlink:title=" ">
<path fill="none" stroke="#63b8ff" d="M423.9,-145.11C396.73,-130.39 357.13,-108.95 333.84,-96.34"/>
<polygon fill="#63b8ff" stroke="#63b8ff" points="422.2,-148.17 432.66,-149.85 425.53,-142.01 422.2,-148.17"/>
</a>
</g>
</g>
<!-- Node5 -->
<g id="Node000005" class="node">
<title>Node5</title>
<g id="a_Node000005"><a xlink:href="namespacelibraries.html#a4dfd6ab45adf8dc18ea57bc1f88eaedf" target="_top" xlink:title="Recursively resolve all shared&#45;libraries needed by a library.">
<polygon fill="white" stroke="#666666" points="348.38,-247 279.12,-247 279.12,-227 348.38,-227 348.38,-247"/>
<text text-anchor="middle" x="313.75" y="-233.5" font-family="Helvetica,sans-Serif" font-size="10.00">libraries::get</text>
</a>
</g>
</g>
<!-- Node1&#45;&gt;Node5 -->
<g id="edge5_Node000001_Node000005" class="edge">
<title>Node1&#45;&gt;Node5</title>
<g id="a_edge5_Node000001_Node000005"><a xlink:title=" ">
<path fill="none" stroke="#63b8ff" d="M424.51,-176.77C397.19,-191.76 356.9,-213.87 333.49,-226.72"/>
<polygon fill="#63b8ff" stroke="#63b8ff" points="425.87,-180.02 432.96,-172.14 422.51,-173.88 425.87,-180.02"/>
</a>
</g>
</g>
<!-- Node6 -->
<g id="Node000006" class="node">
<title>Node6</title>
<g id="a_Node000006"><a xlink:href="namespacebinaries.html#ac1478c81b2eb2c4ecdba98e92c4e7651" target="_top" xlink:title="Parse a binary to determine dependencies.">
<polygon fill="white" stroke="#666666" points="217.25,-304 137.5,-304 137.5,-284 217.25,-284 217.25,-304"/>
<text text-anchor="middle" x="177.38" y="-290.5" font-family="Helvetica,sans-Serif" font-size="10.00">binaries::parse</text>
</a>
</g>
</g>
<!-- Node1&#45;&gt;Node6 -->
<g id="edge12_Node000001_Node000006" class="edge">
<title>Node1&#45;&gt;Node6</title>
<g id="a_edge12_Node000001_Node000006"><a xlink:title=" ">
<path fill="none" stroke="#63b8ff" d="M442.18,-181.26C429,-203.32 404.89,-237.87 374.25,-256 325.51,-284.84 259.13,-292.34 217.52,-294"/>
<polygon fill="#63b8ff" stroke="#63b8ff" points="445.2,-183.02 447.14,-172.6 439.13,-179.53 445.2,-183.02"/>
</a>
</g>
</g>
<!-- Node7 -->
<g id="Node000007" class="node">
<title>Node7</title>
<g id="a_Node000007"><a xlink:href="namespacegenerate.html#a5c0026523dd30f942c55ad25f1b607b4" target="_top" xlink:title="Spawn an instance of the xdg&#45;dbus&#45;proxy for the application instance.">
<polygon fill="white" stroke="#666666" points="101.5,-234 0,-234 0,-202 101.5,-202 101.5,-234"/>
<text text-anchor="start" x="8" y="-220.5" font-family="Helvetica,sans-Serif" font-size="10.00">generate::xdg_dbus</text>
<text text-anchor="middle" x="50.75" y="-208.5" font-family="Helvetica,sans-Serif" font-size="10.00">_proxy</text>
</a>
</g>
</g>
<!-- Node1&#45;&gt;Node7 -->
<g id="edge15_Node000001_Node000007" class="edge">
<title>Node1&#45;&gt;Node7</title>
<g id="a_edge15_Node000001_Node000007"><a xlink:title=" ">
<path fill="none" stroke="#63b8ff" d="M398.85,-168.72C320.64,-179.83 177.52,-200.14 101.8,-210.89"/>
<polygon fill="#63b8ff" stroke="#63b8ff" points="398.99,-172.24 408.4,-167.37 398.01,-165.31 398.99,-172.24"/>
</a>
</g>
</g>
<!-- Node8 -->
<g id="Node000008" class="node">
<title>Node8</title>
<g id="a_Node000008"><a xlink:href="namespacearg.html#a9da86862acc776f92533ebac921afc40" target="_top" xlink:title="Parse command line arguments.">
<polygon fill="white" stroke="#666666" points="355.5,-58 272,-58 272,-38 355.5,-38 355.5,-58"/>
<text text-anchor="middle" x="313.75" y="-44.5" font-family="Helvetica,sans-Serif" font-size="10.00">arg::parse_args</text>
</a>
</g>
</g>
<!-- Node1&#45;&gt;Node8 -->
<g id="edge13_Node000001_Node000008" class="edge">
<title>Node1&#45;&gt;Node8</title>
<g id="a_edge13_Node000001_Node000008"><a xlink:title=" ">
<path fill="none" stroke="#63b8ff" d="M441.29,-140.94C427.62,-119.67 403.33,-86.49 374.25,-67 368.67,-63.26 362.3,-60.21 355.85,-57.75"/>
<polygon fill="#63b8ff" stroke="#63b8ff" points="438.23,-142.65 446.48,-149.3 444.18,-138.96 438.23,-142.65"/>
</a>
</g>
</g>
<!-- Node9 -->
<g id="Node000009" class="node">
<title>Node9</title>
<g id="a_Node000009"><a xlink:href="namespacesyscalls.html#a501461c3842033cfab85ba4b8f328ed8" target="_top" xlink:title="Append an existing policy with newly discovered syscalls.">
<polygon fill="white" stroke="#666666" points="372.75,-20 254.75,-20 254.75,0 372.75,0 372.75,-20"/>
<text text-anchor="middle" x="313.75" y="-6.5" font-family="Helvetica,sans-Serif" font-size="10.00">syscalls::update_policy</text>
</a>
</g>
</g>
<!-- Node1&#45;&gt;Node9 -->
<g id="edge14_Node000001_Node000009" class="edge">
<title>Node1&#45;&gt;Node9</title>
<g id="a_edge14_Node000001_Node000009"><a xlink:title=" ">
<path fill="none" stroke="#63b8ff" d="M446.17,-140.13C435.26,-111.06 411.59,-58.6 374.25,-29 369.92,-25.56 364.95,-22.74 359.77,-20.43"/>
<polygon fill="#63b8ff" stroke="#63b8ff" points="442.78,-141.04 449.45,-149.28 449.37,-138.68 442.78,-141.04"/>
</a>
</g>
</g>
<!-- Node4&#45;&gt;Node4 -->
<g id="edge4_Node000004_Node000004" class="edge">
<title>Node4&#45;&gt;Node4</title>
<g id="a_edge4_Node000004_Node000004"><a xlink:title=" ">
<path fill="none" stroke="#63b8ff" d="M337.85,-107.44C334.75,-111.3 326.71,-114 313.75,-114 290.04,-114 282.82,-104.98 292.08,-96.34"/>
<polygon fill="#63b8ff" stroke="#63b8ff" points="341.3,-106.84 335.74,-97.82 334.47,-108.33 341.3,-106.84"/>
</a>
</g>
</g>
<!-- Node5&#45;&gt;Node2 -->
<g id="edge6_Node000005_Node000002" class="edge">
<title>Node5&#45;&gt;Node2</title>
<g id="a_edge6_Node000005_Node000002"><a xlink:title=" ">
<path fill="none" stroke="#63b8ff" d="M267.88,-246.67C232.47,-254.32 181.82,-265.29 137.5,-275 122.01,-278.4 104.95,-282.17 90.16,-285.45"/>
<polygon fill="#63b8ff" stroke="#63b8ff" points="268.3,-250.16 277.34,-244.63 266.82,-243.32 268.3,-250.16"/>
</a>
</g>
</g>
<!-- Node5&#45;&gt;Node6 -->
<g id="edge7_Node000005_Node000006" class="edge">
<title>Node5&#45;&gt;Node6</title>
<g id="a_edge7_Node000005_Node000006"><a xlink:title=" ">
<path fill="none" stroke="#63b8ff" d="M277.52,-251.94C254.03,-261.91 223.75,-274.75 202.87,-283.61"/>
<polygon fill="#63b8ff" stroke="#63b8ff" points="278.87,-255.17 286.71,-248.05 276.14,-248.73 278.87,-255.17"/>
</a>
</g>
</g>
<!-- Node5&#45;&gt;Node7 -->
<g id="edge11_Node000005_Node000007" class="edge">
<title>Node5&#45;&gt;Node7</title>
<g id="a_edge11_Node000005_Node000007"><a xlink:title=" ">
<path fill="none" stroke="#63b8ff" d="M267.17,-233.68C221,-230.32 149.76,-225.13 101.99,-221.66"/>
<polygon fill="#63b8ff" stroke="#63b8ff" points="266.89,-237.17 277.12,-234.41 267.4,-230.19 266.89,-237.17"/>
</a>
</g>
</g>
<!-- Node6&#45;&gt;Node2 -->
<g id="edge8_Node000006_Node000002" class="edge">
<title>Node6&#45;&gt;Node2</title>
<g id="a_edge8_Node000006_Node000002"><a xlink:title=" ">
<path fill="none" stroke="#63b8ff" d="M126.09,-294C114.15,-294 101.59,-294 90.27,-294"/>
<polygon fill="#63b8ff" stroke="#63b8ff" points="125.77,-297.5 135.77,-294 125.77,-290.5 125.77,-297.5"/>
</a>
</g>
</g>
<!-- Node6&#45;&gt;Node6 -->
<g id="edge9_Node000006_Node000006" class="edge">
<title>Node6&#45;&gt;Node6</title>
<g id="a_edge9_Node000006_Node000006"><a xlink:title=" ">
<path fill="none" stroke="#63b8ff" d="M199.76,-315.44C196.87,-319.3 189.41,-322 177.38,-322 155.36,-322 148.66,-312.98 157.26,-304.34"/>
<polygon fill="#63b8ff" stroke="#63b8ff" points="203.22,-314.92 197.8,-305.82 196.36,-316.32 203.22,-314.92"/>
</a>
</g>
</g>
<!-- Node6&#45;&gt;Node7 -->
<g id="edge10_Node000006_Node000007" class="edge">
<title>Node6&#45;&gt;Node7</title>
<g id="a_edge10_Node000006_Node000007"><a xlink:title=" ">
<path fill="none" stroke="#63b8ff" d="M149.74,-277.76C128.77,-264.97 99.68,-247.23 78.64,-234.4"/>
<polygon fill="#63b8ff" stroke="#63b8ff" points="147.66,-280.59 158.02,-282.8 151.3,-274.61 147.66,-280.59"/>
</a>
</g>
</g>
</g>
</svg>
