<?xml version="1.0" encoding="UTF-8" standalone="no"?>
<!DOCTYPE svg PUBLIC "-//W3C//DTD SVG 1.1//EN"
 "http://www.w3.org/Graphics/SVG/1.1/DTD/svg11.dtd">
<!-- Generated by graphviz version 12.2.1 (0)
 -->
<!-- Title: generate::proxy_lib Pages: 1 -->
<!--zoomable 218 -->

<svg id="main" version="1.1" xmlns="http://www.w3.org/2000/svg" xmlns:xlink="http://www.w3.org/1999/xlink" xml:space="preserve" onload="init(evt)">

<style type="text/css"><![CDATA[
.node, .edge {opacity: 0.7;}
.node.selected, .edge.selected {opacity: 1;}
.edge:hover path { stroke: red; }
.edge:hover polygon { stroke: red; fill: red; }
]]></style>

<defs>
  <circle id="rim" cx="0" cy="0" r="7"/>
  <circle id="rim2" cx="0" cy="0" r="3.5"/>
  <g id="zoomPlus">
    <use xlink:href="#rim" fill="#404040"><set attributeName="fill" to="#808080" begin="zoomplus.mouseover" end="zoomplus.mouseout"/></use>
    <path d="M-4,0h8M0,-4v8" fill="none" stroke="white" stroke-width="1.5" pointer-events="none"/>
  </g>
  <g id="zoomMin">
    <use xlink:href="#rim" fill="#404040"><set attributeName="fill" to="#808080" begin="zoomminus.mouseover" end="zoomminus.mouseout"/></use>
    <path d="M-4,0h8" fill="none" stroke="white" stroke-width="1.5" pointer-events="none"/>
  </g>
  <g id="arrowUp" transform="translate(30 24)">
    <use xlink:href="#rim"/>
    <path pointer-events="none" fill="none" stroke="white" stroke-width="1.5" d="M0,-3.0v7 M-2.5,-0.5L0,-3.0L2.5,-0.5"/>
  </g>
  <g id="arrowRight" transform="rotate(90) translate(36 -43)">
    <use xlink:href="#rim"/>
    <path pointer-events="none" fill="none" stroke="white" stroke-width="1.5" d="M0,-3.0v7 M-2.5,-0.5L0,-3.0L2.5,-0.5"/>
  </g>
  <g id="arrowDown" transform="rotate(180) translate(-30 -48)">
    <use xlink:href="#rim"/>
    <path pointer-events="none" fill="none" stroke="white" stroke-width="1.5" d="M0,-3.0v7 M-2.5,-0.5L0,-3.0L2.5,-0.5"/>
  </g>
  <g id="arrowLeft" transform="rotate(270) translate(-36 17)">
    <use xlink:href="#rim"/>
    <path pointer-events="none" fill="none" stroke="white" stroke-width="1.5" d="M0,-3.0v7 M-2.5,-0.5L0,-3.0L2.5,-0.5"/>
  </g>
  <g id="resetDef">
    <use xlink:href="#rim2" fill="#404040"><set attributeName="fill" to="#808080" begin="reset.mouseover" end="reset.mouseout"/></use>
  </g>
</defs>
<script type="application/ecmascript">
var viewWidth = 604;
var viewHeight = 218;
var sectionId = 'dynsection-3';
</script>
<script type="application/ecmascript" xlink:href="svg.min.js"/>
<svg id="graph" class="graph">
<g id="viewport">
<title>generate::proxy_lib</title>
<!-- Node1 -->
<g id="Node000001" class="node">
<title>Node1</title>
<g id="a_Node000001"><a xlink:title="Setup the Proxy&#39;s SOF.">
<polygon fill="#999999" stroke="#666666" points="98.5,-153 0,-153 0,-133 98.5,-133 98.5,-153"/>
<text text-anchor="middle" x="49.25" y="-139.5" font-family="Helvetica,sans-Serif" font-size="10.00">generate::proxy_lib</text>
</a>
</g>
</g>
<!-- Node2 -->
<g id="Node000002" class="node">
<title>Node2</title>
<g id="a_Node000002"><a xlink:href="namespacelibraries.html#a4dfd6ab45adf8dc18ea57bc1f88eaedf" target="_top" xlink:title="Recursively resolve all shared&#45;libraries needed by a library.">
<polygon fill="white" stroke="#666666" points="337.88,-172 268.62,-172 268.62,-152 337.88,-152 337.88,-172"/>
<text text-anchor="middle" x="303.25" y="-158.5" font-family="Helvetica,sans-Serif" font-size="10.00">libraries::get</text>
</a>
</g>
</g>
<!-- Node1&#45;&gt;Node2 -->
<g id="edge1_Node000001_Node000002" class="edge">
<title>Node1&#45;&gt;Node2</title>
<g id="a_edge1_Node000001_Node000002"><a xlink:title=" ">
<path fill="none" stroke="#63b8ff" d="M98.77,-148.58C110.46,-149.81 122.92,-151.04 134.5,-152 175.85,-155.44 223.04,-158.14 256.81,-159.87"/>
<polygon fill="#63b8ff" stroke="#63b8ff" points="256.49,-163.36 266.65,-160.36 256.84,-156.37 256.49,-163.36"/>
</a>
</g>
</g>
<!-- Node6 -->
<g id="Node000006" class="node">
<title>Node6</title>
<g id="a_Node000006"><a xlink:href="namespaceshared.html#a99724c73af55fa92ae29fee700152917" target="_top" xlink:title="Log output to console, if verbose.">
<polygon fill="white" stroke="#666666" points="467.88,-210 403.88,-210 403.88,-190 467.88,-190 467.88,-210"/>
<text text-anchor="middle" x="435.88" y="-196.5" font-family="Helvetica,sans-Serif" font-size="10.00">shared::log</text>
</a>
</g>
</g>
<!-- Node1&#45;&gt;Node6 -->
<g id="edge9_Node000001_Node000006" class="edge">
<title>Node1&#45;&gt;Node6</title>
<g id="a_edge9_Node000001_Node000006"><a xlink:title=" ">
<path fill="none" stroke="#63b8ff" d="M74.92,-153.47C112.11,-168.64 185.12,-195.99 250.25,-206 296.81,-213.16 309.17,-207.79 356.25,-206 367.95,-205.55 380.6,-204.74 392.27,-203.85"/>
<polygon fill="#63b8ff" stroke="#63b8ff" points="392.34,-207.35 402.02,-203.06 391.78,-200.37 392.34,-207.35"/>
</a>
</g>
</g>
<!-- Node8 -->
<g id="Node000008" class="node">
<title>Node8</title>
<g id="a_Node000008"><a xlink:href="namespaceshared.html#a4a708359d4c8dbeeaa8b744eec56c0e5" target="_top" xlink:title="Hash a string.">
<polygon fill="white" stroke="#666666" points="210.5,-69 138.25,-69 138.25,-49 210.5,-49 210.5,-69"/>
<text text-anchor="middle" x="174.38" y="-55.5" font-family="Helvetica,sans-Serif" font-size="10.00">shared::hash</text>
</a>
</g>
</g>
<!-- Node1&#45;&gt;Node8 -->
<g id="edge7_Node000001_Node000008" class="edge">
<title>Node1&#45;&gt;Node8</title>
<g id="a_edge7_Node000001_Node000008"><a xlink:title=" ">
<path fill="none" stroke="#63b8ff" d="M65.59,-132.53C86.45,-118.31 123.96,-92.71 148.77,-75.79"/>
<polygon fill="#63b8ff" stroke="#63b8ff" points="150.69,-78.72 156.97,-70.19 146.74,-72.93 150.69,-78.72"/>
</a>
</g>
</g>
<!-- Node9 -->
<g id="Node000009" class="node">
<title>Node9</title>
<g id="a_Node000009"><a xlink:href="namespacebinaries.html#ac1478c81b2eb2c4ecdba98e92c4e7651" target="_top" xlink:title="Parse a binary to determine dependencies.">
<polygon fill="white" stroke="#666666" points="214.25,-125 134.5,-125 134.5,-105 214.25,-105 214.25,-125"/>
<text text-anchor="middle" x="174.38" y="-111.5" font-family="Helvetica,sans-Serif" font-size="10.00">binaries::parse</text>
</a>
</g>
</g>
<!-- Node1&#45;&gt;Node9 -->
<g id="edge10_Node000001_Node000009" class="edge">
<title>Node1&#45;&gt;Node9</title>
<g id="a_edge10_Node000001_Node000009"><a xlink:title=" ">
<path fill="none" stroke="#63b8ff" d="M96.1,-132.57C104.94,-130.56 114.25,-128.45 123.23,-126.4"/>
<polygon fill="#63b8ff" stroke="#63b8ff" points="123.9,-129.84 132.88,-124.21 122.35,-123.01 123.9,-129.84"/>
</a>
</g>
</g>
<!-- Node3 -->
<g id="Node000003" class="node">
<title>Node3</title>
<g id="a_Node000003"><a xlink:href="namespaceshared.html#a993cd576fb1a43b497dc350728bd8c80" target="_top" xlink:title="Batch multiple iterations of an accumulator function together, threaded.">
<polygon fill="white" stroke="#666666" points="473.5,-172 398.25,-172 398.25,-152 473.5,-152 473.5,-172"/>
<text text-anchor="middle" x="435.88" y="-158.5" font-family="Helvetica,sans-Serif" font-size="10.00">shared::batch</text>
</a>
</g>
</g>
<!-- Node2&#45;&gt;Node3 -->
<g id="edge2_Node000002_Node000003" class="edge">
<title>Node2&#45;&gt;Node3</title>
<g id="a_edge2_Node000002_Node000003"><a xlink:title=" ">
<path fill="none" stroke="#63b8ff" d="M338.23,-162C352.95,-162 370.45,-162 386.49,-162"/>
<polygon fill="#63b8ff" stroke="#63b8ff" points="386.34,-165.5 396.34,-162 386.34,-158.5 386.34,-165.5"/>
</a>
</g>
</g>
<!-- Node5 -->
<g id="Node000005" class="node">
<title>Node5</title>
<g id="a_Node000005"><a xlink:href="namespaceshared.html#a2f7cb04abbe01ba7193f2d2a6d520355" target="_top" xlink:title="Join a vector into a string.">
<polygon fill="white" stroke="#666666" points="469,-77 402.75,-77 402.75,-57 469,-57 469,-77"/>
<text text-anchor="middle" x="435.88" y="-63.5" font-family="Helvetica,sans-Serif" font-size="10.00">shared::join</text>
</a>
</g>
</g>
<!-- Node2&#45;&gt;Node5 -->
<g id="edge4_Node000002_Node000005" class="edge">
<title>Node2&#45;&gt;Node5</title>
<g id="a_edge4_Node000002_Node000005"><a xlink:title=" ">
<path fill="none" stroke="#63b8ff" d="M338.36,-152.12C344.56,-149.61 350.79,-146.59 356.25,-143 375.69,-130.22 375.55,-121.2 392.25,-105 399.25,-98.2 407.17,-91.02 414.27,-84.74"/>
<polygon fill="#63b8ff" stroke="#63b8ff" points="416.32,-87.6 421.55,-78.38 411.72,-82.33 416.32,-87.6"/>
</a>
</g>
</g>
<!-- Node2&#45;&gt;Node6 -->
<g id="edge5_Node000002_Node000006" class="edge">
<title>Node2&#45;&gt;Node6</title>
<g id="a_edge5_Node000002_Node000006"><a xlink:title=" ">
<path fill="none" stroke="#63b8ff" d="M338.23,-171.88C354.93,-176.74 375.21,-182.64 392.87,-187.78"/>
<polygon fill="#63b8ff" stroke="#63b8ff" points="391.72,-191.09 402.3,-190.52 393.67,-184.37 391.72,-191.09"/>
</a>
</g>
</g>
<!-- Node7 -->
<g id="Node000007" class="node">
<title>Node7</title>
<g id="a_Node000007"><a xlink:href="namespaceshared.html#a6955b6b671ef8b660a0d6ed018712923" target="_top" xlink:title="Resolve wildcard patterns.">
<polygon fill="white" stroke="#666666" points="479.5,-134 392.25,-134 392.25,-114 479.5,-114 479.5,-134"/>
<text text-anchor="middle" x="435.88" y="-120.5" font-family="Helvetica,sans-Serif" font-size="10.00">shared::wildcard</text>
</a>
</g>
</g>
<!-- Node2&#45;&gt;Node7 -->
<g id="edge6_Node000002_Node000007" class="edge">
<title>Node2&#45;&gt;Node7</title>
<g id="a_edge6_Node000002_Node000007"><a xlink:title=" ">
<path fill="none" stroke="#63b8ff" d="M338.23,-152.12C353.61,-147.64 372.02,-142.28 388.63,-137.45"/>
<polygon fill="#63b8ff" stroke="#63b8ff" points="389.16,-140.94 397.79,-134.79 387.21,-134.22 389.16,-140.94"/>
</a>
</g>
</g>
<!-- Node4 -->
<g id="Node000004" class="node">
<title>Node4</title>
<g id="a_Node000004"><a xlink:href="namespaceshared.html#a1636cc0cb46e6be8f452dbc1e92a1e28" target="_top" xlink:title="Extend a container in place.">
<polygon fill="white" stroke="#666666" points="596,-172 515.5,-172 515.5,-152 596,-152 596,-172"/>
<text text-anchor="middle" x="555.75" y="-158.5" font-family="Helvetica,sans-Serif" font-size="10.00">shared::extend</text>
</a>
</g>
</g>
<!-- Node3&#45;&gt;Node4 -->
<g id="edge3_Node000003_Node000004" class="edge">
<title>Node3&#45;&gt;Node4</title>
<g id="a_edge3_Node000003_Node000004"><a xlink:title=" ">
<path fill="none" stroke="#63b8ff" d="M473.85,-162C483.36,-162 493.77,-162 503.86,-162"/>
<polygon fill="#63b8ff" stroke="#63b8ff" points="503.54,-165.5 513.54,-162 503.54,-158.5 503.54,-165.5"/>
</a>
</g>
</g>
<!-- Node8&#45;&gt;Node8 -->
<g id="edge8_Node000008_Node000008" class="edge">
<title>Node8&#45;&gt;Node8</title>
<g id="a_edge8_Node000008_Node000008"><a xlink:title=" ">
<path fill="none" stroke="#63b8ff" d="M154.49,-69.34C146,-77.98 152.62,-87 174.38,-87 186.27,-87 193.64,-84.3 196.49,-80.44"/>
<polygon fill="#63b8ff" stroke="#63b8ff" points="199.96,-79.94 194.55,-70.82 193.1,-81.32 199.96,-79.94"/>
</a>
</g>
</g>
<!-- Node9&#45;&gt;Node2 -->
<g id="edge11_Node000009_Node000002" class="edge">
<title>Node9&#45;&gt;Node2</title>
<g id="a_edge11_Node000009_Node000002"><a xlink:title=" ">
<path fill="none" stroke="#63b8ff" d="M203.09,-125.42C217.2,-130.71 234.63,-137.23 250.25,-143 254.39,-144.53 258.72,-146.12 263.04,-147.71"/>
<polygon fill="#63b8ff" stroke="#63b8ff" points="261.61,-150.91 272.21,-151.07 264.02,-144.34 261.61,-150.91"/>
</a>
</g>
</g>
<!-- Node9&#45;&gt;Node5 -->
<g id="edge12_Node000009_Node000005" class="edge">
<title>Node9&#45;&gt;Node5</title>
<g id="a_edge12_Node000009_Node000005"><a xlink:title=" ">
<path fill="none" stroke="#63b8ff" d="M198.86,-104.57C204.05,-101.98 209.43,-99.06 214.25,-96 231.59,-84.98 230.87,-73.83 250.25,-67 296.27,-50.77 352.86,-53.84 391.16,-59"/>
<polygon fill="#63b8ff" stroke="#63b8ff" points="390.53,-62.45 400.93,-60.43 391.54,-55.52 390.53,-62.45"/>
</a>
</g>
</g>
<!-- Node9&#45;&gt;Node6 -->
<g id="edge13_Node000009_Node000006" class="edge">
<title>Node9&#45;&gt;Node6</title>
<g id="a_edge13_Node000009_Node000006"><a xlink:title=" ">
<path fill="none" stroke="#63b8ff" d="M183.49,-125.44C195.98,-140.64 221.52,-168.43 250.25,-181 295.86,-200.96 353.67,-203.75 392.34,-202.82"/>
<polygon fill="#63b8ff" stroke="#63b8ff" points="392.31,-206.32 402.18,-202.48 392.06,-199.33 392.31,-206.32"/>
</a>
</g>
</g>
<!-- Node9&#45;&gt;Node9 -->
<g id="edge14_Node000009_Node000009" class="edge">
<title>Node9&#45;&gt;Node9</title>
<g id="a_edge14_Node000009_Node000009"><a xlink:title=" ">
<path fill="none" stroke="#63b8ff" d="M154.49,-125.34C146,-133.98 152.62,-143 174.38,-143 186.27,-143 193.64,-140.3 196.49,-136.44"/>
<polygon fill="#63b8ff" stroke="#63b8ff" points="199.96,-135.94 194.55,-126.82 193.1,-137.32 199.96,-135.94"/>
</a>
</g>
</g>
<!-- Node10 -->
<g id="Node000010" class="node">
<title>Node10</title>
<g id="a_Node000010"><a xlink:href="namespaceshared.html#a8d237bf1ea1e2a6fb5c7d30bcb51f593" target="_top" xlink:title="Batch multiple iterations of an accumulator function together.">
<polygon fill="white" stroke="#666666" points="356.25,-20 250.25,-20 250.25,0 356.25,0 356.25,-20"/>
<text text-anchor="middle" x="303.25" y="-6.5" font-family="Helvetica,sans-Serif" font-size="10.00">shared::single_batch</text>
</a>
</g>
</g>
<!-- Node9&#45;&gt;Node10 -->
<g id="edge15_Node000009_Node000010" class="edge">
<title>Node9&#45;&gt;Node10</title>
<g id="a_edge15_Node000009_Node000010"><a xlink:title=" ">
<path fill="none" stroke="#63b8ff" d="M201.83,-104.72C206.28,-102.28 210.62,-99.38 214.25,-96 237.57,-74.29 226.69,-55.45 250.25,-34 253.59,-30.96 257.38,-28.25 261.35,-25.83"/>
<polygon fill="#63b8ff" stroke="#63b8ff" points="262.94,-28.95 270.13,-21.17 259.66,-22.77 262.94,-28.95"/>
</a>
</g>
</g>
<!-- Node11 -->
<g id="Node000011" class="node">
<title>Node11</title>
<g id="a_Node000011"><a xlink:href="namespaceshared.html#ae0ec3e8d4de79340eda47eabfd075feb" target="_top" xlink:title="Strip all instance of character from a string.">
<polygon fill="white" stroke="#666666" points="338.25,-134 268.25,-134 268.25,-114 338.25,-114 338.25,-134"/>
<text text-anchor="middle" x="303.25" y="-120.5" font-family="Helvetica,sans-Serif" font-size="10.00">shared::strip</text>
</a>
</g>
</g>
<!-- Node9&#45;&gt;Node11 -->
<g id="edge16_Node000009_Node000011" class="edge">
<title>Node9&#45;&gt;Node11</title>
<g id="a_edge16_Node000009_Node000011"><a xlink:title=" ">
<path fill="none" stroke="#63b8ff" d="M214.48,-117.77C227.79,-118.72 242.78,-119.78 256.56,-120.76"/>
<polygon fill="#63b8ff" stroke="#63b8ff" points="256.06,-124.23 266.28,-121.45 256.55,-117.25 256.06,-124.23"/>
</a>
</g>
</g>
<!-- Node12 -->
<g id="Node000012" class="node">
<title>Node12</title>
<g id="a_Node000012"><a xlink:href="namespaceshared.html#a77e45bc6735a35fbc38891b166e40a7b" target="_top" xlink:title="Trim characters from the front and end of a string.">
<polygon fill="white" stroke="#666666" points="337.12,-96 269.38,-96 269.38,-76 337.12,-76 337.12,-96"/>
<text text-anchor="middle" x="303.25" y="-82.5" font-family="Helvetica,sans-Serif" font-size="10.00">shared::trim</text>
</a>
</g>
</g>
<!-- Node9&#45;&gt;Node12 -->
<g id="edge17_Node000009_Node000012" class="edge">
<title>Node9&#45;&gt;Node12</title>
<g id="a_edge17_Node000009_Node000012"><a xlink:title=" ">
<path fill="none" stroke="#63b8ff" d="M214.48,-106.06C228.27,-102.91 243.86,-99.35 258.04,-96.1"/>
<polygon fill="#63b8ff" stroke="#63b8ff" points="258.61,-99.57 267.57,-93.93 257.05,-92.74 258.61,-99.57"/>
</a>
</g>
</g>
</g>
</svg>

<g id="navigator" transform="translate(0 0)" fill="#404254">
  <rect fill="#f2f5e9" fill-opacity="0.5" stroke="#606060" stroke-width=".5" x="0" y="0" width="60" height="60"/>
  <use id="zoomplus" xlink:href="#zoomPlus" x="17" y="9" onmousedown="handleZoom(evt,'in')"/>
  <use id="zoomminus" xlink:href="#zoomMin" x="42" y="9" onmousedown="handleZoom(evt,'out')"/>
  <use id="reset" xlink:href="#resetDef" x="30" y="36" onmousedown="handleReset()"/>
   <use id="arrowup" xlink:href="#arrowUp" x="0" y="0" onmousedown="handlePan(0,-1)"/>
  <use id="arrowright" xlink:href="#arrowRight" x="0" y="0" onmousedown="handlePan(1,0)"/>
  <use id="arrowdown" xlink:href="#arrowDown" x="0" y="0" onmousedown="handlePan(0,1)"/>
  <use id="arrowleft" xlink:href="#arrowLeft" x="0" y="0" onmousedown="handlePan(-1,0)"/>
</g>
<svg viewBox="0 0 15 15" width="100%" height="30px" preserveAspectRatio="xMaxYMin meet">
 <g id="arrow_out" transform="scale(0.3 0.3)">
  <a xlink:href="namespacegenerate_a17cf0da8addab269d21c2c8074d85c4e_cgraph_org.svg" target="_base">
   <rect id="button" ry="5" rx="5" y="6" x="6" height="38" width="38"
        fill="#f2f5e9" fill-opacity="0.5" stroke="#606060" stroke-width="1.0"/>
   <path id="arrow"
     d="M 11.500037,31.436501 C 11.940474,20.09759 22.043105,11.32322 32.158766,21.979434 L 37.068811,17.246167 C 37.068811,17.246167 37.088388,32 37.088388,32 L 22.160133,31.978069 C 22.160133,31.978069 26.997745,27.140456 26.997745,27.140456 C 18.528582,18.264221 13.291696,25.230495 11.500037,31.436501 z"
     style="fill:#404040;"/>
  </a>
 </g>
</svg>

<style type='text/css'>
<![CDATA[
[data-mouse-over-selected='false'] { opacity: 0.7; }
[data-mouse-over-selected='true']  { opacity: 1.0; }
]]>
</style>
<script type="application/ecmascript"><![CDATA[
document.addEventListener('DOMContentLoaded', (event) => {
  highlightEdges();
  highlightAdjacentNodes();
});
]]></script>
</svg>
