<?xml version="1.0" encoding="UTF-8" standalone="no"?>
<!DOCTYPE svg PUBLIC "-//W3C//DTD SVG 1.1//EN"
 "http://www.w3.org/Graphics/SVG/1.1/DTD/svg11.dtd">
<!-- Generated by graphviz version 12.2.1 (0)
 -->
<!-- Title: shared::exec Pages: 1 -->
<svg width="748pt" height="208pt"
 viewBox="0.00 0.00 748.25 208.00" xmlns="http://www.w3.org/2000/svg" xmlns:xlink="http://www.w3.org/1999/xlink">
<g id="graph0" class="graph" transform="scale(1 1) rotate(0) translate(4 204)">
<title>shared::exec</title>
<!-- Node1 -->
<g id="Node000001" class="node">
<title>Node1</title>
<g id="a_Node000001"><a xlink:title="Execute stuff.">
<polygon fill="#999999" stroke="#666666" points="740.25,-115 668,-115 668,-95 740.25,-95 740.25,-115"/>
<text text-anchor="middle" x="704.12" y="-101.5" font-family="Helvetica,sans-Serif" font-size="10.00">shared::exec</text>
</a>
</g>
</g>
<!-- Node2 -->
<g id="Node000002" class="node">
<title>Node2</title>
<g id="a_Node000002"><a xlink:href="namespacegenerate.html#a38dcdfdf9293b8aafe77392021d65019" target="_top" xlink:title="Generate the bulk of the main program command.">
<polygon fill="white" stroke="#666666" points="225.88,-134 147.62,-134 147.62,-114 225.88,-114 225.88,-134"/>
<text text-anchor="middle" x="186.75" y="-120.5" font-family="Helvetica,sans-Serif" font-size="10.00">generate::cmd</text>
</a>
</g>
</g>
<!-- Node1&#45;&gt;Node2 -->
<g id="edge1_Node000001_Node000002" class="edge">
<title>Node1&#45;&gt;Node2</title>
<g id="a_edge1_Node000001_Node000002"><a xlink:title=" ">
<path fill="none" stroke="#63b8ff" d="M656.39,-117.01C648.31,-118.65 639.95,-120.09 632,-121 482.77,-138.09 303.49,-130.91 226.25,-126.5"/>
<polygon fill="#63b8ff" stroke="#63b8ff" points="657.06,-120.44 666.08,-114.89 655.57,-113.6 657.06,-120.44"/>
</a>
</g>
</g>
<!-- Node3 -->
<g id="Node000003" class="node">
<title>Node3</title>
<g id="a_Node000003"><a xlink:href="namespacelibraries.html#a4dfd6ab45adf8dc18ea57bc1f88eaedf" target="_top" xlink:title="Recursively resolve all shared&#45;libraries needed by a library.">
<polygon fill="white" stroke="#666666" points="482.88,-96 413.62,-96 413.62,-76 482.88,-76 482.88,-96"/>
<text text-anchor="middle" x="448.25" y="-82.5" font-family="Helvetica,sans-Serif" font-size="10.00">libraries::get</text>
</a>
</g>
</g>
<!-- Node1&#45;&gt;Node3 -->
<g id="edge2_Node000001_Node000003" class="edge">
<title>Node1&#45;&gt;Node3</title>
<g id="a_edge2_Node000001_Node000003"><a xlink:title=" ">
<path fill="none" stroke="#63b8ff" d="M656.68,-107.39C625.06,-108.43 582.28,-108.7 544.75,-105 524.06,-102.96 501.2,-98.5 483.04,-94.41"/>
<polygon fill="#63b8ff" stroke="#63b8ff" points="656.43,-110.9 666.29,-107.03 656.17,-103.91 656.43,-110.9"/>
</a>
</g>
</g>
<!-- Node4 -->
<g id="Node000004" class="node">
<title>Node4</title>
<g id="a_Node000004"><a xlink:href="namespacebinaries.html#ac1478c81b2eb2c4ecdba98e92c4e7651" target="_top" xlink:title="Parse a binary to determine dependencies.">
<polygon fill="white" stroke="#666666" points="351.75,-40 272,-40 272,-20 351.75,-20 351.75,-40"/>
<text text-anchor="middle" x="311.88" y="-26.5" font-family="Helvetica,sans-Serif" font-size="10.00">binaries::parse</text>
</a>
</g>
</g>
<!-- Node1&#45;&gt;Node4 -->
<g id="edge10_Node000001_Node000004" class="edge">
<title>Node1&#45;&gt;Node4</title>
<g id="a_edge10_Node000001_Node000004"><a xlink:title=" ">
<path fill="none" stroke="#63b8ff" d="M678.05,-88.61C664.87,-80.78 648.13,-72.04 632,-67 534.58,-36.54 413.37,-30.72 352.16,-29.88"/>
<polygon fill="#63b8ff" stroke="#63b8ff" points="676.14,-91.54 686.49,-93.81 679.81,-85.58 676.14,-91.54"/>
</a>
</g>
</g>
<!-- Node6 -->
<g id="Node000006" class="node">
<title>Node6</title>
<g id="a_Node000006"><a xlink:href="namespacegenerate.html#a5c0026523dd30f942c55ad25f1b607b4" target="_top" xlink:title="Spawn an instance of the xdg&#45;dbus&#45;proxy for the application instance.">
<polygon fill="white" stroke="#666666" points="101.5,-159 0,-159 0,-127 101.5,-127 101.5,-159"/>
<text text-anchor="start" x="8" y="-145.5" font-family="Helvetica,sans-Serif" font-size="10.00">generate::xdg_dbus</text>
<text text-anchor="middle" x="50.75" y="-133.5" font-family="Helvetica,sans-Serif" font-size="10.00">_proxy</text>
</a>
</g>
</g>
<!-- Node1&#45;&gt;Node6 -->
<g id="edge15_Node000001_Node000006" class="edge">
<title>Node1&#45;&gt;Node6</title>
<g id="a_edge15_Node000001_Node000006"><a xlink:title=" ">
<path fill="none" stroke="#63b8ff" d="M677.91,-121.38C633.57,-148.55 537.91,-200 449.25,-200 449.25,-200 449.25,-200 310.88,-200 234.87,-200 149.2,-176.32 97.89,-159.49"/>
<polygon fill="#63b8ff" stroke="#63b8ff" points="679.65,-124.42 686.27,-116.15 675.94,-118.48 679.65,-124.42"/>
</a>
</g>
</g>
<!-- Node7 -->
<g id="Node000007" class="node">
<title>Node7</title>
<g id="a_Node000007"><a xlink:href="namespacegenerate.html#a67b94cdd53f264ff45e467ce97cd44d4" target="_top" xlink:title="Generate a script for the sandbox.">
<polygon fill="white" stroke="#666666" points="630.12,-20 546.62,-20 546.62,0 630.12,0 630.12,-20"/>
<text text-anchor="middle" x="588.38" y="-6.5" font-family="Helvetica,sans-Serif" font-size="10.00">generate::script</text>
</a>
</g>
</g>
<!-- Node1&#45;&gt;Node7 -->
<g id="edge11_Node000001_Node000007" class="edge">
<title>Node1&#45;&gt;Node7</title>
<g id="a_edge11_Node000001_Node000007"><a xlink:title=" ">
<path fill="none" stroke="#63b8ff" d="M687.11,-86.41C673.43,-71.2 652.73,-49.71 632,-34 625.37,-28.97 617.57,-24.28 610.46,-20.4"/>
<polygon fill="#63b8ff" stroke="#63b8ff" points="684.42,-88.64 693.66,-93.82 689.66,-84.01 684.42,-88.64"/>
</a>
</g>
</g>
<!-- Node9 -->
<g id="Node000009" class="node">
<title>Node9</title>
<g id="a_Node000009"><a xlink:href="namespaceshared.html#a6955b6b671ef8b660a0d6ed018712923" target="_top" xlink:title="Resolve wildcard patterns.">
<polygon fill="white" stroke="#666666" points="632,-96 544.75,-96 544.75,-76 632,-76 632,-96"/>
<text text-anchor="middle" x="588.38" y="-82.5" font-family="Helvetica,sans-Serif" font-size="10.00">shared::wildcard</text>
</a>
</g>
</g>
<!-- Node1&#45;&gt;Node9 -->
<g id="edge13_Node000001_Node000009" class="edge">
<title>Node1&#45;&gt;Node9</title>
<g id="a_edge13_Node000001_Node000009"><a xlink:title=" ">
<path fill="none" stroke="#63b8ff" d="M656.65,-97.24C648.6,-95.89 640.27,-94.5 632.32,-93.17"/>
<polygon fill="#63b8ff" stroke="#63b8ff" points="655.82,-100.65 666.26,-98.84 656.98,-93.74 655.82,-100.65"/>
</a>
</g>
</g>
<!-- Node3&#45;&gt;Node2 -->
<g id="edge3_Node000003_Node000002" class="edge">
<title>Node3&#45;&gt;Node2</title>
<g id="a_edge3_Node000003_Node000002"><a xlink:title=" ">
<path fill="none" stroke="#63b8ff" d="M402.06,-92.63C386.16,-94.96 368.16,-97.6 351.75,-100 308.76,-106.3 259.42,-113.52 226.19,-118.38"/>
<polygon fill="#63b8ff" stroke="#63b8ff" points="402.33,-96.12 411.72,-91.21 401.32,-89.2 402.33,-96.12"/>
</a>
</g>
</g>
<!-- Node3&#45;&gt;Node4 -->
<g id="edge4_Node000003_Node000004" class="edge">
<title>Node3&#45;&gt;Node4</title>
<g id="a_edge4_Node000003_Node000004"><a xlink:title=" ">
<path fill="none" stroke="#63b8ff" d="M410.72,-71.4C403.11,-68.32 395.16,-65.08 387.75,-62 370.65,-54.9 351.44,-46.68 336.76,-40.36"/>
<polygon fill="#63b8ff" stroke="#63b8ff" points="409.15,-74.54 419.73,-75.04 411.77,-68.05 409.15,-74.54"/>
</a>
</g>
</g>
<!-- Node5 -->
<g id="Node000005" class="node">
<title>Node5</title>
<g id="a_Node000005"><a xlink:href="namespacegenerate.html#a17cf0da8addab269d21c2c8074d85c4e" target="_top" xlink:title="Setup the Proxy&#39;s SOF.">
<polygon fill="white" stroke="#666666" points="236,-96 137.5,-96 137.5,-76 236,-76 236,-96"/>
<text text-anchor="middle" x="186.75" y="-82.5" font-family="Helvetica,sans-Serif" font-size="10.00">generate::proxy_lib</text>
</a>
</g>
</g>
<!-- Node3&#45;&gt;Node5 -->
<g id="edge9_Node000003_Node000005" class="edge">
<title>Node3&#45;&gt;Node5</title>
<g id="a_edge9_Node000003_Node000005"><a xlink:title=" ">
<path fill="none" stroke="#63b8ff" d="M401.82,-86C355.46,-86 283.74,-86 236.28,-86"/>
<polygon fill="#63b8ff" stroke="#63b8ff" points="401.81,-89.5 411.81,-86 401.81,-82.5 401.81,-89.5"/>
</a>
</g>
</g>
<!-- Node4&#45;&gt;Node2 -->
<g id="edge5_Node000004_Node000002" class="edge">
<title>Node4&#45;&gt;Node2</title>
<g id="a_edge5_Node000004_Node000002"><a xlink:title=" ">
<path fill="none" stroke="#63b8ff" d="M295.69,-49.16C281.68,-65.79 259.53,-89.56 236,-105 231.03,-108.26 225.42,-111.1 219.82,-113.52"/>
<polygon fill="#63b8ff" stroke="#63b8ff" points="298.35,-51.43 301.99,-41.48 292.94,-46.99 298.35,-51.43"/>
</a>
</g>
</g>
<!-- Node4&#45;&gt;Node4 -->
<g id="edge6_Node000004_Node000004" class="edge">
<title>Node4&#45;&gt;Node4</title>
<g id="a_edge6_Node000004_Node000004"><a xlink:title=" ">
<path fill="none" stroke="#63b8ff" d="M333.99,-51.44C331.14,-55.3 323.77,-58 311.88,-58 290.12,-58 283.5,-48.98 291.99,-40.34"/>
<polygon fill="#63b8ff" stroke="#63b8ff" points="337.46,-50.94 332.05,-41.82 330.6,-52.32 337.46,-50.94"/>
</a>
</g>
</g>
<!-- Node4&#45;&gt;Node5 -->
<g id="edge7_Node000004_Node000005" class="edge">
<title>Node4&#45;&gt;Node5</title>
<g id="a_edge7_Node000004_Node000005"><a xlink:title=" ">
<path fill="none" stroke="#63b8ff" d="M277.78,-45.05C256.49,-54.73 229.38,-67.07 210.5,-75.65"/>
<polygon fill="#63b8ff" stroke="#63b8ff" points="278.97,-48.35 286.63,-41.03 276.08,-41.98 278.97,-48.35"/>
</a>
</g>
</g>
<!-- Node5&#45;&gt;Node6 -->
<g id="edge8_Node000005_Node000006" class="edge">
<title>Node5&#45;&gt;Node6</title>
<g id="a_edge8_Node000005_Node000006"><a xlink:title=" ">
<path fill="none" stroke="#63b8ff" d="M148.02,-100.68C144.46,-102.12 140.91,-103.58 137.5,-105 121.13,-111.85 103.15,-119.75 87.9,-126.58"/>
<polygon fill="#63b8ff" stroke="#63b8ff" points="149.22,-103.97 157.21,-97.01 146.63,-97.47 149.22,-103.97"/>
</a>
</g>
</g>
<!-- Node8 -->
<g id="Node000008" class="node">
<title>Node8</title>
<g id="a_Node000008"><a xlink:href="namespacegenerate.html#aca905bc877bc18f8cb6a2cb1eaec6988" target="_top" xlink:title="Generate a desktop file for the sandbox.">
<polygon fill="white" stroke="#666666" points="508.75,-20 387.75,-20 387.75,0 508.75,0 508.75,-20"/>
<text text-anchor="middle" x="448.25" y="-6.5" font-family="Helvetica,sans-Serif" font-size="10.00">generate::desktop_entry</text>
</a>
</g>
</g>
<!-- Node7&#45;&gt;Node8 -->
<g id="edge12_Node000007_Node000008" class="edge">
<title>Node7&#45;&gt;Node8</title>
<g id="a_edge12_Node000007_Node000008"><a xlink:title=" ">
<path fill="none" stroke="#63b8ff" d="M535.02,-10C526.55,-10 517.71,-10 509.08,-10"/>
<polygon fill="#63b8ff" stroke="#63b8ff" points="534.79,-13.5 544.79,-10 534.79,-6.5 534.79,-13.5"/>
</a>
</g>
</g>
<!-- Node9&#45;&gt;Node3 -->
<g id="edge14_Node000009_Node000003" class="edge">
<title>Node9&#45;&gt;Node3</title>
<g id="a_edge14_Node000009_Node000003"><a xlink:title=" ">
<path fill="none" stroke="#63b8ff" d="M532.99,-86C516.11,-86 498,-86 482.96,-86"/>
<polygon fill="#63b8ff" stroke="#63b8ff" points="532.92,-89.5 542.91,-86 532.91,-82.5 532.92,-89.5"/>
</a>
</g>
</g>
</g>
</svg>
