<?xml version="1.0" encoding="UTF-8" standalone="no"?>
<!DOCTYPE svg PUBLIC "-//W3C//DTD SVG 1.1//EN"
 "http://www.w3.org/Graphics/SVG/1.1/DTD/svg11.dtd">
<!-- Generated by graphviz version 12.2.1 (0)
 -->
<!-- Title: shared::fd_splitter Pages: 1 -->
<svg width="774pt" height="331pt"
 viewBox="0.00 0.00 773.75 331.02" xmlns="http://www.w3.org/2000/svg" xmlns:xlink="http://www.w3.org/1999/xlink">
<g id="graph0" class="graph" transform="scale(1 1) rotate(0) translate(4 327.02)">
<title>shared::fd_splitter</title>
<!-- Node1 -->
<g id="Node000001" class="node">
<title>Node1</title>
<g id="a_Node000001"><a xlink:title="Split the contents of an FD.">
<polygon fill="#999999" stroke="#666666" points="765.75,-249.25 671.75,-249.25 671.75,-229.25 765.75,-229.25 765.75,-249.25"/>
<text text-anchor="middle" x="718.75" y="-235.75" font-family="Helvetica,sans-Serif" font-size="10.00">shared::fd_splitter</text>
</a>
</g>
</g>
<!-- Node2 -->
<g id="Node000002" class="node">
<title>Node2</title>
<g id="a_Node000002"><a xlink:href="namespacegenerate.html#a38dcdfdf9293b8aafe77392021d65019" target="_top" xlink:title="Generate the bulk of the main program command.">
<polygon fill="white" stroke="#666666" points="225.88,-278.25 147.62,-278.25 147.62,-258.25 225.88,-258.25 225.88,-278.25"/>
<text text-anchor="middle" x="186.75" y="-264.75" font-family="Helvetica,sans-Serif" font-size="10.00">generate::cmd</text>
</a>
</g>
</g>
<!-- Node1&#45;&gt;Node2 -->
<g id="edge1_Node000001_Node000002" class="edge">
<title>Node1&#45;&gt;Node2</title>
<g id="a_edge1_Node000001_Node000002"><a xlink:title=" ">
<path fill="none" stroke="#63b8ff" d="M698.99,-256.86C683.4,-270.23 659.92,-287.58 635.75,-295.25 481.66,-344.18 431.6,-318.07 272,-292.25 253.68,-289.29 233.69,-283.7 217.78,-278.66"/>
<polygon fill="#63b8ff" stroke="#63b8ff" points="700.93,-259.82 706.07,-250.56 696.27,-254.59 700.93,-259.82"/>
</a>
</g>
</g>
<!-- Node3 -->
<g id="Node000003" class="node">
<title>Node3</title>
<g id="a_Node000003"><a xlink:href="namespacelibraries.html#a4dfd6ab45adf8dc18ea57bc1f88eaedf" target="_top" xlink:title="Recursively resolve all shared&#45;libraries needed by a library.">
<polygon fill="white" stroke="#666666" points="482.88,-288.25 413.62,-288.25 413.62,-268.25 482.88,-268.25 482.88,-288.25"/>
<text text-anchor="middle" x="448.25" y="-274.75" font-family="Helvetica,sans-Serif" font-size="10.00">libraries::get</text>
</a>
</g>
</g>
<!-- Node1&#45;&gt;Node3 -->
<g id="edge2_Node000001_Node000003" class="edge">
<title>Node1&#45;&gt;Node3</title>
<g id="a_edge2_Node000001_Node000003"><a xlink:title=" ">
<path fill="none" stroke="#63b8ff" d="M690.99,-255.22C675.45,-263.56 655.16,-272.92 635.75,-277.25 583.45,-288.93 520.83,-285.93 483.09,-282.35"/>
<polygon fill="#63b8ff" stroke="#63b8ff" points="692.57,-258.34 699.6,-250.42 689.16,-252.23 692.57,-258.34"/>
</a>
</g>
</g>
<!-- Node5 -->
<g id="Node000005" class="node">
<title>Node5</title>
<g id="a_Node000005"><a xlink:href="namespacegenerate.html#a17cf0da8addab269d21c2c8074d85c4e" target="_top" xlink:title="Setup the Proxy&#39;s SOF.">
<polygon fill="white" stroke="#666666" points="236,-174.25 137.5,-174.25 137.5,-154.25 236,-154.25 236,-174.25"/>
<text text-anchor="middle" x="186.75" y="-160.75" font-family="Helvetica,sans-Serif" font-size="10.00">generate::proxy_lib</text>
</a>
</g>
</g>
<!-- Node1&#45;&gt;Node5 -->
<g id="edge10_Node000001_Node000005" class="edge">
<title>Node1&#45;&gt;Node5</title>
<g id="a_edge10_Node000001_Node000005"><a xlink:title=" ">
<path fill="none" stroke="#63b8ff" d="M707.63,-218.72C682.29,-170.17 610.79,-49.7 508.75,-13.25 458.11,4.84 438.74,3.83 387.75,-13.25 301.53,-42.15 222.79,-124.51 196.78,-153.78"/>
<polygon fill="#63b8ff" stroke="#63b8ff" points="704.48,-220.25 712.14,-227.57 710.72,-217.07 704.48,-220.25"/>
</a>
</g>
</g>
<!-- Node7 -->
<g id="Node000007" class="node">
<title>Node7</title>
<g id="a_Node000007"><a xlink:href="namespaceshared.html#a219683cbcfb575bb29797638cadafb7b" target="_top" xlink:title="A Blocking Parser that splits the output into a set.">
<polygon fill="white" stroke="#666666" points="633.12,-230.25 547.38,-230.25 547.38,-210.25 633.12,-210.25 633.12,-230.25"/>
<text text-anchor="middle" x="590.25" y="-216.75" font-family="Helvetica,sans-Serif" font-size="10.00">shared::setorize</text>
</a>
</g>
</g>
<!-- Node1&#45;&gt;Node7 -->
<g id="edge11_Node000001_Node000007" class="edge">
<title>Node1&#45;&gt;Node7</title>
<g id="a_edge11_Node000001_Node000007"><a xlink:title=" ">
<path fill="none" stroke="#63b8ff" d="M660.12,-230.6C651.13,-229.25 642,-227.88 633.44,-226.59"/>
<polygon fill="#63b8ff" stroke="#63b8ff" points="659.46,-234.04 669.87,-232.06 660.5,-227.12 659.46,-234.04"/>
</a>
</g>
</g>
<!-- Node8 -->
<g id="Node000008" class="node">
<title>Node8</title>
<g id="a_Node000008"><a xlink:href="namespaceshared.html#ae5d42a7f6819f149991304227a611c78" target="_top" xlink:title="A Blocking Parser that splits the output into a vector.">
<polygon fill="white" stroke="#666666" points="635.75,-146.25 544.75,-146.25 544.75,-126.25 635.75,-126.25 635.75,-146.25"/>
<text text-anchor="middle" x="590.25" y="-132.75" font-family="Helvetica,sans-Serif" font-size="10.00">shared::vectorize</text>
</a>
</g>
</g>
<!-- Node1&#45;&gt;Node8 -->
<g id="edge14_Node000001_Node000008" class="edge">
<title>Node1&#45;&gt;Node8</title>
<g id="a_edge14_Node000001_Node000008"><a xlink:title=" ">
<path fill="none" stroke="#63b8ff" d="M696.25,-221.75C669.68,-200.11 625.35,-164.02 603.79,-146.47"/>
<polygon fill="#63b8ff" stroke="#63b8ff" points="694.02,-224.45 703.98,-228.05 698.44,-219.02 694.02,-224.45"/>
</a>
</g>
</g>
<!-- Node13 -->
<g id="Node000013" class="node">
<title>Node13</title>
<g id="a_Node000013"><a xlink:href="namespaceshared.html#a6955b6b671ef8b660a0d6ed018712923" target="_top" xlink:title="Resolve wildcard patterns.">
<polygon fill="white" stroke="#666666" points="633.88,-268.25 546.62,-268.25 546.62,-248.25 633.88,-248.25 633.88,-268.25"/>
<text text-anchor="middle" x="590.25" y="-254.75" font-family="Helvetica,sans-Serif" font-size="10.00">shared::wildcard</text>
</a>
</g>
</g>
<!-- Node1&#45;&gt;Node13 -->
<g id="edge21_Node000001_Node000013" class="edge">
<title>Node1&#45;&gt;Node13</title>
<g id="a_edge21_Node000001_Node000013"><a xlink:title=" ">
<path fill="none" stroke="#63b8ff" d="M660.09,-247.92C651.4,-249.22 642.58,-250.55 634.27,-251.79"/>
<polygon fill="#63b8ff" stroke="#63b8ff" points="660.5,-251.39 669.87,-246.45 659.46,-244.47 660.5,-251.39"/>
</a>
</g>
</g>
<!-- Node3&#45;&gt;Node2 -->
<g id="edge3_Node000003_Node000002" class="edge">
<title>Node3&#45;&gt;Node2</title>
<g id="a_edge3_Node000003_Node000002"><a xlink:title=" ">
<path fill="none" stroke="#63b8ff" d="M401.89,-279.25C366.49,-279.72 316.08,-279.73 272,-277.25 257.02,-276.41 240.6,-274.81 226.27,-273.19"/>
<polygon fill="#63b8ff" stroke="#63b8ff" points="401.84,-282.75 411.78,-279.09 401.73,-275.75 401.84,-282.75"/>
</a>
</g>
</g>
<!-- Node4 -->
<g id="Node000004" class="node">
<title>Node4</title>
<g id="a_Node000004"><a xlink:href="namespacebinaries.html#ac1478c81b2eb2c4ecdba98e92c4e7651" target="_top" xlink:title="Parse a binary to determine dependencies.">
<polygon fill="white" stroke="#666666" points="351.75,-250.25 272,-250.25 272,-230.25 351.75,-230.25 351.75,-250.25"/>
<text text-anchor="middle" x="311.88" y="-236.75" font-family="Helvetica,sans-Serif" font-size="10.00">binaries::parse</text>
</a>
</g>
</g>
<!-- Node3&#45;&gt;Node4 -->
<g id="edge4_Node000003_Node000004" class="edge">
<title>Node3&#45;&gt;Node4</title>
<g id="a_edge4_Node000003_Node000004"><a xlink:title=" ">
<path fill="none" stroke="#63b8ff" d="M402.44,-265.58C385.28,-260.73 365.92,-255.26 349.6,-250.64"/>
<polygon fill="#63b8ff" stroke="#63b8ff" points="401.31,-268.9 411.89,-268.25 403.21,-262.16 401.31,-268.9"/>
</a>
</g>
</g>
<!-- Node3&#45;&gt;Node5 -->
<g id="edge9_Node000003_Node000005" class="edge">
<title>Node3&#45;&gt;Node5</title>
<g id="a_edge9_Node000003_Node000005"><a xlink:title=" ">
<path fill="none" stroke="#63b8ff" d="M422.32,-261.46C403.49,-249.25 376.7,-232.89 351.75,-221.25 309.54,-201.57 258.55,-184.89 224.74,-174.75"/>
<polygon fill="#63b8ff" stroke="#63b8ff" points="420.36,-264.36 430.64,-266.93 424.21,-258.51 420.36,-264.36"/>
</a>
</g>
</g>
<!-- Node4&#45;&gt;Node2 -->
<g id="edge5_Node000004_Node000002" class="edge">
<title>Node4&#45;&gt;Node2</title>
<g id="a_edge5_Node000004_Node000002"><a xlink:title=" ">
<path fill="none" stroke="#63b8ff" d="M260.41,-251.73C249,-254.32 237.07,-257.04 226.25,-259.5"/>
<polygon fill="#63b8ff" stroke="#63b8ff" points="261.13,-255.16 270.1,-249.53 259.58,-248.33 261.13,-255.16"/>
</a>
</g>
</g>
<!-- Node4&#45;&gt;Node4 -->
<g id="edge6_Node000004_Node000004" class="edge">
<title>Node4&#45;&gt;Node4</title>
<g id="a_edge6_Node000004_Node000004"><a xlink:title=" ">
<path fill="none" stroke="#63b8ff" d="M333.99,-261.7C331.14,-265.56 323.77,-268.25 311.88,-268.25 290.12,-268.25 283.5,-259.23 291.99,-250.59"/>
<polygon fill="#63b8ff" stroke="#63b8ff" points="337.46,-261.19 332.05,-252.08 330.6,-262.57 337.46,-261.19"/>
</a>
</g>
</g>
<!-- Node4&#45;&gt;Node5 -->
<g id="edge7_Node000004_Node000005" class="edge">
<title>Node4&#45;&gt;Node5</title>
<g id="a_edge7_Node000004_Node000005"><a xlink:title=" ">
<path fill="none" stroke="#63b8ff" d="M284.36,-223.89C260.09,-208.91 224.94,-187.21 204.41,-174.54"/>
<polygon fill="#63b8ff" stroke="#63b8ff" points="282.38,-226.78 292.73,-229.05 286.05,-220.82 282.38,-226.78"/>
</a>
</g>
</g>
<!-- Node6 -->
<g id="Node000006" class="node">
<title>Node6</title>
<g id="a_Node000006"><a xlink:href="namespacegenerate.html#a5c0026523dd30f942c55ad25f1b607b4" target="_top" xlink:title="Spawn an instance of the xdg&#45;dbus&#45;proxy for the application instance.">
<polygon fill="white" stroke="#666666" points="101.5,-180.25 0,-180.25 0,-148.25 101.5,-148.25 101.5,-180.25"/>
<text text-anchor="start" x="8" y="-166.75" font-family="Helvetica,sans-Serif" font-size="10.00">generate::xdg_dbus</text>
<text text-anchor="middle" x="50.75" y="-154.75" font-family="Helvetica,sans-Serif" font-size="10.00">_proxy</text>
</a>
</g>
</g>
<!-- Node5&#45;&gt;Node6 -->
<g id="edge8_Node000005_Node000006" class="edge">
<title>Node5&#45;&gt;Node6</title>
<g id="a_edge8_Node000005_Node000006"><a xlink:title=" ">
<path fill="none" stroke="#63b8ff" d="M126.08,-164.25C117.99,-164.25 109.76,-164.25 101.86,-164.25"/>
<polygon fill="#63b8ff" stroke="#63b8ff" points="125.86,-167.75 135.86,-164.25 125.86,-160.75 125.86,-167.75"/>
</a>
</g>
</g>
<!-- Node7&#45;&gt;Node3 -->
<g id="edge12_Node000007_Node000003" class="edge">
<title>Node7&#45;&gt;Node3</title>
<g id="a_edge12_Node000007_Node000003"><a xlink:title=" ">
<path fill="none" stroke="#63b8ff" d="M554.66,-235.01C540.46,-241.03 523.84,-248.03 508.75,-254.25 497.84,-258.76 485.76,-263.65 475.35,-267.83"/>
<polygon fill="#63b8ff" stroke="#63b8ff" points="555.76,-238.35 563.59,-231.21 553.02,-231.9 555.76,-238.35"/>
</a>
</g>
</g>
<!-- Node7&#45;&gt;Node4 -->
<g id="edge13_Node000007_Node000004" class="edge">
<title>Node7&#45;&gt;Node4</title>
<g id="a_edge13_Node000007_Node000004"><a xlink:title=" ">
<path fill="none" stroke="#63b8ff" d="M535.59,-224.14C481.73,-228.04 400.05,-233.95 352.02,-237.42"/>
<polygon fill="#63b8ff" stroke="#63b8ff" points="535.74,-227.64 545.46,-223.42 535.24,-220.65 535.74,-227.64"/>
</a>
</g>
</g>
<!-- Node8&#45;&gt;Node2 -->
<g id="edge15_Node000008_Node000002" class="edge">
<title>Node8&#45;&gt;Node2</title>
<g id="a_edge15_Node000008_Node000002"><a xlink:title=" ">
<path fill="none" stroke="#63b8ff" d="M565.92,-153C550.43,-163.31 529.25,-175.92 508.75,-183.25 408.42,-219.18 372.68,-186.32 272,-221.25 246.05,-230.26 218.77,-247.02 202.52,-257.9"/>
<polygon fill="#63b8ff" stroke="#63b8ff" points="567.69,-156.03 573.97,-147.49 563.74,-150.25 567.69,-156.03"/>
</a>
</g>
</g>
<!-- Node9 -->
<g id="Node000009" class="node">
<title>Node9</title>
<g id="a_Node000009"><a xlink:href="namespacegenerate.html#aca905bc877bc18f8cb6a2cb1eaec6988" target="_top" xlink:title="Generate a desktop file for the sandbox.">
<polygon fill="white" stroke="#666666" points="508.75,-174.25 387.75,-174.25 387.75,-154.25 508.75,-154.25 508.75,-174.25"/>
<text text-anchor="middle" x="448.25" y="-160.75" font-family="Helvetica,sans-Serif" font-size="10.00">generate::desktop_entry</text>
</a>
</g>
</g>
<!-- Node8&#45;&gt;Node9 -->
<g id="edge16_Node000008_Node000009" class="edge">
<title>Node8&#45;&gt;Node9</title>
<g id="a_edge16_Node000008_Node000009"><a xlink:title=" ">
<path fill="none" stroke="#63b8ff" d="M533.33,-147.44C522.76,-149.55 511.75,-151.75 501.32,-153.84"/>
<polygon fill="#63b8ff" stroke="#63b8ff" points="533.96,-150.88 543.08,-145.49 532.59,-144.02 533.96,-150.88"/>
</a>
</g>
</g>
<!-- Node10 -->
<g id="Node000010" class="node">
<title>Node10</title>
<g id="a_Node000010"><a xlink:href="namespacesyscalls.html#aabdab752b02a21ab92e3af4fabba493b" target="_top" xlink:title="Generate a syscall filter.">
<polygon fill="white" stroke="#666666" points="486.62,-118.25 409.88,-118.25 409.88,-98.25 486.62,-98.25 486.62,-118.25"/>
<text text-anchor="middle" x="448.25" y="-104.75" font-family="Helvetica,sans-Serif" font-size="10.00">syscalls::filter</text>
</a>
</g>
</g>
<!-- Node8&#45;&gt;Node10 -->
<g id="edge17_Node000008_Node000010" class="edge">
<title>Node8&#45;&gt;Node10</title>
<g id="a_edge17_Node000008_Node000010"><a xlink:title=" ">
<path fill="none" stroke="#63b8ff" d="M533.42,-125.09C517.81,-121.97 501.22,-118.65 486.93,-115.79"/>
<polygon fill="#63b8ff" stroke="#63b8ff" points="532.59,-128.49 543.08,-127.02 533.96,-121.63 532.59,-128.49"/>
</a>
</g>
</g>
<!-- Node11 -->
<g id="Node000011" class="node">
<title>Node11</title>
<g id="a_Node000011"><a xlink:href="namespacearg.html#a9da86862acc776f92533ebac921afc40" target="_top" xlink:title="Parse command line arguments.">
<polygon fill="white" stroke="#666666" points="490,-80.25 406.5,-80.25 406.5,-60.25 490,-60.25 490,-80.25"/>
<text text-anchor="middle" x="448.25" y="-66.75" font-family="Helvetica,sans-Serif" font-size="10.00">arg::parse_args</text>
</a>
</g>
</g>
<!-- Node8&#45;&gt;Node11 -->
<g id="edge19_Node000008_Node000011" class="edge">
<title>Node8&#45;&gt;Node11</title>
<g id="a_edge19_Node000008_Node000011"><a xlink:title=" ">
<path fill="none" stroke="#63b8ff" d="M564.36,-119.8C548.82,-110.03 528.16,-97.89 508.75,-89.25 501.62,-86.08 493.79,-83.19 486.22,-80.67"/>
<polygon fill="#63b8ff" stroke="#63b8ff" points="562.18,-122.56 572.48,-125.01 565.95,-116.67 562.18,-122.56"/>
</a>
</g>
</g>
<!-- Node12 -->
<g id="Node000012" class="node">
<title>Node12</title>
<g id="a_Node000012"><a xlink:href="namespacesyscalls.html#a501461c3842033cfab85ba4b8f328ed8" target="_top" xlink:title="Append an existing policy with newly discovered syscalls.">
<polygon fill="white" stroke="#666666" points="507.25,-42.25 389.25,-42.25 389.25,-22.25 507.25,-22.25 507.25,-42.25"/>
<text text-anchor="middle" x="448.25" y="-28.75" font-family="Helvetica,sans-Serif" font-size="10.00">syscalls::update_policy</text>
</a>
</g>
</g>
<!-- Node8&#45;&gt;Node12 -->
<g id="edge20_Node000008_Node000012" class="edge">
<title>Node8&#45;&gt;Node12</title>
<g id="a_edge20_Node000008_Node000012"><a xlink:title=" ">
<path fill="none" stroke="#63b8ff" d="M575.65,-117C561.14,-97.77 536.45,-68.65 508.75,-51.25 503.33,-47.85 497.25,-45.01 491.1,-42.65"/>
<polygon fill="#63b8ff" stroke="#63b8ff" points="572.65,-118.82 581.38,-124.81 578.29,-114.68 572.65,-118.82"/>
</a>
</g>
</g>
<!-- Node10&#45;&gt;Node10 -->
<g id="edge18_Node000010_Node000010" class="edge">
<title>Node10&#45;&gt;Node10</title>
<g id="a_edge18_Node000010_Node000010"><a xlink:title=" ">
<path fill="none" stroke="#63b8ff" d="M472.35,-129.7C469.25,-133.56 461.21,-136.25 448.25,-136.25 424.54,-136.25 417.32,-127.23 426.58,-118.59"/>
<polygon fill="#63b8ff" stroke="#63b8ff" points="475.8,-129.09 470.24,-120.07 468.97,-130.59 475.8,-129.09"/>
</a>
</g>
</g>
<!-- Node13&#45;&gt;Node3 -->
<g id="edge22_Node000013_Node000003" class="edge">
<title>Node13&#45;&gt;Node3</title>
<g id="a_edge22_Node000013_Node000003"><a xlink:title=" ">
<path fill="none" stroke="#63b8ff" d="M535.26,-265.97C517.8,-268.46 498.93,-271.16 483.33,-273.39"/>
<polygon fill="#63b8ff" stroke="#63b8ff" points="535.58,-269.46 544.99,-264.58 534.59,-262.53 535.58,-269.46"/>
</a>
</g>
</g>
</g>
</svg>
