<?xml version="1.0" encoding="UTF-8" standalone="no"?>
<!DOCTYPE svg PUBLIC "-//W3C//DTD SVG 1.1//EN"
 "http://www.w3.org/Graphics/SVG/1.1/DTD/svg11.dtd">
<!-- Generated by graphviz version 12.2.1 (0)
 -->
<!-- Title: shared::setorize Pages: 1 -->
<svg width="452pt" height="109pt"
 viewBox="0.00 0.00 452.25 109.12" xmlns="http://www.w3.org/2000/svg" xmlns:xlink="http://www.w3.org/1999/xlink">
<g id="graph0" class="graph" transform="scale(1 1) rotate(0) translate(4 105.12)">
<title>shared::setorize</title>
<!-- Node1 -->
<g id="Node000001" class="node">
<title>Node1</title>
<g id="a_Node000001"><a xlink:title="A Blocking Parser that splits the output into a set.">
<polygon fill="#999999" stroke="#666666" points="444.25,-32.12 358.5,-32.12 358.5,-12.12 444.25,-12.12 444.25,-32.12"/>
<text text-anchor="middle" x="401.38" y="-18.62" font-family="Helvetica,sans-Serif" font-size="10.00">shared::setorize</text>
</a>
</g>
</g>
<!-- Node2 -->
<g id="Node000002" class="node">
<title>Node2</title>
<g id="a_Node000002"><a xlink:href="namespacelibraries.html#a4dfd6ab45adf8dc18ea57bc1f88eaedf" target="_top" xlink:title="Recursively resolve all shared&#45;libraries needed by a library.">
<polygon fill="white" stroke="#666666" points="322.5,-79.12 253.25,-79.12 253.25,-59.12 322.5,-59.12 322.5,-79.12"/>
<text text-anchor="middle" x="287.88" y="-65.62" font-family="Helvetica,sans-Serif" font-size="10.00">libraries::get</text>
</a>
</g>
</g>
<!-- Node1&#45;&gt;Node2 -->
<g id="edge1_Node000001_Node000002" class="edge">
<title>Node1&#45;&gt;Node2</title>
<g id="a_edge1_Node000001_Node000002"><a xlink:title=" ">
<path fill="none" stroke="#63b8ff" d="M365.1,-36.99C348.33,-44.06 328.69,-52.34 313.55,-58.72"/>
<polygon fill="#63b8ff" stroke="#63b8ff" points="366.38,-40.25 374.23,-33.14 363.66,-33.8 366.38,-40.25"/>
</a>
</g>
</g>
<!-- Node4 -->
<g id="Node000004" class="node">
<title>Node4</title>
<g id="a_Node000004"><a xlink:href="namespacebinaries.html#ac1478c81b2eb2c4ecdba98e92c4e7651" target="_top" xlink:title="Parse a binary to determine dependencies.">
<polygon fill="white" stroke="#666666" points="217.25,-32.12 137.5,-32.12 137.5,-12.12 217.25,-12.12 217.25,-32.12"/>
<text text-anchor="middle" x="177.38" y="-18.62" font-family="Helvetica,sans-Serif" font-size="10.00">binaries::parse</text>
</a>
</g>
</g>
<!-- Node1&#45;&gt;Node4 -->
<g id="edge8_Node000001_Node000004" class="edge">
<title>Node1&#45;&gt;Node4</title>
<g id="a_edge8_Node000001_Node000004"><a xlink:title=" ">
<path fill="none" stroke="#63b8ff" d="M346.72,-22.12C306.86,-22.12 253.4,-22.12 217.52,-22.12"/>
<polygon fill="#63b8ff" stroke="#63b8ff" points="346.58,-25.62 356.58,-22.12 346.58,-18.62 346.58,-25.62"/>
</a>
</g>
</g>
<!-- Node5 -->
<g id="Node000005" class="node">
<title>Node5</title>
<g id="a_Node000005"><a xlink:href="namespacegenerate.html#a5c0026523dd30f942c55ad25f1b607b4" target="_top" xlink:title="Spawn an instance of the xdg&#45;dbus&#45;proxy for the application instance.">
<polygon fill="white" stroke="#666666" points="101.5,-38.12 0,-38.12 0,-6.12 101.5,-6.12 101.5,-38.12"/>
<text text-anchor="start" x="8" y="-24.62" font-family="Helvetica,sans-Serif" font-size="10.00">generate::xdg_dbus</text>
<text text-anchor="middle" x="50.75" y="-12.62" font-family="Helvetica,sans-Serif" font-size="10.00">_proxy</text>
</a>
</g>
</g>
<!-- Node1&#45;&gt;Node5 -->
<g id="edge9_Node000001_Node000005" class="edge">
<title>Node1&#45;&gt;Node5</title>
<g id="a_edge9_Node000001_Node000005"><a xlink:title=" ">
<path fill="none" stroke="#63b8ff" d="M347.21,-12.64C294.04,-4.49 209.96,4.81 137.5,-3.12 125.83,-4.4 113.42,-6.63 101.77,-9.12"/>
<polygon fill="#63b8ff" stroke="#63b8ff" points="346.48,-16.07 356.91,-14.18 347.58,-9.16 346.48,-16.07"/>
</a>
</g>
</g>
<!-- Node3 -->
<g id="Node000003" class="node">
<title>Node3</title>
<g id="a_Node000003"><a xlink:href="namespacegenerate.html#a38dcdfdf9293b8aafe77392021d65019" target="_top" xlink:title="Generate the bulk of the main program command.">
<polygon fill="white" stroke="#666666" points="89.88,-101.12 11.62,-101.12 11.62,-81.12 89.88,-81.12 89.88,-101.12"/>
<text text-anchor="middle" x="50.75" y="-87.62" font-family="Helvetica,sans-Serif" font-size="10.00">generate::cmd</text>
</a>
</g>
</g>
<!-- Node2&#45;&gt;Node3 -->
<g id="edge2_Node000002_Node000003" class="edge">
<title>Node2&#45;&gt;Node3</title>
<g id="a_edge2_Node000002_Node000003"><a xlink:title=" ">
<path fill="none" stroke="#63b8ff" d="M251.21,-83.32C240.47,-86.93 228.54,-90.31 217.25,-92.12 174.13,-99.06 123.87,-97.41 90.15,-94.92"/>
<polygon fill="#63b8ff" stroke="#63b8ff" points="252.22,-86.68 260.47,-80.03 249.88,-80.08 252.22,-86.68"/>
</a>
</g>
</g>
<!-- Node2&#45;&gt;Node4 -->
<g id="edge3_Node000002_Node000004" class="edge">
<title>Node2&#45;&gt;Node4</title>
<g id="a_edge3_Node000002_Node000004"><a xlink:title=" ">
<path fill="none" stroke="#63b8ff" d="M252.55,-54.25C236.23,-47.18 217.12,-38.91 202.39,-32.52"/>
<polygon fill="#63b8ff" stroke="#63b8ff" points="250.84,-57.33 261.41,-58.09 253.62,-50.9 250.84,-57.33"/>
</a>
</g>
</g>
<!-- Node2&#45;&gt;Node5 -->
<g id="edge7_Node000002_Node000005" class="edge">
<title>Node2&#45;&gt;Node5</title>
<g id="a_edge7_Node000002_Node000005"><a xlink:title=" ">
<path fill="none" stroke="#63b8ff" d="M241.51,-70.06C211.58,-69.71 171.74,-67.39 137.5,-59.12 118.59,-54.55 98.56,-46.14 82.63,-38.48"/>
<polygon fill="#63b8ff" stroke="#63b8ff" points="241.33,-73.56 251.35,-70.1 241.36,-66.56 241.33,-73.56"/>
</a>
</g>
</g>
<!-- Node4&#45;&gt;Node3 -->
<g id="edge4_Node000004_Node000003" class="edge">
<title>Node4&#45;&gt;Node3</title>
<g id="a_edge4_Node000004_Node000003"><a xlink:title=" ">
<path fill="none" stroke="#63b8ff" d="M147.59,-38.06C123.85,-51.2 90.88,-69.46 70.45,-80.77"/>
<polygon fill="#63b8ff" stroke="#63b8ff" points="149.07,-41.24 156.12,-33.33 145.68,-35.12 149.07,-41.24"/>
</a>
</g>
</g>
<!-- Node4&#45;&gt;Node4 -->
<g id="edge5_Node000004_Node000004" class="edge">
<title>Node4&#45;&gt;Node4</title>
<g id="a_edge5_Node000004_Node000004"><a xlink:title=" ">
<path fill="none" stroke="#63b8ff" d="M196.91,-43.56C194.39,-47.42 187.88,-50.12 177.38,-50.12 158.17,-50.12 152.31,-41.1 159.82,-32.46"/>
<polygon fill="#63b8ff" stroke="#63b8ff" points="200.39,-43.18 195.2,-33.95 193.5,-44.41 200.39,-43.18"/>
</a>
</g>
</g>
<!-- Node4&#45;&gt;Node5 -->
<g id="edge6_Node000004_Node000005" class="edge">
<title>Node4&#45;&gt;Node5</title>
<g id="a_edge6_Node000004_Node000005"><a xlink:title=" ">
<path fill="none" stroke="#63b8ff" d="M125.86,-22.12C117.89,-22.12 109.66,-22.12 101.7,-22.12"/>
<polygon fill="#63b8ff" stroke="#63b8ff" points="125.77,-25.62 135.77,-22.12 125.77,-18.62 125.77,-25.62"/>
</a>
</g>
</g>
</g>
</svg>
