<?xml version="1.0" encoding="UTF-8" standalone="no"?>
<!DOCTYPE svg PUBLIC "-//W3C//DTD SVG 1.1//EN"
 "http://www.w3.org/Graphics/SVG/1.1/DTD/svg11.dtd">
<!-- Generated by graphviz version 12.2.1 (0)
 -->
<!-- Title: shared::dump Pages: 1 -->
<!--zoomable 330 -->

<svg id="main" version="1.1" xmlns="http://www.w3.org/2000/svg" xmlns:xlink="http://www.w3.org/1999/xlink" xml:space="preserve" onload="init(evt)">

<style type="text/css"><![CDATA[
.node, .edge {opacity: 0.7;}
.node.selected, .edge.selected {opacity: 1;}
.edge:hover path { stroke: red; }
.edge:hover polygon { stroke: red; fill: red; }
]]></style>

<defs>
  <circle id="rim" cx="0" cy="0" r="7"/>
  <circle id="rim2" cx="0" cy="0" r="3.5"/>
  <g id="zoomPlus">
    <use xlink:href="#rim" fill="#404040"><set attributeName="fill" to="#808080" begin="zoomplus.mouseover" end="zoomplus.mouseout"/></use>
    <path d="M-4,0h8M0,-4v8" fill="none" stroke="white" stroke-width="1.5" pointer-events="none"/>
  </g>
  <g id="zoomMin">
    <use xlink:href="#rim" fill="#404040"><set attributeName="fill" to="#808080" begin="zoomminus.mouseover" end="zoomminus.mouseout"/></use>
    <path d="M-4,0h8" fill="none" stroke="white" stroke-width="1.5" pointer-events="none"/>
  </g>
  <g id="arrowUp" transform="translate(30 24)">
    <use xlink:href="#rim"/>
    <path pointer-events="none" fill="none" stroke="white" stroke-width="1.5" d="M0,-3.0v7 M-2.5,-0.5L0,-3.0L2.5,-0.5"/>
  </g>
  <g id="arrowRight" transform="rotate(90) translate(36 -43)">
    <use xlink:href="#rim"/>
    <path pointer-events="none" fill="none" stroke="white" stroke-width="1.5" d="M0,-3.0v7 M-2.5,-0.5L0,-3.0L2.5,-0.5"/>
  </g>
  <g id="arrowDown" transform="rotate(180) translate(-30 -48)">
    <use xlink:href="#rim"/>
    <path pointer-events="none" fill="none" stroke="white" stroke-width="1.5" d="M0,-3.0v7 M-2.5,-0.5L0,-3.0L2.5,-0.5"/>
  </g>
  <g id="arrowLeft" transform="rotate(270) translate(-36 17)">
    <use xlink:href="#rim"/>
    <path pointer-events="none" fill="none" stroke="white" stroke-width="1.5" d="M0,-3.0v7 M-2.5,-0.5L0,-3.0L2.5,-0.5"/>
  </g>
  <g id="resetDef">
    <use xlink:href="#rim2" fill="#404040"><set attributeName="fill" to="#808080" begin="reset.mouseover" end="reset.mouseout"/></use>
  </g>
</defs>
<script type="application/ecmascript">
var viewWidth = 885;
var viewHeight = 330;
var sectionId = 'dynsection-2';
</script>
<script type="application/ecmascript" xlink:href="svg.min.js"/>
<svg id="graph" class="graph">
<g id="viewport">
<title>shared::dump</title>
<!-- Node1 -->
<g id="Node000001" class="node">
<title>Node1</title>
<g id="a_Node000001"><a xlink:title="A Blocking Parser that returns the output in a single string.">
<polygon fill="#999999" stroke="#666666" points="877,-46.45 801.75,-46.45 801.75,-26.45 877,-26.45 877,-46.45"/>
<text text-anchor="middle" x="839.38" y="-32.95" font-family="Helvetica,sans-Serif" font-size="10.00">shared::dump</text>
</a>
</g>
</g>
<!-- Node2 -->
<g id="Node000002" class="node">
<title>Node2</title>
<g id="a_Node000002"><a xlink:href="namespaceshared.html#a9ed709af90ab0108e5c3a8afdd3e7042" target="_top" xlink:title="Split the contents of an FD.">
<polygon fill="white" stroke="#666666" points="765.75,-103.45 671.75,-103.45 671.75,-83.45 765.75,-83.45 765.75,-103.45"/>
<text text-anchor="middle" x="718.75" y="-89.95" font-family="Helvetica,sans-Serif" font-size="10.00">shared::fd_splitter</text>
</a>
</g>
</g>
<!-- Node1&#45;&gt;Node2 -->
<g id="edge1_Node000001_Node000002" class="edge">
<title>Node1&#45;&gt;Node2</title>
<g id="a_edge1_Node000001_Node000002"><a xlink:title=" ">
<path fill="none" stroke="#63b8ff" d="M806.43,-51.8C785.81,-61.7 759.56,-74.32 741.37,-83.06"/>
<polygon fill="#63b8ff" stroke="#63b8ff" points="807.76,-55.04 815.25,-47.56 804.72,-48.73 807.76,-55.04"/>
</a>
</g>
</g>
<!-- Node5 -->
<g id="Node000005" class="node">
<title>Node5</title>
<g id="a_Node000005"><a xlink:href="namespacebinaries.html#ac1478c81b2eb2c4ecdba98e92c4e7651" target="_top" xlink:title="Parse a binary to determine dependencies.">
<polygon fill="white" stroke="#666666" points="351.75,-46.45 272,-46.45 272,-26.45 351.75,-26.45 351.75,-46.45"/>
<text text-anchor="middle" x="311.88" y="-32.95" font-family="Helvetica,sans-Serif" font-size="10.00">binaries::parse</text>
</a>
</g>
</g>
<!-- Node1&#45;&gt;Node5 -->
<g id="edge24_Node000001_Node000005" class="edge">
<title>Node1&#45;&gt;Node5</title>
<g id="a_edge24_Node000001_Node000005"><a xlink:title=" ">
<path fill="none" stroke="#63b8ff" d="M790.11,-36.45C686.88,-36.45 446.34,-36.45 351.91,-36.45"/>
<polygon fill="#63b8ff" stroke="#63b8ff" points="789.91,-39.95 799.91,-36.45 789.91,-32.95 789.91,-39.95"/>
</a>
</g>
</g>
<!-- Node3 -->
<g id="Node000003" class="node">
<title>Node3</title>
<g id="a_Node000003"><a xlink:href="namespacegenerate.html#a38dcdfdf9293b8aafe77392021d65019" target="_top" xlink:title="Generate the bulk of the main program command.">
<polygon fill="white" stroke="#666666" points="225.88,-258.45 147.62,-258.45 147.62,-238.45 225.88,-238.45 225.88,-258.45"/>
<text text-anchor="middle" x="186.75" y="-244.95" font-family="Helvetica,sans-Serif" font-size="10.00">generate::cmd</text>
</a>
</g>
</g>
<!-- Node2&#45;&gt;Node3 -->
<g id="edge2_Node000002_Node000003" class="edge">
<title>Node2&#45;&gt;Node3</title>
<g id="a_edge2_Node000002_Node000003"><a xlink:title=" ">
<path fill="none" stroke="#63b8ff" d="M706.06,-113.34C678.54,-157.78 604.69,-263.87 508.75,-297.45 409.43,-332.21 373.47,-326.29 272,-298.45 243.95,-290.75 215.78,-271.03 200.17,-258.78"/>
<polygon fill="#63b8ff" stroke="#63b8ff" points="708.94,-115.34 711.12,-104.97 702.95,-111.71 708.94,-115.34"/>
</a>
</g>
</g>
<!-- Node4 -->
<g id="Node000004" class="node">
<title>Node4</title>
<g id="a_Node000004"><a xlink:href="namespacelibraries.html#a4dfd6ab45adf8dc18ea57bc1f88eaedf" target="_top" xlink:title="Recursively resolve all shared&#45;libraries needed by a library.">
<polygon fill="white" stroke="#666666" points="482.88,-93.45 413.62,-93.45 413.62,-73.45 482.88,-73.45 482.88,-93.45"/>
<text text-anchor="middle" x="448.25" y="-79.95" font-family="Helvetica,sans-Serif" font-size="10.00">libraries::get</text>
</a>
</g>
</g>
<!-- Node2&#45;&gt;Node4 -->
<g id="edge3_Node000002_Node000004" class="edge">
<title>Node2&#45;&gt;Node4</title>
<g id="a_edge3_Node000002_Node000004"><a xlink:title=" ">
<path fill="none" stroke="#63b8ff" d="M659.86,-91.29C606.02,-89.29 527.64,-86.37 483.24,-84.71"/>
<polygon fill="#63b8ff" stroke="#63b8ff" points="659.65,-94.79 669.77,-91.66 659.91,-87.79 659.65,-94.79"/>
</a>
</g>
</g>
<!-- Node6 -->
<g id="Node000006" class="node">
<title>Node6</title>
<g id="a_Node000006"><a xlink:href="namespacegenerate.html#a17cf0da8addab269d21c2c8074d85c4e" target="_top" xlink:title="Setup the Proxy&#39;s SOF.">
<polygon fill="white" stroke="#666666" points="236,-46.45 137.5,-46.45 137.5,-26.45 236,-26.45 236,-46.45"/>
<text text-anchor="middle" x="186.75" y="-32.95" font-family="Helvetica,sans-Serif" font-size="10.00">generate::proxy_lib</text>
</a>
</g>
</g>
<!-- Node2&#45;&gt;Node6 -->
<g id="edge11_Node000002_Node000006" class="edge">
<title>Node2&#45;&gt;Node6</title>
<g id="a_edge11_Node000002_Node000006"><a xlink:title=" ">
<path fill="none" stroke="#63b8ff" d="M698.67,-75.64C683.04,-62.25 659.69,-44.84 635.75,-36.45 482.98,17.1 432.89,0.47 272,-17.45 256.65,-19.16 240.01,-22.57 225.61,-26.03"/>
<polygon fill="#63b8ff" stroke="#63b8ff" points="695.98,-77.93 705.78,-81.95 700.62,-72.7 695.98,-77.93"/>
</a>
</g>
</g>
<!-- Node8 -->
<g id="Node000008" class="node">
<title>Node8</title>
<g id="a_Node000008"><a xlink:href="namespaceshared.html#a219683cbcfb575bb29797638cadafb7b" target="_top" xlink:title="A Blocking Parser that splits the output into a set.">
<polygon fill="white" stroke="#666666" points="633.12,-65.45 547.38,-65.45 547.38,-45.45 633.12,-45.45 633.12,-65.45"/>
<text text-anchor="middle" x="590.25" y="-51.95" font-family="Helvetica,sans-Serif" font-size="10.00">shared::setorize</text>
</a>
</g>
</g>
<!-- Node2&#45;&gt;Node8 -->
<g id="edge12_Node000002_Node000008" class="edge">
<title>Node2&#45;&gt;Node8</title>
<g id="a_edge12_Node000002_Node000008"><a xlink:title=" ">
<path fill="none" stroke="#63b8ff" d="M672.11,-79.74C656.92,-75.18 640.27,-70.17 626.04,-65.9"/>
<polygon fill="#63b8ff" stroke="#63b8ff" points="670.81,-83 681.4,-82.53 672.83,-76.3 670.81,-83"/>
</a>
</g>
</g>
<!-- Node9 -->
<g id="Node000009" class="node">
<title>Node9</title>
<g id="a_Node000009"><a xlink:href="namespaceshared.html#ae5d42a7f6819f149991304227a611c78" target="_top" xlink:title="A Blocking Parser that splits the output into a vector.">
<polygon fill="white" stroke="#666666" points="635.75,-188.45 544.75,-188.45 544.75,-168.45 635.75,-168.45 635.75,-188.45"/>
<text text-anchor="middle" x="590.25" y="-174.95" font-family="Helvetica,sans-Serif" font-size="10.00">shared::vectorize</text>
</a>
</g>
</g>
<!-- Node2&#45;&gt;Node9 -->
<g id="edge15_Node000002_Node000009" class="edge">
<title>Node2&#45;&gt;Node9</title>
<g id="a_edge15_Node000002_Node000009"><a xlink:title=" ">
<path fill="none" stroke="#63b8ff" d="M694.07,-110.33C677.8,-121.83 655.63,-137.3 635.75,-150.45 626.77,-156.39 616.61,-162.8 608.27,-167.99"/>
<polygon fill="#63b8ff" stroke="#63b8ff" points="696,-113.26 702.14,-104.62 691.95,-107.55 696,-113.26"/>
</a>
</g>
</g>
<!-- Node14 -->
<g id="Node000014" class="node">
<title>Node14</title>
<g id="a_Node000014"><a xlink:href="namespaceshared.html#a6955b6b671ef8b660a0d6ed018712923" target="_top" xlink:title="Resolve wildcard patterns.">
<polygon fill="white" stroke="#666666" points="633.88,-141.45 546.62,-141.45 546.62,-121.45 633.88,-121.45 633.88,-141.45"/>
<text text-anchor="middle" x="590.25" y="-127.95" font-family="Helvetica,sans-Serif" font-size="10.00">shared::wildcard</text>
</a>
</g>
</g>
<!-- Node2&#45;&gt;Node14 -->
<g id="edge22_Node000002_Node000014" class="edge">
<title>Node2&#45;&gt;Node14</title>
<g id="a_edge22_Node000002_Node000014"><a xlink:title=" ">
<path fill="none" stroke="#63b8ff" d="M672.11,-107.16C656.92,-111.72 640.27,-116.72 626.04,-121"/>
<polygon fill="#63b8ff" stroke="#63b8ff" points="672.83,-110.6 681.4,-104.37 670.81,-103.89 672.83,-110.6"/>
</a>
</g>
</g>
<!-- Node4&#45;&gt;Node3 -->
<g id="edge4_Node000004_Node000003" class="edge">
<title>Node4&#45;&gt;Node3</title>
<g id="a_edge4_Node000004_Node000003"><a xlink:title=" ">
<path fill="none" stroke="#63b8ff" d="M402.65,-95.94C397.53,-97.89 392.46,-100.06 387.75,-102.45 309.17,-142.35 228.19,-211.97 199.04,-238.12"/>
<polygon fill="#63b8ff" stroke="#63b8ff" points="403.43,-99.38 411.71,-92.77 401.12,-92.77 403.43,-99.38"/>
</a>
</g>
</g>
<!-- Node4&#45;&gt;Node5 -->
<g id="edge5_Node000004_Node000005" class="edge">
<title>Node4&#45;&gt;Node5</title>
<g id="a_edge5_Node000004_Node000005"><a xlink:title=" ">
<path fill="none" stroke="#63b8ff" d="M406.75,-69.28C386.12,-62.06 361.47,-53.45 342.61,-46.85"/>
<polygon fill="#63b8ff" stroke="#63b8ff" points="405.4,-72.52 416,-72.52 407.72,-65.91 405.4,-72.52"/>
</a>
</g>
</g>
<!-- Node4&#45;&gt;Node6 -->
<g id="edge10_Node000004_Node000006" class="edge">
<title>Node4&#45;&gt;Node6</title>
<g id="a_edge10_Node000004_Node000006"><a xlink:title=" ">
<path fill="none" stroke="#63b8ff" d="M402.08,-85.24C366.31,-85.62 315.32,-83.84 272,-73.45 248.23,-67.75 222.78,-55.64 206.15,-46.83"/>
<polygon fill="#63b8ff" stroke="#63b8ff" points="401.68,-88.75 411.62,-85.08 401.56,-81.75 401.68,-88.75"/>
</a>
</g>
</g>
<!-- Node5&#45;&gt;Node3 -->
<g id="edge6_Node000005_Node000003" class="edge">
<title>Node5&#45;&gt;Node3</title>
<g id="a_edge6_Node000005_Node000003"><a xlink:title=" ">
<path fill="none" stroke="#63b8ff" d="M299.2,-56.55C273.5,-100.81 212.76,-205.38 193.63,-238.32"/>
<polygon fill="#63b8ff" stroke="#63b8ff" points="302.18,-58.39 304.18,-47.98 296.13,-54.87 302.18,-58.39"/>
</a>
</g>
</g>
<!-- Node5&#45;&gt;Node5 -->
<g id="edge7_Node000005_Node000005" class="edge">
<title>Node5&#45;&gt;Node5</title>
<g id="a_edge7_Node000005_Node000005"><a xlink:title=" ">
<path fill="none" stroke="#63b8ff" d="M333.99,-57.89C331.14,-61.75 323.77,-64.45 311.88,-64.45 290.12,-64.45 283.5,-55.42 291.99,-46.79"/>
<polygon fill="#63b8ff" stroke="#63b8ff" points="337.46,-57.38 332.05,-48.27 330.6,-58.76 337.46,-57.38"/>
</a>
</g>
</g>
<!-- Node5&#45;&gt;Node6 -->
<g id="edge8_Node000005_Node000006" class="edge">
<title>Node5&#45;&gt;Node6</title>
<g id="a_edge8_Node000005_Node000006"><a xlink:title=" ">
<path fill="none" stroke="#63b8ff" d="M260.19,-36.45C252.25,-36.45 244.06,-36.45 236.17,-36.45"/>
<polygon fill="#63b8ff" stroke="#63b8ff" points="260.07,-39.95 270.07,-36.45 260.07,-32.95 260.07,-39.95"/>
</a>
</g>
</g>
<!-- Node7 -->
<g id="Node000007" class="node">
<title>Node7</title>
<g id="a_Node000007"><a xlink:href="namespacegenerate.html#a5c0026523dd30f942c55ad25f1b607b4" target="_top" xlink:title="Spawn an instance of the xdg&#45;dbus&#45;proxy for the application instance.">
<polygon fill="white" stroke="#666666" points="101.5,-52.45 0,-52.45 0,-20.45 101.5,-20.45 101.5,-52.45"/>
<text text-anchor="start" x="8" y="-38.95" font-family="Helvetica,sans-Serif" font-size="10.00">generate::xdg_dbus</text>
<text text-anchor="middle" x="50.75" y="-26.95" font-family="Helvetica,sans-Serif" font-size="10.00">_proxy</text>
</a>
</g>
</g>
<!-- Node6&#45;&gt;Node7 -->
<g id="edge9_Node000006_Node000007" class="edge">
<title>Node6&#45;&gt;Node7</title>
<g id="a_edge9_Node000006_Node000007"><a xlink:title=" ">
<path fill="none" stroke="#63b8ff" d="M126.08,-36.45C117.99,-36.45 109.76,-36.45 101.86,-36.45"/>
<polygon fill="#63b8ff" stroke="#63b8ff" points="125.86,-39.95 135.86,-36.45 125.86,-32.95 125.86,-39.95"/>
</a>
</g>
</g>
<!-- Node8&#45;&gt;Node4 -->
<g id="edge13_Node000008_Node000004" class="edge">
<title>Node8&#45;&gt;Node4</title>
<g id="a_edge13_Node000008_Node000004"><a xlink:title=" ">
<path fill="none" stroke="#63b8ff" d="M536.15,-66.07C518.41,-69.62 499.12,-73.47 483.24,-76.65"/>
<polygon fill="#63b8ff" stroke="#63b8ff" points="536.64,-69.54 545.76,-64.15 535.27,-62.67 536.64,-69.54"/>
</a>
</g>
</g>
<!-- Node8&#45;&gt;Node5 -->
<g id="edge14_Node000008_Node000005" class="edge">
<title>Node8&#45;&gt;Node5</title>
<g id="a_edge14_Node000008_Node000005"><a xlink:title=" ">
<path fill="none" stroke="#63b8ff" d="M535.59,-51.76C481.73,-48.06 400.05,-42.44 352.02,-39.14"/>
<polygon fill="#63b8ff" stroke="#63b8ff" points="535.25,-55.24 545.46,-52.44 535.73,-48.26 535.25,-55.24"/>
</a>
</g>
</g>
<!-- Node9&#45;&gt;Node3 -->
<g id="edge16_Node000009_Node000003" class="edge">
<title>Node9&#45;&gt;Node3</title>
<g id="a_edge16_Node000009_Node000003"><a xlink:title=" ">
<path fill="none" stroke="#63b8ff" d="M578.78,-198.96C565.84,-221.77 541.46,-257.4 508.75,-272.45 408.49,-318.59 271.87,-279.25 214.67,-258.86"/>
<polygon fill="#63b8ff" stroke="#63b8ff" points="581.8,-200.72 583.48,-190.26 575.64,-197.4 581.8,-200.72"/>
</a>
</g>
</g>
<!-- Node10 -->
<g id="Node000010" class="node">
<title>Node10</title>
<g id="a_Node000010"><a xlink:href="namespacegenerate.html#aca905bc877bc18f8cb6a2cb1eaec6988" target="_top" xlink:title="Generate a desktop file for the sandbox.">
<polygon fill="white" stroke="#666666" points="508.75,-263.45 387.75,-263.45 387.75,-243.45 508.75,-243.45 508.75,-263.45"/>
<text text-anchor="middle" x="448.25" y="-249.95" font-family="Helvetica,sans-Serif" font-size="10.00">generate::desktop_entry</text>
</a>
</g>
</g>
<!-- Node9&#45;&gt;Node10 -->
<g id="edge17_Node000009_Node000010" class="edge">
<title>Node9&#45;&gt;Node10</title>
<g id="a_edge17_Node000009_Node000010"><a xlink:title=" ">
<path fill="none" stroke="#63b8ff" d="M568.07,-195.82C552.44,-207.96 530.24,-223.84 508.75,-234.45 502.14,-237.71 494.84,-240.58 487.69,-243.04"/>
<polygon fill="#63b8ff" stroke="#63b8ff" points="570.04,-198.72 575.7,-189.77 565.69,-193.24 570.04,-198.72"/>
</a>
</g>
</g>
<!-- Node11 -->
<g id="Node000011" class="node">
<title>Node11</title>
<g id="a_Node000011"><a xlink:href="namespacesyscalls.html#aabdab752b02a21ab92e3af4fabba493b" target="_top" xlink:title="Generate a syscall filter.">
<polygon fill="white" stroke="#666666" points="486.62,-207.45 409.88,-207.45 409.88,-187.45 486.62,-187.45 486.62,-207.45"/>
<text text-anchor="middle" x="448.25" y="-193.95" font-family="Helvetica,sans-Serif" font-size="10.00">syscalls::filter</text>
</a>
</g>
</g>
<!-- Node9&#45;&gt;Node11 -->
<g id="edge18_Node000009_Node000011" class="edge">
<title>Node9&#45;&gt;Node11</title>
<g id="a_edge18_Node000009_Node000011"><a xlink:title=" ">
<path fill="none" stroke="#63b8ff" d="M533.42,-186.02C517.81,-188.14 501.22,-190.39 486.93,-192.33"/>
<polygon fill="#63b8ff" stroke="#63b8ff" points="533.63,-189.53 543.07,-184.72 532.69,-182.59 533.63,-189.53"/>
</a>
</g>
</g>
<!-- Node12 -->
<g id="Node000012" class="node">
<title>Node12</title>
<g id="a_Node000012"><a xlink:href="namespacearg.html#a9da86862acc776f92533ebac921afc40" target="_top" xlink:title="Parse command line arguments.">
<polygon fill="white" stroke="#666666" points="490,-169.45 406.5,-169.45 406.5,-149.45 490,-149.45 490,-169.45"/>
<text text-anchor="middle" x="448.25" y="-155.95" font-family="Helvetica,sans-Serif" font-size="10.00">arg::parse_args</text>
</a>
</g>
</g>
<!-- Node9&#45;&gt;Node12 -->
<g id="edge20_Node000009_Node000012" class="edge">
<title>Node9&#45;&gt;Node12</title>
<g id="a_edge20_Node000009_Node000012"><a xlink:title=" ">
<path fill="none" stroke="#63b8ff" d="M533.25,-170.85C518.87,-168.9 503.65,-166.83 490.19,-165"/>
<polygon fill="#63b8ff" stroke="#63b8ff" points="532.69,-174.3 543.07,-172.18 533.63,-167.37 532.69,-174.3"/>
</a>
</g>
</g>
<!-- Node13 -->
<g id="Node000013" class="node">
<title>Node13</title>
<g id="a_Node000013"><a xlink:href="namespacesyscalls.html#a501461c3842033cfab85ba4b8f328ed8" target="_top" xlink:title="Append an existing policy with newly discovered syscalls.">
<polygon fill="white" stroke="#666666" points="507.25,-131.45 389.25,-131.45 389.25,-111.45 507.25,-111.45 507.25,-131.45"/>
<text text-anchor="middle" x="448.25" y="-117.95" font-family="Helvetica,sans-Serif" font-size="10.00">syscalls::update_policy</text>
</a>
</g>
</g>
<!-- Node9&#45;&gt;Node13 -->
<g id="edge21_Node000009_Node000013" class="edge">
<title>Node9&#45;&gt;Node13</title>
<g id="a_edge21_Node000009_Node000013"><a xlink:title=" ">
<path fill="none" stroke="#63b8ff" d="M558.89,-162.95C543.99,-155.65 525.64,-147.1 508.75,-140.45 501.08,-137.43 492.72,-134.53 484.76,-131.94"/>
<polygon fill="#63b8ff" stroke="#63b8ff" points="557.19,-166.02 567.71,-167.33 560.31,-159.75 557.19,-166.02"/>
</a>
</g>
</g>
<!-- Node11&#45;&gt;Node11 -->
<g id="edge19_Node000011_Node000011" class="edge">
<title>Node11&#45;&gt;Node11</title>
<g id="a_edge19_Node000011_Node000011"><a xlink:title=" ">
<path fill="none" stroke="#63b8ff" d="M472.35,-218.89C469.25,-222.75 461.21,-225.45 448.25,-225.45 424.54,-225.45 417.32,-216.42 426.58,-207.79"/>
<polygon fill="#63b8ff" stroke="#63b8ff" points="475.8,-218.28 470.24,-209.26 468.97,-219.78 475.8,-218.28"/>
</a>
</g>
</g>
<!-- Node14&#45;&gt;Node4 -->
<g id="edge23_Node000014_Node000004" class="edge">
<title>Node14&#45;&gt;Node4</title>
<g id="a_edge23_Node000014_Node000004"><a xlink:title=" ">
<path fill="none" stroke="#63b8ff" d="M550.4,-117.13C537.22,-112.35 522.38,-107.08 508.75,-102.45 500.33,-99.59 491.2,-96.61 482.68,-93.88"/>
<polygon fill="#63b8ff" stroke="#63b8ff" points="549.01,-120.34 559.6,-120.48 551.4,-113.77 549.01,-120.34"/>
</a>
</g>
</g>
</g>
</svg>

<g id="navigator" transform="translate(0 0)" fill="#404254">
  <rect fill="#f2f5e9" fill-opacity="0.5" stroke="#606060" stroke-width=".5" x="0" y="0" width="60" height="60"/>
  <use id="zoomplus" xlink:href="#zoomPlus" x="17" y="9" onmousedown="handleZoom(evt,'in')"/>
  <use id="zoomminus" xlink:href="#zoomMin" x="42" y="9" onmousedown="handleZoom(evt,'out')"/>
  <use id="reset" xlink:href="#resetDef" x="30" y="36" onmousedown="handleReset()"/>
   <use id="arrowup" xlink:href="#arrowUp" x="0" y="0" onmousedown="handlePan(0,-1)"/>
  <use id="arrowright" xlink:href="#arrowRight" x="0" y="0" onmousedown="handlePan(1,0)"/>
  <use id="arrowdown" xlink:href="#arrowDown" x="0" y="0" onmousedown="handlePan(0,1)"/>
  <use id="arrowleft" xlink:href="#arrowLeft" x="0" y="0" onmousedown="handlePan(-1,0)"/>
</g>
<svg viewBox="0 0 15 15" width="100%" height="30px" preserveAspectRatio="xMaxYMin meet">
 <g id="arrow_out" transform="scale(0.3 0.3)">
  <a xlink:href="namespaceshared_a80f3b59804700742a5a0c6ea15bf24f9_icgraph_org.svg" target="_base">
   <rect id="button" ry="5" rx="5" y="6" x="6" height="38" width="38"
        fill="#f2f5e9" fill-opacity="0.5" stroke="#606060" stroke-width="1.0"/>
   <path id="arrow"
     d="M 11.500037,31.436501 C 11.940474,20.09759 22.043105,11.32322 32.158766,21.979434 L 37.068811,17.246167 C 37.068811,17.246167 37.088388,32 37.088388,32 L 22.160133,31.978069 C 22.160133,31.978069 26.997745,27.140456 26.997745,27.140456 C 18.528582,18.264221 13.291696,25.230495 11.500037,31.436501 z"
     style="fill:#404040;"/>
  </a>
 </g>
</svg>

<style type='text/css'>
<![CDATA[
[data-mouse-over-selected='false'] { opacity: 0.7; }
[data-mouse-over-selected='true']  { opacity: 1.0; }
]]>
</style>
<script type="application/ecmascript"><![CDATA[
document.addEventListener('DOMContentLoaded', (event) => {
  highlightEdges();
  highlightAdjacentNodes();
});
]]></script>
</svg>
