<?xml version="1.0" encoding="UTF-8" standalone="no"?>
<!DOCTYPE svg PUBLIC "-//W3C//DTD SVG 1.1//EN"
 "http://www.w3.org/Graphics/SVG/1.1/DTD/svg11.dtd">
<!-- Generated by graphviz version 12.2.1 (0)
 -->
<!-- Title: shared::log Pages: 1 -->
<svg width="438pt" height="268pt"
 viewBox="0.00 0.00 438.00 268.36" xmlns="http://www.w3.org/2000/svg" xmlns:xlink="http://www.w3.org/1999/xlink">
<g id="graph0" class="graph" transform="scale(1 1) rotate(0) translate(4 264.36)">
<title>shared::log</title>
<!-- Node1 -->
<g id="Node000001" class="node">
<title>Node1</title>
<g id="a_Node000001"><a xlink:title="Log output to console, if verbose.">
<polygon fill="#999999" stroke="#666666" points="430,-133 366,-133 366,-113 430,-113 430,-133"/>
<text text-anchor="middle" x="398" y="-119.5" font-family="Helvetica,sans-Serif" font-size="10.00">shared::log</text>
</a>
</g>
</g>
<!-- Node2 -->
<g id="Node000002" class="node">
<title>Node2</title>
<g id="a_Node000002"><a xlink:href="namespacegenerate.html#a38dcdfdf9293b8aafe77392021d65019" target="_top" xlink:title="Generate the bulk of the main program command.">
<polygon fill="white" stroke="#666666" points="89.88,-228 11.62,-228 11.62,-208 89.88,-208 89.88,-228"/>
<text text-anchor="middle" x="50.75" y="-214.5" font-family="Helvetica,sans-Serif" font-size="10.00">generate::cmd</text>
</a>
</g>
</g>
<!-- Node1&#45;&gt;Node2 -->
<g id="edge1_Node000001_Node000002" class="edge">
<title>Node1&#45;&gt;Node2</title>
<g id="a_edge1_Node000001_Node000002"><a xlink:title=" ">
<path fill="none" stroke="#63b8ff" d="M385.16,-143C373.25,-161.68 353.32,-189.27 330,-207 286.64,-239.96 270.61,-244.11 217.25,-255 182.52,-262.08 172.21,-262.17 137.5,-255 112.89,-249.92 86.64,-237.42 69.77,-228.36"/>
<polygon fill="#63b8ff" stroke="#63b8ff" points="388.01,-145.05 390.28,-134.7 382.05,-141.38 388.01,-145.05"/>
</a>
</g>
</g>
<!-- Node3 -->
<g id="Node000003" class="node">
<title>Node3</title>
<g id="a_Node000003"><a xlink:href="namespacesyscalls.html#aabdab752b02a21ab92e3af4fabba493b" target="_top" xlink:title="Generate a syscall filter.">
<polygon fill="white" stroke="#666666" points="330,-58 253.25,-58 253.25,-38 330,-38 330,-58"/>
<text text-anchor="middle" x="291.62" y="-44.5" font-family="Helvetica,sans-Serif" font-size="10.00">syscalls::filter</text>
</a>
</g>
</g>
<!-- Node1&#45;&gt;Node3 -->
<g id="edge2_Node000001_Node000003" class="edge">
<title>Node1&#45;&gt;Node3</title>
<g id="a_edge2_Node000001_Node000003"><a xlink:title=" ">
<path fill="none" stroke="#63b8ff" d="M373.23,-105.92C352.83,-91.26 324.1,-70.61 307.01,-58.34"/>
<polygon fill="#63b8ff" stroke="#63b8ff" points="371.09,-108.7 381.26,-111.69 375.18,-103.01 371.09,-108.7"/>
</a>
</g>
</g>
<!-- Node4 -->
<g id="Node000004" class="node">
<title>Node4</title>
<g id="a_Node000004"><a xlink:href="namespaceshared.html#a00b81f070735db096bbcd00c9d87188e" target="_top" xlink:title="Attach an environment variable to the sandbox.">
<polygon fill="white" stroke="#666666" points="327.75,-20 255.5,-20 255.5,0 327.75,0 327.75,-20"/>
<text text-anchor="middle" x="291.62" y="-6.5" font-family="Helvetica,sans-Serif" font-size="10.00">shared::genv</text>
</a>
</g>
</g>
<!-- Node1&#45;&gt;Node4 -->
<g id="edge4_Node000001_Node000004" class="edge">
<title>Node1&#45;&gt;Node4</title>
<g id="a_edge4_Node000001_Node000004"><a xlink:title=" ">
<path fill="none" stroke="#63b8ff" d="M386.46,-102.82C374.87,-82.16 354.59,-50.17 330,-29 326.25,-25.77 321.85,-22.92 317.42,-20.46"/>
<polygon fill="#63b8ff" stroke="#63b8ff" points="383.27,-104.28 391.12,-111.4 389.43,-100.94 383.27,-104.28"/>
</a>
</g>
</g>
<!-- Node5 -->
<g id="Node000005" class="node">
<title>Node5</title>
<g id="a_Node000005"><a xlink:href="namespacelibraries.html#a4dfd6ab45adf8dc18ea57bc1f88eaedf" target="_top" xlink:title="Recursively resolve all shared&#45;libraries needed by a library.">
<polygon fill="white" stroke="#666666" points="326.25,-171 257,-171 257,-151 326.25,-151 326.25,-171"/>
<text text-anchor="middle" x="291.62" y="-157.5" font-family="Helvetica,sans-Serif" font-size="10.00">libraries::get</text>
</a>
</g>
</g>
<!-- Node1&#45;&gt;Node5 -->
<g id="edge5_Node000001_Node000005" class="edge">
<title>Node1&#45;&gt;Node5</title>
<g id="a_edge5_Node000001_Node000005"><a xlink:title=" ">
<path fill="none" stroke="#63b8ff" d="M357.51,-137.38C345.48,-141.76 332.5,-146.48 321.33,-150.55"/>
<polygon fill="#63b8ff" stroke="#63b8ff" points="358.58,-140.71 366.78,-134 356.19,-134.13 358.58,-140.71"/>
</a>
</g>
</g>
<!-- Node6 -->
<g id="Node000006" class="node">
<title>Node6</title>
<g id="a_Node000006"><a xlink:href="namespacebinaries.html#ac1478c81b2eb2c4ecdba98e92c4e7651" target="_top" xlink:title="Parse a binary to determine dependencies.">
<polygon fill="white" stroke="#666666" points="217.25,-228 137.5,-228 137.5,-208 217.25,-208 217.25,-228"/>
<text text-anchor="middle" x="177.38" y="-214.5" font-family="Helvetica,sans-Serif" font-size="10.00">binaries::parse</text>
</a>
</g>
</g>
<!-- Node1&#45;&gt;Node6 -->
<g id="edge12_Node000001_Node000006" class="edge">
<title>Node1&#45;&gt;Node6</title>
<g id="a_edge12_Node000001_Node000006"><a xlink:title=" ">
<path fill="none" stroke="#63b8ff" d="M380.28,-141.11C367.63,-153.77 349.2,-170.12 330,-180 294.29,-198.38 249.19,-208.21 217.5,-213.23"/>
<polygon fill="#63b8ff" stroke="#63b8ff" points="382.57,-143.77 387,-134.14 377.54,-138.91 382.57,-143.77"/>
</a>
</g>
</g>
<!-- Node7 -->
<g id="Node000007" class="node">
<title>Node7</title>
<g id="a_Node000007"><a xlink:href="namespacegenerate.html#a5c0026523dd30f942c55ad25f1b607b4" target="_top" xlink:title="Spawn an instance of the xdg&#45;dbus&#45;proxy for the application instance.">
<polygon fill="white" stroke="#666666" points="101.5,-158 0,-158 0,-126 101.5,-126 101.5,-158"/>
<text text-anchor="start" x="8" y="-144.5" font-family="Helvetica,sans-Serif" font-size="10.00">generate::xdg_dbus</text>
<text text-anchor="middle" x="50.75" y="-132.5" font-family="Helvetica,sans-Serif" font-size="10.00">_proxy</text>
</a>
</g>
</g>
<!-- Node1&#45;&gt;Node7 -->
<g id="edge13_Node000001_Node000007" class="edge">
<title>Node1&#45;&gt;Node7</title>
<g id="a_edge13_Node000001_Node000007"><a xlink:title=" ">
<path fill="none" stroke="#63b8ff" d="M354.51,-125.34C290.62,-128.85 170.07,-135.49 101.94,-139.24"/>
<polygon fill="#63b8ff" stroke="#63b8ff" points="354.45,-128.85 364.24,-124.8 354.06,-121.86 354.45,-128.85"/>
</a>
</g>
</g>
<!-- Node3&#45;&gt;Node3 -->
<g id="edge3_Node000003_Node000003" class="edge">
<title>Node3&#45;&gt;Node3</title>
<g id="a_edge3_Node000003_Node000003"><a xlink:title=" ">
<path fill="none" stroke="#63b8ff" d="M310.43,-69.44C308,-73.3 301.74,-76 291.62,-76 273.13,-76 267.5,-66.98 274.72,-58.34"/>
<polygon fill="#63b8ff" stroke="#63b8ff" points="313.92,-69.1 308.78,-59.83 307.02,-70.28 313.92,-69.1"/>
</a>
</g>
</g>
<!-- Node5&#45;&gt;Node2 -->
<g id="edge6_Node000005_Node000002" class="edge">
<title>Node5&#45;&gt;Node2</title>
<g id="a_edge6_Node000005_Node000002"><a xlink:title=" ">
<path fill="none" stroke="#63b8ff" d="M245.51,-171.77C200.7,-182.46 132.73,-198.68 90.35,-208.79"/>
<polygon fill="#63b8ff" stroke="#63b8ff" points="246.27,-175.18 255.18,-169.46 244.64,-168.37 246.27,-175.18"/>
</a>
</g>
</g>
<!-- Node5&#45;&gt;Node6 -->
<g id="edge7_Node000005_Node000006" class="edge">
<title>Node5&#45;&gt;Node6</title>
<g id="a_edge7_Node000005_Node000006"><a xlink:title=" ">
<path fill="none" stroke="#63b8ff" d="M259.85,-176.62C240.43,-186.49 215.88,-198.95 198.83,-207.61"/>
<polygon fill="#63b8ff" stroke="#63b8ff" points="261.36,-179.79 268.69,-172.14 258.19,-173.55 261.36,-179.79"/>
</a>
</g>
</g>
<!-- Node5&#45;&gt;Node7 -->
<g id="edge11_Node000005_Node000007" class="edge">
<title>Node5&#45;&gt;Node7</title>
<g id="a_edge11_Node000005_Node000007"><a xlink:title=" ">
<path fill="none" stroke="#63b8ff" d="M245.39,-157.4C204.44,-154.14 144.22,-149.36 101.83,-145.98"/>
<polygon fill="#63b8ff" stroke="#63b8ff" points="244.9,-160.87 255.14,-158.18 245.45,-153.9 244.9,-160.87"/>
</a>
</g>
</g>
<!-- Node6&#45;&gt;Node2 -->
<g id="edge8_Node000006_Node000002" class="edge">
<title>Node6&#45;&gt;Node2</title>
<g id="a_edge8_Node000006_Node000002"><a xlink:title=" ">
<path fill="none" stroke="#63b8ff" d="M126.09,-218C114.15,-218 101.59,-218 90.27,-218"/>
<polygon fill="#63b8ff" stroke="#63b8ff" points="125.77,-221.5 135.77,-218 125.77,-214.5 125.77,-221.5"/>
</a>
</g>
</g>
<!-- Node6&#45;&gt;Node6 -->
<g id="edge9_Node000006_Node000006" class="edge">
<title>Node6&#45;&gt;Node6</title>
<g id="a_edge9_Node000006_Node000006"><a xlink:title=" ">
<path fill="none" stroke="#63b8ff" d="M197.57,-239.44C194.97,-243.3 188.24,-246 177.38,-246 157.52,-246 151.46,-236.98 159.22,-228.34"/>
<polygon fill="#63b8ff" stroke="#63b8ff" points="201.05,-239.03 195.8,-229.83 194.17,-240.3 201.05,-239.03"/>
</a>
</g>
</g>
<!-- Node6&#45;&gt;Node7 -->
<g id="edge10_Node000006_Node000007" class="edge">
<title>Node6&#45;&gt;Node7</title>
<g id="a_edge10_Node000006_Node000007"><a xlink:title=" ">
<path fill="none" stroke="#63b8ff" d="M149.74,-201.76C128.77,-188.97 99.68,-171.23 78.64,-158.4"/>
<polygon fill="#63b8ff" stroke="#63b8ff" points="147.66,-204.59 158.02,-206.8 151.3,-198.61 147.66,-204.59"/>
</a>
</g>
</g>
</g>
</svg>
