<?xml version="1.0" encoding="UTF-8" standalone="no"?>
<!DOCTYPE svg PUBLIC "-//W3C//DTD SVG 1.1//EN"
 "http://www.w3.org/Graphics/SVG/1.1/DTD/svg11.dtd">
<!-- Generated by graphviz version 12.2.1 (0)
 -->
<!-- Title: libraries::get Pages: 1 -->
<svg width="465pt" height="94pt"
 viewBox="0.00 0.00 465.00 94.24" xmlns="http://www.w3.org/2000/svg" xmlns:xlink="http://www.w3.org/1999/xlink">

<svg id="main" version="1.1" xmlns="http://www.w3.org/2000/svg" xmlns:xlink="http://www.w3.org/1999/xlink" xml:space="preserve">

<style type="text/css"><![CDATA[
.node, .edge {opacity: 0.7;}
.node.selected, .edge.selected {opacity: 1;}
.edge:hover path { stroke: red; }
.edge:hover polygon { stroke: red; fill: red; }
]]></style>
<script type="application/ecmascript" xlink:href="svg.min.js"/>
<svg id="graph" class="graph">
<g id="graph0" class="graph" transform="scale(1 1) rotate(0) translate(4 90.24)">
<title>libraries::get</title>
<!-- Node1 -->
<g id="Node000001" class="node">
<title>Node1</title>
<g id="a_Node000001"><a xlink:title="Recursively resolve all shared&#45;libraries needed by a library.">
<polygon fill="#999999" stroke="#666666" points="457,-54 387.75,-54 387.75,-34 457,-34 457,-54"/>
<text text-anchor="middle" x="422.38" y="-40.5" font-family="Helvetica,sans-Serif" font-size="10.00">libraries::get</text>
</a>
</g>
</g>
<!-- Node2 -->
<g id="Node000002" class="node">
<title>Node2</title>
<g id="a_Node000002"><a xlink:href="namespacegenerate.html#a38dcdfdf9293b8aafe77392021d65019" target="_top" xlink:title="Generate the bulk of the main program command.">
<polygon fill="white" stroke="#666666" points="225.88,-73 147.62,-73 147.62,-53 225.88,-53 225.88,-73"/>
<text text-anchor="middle" x="186.75" y="-59.5" font-family="Helvetica,sans-Serif" font-size="10.00">generate::cmd</text>
</a>
</g>
</g>
<!-- Node1&#45;&gt;Node2 -->
<g id="edge1_Node000001_Node000002" class="edge">
<title>Node1&#45;&gt;Node2</title>
<g id="a_edge1_Node000001_Node000002"><a xlink:title=" ">
<path fill="none" stroke="#63b8ff" d="M397.53,-60.42C384.61,-68.33 367.99,-76.95 351.75,-81 307.42,-92.05 254.67,-82.34 221.19,-73.45"/>
<polygon fill="#63b8ff" stroke="#63b8ff" points="399.22,-63.5 405.75,-55.15 395.45,-57.6 399.22,-63.5"/>
</a>
</g>
</g>
<!-- Node3 -->
<g id="Node000003" class="node">
<title>Node3</title>
<g id="a_Node000003"><a xlink:href="namespacebinaries.html#ac1478c81b2eb2c4ecdba98e92c4e7651" target="_top" xlink:title="Parse a binary to determine dependencies.">
<polygon fill="white" stroke="#666666" points="351.75,-54 272,-54 272,-34 351.75,-34 351.75,-54"/>
<text text-anchor="middle" x="311.88" y="-40.5" font-family="Helvetica,sans-Serif" font-size="10.00">binaries::parse</text>
</a>
</g>
</g>
<!-- Node1&#45;&gt;Node3 -->
<g id="edge2_Node000001_Node000003" class="edge">
<title>Node1&#45;&gt;Node3</title>
<g id="a_edge2_Node000001_Node000003"><a xlink:title=" ">
<path fill="none" stroke="#63b8ff" d="M375.98,-44C368.04,-44 359.84,-44 352.09,-44"/>
<polygon fill="#63b8ff" stroke="#63b8ff" points="375.83,-47.5 385.83,-44 375.83,-40.5 375.83,-47.5"/>
</a>
</g>
</g>
<!-- Node4 -->
<g id="Node000004" class="node">
<title>Node4</title>
<g id="a_Node000004"><a xlink:href="namespacegenerate.html#a17cf0da8addab269d21c2c8074d85c4e" target="_top" xlink:title="Setup the Proxy&#39;s SOF.">
<polygon fill="white" stroke="#666666" points="236,-26 137.5,-26 137.5,-6 236,-6 236,-26"/>
<text text-anchor="middle" x="186.75" y="-12.5" font-family="Helvetica,sans-Serif" font-size="10.00">generate::proxy_lib</text>
</a>
</g>
</g>
<!-- Node1&#45;&gt;Node4 -->
<g id="edge7_Node000001_Node000004" class="edge">
<title>Node1&#45;&gt;Node4</title>
<g id="a_edge7_Node000001_Node000004"><a xlink:title=" ">
<path fill="none" stroke="#63b8ff" d="M377.8,-30.59C369.23,-28.39 360.26,-26.38 351.75,-25 313.33,-18.78 269.25,-16.63 236.48,-15.98"/>
<polygon fill="#63b8ff" stroke="#63b8ff" points="376.72,-33.93 387.29,-33.17 378.55,-27.17 376.72,-33.93"/>
</a>
</g>
</g>
<!-- Node3&#45;&gt;Node2 -->
<g id="edge3_Node000003_Node000002" class="edge">
<title>Node3&#45;&gt;Node2</title>
<g id="a_edge3_Node000003_Node000002"><a xlink:title=" ">
<path fill="none" stroke="#63b8ff" d="M260.41,-51.79C249,-53.55 237.07,-55.39 226.25,-57.06"/>
<polygon fill="#63b8ff" stroke="#63b8ff" points="260.73,-55.28 270.08,-50.29 259.67,-48.36 260.73,-55.28"/>
</a>
</g>
</g>
<!-- Node3&#45;&gt;Node3 -->
<g id="edge4_Node000003_Node000003" class="edge">
<title>Node3&#45;&gt;Node3</title>
<g id="a_edge4_Node000003_Node000003"><a xlink:title=" ">
<path fill="none" stroke="#63b8ff" d="M331.41,-65.44C328.89,-69.3 322.38,-72 311.88,-72 292.67,-72 286.81,-62.98 294.32,-54.34"/>
<polygon fill="#63b8ff" stroke="#63b8ff" points="334.89,-65.06 329.7,-55.83 328,-66.29 334.89,-65.06"/>
</a>
</g>
</g>
<!-- Node3&#45;&gt;Node4 -->
<g id="edge5_Node000003_Node000004" class="edge">
<title>Node3&#45;&gt;Node4</title>
<g id="a_edge5_Node000003_Node000004"><a xlink:title=" ">
<path fill="none" stroke="#63b8ff" d="M260.51,-32.55C251.58,-30.52 242.33,-28.41 233.54,-26.41"/>
<polygon fill="#63b8ff" stroke="#63b8ff" points="259.58,-35.92 270.1,-34.73 261.13,-29.1 259.58,-35.92"/>
</a>
</g>
</g>
<!-- Node5 -->
<g id="Node000005" class="node">
<title>Node5</title>
<g id="a_Node000005"><a xlink:href="namespacegenerate.html#a5c0026523dd30f942c55ad25f1b607b4" target="_top" xlink:title="Spawn an instance of the xdg&#45;dbus&#45;proxy for the application instance.">
<polygon fill="white" stroke="#666666" points="101.5,-32 0,-32 0,0 101.5,0 101.5,-32"/>
<text text-anchor="start" x="8" y="-18.5" font-family="Helvetica,sans-Serif" font-size="10.00">generate::xdg_dbus</text>
<text text-anchor="middle" x="50.75" y="-6.5" font-family="Helvetica,sans-Serif" font-size="10.00">_proxy</text>
</a>
</g>
</g>
<!-- Node4&#45;&gt;Node5 -->
<g id="edge6_Node000004_Node000005" class="edge">
<title>Node4&#45;&gt;Node5</title>
<g id="a_edge6_Node000004_Node000005"><a xlink:title=" ">
<path fill="none" stroke="#63b8ff" d="M126.08,-16C117.99,-16 109.76,-16 101.86,-16"/>
<polygon fill="#63b8ff" stroke="#63b8ff" points="125.86,-19.5 135.86,-16 125.86,-12.5 125.86,-19.5"/>
</a>
</g>
</g>
</g>
</svg>
</svg>

<style type='text/css'>
<![CDATA[
[data-mouse-over-selected='false'] { opacity: 0.7; }
[data-mouse-over-selected='true']  { opacity: 1.0; }
]]>
</style>
<script type="application/ecmascript"><![CDATA[
document.addEventListener('DOMContentLoaded', (event) => {
  highlightEdges();
  highlightAdjacentNodes();
});
]]></script>
</svg>
