<?xml version="1.0" encoding="UTF-8" standalone="no"?>
<!DOCTYPE svg PUBLIC "-//W3C//DTD SVG 1.1//EN"
 "http://www.w3.org/Graphics/SVG/1.1/DTD/svg11.dtd">
<!-- Generated by graphviz version 12.2.1 (0)
 -->
<!-- Title: syscalls::filter Pages: 1 -->
<svg width="577pt" height="274pt"
 viewBox="0.00 0.00 577.00 274.00" xmlns="http://www.w3.org/2000/svg" xmlns:xlink="http://www.w3.org/1999/xlink">
<g id="graph0" class="graph" transform="scale(1 1) rotate(0) translate(4 270)">
<title>syscalls::filter</title>
<!-- Node1 -->
<g id="Node000001" class="node">
<title>Node1</title>
<g id="a_Node000001"><a xlink:title="Generate a syscall filter.">
<polygon fill="#999999" stroke="#666666" points="76.75,-153 0,-153 0,-133 76.75,-133 76.75,-153"/>
<text text-anchor="middle" x="38.38" y="-139.5" font-family="Helvetica,sans-Serif" font-size="10.00">syscalls::filter</text>
</a>
</g>
</g>
<!-- Node1&#45;&gt;Node1 -->
<g id="edge2_Node000001_Node000001" class="edge">
<title>Node1&#45;&gt;Node1</title>
<g id="a_edge2_Node000001_Node000001"><a xlink:title=" ">
<path fill="none" stroke="#63b8ff" d="M19.33,-153.34C11.19,-161.98 17.54,-171 38.38,-171 49.77,-171 56.83,-168.3 59.56,-164.44"/>
<polygon fill="#63b8ff" stroke="#63b8ff" points="63.04,-163.98 57.71,-154.82 56.16,-165.31 63.04,-163.98"/>
</a>
</g>
</g>
<!-- Node2 -->
<g id="Node000002" class="node">
<title>Node2</title>
<g id="a_Node000002"><a xlink:href="namespaceshared.html#a1636cc0cb46e6be8f452dbc1e92a1e28" target="_top" xlink:title="Extend a container in place.">
<polygon fill="white" stroke="#666666" points="198.5,-266 118,-266 118,-246 198.5,-246 198.5,-266"/>
<text text-anchor="middle" x="158.25" y="-252.5" font-family="Helvetica,sans-Serif" font-size="10.00">shared::extend</text>
</a>
</g>
</g>
<!-- Node1&#45;&gt;Node2 -->
<g id="edge1_Node000001_Node000002" class="edge">
<title>Node1&#45;&gt;Node2</title>
<g id="a_edge1_Node000001_Node000002"><a xlink:title=" ">
<path fill="none" stroke="#63b8ff" d="M45.1,-153.44C55.99,-172.43 81.41,-212.89 112.75,-237 114.08,-238.02 115.48,-239 116.92,-239.94"/>
<polygon fill="#63b8ff" stroke="#63b8ff" points="115.13,-242.95 125.57,-244.76 118.54,-236.84 115.13,-242.95"/>
</a>
</g>
</g>
<!-- Node3 -->
<g id="Node000003" class="node">
<title>Node3</title>
<g id="a_Node000003"><a xlink:href="namespaceshared.html#a4a708359d4c8dbeeaa8b744eec56c0e5" target="_top" xlink:title="Hash a string.">
<polygon fill="white" stroke="#666666" points="194.38,-210 122.12,-210 122.12,-190 194.38,-190 194.38,-210"/>
<text text-anchor="middle" x="158.25" y="-196.5" font-family="Helvetica,sans-Serif" font-size="10.00">shared::hash</text>
</a>
</g>
</g>
<!-- Node1&#45;&gt;Node3 -->
<g id="edge3_Node000001_Node000003" class="edge">
<title>Node1&#45;&gt;Node3</title>
<g id="a_edge3_Node000001_Node000003"><a xlink:title=" ">
<path fill="none" stroke="#63b8ff" d="M58.49,-153.4C73.19,-161.27 94.07,-172.19 112.75,-181 115.67,-182.38 118.72,-183.77 121.79,-185.14"/>
<polygon fill="#63b8ff" stroke="#63b8ff" points="120.2,-188.27 130.77,-189.07 123.01,-181.85 120.2,-188.27"/>
</a>
</g>
</g>
<!-- Node4 -->
<g id="Node000004" class="node">
<title>Node4</title>
<g id="a_Node000004"><a xlink:href="namespaceshared.html#a48902b7bb96ff218057c3b363b43ea8a" target="_top" xlink:title="Compose a return value from an accumulator function.">
<polygon fill="white" stroke="#666666" points="190.25,-172 126.25,-172 126.25,-152 190.25,-152 190.25,-172"/>
<text text-anchor="middle" x="158.25" y="-158.5" font-family="Helvetica,sans-Serif" font-size="10.00">shared::init</text>
</a>
</g>
</g>
<!-- Node1&#45;&gt;Node4 -->
<g id="edge5_Node000001_Node000004" class="edge">
<title>Node1&#45;&gt;Node4</title>
<g id="a_edge5_Node000001_Node000004"><a xlink:title=" ">
<path fill="none" stroke="#63b8ff" d="M77,-149.06C89.07,-151.01 102.52,-153.18 114.9,-155.17"/>
<polygon fill="#63b8ff" stroke="#63b8ff" points="113.98,-158.57 124.41,-156.71 115.1,-151.66 113.98,-158.57"/>
</a>
</g>
</g>
<!-- Node5 -->
<g id="Node000005" class="node">
<title>Node5</title>
<g id="a_Node000005"><a xlink:href="namespaceshared.html#a99724c73af55fa92ae29fee700152917" target="_top" xlink:title="Log output to console, if verbose.">
<polygon fill="white" stroke="#666666" points="190.25,-134 126.25,-134 126.25,-114 190.25,-114 190.25,-134"/>
<text text-anchor="middle" x="158.25" y="-120.5" font-family="Helvetica,sans-Serif" font-size="10.00">shared::log</text>
</a>
</g>
</g>
<!-- Node1&#45;&gt;Node5 -->
<g id="edge6_Node000001_Node000005" class="edge">
<title>Node1&#45;&gt;Node5</title>
<g id="a_edge6_Node000001_Node000005"><a xlink:title=" ">
<path fill="none" stroke="#63b8ff" d="M77,-136.94C89.07,-134.99 102.52,-132.82 114.9,-130.83"/>
<polygon fill="#63b8ff" stroke="#63b8ff" points="115.1,-134.34 124.41,-129.29 113.98,-127.43 115.1,-134.34"/>
</a>
</g>
</g>
<!-- Node6 -->
<g id="Node000006" class="node">
<title>Node6</title>
<g id="a_Node000006"><a xlink:href="namespaceshared.html#afac154f1bef460ef6f24705f6c033f37" target="_top" xlink:title="Read a file.">
<polygon fill="white" stroke="#666666" points="202.25,-96 114.25,-96 114.25,-76 202.25,-76 202.25,-96"/>
<text text-anchor="middle" x="158.25" y="-82.5" font-family="Helvetica,sans-Serif" font-size="10.00">shared::read_file</text>
</a>
</g>
</g>
<!-- Node1&#45;&gt;Node6 -->
<g id="edge7_Node000001_Node000006" class="edge">
<title>Node1&#45;&gt;Node6</title>
<g id="a_edge7_Node000001_Node000006"><a xlink:title=" ">
<path fill="none" stroke="#63b8ff" d="M58.49,-132.6C73.19,-124.73 94.07,-113.81 112.75,-105 115.67,-103.62 118.72,-102.23 121.79,-100.86"/>
<polygon fill="#63b8ff" stroke="#63b8ff" points="123.01,-104.15 130.77,-96.93 120.2,-97.73 123.01,-104.15"/>
</a>
</g>
</g>
<!-- Node7 -->
<g id="Node000007" class="node">
<title>Node7</title>
<g id="a_Node000007"><a xlink:href="namespaceshared.html#ae5d42a7f6819f149991304227a611c78" target="_top" xlink:title="A Blocking Parser that splits the output into a vector.">
<polygon fill="white" stroke="#666666" points="203.75,-58 112.75,-58 112.75,-38 203.75,-38 203.75,-58"/>
<text text-anchor="middle" x="158.25" y="-44.5" font-family="Helvetica,sans-Serif" font-size="10.00">shared::vectorize</text>
</a>
</g>
</g>
<!-- Node1&#45;&gt;Node7 -->
<g id="edge8_Node000001_Node000007" class="edge">
<title>Node1&#45;&gt;Node7</title>
<g id="a_edge8_Node000001_Node000007"><a xlink:title=" ">
<path fill="none" stroke="#63b8ff" d="M47.13,-132.63C59.49,-116.7 85.11,-86.04 112.75,-67 114.51,-65.78 116.37,-64.62 118.28,-63.52"/>
<polygon fill="#63b8ff" stroke="#63b8ff" points="119.48,-66.83 126.77,-59.14 116.27,-60.61 119.48,-66.83"/>
</a>
</g>
</g>
<!-- Node3&#45;&gt;Node3 -->
<g id="edge4_Node000003_Node000003" class="edge">
<title>Node3&#45;&gt;Node3</title>
<g id="a_edge4_Node000003_Node000003"><a xlink:title=" ">
<path fill="none" stroke="#63b8ff" d="M139.2,-210.34C131.06,-218.98 137.41,-228 158.25,-228 169.65,-228 176.71,-225.3 179.44,-221.44"/>
<polygon fill="#63b8ff" stroke="#63b8ff" points="182.91,-220.98 177.58,-211.82 176.04,-222.31 182.91,-220.98"/>
</a>
</g>
</g>
<!-- Node8 -->
<g id="Node000008" class="node">
<title>Node8</title>
<g id="a_Node000008"><a xlink:href="namespaceshared.html#a9ed709af90ab0108e5c3a8afdd3e7042" target="_top" xlink:title="Split the contents of an FD.">
<polygon fill="white" stroke="#666666" points="333.75,-58 239.75,-58 239.75,-38 333.75,-38 333.75,-58"/>
<text text-anchor="middle" x="286.75" y="-44.5" font-family="Helvetica,sans-Serif" font-size="10.00">shared::fd_splitter</text>
</a>
</g>
</g>
<!-- Node7&#45;&gt;Node8 -->
<g id="edge9_Node000007_Node000008" class="edge">
<title>Node7&#45;&gt;Node8</title>
<g id="a_edge9_Node000007_Node000008"><a xlink:title=" ">
<path fill="none" stroke="#63b8ff" d="M204.21,-48C212.02,-48 220.25,-48 228.35,-48"/>
<polygon fill="#63b8ff" stroke="#63b8ff" points="228.14,-51.5 238.14,-48 228.14,-44.5 228.14,-51.5"/>
</a>
</g>
</g>
<!-- Node9 -->
<g id="Node000009" class="node">
<title>Node9</title>
<g id="a_Node000009"><a xlink:href="namespaceshared.html#a80f3b59804700742a5a0c6ea15bf24f9" target="_top" xlink:title="A Blocking Parser that returns the output in a single string.">
<polygon fill="white" stroke="#666666" points="447.62,-96 372.38,-96 372.38,-76 447.62,-76 447.62,-96"/>
<text text-anchor="middle" x="410" y="-82.5" font-family="Helvetica,sans-Serif" font-size="10.00">shared::dump</text>
</a>
</g>
</g>
<!-- Node8&#45;&gt;Node9 -->
<g id="edge10_Node000008_Node000009" class="edge">
<title>Node8&#45;&gt;Node9</title>
<g id="a_edge10_Node000008_Node000009"><a xlink:title=" ">
<path fill="none" stroke="#63b8ff" d="M321.2,-58.48C334.72,-62.72 350.51,-67.67 364.94,-72.19"/>
<polygon fill="#63b8ff" stroke="#63b8ff" points="363.62,-75.45 374.21,-75.1 365.72,-68.77 363.62,-75.45"/>
</a>
</g>
</g>
<!-- Node10 -->
<g id="Node000010" class="node">
<title>Node10</title>
<g id="a_Node000010"><a xlink:href="namespaceshared.html#a6282d0d8d2ab3f70038d7428729c15ca" target="_top" xlink:title="Escape a string.">
<polygon fill="white" stroke="#666666" points="569,-39 486.25,-39 486.25,-19 569,-19 569,-39"/>
<text text-anchor="middle" x="527.62" y="-25.5" font-family="Helvetica,sans-Serif" font-size="10.00">shared::escape</text>
</a>
</g>
</g>
<!-- Node8&#45;&gt;Node10 -->
<g id="edge11_Node000008_Node000010" class="edge">
<title>Node8&#45;&gt;Node10</title>
<g id="a_edge11_Node000008_Node000010"><a xlink:title=" ">
<path fill="none" stroke="#63b8ff" d="M334.09,-44.31C374.4,-41.11 432.75,-36.47 474.63,-33.14"/>
<polygon fill="#63b8ff" stroke="#63b8ff" points="474.78,-36.63 484.47,-32.35 474.23,-29.66 474.78,-36.63"/>
</a>
</g>
</g>
<!-- Node11 -->
<g id="Node000011" class="node">
<title>Node11</title>
<g id="a_Node000011"><a xlink:href="namespaceshared.html#a690cc836408825d804377522d9d99a07" target="_top" xlink:title="Split a string.">
<polygon fill="white" stroke="#666666" points="450.25,-20 369.75,-20 369.75,0 450.25,0 450.25,-20"/>
<text text-anchor="middle" x="410" y="-6.5" font-family="Helvetica,sans-Serif" font-size="10.00">shared::splitter</text>
</a>
</g>
</g>
<!-- Node8&#45;&gt;Node11 -->
<g id="edge12_Node000008_Node000011" class="edge">
<title>Node8&#45;&gt;Node11</title>
<g id="a_edge12_Node000008_Node000011"><a xlink:title=" ">
<path fill="none" stroke="#63b8ff" d="M321.2,-37.52C334.72,-33.28 350.51,-28.33 364.94,-23.81"/>
<polygon fill="#63b8ff" stroke="#63b8ff" points="365.72,-27.23 374.21,-20.9 363.62,-20.55 365.72,-27.23"/>
</a>
</g>
</g>
<!-- Node11&#45;&gt;Node10 -->
<g id="edge13_Node000011_Node000010" class="edge">
<title>Node11&#45;&gt;Node10</title>
<g id="a_edge13_Node000011_Node000010"><a xlink:title=" ">
<path fill="none" stroke="#63b8ff" d="M450.47,-16.49C458.21,-17.76 466.43,-19.11 474.51,-20.44"/>
<polygon fill="#63b8ff" stroke="#63b8ff" points="473.83,-23.87 484.27,-22.04 474.97,-16.96 473.83,-23.87"/>
</a>
</g>
</g>
</g>
</svg>
