<?xml version="1.0" encoding="UTF-8" standalone="no"?>
<!DOCTYPE svg PUBLIC "-//W3C//DTD SVG 1.1//EN"
 "http://www.w3.org/Graphics/SVG/1.1/DTD/svg11.dtd">
<!-- Generated by graphviz version 12.2.1 (0)
 -->
<!-- Title: shared::log Pages: 1 -->
<svg width="614pt" height="298pt"
 viewBox="0.00 0.00 613.75 298.13" xmlns="http://www.w3.org/2000/svg" xmlns:xlink="http://www.w3.org/1999/xlink">
<g id="graph0" class="graph" transform="scale(1 1) rotate(0) translate(4 294.13)">
<title>shared::log</title>
<!-- Node1 -->
<g id="Node000001" class="node">
<title>Node1</title>
<g id="a_Node000001"><a xlink:title="Log output to console, if verbose.">
<polygon fill="#999999" stroke="#666666" points="605.75,-152 541.75,-152 541.75,-132 605.75,-132 605.75,-152"/>
<text text-anchor="middle" x="573.75" y="-138.5" font-family="Helvetica,sans-Serif" font-size="10.00">shared::log</text>
</a>
</g>
</g>
<!-- Node2 -->
<g id="Node000002" class="node">
<title>Node2</title>
<g id="a_Node000002"><a xlink:href="namespacegenerate.html#a38dcdfdf9293b8aafe77392021d65019" target="_top" xlink:title="Generate the bulk of the main program command.">
<polygon fill="white" stroke="#666666" points="225.88,-284 147.62,-284 147.62,-264 225.88,-264 225.88,-284"/>
<text text-anchor="middle" x="186.75" y="-270.5" font-family="Helvetica,sans-Serif" font-size="10.00">generate::cmd</text>
</a>
</g>
</g>
<!-- Node1&#45;&gt;Node2 -->
<g id="edge1_Node000001_Node000002" class="edge">
<title>Node1&#45;&gt;Node2</title>
<g id="a_edge1_Node000001_Node000002"><a xlink:title=" ">
<path fill="none" stroke="#63b8ff" d="M565.39,-162.89C555.7,-187.09 536.23,-226.18 505.75,-246 419.1,-302.35 289.93,-291.45 226.18,-281.39"/>
<polygon fill="#63b8ff" stroke="#63b8ff" points="568.58,-164.36 568.83,-153.77 562.03,-161.89 568.58,-164.36"/>
</a>
</g>
</g>
<!-- Node3 -->
<g id="Node000003" class="node">
<title>Node3</title>
<g id="a_Node000003"><a xlink:href="namespacesyscalls.html#aabdab752b02a21ab92e3af4fabba493b" target="_top" xlink:title="Generate a syscall filter.">
<polygon fill="white" stroke="#666666" points="485.12,-96 408.38,-96 408.38,-76 485.12,-76 485.12,-96"/>
<text text-anchor="middle" x="446.75" y="-82.5" font-family="Helvetica,sans-Serif" font-size="10.00">syscalls::filter</text>
</a>
</g>
</g>
<!-- Node1&#45;&gt;Node3 -->
<g id="edge2_Node000001_Node000003" class="edge">
<title>Node1&#45;&gt;Node3</title>
<g id="a_edge2_Node000001_Node000003"><a xlink:title=" ">
<path fill="none" stroke="#63b8ff" d="M539.15,-126.95C517.54,-117.27 490.02,-104.93 470.84,-96.35"/>
<polygon fill="#63b8ff" stroke="#63b8ff" points="537.59,-130.08 548.15,-130.98 540.46,-123.7 537.59,-130.08"/>
</a>
</g>
</g>
<!-- Node4 -->
<g id="Node000004" class="node">
<title>Node4</title>
<g id="a_Node000004"><a xlink:href="namespaceshared.html#a00b81f070735db096bbcd00c9d87188e" target="_top" xlink:title="Attach an environment variable to the sandbox.">
<polygon fill="white" stroke="#666666" points="482.88,-58 410.62,-58 410.62,-38 482.88,-38 482.88,-58"/>
<text text-anchor="middle" x="446.75" y="-44.5" font-family="Helvetica,sans-Serif" font-size="10.00">shared::genv</text>
</a>
</g>
</g>
<!-- Node1&#45;&gt;Node4 -->
<g id="edge4_Node000001_Node000004" class="edge">
<title>Node1&#45;&gt;Node4</title>
<g id="a_edge4_Node000001_Node000004"><a xlink:title=" ">
<path fill="none" stroke="#63b8ff" d="M559.99,-122.72C547.88,-105.81 528.23,-81.7 505.75,-67 498.92,-62.53 490.95,-59.04 483.15,-56.33"/>
<polygon fill="#63b8ff" stroke="#63b8ff" points="556.78,-124.23 565.35,-130.47 562.54,-120.25 556.78,-124.23"/>
</a>
</g>
</g>
<!-- Node5 -->
<g id="Node000005" class="node">
<title>Node5</title>
<g id="a_Node000005"><a xlink:href="namespacelibraries.html#a4dfd6ab45adf8dc18ea57bc1f88eaedf" target="_top" xlink:title="Recursively resolve all shared&#45;libraries needed by a library.">
<polygon fill="white" stroke="#666666" points="481.38,-237 412.12,-237 412.12,-217 481.38,-217 481.38,-237"/>
<text text-anchor="middle" x="446.75" y="-223.5" font-family="Helvetica,sans-Serif" font-size="10.00">libraries::get</text>
</a>
</g>
</g>
<!-- Node1&#45;&gt;Node5 -->
<g id="edge5_Node000001_Node000005" class="edge">
<title>Node1&#45;&gt;Node5</title>
<g id="a_edge5_Node000001_Node000005"><a xlink:title=" ">
<path fill="none" stroke="#63b8ff" d="M552.19,-159.19C539.21,-169.73 521.91,-183.21 505.75,-194 493.51,-202.17 479.14,-210.35 467.77,-216.53"/>
<polygon fill="#63b8ff" stroke="#63b8ff" points="554.12,-162.14 559.62,-153.09 549.67,-156.73 554.12,-162.14"/>
</a>
</g>
</g>
<!-- Node6 -->
<g id="Node000006" class="node">
<title>Node6</title>
<g id="a_Node000006"><a xlink:href="namespacebinaries.html#ac1478c81b2eb2c4ecdba98e92c4e7651" target="_top" xlink:title="Parse a binary to determine dependencies.">
<polygon fill="white" stroke="#666666" points="351.75,-190 272,-190 272,-170 351.75,-170 351.75,-190"/>
<text text-anchor="middle" x="311.88" y="-176.5" font-family="Helvetica,sans-Serif" font-size="10.00">binaries::parse</text>
</a>
</g>
</g>
<!-- Node1&#45;&gt;Node6 -->
<g id="edge13_Node000001_Node000006" class="edge">
<title>Node1&#45;&gt;Node6</title>
<g id="a_edge13_Node000001_Node000006"><a xlink:title=" ">
<path fill="none" stroke="#63b8ff" d="M530.31,-151.42C522.18,-153.07 513.72,-154.67 505.75,-156 452.83,-164.81 391.24,-171.93 352.17,-176.07"/>
<polygon fill="#63b8ff" stroke="#63b8ff" points="530.93,-154.86 540.01,-149.4 529.51,-148.01 530.93,-154.86"/>
</a>
</g>
</g>
<!-- Node7 -->
<g id="Node000007" class="node">
<title>Node7</title>
<g id="a_Node000007"><a xlink:href="namespacegenerate.html#a17cf0da8addab269d21c2c8074d85c4e" target="_top" xlink:title="Setup the Proxy&#39;s SOF.">
<polygon fill="white" stroke="#666666" points="236,-190 137.5,-190 137.5,-170 236,-170 236,-190"/>
<text text-anchor="middle" x="186.75" y="-176.5" font-family="Helvetica,sans-Serif" font-size="10.00">generate::proxy_lib</text>
</a>
</g>
</g>
<!-- Node1&#45;&gt;Node7 -->
<g id="edge14_Node000001_Node000007" class="edge">
<title>Node1&#45;&gt;Node7</title>
<g id="a_edge14_Node000001_Node000007"><a xlink:title=" ">
<path fill="none" stroke="#63b8ff" d="M530.05,-142.57C471.55,-143.83 363.33,-147.9 272,-161 257.6,-163.06 242.02,-166.29 228.22,-169.51"/>
<polygon fill="#63b8ff" stroke="#63b8ff" points="529.97,-146.07 539.9,-142.38 529.83,-139.07 529.97,-146.07"/>
</a>
</g>
</g>
<!-- Node9 -->
<g id="Node000009" class="node">
<title>Node9</title>
<g id="a_Node000009"><a xlink:href="namespacesyscalls.html#a501461c3842033cfab85ba4b8f328ed8" target="_top" xlink:title="Append an existing policy with newly discovered syscalls.">
<polygon fill="white" stroke="#666666" points="505.75,-20 387.75,-20 387.75,0 505.75,0 505.75,-20"/>
<text text-anchor="middle" x="446.75" y="-6.5" font-family="Helvetica,sans-Serif" font-size="10.00">syscalls::update_policy</text>
</a>
</g>
</g>
<!-- Node1&#45;&gt;Node9 -->
<g id="edge15_Node000001_Node000009" class="edge">
<title>Node1&#45;&gt;Node9</title>
<g id="a_edge15_Node000001_Node000009"><a xlink:title=" ">
<path fill="none" stroke="#63b8ff" d="M565.55,-120.94C555.83,-95.59 536.16,-53.39 505.75,-29 501.45,-25.55 496.51,-22.72 491.36,-20.4"/>
<polygon fill="#63b8ff" stroke="#63b8ff" points="562.19,-121.96 568.9,-130.16 568.77,-119.56 562.19,-121.96"/>
</a>
</g>
</g>
<!-- Node3&#45;&gt;Node3 -->
<g id="edge3_Node000003_Node000003" class="edge">
<title>Node3&#45;&gt;Node3</title>
<g id="a_edge3_Node000003_Node000003"><a xlink:title=" ">
<path fill="none" stroke="#63b8ff" d="M469.2,-107.44C466.31,-111.3 458.82,-114 446.75,-114 424.67,-114 417.95,-104.98 426.57,-96.34"/>
<polygon fill="#63b8ff" stroke="#63b8ff" points="472.66,-106.92 467.23,-97.82 465.8,-108.32 472.66,-106.92"/>
</a>
</g>
</g>
<!-- Node5&#45;&gt;Node2 -->
<g id="edge6_Node000005_Node000002" class="edge">
<title>Node5&#45;&gt;Node2</title>
<g id="a_edge6_Node000005_Node000002"><a xlink:title=" ">
<path fill="none" stroke="#63b8ff" d="M401.08,-238.85C385.53,-242.72 367.94,-246.84 351.75,-250 309.1,-258.32 259.71,-265.17 226.36,-269.4"/>
<polygon fill="#63b8ff" stroke="#63b8ff" points="401.68,-242.3 410.52,-236.45 399.96,-235.52 401.68,-242.3"/>
</a>
</g>
</g>
<!-- Node5&#45;&gt;Node6 -->
<g id="edge7_Node000005_Node000006" class="edge">
<title>Node5&#45;&gt;Node6</title>
<g id="a_edge7_Node000005_Node000006"><a xlink:title=" ">
<path fill="none" stroke="#63b8ff" d="M405.42,-212.73C385.07,-205.54 360.84,-196.97 342.28,-190.4"/>
<polygon fill="#63b8ff" stroke="#63b8ff" points="404.24,-216.03 414.83,-216.06 406.57,-209.43 404.24,-216.03"/>
</a>
</g>
</g>
<!-- Node5&#45;&gt;Node7 -->
<g id="edge12_Node000005_Node000007" class="edge">
<title>Node5&#45;&gt;Node7</title>
<g id="a_edge12_Node000005_Node000007"><a xlink:title=" ">
<path fill="none" stroke="#63b8ff" d="M400.51,-228.76C365.06,-229.09 314.76,-227.27 272,-217 248.23,-211.29 222.78,-199.19 206.15,-190.38"/>
<polygon fill="#63b8ff" stroke="#63b8ff" points="400.47,-232.26 410.41,-228.59 400.36,-225.26 400.47,-232.26"/>
</a>
</g>
</g>
<!-- Node6&#45;&gt;Node2 -->
<g id="edge8_Node000006_Node000002" class="edge">
<title>Node6&#45;&gt;Node2</title>
<g id="a_edge8_Node000006_Node000002"><a xlink:title=" ">
<path fill="none" stroke="#63b8ff" d="M288.3,-197.23C262.91,-216.62 222.48,-247.48 201.46,-263.53"/>
<polygon fill="#63b8ff" stroke="#63b8ff" points="290.2,-200.19 296.03,-191.34 285.95,-194.62 290.2,-200.19"/>
</a>
</g>
</g>
<!-- Node6&#45;&gt;Node6 -->
<g id="edge9_Node000006_Node000006" class="edge">
<title>Node6&#45;&gt;Node6</title>
<g id="a_edge9_Node000006_Node000006"><a xlink:title=" ">
<path fill="none" stroke="#63b8ff" d="M333.99,-201.44C331.14,-205.3 323.77,-208 311.88,-208 290.12,-208 283.5,-198.98 291.99,-190.34"/>
<polygon fill="#63b8ff" stroke="#63b8ff" points="337.46,-200.94 332.05,-191.82 330.6,-202.32 337.46,-200.94"/>
</a>
</g>
</g>
<!-- Node6&#45;&gt;Node7 -->
<g id="edge10_Node000006_Node000007" class="edge">
<title>Node6&#45;&gt;Node7</title>
<g id="a_edge10_Node000006_Node000007"><a xlink:title=" ">
<path fill="none" stroke="#63b8ff" d="M260.19,-180C252.25,-180 244.06,-180 236.17,-180"/>
<polygon fill="#63b8ff" stroke="#63b8ff" points="260.07,-183.5 270.07,-180 260.07,-176.5 260.07,-183.5"/>
</a>
</g>
</g>
<!-- Node8 -->
<g id="Node000008" class="node">
<title>Node8</title>
<g id="a_Node000008"><a xlink:href="namespacegenerate.html#a5c0026523dd30f942c55ad25f1b607b4" target="_top" xlink:title="Spawn an instance of the xdg&#45;dbus&#45;proxy for the application instance.">
<polygon fill="white" stroke="#666666" points="101.5,-196 0,-196 0,-164 101.5,-164 101.5,-196"/>
<text text-anchor="start" x="8" y="-182.5" font-family="Helvetica,sans-Serif" font-size="10.00">generate::xdg_dbus</text>
<text text-anchor="middle" x="50.75" y="-170.5" font-family="Helvetica,sans-Serif" font-size="10.00">_proxy</text>
</a>
</g>
</g>
<!-- Node7&#45;&gt;Node8 -->
<g id="edge11_Node000007_Node000008" class="edge">
<title>Node7&#45;&gt;Node8</title>
<g id="a_edge11_Node000007_Node000008"><a xlink:title=" ">
<path fill="none" stroke="#63b8ff" d="M126.08,-180C117.99,-180 109.76,-180 101.86,-180"/>
<polygon fill="#63b8ff" stroke="#63b8ff" points="125.86,-183.5 135.86,-180 125.86,-176.5 125.86,-183.5"/>
</a>
</g>
</g>
</g>
</svg>
