<?xml version="1.0" encoding="UTF-8" standalone="no"?>
<!DOCTYPE svg PUBLIC "-//W3C//DTD SVG 1.1//EN"
 "http://www.w3.org/Graphics/SVG/1.1/DTD/svg11.dtd">
<!-- Generated by graphviz version 12.2.1 (0)
 -->
<!-- Title: shared::init Pages: 1 -->
<svg width="487pt" height="254pt"
 viewBox="0.00 0.00 486.75 254.00" xmlns="http://www.w3.org/2000/svg" xmlns:xlink="http://www.w3.org/1999/xlink">

<svg id="main" version="1.1" xmlns="http://www.w3.org/2000/svg" xmlns:xlink="http://www.w3.org/1999/xlink" xml:space="preserve">

<style type="text/css"><![CDATA[
.node, .edge {opacity: 0.7;}
.node.selected, .edge.selected {opacity: 1;}
.edge:hover path { stroke: red; }
.edge:hover polygon { stroke: red; fill: red; }
]]></style>
<script type="application/ecmascript" xlink:href="svg.min.js"/>
<svg id="graph" class="graph">
<g id="graph0" class="graph" transform="scale(1 1) rotate(0) translate(4 250)">
<title>shared::init</title>
<!-- Node1 -->
<g id="Node000001" class="node">
<title>Node1</title>
<g id="a_Node000001"><a xlink:title="Compose a return value from an accumulator function.">
<polygon fill="#999999" stroke="#666666" points="478.75,-124 414.75,-124 414.75,-104 478.75,-104 478.75,-124"/>
<text text-anchor="middle" x="446.75" y="-110.5" font-family="Helvetica,sans-Serif" font-size="10.00">shared::init</text>
</a>
</g>
</g>
<!-- Node2 -->
<g id="Node000002" class="node">
<title>Node2</title>
<g id="a_Node000002"><a xlink:href="classarg_1_1Arg.html#af2111fcb064aca3efb8642f09d9d5c2f" target="_top" xlink:title="Digest arguments.">
<polygon fill="white" stroke="#666666" points="366.75,-246 284,-246 284,-226 366.75,-226 366.75,-246"/>
<text text-anchor="middle" x="325.38" y="-232.5" font-family="Helvetica,sans-Serif" font-size="10.00">arg::Arg::digest</text>
</a>
</g>
</g>
<!-- Node1&#45;&gt;Node2 -->
<g id="edge1_Node000001_Node000002" class="edge">
<title>Node1&#45;&gt;Node2</title>
<g id="a_edge1_Node000001_Node000002"><a xlink:title=" ">
<path fill="none" stroke="#63b8ff" d="M437.17,-134.74C426.62,-157.85 406.62,-194.87 378.75,-217 374.43,-220.43 369.44,-223.27 364.29,-225.62"/>
<polygon fill="#63b8ff" stroke="#63b8ff" points="440.3,-136.3 441.09,-125.74 433.89,-133.5 440.3,-136.3"/>
</a>
</g>
</g>
<!-- Node3 -->
<g id="Node000003" class="node">
<title>Node3</title>
<g id="a_Node000003"><a xlink:href="namespacesyscalls.html#aabdab752b02a21ab92e3af4fabba493b" target="_top" xlink:title="Generate a syscall filter.">
<polygon fill="white" stroke="#666666" points="363.75,-190 287,-190 287,-170 363.75,-170 363.75,-190"/>
<text text-anchor="middle" x="325.38" y="-176.5" font-family="Helvetica,sans-Serif" font-size="10.00">syscalls::filter</text>
</a>
</g>
</g>
<!-- Node1&#45;&gt;Node3 -->
<g id="edge2_Node000001_Node000003" class="edge">
<title>Node1&#45;&gt;Node3</title>
<g id="a_edge2_Node000001_Node000003"><a xlink:title=" ">
<path fill="none" stroke="#63b8ff" d="M424.2,-131.32C411.5,-140.95 394.82,-152.64 378.75,-161 372.66,-164.17 365.92,-167.04 359.35,-169.54"/>
<polygon fill="#63b8ff" stroke="#63b8ff" points="426.11,-134.27 431.86,-125.37 421.82,-128.74 426.11,-134.27"/>
</a>
</g>
</g>
<!-- Node4 -->
<g id="Node000004" class="node">
<title>Node4</title>
<g id="a_Node000004"><a xlink:href="classarg_1_1Arg.html#a244007ab0c913b151b5a59e39149daea" target="_top" xlink:title="Return all values paired with their modifiers.">
<polygon fill="white" stroke="#666666" points="378.75,-152 272,-152 272,-132 378.75,-132 378.75,-152"/>
<text text-anchor="middle" x="325.38" y="-138.5" font-family="Helvetica,sans-Serif" font-size="10.00">arg::Arg::get_modlist</text>
</a>
</g>
</g>
<!-- Node1&#45;&gt;Node4 -->
<g id="edge4_Node000001_Node000004" class="edge">
<title>Node1&#45;&gt;Node4</title>
<g id="a_edge4_Node000001_Node000004"><a xlink:title=" ">
<path fill="none" stroke="#63b8ff" d="M403.37,-123.94C392.87,-126.4 381.6,-129.05 371,-131.53"/>
<polygon fill="#63b8ff" stroke="#63b8ff" points="403.98,-127.39 412.91,-121.7 402.38,-120.58 403.98,-127.39"/>
</a>
</g>
</g>
<!-- Node5 -->
<g id="Node000005" class="node">
<title>Node5</title>
<g id="a_Node000005"><a xlink:href="namespacebinaries.html#ac1478c81b2eb2c4ecdba98e92c4e7651" target="_top" xlink:title="Parse a binary to determine dependencies.">
<polygon fill="white" stroke="#666666" points="365.25,-96 285.5,-96 285.5,-76 365.25,-76 365.25,-96"/>
<text text-anchor="middle" x="325.38" y="-82.5" font-family="Helvetica,sans-Serif" font-size="10.00">binaries::parse</text>
</a>
</g>
</g>
<!-- Node1&#45;&gt;Node5 -->
<g id="edge5_Node000001_Node000005" class="edge">
<title>Node1&#45;&gt;Node5</title>
<g id="a_edge5_Node000001_Node000005"><a xlink:title=" ">
<path fill="none" stroke="#63b8ff" d="M403.46,-104.08C391.15,-101.19 377.76,-98.05 365.65,-95.21"/>
<polygon fill="#63b8ff" stroke="#63b8ff" points="402.38,-107.42 412.91,-106.3 403.98,-100.61 402.38,-107.42"/>
</a>
</g>
</g>
<!-- Node7 -->
<g id="Node000007" class="node">
<title>Node7</title>
<g id="a_Node000007"><a xlink:href="namespacegenerate.html#a17cf0da8addab269d21c2c8074d85c4e" target="_top" xlink:title="Setup the Proxy&#39;s SOF.">
<polygon fill="white" stroke="#666666" points="236,-58 137.5,-58 137.5,-38 236,-38 236,-58"/>
<text text-anchor="middle" x="186.75" y="-44.5" font-family="Helvetica,sans-Serif" font-size="10.00">generate::proxy_lib</text>
</a>
</g>
</g>
<!-- Node1&#45;&gt;Node7 -->
<g id="edge11_Node000001_Node000007" class="edge">
<title>Node1&#45;&gt;Node7</title>
<g id="a_edge11_Node000001_Node000007"><a xlink:title=" ">
<path fill="none" stroke="#63b8ff" d="M426.28,-96.26C413.67,-85.87 396.37,-73.54 378.75,-67 332.51,-49.84 275.9,-46.17 236.36,-46.13"/>
<polygon fill="#63b8ff" stroke="#63b8ff" points="423.92,-98.85 433.78,-102.71 428.48,-93.54 423.92,-98.85"/>
</a>
</g>
</g>
<!-- Node9 -->
<g id="Node000009" class="node">
<title>Node9</title>
<g id="a_Node000009"><a xlink:href="namespacearg.html#a9da86862acc776f92533ebac921afc40" target="_top" xlink:title="Parse command line arguments.">
<polygon fill="white" stroke="#666666" points="367.12,-20 283.62,-20 283.62,0 367.12,0 367.12,-20"/>
<text text-anchor="middle" x="325.38" y="-6.5" font-family="Helvetica,sans-Serif" font-size="10.00">arg::parse_args</text>
</a>
</g>
</g>
<!-- Node1&#45;&gt;Node9 -->
<g id="edge10_Node000001_Node000009" class="edge">
<title>Node1&#45;&gt;Node9</title>
<g id="a_edge10_Node000001_Node000009"><a xlink:title=" ">
<path fill="none" stroke="#63b8ff" d="M433.03,-94.3C420.84,-76.65 401.03,-50.99 378.75,-34 371.67,-28.6 363.19,-24.06 355.12,-20.42"/>
<polygon fill="#63b8ff" stroke="#63b8ff" points="429.98,-96.03 438.45,-102.39 435.79,-92.13 429.98,-96.03"/>
</a>
</g>
</g>
<!-- Node3&#45;&gt;Node3 -->
<g id="edge3_Node000003_Node000003" class="edge">
<title>Node3&#45;&gt;Node3</title>
<g id="a_edge3_Node000003_Node000003"><a xlink:title=" ">
<path fill="none" stroke="#63b8ff" d="M346.83,-201.44C344.06,-205.3 336.91,-208 325.38,-208 304.28,-208 297.85,-198.98 306.09,-190.34"/>
<polygon fill="#63b8ff" stroke="#63b8ff" points="350.3,-200.97 344.95,-191.82 343.43,-202.31 350.3,-200.97"/>
</a>
</g>
</g>
<!-- Node5&#45;&gt;Node5 -->
<g id="edge7_Node000005_Node000005" class="edge">
<title>Node5&#45;&gt;Node5</title>
<g id="a_edge7_Node000005_Node000005"><a xlink:title=" ">
<path fill="none" stroke="#63b8ff" d="M346.83,-107.44C344.06,-111.3 336.91,-114 325.38,-114 304.28,-114 297.85,-104.98 306.09,-96.34"/>
<polygon fill="#63b8ff" stroke="#63b8ff" points="350.3,-106.97 344.95,-97.82 343.43,-108.31 350.3,-106.97"/>
</a>
</g>
</g>
<!-- Node6 -->
<g id="Node000006" class="node">
<title>Node6</title>
<g id="a_Node000006"><a xlink:href="namespacegenerate.html#a38dcdfdf9293b8aafe77392021d65019" target="_top" xlink:title="Generate the bulk of the main program command.">
<polygon fill="white" stroke="#666666" points="225.88,-96 147.62,-96 147.62,-76 225.88,-76 225.88,-96"/>
<text text-anchor="middle" x="186.75" y="-82.5" font-family="Helvetica,sans-Serif" font-size="10.00">generate::cmd</text>
</a>
</g>
</g>
<!-- Node5&#45;&gt;Node6 -->
<g id="edge6_Node000005_Node000006" class="edge">
<title>Node5&#45;&gt;Node6</title>
<g id="a_edge6_Node000005_Node000006"><a xlink:title=" ">
<path fill="none" stroke="#63b8ff" d="M273.97,-86C258.1,-86 240.84,-86 225.96,-86"/>
<polygon fill="#63b8ff" stroke="#63b8ff" points="273.71,-89.5 283.71,-86 273.71,-82.5 273.71,-89.5"/>
</a>
</g>
</g>
<!-- Node5&#45;&gt;Node7 -->
<g id="edge8_Node000005_Node000007" class="edge">
<title>Node5&#45;&gt;Node7</title>
<g id="a_edge8_Node000005_Node000007"><a xlink:title=" ">
<path fill="none" stroke="#63b8ff" d="M276.03,-72.55C259.38,-67.92 240.99,-62.81 225.32,-58.45"/>
<polygon fill="#63b8ff" stroke="#63b8ff" points="274.65,-75.8 285.22,-75.11 276.53,-69.06 274.65,-75.8"/>
</a>
</g>
</g>
<!-- Node8 -->
<g id="Node000008" class="node">
<title>Node8</title>
<g id="a_Node000008"><a xlink:href="namespacegenerate.html#a5c0026523dd30f942c55ad25f1b607b4" target="_top" xlink:title="Spawn an instance of the xdg&#45;dbus&#45;proxy for the application instance.">
<polygon fill="white" stroke="#666666" points="101.5,-64 0,-64 0,-32 101.5,-32 101.5,-64"/>
<text text-anchor="start" x="8" y="-50.5" font-family="Helvetica,sans-Serif" font-size="10.00">generate::xdg_dbus</text>
<text text-anchor="middle" x="50.75" y="-38.5" font-family="Helvetica,sans-Serif" font-size="10.00">_proxy</text>
</a>
</g>
</g>
<!-- Node7&#45;&gt;Node8 -->
<g id="edge9_Node000007_Node000008" class="edge">
<title>Node7&#45;&gt;Node8</title>
<g id="a_edge9_Node000007_Node000008"><a xlink:title=" ">
<path fill="none" stroke="#63b8ff" d="M126.08,-48C117.99,-48 109.76,-48 101.86,-48"/>
<polygon fill="#63b8ff" stroke="#63b8ff" points="125.86,-51.5 135.86,-48 125.86,-44.5 125.86,-51.5"/>
</a>
</g>
</g>
</g>
</svg>
</svg>

<style type='text/css'>
<![CDATA[
[data-mouse-over-selected='false'] { opacity: 0.7; }
[data-mouse-over-selected='true']  { opacity: 1.0; }
]]>
</style>
<script type="application/ecmascript"><![CDATA[
document.addEventListener('DOMContentLoaded', (event) => {
  highlightEdges();
  highlightAdjacentNodes();
});
]]></script>
</svg>
