<?xml version="1.0" encoding="UTF-8" standalone="no"?>
<!DOCTYPE svg PUBLIC "-//W3C//DTD SVG 1.1//EN"
 "http://www.w3.org/Graphics/SVG/1.1/DTD/svg11.dtd">
<!-- Generated by graphviz version 12.2.1 (0)
 -->
<!-- Title: generate::cmd Pages: 1 -->
<svg width="845pt" height="869pt"
 viewBox="0.00 0.00 844.50 868.82" xmlns="http://www.w3.org/2000/svg" xmlns:xlink="http://www.w3.org/1999/xlink">
<g id="graph0" class="graph" transform="scale(1 1) rotate(0) translate(4 864.82)">
<title>generate::cmd</title>
<!-- Node1 -->
<g id="Node000001" class="node">
<title>Node1</title>
<g id="a_Node000001"><a xlink:title="Generate the bulk of the main program command.">
<polygon fill="#999999" stroke="#666666" points="78.25,-305 0,-305 0,-285 78.25,-285 78.25,-305"/>
<text text-anchor="middle" x="39.12" y="-291.5" font-family="Helvetica,sans-Serif" font-size="10.00">generate::cmd</text>
</a>
</g>
</g>
<!-- Node2 -->
<g id="Node000002" class="node">
<title>Node2</title>
<g id="a_Node000002"><a xlink:href="namespaceshared.html#a172747218de79644b5c263f15a0da631" target="_top" xlink:title="Batch multiple iterations of an accumulator function together, threaded.">
<polygon fill="white" stroke="#666666" points="464.88,-210 389.62,-210 389.62,-190 464.88,-190 464.88,-210"/>
<text text-anchor="middle" x="427.25" y="-196.5" font-family="Helvetica,sans-Serif" font-size="10.00">shared::batch</text>
</a>
</g>
</g>
<!-- Node1&#45;&gt;Node2 -->
<g id="edge1_Node000001_Node000002" class="edge">
<title>Node1&#45;&gt;Node2</title>
<g id="a_edge1_Node000001_Node000002"><a xlink:title=" ">
<path fill="none" stroke="#63b8ff" d="M46.55,-284.54C57.81,-267.29 82.91,-233.35 114.25,-219 200.65,-179.44 314.82,-185.11 378.35,-192.64"/>
<polygon fill="#63b8ff" stroke="#63b8ff" points="377.75,-196.09 388.11,-193.87 378.62,-189.15 377.75,-196.09"/>
</a>
</g>
</g>
<!-- Node3 -->
<g id="Node000003" class="node">
<title>Node3</title>
<g id="a_Node000003"><a xlink:href="namespaceshared.html#ab11bf98c12a2bf0ae3adca902e57befd" target="_top" xlink:title="Extend a container in place.">
<polygon fill="white" stroke="#666666" points="594.5,-115 514,-115 514,-95 594.5,-95 594.5,-115"/>
<text text-anchor="middle" x="554.25" y="-101.5" font-family="Helvetica,sans-Serif" font-size="10.00">shared::extend</text>
</a>
</g>
</g>
<!-- Node1&#45;&gt;Node3 -->
<g id="edge4_Node000001_Node000003" class="edge">
<title>Node1&#45;&gt;Node3</title>
<g id="a_edge4_Node000001_Node000003"><a xlink:title=" ">
<path fill="none" stroke="#63b8ff" d="M39.69,-284.66C38.75,-247.44 41.13,-119.59 114.25,-65 177.82,-17.54 394.14,-48.36 471.25,-67 490.46,-71.64 510.61,-80.91 526.13,-89.14"/>
<polygon fill="#63b8ff" stroke="#63b8ff" points="524.29,-92.12 534.74,-93.86 527.66,-85.98 524.29,-92.12"/>
</a>
</g>
</g>
<!-- Node4 -->
<g id="Node000004" class="node">
<title>Node4</title>
<g id="a_Node000004"><a xlink:href="namespaceshared.html#a585cdabc1b4758c65001d7dd03cb6715" target="_top" xlink:title="Execute stuff.">
<polygon fill="white" stroke="#666666" points="590.38,-685 518.12,-685 518.12,-665 590.38,-665 590.38,-685"/>
<text text-anchor="middle" x="554.25" y="-671.5" font-family="Helvetica,sans-Serif" font-size="10.00">shared::exec</text>
</a>
</g>
</g>
<!-- Node1&#45;&gt;Node4 -->
<g id="edge3_Node000001_Node000004" class="edge">
<title>Node1&#45;&gt;Node4</title>
<g id="a_edge3_Node000001_Node000004"><a xlink:title=" ">
<path fill="none" stroke="#63b8ff" d="M40.26,-305.25C41.28,-369.32 49.78,-714.73 114.25,-793 181.3,-874.41 247.63,-872.64 347.25,-838 430.68,-808.98 505.79,-730.57 537.41,-694.11"/>
<polygon fill="#63b8ff" stroke="#63b8ff" points="540.02,-696.44 543.84,-686.56 534.69,-691.91 540.02,-696.44"/>
</a>
</g>
</g>
<!-- Node5 -->
<g id="Node000005" class="node">
<title>Node5</title>
<g id="a_Node000005"><a xlink:href="namespacelibraries.html#a4dfd6ab45adf8dc18ea57bc1f88eaedf" target="_top" xlink:title="Recursively resolve all shared&#45;libraries needed by a library.">
<polygon fill="white" stroke="#666666" points="328.88,-628 259.62,-628 259.62,-608 328.88,-608 328.88,-628"/>
<text text-anchor="middle" x="294.25" y="-614.5" font-family="Helvetica,sans-Serif" font-size="10.00">libraries::get</text>
</a>
</g>
</g>
<!-- Node1&#45;&gt;Node5 -->
<g id="edge5_Node000001_Node000005" class="edge">
<title>Node1&#45;&gt;Node5</title>
<g id="a_edge5_Node000001_Node000005"><a xlink:title=" ">
<path fill="none" stroke="#63b8ff" d="M39.78,-305.28C39.06,-344.25 41.79,-484.53 114.25,-560 149.26,-596.46 207.34,-610.03 247.81,-615.07"/>
<polygon fill="#63b8ff" stroke="#63b8ff" points="247.42,-618.55 257.74,-616.16 248.18,-611.59 247.42,-618.55"/>
</a>
</g>
</g>
<!-- Node10 -->
<g id="Node000010" class="node">
<title>Node10</title>
<g id="a_Node000010"><a xlink:href="namespaceshared.html#a2f7cb04abbe01ba7193f2d2a6d520355" target="_top" xlink:title="Join a vector into a string.">
<polygon fill="white" stroke="#666666" points="460.38,-704 394.12,-704 394.12,-684 460.38,-684 460.38,-704"/>
<text text-anchor="middle" x="427.25" y="-690.5" font-family="Helvetica,sans-Serif" font-size="10.00">shared::join</text>
</a>
</g>
</g>
<!-- Node1&#45;&gt;Node10 -->
<g id="edge23_Node000001_Node000010" class="edge">
<title>Node1&#45;&gt;Node10</title>
<g id="a_edge23_Node000001_Node000010"><a xlink:title=" ">
<path fill="none" stroke="#63b8ff" d="M40.71,-305.44C44.19,-365.05 63.91,-662.26 114.25,-736 175.67,-825.96 251.16,-863.3 347.25,-812 385.69,-791.48 408.71,-743.04 419.28,-715.02"/>
<polygon fill="#63b8ff" stroke="#63b8ff" points="422.49,-716.43 422.54,-705.83 415.9,-714.08 422.49,-716.43"/>
</a>
</g>
</g>
<!-- Node11 -->
<g id="Node000011" class="node">
<title>Node11</title>
<g id="a_Node000011"><a xlink:href="namespaceshared.html#a99724c73af55fa92ae29fee700152917" target="_top" xlink:title="Log output to console, if verbose.">
<polygon fill="white" stroke="#666666" points="459.25,-666 395.25,-666 395.25,-646 459.25,-646 459.25,-666"/>
<text text-anchor="middle" x="427.25" y="-652.5" font-family="Helvetica,sans-Serif" font-size="10.00">shared::log</text>
</a>
</g>
</g>
<!-- Node1&#45;&gt;Node11 -->
<g id="edge24_Node000001_Node000011" class="edge">
<title>Node1&#45;&gt;Node11</title>
<g id="a_edge24_Node000001_Node000011"><a xlink:title=" ">
<path fill="none" stroke="#63b8ff" d="M39.91,-305.36C39.37,-351.43 41.87,-541.1 114.25,-671 151.75,-738.3 169.54,-760.83 241.25,-789 285.1,-806.23 309.25,-816.85 347.25,-789 390.11,-757.59 347.81,-714.58 383.25,-675 384.07,-674.09 384.94,-673.22 385.85,-672.39"/>
<polygon fill="#63b8ff" stroke="#63b8ff" points="387.59,-675.44 393.74,-666.82 383.55,-669.72 387.59,-675.44"/>
</a>
</g>
</g>
<!-- Node12 -->
<g id="Node000012" class="node">
<title>Node12</title>
<g id="a_Node000012"><a xlink:href="namespaceshared.html#afac154f1bef460ef6f24705f6c033f37" target="_top" xlink:title="Read a file.">
<polygon fill="white" stroke="#666666" points="471.25,-438 383.25,-438 383.25,-418 471.25,-418 471.25,-438"/>
<text text-anchor="middle" x="427.25" y="-424.5" font-family="Helvetica,sans-Serif" font-size="10.00">shared::read_file</text>
</a>
</g>
</g>
<!-- Node1&#45;&gt;Node12 -->
<g id="edge40_Node000001_Node000012" class="edge">
<title>Node1&#45;&gt;Node12</title>
<g id="a_edge40_Node000001_Node000012"><a xlink:title=" ">
<path fill="none" stroke="#63b8ff" d="M50.74,-305.28C64.35,-317.89 89.2,-339.07 114.25,-351 137.46,-362.05 288.92,-397.09 371.97,-415.86"/>
<polygon fill="#63b8ff" stroke="#63b8ff" points="370.97,-419.22 381.49,-418.01 372.51,-412.39 370.97,-419.22"/>
</a>
</g>
</g>
<!-- Node15 -->
<g id="Node000015" class="node">
<title>Node15</title>
<g id="a_Node000015"><a xlink:href="namespaceshared.html#a4a708359d4c8dbeeaa8b744eec56c0e5" target="_top" xlink:title="Hash a string.">
<polygon fill="white" stroke="#666666" points="195.88,-324 123.62,-324 123.62,-304 195.88,-304 195.88,-324"/>
<text text-anchor="middle" x="159.75" y="-310.5" font-family="Helvetica,sans-Serif" font-size="10.00">shared::hash</text>
</a>
</g>
</g>
<!-- Node1&#45;&gt;Node15 -->
<g id="edge20_Node000001_Node000015" class="edge">
<title>Node1&#45;&gt;Node15</title>
<g id="a_edge20_Node000001_Node000015"><a xlink:title=" ">
<path fill="none" stroke="#63b8ff" d="M78.64,-301.17C89.28,-302.87 100.95,-304.74 112.01,-306.51"/>
<polygon fill="#63b8ff" stroke="#63b8ff" points="111.32,-309.95 121.75,-308.07 112.43,-303.04 111.32,-309.95"/>
</a>
</g>
</g>
<!-- Node16 -->
<g id="Node000016" class="node">
<title>Node16</title>
<g id="a_Node000016"><a xlink:href="namespaceshared.html#a565b1c521d1f0509c5ec0f237a727f8e" target="_top" xlink:title="Compose a return value from an accumulator function.">
<polygon fill="white" stroke="#666666" points="326.25,-780 262.25,-780 262.25,-760 326.25,-760 326.25,-780"/>
<text text-anchor="middle" x="294.25" y="-766.5" font-family="Helvetica,sans-Serif" font-size="10.00">shared::init</text>
</a>
</g>
</g>
<!-- Node1&#45;&gt;Node16 -->
<g id="edge22_Node000001_Node000016" class="edge">
<title>Node1&#45;&gt;Node16</title>
<g id="a_edge22_Node000001_Node000016"><a xlink:title=" ">
<path fill="none" stroke="#63b8ff" d="M40.92,-305.23C44.35,-344.9 60.24,-491.52 114.25,-597 153.91,-674.45 171.91,-693.43 241.25,-746 245.33,-749.09 249.87,-751.91 254.52,-754.44"/>
<polygon fill="#63b8ff" stroke="#63b8ff" points="252.87,-757.53 263.38,-758.84 255.98,-751.26 252.87,-757.53"/>
</a>
</g>
</g>
<!-- Node17 -->
<g id="Node000017" class="node">
<title>Node17</title>
<g id="a_Node000017"><a xlink:href="namespacebinaries.html#ac1478c81b2eb2c4ecdba98e92c4e7651" target="_top" xlink:title="Parse a binary to determine dependencies.">
<polygon fill="white" stroke="#666666" points="199.62,-533 119.88,-533 119.88,-513 199.62,-513 199.62,-533"/>
<text text-anchor="middle" x="159.75" y="-519.5" font-family="Helvetica,sans-Serif" font-size="10.00">binaries::parse</text>
</a>
</g>
</g>
<!-- Node1&#45;&gt;Node17 -->
<g id="edge25_Node000001_Node000017" class="edge">
<title>Node1&#45;&gt;Node17</title>
<g id="a_edge25_Node000001_Node000017"><a xlink:title=" ">
<path fill="none" stroke="#63b8ff" d="M45.53,-305.39C63.83,-340.55 123.64,-455.52 148.14,-502.61"/>
<polygon fill="#63b8ff" stroke="#63b8ff" points="144.89,-503.95 152.61,-511.21 151.1,-500.72 144.89,-503.95"/>
</a>
</g>
</g>
<!-- Node20 -->
<g id="Node000020" class="node">
<title>Node20</title>
<g id="a_Node000020"><a xlink:href="namespaceshared.html#a48db957c3256c3eb24bc748642cd1bb9" target="_top" xlink:title="Batch multiple iterations of an accumulator function together.">
<polygon fill="white" stroke="#666666" points="347.25,-286 241.25,-286 241.25,-266 347.25,-266 347.25,-286"/>
<text text-anchor="middle" x="294.25" y="-272.5" font-family="Helvetica,sans-Serif" font-size="10.00">shared::single_batch</text>
</a>
</g>
</g>
<!-- Node1&#45;&gt;Node20 -->
<g id="edge45_Node000001_Node000020" class="edge">
<title>Node1&#45;&gt;Node20</title>
<g id="a_edge45_Node000001_Node000020"><a xlink:title=" ">
<path fill="none" stroke="#63b8ff" d="M78.57,-292.11C118.56,-289.11 181.85,-284.36 229.37,-280.79"/>
<polygon fill="#63b8ff" stroke="#63b8ff" points="229.57,-284.29 239.28,-280.05 229.04,-277.31 229.57,-284.29"/>
</a>
</g>
</g>
<!-- Node23 -->
<g id="Node000023" class="node">
<title>Node23</title>
<g id="a_Node000023"><a xlink:href="namespacebinaries.html#a8c5deb9459b44c3bdf9bb6d78ee53322" target="_top" xlink:title="Setup the sandbox for the used binaries.">
<polygon fill="white" stroke="#666666" points="467.12,-96 387.38,-96 387.38,-76 467.12,-76 467.12,-96"/>
<text text-anchor="middle" x="427.25" y="-82.5" font-family="Helvetica,sans-Serif" font-size="10.00">binaries::setup</text>
</a>
</g>
</g>
<!-- Node1&#45;&gt;Node23 -->
<g id="edge41_Node000001_Node000023" class="edge">
<title>Node1&#45;&gt;Node23</title>
<g id="a_edge41_Node000001_Node000023"><a xlink:title=" ">
<path fill="none" stroke="#63b8ff" d="M40.51,-284.94C42.36,-252.41 53.02,-149.63 114.25,-105 191.26,-48.87 309.41,-60.8 376.04,-73.83"/>
<polygon fill="#63b8ff" stroke="#63b8ff" points="375.08,-77.21 385.58,-75.79 376.49,-70.35 375.08,-77.21"/>
</a>
</g>
</g>
<!-- Node24 -->
<g id="Node000024" class="node">
<title>Node24</title>
<g id="a_Node000024"><a xlink:href="namespaceshared.html#acf7d9b7a4de8ca12d42e2132f2f4b4e7" target="_top" xlink:title="Share a path with the sandbox using a mode.">
<polygon fill="white" stroke="#666666" points="197.38,-20 122.12,-20 122.12,0 197.38,0 197.38,-20"/>
<text text-anchor="middle" x="159.75" y="-6.5" font-family="Helvetica,sans-Serif" font-size="10.00">shared::share</text>
</a>
</g>
</g>
<!-- Node1&#45;&gt;Node24 -->
<g id="edge43_Node000001_Node000024" class="edge">
<title>Node1&#45;&gt;Node24</title>
<g id="a_edge43_Node000001_Node000024"><a xlink:title=" ">
<path fill="none" stroke="#63b8ff" d="M40.29,-284.75C41.41,-247.04 49.96,-114.08 114.25,-34 116.43,-31.28 119.01,-28.83 121.8,-26.62"/>
<polygon fill="#63b8ff" stroke="#63b8ff" points="123.56,-29.66 130,-21.24 119.72,-23.81 123.56,-29.66"/>
</a>
</g>
</g>
<!-- Node25 -->
<g id="Node000025" class="node">
<title>Node25</title>
<g id="a_Node000025"><a xlink:href="namespacebinaries.html#a3dceb9be58009eef337fd18d7ee738d4" target="_top" xlink:title="Symlink to /usr/bin.">
<polygon fill="white" stroke="#666666" points="204.5,-172 115,-172 115,-152 204.5,-152 204.5,-172"/>
<text text-anchor="middle" x="159.75" y="-158.5" font-family="Helvetica,sans-Serif" font-size="10.00">binaries::symlink</text>
</a>
</g>
</g>
<!-- Node1&#45;&gt;Node25 -->
<g id="edge46_Node000001_Node000025" class="edge">
<title>Node1&#45;&gt;Node25</title>
<g id="a_edge46_Node000001_Node000025"><a xlink:title=" ">
<path fill="none" stroke="#63b8ff" d="M44.94,-284.8C55.19,-263.98 80.95,-216.05 114.25,-186 117.53,-183.04 121.24,-180.32 125.08,-177.85"/>
<polygon fill="#63b8ff" stroke="#63b8ff" points="126.53,-181.06 133.43,-173.03 123.02,-175 126.53,-181.06"/>
</a>
</g>
</g>
<!-- Node26 -->
<g id="Node000026" class="node">
<title>Node26</title>
<g id="a_Node000026"><a xlink:href="namespacelibraries.html#aaf67d1825dab30fecb532ea92077ebe3" target="_top" xlink:title="Add symlink commands.">
<polygon fill="white" stroke="#666666" points="204.5,-134 115,-134 115,-114 204.5,-114 204.5,-134"/>
<text text-anchor="middle" x="159.75" y="-120.5" font-family="Helvetica,sans-Serif" font-size="10.00">libraries::symlink</text>
</a>
</g>
</g>
<!-- Node1&#45;&gt;Node26 -->
<g id="edge48_Node000001_Node000026" class="edge">
<title>Node1&#45;&gt;Node26</title>
<g id="a_edge48_Node000001_Node000026"><a xlink:title=" ">
<path fill="none" stroke="#63b8ff" d="M42.49,-284.64C49.13,-257.7 70.42,-184.68 114.25,-143 115.13,-142.16 116.06,-141.36 117.02,-140.58"/>
<polygon fill="#63b8ff" stroke="#63b8ff" points="118.65,-143.7 125.13,-135.31 114.84,-137.82 118.65,-143.7"/>
</a>
</g>
</g>
<!-- Node27 -->
<g id="Node000027" class="node">
<title>Node27</title>
<g id="a_Node000027"><a xlink:href="namespaceshared.html#ae5d42a7f6819f149991304227a611c78" target="_top" xlink:title="A Blocking Parser that splits the output into a vector.">
<polygon fill="white" stroke="#666666" points="205.25,-248 114.25,-248 114.25,-228 205.25,-228 205.25,-248"/>
<text text-anchor="middle" x="159.75" y="-234.5" font-family="Helvetica,sans-Serif" font-size="10.00">shared::vectorize</text>
</a>
</g>
</g>
<!-- Node1&#45;&gt;Node27 -->
<g id="edge50_Node000001_Node000027" class="edge">
<title>Node1&#45;&gt;Node27</title>
<g id="a_edge50_Node000001_Node000027"><a xlink:title=" ">
<path fill="none" stroke="#63b8ff" d="M61.88,-284.55C80.11,-275.79 106.37,-263.17 126.96,-253.28"/>
<polygon fill="#63b8ff" stroke="#63b8ff" points="128.27,-256.53 135.77,-249.04 125.24,-250.22 128.27,-256.53"/>
</a>
</g>
</g>
<!-- Node2&#45;&gt;Node3 -->
<g id="edge2_Node000002_Node000003" class="edge">
<title>Node2&#45;&gt;Node3</title>
<g id="a_edge2_Node000002_Node000003"><a xlink:title=" ">
<path fill="none" stroke="#63b8ff" d="M448.89,-189.59C456.16,-185.64 464.25,-180.91 471.25,-176 494.41,-159.77 518.62,-138.14 534.67,-123.04"/>
<polygon fill="#63b8ff" stroke="#63b8ff" points="536.77,-125.87 541.6,-116.44 531.95,-120.81 536.77,-125.87"/>
</a>
</g>
</g>
<!-- Node5&#45;&gt;Node2 -->
<g id="edge6_Node000005_Node000002" class="edge">
<title>Node5&#45;&gt;Node2</title>
<g id="a_edge6_Node000005_Node000002"><a xlink:title=" ">
<path fill="none" stroke="#63b8ff" d="M329.21,-611.29C336.02,-608.51 342.52,-604.57 347.25,-599 402.87,-533.48 366.59,-493.32 383.25,-409 396.8,-340.43 413.73,-259.41 421.7,-221.54"/>
<polygon fill="#63b8ff" stroke="#63b8ff" points="425.09,-222.41 423.73,-211.91 418.25,-220.97 425.09,-222.41"/>
</a>
</g>
</g>
<!-- Node5&#45;&gt;Node4 -->
<g id="edge7_Node000005_Node000004" class="edge">
<title>Node5&#45;&gt;Node4</title>
<g id="a_edge7_Node000005_Node000004"><a xlink:title=" ">
<path fill="none" stroke="#63b8ff" d="M329.28,-618.41C365.18,-619.59 423.13,-623.64 471.25,-637 490.04,-642.22 509.92,-651.33 525.4,-659.32"/>
<polygon fill="#63b8ff" stroke="#63b8ff" points="523.53,-662.29 534.01,-663.9 526.82,-656.11 523.53,-662.29"/>
</a>
</g>
</g>
<!-- Node6 -->
<g id="Node000006" class="node">
<title>Node6</title>
<g id="a_Node000006"><a xlink:href="namespaceshared.html#a3736db9aa00bd9e0a56aeaf1057066c0" target="_top" xlink:title="Split the contents of an FD.">
<polygon fill="white" stroke="#666666" points="601.25,-495 507.25,-495 507.25,-475 601.25,-475 601.25,-495"/>
<text text-anchor="middle" x="554.25" y="-481.5" font-family="Helvetica,sans-Serif" font-size="10.00">shared::fd_splitter</text>
</a>
</g>
</g>
<!-- Node5&#45;&gt;Node6 -->
<g id="edge8_Node000005_Node000006" class="edge">
<title>Node5&#45;&gt;Node6</title>
<g id="a_edge8_Node000005_Node000006"><a xlink:title=" ">
<path fill="none" stroke="#63b8ff" d="M329.36,-608.12C335.56,-605.61 341.79,-602.59 347.25,-599 366.69,-586.22 364.27,-574.45 383.25,-561 422.58,-533.14 473.75,-511.95 509.64,-499.12"/>
<polygon fill="#63b8ff" stroke="#63b8ff" points="510.54,-502.51 518.82,-495.9 508.23,-495.9 510.54,-502.51"/>
</a>
</g>
</g>
<!-- Node5&#45;&gt;Node10 -->
<g id="edge12_Node000005_Node000010" class="edge">
<title>Node5&#45;&gt;Node10</title>
<g id="a_edge12_Node000005_Node000010"><a xlink:title=" ">
<path fill="none" stroke="#63b8ff" d="M309.76,-628.42C326.86,-640.46 356.35,-660.46 383.25,-675 385.61,-676.28 388.08,-677.54 390.58,-678.77"/>
<polygon fill="#63b8ff" stroke="#63b8ff" points="389,-681.9 399.55,-682.96 391.97,-675.56 389,-681.9"/>
</a>
</g>
</g>
<!-- Node5&#45;&gt;Node11 -->
<g id="edge13_Node000005_Node000011" class="edge">
<title>Node5&#45;&gt;Node11</title>
<g id="a_edge13_Node000005_Node000011"><a xlink:title=" ">
<path fill="none" stroke="#63b8ff" d="M329.33,-627.88C346.07,-632.74 366.41,-638.64 384.12,-643.78"/>
<polygon fill="#63b8ff" stroke="#63b8ff" points="383,-647.1 393.58,-646.52 384.95,-640.38 383,-647.1"/>
</a>
</g>
</g>
<!-- Node5&#45;&gt;Node12 -->
<g id="edge14_Node000005_Node000012" class="edge">
<title>Node5&#45;&gt;Node12</title>
<g id="a_edge14_Node000005_Node000012"><a xlink:title=" ">
<path fill="none" stroke="#63b8ff" d="M329.17,-610.9C335.9,-608.14 342.38,-604.31 347.25,-599 388.65,-553.88 350.94,-518.02 383.25,-466 388.13,-458.14 395.12,-450.99 402.05,-445.06"/>
<polygon fill="#63b8ff" stroke="#63b8ff" points="403.8,-448.15 409.45,-439.19 399.45,-442.66 403.8,-448.15"/>
</a>
</g>
</g>
<!-- Node13 -->
<g id="Node000013" class="node">
<title>Node13</title>
<g id="a_Node000013"><a xlink:href="namespaceshared.html#a219683cbcfb575bb29797638cadafb7b" target="_top" xlink:title="A Blocking Parser that splits the output into a set.">
<polygon fill="white" stroke="#666666" points="470.12,-495 384.38,-495 384.38,-475 470.12,-475 470.12,-495"/>
<text text-anchor="middle" x="427.25" y="-481.5" font-family="Helvetica,sans-Serif" font-size="10.00">shared::setorize</text>
</a>
</g>
</g>
<!-- Node5&#45;&gt;Node13 -->
<g id="edge15_Node000005_Node000013" class="edge">
<title>Node5&#45;&gt;Node13</title>
<g id="a_edge15_Node000005_Node000013"><a xlink:title=" ">
<path fill="none" stroke="#63b8ff" d="M329.37,-609.97C335.85,-607.28 342.18,-603.71 347.25,-599 375.8,-572.45 359.27,-549.75 383.25,-519 388.13,-512.75 394.38,-506.96 400.6,-502.01"/>
<polygon fill="#63b8ff" stroke="#63b8ff" points="402.38,-505.05 408.32,-496.28 398.2,-499.43 402.38,-505.05"/>
</a>
</g>
</g>
<!-- Node14 -->
<g id="Node000014" class="node">
<title>Node14</title>
<g id="a_Node000014"><a xlink:href="namespaceshared.html#a6955b6b671ef8b660a0d6ed018712923" target="_top" xlink:title="Resolve wildcard patterns.">
<polygon fill="white" stroke="#666666" points="470.88,-590 383.62,-590 383.62,-570 470.88,-570 470.88,-590"/>
<text text-anchor="middle" x="427.25" y="-576.5" font-family="Helvetica,sans-Serif" font-size="10.00">shared::wildcard</text>
</a>
</g>
</g>
<!-- Node5&#45;&gt;Node14 -->
<g id="edge17_Node000005_Node000014" class="edge">
<title>Node5&#45;&gt;Node14</title>
<g id="a_edge17_Node000005_Node000014"><a xlink:title=" ">
<path fill="none" stroke="#63b8ff" d="M329.33,-608.12C344.75,-603.64 363.22,-598.28 379.88,-593.45"/>
<polygon fill="#63b8ff" stroke="#63b8ff" points="380.43,-596.94 389.06,-590.79 378.48,-590.21 380.43,-596.94"/>
</a>
</g>
</g>
<!-- Node7 -->
<g id="Node000007" class="node">
<title>Node7</title>
<g id="a_Node000007"><a xlink:href="namespaceshared.html#a80f3b59804700742a5a0c6ea15bf24f9" target="_top" xlink:title="A Blocking Parser that returns the output in a single string.">
<polygon fill="white" stroke="#666666" points="715.12,-410 639.88,-410 639.88,-390 715.12,-390 715.12,-410"/>
<text text-anchor="middle" x="677.5" y="-396.5" font-family="Helvetica,sans-Serif" font-size="10.00">shared::dump</text>
</a>
</g>
</g>
<!-- Node6&#45;&gt;Node7 -->
<g id="edge9_Node000006_Node000007" class="edge">
<title>Node6&#45;&gt;Node7</title>
<g id="a_edge9_Node000006_Node000007"><a xlink:title=" ">
<path fill="none" stroke="#63b8ff" d="M570.12,-474.58C590.68,-460.16 628.04,-433.97 652.56,-416.78"/>
<polygon fill="#63b8ff" stroke="#63b8ff" points="654.47,-419.72 660.65,-411.11 650.45,-413.99 654.47,-419.72"/>
</a>
</g>
</g>
<!-- Node8 -->
<g id="Node000008" class="node">
<title>Node8</title>
<g id="a_Node000008"><a xlink:href="namespaceshared.html#a690cc836408825d804377522d9d99a07" target="_top" xlink:title="Split a string.">
<polygon fill="white" stroke="#666666" points="717.75,-495 637.25,-495 637.25,-475 717.75,-475 717.75,-495"/>
<text text-anchor="middle" x="677.5" y="-481.5" font-family="Helvetica,sans-Serif" font-size="10.00">shared::splitter</text>
</a>
</g>
</g>
<!-- Node6&#45;&gt;Node8 -->
<g id="edge10_Node000006_Node000008" class="edge">
<title>Node6&#45;&gt;Node8</title>
<g id="a_edge10_Node000006_Node000008"><a xlink:title=" ">
<path fill="none" stroke="#63b8ff" d="M601.44,-485C609.26,-485 617.42,-485 625.37,-485"/>
<polygon fill="#63b8ff" stroke="#63b8ff" points="625.26,-488.5 635.26,-485 625.26,-481.5 625.26,-488.5"/>
</a>
</g>
</g>
<!-- Node9 -->
<g id="Node000009" class="node">
<title>Node9</title>
<g id="a_Node000009"><a xlink:href="namespaceshared.html#a6282d0d8d2ab3f70038d7428729c15ca" target="_top" xlink:title="Escape a string.">
<polygon fill="white" stroke="#666666" points="836.5,-495 753.75,-495 753.75,-475 836.5,-475 836.5,-495"/>
<text text-anchor="middle" x="795.12" y="-481.5" font-family="Helvetica,sans-Serif" font-size="10.00">shared::escape</text>
</a>
</g>
</g>
<!-- Node8&#45;&gt;Node9 -->
<g id="edge11_Node000008_Node000009" class="edge">
<title>Node8&#45;&gt;Node9</title>
<g id="a_edge11_Node000008_Node000009"><a xlink:title=" ">
<path fill="none" stroke="#63b8ff" d="M717.97,-485C725.71,-485 733.93,-485 742.01,-485"/>
<polygon fill="#63b8ff" stroke="#63b8ff" points="741.75,-488.5 751.75,-485 741.75,-481.5 741.75,-488.5"/>
</a>
</g>
</g>
<!-- Node13&#45;&gt;Node6 -->
<g id="edge16_Node000013_Node000006" class="edge">
<title>Node13&#45;&gt;Node6</title>
<g id="a_edge16_Node000013_Node000006"><a xlink:title=" ">
<path fill="none" stroke="#63b8ff" d="M470.57,-485C478.65,-485 487.24,-485 495.71,-485"/>
<polygon fill="#63b8ff" stroke="#63b8ff" points="495.6,-488.5 505.6,-485 495.6,-481.5 495.6,-488.5"/>
</a>
</g>
</g>
<!-- Node14&#45;&gt;Node4 -->
<g id="edge18_Node000014_Node000004" class="edge">
<title>Node14&#45;&gt;Node4</title>
<g id="a_edge18_Node000014_Node000004"><a xlink:title=" ">
<path fill="none" stroke="#63b8ff" d="M448.89,-590.41C456.16,-594.36 464.25,-599.09 471.25,-604 494.41,-620.23 518.62,-641.86 534.67,-656.96"/>
<polygon fill="#63b8ff" stroke="#63b8ff" points="531.95,-659.19 541.6,-663.56 536.77,-654.13 531.95,-659.19"/>
</a>
</g>
</g>
<!-- Node14&#45;&gt;Node6 -->
<g id="edge19_Node000014_Node000006" class="edge">
<title>Node14&#45;&gt;Node6</title>
<g id="a_edge19_Node000014_Node000006"><a xlink:title=" ">
<path fill="none" stroke="#63b8ff" d="M441.63,-569.83C462.85,-553.7 504.48,-522.06 530.47,-502.31"/>
<polygon fill="#63b8ff" stroke="#63b8ff" points="532.54,-505.13 538.39,-496.3 528.31,-499.56 532.54,-505.13"/>
</a>
</g>
</g>
<!-- Node15&#45;&gt;Node15 -->
<g id="edge21_Node000015_Node000015" class="edge">
<title>Node15&#45;&gt;Node15</title>
<g id="a_edge21_Node000015_Node000015"><a xlink:title=" ">
<path fill="none" stroke="#63b8ff" d="M140.58,-324.34C132.39,-332.98 138.78,-342 159.75,-342 171.22,-342 178.32,-339.3 181.07,-335.44"/>
<polygon fill="#63b8ff" stroke="#63b8ff" points="184.54,-334.98 179.2,-325.82 177.67,-336.31 184.54,-334.98"/>
</a>
</g>
</g>
<!-- Node17&#45;&gt;Node4 -->
<g id="edge27_Node000017_Node000004" class="edge">
<title>Node17&#45;&gt;Node4</title>
<g id="a_edge27_Node000017_Node000004"><a xlink:title=" ">
<path fill="none" stroke="#63b8ff" d="M168.47,-533.48C178.03,-546.8 194.38,-570.74 205.25,-593 226.16,-635.82 204.22,-664.01 241.25,-694 320.96,-758.55 371.08,-735.08 471.25,-713 490.67,-708.72 510.96,-699.36 526.5,-691"/>
<polygon fill="#63b8ff" stroke="#63b8ff" points="528.09,-694.13 535.11,-686.19 524.67,-688.02 528.09,-694.13"/>
</a>
</g>
</g>
<!-- Node17&#45;&gt;Node5 -->
<g id="edge28_Node000017_Node000005" class="edge">
<title>Node17&#45;&gt;Node5</title>
<g id="a_edge28_Node000017_Node000005"><a xlink:title=" ">
<path fill="none" stroke="#63b8ff" d="M169.13,-533.24C182.74,-549.28 211.17,-580.41 241.25,-599 243.68,-600.5 246.25,-601.91 248.89,-603.23"/>
<polygon fill="#63b8ff" stroke="#63b8ff" points="247.36,-606.38 257.92,-607.25 250.21,-599.99 247.36,-606.38"/>
</a>
</g>
</g>
<!-- Node17&#45;&gt;Node7 -->
<g id="edge26_Node000017_Node000007" class="edge">
<title>Node17&#45;&gt;Node7</title>
<g id="a_edge26_Node000017_Node000007"><a xlink:title=" ">
<path fill="none" stroke="#63b8ff" d="M164.58,-512.58C173.69,-489.47 199.14,-434.22 241.25,-412 367.49,-345.4 544.3,-370.52 628.39,-388.29"/>
<polygon fill="#63b8ff" stroke="#63b8ff" points="627.39,-391.65 637.91,-390.36 628.88,-384.81 627.39,-391.65"/>
</a>
</g>
</g>
<!-- Node17&#45;&gt;Node10 -->
<g id="edge31_Node000017_Node000010" class="edge">
<title>Node17&#45;&gt;Node10</title>
<g id="a_edge31_Node000017_Node000010"><a xlink:title=" ">
<path fill="none" stroke="#63b8ff" d="M163.3,-533.25C170.49,-559.77 193.54,-630.91 241.25,-664 282.86,-692.86 342.26,-697.72 382.43,-697.09"/>
<polygon fill="#63b8ff" stroke="#63b8ff" points="382.32,-700.59 392.22,-696.81 382.12,-693.6 382.32,-700.59"/>
</a>
</g>
</g>
<!-- Node17&#45;&gt;Node11 -->
<g id="edge32_Node000017_Node000011" class="edge">
<title>Node17&#45;&gt;Node11</title>
<g id="a_edge32_Node000017_Node000011"><a xlink:title=" ">
<path fill="none" stroke="#63b8ff" d="M164.62,-533.47C173.82,-556.72 199.42,-612.54 241.25,-637 284.79,-662.46 344.08,-663.92 383.68,-661.2"/>
<polygon fill="#63b8ff" stroke="#63b8ff" points="383.86,-664.69 393.54,-660.38 383.29,-657.72 383.86,-664.69"/>
</a>
</g>
</g>
<!-- Node17&#45;&gt;Node12 -->
<g id="edge35_Node000017_Node000012" class="edge">
<title>Node17&#45;&gt;Node12</title>
<g id="a_edge35_Node000017_Node000012"><a xlink:title=" ">
<path fill="none" stroke="#63b8ff" d="M166.1,-512.6C177.04,-492.6 204.12,-449.21 241.25,-432 282.1,-413.06 333.68,-413.66 371.99,-418.08"/>
<polygon fill="#63b8ff" stroke="#63b8ff" points="371.06,-421.49 381.42,-419.3 371.95,-414.55 371.06,-421.49"/>
</a>
</g>
</g>
<!-- Node17&#45;&gt;Node13 -->
<g id="edge36_Node000017_Node000013" class="edge">
<title>Node17&#45;&gt;Node13</title>
<g id="a_edge36_Node000017_Node000013"><a xlink:title=" ">
<path fill="none" stroke="#63b8ff" d="M167.66,-512.59C180,-495.08 207.67,-460.35 241.25,-447 285.03,-429.6 301.32,-436.53 347.25,-447 366.06,-451.29 385.61,-460.65 400.55,-469"/>
<polygon fill="#63b8ff" stroke="#63b8ff" points="398.39,-471.79 408.79,-473.79 401.91,-465.74 398.39,-471.79"/>
</a>
</g>
</g>
<!-- Node17&#45;&gt;Node16 -->
<g id="edge30_Node000017_Node000016" class="edge">
<title>Node17&#45;&gt;Node16</title>
<g id="a_edge30_Node000017_Node000016"><a xlink:title=" ">
<path fill="none" stroke="#63b8ff" d="M161.68,-533.31C165.31,-567.82 181.42,-680.79 241.25,-746 244.43,-749.46 248.2,-752.46 252.25,-755.06"/>
<polygon fill="#63b8ff" stroke="#63b8ff" points="250.24,-757.95 260.69,-759.67 253.59,-751.8 250.24,-757.95"/>
</a>
</g>
</g>
<!-- Node17&#45;&gt;Node17 -->
<g id="edge34_Node000017_Node000017" class="edge">
<title>Node17&#45;&gt;Node17</title>
<g id="a_edge34_Node000017_Node000017"><a xlink:title=" ">
<path fill="none" stroke="#63b8ff" d="M140.58,-533.34C132.39,-541.98 138.78,-551 159.75,-551 171.22,-551 178.32,-548.3 181.07,-544.44"/>
<polygon fill="#63b8ff" stroke="#63b8ff" points="184.54,-543.98 179.2,-534.82 177.67,-545.31 184.54,-543.98"/>
</a>
</g>
</g>
<!-- Node18 -->
<g id="Node000018" class="node">
<title>Node18</title>
<g id="a_Node000018"><a xlink:href="namespaceshared.html#ad05481a6e28afc976d57ddcba12e8a4d" target="_top" xlink:title="A Blocking Parser that returns the first count of the output.">
<polygon fill="white" stroke="#666666" points="330.38,-590 258.12,-590 258.12,-570 330.38,-570 330.38,-590"/>
<text text-anchor="middle" x="294.25" y="-576.5" font-family="Helvetica,sans-Serif" font-size="10.00">shared::head</text>
</a>
</g>
</g>
<!-- Node17&#45;&gt;Node18 -->
<g id="edge29_Node000017_Node000018" class="edge">
<title>Node17&#45;&gt;Node18</title>
<g id="a_edge29_Node000017_Node000018"><a xlink:title=" ">
<path fill="none" stroke="#63b8ff" d="M181.37,-533.37C197.49,-541.32 220.57,-552.36 241.25,-561 244.86,-562.51 248.64,-564.02 252.44,-565.49"/>
<polygon fill="#63b8ff" stroke="#63b8ff" points="251.09,-568.72 261.68,-568.97 253.56,-562.17 251.09,-568.72"/>
</a>
</g>
</g>
<!-- Node19 -->
<g id="Node000019" class="node">
<title>Node19</title>
<g id="a_Node000019"><a xlink:href="namespaceshared.html#a4ddc24b4d99e824f9b941fa905fb0a81" target="_top" xlink:title="A Blocking Parser that returns the first line of output.">
<polygon fill="white" stroke="#666666" points="337.88,-552 250.62,-552 250.62,-532 337.88,-532 337.88,-552"/>
<text text-anchor="middle" x="294.25" y="-538.5" font-family="Helvetica,sans-Serif" font-size="10.00">shared::one_line</text>
</a>
</g>
</g>
<!-- Node17&#45;&gt;Node19 -->
<g id="edge33_Node000017_Node000019" class="edge">
<title>Node17&#45;&gt;Node19</title>
<g id="a_edge33_Node000017_Node000019"><a xlink:title=" ">
<path fill="none" stroke="#63b8ff" d="M199.79,-528.6C212.07,-530.36 225.86,-532.34 239,-534.22"/>
<polygon fill="#63b8ff" stroke="#63b8ff" points="238.43,-537.67 248.82,-535.63 239.42,-530.75 238.43,-537.67"/>
</a>
</g>
</g>
<!-- Node17&#45;&gt;Node20 -->
<g id="edge37_Node000017_Node000020" class="edge">
<title>Node17&#45;&gt;Node20</title>
<g id="a_edge37_Node000017_Node000020"><a xlink:title=" ">
<path fill="none" stroke="#63b8ff" d="M164,-512.88C173.45,-484.16 202.73,-400.25 241.25,-338 251.03,-322.2 264.59,-306.17 275.41,-294.37"/>
<polygon fill="#63b8ff" stroke="#63b8ff" points="277.71,-297.04 282,-287.35 272.6,-292.24 277.71,-297.04"/>
</a>
</g>
</g>
<!-- Node21 -->
<g id="Node000021" class="node">
<title>Node21</title>
<g id="a_Node000021"><a xlink:href="namespaceshared.html#ae0ec3e8d4de79340eda47eabfd075feb" target="_top" xlink:title="Strip all instance of character from a string.">
<polygon fill="white" stroke="#666666" points="329.25,-514 259.25,-514 259.25,-494 329.25,-494 329.25,-514"/>
<text text-anchor="middle" x="294.25" y="-500.5" font-family="Helvetica,sans-Serif" font-size="10.00">shared::strip</text>
</a>
</g>
</g>
<!-- Node17&#45;&gt;Node21 -->
<g id="edge38_Node000017_Node000021" class="edge">
<title>Node17&#45;&gt;Node21</title>
<g id="a_edge38_Node000017_Node000021"><a xlink:title=" ">
<path fill="none" stroke="#63b8ff" d="M199.79,-517.4C214.9,-515.24 232.3,-512.74 247.95,-510.5"/>
<polygon fill="#63b8ff" stroke="#63b8ff" points="248.09,-514.01 257.49,-509.13 247.09,-507.08 248.09,-514.01"/>
</a>
</g>
</g>
<!-- Node22 -->
<g id="Node000022" class="node">
<title>Node22</title>
<g id="a_Node000022"><a xlink:href="namespaceshared.html#a77e45bc6735a35fbc38891b166e40a7b" target="_top" xlink:title="Trim characters from the front and end of a string.">
<polygon fill="white" stroke="#666666" points="328.12,-476 260.38,-476 260.38,-456 328.12,-456 328.12,-476"/>
<text text-anchor="middle" x="294.25" y="-462.5" font-family="Helvetica,sans-Serif" font-size="10.00">shared::trim</text>
</a>
</g>
</g>
<!-- Node17&#45;&gt;Node22 -->
<g id="edge39_Node000017_Node000022" class="edge">
<title>Node17&#45;&gt;Node22</title>
<g id="a_edge39_Node000017_Node000022"><a xlink:title=" ">
<path fill="none" stroke="#63b8ff" d="M181.37,-512.63C197.49,-504.68 220.57,-493.64 241.25,-485 244.86,-483.49 248.64,-481.98 252.44,-480.51"/>
<polygon fill="#63b8ff" stroke="#63b8ff" points="253.56,-483.83 261.68,-477.03 251.09,-477.28 253.56,-483.83"/>
</a>
</g>
</g>
<!-- Node23&#45;&gt;Node3 -->
<g id="edge42_Node000023_Node000003" class="edge">
<title>Node23&#45;&gt;Node3</title>
<g id="a_edge42_Node000023_Node000003"><a xlink:title=" ">
<path fill="none" stroke="#63b8ff" d="M467.46,-91.96C478.64,-93.66 490.97,-95.53 502.72,-97.32"/>
<polygon fill="#63b8ff" stroke="#63b8ff" points="501.84,-100.73 512.26,-98.77 502.89,-93.81 501.84,-100.73"/>
</a>
</g>
</g>
<!-- Node24&#45;&gt;Node3 -->
<g id="edge44_Node000024_Node000003" class="edge">
<title>Node24&#45;&gt;Node3</title>
<g id="a_edge44_Node000024_Node000003"><a xlink:title=" ">
<path fill="none" stroke="#63b8ff" d="M197.85,-5.62C257.9,-0.1 378.94,4.53 471.25,-34 498.38,-45.32 522.91,-69.23 537.93,-86.17"/>
<polygon fill="#63b8ff" stroke="#63b8ff" points="535.11,-88.26 544.26,-93.59 540.43,-83.71 535.11,-88.26"/>
</a>
</g>
</g>
<!-- Node25&#45;&gt;Node3 -->
<g id="edge47_Node000025_Node000003" class="edge">
<title>Node25&#45;&gt;Node3</title>
<g id="a_edge47_Node000025_Node000003"><a xlink:title=" ">
<path fill="none" stroke="#63b8ff" d="M204.96,-158.42C265.41,-153.15 377.1,-142.03 471.25,-125 481.84,-123.08 493.11,-120.62 503.8,-118.08"/>
<polygon fill="#63b8ff" stroke="#63b8ff" points="504.31,-121.56 513.19,-115.79 502.65,-114.76 504.31,-121.56"/>
</a>
</g>
</g>
<!-- Node26&#45;&gt;Node3 -->
<g id="edge49_Node000026_Node000003" class="edge">
<title>Node26&#45;&gt;Node3</title>
<g id="a_edge49_Node000026_Node000003"><a xlink:title=" ">
<path fill="none" stroke="#63b8ff" d="M204.63,-121.88C277.89,-118.33 424.69,-111.22 502.36,-107.46"/>
<polygon fill="#63b8ff" stroke="#63b8ff" points="502.43,-110.96 512.25,-106.98 502.09,-103.97 502.43,-110.96"/>
</a>
</g>
</g>
<!-- Node27&#45;&gt;Node6 -->
<g id="edge51_Node000027_Node000006" class="edge">
<title>Node27&#45;&gt;Node6</title>
<g id="a_edge51_Node000027_Node000006"><a xlink:title=" ">
<path fill="none" stroke="#63b8ff" d="M205.45,-233.83C244.89,-232.11 302.83,-234.5 347.25,-257 443.08,-305.53 515.6,-418.77 542.2,-464.9"/>
<polygon fill="#63b8ff" stroke="#63b8ff" points="538.99,-466.34 546.95,-473.32 545.08,-462.89 538.99,-466.34"/>
</a>
</g>
</g>
</g>
</svg>
