<?xml version="1.0" encoding="UTF-8" standalone="no"?>
<!DOCTYPE svg PUBLIC "-//W3C//DTD SVG 1.1//EN"
 "http://www.w3.org/Graphics/SVG/1.1/DTD/svg11.dtd">
<!-- Generated by graphviz version 12.2.1 (0)
 -->
<!-- Title: shared::extend Pages: 1 -->
<!--zoomable 467 -->

<svg id="main" version="1.1" xmlns="http://www.w3.org/2000/svg" xmlns:xlink="http://www.w3.org/1999/xlink" xml:space="preserve" onload="init(evt)">

<style type="text/css"><![CDATA[
.node, .edge {opacity: 0.7;}
.node.selected, .edge.selected {opacity: 1;}
.edge:hover path { stroke: red; }
.edge:hover polygon { stroke: red; fill: red; }
]]></style>

<defs>
  <circle id="rim" cx="0" cy="0" r="7"/>
  <circle id="rim2" cx="0" cy="0" r="3.5"/>
  <g id="zoomPlus">
    <use xlink:href="#rim" fill="#404040"><set attributeName="fill" to="#808080" begin="zoomplus.mouseover" end="zoomplus.mouseout"/></use>
    <path d="M-4,0h8M0,-4v8" fill="none" stroke="white" stroke-width="1.5" pointer-events="none"/>
  </g>
  <g id="zoomMin">
    <use xlink:href="#rim" fill="#404040"><set attributeName="fill" to="#808080" begin="zoomminus.mouseover" end="zoomminus.mouseout"/></use>
    <path d="M-4,0h8" fill="none" stroke="white" stroke-width="1.5" pointer-events="none"/>
  </g>
  <g id="arrowUp" transform="translate(30 24)">
    <use xlink:href="#rim"/>
    <path pointer-events="none" fill="none" stroke="white" stroke-width="1.5" d="M0,-3.0v7 M-2.5,-0.5L0,-3.0L2.5,-0.5"/>
  </g>
  <g id="arrowRight" transform="rotate(90) translate(36 -43)">
    <use xlink:href="#rim"/>
    <path pointer-events="none" fill="none" stroke="white" stroke-width="1.5" d="M0,-3.0v7 M-2.5,-0.5L0,-3.0L2.5,-0.5"/>
  </g>
  <g id="arrowDown" transform="rotate(180) translate(-30 -48)">
    <use xlink:href="#rim"/>
    <path pointer-events="none" fill="none" stroke="white" stroke-width="1.5" d="M0,-3.0v7 M-2.5,-0.5L0,-3.0L2.5,-0.5"/>
  </g>
  <g id="arrowLeft" transform="rotate(270) translate(-36 17)">
    <use xlink:href="#rim"/>
    <path pointer-events="none" fill="none" stroke="white" stroke-width="1.5" d="M0,-3.0v7 M-2.5,-0.5L0,-3.0L2.5,-0.5"/>
  </g>
  <g id="resetDef">
    <use xlink:href="#rim2" fill="#404040"><set attributeName="fill" to="#808080" begin="reset.mouseover" end="reset.mouseout"/></use>
  </g>
</defs>
<script type="application/ecmascript">
var viewWidth = 580;
var viewHeight = 467;
var sectionId = 'dynsection-5';
</script>
<script type="application/ecmascript" xlink:href="svg.min.js"/>
<svg id="graph" class="graph">
<g id="viewport">
<title>shared::extend</title>
<!-- Node1 -->
<g id="Node000001" class="node">
<title>Node1</title>
<g id="a_Node000001"><a xlink:title="Extend a container in place.">
<polygon fill="#999999" stroke="#666666" points="572,-228 491.5,-228 491.5,-208 572,-208 572,-228"/>
<text text-anchor="middle" x="531.75" y="-214.5" font-family="Helvetica,sans-Serif" font-size="10.00">shared::extend</text>
</a>
</g>
</g>
<!-- Node2 -->
<g id="Node000002" class="node">
<title>Node2</title>
<g id="a_Node000002"><a xlink:href="namespaceshared.html#a172747218de79644b5c263f15a0da631" target="_top" xlink:title="Batch multiple iterations of an accumulator function together, threaded.">
<polygon fill="white" stroke="#666666" points="454.75,-266 379.5,-266 379.5,-246 454.75,-246 454.75,-266"/>
<text text-anchor="middle" x="417.12" y="-252.5" font-family="Helvetica,sans-Serif" font-size="10.00">shared::batch</text>
</a>
</g>
</g>
<!-- Node1&#45;&gt;Node2 -->
<g id="edge1_Node000001_Node000002" class="edge">
<title>Node1&#45;&gt;Node2</title>
<g id="a_edge1_Node000001_Node000002"><a xlink:title=" ">
<path fill="none" stroke="#63b8ff" d="M488.93,-232.11C475.73,-236.56 461.4,-241.4 449.1,-245.55"/>
<polygon fill="#63b8ff" stroke="#63b8ff" points="489.89,-235.48 498.24,-228.97 487.65,-228.85 489.89,-235.48"/>
</a>
</g>
</g>
<!-- Node3 -->
<g id="Node000003" class="node">
<title>Node3</title>
<g id="a_Node000003"><a xlink:href="namespacegenerate.html#a38dcdfdf9293b8aafe77392021d65019" target="_top" xlink:title="Generate the bulk of the main program command.">
<polygon fill="white" stroke="#666666" points="89.88,-341 11.62,-341 11.62,-321 89.88,-321 89.88,-341"/>
<text text-anchor="middle" x="50.75" y="-327.5" font-family="Helvetica,sans-Serif" font-size="10.00">generate::cmd</text>
</a>
</g>
</g>
<!-- Node1&#45;&gt;Node3 -->
<g id="edge10_Node000001_Node000003" class="edge">
<title>Node1&#45;&gt;Node3</title>
<g id="a_edge10_Node000001_Node000003"><a xlink:title=" ">
<path fill="none" stroke="#63b8ff" d="M524.09,-238.87C513.45,-269.77 490.2,-328.3 455.5,-368 415.56,-413.69 400.73,-427.09 342.75,-445 254.54,-472.25 218.24,-457.78 137.5,-413 103.63,-394.22 73.26,-358.8 59.52,-341.31"/>
<polygon fill="#63b8ff" stroke="#63b8ff" points="527.35,-240.16 527.18,-229.57 520.71,-237.95 527.35,-240.16"/>
</a>
</g>
</g>
<!-- Node6 -->
<g id="Node000006" class="node">
<title>Node6</title>
<g id="a_Node000006"><a xlink:href="namespacegenerate.html#a5c0026523dd30f942c55ad25f1b607b4" target="_top" xlink:title="Spawn an instance of the xdg&#45;dbus&#45;proxy for the application instance.">
<polygon fill="white" stroke="#666666" points="101.5,-196 0,-196 0,-164 101.5,-164 101.5,-196"/>
<text text-anchor="start" x="8" y="-182.5" font-family="Helvetica,sans-Serif" font-size="10.00">generate::xdg_dbus</text>
<text text-anchor="middle" x="50.75" y="-170.5" font-family="Helvetica,sans-Serif" font-size="10.00">_proxy</text>
</a>
</g>
</g>
<!-- Node1&#45;&gt;Node6 -->
<g id="edge24_Node000001_Node000006" class="edge">
<title>Node1&#45;&gt;Node6</title>
<g id="a_edge24_Node000001_Node000006"><a xlink:title=" ">
<path fill="none" stroke="#63b8ff" d="M496.7,-203.21C428.48,-175.48 270.21,-120.65 137.5,-146 119.41,-149.46 100.27,-156.67 84.67,-163.56"/>
<polygon fill="#63b8ff" stroke="#63b8ff" points="495.26,-206.41 505.84,-207 497.93,-199.94 495.26,-206.41"/>
</a>
</g>
</g>
<!-- Node7 -->
<g id="Node000007" class="node">
<title>Node7</title>
<g id="a_Node000007"><a xlink:href="namespacesyscalls.html#aabdab752b02a21ab92e3af4fabba493b" target="_top" xlink:title="Generate a syscall filter.">
<polygon fill="white" stroke="#666666" points="455.5,-58 378.75,-58 378.75,-38 455.5,-38 455.5,-58"/>
<text text-anchor="middle" x="417.12" y="-44.5" font-family="Helvetica,sans-Serif" font-size="10.00">syscalls::filter</text>
</a>
</g>
</g>
<!-- Node1&#45;&gt;Node7 -->
<g id="edge11_Node000001_Node000007" class="edge">
<title>Node1&#45;&gt;Node7</title>
<g id="a_edge11_Node000001_Node000007"><a xlink:title=" ">
<path fill="none" stroke="#63b8ff" d="M520.3,-197.49C506.73,-171.56 481.67,-125.94 455.5,-90 447.11,-78.48 436.14,-66.44 428.25,-58.22"/>
<polygon fill="#63b8ff" stroke="#63b8ff" points="517.14,-199 524.84,-206.28 523.36,-195.79 517.14,-199"/>
</a>
</g>
</g>
<!-- Node8 -->
<g id="Node000008" class="node">
<title>Node8</title>
<g id="a_Node000008"><a xlink:href="namespaceshared.html#a00b81f070735db096bbcd00c9d87188e" target="_top" xlink:title="Attach an environment variable to the sandbox.">
<polygon fill="white" stroke="#666666" points="453.25,-20 381,-20 381,0 453.25,0 453.25,-20"/>
<text text-anchor="middle" x="417.12" y="-6.5" font-family="Helvetica,sans-Serif" font-size="10.00">shared::genv</text>
</a>
</g>
</g>
<!-- Node1&#45;&gt;Node8 -->
<g id="edge13_Node000001_Node000008" class="edge">
<title>Node1&#45;&gt;Node8</title>
<g id="a_edge13_Node000001_Node000008"><a xlink:title=" ">
<path fill="none" stroke="#63b8ff" d="M527.3,-196.42C520.19,-158.31 500.63,-78.46 455.5,-29 452.46,-25.67 448.7,-22.83 444.74,-20.45"/>
<polygon fill="#63b8ff" stroke="#63b8ff" points="523.83,-196.89 528.99,-206.14 530.72,-195.69 523.83,-196.89"/>
</a>
</g>
</g>
<!-- Node9 -->
<g id="Node000009" class="node">
<title>Node9</title>
<g id="a_Node000009"><a xlink:href="namespacebinaries.html#a8c5deb9459b44c3bdf9bb6d78ee53322" target="_top" xlink:title="Setup the sandbox for the used binaries.">
<polygon fill="white" stroke="#666666" points="342.75,-436 263,-436 263,-416 342.75,-416 342.75,-436"/>
<text text-anchor="middle" x="302.88" y="-422.5" font-family="Helvetica,sans-Serif" font-size="10.00">binaries::setup</text>
</a>
</g>
</g>
<!-- Node1&#45;&gt;Node9 -->
<g id="edge14_Node000001_Node000009" class="edge">
<title>Node1&#45;&gt;Node9</title>
<g id="a_edge14_Node000001_Node000009"><a xlink:title=" ">
<path fill="none" stroke="#63b8ff" d="M519.09,-238.24C505.57,-260.71 481.74,-297.3 455.5,-324 411.88,-368.38 395.97,-374.76 342.75,-407 337.74,-410.04 332.17,-412.99 326.85,-415.62"/>
<polygon fill="#63b8ff" stroke="#63b8ff" points="522.03,-240.15 524.1,-229.76 516,-236.59 522.03,-240.15"/>
</a>
</g>
</g>
<!-- Node10 -->
<g id="Node000010" class="node">
<title>Node10</title>
<g id="a_Node000010"><a xlink:href="namespaceshared.html#acf7d9b7a4de8ca12d42e2132f2f4b4e7" target="_top" xlink:title="Share a path with the sandbox using a mode.">
<polygon fill="white" stroke="#666666" points="340.5,-398 265.25,-398 265.25,-378 340.5,-378 340.5,-398"/>
<text text-anchor="middle" x="302.88" y="-384.5" font-family="Helvetica,sans-Serif" font-size="10.00">shared::share</text>
</a>
</g>
</g>
<!-- Node1&#45;&gt;Node10 -->
<g id="edge16_Node000001_Node000010" class="edge">
<title>Node1&#45;&gt;Node10</title>
<g id="a_edge16_Node000001_Node000010"><a xlink:title=" ">
<path fill="none" stroke="#63b8ff" d="M509.68,-235.57C475.5,-263.8 405.44,-320.5 342.75,-364 335.97,-368.7 328.29,-373.55 321.55,-377.64"/>
<polygon fill="#63b8ff" stroke="#63b8ff" points="511.71,-238.44 517.17,-229.36 507.24,-233.05 511.71,-238.44"/>
</a>
</g>
</g>
<!-- Node11 -->
<g id="Node000011" class="node">
<title>Node11</title>
<g id="a_Node000011"><a xlink:href="namespacebinaries.html#a3dceb9be58009eef337fd18d7ee738d4" target="_top" xlink:title="Symlink to /usr/bin.">
<polygon fill="white" stroke="#666666" points="227,-228 137.5,-228 137.5,-208 227,-208 227,-228"/>
<text text-anchor="middle" x="182.25" y="-214.5" font-family="Helvetica,sans-Serif" font-size="10.00">binaries::symlink</text>
</a>
</g>
</g>
<!-- Node1&#45;&gt;Node11 -->
<g id="edge18_Node000001_Node000011" class="edge">
<title>Node1&#45;&gt;Node11</title>
<g id="a_edge18_Node000001_Node000011"><a xlink:title=" ">
<path fill="none" stroke="#63b8ff" d="M479.94,-218C411.8,-218 291.92,-218 227.37,-218"/>
<polygon fill="#63b8ff" stroke="#63b8ff" points="479.71,-221.5 489.71,-218 479.71,-214.5 479.71,-221.5"/>
</a>
</g>
</g>
<!-- Node12 -->
<g id="Node000012" class="node">
<title>Node12</title>
<g id="a_Node000012"><a xlink:href="namespacelibraries.html#aaf67d1825dab30fecb532ea92077ebe3" target="_top" xlink:title="Add symlink commands.">
<polygon fill="white" stroke="#666666" points="227,-190 137.5,-190 137.5,-170 227,-170 227,-190"/>
<text text-anchor="middle" x="182.25" y="-176.5" font-family="Helvetica,sans-Serif" font-size="10.00">libraries::symlink</text>
</a>
</g>
</g>
<!-- Node1&#45;&gt;Node12 -->
<g id="edge21_Node000001_Node000012" class="edge">
<title>Node1&#45;&gt;Node12</title>
<g id="a_edge21_Node000001_Node000012"><a xlink:title=" ">
<path fill="none" stroke="#63b8ff" d="M479.94,-212.44C411.8,-204.99 291.92,-191.88 227.37,-184.83"/>
<polygon fill="#63b8ff" stroke="#63b8ff" points="479.4,-215.91 489.72,-213.51 480.16,-208.95 479.4,-215.91"/>
</a>
</g>
</g>
<!-- Node2&#45;&gt;Node3 -->
<g id="edge2_Node000002_Node000003" class="edge">
<title>Node2&#45;&gt;Node3</title>
<g id="a_edge2_Node000002_Node000003"><a xlink:title=" ">
<path fill="none" stroke="#63b8ff" d="M380.57,-270.54C343.07,-285.19 281.91,-307.13 227,-318 180.46,-327.21 125.8,-330.03 90.05,-330.82"/>
<polygon fill="#63b8ff" stroke="#63b8ff" points="381.54,-273.92 389.55,-266.99 378.96,-267.41 381.54,-273.92"/>
</a>
</g>
</g>
<!-- Node4 -->
<g id="Node000004" class="node">
<title>Node4</title>
<g id="a_Node000004"><a xlink:href="namespacelibraries.html#a4dfd6ab45adf8dc18ea57bc1f88eaedf" target="_top" xlink:title="Recursively resolve all shared&#45;libraries needed by a library.">
<polygon fill="white" stroke="#666666" points="337.5,-266 268.25,-266 268.25,-246 337.5,-246 337.5,-266"/>
<text text-anchor="middle" x="302.88" y="-252.5" font-family="Helvetica,sans-Serif" font-size="10.00">libraries::get</text>
</a>
</g>
</g>
<!-- Node2&#45;&gt;Node4 -->
<g id="edge3_Node000002_Node000004" class="edge">
<title>Node2&#45;&gt;Node4</title>
<g id="a_edge3_Node000002_Node000004"><a xlink:title=" ">
<path fill="none" stroke="#63b8ff" d="M367.55,-256C357.55,-256 347.22,-256 337.87,-256"/>
<polygon fill="#63b8ff" stroke="#63b8ff" points="367.55,-259.5 377.55,-256 367.55,-252.5 367.55,-259.5"/>
</a>
</g>
</g>
<!-- Node4&#45;&gt;Node3 -->
<g id="edge4_Node000004_Node000003" class="edge">
<title>Node4&#45;&gt;Node3</title>
<g id="a_edge4_Node000004_Node000003"><a xlink:title=" ">
<path fill="none" stroke="#63b8ff" d="M274.12,-271.75C260.3,-279.06 243.14,-287.36 227,-293 181.15,-309.02 126.11,-319.63 90.09,-325.47"/>
<polygon fill="#63b8ff" stroke="#63b8ff" points="275.5,-274.98 282.63,-267.14 272.17,-268.83 275.5,-274.98"/>
</a>
</g>
</g>
<!-- Node5 -->
<g id="Node000005" class="node">
<title>Node5</title>
<g id="a_Node000005"><a xlink:href="namespacebinaries.html#ac1478c81b2eb2c4ecdba98e92c4e7651" target="_top" xlink:title="Parse a binary to determine dependencies.">
<polygon fill="white" stroke="#666666" points="222.12,-266 142.38,-266 142.38,-246 222.12,-246 222.12,-266"/>
<text text-anchor="middle" x="182.25" y="-252.5" font-family="Helvetica,sans-Serif" font-size="10.00">binaries::parse</text>
</a>
</g>
</g>
<!-- Node4&#45;&gt;Node5 -->
<g id="edge5_Node000004_Node000005" class="edge">
<title>Node4&#45;&gt;Node5</title>
<g id="a_edge5_Node000004_Node000005"><a xlink:title=" ">
<path fill="none" stroke="#63b8ff" d="M256.46,-256C245.19,-256 233.2,-256 222.27,-256"/>
<polygon fill="#63b8ff" stroke="#63b8ff" points="256.37,-259.5 266.37,-256 256.37,-252.5 256.37,-259.5"/>
</a>
</g>
</g>
<!-- Node4&#45;&gt;Node6 -->
<g id="edge9_Node000004_Node000006" class="edge">
<title>Node4&#45;&gt;Node6</title>
<g id="a_edge9_Node000004_Node000006"><a xlink:title=" ">
<path fill="none" stroke="#63b8ff" d="M292.6,-235.36C280.98,-212.36 258.68,-176.37 227,-161 184.6,-140.43 129.79,-151.48 92.85,-163.56"/>
<polygon fill="#63b8ff" stroke="#63b8ff" points="289.44,-236.87 296.91,-244.39 295.76,-233.85 289.44,-236.87"/>
</a>
</g>
</g>
<!-- Node5&#45;&gt;Node3 -->
<g id="edge6_Node000005_Node000003" class="edge">
<title>Node5&#45;&gt;Node3</title>
<g id="a_edge6_Node000005_Node000003"><a xlink:title=" ">
<path fill="none" stroke="#63b8ff" d="M153.47,-272.09C128.08,-286.8 91.28,-308.11 69.6,-320.66"/>
<polygon fill="#63b8ff" stroke="#63b8ff" points="155.03,-275.23 161.93,-267.19 151.53,-269.17 155.03,-275.23"/>
</a>
</g>
</g>
<!-- Node5&#45;&gt;Node5 -->
<g id="edge7_Node000005_Node000005" class="edge">
<title>Node5&#45;&gt;Node5</title>
<g id="a_edge7_Node000005_Node000005"><a xlink:title=" ">
<path fill="none" stroke="#63b8ff" d="M203.57,-277.44C200.82,-281.3 193.72,-284 182.25,-284 161.28,-284 154.89,-274.98 163.08,-266.34"/>
<polygon fill="#63b8ff" stroke="#63b8ff" points="207.04,-276.98 201.7,-267.82 200.17,-278.31 207.04,-276.98"/>
</a>
</g>
</g>
<!-- Node5&#45;&gt;Node6 -->
<g id="edge8_Node000005_Node000006" class="edge">
<title>Node5&#45;&gt;Node6</title>
<g id="a_edge8_Node000005_Node000006"><a xlink:title=" ">
<path fill="none" stroke="#63b8ff" d="M145.22,-240.97C142.58,-239.68 139.98,-238.35 137.5,-237 115.04,-224.79 90.92,-208.43 74,-196.37"/>
<polygon fill="#63b8ff" stroke="#63b8ff" points="143.52,-244.04 154.07,-245.06 146.46,-237.68 143.52,-244.04"/>
</a>
</g>
</g>
<!-- Node7&#45;&gt;Node7 -->
<g id="edge12_Node000007_Node000007" class="edge">
<title>Node7&#45;&gt;Node7</title>
<g id="a_edge12_Node000007_Node000007"><a xlink:title=" ">
<path fill="none" stroke="#63b8ff" d="M437.32,-69.44C434.72,-73.3 427.99,-76 417.12,-76 397.27,-76 391.21,-66.98 398.97,-58.34"/>
<polygon fill="#63b8ff" stroke="#63b8ff" points="440.8,-69.03 435.55,-59.83 433.92,-70.3 440.8,-69.03"/>
</a>
</g>
</g>
<!-- Node9&#45;&gt;Node3 -->
<g id="edge15_Node000009_Node000003" class="edge">
<title>Node9&#45;&gt;Node3</title>
<g id="a_edge15_Node000009_Node000003"><a xlink:title=" ">
<path fill="none" stroke="#63b8ff" d="M251.24,-418.17C218.01,-411.95 174.09,-401.66 137.5,-386 109.86,-374.17 81.12,-353.8 64.92,-341.44"/>
<polygon fill="#63b8ff" stroke="#63b8ff" points="250.56,-421.6 261.03,-419.93 251.8,-414.72 250.56,-421.6"/>
</a>
</g>
</g>
<!-- Node10&#45;&gt;Node3 -->
<g id="edge17_Node000010_Node000003" class="edge">
<title>Node10&#45;&gt;Node3</title>
<g id="a_edge17_Node000010_Node000003"><a xlink:title=" ">
<path fill="none" stroke="#63b8ff" d="M253.66,-383.81C220.6,-380.25 175.93,-374.07 137.5,-364 115.59,-358.26 91.6,-348.73 74.58,-341.39"/>
<polygon fill="#63b8ff" stroke="#63b8ff" points="253.03,-387.27 263.34,-384.81 253.75,-380.3 253.03,-387.27"/>
</a>
</g>
</g>
<!-- Node11&#45;&gt;Node3 -->
<g id="edge19_Node000011_Node000003" class="edge">
<title>Node11&#45;&gt;Node3</title>
<g id="a_edge19_Node000011_Node000003"><a xlink:title=" ">
<path fill="none" stroke="#63b8ff" d="M142.43,-233.77C140.73,-234.8 139.07,-235.87 137.5,-237 103.17,-261.53 72.34,-301.78 58.89,-320.64"/>
<polygon fill="#63b8ff" stroke="#63b8ff" points="144.01,-236.89 151.2,-229.1 140.72,-230.71 144.01,-236.89"/>
</a>
</g>
</g>
<!-- Node11&#45;&gt;Node6 -->
<g id="edge20_Node000011_Node000006" class="edge">
<title>Node11&#45;&gt;Node6</title>
<g id="a_edge20_Node000011_Node000006"><a xlink:title=" ">
<path fill="none" stroke="#63b8ff" d="M134.73,-204.35C124.08,-201.22 112.7,-197.89 101.9,-194.72"/>
<polygon fill="#63b8ff" stroke="#63b8ff" points="133.49,-207.63 144.07,-207.09 135.46,-200.92 133.49,-207.63"/>
</a>
</g>
</g>
<!-- Node12&#45;&gt;Node3 -->
<g id="edge22_Node000012_Node000003" class="edge">
<title>Node12&#45;&gt;Node3</title>
<g id="a_edge22_Node000012_Node000003"><a xlink:title=" ">
<path fill="none" stroke="#63b8ff" d="M140.95,-196.32C139.76,-197.17 138.6,-198.07 137.5,-199 95.36,-234.65 66.33,-296.23 55.96,-320.62"/>
<polygon fill="#63b8ff" stroke="#63b8ff" points="142.62,-199.4 149.41,-191.26 139.03,-193.39 142.62,-199.4"/>
</a>
</g>
</g>
<!-- Node12&#45;&gt;Node6 -->
<g id="edge23_Node000012_Node000006" class="edge">
<title>Node12&#45;&gt;Node6</title>
<g id="a_edge23_Node000012_Node000006"><a xlink:title=" ">
<path fill="none" stroke="#63b8ff" d="M125.69,-180C117.82,-180 109.76,-180 101.99,-180"/>
<polygon fill="#63b8ff" stroke="#63b8ff" points="125.53,-183.5 135.53,-180 125.53,-176.5 125.53,-183.5"/>
</a>
</g>
</g>
</g>
</svg>

<g id="navigator" transform="translate(0 0)" fill="#404254">
  <rect fill="#f2f5e9" fill-opacity="0.5" stroke="#606060" stroke-width=".5" x="0" y="0" width="60" height="60"/>
  <use id="zoomplus" xlink:href="#zoomPlus" x="17" y="9" onmousedown="handleZoom(evt,'in')"/>
  <use id="zoomminus" xlink:href="#zoomMin" x="42" y="9" onmousedown="handleZoom(evt,'out')"/>
  <use id="reset" xlink:href="#resetDef" x="30" y="36" onmousedown="handleReset()"/>
   <use id="arrowup" xlink:href="#arrowUp" x="0" y="0" onmousedown="handlePan(0,-1)"/>
  <use id="arrowright" xlink:href="#arrowRight" x="0" y="0" onmousedown="handlePan(1,0)"/>
  <use id="arrowdown" xlink:href="#arrowDown" x="0" y="0" onmousedown="handlePan(0,1)"/>
  <use id="arrowleft" xlink:href="#arrowLeft" x="0" y="0" onmousedown="handlePan(-1,0)"/>
</g>
<svg viewBox="0 0 15 15" width="100%" height="30px" preserveAspectRatio="xMaxYMin meet">
 <g id="arrow_out" transform="scale(0.3 0.3)">
  <a xlink:href="namespaceshared_ab11bf98c12a2bf0ae3adca902e57befd_icgraph_org.svg" target="_base">
   <rect id="button" ry="5" rx="5" y="6" x="6" height="38" width="38"
        fill="#f2f5e9" fill-opacity="0.5" stroke="#606060" stroke-width="1.0"/>
   <path id="arrow"
     d="M 11.500037,31.436501 C 11.940474,20.09759 22.043105,11.32322 32.158766,21.979434 L 37.068811,17.246167 C 37.068811,17.246167 37.088388,32 37.088388,32 L 22.160133,31.978069 C 22.160133,31.978069 26.997745,27.140456 26.997745,27.140456 C 18.528582,18.264221 13.291696,25.230495 11.500037,31.436501 z"
     style="fill:#404040;"/>
  </a>
 </g>
</svg>

<style type='text/css'>
<![CDATA[
[data-mouse-over-selected='false'] { opacity: 0.7; }
[data-mouse-over-selected='true']  { opacity: 1.0; }
]]>
</style>
<script type="application/ecmascript"><![CDATA[
document.addEventListener('DOMContentLoaded', (event) => {
  highlightEdges();
  highlightAdjacentNodes();
});
]]></script>
</svg>
