<?xml version="1.0" encoding="UTF-8" standalone="no"?>
<!DOCTYPE svg PUBLIC "-//W3C//DTD SVG 1.1//EN"
 "http://www.w3.org/Graphics/SVG/1.1/DTD/svg11.dtd">
<!-- Generated by graphviz version 12.2.1 (0)
 -->
<!-- Title: shared::exec Pages: 1 -->
<svg width="614pt" height="211pt"
 viewBox="0.00 0.00 613.75 211.35" xmlns="http://www.w3.org/2000/svg" xmlns:xlink="http://www.w3.org/1999/xlink">
<g id="graph0" class="graph" transform="scale(1 1) rotate(0) translate(4 207.35)">
<title>shared::exec</title>
<!-- Node1 -->
<g id="Node000001" class="node">
<title>Node1</title>
<g id="a_Node000001"><a xlink:title="Execute stuff.">
<polygon fill="#999999" stroke="#666666" points="605.75,-115 533.5,-115 533.5,-95 605.75,-95 605.75,-115"/>
<text text-anchor="middle" x="569.62" y="-101.5" font-family="Helvetica,sans-Serif" font-size="10.00">shared::exec</text>
</a>
</g>
</g>
<!-- Node2 -->
<g id="Node000002" class="node">
<title>Node2</title>
<g id="a_Node000002"><a xlink:href="namespacegenerate.html#a38dcdfdf9293b8aafe77392021d65019" target="_top" xlink:title="Generate the bulk of the main program command.">
<polygon fill="white" stroke="#666666" points="89.88,-172 11.62,-172 11.62,-152 89.88,-152 89.88,-172"/>
<text text-anchor="middle" x="50.75" y="-158.5" font-family="Helvetica,sans-Serif" font-size="10.00">generate::cmd</text>
</a>
</g>
</g>
<!-- Node1&#45;&gt;Node2 -->
<g id="edge1_Node000001_Node000002" class="edge">
<title>Node1&#45;&gt;Node2</title>
<g id="a_edge1_Node000001_Node000002"><a xlink:title=" ">
<path fill="none" stroke="#63b8ff" d="M546.63,-122.1C533.16,-131.74 515.16,-143.18 497.5,-150 379.55,-195.56 343.22,-188.07 217.25,-199 181.94,-202.06 172.21,-206.17 137.5,-199 112.89,-193.92 86.64,-181.42 69.77,-172.36"/>
<polygon fill="#63b8ff" stroke="#63b8ff" points="548.4,-125.15 554.36,-116.39 544.24,-119.52 548.4,-125.15"/>
</a>
</g>
</g>
<!-- Node3 -->
<g id="Node000003" class="node">
<title>Node3</title>
<g id="a_Node000003"><a xlink:href="namespacelibraries.html#a4dfd6ab45adf8dc18ea57bc1f88eaedf" target="_top" xlink:title="Recursively resolve all shared&#45;libraries needed by a library.">
<polygon fill="white" stroke="#666666" points="348.38,-134 279.12,-134 279.12,-114 348.38,-114 348.38,-134"/>
<text text-anchor="middle" x="313.75" y="-120.5" font-family="Helvetica,sans-Serif" font-size="10.00">libraries::get</text>
</a>
</g>
</g>
<!-- Node1&#45;&gt;Node3 -->
<g id="edge2_Node000001_Node000003" class="edge">
<title>Node1&#45;&gt;Node3</title>
<g id="a_edge2_Node000001_Node000003"><a xlink:title=" ">
<path fill="none" stroke="#63b8ff" d="M521.58,-108.52C471.47,-112.27 393.37,-118.12 348.86,-121.45"/>
<polygon fill="#63b8ff" stroke="#63b8ff" points="521.84,-112.01 531.55,-107.77 521.31,-105.03 521.84,-112.01"/>
</a>
</g>
</g>
<!-- Node4 -->
<g id="Node000004" class="node">
<title>Node4</title>
<g id="a_Node000004"><a xlink:href="namespacebinaries.html#ac1478c81b2eb2c4ecdba98e92c4e7651" target="_top" xlink:title="Parse a binary to determine dependencies.">
<polygon fill="white" stroke="#666666" points="217.25,-172 137.5,-172 137.5,-152 217.25,-152 217.25,-172"/>
<text text-anchor="middle" x="177.38" y="-158.5" font-family="Helvetica,sans-Serif" font-size="10.00">binaries::parse</text>
</a>
</g>
</g>
<!-- Node1&#45;&gt;Node4 -->
<g id="edge9_Node000001_Node000004" class="edge">
<title>Node1&#45;&gt;Node4</title>
<g id="a_edge9_Node000001_Node000004"><a xlink:title=" ">
<path fill="none" stroke="#63b8ff" d="M529.76,-119.05C519.39,-122.39 508.11,-125.66 497.5,-128 398.2,-149.89 278.3,-157.85 217.63,-160.61"/>
<polygon fill="#63b8ff" stroke="#63b8ff" points="530.77,-122.4 539.15,-115.92 528.56,-115.76 530.77,-122.4"/>
</a>
</g>
</g>
<!-- Node5 -->
<g id="Node000005" class="node">
<title>Node5</title>
<g id="a_Node000005"><a xlink:href="namespacegenerate.html#a5c0026523dd30f942c55ad25f1b607b4" target="_top" xlink:title="Spawn an instance of the xdg&#45;dbus&#45;proxy for the application instance.">
<polygon fill="white" stroke="#666666" points="101.5,-102 0,-102 0,-70 101.5,-70 101.5,-102"/>
<text text-anchor="start" x="8" y="-88.5" font-family="Helvetica,sans-Serif" font-size="10.00">generate::xdg_dbus</text>
<text text-anchor="middle" x="50.75" y="-76.5" font-family="Helvetica,sans-Serif" font-size="10.00">_proxy</text>
</a>
</g>
</g>
<!-- Node1&#45;&gt;Node5 -->
<g id="edge14_Node000001_Node000005" class="edge">
<title>Node1&#45;&gt;Node5</title>
<g id="a_edge14_Node000001_Node000005"><a xlink:title=" ">
<path fill="none" stroke="#63b8ff" d="M544.93,-88.53C531.64,-80.31 514.38,-71.23 497.5,-67 357.56,-31.96 185.3,-57.96 101.82,-74.73"/>
<polygon fill="#63b8ff" stroke="#63b8ff" points="542.68,-91.25 552.97,-93.74 546.48,-85.37 542.68,-91.25"/>
</a>
</g>
</g>
<!-- Node6 -->
<g id="Node000006" class="node">
<title>Node6</title>
<g id="a_Node000006"><a xlink:href="namespacegenerate.html#a67b94cdd53f264ff45e467ce97cd44d4" target="_top" xlink:title="Generate a script for the sandbox.">
<polygon fill="white" stroke="#666666" points="495.62,-20 412.12,-20 412.12,0 495.62,0 495.62,-20"/>
<text text-anchor="middle" x="453.88" y="-6.5" font-family="Helvetica,sans-Serif" font-size="10.00">generate::script</text>
</a>
</g>
</g>
<!-- Node1&#45;&gt;Node6 -->
<g id="edge10_Node000001_Node000006" class="edge">
<title>Node1&#45;&gt;Node6</title>
<g id="a_edge10_Node000001_Node000006"><a xlink:title=" ">
<path fill="none" stroke="#63b8ff" d="M552.61,-86.41C538.93,-71.2 518.23,-49.71 497.5,-34 490.87,-28.97 483.07,-24.28 475.96,-20.4"/>
<polygon fill="#63b8ff" stroke="#63b8ff" points="549.92,-88.64 559.16,-93.82 555.16,-84.01 549.92,-88.64"/>
</a>
</g>
</g>
<!-- Node8 -->
<g id="Node000008" class="node">
<title>Node8</title>
<g id="a_Node000008"><a xlink:href="namespaceshared.html#a6955b6b671ef8b660a0d6ed018712923" target="_top" xlink:title="Resolve wildcard patterns.">
<polygon fill="white" stroke="#666666" points="497.5,-96 410.25,-96 410.25,-76 497.5,-76 497.5,-96"/>
<text text-anchor="middle" x="453.88" y="-82.5" font-family="Helvetica,sans-Serif" font-size="10.00">shared::wildcard</text>
</a>
</g>
</g>
<!-- Node1&#45;&gt;Node8 -->
<g id="edge12_Node000001_Node000008" class="edge">
<title>Node1&#45;&gt;Node8</title>
<g id="a_edge12_Node000001_Node000008"><a xlink:title=" ">
<path fill="none" stroke="#63b8ff" d="M522.15,-97.24C514.1,-95.89 505.77,-94.5 497.82,-93.17"/>
<polygon fill="#63b8ff" stroke="#63b8ff" points="521.32,-100.65 531.76,-98.84 522.48,-93.74 521.32,-100.65"/>
</a>
</g>
</g>
<!-- Node3&#45;&gt;Node2 -->
<g id="edge3_Node000003_Node000002" class="edge">
<title>Node3&#45;&gt;Node2</title>
<g id="a_edge3_Node000003_Node000002"><a xlink:title=" ">
<path fill="none" stroke="#63b8ff" d="M267.25,-127.55C231.76,-130.65 181.32,-135.79 137.5,-143 121.85,-145.57 104.77,-149.19 89.99,-152.58"/>
<polygon fill="#63b8ff" stroke="#63b8ff" points="267.5,-131.04 277.17,-126.7 266.91,-124.07 267.5,-131.04"/>
</a>
</g>
</g>
<!-- Node3&#45;&gt;Node4 -->
<g id="edge4_Node000003_Node000004" class="edge">
<title>Node3&#45;&gt;Node4</title>
<g id="a_edge4_Node000003_Node000004"><a xlink:title=" ">
<path fill="none" stroke="#63b8ff" d="M267.94,-136.67C250.78,-141.53 231.42,-147 215.1,-151.61"/>
<polygon fill="#63b8ff" stroke="#63b8ff" points="268.71,-140.09 277.39,-134 266.81,-133.35 268.71,-140.09"/>
</a>
</g>
</g>
<!-- Node3&#45;&gt;Node5 -->
<g id="edge8_Node000003_Node000005" class="edge">
<title>Node3&#45;&gt;Node5</title>
<g id="a_edge8_Node000003_Node000005"><a xlink:title=" ">
<path fill="none" stroke="#63b8ff" d="M267.47,-117.41C221.3,-110.69 149.86,-100.28 101.99,-93.31"/>
<polygon fill="#63b8ff" stroke="#63b8ff" points="266.73,-120.84 277.13,-118.81 267.74,-113.91 266.73,-120.84"/>
</a>
</g>
</g>
<!-- Node4&#45;&gt;Node2 -->
<g id="edge5_Node000004_Node000002" class="edge">
<title>Node4&#45;&gt;Node2</title>
<g id="a_edge5_Node000004_Node000002"><a xlink:title=" ">
<path fill="none" stroke="#63b8ff" d="M126.09,-162C114.15,-162 101.59,-162 90.27,-162"/>
<polygon fill="#63b8ff" stroke="#63b8ff" points="125.77,-165.5 135.77,-162 125.77,-158.5 125.77,-165.5"/>
</a>
</g>
</g>
<!-- Node4&#45;&gt;Node4 -->
<g id="edge6_Node000004_Node000004" class="edge">
<title>Node4&#45;&gt;Node4</title>
<g id="a_edge6_Node000004_Node000004"><a xlink:title=" ">
<path fill="none" stroke="#63b8ff" d="M199.76,-183.44C196.87,-187.3 189.41,-190 177.38,-190 155.36,-190 148.66,-180.98 157.26,-172.34"/>
<polygon fill="#63b8ff" stroke="#63b8ff" points="203.22,-182.92 197.8,-173.82 196.36,-184.32 203.22,-182.92"/>
</a>
</g>
</g>
<!-- Node4&#45;&gt;Node5 -->
<g id="edge7_Node000004_Node000005" class="edge">
<title>Node4&#45;&gt;Node5</title>
<g id="a_edge7_Node000004_Node000005"><a xlink:title=" ">
<path fill="none" stroke="#63b8ff" d="M149.74,-145.76C128.77,-132.97 99.68,-115.23 78.64,-102.4"/>
<polygon fill="#63b8ff" stroke="#63b8ff" points="147.66,-148.59 158.02,-150.8 151.3,-142.61 147.66,-148.59"/>
</a>
</g>
</g>
<!-- Node7 -->
<g id="Node000007" class="node">
<title>Node7</title>
<g id="a_Node000007"><a xlink:href="namespacegenerate.html#aca905bc877bc18f8cb6a2cb1eaec6988" target="_top" xlink:title="Generate a desktop file for the sandbox.">
<polygon fill="white" stroke="#666666" points="374.25,-20 253.25,-20 253.25,0 374.25,0 374.25,-20"/>
<text text-anchor="middle" x="313.75" y="-6.5" font-family="Helvetica,sans-Serif" font-size="10.00">generate::desktop_entry</text>
</a>
</g>
</g>
<!-- Node6&#45;&gt;Node7 -->
<g id="edge11_Node000006_Node000007" class="edge">
<title>Node6&#45;&gt;Node7</title>
<g id="a_edge11_Node000006_Node000007"><a xlink:title=" ">
<path fill="none" stroke="#63b8ff" d="M400.52,-10C392.05,-10 383.21,-10 374.58,-10"/>
<polygon fill="#63b8ff" stroke="#63b8ff" points="400.29,-13.5 410.29,-10 400.29,-6.5 400.29,-13.5"/>
</a>
</g>
</g>
<!-- Node8&#45;&gt;Node3 -->
<g id="edge13_Node000008_Node000003" class="edge">
<title>Node8&#45;&gt;Node3</title>
<g id="a_edge13_Node000008_Node000003"><a xlink:title=" ">
<path fill="none" stroke="#63b8ff" d="M403.7,-99.53C385.41,-104.56 365.09,-110.15 348.5,-114.72"/>
<polygon fill="#63b8ff" stroke="#63b8ff" points="404.59,-102.91 413.31,-96.89 402.74,-96.16 404.59,-102.91"/>
</a>
</g>
</g>
</g>
</svg>
