<?xml version="1.0" encoding="UTF-8" standalone="no"?>
<!DOCTYPE svg PUBLIC "-//W3C//DTD SVG 1.1//EN"
 "http://www.w3.org/Graphics/SVG/1.1/DTD/svg11.dtd">
<!-- Generated by graphviz version 12.2.1 (0)
 -->
<!-- Title: syscalls::update_policy Pages: 1 -->
<svg width="618pt" height="236pt"
 viewBox="0.00 0.00 618.25 236.00" xmlns="http://www.w3.org/2000/svg" xmlns:xlink="http://www.w3.org/1999/xlink">
<g id="graph0" class="graph" transform="scale(1 1) rotate(0) translate(4 232)">
<title>syscalls::update_policy</title>
<!-- Node1 -->
<g id="Node000001" class="node">
<title>Node1</title>
<g id="a_Node000001"><a xlink:title="Append an existing policy with newly discovered syscalls.">
<polygon fill="#999999" stroke="#666666" points="118,-134 0,-134 0,-114 118,-114 118,-134"/>
<text text-anchor="middle" x="59" y="-120.5" font-family="Helvetica,sans-Serif" font-size="10.00">syscalls::update_policy</text>
</a>
</g>
</g>
<!-- Node2 -->
<g id="Node000002" class="node">
<title>Node2</title>
<g id="a_Node000002"><a xlink:href="namespaceshared.html#a4a708359d4c8dbeeaa8b744eec56c0e5" target="_top" xlink:title="Hash a string.">
<polygon fill="white" stroke="#666666" points="235.62,-210 163.38,-210 163.38,-190 235.62,-190 235.62,-210"/>
<text text-anchor="middle" x="199.5" y="-196.5" font-family="Helvetica,sans-Serif" font-size="10.00">shared::hash</text>
</a>
</g>
</g>
<!-- Node1&#45;&gt;Node2 -->
<g id="edge1_Node000001_Node000002" class="edge">
<title>Node1&#45;&gt;Node2</title>
<g id="a_edge1_Node000001_Node000002"><a xlink:title=" ">
<path fill="none" stroke="#63b8ff" d="M75.57,-134.38C93.91,-146.38 125.48,-166.36 154,-181 156.55,-182.31 159.21,-183.61 161.91,-184.87"/>
<polygon fill="#63b8ff" stroke="#63b8ff" points="160.39,-188.03 170.95,-188.94 163.26,-181.65 160.39,-188.03"/>
</a>
</g>
</g>
<!-- Node3 -->
<g id="Node000003" class="node">
<title>Node3</title>
<g id="a_Node000003"><a xlink:href="namespaceshared.html#a2f7cb04abbe01ba7193f2d2a6d520355" target="_top" xlink:title="Join a vector into a string.">
<polygon fill="white" stroke="#666666" points="232.62,-172 166.38,-172 166.38,-152 232.62,-152 232.62,-172"/>
<text text-anchor="middle" x="199.5" y="-158.5" font-family="Helvetica,sans-Serif" font-size="10.00">shared::join</text>
</a>
</g>
</g>
<!-- Node1&#45;&gt;Node3 -->
<g id="edge3_Node000001_Node000003" class="edge">
<title>Node1&#45;&gt;Node3</title>
<g id="a_edge3_Node000001_Node000003"><a xlink:title=" ">
<path fill="none" stroke="#63b8ff" d="M98.21,-134.48C115.85,-139.32 136.87,-145.09 155.11,-150.09"/>
<polygon fill="#63b8ff" stroke="#63b8ff" points="154.01,-153.42 164.58,-152.69 155.87,-146.67 154.01,-153.42"/>
</a>
</g>
</g>
<!-- Node4 -->
<g id="Node000004" class="node">
<title>Node4</title>
<g id="a_Node000004"><a xlink:href="namespaceshared.html#a99724c73af55fa92ae29fee700152917" target="_top" xlink:title="Log output to console, if verbose.">
<polygon fill="white" stroke="#666666" points="231.5,-134 167.5,-134 167.5,-114 231.5,-114 231.5,-134"/>
<text text-anchor="middle" x="199.5" y="-120.5" font-family="Helvetica,sans-Serif" font-size="10.00">shared::log</text>
</a>
</g>
</g>
<!-- Node1&#45;&gt;Node4 -->
<g id="edge4_Node000001_Node000004" class="edge">
<title>Node1&#45;&gt;Node4</title>
<g id="a_edge4_Node000001_Node000004"><a xlink:title=" ">
<path fill="none" stroke="#63b8ff" d="M118.34,-124C130.87,-124 143.89,-124 155.7,-124"/>
<polygon fill="#63b8ff" stroke="#63b8ff" points="155.53,-127.5 165.53,-124 155.53,-120.5 155.53,-127.5"/>
</a>
</g>
</g>
<!-- Node5 -->
<g id="Node000005" class="node">
<title>Node5</title>
<g id="a_Node000005"><a xlink:href="namespaceshared.html#afac154f1bef460ef6f24705f6c033f37" target="_top" xlink:title="Read a file.">
<polygon fill="white" stroke="#666666" points="243.5,-96 155.5,-96 155.5,-76 243.5,-76 243.5,-96"/>
<text text-anchor="middle" x="199.5" y="-82.5" font-family="Helvetica,sans-Serif" font-size="10.00">shared::read_file</text>
</a>
</g>
</g>
<!-- Node1&#45;&gt;Node5 -->
<g id="edge5_Node000001_Node000005" class="edge">
<title>Node1&#45;&gt;Node5</title>
<g id="a_edge5_Node000001_Node000005"><a xlink:title=" ">
<path fill="none" stroke="#63b8ff" d="M98.21,-113.52C114.11,-109.15 132.75,-104.04 149.63,-99.41"/>
<polygon fill="#63b8ff" stroke="#63b8ff" points="150.24,-102.87 158.95,-96.85 148.38,-96.12 150.24,-102.87"/>
</a>
</g>
</g>
<!-- Node6 -->
<g id="Node000006" class="node">
<title>Node6</title>
<g id="a_Node000006"><a xlink:href="namespaceshared.html#ae5d42a7f6819f149991304227a611c78" target="_top" xlink:title="A Blocking Parser that splits the output into a vector.">
<polygon fill="white" stroke="#666666" points="245,-58 154,-58 154,-38 245,-38 245,-58"/>
<text text-anchor="middle" x="199.5" y="-44.5" font-family="Helvetica,sans-Serif" font-size="10.00">shared::vectorize</text>
</a>
</g>
</g>
<!-- Node1&#45;&gt;Node6 -->
<g id="edge6_Node000001_Node000006" class="edge">
<title>Node1&#45;&gt;Node6</title>
<g id="a_edge6_Node000001_Node000006"><a xlink:title=" ">
<path fill="none" stroke="#63b8ff" d="M75.57,-113.62C93.91,-101.62 125.48,-81.64 154,-67 156.55,-65.69 159.21,-64.39 161.91,-63.13"/>
<polygon fill="#63b8ff" stroke="#63b8ff" points="163.26,-66.35 170.95,-59.06 160.39,-59.97 163.26,-66.35"/>
</a>
</g>
</g>
<!-- Node2&#45;&gt;Node2 -->
<g id="edge2_Node000002_Node000002" class="edge">
<title>Node2&#45;&gt;Node2</title>
<g id="a_edge2_Node000002_Node000002"><a xlink:title=" ">
<path fill="none" stroke="#63b8ff" d="M179.08,-210.34C170.36,-218.98 177.16,-228 199.5,-228 211.72,-228 219.29,-225.3 222.21,-221.44"/>
<polygon fill="#63b8ff" stroke="#63b8ff" points="225.67,-220.91 220.22,-211.82 218.82,-222.32 225.67,-220.91"/>
</a>
</g>
</g>
<!-- Node7 -->
<g id="Node000007" class="node">
<title>Node7</title>
<g id="a_Node000007"><a xlink:href="namespaceshared.html#a9ed709af90ab0108e5c3a8afdd3e7042" target="_top" xlink:title="Split the contents of an FD.">
<polygon fill="white" stroke="#666666" points="375,-58 281,-58 281,-38 375,-38 375,-58"/>
<text text-anchor="middle" x="328" y="-44.5" font-family="Helvetica,sans-Serif" font-size="10.00">shared::fd_splitter</text>
</a>
</g>
</g>
<!-- Node6&#45;&gt;Node7 -->
<g id="edge7_Node000006_Node000007" class="edge">
<title>Node6&#45;&gt;Node7</title>
<g id="a_edge7_Node000006_Node000007"><a xlink:title=" ">
<path fill="none" stroke="#63b8ff" d="M245.46,-48C253.27,-48 261.5,-48 269.6,-48"/>
<polygon fill="#63b8ff" stroke="#63b8ff" points="269.39,-51.5 279.39,-48 269.39,-44.5 269.39,-51.5"/>
</a>
</g>
</g>
<!-- Node8 -->
<g id="Node000008" class="node">
<title>Node8</title>
<g id="a_Node000008"><a xlink:href="namespaceshared.html#a80f3b59804700742a5a0c6ea15bf24f9" target="_top" xlink:title="A Blocking Parser that returns the output in a single string.">
<polygon fill="white" stroke="#666666" points="488.88,-96 413.62,-96 413.62,-76 488.88,-76 488.88,-96"/>
<text text-anchor="middle" x="451.25" y="-82.5" font-family="Helvetica,sans-Serif" font-size="10.00">shared::dump</text>
</a>
</g>
</g>
<!-- Node7&#45;&gt;Node8 -->
<g id="edge8_Node000007_Node000008" class="edge">
<title>Node7&#45;&gt;Node8</title>
<g id="a_edge8_Node000007_Node000008"><a xlink:title=" ">
<path fill="none" stroke="#63b8ff" d="M362.45,-58.48C375.97,-62.72 391.76,-67.67 406.19,-72.19"/>
<polygon fill="#63b8ff" stroke="#63b8ff" points="404.87,-75.45 415.46,-75.1 406.97,-68.77 404.87,-75.45"/>
</a>
</g>
</g>
<!-- Node9 -->
<g id="Node000009" class="node">
<title>Node9</title>
<g id="a_Node000009"><a xlink:href="namespaceshared.html#a6282d0d8d2ab3f70038d7428729c15ca" target="_top" xlink:title="Escape a string.">
<polygon fill="white" stroke="#666666" points="610.25,-39 527.5,-39 527.5,-19 610.25,-19 610.25,-39"/>
<text text-anchor="middle" x="568.88" y="-25.5" font-family="Helvetica,sans-Serif" font-size="10.00">shared::escape</text>
</a>
</g>
</g>
<!-- Node7&#45;&gt;Node9 -->
<g id="edge9_Node000007_Node000009" class="edge">
<title>Node7&#45;&gt;Node9</title>
<g id="a_edge9_Node000007_Node000009"><a xlink:title=" ">
<path fill="none" stroke="#63b8ff" d="M375.34,-44.31C415.65,-41.11 474,-36.47 515.88,-33.14"/>
<polygon fill="#63b8ff" stroke="#63b8ff" points="516.03,-36.63 525.72,-32.35 515.48,-29.66 516.03,-36.63"/>
</a>
</g>
</g>
<!-- Node10 -->
<g id="Node000010" class="node">
<title>Node10</title>
<g id="a_Node000010"><a xlink:href="namespaceshared.html#a690cc836408825d804377522d9d99a07" target="_top" xlink:title="Split a string.">
<polygon fill="white" stroke="#666666" points="491.5,-20 411,-20 411,0 491.5,0 491.5,-20"/>
<text text-anchor="middle" x="451.25" y="-6.5" font-family="Helvetica,sans-Serif" font-size="10.00">shared::splitter</text>
</a>
</g>
</g>
<!-- Node7&#45;&gt;Node10 -->
<g id="edge10_Node000007_Node000010" class="edge">
<title>Node7&#45;&gt;Node10</title>
<g id="a_edge10_Node000007_Node000010"><a xlink:title=" ">
<path fill="none" stroke="#63b8ff" d="M362.45,-37.52C375.97,-33.28 391.76,-28.33 406.19,-23.81"/>
<polygon fill="#63b8ff" stroke="#63b8ff" points="406.97,-27.23 415.46,-20.9 404.87,-20.55 406.97,-27.23"/>
</a>
</g>
</g>
<!-- Node10&#45;&gt;Node9 -->
<g id="edge11_Node000010_Node000009" class="edge">
<title>Node10&#45;&gt;Node9</title>
<g id="a_edge11_Node000010_Node000009"><a xlink:title=" ">
<path fill="none" stroke="#63b8ff" d="M491.72,-16.49C499.46,-17.76 507.68,-19.11 515.76,-20.44"/>
<polygon fill="#63b8ff" stroke="#63b8ff" points="515.08,-23.87 525.52,-22.04 516.22,-16.96 515.08,-23.87"/>
</a>
</g>
</g>
</g>
</svg>
