<?xml version="1.0" encoding="UTF-8" standalone="no"?>
<!DOCTYPE svg PUBLIC "-//W3C//DTD SVG 1.1//EN"
 "http://www.w3.org/Graphics/SVG/1.1/DTD/svg11.dtd">
<!-- Generated by graphviz version 12.2.1 (0)
 -->
<!-- Title: shared::single_batch Pages: 1 -->
<svg width="502pt" height="81pt"
 viewBox="0.00 0.00 501.75 81.00" xmlns="http://www.w3.org/2000/svg" xmlns:xlink="http://www.w3.org/1999/xlink">
<g id="graph0" class="graph" transform="scale(1 1) rotate(0) translate(4 77)">
<title>shared::single_batch</title>
<!-- Node1 -->
<g id="Node000001" class="node">
<title>Node1</title>
<g id="a_Node000001"><a xlink:title="Batch multiple iterations of an accumulator function together.">
<polygon fill="#999999" stroke="#666666" points="493.75,-54 387.75,-54 387.75,-34 493.75,-34 493.75,-54"/>
<text text-anchor="middle" x="440.75" y="-40.5" font-family="Helvetica,sans-Serif" font-size="10.00">shared::single_batch</text>
</a>
</g>
</g>
<!-- Node2 -->
<g id="Node000002" class="node">
<title>Node2</title>
<g id="a_Node000002"><a xlink:href="namespacegenerate.html#a38dcdfdf9293b8aafe77392021d65019" target="_top" xlink:title="Generate the bulk of the main program command.">
<polygon fill="white" stroke="#666666" points="225.88,-73 147.62,-73 147.62,-53 225.88,-53 225.88,-73"/>
<text text-anchor="middle" x="186.75" y="-59.5" font-family="Helvetica,sans-Serif" font-size="10.00">generate::cmd</text>
</a>
</g>
</g>
<!-- Node1&#45;&gt;Node2 -->
<g id="edge1_Node000001_Node000002" class="edge">
<title>Node1&#45;&gt;Node2</title>
<g id="a_edge1_Node000001_Node000002"><a xlink:title=" ">
<path fill="none" stroke="#63b8ff" d="M376.45,-50.79C368.15,-51.59 359.75,-52.35 351.75,-53 308.82,-56.5 259.48,-59.35 226.22,-61.1"/>
<polygon fill="#63b8ff" stroke="#63b8ff" points="376.55,-54.3 386.16,-49.83 375.86,-47.33 376.55,-54.3"/>
</a>
</g>
</g>
<!-- Node3 -->
<g id="Node000003" class="node">
<title>Node3</title>
<g id="a_Node000003"><a xlink:href="namespacebinaries.html#ac1478c81b2eb2c4ecdba98e92c4e7651" target="_top" xlink:title="Parse a binary to determine dependencies.">
<polygon fill="white" stroke="#666666" points="351.75,-26 272,-26 272,-6 351.75,-6 351.75,-26"/>
<text text-anchor="middle" x="311.88" y="-12.5" font-family="Helvetica,sans-Serif" font-size="10.00">binaries::parse</text>
</a>
</g>
</g>
<!-- Node1&#45;&gt;Node3 -->
<g id="edge2_Node000001_Node000003" class="edge">
<title>Node1&#45;&gt;Node3</title>
<g id="a_edge2_Node000001_Node000003"><a xlink:title=" ">
<path fill="none" stroke="#63b8ff" d="M381.35,-31.11C371.35,-28.91 361.19,-26.66 351.86,-24.6"/>
<polygon fill="#63b8ff" stroke="#63b8ff" points="380.51,-34.51 391.03,-33.25 382.02,-27.67 380.51,-34.51"/>
</a>
</g>
</g>
<!-- Node3&#45;&gt;Node2 -->
<g id="edge3_Node000003_Node000002" class="edge">
<title>Node3&#45;&gt;Node2</title>
<g id="a_edge3_Node000003_Node000002"><a xlink:title=" ">
<path fill="none" stroke="#63b8ff" d="M272.98,-30.47C254.24,-37.62 232.04,-46.09 215,-52.6"/>
<polygon fill="#63b8ff" stroke="#63b8ff" points="274.04,-33.81 282.14,-26.97 271.54,-27.27 274.04,-33.81"/>
</a>
</g>
</g>
<!-- Node3&#45;&gt;Node3 -->
<g id="edge4_Node000003_Node000003" class="edge">
<title>Node3&#45;&gt;Node3</title>
<g id="a_edge4_Node000003_Node000003"><a xlink:title=" ">
<path fill="none" stroke="#63b8ff" d="M333.99,-37.44C331.14,-41.3 323.77,-44 311.88,-44 290.12,-44 283.5,-34.98 291.99,-26.34"/>
<polygon fill="#63b8ff" stroke="#63b8ff" points="337.46,-36.94 332.05,-27.82 330.6,-38.32 337.46,-36.94"/>
</a>
</g>
</g>
<!-- Node4 -->
<g id="Node000004" class="node">
<title>Node4</title>
<g id="a_Node000004"><a xlink:href="namespacegenerate.html#a17cf0da8addab269d21c2c8074d85c4e" target="_top" xlink:title="Setup the Proxy&#39;s SOF.">
<polygon fill="white" stroke="#666666" points="236,-26 137.5,-26 137.5,-6 236,-6 236,-26"/>
<text text-anchor="middle" x="186.75" y="-12.5" font-family="Helvetica,sans-Serif" font-size="10.00">generate::proxy_lib</text>
</a>
</g>
</g>
<!-- Node3&#45;&gt;Node4 -->
<g id="edge5_Node000003_Node000004" class="edge">
<title>Node3&#45;&gt;Node4</title>
<g id="a_edge5_Node000003_Node000004"><a xlink:title=" ">
<path fill="none" stroke="#63b8ff" d="M260.19,-16C252.25,-16 244.06,-16 236.17,-16"/>
<polygon fill="#63b8ff" stroke="#63b8ff" points="260.07,-19.5 270.07,-16 260.07,-12.5 260.07,-19.5"/>
</a>
</g>
</g>
<!-- Node5 -->
<g id="Node000005" class="node">
<title>Node5</title>
<g id="a_Node000005"><a xlink:href="namespacegenerate.html#a5c0026523dd30f942c55ad25f1b607b4" target="_top" xlink:title="Spawn an instance of the xdg&#45;dbus&#45;proxy for the application instance.">
<polygon fill="white" stroke="#666666" points="101.5,-32 0,-32 0,0 101.5,0 101.5,-32"/>
<text text-anchor="start" x="8" y="-18.5" font-family="Helvetica,sans-Serif" font-size="10.00">generate::xdg_dbus</text>
<text text-anchor="middle" x="50.75" y="-6.5" font-family="Helvetica,sans-Serif" font-size="10.00">_proxy</text>
</a>
</g>
</g>
<!-- Node4&#45;&gt;Node5 -->
<g id="edge6_Node000004_Node000005" class="edge">
<title>Node4&#45;&gt;Node5</title>
<g id="a_edge6_Node000004_Node000005"><a xlink:title=" ">
<path fill="none" stroke="#63b8ff" d="M126.08,-16C117.99,-16 109.76,-16 101.86,-16"/>
<polygon fill="#63b8ff" stroke="#63b8ff" points="125.86,-19.5 135.86,-16 125.86,-12.5 125.86,-19.5"/>
</a>
</g>
</g>
</g>
</svg>
