<?xml version="1.0" encoding="UTF-8" standalone="no"?>
<!DOCTYPE svg PUBLIC "-//W3C//DTD SVG 1.1//EN"
 "http://www.w3.org/Graphics/SVG/1.1/DTD/svg11.dtd">
<!-- Generated by graphviz version 12.2.1 (0)
 -->
<!-- Title: shared::dump Pages: 1 -->
<svg width="751pt" height="346pt"
 viewBox="0.00 0.00 750.50 346.37" xmlns="http://www.w3.org/2000/svg" xmlns:xlink="http://www.w3.org/1999/xlink">
<g id="graph0" class="graph" transform="scale(1 1) rotate(0) translate(4 342.37)">
<title>shared::dump</title>
<!-- Node1 -->
<g id="Node000001" class="node">
<title>Node1</title>
<g id="a_Node000001"><a xlink:title="A Blocking Parser that returns the output in a single string.">
<polygon fill="#999999" stroke="#666666" points="742.5,-332 667.25,-332 667.25,-312 742.5,-312 742.5,-332"/>
<text text-anchor="middle" x="704.88" y="-318.5" font-family="Helvetica,sans-Serif" font-size="10.00">shared::dump</text>
</a>
</g>
</g>
<!-- Node2 -->
<g id="Node000002" class="node">
<title>Node2</title>
<g id="a_Node000002"><a xlink:href="namespaceshared.html#a3736db9aa00bd9e0a56aeaf1057066c0" target="_top" xlink:title="Split the contents of an FD.">
<polygon fill="white" stroke="#666666" points="631.25,-266 537.25,-266 537.25,-246 631.25,-246 631.25,-266"/>
<text text-anchor="middle" x="584.25" y="-252.5" font-family="Helvetica,sans-Serif" font-size="10.00">shared::fd_splitter</text>
</a>
</g>
</g>
<!-- Node1&#45;&gt;Node2 -->
<g id="edge1_Node000001_Node000002" class="edge">
<title>Node1&#45;&gt;Node2</title>
<g id="a_edge1_Node000001_Node000002"><a xlink:title=" ">
<path fill="none" stroke="#63b8ff" d="M675.23,-306.06C653.09,-293.75 623.1,-277.06 603.96,-266.41"/>
<polygon fill="#63b8ff" stroke="#63b8ff" points="673.32,-309 683.76,-310.81 676.72,-302.89 673.32,-309"/>
</a>
</g>
</g>
<!-- Node5 -->
<g id="Node000005" class="node">
<title>Node5</title>
<g id="a_Node000005"><a xlink:href="namespacebinaries.html#ac1478c81b2eb2c4ecdba98e92c4e7651" target="_top" xlink:title="Parse a binary to determine dependencies.">
<polygon fill="white" stroke="#666666" points="217.25,-304 137.5,-304 137.5,-284 217.25,-284 217.25,-304"/>
<text text-anchor="middle" x="177.38" y="-290.5" font-family="Helvetica,sans-Serif" font-size="10.00">binaries::parse</text>
</a>
</g>
</g>
<!-- Node1&#45;&gt;Node5 -->
<g id="edge22_Node000001_Node000005" class="edge">
<title>Node1&#45;&gt;Node5</title>
<g id="a_edge22_Node000001_Node000005"><a xlink:title=" ">
<path fill="none" stroke="#63b8ff" d="M655.66,-322.94C573.03,-324 399.13,-323.87 253.25,-308 241.55,-306.73 228.93,-304.65 217.46,-302.48"/>
<polygon fill="#63b8ff" stroke="#63b8ff" points="655.48,-326.44 665.43,-322.8 655.38,-319.44 655.48,-326.44"/>
</a>
</g>
</g>
<!-- Node3 -->
<g id="Node000003" class="node">
<title>Node3</title>
<g id="a_Node000003"><a xlink:href="namespacelibraries.html#a4dfd6ab45adf8dc18ea57bc1f88eaedf" target="_top" xlink:title="Recursively resolve all shared&#45;libraries needed by a library.">
<polygon fill="white" stroke="#666666" points="348.38,-266 279.12,-266 279.12,-246 348.38,-246 348.38,-266"/>
<text text-anchor="middle" x="313.75" y="-252.5" font-family="Helvetica,sans-Serif" font-size="10.00">libraries::get</text>
</a>
</g>
</g>
<!-- Node2&#45;&gt;Node3 -->
<g id="edge2_Node000002_Node000003" class="edge">
<title>Node2&#45;&gt;Node3</title>
<g id="a_edge2_Node000002_Node000003"><a xlink:title=" ">
<path fill="none" stroke="#63b8ff" d="M535.55,-243.02C524.38,-240.52 512.47,-238.28 501.25,-237 461.07,-232.41 450.5,-233.03 410.25,-237 389.56,-239.04 366.7,-243.5 348.54,-247.59"/>
<polygon fill="#63b8ff" stroke="#63b8ff" points="534.41,-246.35 544.94,-245.24 536.01,-239.54 534.41,-246.35"/>
</a>
</g>
</g>
<!-- Node7 -->
<g id="Node000007" class="node">
<title>Node7</title>
<g id="a_Node000007"><a xlink:href="namespaceshared.html#a219683cbcfb575bb29797638cadafb7b" target="_top" xlink:title="A Blocking Parser that splits the output into a set.">
<polygon fill="white" stroke="#666666" points="498.62,-304 412.88,-304 412.88,-284 498.62,-284 498.62,-304"/>
<text text-anchor="middle" x="455.75" y="-290.5" font-family="Helvetica,sans-Serif" font-size="10.00">shared::setorize</text>
</a>
</g>
</g>
<!-- Node2&#45;&gt;Node7 -->
<g id="edge9_Node000002_Node000007" class="edge">
<title>Node2&#45;&gt;Node7</title>
<g id="a_edge9_Node000002_Node000007"><a xlink:title=" ">
<path fill="none" stroke="#63b8ff" d="M537.61,-269.71C522.42,-274.27 505.77,-279.28 491.54,-283.55"/>
<polygon fill="#63b8ff" stroke="#63b8ff" points="538.33,-273.15 546.9,-266.92 536.31,-266.44 538.33,-273.15"/>
</a>
</g>
</g>
<!-- Node8 -->
<g id="Node000008" class="node">
<title>Node8</title>
<g id="a_Node000008"><a xlink:href="namespaceshared.html#ae5d42a7f6819f149991304227a611c78" target="_top" xlink:title="A Blocking Parser that splits the output into a vector.">
<polygon fill="white" stroke="#666666" points="501.25,-115 410.25,-115 410.25,-95 501.25,-95 501.25,-115"/>
<text text-anchor="middle" x="455.75" y="-101.5" font-family="Helvetica,sans-Serif" font-size="10.00">shared::vectorize</text>
</a>
</g>
</g>
<!-- Node2&#45;&gt;Node8 -->
<g id="edge13_Node000002_Node000008" class="edge">
<title>Node2&#45;&gt;Node8</title>
<g id="a_edge13_Node000002_Node000008"><a xlink:title=" ">
<path fill="none" stroke="#63b8ff" d="M567.42,-237.11C540.49,-204.96 486.6,-140.63 465.51,-115.45"/>
<polygon fill="#63b8ff" stroke="#63b8ff" points="564.48,-239.04 573.58,-244.46 569.84,-234.55 564.48,-239.04"/>
</a>
</g>
</g>
<!-- Node13 -->
<g id="Node000013" class="node">
<title>Node13</title>
<g id="a_Node000013"><a xlink:href="namespaceshared.html#a6955b6b671ef8b660a0d6ed018712923" target="_top" xlink:title="Resolve wildcard patterns.">
<polygon fill="white" stroke="#666666" points="499.38,-266 412.12,-266 412.12,-246 499.38,-246 499.38,-266"/>
<text text-anchor="middle" x="455.75" y="-252.5" font-family="Helvetica,sans-Serif" font-size="10.00">shared::wildcard</text>
</a>
</g>
</g>
<!-- Node2&#45;&gt;Node13 -->
<g id="edge20_Node000002_Node000013" class="edge">
<title>Node2&#45;&gt;Node13</title>
<g id="a_edge20_Node000002_Node000013"><a xlink:title=" ">
<path fill="none" stroke="#63b8ff" d="M525.59,-256C516.9,-256 508.08,-256 499.77,-256"/>
<polygon fill="#63b8ff" stroke="#63b8ff" points="525.35,-259.5 535.35,-256 525.35,-252.5 525.35,-259.5"/>
</a>
</g>
</g>
<!-- Node4 -->
<g id="Node000004" class="node">
<title>Node4</title>
<g id="a_Node000004"><a xlink:href="namespacegenerate.html#a38dcdfdf9293b8aafe77392021d65019" target="_top" xlink:title="Generate the bulk of the main program command.">
<polygon fill="white" stroke="#666666" points="89.88,-228 11.62,-228 11.62,-208 89.88,-208 89.88,-228"/>
<text text-anchor="middle" x="50.75" y="-214.5" font-family="Helvetica,sans-Serif" font-size="10.00">generate::cmd</text>
</a>
</g>
</g>
<!-- Node3&#45;&gt;Node4 -->
<g id="edge3_Node000003_Node000004" class="edge">
<title>Node3&#45;&gt;Node4</title>
<g id="a_edge3_Node000003_Node000004"><a xlink:title=" ">
<path fill="none" stroke="#63b8ff" d="M267.56,-249.36C251.66,-247.03 233.66,-244.39 217.25,-242 173.72,-235.65 123.75,-228.41 90.21,-223.56"/>
<polygon fill="#63b8ff" stroke="#63b8ff" points="266.82,-252.79 277.22,-250.78 267.84,-245.86 266.82,-252.79"/>
</a>
</g>
</g>
<!-- Node3&#45;&gt;Node5 -->
<g id="edge4_Node000003_Node000005" class="edge">
<title>Node3&#45;&gt;Node5</title>
<g id="a_edge4_Node000003_Node000005"><a xlink:title=" ">
<path fill="none" stroke="#63b8ff" d="M267.94,-268.67C250.78,-273.53 231.42,-279 215.1,-283.61"/>
<polygon fill="#63b8ff" stroke="#63b8ff" points="268.71,-272.09 277.39,-266 266.81,-265.35 268.71,-272.09"/>
</a>
</g>
</g>
<!-- Node6 -->
<g id="Node000006" class="node">
<title>Node6</title>
<g id="a_Node000006"><a xlink:href="namespacegenerate.html#a5c0026523dd30f942c55ad25f1b607b4" target="_top" xlink:title="Spawn an instance of the xdg&#45;dbus&#45;proxy for the application instance.">
<polygon fill="white" stroke="#666666" points="101.5,-310 0,-310 0,-278 101.5,-278 101.5,-310"/>
<text text-anchor="start" x="8" y="-296.5" font-family="Helvetica,sans-Serif" font-size="10.00">generate::xdg_dbus</text>
<text text-anchor="middle" x="50.75" y="-284.5" font-family="Helvetica,sans-Serif" font-size="10.00">_proxy</text>
</a>
</g>
</g>
<!-- Node3&#45;&gt;Node6 -->
<g id="edge8_Node000003_Node000006" class="edge">
<title>Node3&#45;&gt;Node6</title>
<g id="a_edge8_Node000003_Node000006"><a xlink:title=" ">
<path fill="none" stroke="#63b8ff" d="M267.25,-259.55C231.76,-262.65 181.32,-267.79 137.5,-275 125.91,-276.91 113.54,-279.38 101.9,-281.92"/>
<polygon fill="#63b8ff" stroke="#63b8ff" points="267.5,-263.04 277.17,-258.7 266.91,-256.07 267.5,-263.04"/>
</a>
</g>
</g>
<!-- Node5&#45;&gt;Node4 -->
<g id="edge5_Node000005_Node000004" class="edge">
<title>Node5&#45;&gt;Node4</title>
<g id="a_edge5_Node000005_Node000004"><a xlink:title=" ">
<path fill="none" stroke="#63b8ff" d="M149.53,-277.63C124.97,-262.65 89.4,-240.96 68.61,-228.28"/>
<polygon fill="#63b8ff" stroke="#63b8ff" points="147.66,-280.59 158.02,-282.8 151.3,-274.61 147.66,-280.59"/>
</a>
</g>
</g>
<!-- Node5&#45;&gt;Node5 -->
<g id="edge6_Node000005_Node000005" class="edge">
<title>Node5&#45;&gt;Node5</title>
<g id="a_edge6_Node000005_Node000005"><a xlink:title=" ">
<path fill="none" stroke="#63b8ff" d="M199.76,-315.44C196.87,-319.3 189.41,-322 177.38,-322 155.36,-322 148.66,-312.98 157.26,-304.34"/>
<polygon fill="#63b8ff" stroke="#63b8ff" points="203.22,-314.92 197.8,-305.82 196.36,-316.32 203.22,-314.92"/>
</a>
</g>
</g>
<!-- Node5&#45;&gt;Node6 -->
<g id="edge7_Node000005_Node000006" class="edge">
<title>Node5&#45;&gt;Node6</title>
<g id="a_edge7_Node000005_Node000006"><a xlink:title=" ">
<path fill="none" stroke="#63b8ff" d="M125.86,-294C117.89,-294 109.66,-294 101.7,-294"/>
<polygon fill="#63b8ff" stroke="#63b8ff" points="125.77,-297.5 135.77,-294 125.77,-290.5 125.77,-297.5"/>
</a>
</g>
</g>
<!-- Node7&#45;&gt;Node3 -->
<g id="edge10_Node000007_Node000003" class="edge">
<title>Node7&#45;&gt;Node3</title>
<g id="a_edge10_Node000007_Node000003"><a xlink:title=" ">
<path fill="none" stroke="#63b8ff" d="M405.08,-280.52C386.33,-275.43 365.45,-269.76 348.49,-265.16"/>
<polygon fill="#63b8ff" stroke="#63b8ff" points="404.1,-283.88 414.66,-283.12 405.93,-277.12 404.1,-283.88"/>
</a>
</g>
</g>
<!-- Node7&#45;&gt;Node5 -->
<g id="edge11_Node000007_Node000005" class="edge">
<title>Node7&#45;&gt;Node5</title>
<g id="a_edge11_Node000007_Node000005"><a xlink:title=" ">
<path fill="none" stroke="#63b8ff" d="M401.09,-294C347.23,-294 265.55,-294 217.52,-294"/>
<polygon fill="#63b8ff" stroke="#63b8ff" points="400.96,-297.5 410.96,-294 400.96,-290.5 400.96,-297.5"/>
</a>
</g>
</g>
<!-- Node7&#45;&gt;Node6 -->
<g id="edge12_Node000007_Node000006" class="edge">
<title>Node7&#45;&gt;Node6</title>
<g id="a_edge12_Node000007_Node000006"><a xlink:title=" ">
<path fill="none" stroke="#63b8ff" d="M411.67,-307.65C350.3,-325.16 234.38,-351.01 137.5,-331 117.97,-326.97 97.41,-318.27 81.32,-310.32"/>
<polygon fill="#63b8ff" stroke="#63b8ff" points="412.41,-311.09 421.03,-304.92 410.45,-304.37 412.41,-311.09"/>
</a>
</g>
</g>
<!-- Node8&#45;&gt;Node4 -->
<g id="edge14_Node000008_Node000004" class="edge">
<title>Node8&#45;&gt;Node4</title>
<g id="a_edge14_Node000008_Node000004"><a xlink:title=" ">
<path fill="none" stroke="#63b8ff" d="M434.78,-122.6C419.32,-135.27 396.8,-151.7 374.25,-161 277.15,-201.07 152.23,-212.99 90.22,-216.52"/>
<polygon fill="#63b8ff" stroke="#63b8ff" points="436.89,-125.4 442.28,-116.28 432.38,-120.05 436.89,-125.4"/>
</a>
</g>
</g>
<!-- Node9 -->
<g id="Node000009" class="node">
<title>Node9</title>
<g id="a_Node000009"><a xlink:href="namespacegenerate.html#aca905bc877bc18f8cb6a2cb1eaec6988" target="_top" xlink:title="Generate a desktop file for the sandbox.">
<polygon fill="white" stroke="#666666" points="374.25,-20 253.25,-20 253.25,0 374.25,0 374.25,-20"/>
<text text-anchor="middle" x="313.75" y="-6.5" font-family="Helvetica,sans-Serif" font-size="10.00">generate::desktop_entry</text>
</a>
</g>
</g>
<!-- Node8&#45;&gt;Node9 -->
<g id="edge15_Node000008_Node000009" class="edge">
<title>Node8&#45;&gt;Node9</title>
<g id="a_edge15_Node000008_Node000009"><a xlink:title=" ">
<path fill="none" stroke="#63b8ff" d="M439.1,-85.99C424.09,-68.88 399.95,-44.16 374.25,-29 368.55,-25.64 362.19,-22.8 355.81,-20.43"/>
<polygon fill="#63b8ff" stroke="#63b8ff" points="436.32,-88.13 445.47,-93.46 441.64,-83.58 436.32,-88.13"/>
</a>
</g>
</g>
<!-- Node10 -->
<g id="Node000010" class="node">
<title>Node10</title>
<g id="a_Node000010"><a xlink:href="namespacesyscalls.html#aabdab752b02a21ab92e3af4fabba493b" target="_top" xlink:title="Generate a syscall filter.">
<polygon fill="white" stroke="#666666" points="352.12,-134 275.38,-134 275.38,-114 352.12,-114 352.12,-134"/>
<text text-anchor="middle" x="313.75" y="-120.5" font-family="Helvetica,sans-Serif" font-size="10.00">syscalls::filter</text>
</a>
</g>
</g>
<!-- Node8&#45;&gt;Node10 -->
<g id="edge16_Node000008_Node000010" class="edge">
<title>Node8&#45;&gt;Node10</title>
<g id="a_edge16_Node000008_Node000010"><a xlink:title=" ">
<path fill="none" stroke="#63b8ff" d="M398.92,-112.58C383.31,-114.69 366.72,-116.95 352.43,-118.89"/>
<polygon fill="#63b8ff" stroke="#63b8ff" points="399.13,-116.08 408.57,-111.27 398.19,-109.14 399.13,-116.08"/>
</a>
</g>
</g>
<!-- Node11 -->
<g id="Node000011" class="node">
<title>Node11</title>
<g id="a_Node000011"><a xlink:href="namespacearg.html#a9da86862acc776f92533ebac921afc40" target="_top" xlink:title="Parse command line arguments.">
<polygon fill="white" stroke="#666666" points="355.5,-96 272,-96 272,-76 355.5,-76 355.5,-96"/>
<text text-anchor="middle" x="313.75" y="-82.5" font-family="Helvetica,sans-Serif" font-size="10.00">arg::parse_args</text>
</a>
</g>
</g>
<!-- Node8&#45;&gt;Node11 -->
<g id="edge18_Node000008_Node000011" class="edge">
<title>Node8&#45;&gt;Node11</title>
<g id="a_edge18_Node000008_Node000011"><a xlink:title=" ">
<path fill="none" stroke="#63b8ff" d="M398.75,-97.4C384.37,-95.45 369.15,-93.38 355.69,-91.56"/>
<polygon fill="#63b8ff" stroke="#63b8ff" points="398.19,-100.86 408.57,-98.73 399.13,-93.92 398.19,-100.86"/>
</a>
</g>
</g>
<!-- Node12 -->
<g id="Node000012" class="node">
<title>Node12</title>
<g id="a_Node000012"><a xlink:href="namespacesyscalls.html#a501461c3842033cfab85ba4b8f328ed8" target="_top" xlink:title="Append an existing policy with newly discovered syscalls.">
<polygon fill="white" stroke="#666666" points="372.75,-58 254.75,-58 254.75,-38 372.75,-38 372.75,-58"/>
<text text-anchor="middle" x="313.75" y="-44.5" font-family="Helvetica,sans-Serif" font-size="10.00">syscalls::update_policy</text>
</a>
</g>
</g>
<!-- Node8&#45;&gt;Node12 -->
<g id="edge19_Node000008_Node000012" class="edge">
<title>Node8&#45;&gt;Node12</title>
<g id="a_edge19_Node000008_Node000012"><a xlink:title=" ">
<path fill="none" stroke="#63b8ff" d="M424.39,-89.51C409.49,-82.2 391.14,-73.65 374.25,-67 366.58,-63.98 358.22,-61.08 350.26,-58.49"/>
<polygon fill="#63b8ff" stroke="#63b8ff" points="422.69,-92.57 433.21,-93.89 425.81,-86.3 422.69,-92.57"/>
</a>
</g>
</g>
<!-- Node10&#45;&gt;Node10 -->
<g id="edge17_Node000010_Node000010" class="edge">
<title>Node10&#45;&gt;Node10</title>
<g id="a_edge17_Node000010_Node000010"><a xlink:title=" ">
<path fill="none" stroke="#63b8ff" d="M337.85,-145.44C334.75,-149.3 326.71,-152 313.75,-152 290.04,-152 282.82,-142.98 292.08,-134.34"/>
<polygon fill="#63b8ff" stroke="#63b8ff" points="341.3,-144.84 335.74,-135.82 334.47,-146.33 341.3,-144.84"/>
</a>
</g>
</g>
<!-- Node13&#45;&gt;Node3 -->
<g id="edge21_Node000013_Node000003" class="edge">
<title>Node13&#45;&gt;Node3</title>
<g id="a_edge21_Node000013_Node000003"><a xlink:title=" ">
<path fill="none" stroke="#63b8ff" d="M400.76,-256C383.3,-256 364.43,-256 348.83,-256"/>
<polygon fill="#63b8ff" stroke="#63b8ff" points="400.47,-259.5 410.47,-256 400.47,-252.5 400.47,-259.5"/>
</a>
</g>
</g>
</g>
</svg>
