<?xml version="1.0" encoding="UTF-8" standalone="no"?>
<!DOCTYPE svg PUBLIC "-//W3C//DTD SVG 1.1//EN"
 "http://www.w3.org/Graphics/SVG/1.1/DTD/svg11.dtd">
<!-- Generated by graphviz version 12.2.1 (0)
 -->
<!-- Title: binaries::parse Pages: 1 -->
<svg width="470pt" height="246pt"
 viewBox="0.00 0.00 469.50 246.00" xmlns="http://www.w3.org/2000/svg" xmlns:xlink="http://www.w3.org/1999/xlink">

<svg id="main" version="1.1" xmlns="http://www.w3.org/2000/svg" xmlns:xlink="http://www.w3.org/1999/xlink" xml:space="preserve">

<style type="text/css"><![CDATA[
.node, .edge {opacity: 0.7;}
.node.selected, .edge.selected {opacity: 1;}
.edge:hover path { stroke: red; }
.edge:hover polygon { stroke: red; fill: red; }
]]></style>
<script type="application/ecmascript" xlink:href="svg.min.js"/>
<svg id="graph" class="graph">
<g id="graph0" class="graph" transform="scale(1 1) rotate(0) translate(4 242)">
<title>binaries::parse</title>
<!-- Node1 -->
<g id="Node000001" class="node">
<title>Node1</title>
<g id="a_Node000001"><a xlink:title="Parse a binary to determine dependencies.">
<polygon fill="#999999" stroke="#666666" points="79.75,-115 0,-115 0,-95 79.75,-95 79.75,-115"/>
<text text-anchor="middle" x="39.88" y="-101.5" font-family="Helvetica,sans-Serif" font-size="10.00">binaries::parse</text>
</a>
</g>
</g>
<!-- Node1&#45;&gt;Node1 -->
<g id="edge9_Node000001_Node000001" class="edge">
<title>Node1&#45;&gt;Node1</title>
<g id="a_edge9_Node000001_Node000001"><a xlink:title=" ">
<path fill="none" stroke="#63b8ff" d="M19.4,-115.34C10.65,-123.98 17.47,-133 39.88,-133 52.13,-133 59.72,-130.3 62.65,-126.44"/>
<polygon fill="#63b8ff" stroke="#63b8ff" points="66.12,-125.9 60.66,-116.82 59.26,-127.32 66.12,-125.9"/>
</a>
</g>
</g>
<!-- Node2 -->
<g id="Node000002" class="node">
<title>Node2</title>
<g id="a_Node000002"><a xlink:href="namespacelibraries.html#a4dfd6ab45adf8dc18ea57bc1f88eaedf" target="_top" xlink:title="Recursively resolve all shared&#45;libraries needed by a library.">
<polygon fill="white" stroke="#666666" points="203.38,-172 134.12,-172 134.12,-152 203.38,-152 203.38,-172"/>
<text text-anchor="middle" x="168.75" y="-158.5" font-family="Helvetica,sans-Serif" font-size="10.00">libraries::get</text>
</a>
</g>
</g>
<!-- Node1&#45;&gt;Node2 -->
<g id="edge1_Node000001_Node000002" class="edge">
<title>Node1&#45;&gt;Node2</title>
<g id="a_edge1_Node000001_Node000002"><a xlink:title=" ">
<path fill="none" stroke="#63b8ff" d="M64.15,-115.45C83.82,-124.29 112.25,-137.06 134.35,-146.99"/>
<polygon fill="#63b8ff" stroke="#63b8ff" points="132.69,-150.09 143.25,-150.99 135.56,-143.7 132.69,-150.09"/>
</a>
</g>
</g>
<!-- Node5 -->
<g id="Node000005" class="node">
<title>Node5</title>
<g id="a_Node000005"><a xlink:href="namespaceshared.html#a2f7cb04abbe01ba7193f2d2a6d520355" target="_top" xlink:title="Join a vector into a string.">
<polygon fill="white" stroke="#666666" points="334.5,-238 268.25,-238 268.25,-218 334.5,-218 334.5,-238"/>
<text text-anchor="middle" x="301.38" y="-224.5" font-family="Helvetica,sans-Serif" font-size="10.00">shared::join</text>
</a>
</g>
</g>
<!-- Node1&#45;&gt;Node5 -->
<g id="edge7_Node000001_Node000005" class="edge">
<title>Node1&#45;&gt;Node5</title>
<g id="a_edge7_Node000001_Node000005"><a xlink:title=" ">
<path fill="none" stroke="#63b8ff" d="M48.1,-115.36C60.16,-131.85 86.03,-163.94 115.75,-181 159.91,-206.35 217.72,-218.2 256.8,-223.63"/>
<polygon fill="#63b8ff" stroke="#63b8ff" points="256.17,-227.08 266.54,-224.89 257.07,-220.14 256.17,-227.08"/>
</a>
</g>
</g>
<!-- Node6 -->
<g id="Node000006" class="node">
<title>Node6</title>
<g id="a_Node000006"><a xlink:href="namespaceshared.html#a99724c73af55fa92ae29fee700152917" target="_top" xlink:title="Log output to console, if verbose.">
<polygon fill="white" stroke="#666666" points="333.38,-124 269.38,-124 269.38,-104 333.38,-104 333.38,-124"/>
<text text-anchor="middle" x="301.38" y="-110.5" font-family="Helvetica,sans-Serif" font-size="10.00">shared::log</text>
</a>
</g>
</g>
<!-- Node1&#45;&gt;Node6 -->
<g id="edge8_Node000001_Node000006" class="edge">
<title>Node1&#45;&gt;Node6</title>
<g id="a_edge8_Node000001_Node000006"><a xlink:title=" ">
<path fill="none" stroke="#63b8ff" d="M80.01,-106.36C127.85,-108.02 208.53,-110.81 257.86,-112.53"/>
<polygon fill="#63b8ff" stroke="#63b8ff" points="257.46,-116.01 267.58,-112.86 257.7,-109.02 257.46,-116.01"/>
</a>
</g>
</g>
<!-- Node8 -->
<g id="Node000008" class="node">
<title>Node8</title>
<g id="a_Node000008"><a xlink:href="namespaceshared.html#a8d237bf1ea1e2a6fb5c7d30bcb51f593" target="_top" xlink:title="Batch multiple iterations of an accumulator function together.">
<polygon fill="white" stroke="#666666" points="221.75,-96 115.75,-96 115.75,-76 221.75,-76 221.75,-96"/>
<text text-anchor="middle" x="168.75" y="-82.5" font-family="Helvetica,sans-Serif" font-size="10.00">shared::single_batch</text>
</a>
</g>
</g>
<!-- Node1&#45;&gt;Node8 -->
<g id="edge10_Node000001_Node000008" class="edge">
<title>Node1&#45;&gt;Node8</title>
<g id="a_edge10_Node000001_Node000008"><a xlink:title=" ">
<path fill="none" stroke="#63b8ff" d="M79.98,-99.14C87.69,-97.99 95.96,-96.75 104.24,-95.51"/>
<polygon fill="#63b8ff" stroke="#63b8ff" points="104.6,-99 113.97,-94.05 103.56,-92.07 104.6,-99"/>
</a>
</g>
</g>
<!-- Node9 -->
<g id="Node000009" class="node">
<title>Node9</title>
<g id="a_Node000009"><a xlink:href="namespaceshared.html#ae0ec3e8d4de79340eda47eabfd075feb" target="_top" xlink:title="Strip all instance of character from a string.">
<polygon fill="white" stroke="#666666" points="203.75,-58 133.75,-58 133.75,-38 203.75,-38 203.75,-58"/>
<text text-anchor="middle" x="168.75" y="-44.5" font-family="Helvetica,sans-Serif" font-size="10.00">shared::strip</text>
</a>
</g>
</g>
<!-- Node1&#45;&gt;Node9 -->
<g id="edge11_Node000001_Node000009" class="edge">
<title>Node1&#45;&gt;Node9</title>
<g id="a_edge11_Node000001_Node000009"><a xlink:title=" ">
<path fill="none" stroke="#63b8ff" d="M59.96,-94.51C74.92,-86.5 96.36,-75.43 115.75,-67 119.3,-65.46 123.01,-63.93 126.75,-62.46"/>
<polygon fill="#63b8ff" stroke="#63b8ff" points="127.75,-65.82 135.85,-58.99 125.26,-59.28 127.75,-65.82"/>
</a>
</g>
</g>
<!-- Node10 -->
<g id="Node000010" class="node">
<title>Node10</title>
<g id="a_Node000010"><a xlink:href="namespaceshared.html#a77e45bc6735a35fbc38891b166e40a7b" target="_top" xlink:title="Trim characters from the front and end of a string.">
<polygon fill="white" stroke="#666666" points="202.62,-20 134.88,-20 134.88,0 202.62,0 202.62,-20"/>
<text text-anchor="middle" x="168.75" y="-6.5" font-family="Helvetica,sans-Serif" font-size="10.00">shared::trim</text>
</a>
</g>
</g>
<!-- Node1&#45;&gt;Node10 -->
<g id="edge12_Node000001_Node000010" class="edge">
<title>Node1&#45;&gt;Node10</title>
<g id="a_edge12_Node000001_Node000010"><a xlink:title=" ">
<path fill="none" stroke="#63b8ff" d="M48.51,-94.72C60.95,-78.63 87.09,-47.44 115.75,-29 118.44,-27.27 121.31,-25.67 124.27,-24.19"/>
<polygon fill="#63b8ff" stroke="#63b8ff" points="125.42,-27.51 133.14,-20.26 122.58,-21.11 125.42,-27.51"/>
</a>
</g>
</g>
<!-- Node3 -->
<g id="Node000003" class="node">
<title>Node3</title>
<g id="a_Node000003"><a xlink:href="namespaceshared.html#a993cd576fb1a43b497dc350728bd8c80" target="_top" xlink:title="Batch multiple iterations of an accumulator function together, threaded.">
<polygon fill="white" stroke="#666666" points="339,-200 263.75,-200 263.75,-180 339,-180 339,-200"/>
<text text-anchor="middle" x="301.38" y="-186.5" font-family="Helvetica,sans-Serif" font-size="10.00">shared::batch</text>
</a>
</g>
</g>
<!-- Node2&#45;&gt;Node3 -->
<g id="edge2_Node000002_Node000003" class="edge">
<title>Node2&#45;&gt;Node3</title>
<g id="a_edge2_Node000002_Node000003"><a xlink:title=" ">
<path fill="none" stroke="#63b8ff" d="M203.73,-169.28C218.59,-172.47 236.29,-176.26 252.46,-179.73"/>
<polygon fill="#63b8ff" stroke="#63b8ff" points="251.36,-183.07 261.87,-181.75 252.83,-176.23 251.36,-183.07"/>
</a>
</g>
</g>
<!-- Node2&#45;&gt;Node5 -->
<g id="edge4_Node000002_Node000005" class="edge">
<title>Node2&#45;&gt;Node5</title>
<g id="a_edge4_Node000002_Node000005"><a xlink:title=" ">
<path fill="none" stroke="#63b8ff" d="M188.43,-172.48C206.11,-182.27 233.48,-197.13 257.75,-209 260.45,-210.32 263.27,-211.66 266.11,-212.98"/>
<polygon fill="#63b8ff" stroke="#63b8ff" points="264.41,-216.06 274.96,-217.02 267.31,-209.69 264.41,-216.06"/>
</a>
</g>
</g>
<!-- Node2&#45;&gt;Node6 -->
<g id="edge5_Node000002_Node000006" class="edge">
<title>Node2&#45;&gt;Node6</title>
<g id="a_edge5_Node000002_Node000006"><a xlink:title=" ">
<path fill="none" stroke="#63b8ff" d="M198.09,-151.58C216.67,-144.76 241.19,-135.75 261.56,-128.26"/>
<polygon fill="#63b8ff" stroke="#63b8ff" points="262.49,-131.65 270.67,-124.92 260.07,-125.08 262.49,-131.65"/>
</a>
</g>
</g>
<!-- Node7 -->
<g id="Node000007" class="node">
<title>Node7</title>
<g id="a_Node000007"><a xlink:href="namespaceshared.html#a6955b6b671ef8b660a0d6ed018712923" target="_top" xlink:title="Resolve wildcard patterns.">
<polygon fill="white" stroke="#666666" points="345,-162 257.75,-162 257.75,-142 345,-142 345,-162"/>
<text text-anchor="middle" x="301.38" y="-148.5" font-family="Helvetica,sans-Serif" font-size="10.00">shared::wildcard</text>
</a>
</g>
</g>
<!-- Node2&#45;&gt;Node7 -->
<g id="edge6_Node000002_Node000007" class="edge">
<title>Node2&#45;&gt;Node7</title>
<g id="a_edge6_Node000002_Node000007"><a xlink:title=" ">
<path fill="none" stroke="#63b8ff" d="M203.73,-159.4C216.73,-158.4 231.91,-157.24 246.33,-156.14"/>
<polygon fill="#63b8ff" stroke="#63b8ff" points="246.46,-159.64 256.16,-155.38 245.93,-152.66 246.46,-159.64"/>
</a>
</g>
</g>
<!-- Node4 -->
<g id="Node000004" class="node">
<title>Node4</title>
<g id="a_Node000004"><a xlink:href="namespaceshared.html#a1636cc0cb46e6be8f452dbc1e92a1e28" target="_top" xlink:title="Extend a container in place.">
<polygon fill="white" stroke="#666666" points="461.5,-200 381,-200 381,-180 461.5,-180 461.5,-200"/>
<text text-anchor="middle" x="421.25" y="-186.5" font-family="Helvetica,sans-Serif" font-size="10.00">shared::extend</text>
</a>
</g>
</g>
<!-- Node3&#45;&gt;Node4 -->
<g id="edge3_Node000003_Node000004" class="edge">
<title>Node3&#45;&gt;Node4</title>
<g id="a_edge3_Node000003_Node000004"><a xlink:title=" ">
<path fill="none" stroke="#63b8ff" d="M339.35,-190C348.86,-190 359.27,-190 369.36,-190"/>
<polygon fill="#63b8ff" stroke="#63b8ff" points="369.04,-193.5 379.04,-190 369.04,-186.5 369.04,-193.5"/>
</a>
</g>
</g>
</g>
</svg>
</svg>

<style type='text/css'>
<![CDATA[
[data-mouse-over-selected='false'] { opacity: 0.7; }
[data-mouse-over-selected='true']  { opacity: 1.0; }
]]>
</style>
<script type="application/ecmascript"><![CDATA[
document.addEventListener('DOMContentLoaded', (event) => {
  highlightEdges();
  highlightAdjacentNodes();
});
]]></script>
</svg>
