<?xml version="1.0" encoding="UTF-8" standalone="no"?>
<!DOCTYPE svg PUBLIC "-//W3C//DTD SVG 1.1//EN"
 "http://www.w3.org/Graphics/SVG/1.1/DTD/svg11.dtd">
<!-- Generated by graphviz version 12.2.1 (0)
 -->
<!-- Title: shared::join Pages: 1 -->
<svg width="523pt" height="214pt"
 viewBox="0.00 0.00 522.75 213.53" xmlns="http://www.w3.org/2000/svg" xmlns:xlink="http://www.w3.org/1999/xlink">
<g id="graph0" class="graph" transform="scale(1 1) rotate(0) translate(4 209.53)">
<title>shared::join</title>
<!-- Node1 -->
<g id="Node000001" class="node">
<title>Node1</title>
<g id="a_Node000001"><a xlink:title="Join a vector into a string.">
<polygon fill="#999999" stroke="#666666" points="514.75,-115 448.5,-115 448.5,-95 514.75,-95 514.75,-115"/>
<text text-anchor="middle" x="481.62" y="-101.5" font-family="Helvetica,sans-Serif" font-size="10.00">shared::join</text>
</a>
</g>
</g>
<!-- Node2 -->
<g id="Node000002" class="node">
<title>Node2</title>
<g id="a_Node000002"><a xlink:href="namespacegenerate.html#a38dcdfdf9293b8aafe77392021d65019" target="_top" xlink:title="Generate the bulk of the main program command.">
<polygon fill="white" stroke="#666666" points="89.88,-172 11.62,-172 11.62,-152 89.88,-152 89.88,-172"/>
<text text-anchor="middle" x="50.75" y="-158.5" font-family="Helvetica,sans-Serif" font-size="10.00">generate::cmd</text>
</a>
</g>
</g>
<!-- Node1&#45;&gt;Node2 -->
<g id="edge1_Node000001_Node000002" class="edge">
<title>Node1&#45;&gt;Node2</title>
<g id="a_edge1_Node000001_Node000002"><a xlink:title=" ">
<path fill="none" stroke="#63b8ff" d="M464.72,-123.75C451.98,-137.53 432.93,-155.61 412.5,-166 350.11,-197.74 328.11,-191.63 258.5,-199 205.02,-204.67 190.17,-209.88 137.5,-199 112.89,-193.92 86.64,-181.42 69.77,-172.36"/>
<polygon fill="#63b8ff" stroke="#63b8ff" points="467.08,-126.36 471.11,-116.57 461.85,-121.71 467.08,-126.36"/>
</a>
</g>
</g>
<!-- Node3 -->
<g id="Node000003" class="node">
<title>Node3</title>
<g id="a_Node000003"><a xlink:href="namespacegenerate.html#aca905bc877bc18f8cb6a2cb1eaec6988" target="_top" xlink:title="Generate a desktop file for the sandbox.">
<polygon fill="white" stroke="#666666" points="258.5,-58 137.5,-58 137.5,-38 258.5,-38 258.5,-58"/>
<text text-anchor="middle" x="198" y="-44.5" font-family="Helvetica,sans-Serif" font-size="10.00">generate::desktop_entry</text>
</a>
</g>
</g>
<!-- Node1&#45;&gt;Node3 -->
<g id="edge2_Node000001_Node000003" class="edge">
<title>Node1&#45;&gt;Node3</title>
<g id="a_edge2_Node000001_Node000003"><a xlink:title=" ">
<path fill="none" stroke="#63b8ff" d="M436.92,-96.15C386.67,-85.98 304.28,-69.31 250.84,-58.49"/>
<polygon fill="#63b8ff" stroke="#63b8ff" points="436.06,-99.55 446.56,-98.11 437.45,-92.69 436.06,-99.55"/>
</a>
</g>
</g>
<!-- Node4 -->
<g id="Node000004" class="node">
<title>Node4</title>
<g id="a_Node000004"><a xlink:href="namespacelibraries.html#a4dfd6ab45adf8dc18ea57bc1f88eaedf" target="_top" xlink:title="Recursively resolve all shared&#45;libraries needed by a library.">
<polygon fill="white" stroke="#666666" points="388.12,-134 318.88,-134 318.88,-114 388.12,-114 388.12,-134"/>
<text text-anchor="middle" x="353.5" y="-120.5" font-family="Helvetica,sans-Serif" font-size="10.00">libraries::get</text>
</a>
</g>
</g>
<!-- Node1&#45;&gt;Node4 -->
<g id="edge3_Node000001_Node000004" class="edge">
<title>Node1&#45;&gt;Node4</title>
<g id="a_edge3_Node000001_Node000004"><a xlink:title=" ">
<path fill="none" stroke="#63b8ff" d="M436.91,-111.59C420.95,-113.99 403.15,-116.67 388.19,-118.92"/>
<polygon fill="#63b8ff" stroke="#63b8ff" points="437.28,-115.07 446.65,-110.12 436.24,-108.15 437.28,-115.07"/>
</a>
</g>
</g>
<!-- Node5 -->
<g id="Node000005" class="node">
<title>Node5</title>
<g id="a_Node000005"><a xlink:href="namespacebinaries.html#ac1478c81b2eb2c4ecdba98e92c4e7651" target="_top" xlink:title="Parse a binary to determine dependencies.">
<polygon fill="white" stroke="#666666" points="237.88,-172 158.12,-172 158.12,-152 237.88,-152 237.88,-172"/>
<text text-anchor="middle" x="198" y="-158.5" font-family="Helvetica,sans-Serif" font-size="10.00">binaries::parse</text>
</a>
</g>
</g>
<!-- Node1&#45;&gt;Node5 -->
<g id="edge10_Node000001_Node000005" class="edge">
<title>Node1&#45;&gt;Node5</title>
<g id="a_edge10_Node000001_Node000005"><a xlink:title=" ">
<path fill="none" stroke="#63b8ff" d="M457,-121.43C444.37,-129.35 428.23,-138.16 412.5,-143 353.64,-161.13 281.65,-163.76 238.11,-163.35"/>
<polygon fill="#63b8ff" stroke="#63b8ff" points="458.56,-124.59 465.02,-116.19 454.74,-118.73 458.56,-124.59"/>
</a>
</g>
</g>
<!-- Node7 -->
<g id="Node000007" class="node">
<title>Node7</title>
<g id="a_Node000007"><a xlink:href="namespacegenerate.html#a67b94cdd53f264ff45e467ce97cd44d4" target="_top" xlink:title="Generate a script for the sandbox.">
<polygon fill="white" stroke="#666666" points="395.25,-58 311.75,-58 311.75,-38 395.25,-38 395.25,-58"/>
<text text-anchor="middle" x="353.5" y="-44.5" font-family="Helvetica,sans-Serif" font-size="10.00">generate::script</text>
</a>
</g>
</g>
<!-- Node1&#45;&gt;Node7 -->
<g id="edge11_Node000001_Node000007" class="edge">
<title>Node1&#45;&gt;Node7</title>
<g id="a_edge11_Node000001_Node000007"><a xlink:title=" ">
<path fill="none" stroke="#63b8ff" d="M449.81,-89.6C438.18,-83.91 424.8,-77.52 412.5,-72 402.16,-67.36 390.65,-62.53 380.62,-58.43"/>
<polygon fill="#63b8ff" stroke="#63b8ff" points="448.03,-92.62 458.55,-93.9 451.12,-86.34 448.03,-92.62"/>
</a>
</g>
</g>
<!-- Node8 -->
<g id="Node000008" class="node">
<title>Node8</title>
<g id="a_Node000008"><a xlink:href="namespacesyscalls.html#a501461c3842033cfab85ba4b8f328ed8" target="_top" xlink:title="Append an existing policy with newly discovered syscalls.">
<polygon fill="white" stroke="#666666" points="412.5,-20 294.5,-20 294.5,0 412.5,0 412.5,-20"/>
<text text-anchor="middle" x="353.5" y="-6.5" font-family="Helvetica,sans-Serif" font-size="10.00">syscalls::update_policy</text>
</a>
</g>
</g>
<!-- Node1&#45;&gt;Node8 -->
<g id="edge13_Node000001_Node000008" class="edge">
<title>Node1&#45;&gt;Node8</title>
<g id="a_edge13_Node000001_Node000008"><a xlink:title=" ">
<path fill="none" stroke="#63b8ff" d="M467.64,-85.46C455.31,-68.33 435.32,-43.9 412.5,-29 407.35,-25.64 401.56,-22.83 395.68,-20.49"/>
<polygon fill="#63b8ff" stroke="#63b8ff" points="464.53,-87.12 473.11,-93.33 470.27,-83.12 464.53,-87.12"/>
</a>
</g>
</g>
<!-- Node4&#45;&gt;Node2 -->
<g id="edge4_Node000004_Node000002" class="edge">
<title>Node4&#45;&gt;Node2</title>
<g id="a_edge4_Node000004_Node000002"><a xlink:title=" ">
<path fill="none" stroke="#63b8ff" d="M307.07,-126.3C263.42,-128.91 195.68,-134.02 137.5,-143 121.83,-145.42 104.74,-149.01 89.97,-152.42"/>
<polygon fill="#63b8ff" stroke="#63b8ff" points="307.16,-129.8 316.94,-125.73 306.75,-122.81 307.16,-129.8"/>
</a>
</g>
</g>
<!-- Node4&#45;&gt;Node5 -->
<g id="edge5_Node000004_Node000005" class="edge">
<title>Node4&#45;&gt;Node5</title>
<g id="a_edge5_Node000004_Node000005"><a xlink:title=" ">
<path fill="none" stroke="#63b8ff" d="M307.37,-135.17C285.4,-140.61 259.23,-147.09 238.12,-152.32"/>
<polygon fill="#63b8ff" stroke="#63b8ff" points="308.1,-138.6 316.96,-132.8 306.42,-131.8 308.1,-138.6"/>
</a>
</g>
</g>
<!-- Node6 -->
<g id="Node000006" class="node">
<title>Node6</title>
<g id="a_Node000006"><a xlink:href="namespacegenerate.html#a5c0026523dd30f942c55ad25f1b607b4" target="_top" xlink:title="Spawn an instance of the xdg&#45;dbus&#45;proxy for the application instance.">
<polygon fill="white" stroke="#666666" points="101.5,-118 0,-118 0,-86 101.5,-86 101.5,-118"/>
<text text-anchor="start" x="8" y="-104.5" font-family="Helvetica,sans-Serif" font-size="10.00">generate::xdg_dbus</text>
<text text-anchor="middle" x="50.75" y="-92.5" font-family="Helvetica,sans-Serif" font-size="10.00">_proxy</text>
</a>
</g>
</g>
<!-- Node4&#45;&gt;Node6 -->
<g id="edge9_Node000004_Node000006" class="edge">
<title>Node4&#45;&gt;Node6</title>
<g id="a_edge9_Node000004_Node000006"><a xlink:title=" ">
<path fill="none" stroke="#63b8ff" d="M307.3,-116.25C291.87,-113.87 274.47,-111.49 258.5,-110 205.21,-105.02 143.91,-103.12 101.98,-102.41"/>
<polygon fill="#63b8ff" stroke="#63b8ff" points="306.75,-119.7 317.18,-117.81 307.85,-112.79 306.75,-119.7"/>
</a>
</g>
</g>
<!-- Node5&#45;&gt;Node2 -->
<g id="edge6_Node000005_Node000002" class="edge">
<title>Node5&#45;&gt;Node2</title>
<g id="a_edge6_Node000005_Node000002"><a xlink:title=" ">
<path fill="none" stroke="#63b8ff" d="M146.23,-162C127.79,-162 107.27,-162 90.08,-162"/>
<polygon fill="#63b8ff" stroke="#63b8ff" points="146.18,-165.5 156.18,-162 146.18,-158.5 146.18,-165.5"/>
</a>
</g>
</g>
<!-- Node5&#45;&gt;Node5 -->
<g id="edge7_Node000005_Node000005" class="edge">
<title>Node5&#45;&gt;Node5</title>
<g id="a_edge7_Node000005_Node000005"><a xlink:title=" ">
<path fill="none" stroke="#63b8ff" d="M224.03,-183.44C220.67,-187.3 212,-190 198,-190 172.4,-190 164.6,-180.98 174.6,-172.34"/>
<polygon fill="#63b8ff" stroke="#63b8ff" points="227.46,-182.74 221.75,-173.81 220.64,-184.35 227.46,-182.74"/>
</a>
</g>
</g>
<!-- Node5&#45;&gt;Node6 -->
<g id="edge8_Node000005_Node000006" class="edge">
<title>Node5&#45;&gt;Node6</title>
<g id="a_edge8_Node000005_Node000006"><a xlink:title=" ">
<path fill="none" stroke="#63b8ff" d="M161.23,-147.22C140.1,-138.5 113.32,-127.43 91.54,-118.43"/>
<polygon fill="#63b8ff" stroke="#63b8ff" points="159.72,-150.39 170.3,-150.97 162.39,-143.92 159.72,-150.39"/>
</a>
</g>
</g>
<!-- Node7&#45;&gt;Node3 -->
<g id="edge12_Node000007_Node000003" class="edge">
<title>Node7&#45;&gt;Node3</title>
<g id="a_edge12_Node000007_Node000003"><a xlink:title=" ">
<path fill="none" stroke="#63b8ff" d="M300.01,-48C286.72,-48 272.34,-48 258.72,-48"/>
<polygon fill="#63b8ff" stroke="#63b8ff" points="299.85,-51.5 309.85,-48 299.85,-44.5 299.85,-51.5"/>
</a>
</g>
</g>
</g>
</svg>
