<?xml version="1.0" encoding="UTF-8" standalone="no"?>
<!DOCTYPE svg PUBLIC "-//W3C//DTD SVG 1.1//EN"
 "http://www.w3.org/Graphics/SVG/1.1/DTD/svg11.dtd">
<!-- Generated by graphviz version 12.2.1 (0)
 -->
<!-- Title: syscalls::update_policy Pages: 1 -->
<!--zoomable 217 -->

<svg id="main" version="1.1" xmlns="http://www.w3.org/2000/svg" xmlns:xlink="http://www.w3.org/1999/xlink" xml:space="preserve" onload="init(evt)">

<style type="text/css"><![CDATA[
.node, .edge {opacity: 0.7;}
.node.selected, .edge.selected {opacity: 1;}
.edge:hover path { stroke: red; }
.edge:hover polygon { stroke: red; fill: red; }
]]></style>

<defs>
  <circle id="rim" cx="0" cy="0" r="7"/>
  <circle id="rim2" cx="0" cy="0" r="3.5"/>
  <g id="zoomPlus">
    <use xlink:href="#rim" fill="#404040"><set attributeName="fill" to="#808080" begin="zoomplus.mouseover" end="zoomplus.mouseout"/></use>
    <path d="M-4,0h8M0,-4v8" fill="none" stroke="white" stroke-width="1.5" pointer-events="none"/>
  </g>
  <g id="zoomMin">
    <use xlink:href="#rim" fill="#404040"><set attributeName="fill" to="#808080" begin="zoomminus.mouseover" end="zoomminus.mouseout"/></use>
    <path d="M-4,0h8" fill="none" stroke="white" stroke-width="1.5" pointer-events="none"/>
  </g>
  <g id="arrowUp" transform="translate(30 24)">
    <use xlink:href="#rim"/>
    <path pointer-events="none" fill="none" stroke="white" stroke-width="1.5" d="M0,-3.0v7 M-2.5,-0.5L0,-3.0L2.5,-0.5"/>
  </g>
  <g id="arrowRight" transform="rotate(90) translate(36 -43)">
    <use xlink:href="#rim"/>
    <path pointer-events="none" fill="none" stroke="white" stroke-width="1.5" d="M0,-3.0v7 M-2.5,-0.5L0,-3.0L2.5,-0.5"/>
  </g>
  <g id="arrowDown" transform="rotate(180) translate(-30 -48)">
    <use xlink:href="#rim"/>
    <path pointer-events="none" fill="none" stroke="white" stroke-width="1.5" d="M0,-3.0v7 M-2.5,-0.5L0,-3.0L2.5,-0.5"/>
  </g>
  <g id="arrowLeft" transform="rotate(270) translate(-36 17)">
    <use xlink:href="#rim"/>
    <path pointer-events="none" fill="none" stroke="white" stroke-width="1.5" d="M0,-3.0v7 M-2.5,-0.5L0,-3.0L2.5,-0.5"/>
  </g>
  <g id="resetDef">
    <use xlink:href="#rim2" fill="#404040"><set attributeName="fill" to="#808080" begin="reset.mouseover" end="reset.mouseout"/></use>
  </g>
</defs>
<script type="application/ecmascript">
var viewWidth = 618;
var viewHeight = 217;
var sectionId = 'dynsection-2';
</script>
<script type="application/ecmascript" xlink:href="svg.min.js"/>
<svg id="graph" class="graph">
<g id="viewport">
<title>syscalls::update_policy</title>
<!-- Node1 -->
<g id="Node000001" class="node">
<title>Node1</title>
<g id="a_Node000001"><a xlink:title="Append an existing policy with newly discovered syscalls.">
<polygon fill="#999999" stroke="#666666" points="118,-115 0,-115 0,-95 118,-95 118,-115"/>
<text text-anchor="middle" x="59" y="-101.5" font-family="Helvetica,sans-Serif" font-size="10.00">syscalls::update_policy</text>
</a>
</g>
</g>
<!-- Node2 -->
<g id="Node000002" class="node">
<title>Node2</title>
<g id="a_Node000002"><a xlink:href="namespaceshared.html#a4a708359d4c8dbeeaa8b744eec56c0e5" target="_top" xlink:title="Hash a string.">
<polygon fill="white" stroke="#666666" points="235.62,-191 163.38,-191 163.38,-171 235.62,-171 235.62,-191"/>
<text text-anchor="middle" x="199.5" y="-177.5" font-family="Helvetica,sans-Serif" font-size="10.00">shared::hash</text>
</a>
</g>
</g>
<!-- Node1&#45;&gt;Node2 -->
<g id="edge1_Node000001_Node000002" class="edge">
<title>Node1&#45;&gt;Node2</title>
<g id="a_edge1_Node000001_Node000002"><a xlink:title=" ">
<path fill="none" stroke="#63b8ff" d="M75.57,-115.38C93.91,-127.38 125.48,-147.36 154,-162 156.55,-163.31 159.21,-164.61 161.91,-165.87"/>
<polygon fill="#63b8ff" stroke="#63b8ff" points="160.39,-169.03 170.95,-169.94 163.26,-162.65 160.39,-169.03"/>
</a>
</g>
</g>
<!-- Node3 -->
<g id="Node000003" class="node">
<title>Node3</title>
<g id="a_Node000003"><a xlink:href="namespaceshared.html#a565b1c521d1f0509c5ec0f237a727f8e" target="_top" xlink:title="Compose a return value from an accumulator function.">
<polygon fill="white" stroke="#666666" points="231.5,-153 167.5,-153 167.5,-133 231.5,-133 231.5,-153"/>
<text text-anchor="middle" x="199.5" y="-139.5" font-family="Helvetica,sans-Serif" font-size="10.00">shared::init</text>
</a>
</g>
</g>
<!-- Node1&#45;&gt;Node3 -->
<g id="edge3_Node000001_Node000003" class="edge">
<title>Node1&#45;&gt;Node3</title>
<g id="a_edge3_Node000001_Node000003"><a xlink:title=" ">
<path fill="none" stroke="#63b8ff" d="M98.21,-115.48C116.25,-120.43 137.82,-126.35 156.34,-131.43"/>
<polygon fill="#63b8ff" stroke="#63b8ff" points="155.38,-134.8 165.95,-134.07 157.23,-128.05 155.38,-134.8"/>
</a>
</g>
</g>
<!-- Node4 -->
<g id="Node000004" class="node">
<title>Node4</title>
<g id="a_Node000004"><a xlink:href="namespaceshared.html#a2f7cb04abbe01ba7193f2d2a6d520355" target="_top" xlink:title="Join a vector into a string.">
<polygon fill="white" stroke="#666666" points="232.62,-115 166.38,-115 166.38,-95 232.62,-95 232.62,-115"/>
<text text-anchor="middle" x="199.5" y="-101.5" font-family="Helvetica,sans-Serif" font-size="10.00">shared::join</text>
</a>
</g>
</g>
<!-- Node1&#45;&gt;Node4 -->
<g id="edge4_Node000001_Node000004" class="edge">
<title>Node1&#45;&gt;Node4</title>
<g id="a_edge4_Node000001_Node000004"><a xlink:title=" ">
<path fill="none" stroke="#63b8ff" d="M118.34,-105C130.41,-105 142.93,-105 154.39,-105"/>
<polygon fill="#63b8ff" stroke="#63b8ff" points="154.37,-108.5 164.37,-105 154.37,-101.5 154.37,-108.5"/>
</a>
</g>
</g>
<!-- Node5 -->
<g id="Node000005" class="node">
<title>Node5</title>
<g id="a_Node000005"><a xlink:href="namespaceshared.html#afac154f1bef460ef6f24705f6c033f37" target="_top" xlink:title="Read a file.">
<polygon fill="white" stroke="#666666" points="243.5,-77 155.5,-77 155.5,-57 243.5,-57 243.5,-77"/>
<text text-anchor="middle" x="199.5" y="-63.5" font-family="Helvetica,sans-Serif" font-size="10.00">shared::read_file</text>
</a>
</g>
</g>
<!-- Node1&#45;&gt;Node5 -->
<g id="edge5_Node000001_Node000005" class="edge">
<title>Node1&#45;&gt;Node5</title>
<g id="a_edge5_Node000001_Node000005"><a xlink:title=" ">
<path fill="none" stroke="#63b8ff" d="M98.21,-94.52C114.11,-90.15 132.75,-85.04 149.63,-80.41"/>
<polygon fill="#63b8ff" stroke="#63b8ff" points="150.24,-83.87 158.95,-77.85 148.38,-77.12 150.24,-83.87"/>
</a>
</g>
</g>
<!-- Node6 -->
<g id="Node000006" class="node">
<title>Node6</title>
<g id="a_Node000006"><a xlink:href="namespaceshared.html#ae5d42a7f6819f149991304227a611c78" target="_top" xlink:title="A Blocking Parser that splits the output into a vector.">
<polygon fill="white" stroke="#666666" points="245,-39 154,-39 154,-19 245,-19 245,-39"/>
<text text-anchor="middle" x="199.5" y="-25.5" font-family="Helvetica,sans-Serif" font-size="10.00">shared::vectorize</text>
</a>
</g>
</g>
<!-- Node1&#45;&gt;Node6 -->
<g id="edge6_Node000001_Node000006" class="edge">
<title>Node1&#45;&gt;Node6</title>
<g id="a_edge6_Node000001_Node000006"><a xlink:title=" ">
<path fill="none" stroke="#63b8ff" d="M75.57,-94.62C93.91,-82.62 125.48,-62.64 154,-48 156.55,-46.69 159.21,-45.39 161.91,-44.13"/>
<polygon fill="#63b8ff" stroke="#63b8ff" points="163.26,-47.35 170.95,-40.06 160.39,-40.97 163.26,-47.35"/>
</a>
</g>
</g>
<!-- Node2&#45;&gt;Node2 -->
<g id="edge2_Node000002_Node000002" class="edge">
<title>Node2&#45;&gt;Node2</title>
<g id="a_edge2_Node000002_Node000002"><a xlink:title=" ">
<path fill="none" stroke="#63b8ff" d="M179.08,-191.34C170.36,-199.98 177.16,-209 199.5,-209 211.72,-209 219.29,-206.3 222.21,-202.44"/>
<polygon fill="#63b8ff" stroke="#63b8ff" points="225.67,-201.91 220.22,-192.82 218.82,-203.32 225.67,-201.91"/>
</a>
</g>
</g>
<!-- Node7 -->
<g id="Node000007" class="node">
<title>Node7</title>
<g id="a_Node000007"><a xlink:href="namespaceshared.html#a3736db9aa00bd9e0a56aeaf1057066c0" target="_top" xlink:title="Split the contents of an FD.">
<polygon fill="white" stroke="#666666" points="375,-39 281,-39 281,-19 375,-19 375,-39"/>
<text text-anchor="middle" x="328" y="-25.5" font-family="Helvetica,sans-Serif" font-size="10.00">shared::fd_splitter</text>
</a>
</g>
</g>
<!-- Node6&#45;&gt;Node7 -->
<g id="edge7_Node000006_Node000007" class="edge">
<title>Node6&#45;&gt;Node7</title>
<g id="a_edge7_Node000006_Node000007"><a xlink:title=" ">
<path fill="none" stroke="#63b8ff" d="M245.46,-29C253.27,-29 261.5,-29 269.6,-29"/>
<polygon fill="#63b8ff" stroke="#63b8ff" points="269.39,-32.5 279.39,-29 269.39,-25.5 269.39,-32.5"/>
</a>
</g>
</g>
<!-- Node8 -->
<g id="Node000008" class="node">
<title>Node8</title>
<g id="a_Node000008"><a xlink:href="namespaceshared.html#a80f3b59804700742a5a0c6ea15bf24f9" target="_top" xlink:title="A Blocking Parser that returns the output in a single string.">
<polygon fill="white" stroke="#666666" points="488.88,-58 413.62,-58 413.62,-38 488.88,-38 488.88,-58"/>
<text text-anchor="middle" x="451.25" y="-44.5" font-family="Helvetica,sans-Serif" font-size="10.00">shared::dump</text>
</a>
</g>
</g>
<!-- Node7&#45;&gt;Node8 -->
<g id="edge8_Node000007_Node000008" class="edge">
<title>Node7&#45;&gt;Node8</title>
<g id="a_edge8_Node000007_Node000008"><a xlink:title=" ">
<path fill="none" stroke="#63b8ff" d="M375.19,-36.24C383.93,-37.61 393.11,-39.05 401.92,-40.43"/>
<polygon fill="#63b8ff" stroke="#63b8ff" points="401.31,-43.87 411.73,-41.96 402.4,-36.96 401.31,-43.87"/>
</a>
</g>
</g>
<!-- Node9 -->
<g id="Node000009" class="node">
<title>Node9</title>
<g id="a_Node000009"><a xlink:href="namespaceshared.html#a690cc836408825d804377522d9d99a07" target="_top" xlink:title="Split a string.">
<polygon fill="white" stroke="#666666" points="491.5,-20 411,-20 411,0 491.5,0 491.5,-20"/>
<text text-anchor="middle" x="451.25" y="-6.5" font-family="Helvetica,sans-Serif" font-size="10.00">shared::splitter</text>
</a>
</g>
</g>
<!-- Node7&#45;&gt;Node9 -->
<g id="edge9_Node000007_Node000009" class="edge">
<title>Node7&#45;&gt;Node9</title>
<g id="a_edge9_Node000007_Node000009"><a xlink:title=" ">
<path fill="none" stroke="#63b8ff" d="M375.19,-21.76C383.1,-20.52 391.36,-19.23 399.39,-17.97"/>
<polygon fill="#63b8ff" stroke="#63b8ff" points="399.69,-21.47 409.03,-16.46 398.61,-14.55 399.69,-21.47"/>
</a>
</g>
</g>
<!-- Node10 -->
<g id="Node000010" class="node">
<title>Node10</title>
<g id="a_Node000010"><a xlink:href="namespaceshared.html#a6282d0d8d2ab3f70038d7428729c15ca" target="_top" xlink:title="Escape a string.">
<polygon fill="white" stroke="#666666" points="610.25,-20 527.5,-20 527.5,0 610.25,0 610.25,-20"/>
<text text-anchor="middle" x="568.88" y="-6.5" font-family="Helvetica,sans-Serif" font-size="10.00">shared::escape</text>
</a>
</g>
</g>
<!-- Node9&#45;&gt;Node10 -->
<g id="edge10_Node000009_Node000010" class="edge">
<title>Node9&#45;&gt;Node10</title>
<g id="a_edge10_Node000009_Node000010"><a xlink:title=" ">
<path fill="none" stroke="#63b8ff" d="M491.72,-10C499.46,-10 507.68,-10 515.76,-10"/>
<polygon fill="#63b8ff" stroke="#63b8ff" points="515.5,-13.5 525.5,-10 515.5,-6.5 515.5,-13.5"/>
</a>
</g>
</g>
</g>
</svg>

<g id="navigator" transform="translate(0 0)" fill="#404254">
  <rect fill="#f2f5e9" fill-opacity="0.5" stroke="#606060" stroke-width=".5" x="0" y="0" width="60" height="60"/>
  <use id="zoomplus" xlink:href="#zoomPlus" x="17" y="9" onmousedown="handleZoom(evt,'in')"/>
  <use id="zoomminus" xlink:href="#zoomMin" x="42" y="9" onmousedown="handleZoom(evt,'out')"/>
  <use id="reset" xlink:href="#resetDef" x="30" y="36" onmousedown="handleReset()"/>
   <use id="arrowup" xlink:href="#arrowUp" x="0" y="0" onmousedown="handlePan(0,-1)"/>
  <use id="arrowright" xlink:href="#arrowRight" x="0" y="0" onmousedown="handlePan(1,0)"/>
  <use id="arrowdown" xlink:href="#arrowDown" x="0" y="0" onmousedown="handlePan(0,1)"/>
  <use id="arrowleft" xlink:href="#arrowLeft" x="0" y="0" onmousedown="handlePan(-1,0)"/>
</g>
<svg viewBox="0 0 15 15" width="100%" height="30px" preserveAspectRatio="xMaxYMin meet">
 <g id="arrow_out" transform="scale(0.3 0.3)">
  <a xlink:href="namespacesyscalls_a501461c3842033cfab85ba4b8f328ed8_cgraph_org.svg" target="_base">
   <rect id="button" ry="5" rx="5" y="6" x="6" height="38" width="38"
        fill="#f2f5e9" fill-opacity="0.5" stroke="#606060" stroke-width="1.0"/>
   <path id="arrow"
     d="M 11.500037,31.436501 C 11.940474,20.09759 22.043105,11.32322 32.158766,21.979434 L 37.068811,17.246167 C 37.068811,17.246167 37.088388,32 37.088388,32 L 22.160133,31.978069 C 22.160133,31.978069 26.997745,27.140456 26.997745,27.140456 C 18.528582,18.264221 13.291696,25.230495 11.500037,31.436501 z"
     style="fill:#404040;"/>
  </a>
 </g>
</svg>

<style type='text/css'>
<![CDATA[
[data-mouse-over-selected='false'] { opacity: 0.7; }
[data-mouse-over-selected='true']  { opacity: 1.0; }
]]>
</style>
<script type="application/ecmascript"><![CDATA[
document.addEventListener('DOMContentLoaded', (event) => {
  highlightEdges();
  highlightAdjacentNodes();
});
]]></script>
</svg>
