<?xml version="1.0" encoding="UTF-8" standalone="no"?>
<!DOCTYPE svg PUBLIC "-//W3C//DTD SVG 1.1//EN"
 "http://www.w3.org/Graphics/SVG/1.1/DTD/svg11.dtd">
<!-- Generated by graphviz version 12.2.1 (0)
 -->
<!-- Title: binaries::parse Pages: 1 -->
<svg width="719pt" height="590pt"
 viewBox="0.00 0.00 719.00 589.55" xmlns="http://www.w3.org/2000/svg" xmlns:xlink="http://www.w3.org/1999/xlink">
<g id="graph0" class="graph" transform="scale(1 1) rotate(0) translate(4 585.55)">
<title>binaries::parse</title>
<!-- Node1 -->
<g id="Node000001" class="node">
<title>Node1</title>
<g id="a_Node000001"><a xlink:title="Parse a binary to determine dependencies.">
<polygon fill="#999999" stroke="#666666" points="79.75,-248 0,-248 0,-228 79.75,-228 79.75,-248"/>
<text text-anchor="middle" x="39.88" y="-234.5" font-family="Helvetica,sans-Serif" font-size="10.00">binaries::parse</text>
</a>
</g>
</g>
<!-- Node1&#45;&gt;Node1 -->
<g id="edge24_Node000001_Node000001" class="edge">
<title>Node1&#45;&gt;Node1</title>
<g id="a_edge24_Node000001_Node000001"><a xlink:title=" ">
<path fill="none" stroke="#63b8ff" d="M19.4,-248.34C10.65,-256.98 17.47,-266 39.88,-266 52.13,-266 59.72,-263.3 62.65,-259.44"/>
<polygon fill="#63b8ff" stroke="#63b8ff" points="66.12,-258.9 60.66,-249.82 59.26,-260.32 66.12,-258.9"/>
</a>
</g>
</g>
<!-- Node2 -->
<g id="Node000002" class="node">
<title>Node2</title>
<g id="a_Node000002"><a xlink:href="namespaceshared.html#a80f3b59804700742a5a0c6ea15bf24f9" target="_top" xlink:title="A Blocking Parser that returns the output in a single string.">
<polygon fill="white" stroke="#666666" points="589.62,-580 514.38,-580 514.38,-560 589.62,-560 589.62,-580"/>
<text text-anchor="middle" x="552" y="-566.5" font-family="Helvetica,sans-Serif" font-size="10.00">shared::dump</text>
</a>
</g>
</g>
<!-- Node1&#45;&gt;Node2 -->
<g id="edge1_Node000001_Node000002" class="edge">
<title>Node1&#45;&gt;Node2</title>
<g id="a_edge1_Node000001_Node000002"><a xlink:title=" ">
<path fill="none" stroke="#63b8ff" d="M41.83,-248.24C45.48,-282.56 61.25,-395.46 115.75,-467 161.62,-527.21 185.62,-538.08 257.75,-561 340.8,-587.4 443.83,-582.53 503.03,-576.4"/>
<polygon fill="#63b8ff" stroke="#63b8ff" points="503.21,-579.9 512.76,-575.33 502.44,-572.94 503.21,-579.9"/>
</a>
</g>
</g>
<!-- Node3 -->
<g id="Node000003" class="node">
<title>Node3</title>
<g id="a_Node000003"><a xlink:href="namespaceshared.html#a585cdabc1b4758c65001d7dd03cb6715" target="_top" xlink:title="Execute stuff.">
<polygon fill="white" stroke="#666666" points="464.88,-438 392.62,-438 392.62,-418 464.88,-418 464.88,-438"/>
<text text-anchor="middle" x="428.75" y="-424.5" font-family="Helvetica,sans-Serif" font-size="10.00">shared::exec</text>
</a>
</g>
</g>
<!-- Node1&#45;&gt;Node3 -->
<g id="edge2_Node000001_Node000003" class="edge">
<title>Node1&#45;&gt;Node3</title>
<g id="a_edge2_Node000001_Node000003"><a xlink:title=" ">
<path fill="none" stroke="#63b8ff" d="M80.07,-234.89C153.21,-229.97 306.62,-224.02 345.75,-257 398.84,-301.74 336.72,-356.16 381.75,-409 382.21,-409.53 382.68,-410.05 383.17,-410.56"/>
<polygon fill="#63b8ff" stroke="#63b8ff" points="380.97,-413.29 391.03,-416.62 385.25,-407.74 380.97,-413.29"/>
</a>
</g>
</g>
<!-- Node4 -->
<g id="Node000004" class="node">
<title>Node4</title>
<g id="a_Node000004"><a xlink:href="namespacelibraries.html#a4dfd6ab45adf8dc18ea57bc1f88eaedf" target="_top" xlink:title="Recursively resolve all shared&#45;libraries needed by a library.">
<polygon fill="white" stroke="#666666" points="203.38,-400 134.12,-400 134.12,-380 203.38,-380 203.38,-400"/>
<text text-anchor="middle" x="168.75" y="-386.5" font-family="Helvetica,sans-Serif" font-size="10.00">libraries::get</text>
</a>
</g>
</g>
<!-- Node1&#45;&gt;Node4 -->
<g id="edge3_Node000001_Node000004" class="edge">
<title>Node1&#45;&gt;Node4</title>
<g id="a_edge3_Node000001_Node000004"><a xlink:title=" ">
<path fill="none" stroke="#63b8ff" d="M44.45,-248.37C53.13,-272.15 77.43,-331.22 115.75,-366 119.09,-369.03 122.88,-371.74 126.86,-374.15"/>
<polygon fill="#63b8ff" stroke="#63b8ff" points="125.17,-377.22 135.64,-378.82 128.45,-371.04 125.17,-377.22"/>
</a>
</g>
</g>
<!-- Node10 -->
<g id="Node000010" class="node">
<title>Node10</title>
<g id="a_Node000010"><a xlink:href="namespaceshared.html#a2f7cb04abbe01ba7193f2d2a6d520355" target="_top" xlink:title="Join a vector into a string.">
<polygon fill="white" stroke="#666666" points="334.88,-362 268.62,-362 268.62,-342 334.88,-342 334.88,-362"/>
<text text-anchor="middle" x="301.75" y="-348.5" font-family="Helvetica,sans-Serif" font-size="10.00">shared::join</text>
</a>
</g>
</g>
<!-- Node1&#45;&gt;Node10 -->
<g id="edge21_Node000001_Node000010" class="edge">
<title>Node1&#45;&gt;Node10</title>
<g id="a_edge21_Node000001_Node000010"><a xlink:title=" ">
<path fill="none" stroke="#63b8ff" d="M50.04,-248.06C63.24,-261.96 88.99,-286.92 115.75,-301 161.1,-324.86 218.74,-338.46 257.53,-345.51"/>
<polygon fill="#63b8ff" stroke="#63b8ff" points="256.5,-348.88 266.95,-347.15 257.7,-341.99 256.5,-348.88"/>
</a>
</g>
</g>
<!-- Node11 -->
<g id="Node000011" class="node">
<title>Node11</title>
<g id="a_Node000011"><a xlink:href="namespaceshared.html#a99724c73af55fa92ae29fee700152917" target="_top" xlink:title="Log output to console, if verbose.">
<polygon fill="white" stroke="#666666" points="333.75,-324 269.75,-324 269.75,-304 333.75,-304 333.75,-324"/>
<text text-anchor="middle" x="301.75" y="-310.5" font-family="Helvetica,sans-Serif" font-size="10.00">shared::log</text>
</a>
</g>
</g>
<!-- Node1&#45;&gt;Node11 -->
<g id="edge22_Node000001_Node000011" class="edge">
<title>Node1&#45;&gt;Node11</title>
<g id="a_edge22_Node000001_Node000011"><a xlink:title=" ">
<path fill="none" stroke="#63b8ff" d="M60.1,-248.42C74.94,-256.11 96.19,-266.35 115.75,-273 163.45,-289.22 220.29,-300.7 258.26,-307.32"/>
<polygon fill="#63b8ff" stroke="#63b8ff" points="257.47,-310.73 267.92,-308.96 258.65,-303.83 257.47,-310.73"/>
</a>
</g>
</g>
<!-- Node12 -->
<g id="Node000012" class="node">
<title>Node12</title>
<g id="a_Node000012"><a xlink:href="namespaceshared.html#afac154f1bef460ef6f24705f6c033f37" target="_top" xlink:title="Read a file.">
<polygon fill="white" stroke="#666666" points="345.75,-286 257.75,-286 257.75,-266 345.75,-266 345.75,-286"/>
<text text-anchor="middle" x="301.75" y="-272.5" font-family="Helvetica,sans-Serif" font-size="10.00">shared::read_file</text>
</a>
</g>
</g>
<!-- Node1&#45;&gt;Node12 -->
<g id="edge25_Node000001_Node000012" class="edge">
<title>Node1&#45;&gt;Node12</title>
<g id="a_edge25_Node000001_Node000012"><a xlink:title=" ">
<path fill="none" stroke="#63b8ff" d="M80.05,-245.75C91.53,-247.91 104.12,-250.16 115.75,-252 159.53,-258.93 209.36,-265.31 246.27,-269.74"/>
<polygon fill="#63b8ff" stroke="#63b8ff" points="245.44,-273.17 255.79,-270.88 246.27,-266.22 245.44,-273.17"/>
</a>
</g>
</g>
<!-- Node13 -->
<g id="Node000013" class="node">
<title>Node13</title>
<g id="a_Node000013"><a xlink:href="namespaceshared.html#a219683cbcfb575bb29797638cadafb7b" target="_top" xlink:title="A Blocking Parser that splits the output into a set.">
<polygon fill="white" stroke="#666666" points="344.62,-552 258.88,-552 258.88,-532 344.62,-532 344.62,-552"/>
<text text-anchor="middle" x="301.75" y="-538.5" font-family="Helvetica,sans-Serif" font-size="10.00">shared::setorize</text>
</a>
</g>
</g>
<!-- Node1&#45;&gt;Node13 -->
<g id="edge26_Node000001_Node000013" class="edge">
<title>Node1&#45;&gt;Node13</title>
<g id="a_edge26_Node000001_Node000013"><a xlink:title=" ">
<path fill="none" stroke="#63b8ff" d="M43.35,-248.22C50.56,-276.35 73.71,-356.31 115.75,-409 158.66,-462.79 228.68,-504.89 269.15,-526.35"/>
<polygon fill="#63b8ff" stroke="#63b8ff" points="267.42,-529.39 277.91,-530.9 270.65,-523.18 267.42,-529.39"/>
</a>
</g>
</g>
<!-- Node15 -->
<g id="Node000015" class="node">
<title>Node15</title>
<g id="a_Node000015"><a xlink:href="namespaceshared.html#ad05481a6e28afc976d57ddcba12e8a4d" target="_top" xlink:title="A Blocking Parser that returns the first count of the output.">
<polygon fill="white" stroke="#666666" points="204.88,-210 132.62,-210 132.62,-190 204.88,-190 204.88,-210"/>
<text text-anchor="middle" x="168.75" y="-196.5" font-family="Helvetica,sans-Serif" font-size="10.00">shared::head</text>
</a>
</g>
</g>
<!-- Node1&#45;&gt;Node15 -->
<g id="edge19_Node000001_Node000015" class="edge">
<title>Node1&#45;&gt;Node15</title>
<g id="a_edge19_Node000001_Node000015"><a xlink:title=" ">
<path fill="none" stroke="#63b8ff" d="M75.88,-227.52C90.16,-223.24 106.87,-218.23 122.09,-213.67"/>
<polygon fill="#63b8ff" stroke="#63b8ff" points="122.83,-217.11 131.41,-210.88 120.83,-210.4 122.83,-217.11"/>
</a>
</g>
</g>
<!-- Node16 -->
<g id="Node000016" class="node">
<title>Node16</title>
<g id="a_Node000016"><a xlink:href="namespaceshared.html#a565b1c521d1f0509c5ec0f237a727f8e" target="_top" xlink:title="Compose a return value from an accumulator function.">
<polygon fill="white" stroke="#666666" points="200.75,-172 136.75,-172 136.75,-152 200.75,-152 200.75,-172"/>
<text text-anchor="middle" x="168.75" y="-158.5" font-family="Helvetica,sans-Serif" font-size="10.00">shared::init</text>
</a>
</g>
</g>
<!-- Node1&#45;&gt;Node16 -->
<g id="edge20_Node000001_Node000016" class="edge">
<title>Node1&#45;&gt;Node16</title>
<g id="a_edge20_Node000001_Node000016"><a xlink:title=" ">
<path fill="none" stroke="#63b8ff" d="M52.3,-227.54C66.36,-215.09 91.38,-194.33 115.75,-181 118.95,-179.25 122.35,-177.6 125.82,-176.06"/>
<polygon fill="#63b8ff" stroke="#63b8ff" points="126.95,-179.37 134.88,-172.35 124.3,-172.89 126.95,-179.37"/>
</a>
</g>
</g>
<!-- Node17 -->
<g id="Node000017" class="node">
<title>Node17</title>
<g id="a_Node000017"><a xlink:href="namespaceshared.html#a4ddc24b4d99e824f9b941fa905fb0a81" target="_top" xlink:title="A Blocking Parser that returns the first line of output.">
<polygon fill="white" stroke="#666666" points="212.38,-134 125.12,-134 125.12,-114 212.38,-114 212.38,-134"/>
<text text-anchor="middle" x="168.75" y="-120.5" font-family="Helvetica,sans-Serif" font-size="10.00">shared::one_line</text>
</a>
</g>
</g>
<!-- Node1&#45;&gt;Node17 -->
<g id="edge23_Node000001_Node000017" class="edge">
<title>Node1&#45;&gt;Node17</title>
<g id="a_edge23_Node000001_Node000017"><a xlink:title=" ">
<path fill="none" stroke="#63b8ff" d="M46.45,-227.59C57.31,-208.26 83.09,-166.65 115.75,-143 117.5,-141.73 119.35,-140.54 121.26,-139.42"/>
<polygon fill="#63b8ff" stroke="#63b8ff" points="122.49,-142.72 129.84,-135.09 119.34,-136.47 122.49,-142.72"/>
</a>
</g>
</g>
<!-- Node18 -->
<g id="Node000018" class="node">
<title>Node18</title>
<g id="a_Node000018"><a xlink:href="namespaceshared.html#a48db957c3256c3eb24bc748642cd1bb9" target="_top" xlink:title="Batch multiple iterations of an accumulator function together.">
<polygon fill="white" stroke="#666666" points="221.75,-96 115.75,-96 115.75,-76 221.75,-76 221.75,-96"/>
<text text-anchor="middle" x="168.75" y="-82.5" font-family="Helvetica,sans-Serif" font-size="10.00">shared::single_batch</text>
</a>
</g>
</g>
<!-- Node1&#45;&gt;Node18 -->
<g id="edge27_Node000001_Node000018" class="edge">
<title>Node1&#45;&gt;Node18</title>
<g id="a_edge27_Node000001_Node000018"><a xlink:title=" ">
<path fill="none" stroke="#63b8ff" d="M43.9,-227.74C51.69,-203.05 74.75,-139.82 115.75,-105 117.01,-103.93 118.33,-102.92 119.71,-101.96"/>
<polygon fill="#63b8ff" stroke="#63b8ff" points="121.13,-105.18 128.06,-97.17 117.64,-99.11 121.13,-105.18"/>
</a>
</g>
</g>
<!-- Node19 -->
<g id="Node000019" class="node">
<title>Node19</title>
<g id="a_Node000019"><a xlink:href="namespaceshared.html#ae0ec3e8d4de79340eda47eabfd075feb" target="_top" xlink:title="Strip all instance of character from a string.">
<polygon fill="white" stroke="#666666" points="203.75,-58 133.75,-58 133.75,-38 203.75,-38 203.75,-58"/>
<text text-anchor="middle" x="168.75" y="-44.5" font-family="Helvetica,sans-Serif" font-size="10.00">shared::strip</text>
</a>
</g>
</g>
<!-- Node1&#45;&gt;Node19 -->
<g id="edge28_Node000001_Node000019" class="edge">
<title>Node1&#45;&gt;Node19</title>
<g id="a_edge28_Node000001_Node000019"><a xlink:title=" ">
<path fill="none" stroke="#63b8ff" d="M42.53,-227.51C47.72,-198 66.38,-113.38 115.75,-67 118,-64.88 120.51,-63 123.18,-61.32"/>
<polygon fill="#63b8ff" stroke="#63b8ff" points="124.68,-64.48 131.98,-56.8 121.48,-58.25 124.68,-64.48"/>
</a>
</g>
</g>
<!-- Node20 -->
<g id="Node000020" class="node">
<title>Node20</title>
<g id="a_Node000020"><a xlink:href="namespaceshared.html#a77e45bc6735a35fbc38891b166e40a7b" target="_top" xlink:title="Trim characters from the front and end of a string.">
<polygon fill="white" stroke="#666666" points="202.62,-20 134.88,-20 134.88,0 202.62,0 202.62,-20"/>
<text text-anchor="middle" x="168.75" y="-6.5" font-family="Helvetica,sans-Serif" font-size="10.00">shared::trim</text>
</a>
</g>
</g>
<!-- Node1&#45;&gt;Node20 -->
<g id="edge29_Node000001_Node000020" class="edge">
<title>Node1&#45;&gt;Node20</title>
<g id="a_edge29_Node000001_Node000020"><a xlink:title=" ">
<path fill="none" stroke="#63b8ff" d="M41.57,-227.69C44.35,-194.25 57.61,-87.51 115.75,-29 118.24,-26.49 121.1,-24.31 124.15,-22.41"/>
<polygon fill="#63b8ff" stroke="#63b8ff" points="125.68,-25.56 133.06,-17.96 122.55,-19.3 125.68,-25.56"/>
</a>
</g>
</g>
<!-- Node4&#45;&gt;Node3 -->
<g id="edge6_Node000004_Node000003" class="edge">
<title>Node4&#45;&gt;Node3</title>
<g id="a_edge6_Node000004_Node000003"><a xlink:title=" ">
<path fill="none" stroke="#63b8ff" d="M203.87,-398.21C220.11,-401.9 239.86,-406.08 257.75,-409 299.35,-415.8 347.09,-420.9 381.37,-424.1"/>
<polygon fill="#63b8ff" stroke="#63b8ff" points="380.66,-427.55 390.94,-424.97 381.3,-420.57 380.66,-427.55"/>
</a>
</g>
</g>
<!-- Node5 -->
<g id="Node000005" class="node">
<title>Node5</title>
<g id="a_Node000005"><a xlink:href="namespaceshared.html#a172747218de79644b5c263f15a0da631" target="_top" xlink:title="Batch multiple iterations of an accumulator function together, threaded.">
<polygon fill="white" stroke="#666666" points="339.38,-400 264.12,-400 264.12,-380 339.38,-380 339.38,-400"/>
<text text-anchor="middle" x="301.75" y="-386.5" font-family="Helvetica,sans-Serif" font-size="10.00">shared::batch</text>
</a>
</g>
</g>
<!-- Node4&#45;&gt;Node5 -->
<g id="edge4_Node000004_Node000005" class="edge">
<title>Node4&#45;&gt;Node5</title>
<g id="a_edge4_Node000004_Node000005"><a xlink:title=" ">
<path fill="none" stroke="#63b8ff" d="M203.83,-390C218.71,-390 236.43,-390 252.63,-390"/>
<polygon fill="#63b8ff" stroke="#63b8ff" points="252.57,-393.5 262.57,-390 252.57,-386.5 252.57,-393.5"/>
</a>
</g>
</g>
<!-- Node7 -->
<g id="Node000007" class="node">
<title>Node7</title>
<g id="a_Node000007"><a xlink:href="namespaceshared.html#a3736db9aa00bd9e0a56aeaf1057066c0" target="_top" xlink:title="Split the contents of an FD.">
<polygon fill="white" stroke="#666666" points="475.75,-533 381.75,-533 381.75,-513 475.75,-513 475.75,-533"/>
<text text-anchor="middle" x="428.75" y="-519.5" font-family="Helvetica,sans-Serif" font-size="10.00">shared::fd_splitter</text>
</a>
</g>
</g>
<!-- Node4&#45;&gt;Node7 -->
<g id="edge7_Node000004_Node000007" class="edge">
<title>Node4&#45;&gt;Node7</title>
<g id="a_edge7_Node000004_Node000007"><a xlink:title=" ">
<path fill="none" stroke="#63b8ff" d="M176.28,-400.5C189.22,-420.36 220.13,-463.37 257.75,-485 292.02,-504.7 335.62,-514.19 370.08,-518.76"/>
<polygon fill="#63b8ff" stroke="#63b8ff" points="369.54,-522.22 379.89,-519.95 370.39,-515.27 369.54,-522.22"/>
</a>
</g>
</g>
<!-- Node4&#45;&gt;Node10 -->
<g id="edge11_Node000004_Node000010" class="edge">
<title>Node4&#45;&gt;Node10</title>
<g id="a_edge11_Node000004_Node000010"><a xlink:title=" ">
<path fill="none" stroke="#63b8ff" d="M203.83,-380.12C220.12,-375.39 239.81,-369.68 257.18,-364.64"/>
<polygon fill="#63b8ff" stroke="#63b8ff" points="258.12,-368.01 266.74,-361.86 256.17,-361.29 258.12,-368.01"/>
</a>
</g>
</g>
<!-- Node4&#45;&gt;Node11 -->
<g id="edge12_Node000004_Node000011" class="edge">
<title>Node4&#45;&gt;Node11</title>
<g id="a_edge12_Node000004_Node000011"><a xlink:title=" ">
<path fill="none" stroke="#63b8ff" d="M184.26,-379.58C201.36,-367.54 230.85,-347.54 257.75,-333 260.11,-331.72 262.58,-330.46 265.08,-329.23"/>
<polygon fill="#63b8ff" stroke="#63b8ff" points="266.47,-332.44 274.05,-325.04 263.5,-326.1 266.47,-332.44"/>
</a>
</g>
</g>
<!-- Node4&#45;&gt;Node12 -->
<g id="edge13_Node000004_Node000012" class="edge">
<title>Node4&#45;&gt;Node12</title>
<g id="a_edge13_Node000004_Node000012"><a xlink:title=" ">
<path fill="none" stroke="#63b8ff" d="M177.13,-379.56C191.02,-360.55 222.8,-319.94 257.75,-295 259.3,-293.89 260.93,-292.83 262.61,-291.81"/>
<polygon fill="#63b8ff" stroke="#63b8ff" points="264.06,-295 271.22,-287.19 260.75,-288.83 264.06,-295"/>
</a>
</g>
</g>
<!-- Node4&#45;&gt;Node13 -->
<g id="edge14_Node000004_Node000013" class="edge">
<title>Node4&#45;&gt;Node13</title>
<g id="a_edge14_Node000004_Node000013"><a xlink:title=" ">
<path fill="none" stroke="#63b8ff" d="M176.51,-400.4C195.27,-429.2 247.33,-508.51 257.75,-518 260.84,-520.81 264.32,-523.43 267.92,-525.82"/>
<polygon fill="#63b8ff" stroke="#63b8ff" points="265.9,-528.69 276.28,-530.82 269.49,-522.68 265.9,-528.69"/>
</a>
</g>
</g>
<!-- Node14 -->
<g id="Node000014" class="node">
<title>Node14</title>
<g id="a_Node000014"><a xlink:href="namespaceshared.html#a6955b6b671ef8b660a0d6ed018712923" target="_top" xlink:title="Resolve wildcard patterns.">
<polygon fill="white" stroke="#666666" points="345.38,-476 258.12,-476 258.12,-456 345.38,-456 345.38,-476"/>
<text text-anchor="middle" x="301.75" y="-462.5" font-family="Helvetica,sans-Serif" font-size="10.00">shared::wildcard</text>
</a>
</g>
</g>
<!-- Node4&#45;&gt;Node14 -->
<g id="edge16_Node000004_Node000014" class="edge">
<title>Node4&#45;&gt;Node14</title>
<g id="a_edge16_Node000004_Node000014"><a xlink:title=" ">
<path fill="none" stroke="#63b8ff" d="M187.21,-400.49C204.91,-411.08 233.13,-427.86 257.75,-442 262.29,-444.61 267.13,-447.35 271.85,-450"/>
<polygon fill="#63b8ff" stroke="#63b8ff" points="270.1,-453.03 280.53,-454.85 273.51,-446.92 270.1,-453.03"/>
</a>
</g>
</g>
<!-- Node6 -->
<g id="Node000006" class="node">
<title>Node6</title>
<g id="a_Node000006"><a xlink:href="namespaceshared.html#ab11bf98c12a2bf0ae3adca902e57befd" target="_top" xlink:title="Extend a container in place.">
<polygon fill="white" stroke="#666666" points="469,-400 388.5,-400 388.5,-380 469,-380 469,-400"/>
<text text-anchor="middle" x="428.75" y="-386.5" font-family="Helvetica,sans-Serif" font-size="10.00">shared::extend</text>
</a>
</g>
</g>
<!-- Node5&#45;&gt;Node6 -->
<g id="edge5_Node000005_Node000006" class="edge">
<title>Node5&#45;&gt;Node6</title>
<g id="a_edge5_Node000005_Node000006"><a xlink:title=" ">
<path fill="none" stroke="#63b8ff" d="M339.58,-390C351.27,-390 364.41,-390 376.9,-390"/>
<polygon fill="#63b8ff" stroke="#63b8ff" points="376.62,-393.5 386.62,-390 376.62,-386.5 376.62,-393.5"/>
</a>
</g>
</g>
<!-- Node7&#45;&gt;Node2 -->
<g id="edge8_Node000007_Node000002" class="edge">
<title>Node7&#45;&gt;Node2</title>
<g id="a_edge8_Node000007_Node000002"><a xlink:title=" ">
<path fill="none" stroke="#63b8ff" d="M456.66,-533.43C473.38,-539.91 495.11,-548.34 513.5,-555.47"/>
<polygon fill="#63b8ff" stroke="#63b8ff" points="512.17,-558.7 522.75,-559.05 514.7,-552.17 512.17,-558.7"/>
</a>
</g>
</g>
<!-- Node8 -->
<g id="Node000008" class="node">
<title>Node8</title>
<g id="a_Node000008"><a xlink:href="namespaceshared.html#a690cc836408825d804377522d9d99a07" target="_top" xlink:title="Split a string.">
<polygon fill="white" stroke="#666666" points="592.25,-533 511.75,-533 511.75,-513 592.25,-513 592.25,-533"/>
<text text-anchor="middle" x="552" y="-519.5" font-family="Helvetica,sans-Serif" font-size="10.00">shared::splitter</text>
</a>
</g>
</g>
<!-- Node7&#45;&gt;Node8 -->
<g id="edge9_Node000007_Node000008" class="edge">
<title>Node7&#45;&gt;Node8</title>
<g id="a_edge9_Node000007_Node000008"><a xlink:title=" ">
<path fill="none" stroke="#63b8ff" d="M475.94,-523C483.76,-523 491.92,-523 499.87,-523"/>
<polygon fill="#63b8ff" stroke="#63b8ff" points="499.76,-526.5 509.76,-523 499.76,-519.5 499.76,-526.5"/>
</a>
</g>
</g>
<!-- Node9 -->
<g id="Node000009" class="node">
<title>Node9</title>
<g id="a_Node000009"><a xlink:href="namespaceshared.html#a6282d0d8d2ab3f70038d7428729c15ca" target="_top" xlink:title="Escape a string.">
<polygon fill="white" stroke="#666666" points="711,-533 628.25,-533 628.25,-513 711,-513 711,-533"/>
<text text-anchor="middle" x="669.62" y="-519.5" font-family="Helvetica,sans-Serif" font-size="10.00">shared::escape</text>
</a>
</g>
</g>
<!-- Node8&#45;&gt;Node9 -->
<g id="edge10_Node000008_Node000009" class="edge">
<title>Node8&#45;&gt;Node9</title>
<g id="a_edge10_Node000008_Node000009"><a xlink:title=" ">
<path fill="none" stroke="#63b8ff" d="M592.47,-523C600.21,-523 608.43,-523 616.51,-523"/>
<polygon fill="#63b8ff" stroke="#63b8ff" points="616.25,-526.5 626.25,-523 616.25,-519.5 616.25,-526.5"/>
</a>
</g>
</g>
<!-- Node13&#45;&gt;Node7 -->
<g id="edge15_Node000013_Node000007" class="edge">
<title>Node13&#45;&gt;Node7</title>
<g id="a_edge15_Node000013_Node000007"><a xlink:title=" ">
<path fill="none" stroke="#63b8ff" d="M345.07,-535.57C353.24,-534.32 361.94,-533 370.49,-531.7"/>
<polygon fill="#63b8ff" stroke="#63b8ff" points="370.76,-535.2 380.12,-530.24 369.71,-528.28 370.76,-535.2"/>
</a>
</g>
</g>
<!-- Node14&#45;&gt;Node3 -->
<g id="edge17_Node000014_Node000003" class="edge">
<title>Node14&#45;&gt;Node3</title>
<g id="a_edge17_Node000014_Node000003"><a xlink:title=" ">
<path fill="none" stroke="#63b8ff" d="M337.24,-455.52C351.31,-451.24 367.77,-446.23 382.77,-441.67"/>
<polygon fill="#63b8ff" stroke="#63b8ff" points="383.38,-445.15 391.93,-438.89 381.34,-438.45 383.38,-445.15"/>
</a>
</g>
</g>
<!-- Node14&#45;&gt;Node7 -->
<g id="edge18_Node000014_Node000007" class="edge">
<title>Node14&#45;&gt;Node7</title>
<g id="a_edge18_Node000014_Node000007"><a xlink:title=" ">
<path fill="none" stroke="#63b8ff" d="M325.68,-476.45C344.97,-485.25 372.81,-497.95 394.55,-507.86"/>
<polygon fill="#63b8ff" stroke="#63b8ff" points="393.04,-511.02 403.59,-511.98 395.94,-504.65 393.04,-511.02"/>
</a>
</g>
</g>
</g>
</svg>
