<?xml version="1.0" encoding="UTF-8" standalone="no"?>
<!DOCTYPE svg PUBLIC "-//W3C//DTD SVG 1.1//EN"
 "http://www.w3.org/Graphics/SVG/1.1/DTD/svg11.dtd">
<!-- Generated by graphviz version 12.2.1 (0)
 -->
<!-- Title: shared::one_line Pages: 1 -->
<svg width="349pt" height="78pt"
 viewBox="0.00 0.00 348.50 78.00" xmlns="http://www.w3.org/2000/svg" xmlns:xlink="http://www.w3.org/1999/xlink">
<g id="graph0" class="graph" transform="scale(1 1) rotate(0) translate(4 74)">
<title>shared::one_line</title>
<!-- Node1 -->
<g id="Node000001" class="node">
<title>Node1</title>
<g id="a_Node000001"><a xlink:title="A Blocking Parser that returns the first line of output.">
<polygon fill="#999999" stroke="#666666" points="340.5,-48 253.25,-48 253.25,-28 340.5,-28 340.5,-48"/>
<text text-anchor="middle" x="296.88" y="-34.5" font-family="Helvetica,sans-Serif" font-size="10.00">shared::one_line</text>
</a>
</g>
</g>
<!-- Node2 -->
<g id="Node000002" class="node">
<title>Node2</title>
<g id="a_Node000002"><a xlink:href="namespacebinaries.html#ac1478c81b2eb2c4ecdba98e92c4e7651" target="_top" xlink:title="Parse a binary to determine dependencies.">
<polygon fill="white" stroke="#666666" points="217.25,-48 137.5,-48 137.5,-28 217.25,-28 217.25,-48"/>
<text text-anchor="middle" x="177.38" y="-34.5" font-family="Helvetica,sans-Serif" font-size="10.00">binaries::parse</text>
</a>
</g>
</g>
<!-- Node1&#45;&gt;Node2 -->
<g id="edge1_Node000001_Node000002" class="edge">
<title>Node1&#45;&gt;Node2</title>
<g id="a_edge1_Node000001_Node000002"><a xlink:title=" ">
<path fill="none" stroke="#63b8ff" d="M241.51,-38C233.43,-38 225.25,-38 217.56,-38"/>
<polygon fill="#63b8ff" stroke="#63b8ff" points="241.28,-41.5 251.28,-38 241.28,-34.5 241.28,-41.5"/>
</a>
</g>
</g>
<!-- Node2&#45;&gt;Node2 -->
<g id="edge3_Node000002_Node000002" class="edge">
<title>Node2&#45;&gt;Node2</title>
<g id="a_edge3_Node000002_Node000002"><a xlink:title=" ">
<path fill="none" stroke="#63b8ff" d="M198.5,-59.44C195.78,-63.3 188.73,-66 177.38,-66 156.6,-66 150.27,-56.98 158.39,-48.34"/>
<polygon fill="#63b8ff" stroke="#63b8ff" points="201.97,-58.98 196.65,-49.82 195.1,-60.31 201.97,-58.98"/>
</a>
</g>
</g>
<!-- Node3 -->
<g id="Node000003" class="node">
<title>Node3</title>
<g id="a_Node000003"><a xlink:href="namespacegenerate.html#a38dcdfdf9293b8aafe77392021d65019" target="_top" xlink:title="Generate the bulk of the main program command.">
<polygon fill="white" stroke="#666666" points="89.88,-70 11.62,-70 11.62,-50 89.88,-50 89.88,-70"/>
<text text-anchor="middle" x="50.75" y="-56.5" font-family="Helvetica,sans-Serif" font-size="10.00">generate::cmd</text>
</a>
</g>
</g>
<!-- Node2&#45;&gt;Node3 -->
<g id="edge2_Node000002_Node000003" class="edge">
<title>Node2&#45;&gt;Node3</title>
<g id="a_edge2_Node000002_Node000003"><a xlink:title=" ">
<path fill="none" stroke="#63b8ff" d="M126.09,-46.88C114.15,-48.99 101.59,-51.2 90.27,-53.2"/>
<polygon fill="#63b8ff" stroke="#63b8ff" points="126.56,-50.35 135.79,-45.16 125.34,-43.46 126.56,-50.35"/>
</a>
</g>
</g>
<!-- Node4 -->
<g id="Node000004" class="node">
<title>Node4</title>
<g id="a_Node000004"><a xlink:href="namespacegenerate.html#a5c0026523dd30f942c55ad25f1b607b4" target="_top" xlink:title="Spawn an instance of the xdg&#45;dbus&#45;proxy for the application instance.">
<polygon fill="white" stroke="#666666" points="101.5,-32 0,-32 0,0 101.5,0 101.5,-32"/>
<text text-anchor="start" x="8" y="-18.5" font-family="Helvetica,sans-Serif" font-size="10.00">generate::xdg_dbus</text>
<text text-anchor="middle" x="50.75" y="-6.5" font-family="Helvetica,sans-Serif" font-size="10.00">_proxy</text>
</a>
</g>
</g>
<!-- Node2&#45;&gt;Node4 -->
<g id="edge4_Node000002_Node000004" class="edge">
<title>Node2&#45;&gt;Node4</title>
<g id="a_edge4_Node000002_Node000004"><a xlink:title=" ">
<path fill="none" stroke="#63b8ff" d="M126.14,-29.13C118.09,-27.71 109.75,-26.24 101.7,-24.82"/>
<polygon fill="#63b8ff" stroke="#63b8ff" points="125.34,-32.54 135.79,-30.84 126.56,-25.65 125.34,-32.54"/>
</a>
</g>
</g>
</g>
</svg>
