<?xml version="1.0" encoding="UTF-8" standalone="no"?>
<!DOCTYPE svg PUBLIC "-//W3C//DTD SVG 1.1//EN"
 "http://www.w3.org/Graphics/SVG/1.1/DTD/svg11.dtd">
<!-- Generated by graphviz version 12.2.1 (0)
 -->
<!-- Title: syscalls::update_policy Pages: 1 -->
<svg width="234pt" height="122pt"
 viewBox="0.00 0.00 234.25 122.00" xmlns="http://www.w3.org/2000/svg" xmlns:xlink="http://www.w3.org/1999/xlink">
<g id="graph0" class="graph" transform="scale(1 1) rotate(0) translate(4 118)">
<title>syscalls::update_policy</title>
<!-- Node1 -->
<g id="Node000001" class="node">
<title>Node1</title>
<g id="a_Node000001"><a xlink:title="Append an existing policy with newly discovered syscalls.">
<polygon fill="#999999" stroke="#666666" points="118,-58 0,-58 0,-38 118,-38 118,-58"/>
<text text-anchor="middle" x="59" y="-44.5" font-family="Helvetica,sans-Serif" font-size="10.00">syscalls::update_policy</text>
</a>
</g>
</g>
<!-- Node2 -->
<g id="Node000002" class="node">
<title>Node2</title>
<g id="a_Node000002"><a xlink:href="namespaceshared.html#a4a708359d4c8dbeeaa8b744eec56c0e5" target="_top" xlink:title="Hash a string.">
<polygon fill="white" stroke="#666666" points="226.25,-96 154,-96 154,-76 226.25,-76 226.25,-96"/>
<text text-anchor="middle" x="190.12" y="-82.5" font-family="Helvetica,sans-Serif" font-size="10.00">shared::hash</text>
</a>
</g>
</g>
<!-- Node1&#45;&gt;Node2 -->
<g id="edge1_Node000001_Node000002" class="edge">
<title>Node1&#45;&gt;Node2</title>
<g id="a_edge1_Node000001_Node000002"><a xlink:title=" ">
<path fill="none" stroke="#63b8ff" d="M95.63,-58.48C110.16,-62.76 127.17,-67.77 142.66,-72.33"/>
<polygon fill="#63b8ff" stroke="#63b8ff" points="141.58,-75.66 152.16,-75.12 143.56,-68.94 141.58,-75.66"/>
</a>
</g>
</g>
<!-- Node3 -->
<g id="Node000003" class="node">
<title>Node3</title>
<g id="a_Node000003"><a xlink:href="namespaceshared.html#a2f7cb04abbe01ba7193f2d2a6d520355" target="_top" xlink:title="Join a vector into a string.">
<polygon fill="white" stroke="#666666" points="223.25,-58 157,-58 157,-38 223.25,-38 223.25,-58"/>
<text text-anchor="middle" x="190.12" y="-44.5" font-family="Helvetica,sans-Serif" font-size="10.00">shared::join</text>
</a>
</g>
</g>
<!-- Node1&#45;&gt;Node3 -->
<g id="edge3_Node000001_Node000003" class="edge">
<title>Node1&#45;&gt;Node3</title>
<g id="a_edge3_Node000001_Node000003"><a xlink:title=" ">
<path fill="none" stroke="#63b8ff" d="M118.14,-48C127.25,-48 136.54,-48 145.26,-48"/>
<polygon fill="#63b8ff" stroke="#63b8ff" points="145.22,-51.5 155.22,-48 145.22,-44.5 145.22,-51.5"/>
</a>
</g>
</g>
<!-- Node4 -->
<g id="Node000004" class="node">
<title>Node4</title>
<g id="a_Node000004"><a xlink:href="namespaceshared.html#a99724c73af55fa92ae29fee700152917" target="_top" xlink:title="Log output to console, if verbose.">
<polygon fill="white" stroke="#666666" points="222.12,-20 158.12,-20 158.12,0 222.12,0 222.12,-20"/>
<text text-anchor="middle" x="190.12" y="-6.5" font-family="Helvetica,sans-Serif" font-size="10.00">shared::log</text>
</a>
</g>
</g>
<!-- Node1&#45;&gt;Node4 -->
<g id="edge4_Node000001_Node000004" class="edge">
<title>Node1&#45;&gt;Node4</title>
<g id="a_edge4_Node000001_Node000004"><a xlink:title=" ">
<path fill="none" stroke="#63b8ff" d="M95.63,-37.52C111.67,-32.79 130.72,-27.19 147.42,-22.27"/>
<polygon fill="#63b8ff" stroke="#63b8ff" points="147.95,-25.77 156.56,-19.58 145.97,-19.05 147.95,-25.77"/>
</a>
</g>
</g>
<!-- Node2&#45;&gt;Node2 -->
<g id="edge2_Node000002_Node000002" class="edge">
<title>Node2&#45;&gt;Node2</title>
<g id="a_edge2_Node000002_Node000002"><a xlink:title=" ">
<path fill="none" stroke="#63b8ff" d="M169.29,-96.34C160.39,-104.98 167.33,-114 190.12,-114 202.59,-114 210.32,-111.3 213.3,-107.44"/>
<polygon fill="#63b8ff" stroke="#63b8ff" points="216.76,-106.88 211.27,-97.82 209.91,-108.33 216.76,-106.88"/>
</a>
</g>
</g>
</g>
</svg>
