<?xml version="1.0" encoding="UTF-8" standalone="no"?>
<!DOCTYPE svg PUBLIC "-//W3C//DTD SVG 1.1//EN"
 "http://www.w3.org/Graphics/SVG/1.1/DTD/svg11.dtd">
<!-- Generated by graphviz version 12.2.1 (0)
 -->
<!-- Title: generate::xdg_dbus_proxy Pages: 1 -->
<!--zoomable 933 -->

<svg id="main" version="1.1" xmlns="http://www.w3.org/2000/svg" xmlns:xlink="http://www.w3.org/1999/xlink" xml:space="preserve" onload="init(evt)">

<style type="text/css"><![CDATA[
.node, .edge {opacity: 0.7;}
.node.selected, .edge.selected {opacity: 1;}
.edge:hover path { stroke: red; }
.edge:hover polygon { stroke: red; fill: red; }
]]></style>

<defs>
  <circle id="rim" cx="0" cy="0" r="7"/>
  <circle id="rim2" cx="0" cy="0" r="3.5"/>
  <g id="zoomPlus">
    <use xlink:href="#rim" fill="#404040"><set attributeName="fill" to="#808080" begin="zoomplus.mouseover" end="zoomplus.mouseout"/></use>
    <path d="M-4,0h8M0,-4v8" fill="none" stroke="white" stroke-width="1.5" pointer-events="none"/>
  </g>
  <g id="zoomMin">
    <use xlink:href="#rim" fill="#404040"><set attributeName="fill" to="#808080" begin="zoomminus.mouseover" end="zoomminus.mouseout"/></use>
    <path d="M-4,0h8" fill="none" stroke="white" stroke-width="1.5" pointer-events="none"/>
  </g>
  <g id="arrowUp" transform="translate(30 24)">
    <use xlink:href="#rim"/>
    <path pointer-events="none" fill="none" stroke="white" stroke-width="1.5" d="M0,-3.0v7 M-2.5,-0.5L0,-3.0L2.5,-0.5"/>
  </g>
  <g id="arrowRight" transform="rotate(90) translate(36 -43)">
    <use xlink:href="#rim"/>
    <path pointer-events="none" fill="none" stroke="white" stroke-width="1.5" d="M0,-3.0v7 M-2.5,-0.5L0,-3.0L2.5,-0.5"/>
  </g>
  <g id="arrowDown" transform="rotate(180) translate(-30 -48)">
    <use xlink:href="#rim"/>
    <path pointer-events="none" fill="none" stroke="white" stroke-width="1.5" d="M0,-3.0v7 M-2.5,-0.5L0,-3.0L2.5,-0.5"/>
  </g>
  <g id="arrowLeft" transform="rotate(270) translate(-36 17)">
    <use xlink:href="#rim"/>
    <path pointer-events="none" fill="none" stroke="white" stroke-width="1.5" d="M0,-3.0v7 M-2.5,-0.5L0,-3.0L2.5,-0.5"/>
  </g>
  <g id="resetDef">
    <use xlink:href="#rim2" fill="#404040"><set attributeName="fill" to="#808080" begin="reset.mouseover" end="reset.mouseout"/></use>
  </g>
</defs>
<script type="application/ecmascript">
var viewWidth = 937;
var viewHeight = 933;
var sectionId = 'dynsection-5';
</script>
<script type="application/ecmascript" xlink:href="svg.min.js"/>
<svg id="graph" class="graph">
<g id="viewport">
<title>generate::xdg_dbus_proxy</title>
<!-- Node1 -->
<g id="Node000001" class="node">
<title>Node1</title>
<g id="a_Node000001"><a xlink:title="Spawn an instance of the xdg&#45;dbus&#45;proxy for the application instance.">
<polygon fill="#999999" stroke="#666666" points="101.5,-361 0,-361 0,-329 101.5,-329 101.5,-361"/>
<text text-anchor="start" x="8" y="-347.5" font-family="Helvetica,sans-Serif" font-size="10.00">generate::xdg_dbus</text>
<text text-anchor="middle" x="50.75" y="-335.5" font-family="Helvetica,sans-Serif" font-size="10.00">_proxy</text>
</a>
</g>
</g>
<!-- Node2 -->
<g id="Node000002" class="node">
<title>Node2</title>
<g id="a_Node000002"><a xlink:href="namespaceshared.html#a585cdabc1b4758c65001d7dd03cb6715" target="_top" xlink:title="Execute stuff.">
<polygon fill="white" stroke="#666666" points="682.62,-431 610.38,-431 610.38,-411 682.62,-411 682.62,-431"/>
<text text-anchor="middle" x="646.5" y="-417.5" font-family="Helvetica,sans-Serif" font-size="10.00">shared::exec</text>
</a>
</g>
</g>
<!-- Node1&#45;&gt;Node2 -->
<g id="edge1_Node000001_Node000002" class="edge">
<title>Node1&#45;&gt;Node2</title>
<g id="a_edge1_Node000001_Node000002"><a xlink:title=" ">
<path fill="none" stroke="#63b8ff" d="M56.08,-361.48C66.21,-398.15 93.97,-488.37 137.5,-553 205.18,-653.49 219.86,-698.14 332,-744 375.61,-761.83 396.65,-766.58 438,-744 560.86,-676.9 621.79,-502.49 639.72,-442.01"/>
<polygon fill="#63b8ff" stroke="#63b8ff" points="643,-443.24 642.4,-432.66 636.28,-441.31 643,-443.24"/>
</a>
</g>
</g>
<!-- Node3 -->
<g id="Node000003" class="node">
<title>Node3</title>
<g id="a_Node000003"><a xlink:href="namespaceshared.html#ab11bf98c12a2bf0ae3adca902e57befd" target="_top" xlink:title="Extend a container in place.">
<polygon fill="white" stroke="#666666" points="686.75,-868 606.25,-868 606.25,-848 686.75,-848 686.75,-868"/>
<text text-anchor="middle" x="646.5" y="-854.5" font-family="Helvetica,sans-Serif" font-size="10.00">shared::extend</text>
</a>
</g>
</g>
<!-- Node1&#45;&gt;Node3 -->
<g id="edge2_Node000001_Node000003" class="edge">
<title>Node1&#45;&gt;Node3</title>
<g id="a_edge2_Node000001_Node000003"><a xlink:title=" ">
<path fill="none" stroke="#63b8ff" d="M51.99,-361.48C53.49,-440.31 64.19,-777.86 137.5,-845 202.92,-904.91 479.02,-878.72 594.45,-864.73"/>
<polygon fill="#63b8ff" stroke="#63b8ff" points="594.76,-868.22 604.25,-863.52 593.9,-861.27 594.76,-868.22"/>
</a>
</g>
</g>
<!-- Node4 -->
<g id="Node000004" class="node">
<title>Node4</title>
<g id="a_Node000004"><a xlink:href="namespacelibraries.html#a4dfd6ab45adf8dc18ea57bc1f88eaedf" target="_top" xlink:title="Recursively resolve all shared&#45;libraries needed by a library.">
<polygon fill="white" stroke="#666666" points="419.62,-355 350.38,-355 350.38,-335 419.62,-335 419.62,-355"/>
<text text-anchor="middle" x="385" y="-341.5" font-family="Helvetica,sans-Serif" font-size="10.00">libraries::get</text>
</a>
</g>
</g>
<!-- Node1&#45;&gt;Node4 -->
<g id="edge3_Node000001_Node000004" class="edge">
<title>Node1&#45;&gt;Node4</title>
<g id="a_edge3_Node000001_Node000004"><a xlink:title=" ">
<path fill="none" stroke="#63b8ff" d="M101.85,-345C166.23,-345 277.03,-345 338.89,-345"/>
<polygon fill="#63b8ff" stroke="#63b8ff" points="338.7,-348.5 348.7,-345 338.7,-341.5 338.7,-348.5"/>
</a>
</g>
</g>
<!-- Node11 -->
<g id="Node000011" class="node">
<title>Node11</title>
<g id="a_Node000011"><a xlink:href="namespaceshared.html#a99724c73af55fa92ae29fee700152917" target="_top" xlink:title="Log output to console, if verbose.">
<polygon fill="white" stroke="#666666" points="550.75,-203 486.75,-203 486.75,-183 550.75,-183 550.75,-203"/>
<text text-anchor="middle" x="518.75" y="-189.5" font-family="Helvetica,sans-Serif" font-size="10.00">shared::log</text>
</a>
</g>
</g>
<!-- Node1&#45;&gt;Node11 -->
<g id="edge21_Node000001_Node000011" class="edge">
<title>Node1&#45;&gt;Node11</title>
<g id="a_edge21_Node000001_Node000011"><a xlink:title=" ">
<path fill="none" stroke="#63b8ff" d="M54.95,-328.51C62.59,-293.91 85.26,-213.67 137.5,-174 191.11,-133.29 373.9,-115.45 438,-136 461.89,-143.66 484.71,-161.4 499.77,-175.07"/>
<polygon fill="#63b8ff" stroke="#63b8ff" points="497.31,-177.56 506.98,-181.89 502.12,-172.47 497.31,-177.56"/>
</a>
</g>
</g>
<!-- Node12 -->
<g id="Node000012" class="node">
<title>Node12</title>
<g id="a_Node000012"><a xlink:href="namespaceshared.html#afac154f1bef460ef6f24705f6c033f37" target="_top" xlink:title="Read a file.">
<polygon fill="white" stroke="#666666" points="562.75,-469 474.75,-469 474.75,-449 562.75,-449 562.75,-469"/>
<text text-anchor="middle" x="518.75" y="-455.5" font-family="Helvetica,sans-Serif" font-size="10.00">shared::read_file</text>
</a>
</g>
</g>
<!-- Node1&#45;&gt;Node12 -->
<g id="edge37_Node000001_Node000012" class="edge">
<title>Node1&#45;&gt;Node12</title>
<g id="a_edge37_Node000001_Node000012"><a xlink:title=" ">
<path fill="none" stroke="#63b8ff" d="M101.62,-357.2C189.88,-378.79 372.87,-423.56 463.9,-445.83"/>
<polygon fill="#63b8ff" stroke="#63b8ff" points="463.04,-449.22 473.59,-448.2 464.7,-442.42 463.04,-449.22"/>
</a>
</g>
</g>
<!-- Node13 -->
<g id="Node000013" class="node">
<title>Node13</title>
<g id="a_Node000013"><a xlink:href="namespaceshared.html#a219683cbcfb575bb29797638cadafb7b" target="_top" xlink:title="A Blocking Parser that splits the output into a set.">
<polygon fill="white" stroke="#666666" points="561.62,-241 475.88,-241 475.88,-221 561.62,-221 561.62,-241"/>
<text text-anchor="middle" x="518.75" y="-227.5" font-family="Helvetica,sans-Serif" font-size="10.00">shared::setorize</text>
</a>
</g>
</g>
<!-- Node1&#45;&gt;Node13 -->
<g id="edge38_Node000001_Node000013" class="edge">
<title>Node1&#45;&gt;Node13</title>
<g id="a_edge38_Node000001_Node000013"><a xlink:title=" ">
<path fill="none" stroke="#63b8ff" d="M101.62,-332.8C190,-311.18 373.33,-266.33 464.24,-244.09"/>
<polygon fill="#63b8ff" stroke="#63b8ff" points="465.03,-247.5 473.92,-241.72 463.37,-240.7 465.03,-247.5"/>
</a>
</g>
</g>
<!-- Node15 -->
<g id="Node000015" class="node">
<title>Node15</title>
<g id="a_Node000015"><a xlink:href="classshared_1_1TemporaryDirectory.html#a587043a975ec1bb3cb6ce6a663285730" target="_top" xlink:title="Return the path to the directory.">
<polygon fill="white" stroke="#666666" points="285.12,-108 148.38,-108 148.38,-76 285.12,-76 285.12,-108"/>
<text text-anchor="start" x="156.38" y="-94.5" font-family="Helvetica,sans-Serif" font-size="10.00">shared::TemporaryDirectory</text>
<text text-anchor="middle" x="216.75" y="-82.5" font-family="Helvetica,sans-Serif" font-size="10.00">::get_path</text>
</a>
</g>
</g>
<!-- Node1&#45;&gt;Node15 -->
<g id="edge19_Node000001_Node000015" class="edge">
<title>Node1&#45;&gt;Node15</title>
<g id="a_edge19_Node000001_Node000015"><a xlink:title=" ">
<path fill="none" stroke="#63b8ff" d="M53.52,-328.54C58.73,-287.9 77.64,-181.8 137.5,-122 140.31,-119.19 143.42,-116.64 146.72,-114.32"/>
<polygon fill="#63b8ff" stroke="#63b8ff" points="148.45,-117.37 155.17,-109.18 144.81,-111.39 148.45,-117.37"/>
</a>
</g>
</g>
<!-- Node16 -->
<g id="Node000016" class="node">
<title>Node16</title>
<g id="a_Node000016"><a xlink:href="namespaceshared.html#a1f0e43f0520bfb104be776b21ea446ad" target="_top" xlink:title="A Non&#45;Blocking Parser that returns the PID.">
<polygon fill="white" stroke="#666666" points="258.12,-58 175.38,-58 175.38,-38 258.12,-38 258.12,-58"/>
<text text-anchor="middle" x="216.75" y="-44.5" font-family="Helvetica,sans-Serif" font-size="10.00">shared::get_pid</text>
</a>
</g>
</g>
<!-- Node1&#45;&gt;Node16 -->
<g id="edge20_Node000001_Node000016" class="edge">
<title>Node1&#45;&gt;Node16</title>
<g id="a_edge20_Node000001_Node000016"><a xlink:title=" ">
<path fill="none" stroke="#63b8ff" d="M51.58,-328.68C52,-280.86 60.06,-139.85 137.5,-67 144.82,-60.11 154.21,-55.59 163.92,-52.66"/>
<polygon fill="#63b8ff" stroke="#63b8ff" points="164.57,-56.1 173.46,-50.33 162.92,-49.3 164.57,-56.1"/>
</a>
</g>
</g>
<!-- Node17 -->
<g id="Node000017" class="node">
<title>Node17</title>
<g id="a_Node000017"><a xlink:href="namespacebinaries.html#ac1478c81b2eb2c4ecdba98e92c4e7651" target="_top" xlink:title="Parse a binary to determine dependencies.">
<polygon fill="white" stroke="#666666" points="256.62,-526 176.88,-526 176.88,-506 256.62,-506 256.62,-526"/>
<text text-anchor="middle" x="216.75" y="-512.5" font-family="Helvetica,sans-Serif" font-size="10.00">binaries::parse</text>
</a>
</g>
</g>
<!-- Node1&#45;&gt;Node17 -->
<g id="edge22_Node000001_Node000017" class="edge">
<title>Node1&#45;&gt;Node17</title>
<g id="a_edge22_Node000001_Node000017"><a xlink:title=" ">
<path fill="none" stroke="#63b8ff" d="M67.48,-361.4C98.24,-393.47 166.17,-464.3 198.28,-497.79"/>
<polygon fill="#63b8ff" stroke="#63b8ff" points="195.48,-499.93 204.93,-504.72 200.54,-495.08 195.48,-499.93"/>
</a>
</g>
</g>
<!-- Node24 -->
<g id="Node000024" class="node">
<title>Node24</title>
<g id="a_Node000024"><a xlink:href="namespacelibraries.html#adb180a16d1881d4ca1da44e7e3512cc5" target="_top" xlink:title="Setup an SOF directory.">
<polygon fill="white" stroke="#666666" points="256.62,-203 176.88,-203 176.88,-183 256.62,-183 256.62,-203"/>
<text text-anchor="middle" x="216.75" y="-189.5" font-family="Helvetica,sans-Serif" font-size="10.00">libraries::setup</text>
</a>
</g>
</g>
<!-- Node1&#45;&gt;Node24 -->
<g id="edge39_Node000001_Node000024" class="edge">
<title>Node1&#45;&gt;Node24</title>
<g id="a_edge39_Node000001_Node000024"><a xlink:title=" ">
<path fill="none" stroke="#63b8ff" d="M65.98,-328.74C82.5,-310.19 110.88,-279.3 137.5,-255 155.1,-238.94 176.36,-222.25 192.28,-210.24"/>
<polygon fill="#63b8ff" stroke="#63b8ff" points="194.29,-213.1 200.2,-204.31 190.1,-207.5 194.29,-213.1"/>
</a>
</g>
</g>
<!-- Node26 -->
<g id="Node000026" class="node">
<title>Node26</title>
<g id="a_Node000026"><a xlink:href="classshared_1_1TemporaryDirectory.html#adc4a1c0954915b3208e0de0fee6846c9" target="_top" xlink:title="Create a subdirectory/file in the temp dir.">
<polygon fill="white" stroke="#666666" points="296,-20 137.5,-20 137.5,0 296,0 296,-20"/>
<text text-anchor="middle" x="216.75" y="-6.5" font-family="Helvetica,sans-Serif" font-size="10.00">shared::TemporaryDirectory::sub</text>
</a>
</g>
</g>
<!-- Node1&#45;&gt;Node26 -->
<g id="edge42_Node000001_Node000026" class="edge">
<title>Node1&#45;&gt;Node26</title>
<g id="a_edge42_Node000001_Node000026"><a xlink:title=" ">
<path fill="none" stroke="#63b8ff" d="M53.98,-328.63C62.28,-270.07 93.21,-72.12 137.5,-29 138.27,-28.25 139.06,-27.53 139.87,-26.84"/>
<polygon fill="#63b8ff" stroke="#63b8ff" points="141.78,-29.78 148.08,-21.25 137.84,-23.99 141.78,-29.78"/>
</a>
</g>
</g>
<!-- Node27 -->
<g id="Node000027" class="node">
<title>Node27</title>
<g id="a_Node000027"><a xlink:href="namespacebinaries.html#a3dceb9be58009eef337fd18d7ee738d4" target="_top" xlink:title="Symlink to /usr/bin.">
<polygon fill="white" stroke="#666666" points="563.5,-849 474,-849 474,-829 563.5,-829 563.5,-849"/>
<text text-anchor="middle" x="518.75" y="-835.5" font-family="Helvetica,sans-Serif" font-size="10.00">binaries::symlink</text>
</a>
</g>
</g>
<!-- Node1&#45;&gt;Node27 -->
<g id="edge43_Node000001_Node000027" class="edge">
<title>Node1&#45;&gt;Node27</title>
<g id="a_edge43_Node000001_Node000027"><a xlink:title=" ">
<path fill="none" stroke="#63b8ff" d="M52.15,-361.28C54.37,-436.92 67.76,-753 137.5,-815 184.13,-856.45 368.49,-849.85 462.3,-843.5"/>
<polygon fill="#63b8ff" stroke="#63b8ff" points="462.31,-847.01 472.04,-842.82 461.82,-840.03 462.31,-847.01"/>
</a>
</g>
</g>
<!-- Node28 -->
<g id="Node000028" class="node">
<title>Node28</title>
<g id="a_Node000028"><a xlink:href="namespacelibraries.html#aaf67d1825dab30fecb532ea92077ebe3" target="_top" xlink:title="Add symlink commands.">
<polygon fill="white" stroke="#666666" points="261.5,-925 172,-925 172,-905 261.5,-905 261.5,-925"/>
<text text-anchor="middle" x="216.75" y="-911.5" font-family="Helvetica,sans-Serif" font-size="10.00">libraries::symlink</text>
</a>
</g>
</g>
<!-- Node1&#45;&gt;Node28 -->
<g id="edge45_Node000001_Node000028" class="edge">
<title>Node1&#45;&gt;Node28</title>
<g id="a_edge45_Node000001_Node000028"><a xlink:title=" ">
<path fill="none" stroke="#63b8ff" d="M52.05,-361.27C53.91,-443.06 66.14,-808.73 137.5,-891 143.66,-898.1 151.85,-903.13 160.62,-906.69"/>
<polygon fill="#63b8ff" stroke="#63b8ff" points="159.48,-910 170.07,-909.86 161.71,-903.36 159.48,-910"/>
</a>
</g>
</g>
<!-- Node4&#45;&gt;Node2 -->
<g id="edge6_Node000004_Node000002" class="edge">
<title>Node4&#45;&gt;Node2</title>
<g id="a_edge6_Node000004_Node000002"><a xlink:title=" ">
<path fill="none" stroke="#63b8ff" d="M419.84,-343.72C456.43,-343.43 515.88,-346.24 563.5,-364 587.26,-372.86 610.64,-390.21 626.32,-403.45"/>
<polygon fill="#63b8ff" stroke="#63b8ff" points="623.63,-405.75 633.46,-409.68 628.23,-400.47 623.63,-405.75"/>
</a>
</g>
</g>
<!-- Node5 -->
<g id="Node000005" class="node">
<title>Node5</title>
<g id="a_Node000005"><a xlink:href="namespaceshared.html#a172747218de79644b5c263f15a0da631" target="_top" xlink:title="Batch multiple iterations of an accumulator function together, threaded.">
<polygon fill="white" stroke="#666666" points="556.38,-393 481.12,-393 481.12,-373 556.38,-373 556.38,-393"/>
<text text-anchor="middle" x="518.75" y="-379.5" font-family="Helvetica,sans-Serif" font-size="10.00">shared::batch</text>
</a>
</g>
</g>
<!-- Node4&#45;&gt;Node5 -->
<g id="edge4_Node000004_Node000005" class="edge">
<title>Node4&#45;&gt;Node5</title>
<g id="a_edge4_Node000004_Node000005"><a xlink:title=" ">
<path fill="none" stroke="#63b8ff" d="M419.93,-354.79C435.44,-359.26 454.07,-364.63 470.89,-369.48"/>
<polygon fill="#63b8ff" stroke="#63b8ff" points="469.6,-372.75 480.17,-372.16 471.54,-366.03 469.6,-372.75"/>
</a>
</g>
</g>
<!-- Node6 -->
<g id="Node000006" class="node">
<title>Node6</title>
<g id="a_Node000006"><a xlink:href="namespaceshared.html#a3736db9aa00bd9e0a56aeaf1057066c0" target="_top" xlink:title="Split the contents of an FD.">
<polygon fill="white" stroke="#666666" points="693.5,-298 599.5,-298 599.5,-278 693.5,-278 693.5,-298"/>
<text text-anchor="middle" x="646.5" y="-284.5" font-family="Helvetica,sans-Serif" font-size="10.00">shared::fd_splitter</text>
</a>
</g>
</g>
<!-- Node4&#45;&gt;Node6 -->
<g id="edge7_Node000004_Node000006" class="edge">
<title>Node4&#45;&gt;Node6</title>
<g id="a_edge7_Node000004_Node000006"><a xlink:title=" ">
<path fill="none" stroke="#63b8ff" d="M412.77,-334.55C421.14,-330.79 430.22,-326.18 438,-321 456.07,-308.98 453.77,-295.87 474,-288 510.02,-273.99 553.62,-274.19 587.84,-277.79"/>
<polygon fill="#63b8ff" stroke="#63b8ff" points="587.21,-281.24 597.56,-278.94 588.04,-274.29 587.21,-281.24"/>
</a>
</g>
</g>
<!-- Node10 -->
<g id="Node000010" class="node">
<title>Node10</title>
<g id="a_Node000010"><a xlink:href="namespaceshared.html#a2f7cb04abbe01ba7193f2d2a6d520355" target="_top" xlink:title="Join a vector into a string.">
<polygon fill="white" stroke="#666666" points="551.88,-431 485.62,-431 485.62,-411 551.88,-411 551.88,-431"/>
<text text-anchor="middle" x="518.75" y="-417.5" font-family="Helvetica,sans-Serif" font-size="10.00">shared::join</text>
</a>
</g>
</g>
<!-- Node4&#45;&gt;Node10 -->
<g id="edge11_Node000004_Node000010" class="edge">
<title>Node4&#45;&gt;Node10</title>
<g id="a_edge11_Node000004_Node000010"><a xlink:title=" ">
<path fill="none" stroke="#63b8ff" d="M412.77,-355.45C421.14,-359.21 430.22,-363.82 438,-369 456.07,-381.02 455.8,-390.18 474,-402 475.95,-403.27 478.01,-404.49 480.11,-405.65"/>
<polygon fill="#63b8ff" stroke="#63b8ff" points="478.32,-408.67 488.83,-410.02 481.46,-402.41 478.32,-408.67"/>
</a>
</g>
</g>
<!-- Node4&#45;&gt;Node11 -->
<g id="edge12_Node000004_Node000011" class="edge">
<title>Node4&#45;&gt;Node11</title>
<g id="a_edge12_Node000004_Node000011"><a xlink:title=" ">
<path fill="none" stroke="#63b8ff" d="M390.38,-334.54C401.13,-309.97 431.15,-247.94 474,-212 475.27,-210.94 476.61,-209.92 477.99,-208.96"/>
<polygon fill="#63b8ff" stroke="#63b8ff" points="479.52,-212.12 486.38,-204.05 475.98,-206.08 479.52,-212.12"/>
</a>
</g>
</g>
<!-- Node4&#45;&gt;Node12 -->
<g id="edge13_Node000004_Node000012" class="edge">
<title>Node4&#45;&gt;Node12</title>
<g id="a_edge13_Node000004_Node000012"><a xlink:title=" ">
<path fill="none" stroke="#63b8ff" d="M417.55,-355.48C424.87,-358.96 432.2,-363.41 438,-369 463.47,-393.55 448.25,-415.74 474,-440 474.9,-440.85 475.85,-441.67 476.84,-442.45"/>
<polygon fill="#63b8ff" stroke="#63b8ff" points="474.87,-445.35 485.17,-447.81 478.65,-439.46 474.87,-445.35"/>
</a>
</g>
</g>
<!-- Node4&#45;&gt;Node13 -->
<g id="edge14_Node000004_Node000013" class="edge">
<title>Node4&#45;&gt;Node13</title>
<g id="a_edge14_Node000004_Node000013"><a xlink:title=" ">
<path fill="none" stroke="#63b8ff" d="M417.16,-334.53C424.57,-331.03 432.05,-326.57 438,-321 462.4,-298.18 450.4,-278.66 474,-255 476.78,-252.22 479.94,-249.67 483.27,-247.35"/>
<polygon fill="#63b8ff" stroke="#63b8ff" points="484.91,-250.46 491.62,-242.26 481.26,-244.48 484.91,-250.46"/>
</a>
</g>
</g>
<!-- Node14 -->
<g id="Node000014" class="node">
<title>Node14</title>
<g id="a_Node000014"><a xlink:href="namespaceshared.html#a6955b6b671ef8b660a0d6ed018712923" target="_top" xlink:title="Resolve wildcard patterns.">
<polygon fill="white" stroke="#666666" points="562.38,-317 475.12,-317 475.12,-297 562.38,-297 562.38,-317"/>
<text text-anchor="middle" x="518.75" y="-303.5" font-family="Helvetica,sans-Serif" font-size="10.00">shared::wildcard</text>
</a>
</g>
</g>
<!-- Node4&#45;&gt;Node14 -->
<g id="edge16_Node000004_Node000014" class="edge">
<title>Node4&#45;&gt;Node14</title>
<g id="a_edge16_Node000004_Node000014"><a xlink:title=" ">
<path fill="none" stroke="#63b8ff" d="M419.93,-335.21C435.44,-330.74 454.07,-325.37 470.89,-320.52"/>
<polygon fill="#63b8ff" stroke="#63b8ff" points="471.54,-323.97 480.17,-317.84 469.6,-317.25 471.54,-323.97"/>
</a>
</g>
</g>
<!-- Node5&#45;&gt;Node3 -->
<g id="edge5_Node000005_Node000003" class="edge">
<title>Node5&#45;&gt;Node3</title>
<g id="a_edge5_Node000005_Node000003"><a xlink:title=" ">
<path fill="none" stroke="#63b8ff" d="M553.3,-393.27C557.17,-395.62 560.72,-398.49 563.5,-402 618.23,-471.15 639.36,-756.38 644.3,-836.8"/>
<polygon fill="#63b8ff" stroke="#63b8ff" points="640.78,-836.6 644.87,-846.38 647.77,-836.19 640.78,-836.6"/>
</a>
</g>
</g>
<!-- Node7 -->
<g id="Node000007" class="node">
<title>Node7</title>
<g id="a_Node000007"><a xlink:href="namespaceshared.html#a80f3b59804700742a5a0c6ea15bf24f9" target="_top" xlink:title="A Blocking Parser that returns the output in a single string.">
<polygon fill="white" stroke="#666666" points="807.38,-545 732.12,-545 732.12,-525 807.38,-525 807.38,-545"/>
<text text-anchor="middle" x="769.75" y="-531.5" font-family="Helvetica,sans-Serif" font-size="10.00">shared::dump</text>
</a>
</g>
</g>
<!-- Node6&#45;&gt;Node7 -->
<g id="edge8_Node000006_Node000007" class="edge">
<title>Node6&#45;&gt;Node7</title>
<g id="a_edge8_Node000006_Node000007"><a xlink:title=" ">
<path fill="none" stroke="#63b8ff" d="M652.56,-298.3C670.85,-335.57 733.83,-463.87 758.62,-514.36"/>
<polygon fill="#63b8ff" stroke="#63b8ff" points="755.46,-515.86 763.01,-523.3 761.74,-512.78 755.46,-515.86"/>
</a>
</g>
</g>
<!-- Node8 -->
<g id="Node000008" class="node">
<title>Node8</title>
<g id="a_Node000008"><a xlink:href="namespaceshared.html#a690cc836408825d804377522d9d99a07" target="_top" xlink:title="Split a string.">
<polygon fill="white" stroke="#666666" points="810,-298 729.5,-298 729.5,-278 810,-278 810,-298"/>
<text text-anchor="middle" x="769.75" y="-284.5" font-family="Helvetica,sans-Serif" font-size="10.00">shared::splitter</text>
</a>
</g>
</g>
<!-- Node6&#45;&gt;Node8 -->
<g id="edge9_Node000006_Node000008" class="edge">
<title>Node6&#45;&gt;Node8</title>
<g id="a_edge9_Node000006_Node000008"><a xlink:title=" ">
<path fill="none" stroke="#63b8ff" d="M693.69,-288C701.51,-288 709.67,-288 717.62,-288"/>
<polygon fill="#63b8ff" stroke="#63b8ff" points="717.51,-291.5 727.51,-288 717.51,-284.5 717.51,-291.5"/>
</a>
</g>
</g>
<!-- Node9 -->
<g id="Node000009" class="node">
<title>Node9</title>
<g id="a_Node000009"><a xlink:href="namespaceshared.html#a6282d0d8d2ab3f70038d7428729c15ca" target="_top" xlink:title="Escape a string.">
<polygon fill="white" stroke="#666666" points="928.75,-298 846,-298 846,-278 928.75,-278 928.75,-298"/>
<text text-anchor="middle" x="887.38" y="-284.5" font-family="Helvetica,sans-Serif" font-size="10.00">shared::escape</text>
</a>
</g>
</g>
<!-- Node8&#45;&gt;Node9 -->
<g id="edge10_Node000008_Node000009" class="edge">
<title>Node8&#45;&gt;Node9</title>
<g id="a_edge10_Node000008_Node000009"><a xlink:title=" ">
<path fill="none" stroke="#63b8ff" d="M810.22,-288C817.96,-288 826.18,-288 834.26,-288"/>
<polygon fill="#63b8ff" stroke="#63b8ff" points="834,-291.5 844,-288 834,-284.5 834,-291.5"/>
</a>
</g>
</g>
<!-- Node13&#45;&gt;Node6 -->
<g id="edge15_Node000013_Node000006" class="edge">
<title>Node13&#45;&gt;Node6</title>
<g id="a_edge15_Node000013_Node000006"><a xlink:title=" ">
<path fill="none" stroke="#63b8ff" d="M542.81,-241.45C562.22,-250.25 590.23,-262.95 612.1,-272.86"/>
<polygon fill="#63b8ff" stroke="#63b8ff" points="610.65,-276.05 621.2,-276.99 613.54,-269.67 610.65,-276.05"/>
</a>
</g>
</g>
<!-- Node14&#45;&gt;Node2 -->
<g id="edge17_Node000014_Node000002" class="edge">
<title>Node14&#45;&gt;Node2</title>
<g id="a_edge17_Node000014_Node000002"><a xlink:title=" ">
<path fill="none" stroke="#63b8ff" d="M542,-317.38C549.18,-321.2 556.96,-325.86 563.5,-331 590.21,-352.03 615.73,-382.15 631,-401.65"/>
<polygon fill="#63b8ff" stroke="#63b8ff" points="628.03,-403.53 636.9,-409.33 633.58,-399.26 628.03,-403.53"/>
</a>
</g>
</g>
<!-- Node14&#45;&gt;Node6 -->
<g id="edge18_Node000014_Node000006" class="edge">
<title>Node14&#45;&gt;Node6</title>
<g id="a_edge18_Node000014_Node000006"><a xlink:title=" ">
<path fill="none" stroke="#63b8ff" d="M562.67,-300.51C570.89,-299.27 579.61,-297.96 588.19,-296.66"/>
<polygon fill="#63b8ff" stroke="#63b8ff" points="588.47,-300.16 597.83,-295.2 587.42,-293.24 588.47,-300.16"/>
</a>
</g>
</g>
<!-- Node17&#45;&gt;Node2 -->
<g id="edge24_Node000017_Node000002" class="edge">
<title>Node17&#45;&gt;Node2</title>
<g id="a_edge24_Node000017_Node000002"><a xlink:title=" ">
<path fill="none" stroke="#63b8ff" d="M256.99,-514.12C335.29,-509.98 508.15,-498.74 563.5,-478 587.25,-469.1 610.63,-451.76 626.31,-438.53"/>
<polygon fill="#63b8ff" stroke="#63b8ff" points="628.22,-441.51 633.46,-432.31 623.62,-436.24 628.22,-441.51"/>
</a>
</g>
</g>
<!-- Node17&#45;&gt;Node4 -->
<g id="edge25_Node000017_Node000004" class="edge">
<title>Node17&#45;&gt;Node4</title>
<g id="a_edge25_Node000017_Node000004"><a xlink:title=" ">
<path fill="none" stroke="#63b8ff" d="M227.9,-505.56C255.33,-477.35 331.2,-399.31 366.06,-363.45"/>
<polygon fill="#63b8ff" stroke="#63b8ff" points="368.47,-366 372.93,-356.39 363.45,-361.12 368.47,-366"/>
</a>
</g>
</g>
<!-- Node17&#45;&gt;Node7 -->
<g id="edge23_Node000017_Node000007" class="edge">
<title>Node17&#45;&gt;Node7</title>
<g id="a_edge23_Node000017_Node000007"><a xlink:title=" ">
<path fill="none" stroke="#63b8ff" d="M219.17,-526.49C224.88,-564.2 250.06,-693.41 332,-744 488.09,-840.38 695.45,-620.55 753.23,-553.59"/>
<polygon fill="#63b8ff" stroke="#63b8ff" points="755.57,-556.25 759.39,-546.36 750.24,-551.71 755.57,-556.25"/>
</a>
</g>
</g>
<!-- Node17&#45;&gt;Node10 -->
<g id="edge28_Node000017_Node000010" class="edge">
<title>Node17&#45;&gt;Node10</title>
<g id="a_edge28_Node000017_Node000010"><a xlink:title=" ">
<path fill="none" stroke="#63b8ff" d="M237.04,-505.51C259.35,-493.74 297.44,-474.78 332,-463 379.51,-446.81 435.98,-435.06 474.09,-428.17"/>
<polygon fill="#63b8ff" stroke="#63b8ff" points="474.57,-431.64 483.81,-426.45 473.35,-424.74 474.57,-431.64"/>
</a>
</g>
</g>
<!-- Node17&#45;&gt;Node11 -->
<g id="edge29_Node000017_Node000011" class="edge">
<title>Node17&#45;&gt;Node11</title>
<g id="a_edge29_Node000017_Node000011"><a xlink:title=" ">
<path fill="none" stroke="#63b8ff" d="M220.12,-505.54C228.77,-469.43 261.94,-348.47 332,-279 372.13,-239.2 434.09,-215.66 475.27,-203.54"/>
<polygon fill="#63b8ff" stroke="#63b8ff" points="476.17,-206.92 484.84,-200.83 474.27,-200.18 476.17,-206.92"/>
</a>
</g>
</g>
<!-- Node17&#45;&gt;Node12 -->
<g id="edge32_Node000017_Node000012" class="edge">
<title>Node17&#45;&gt;Node12</title>
<g id="a_edge32_Node000017_Node000012"><a xlink:title=" ">
<path fill="none" stroke="#63b8ff" d="M248.95,-505.59C271.73,-498.33 303.5,-488.92 332,-483 375.71,-473.92 425.96,-467.68 463.17,-463.84"/>
<polygon fill="#63b8ff" stroke="#63b8ff" points="463.17,-467.36 472.77,-462.87 462.47,-460.39 463.17,-467.36"/>
</a>
</g>
</g>
<!-- Node17&#45;&gt;Node13 -->
<g id="edge33_Node000017_Node000013" class="edge">
<title>Node17&#45;&gt;Node13</title>
<g id="a_edge33_Node000017_Node000013"><a xlink:title=" ">
<path fill="none" stroke="#63b8ff" d="M221.22,-505.79C232.33,-474.53 269.98,-379.03 332,-326 370.64,-292.96 392.94,-306.55 438,-283 457.71,-272.7 478.73,-258.87 494.23,-248.06"/>
<polygon fill="#63b8ff" stroke="#63b8ff" points="496.18,-250.96 502.33,-242.33 492.14,-245.25 496.18,-250.96"/>
</a>
</g>
</g>
<!-- Node17&#45;&gt;Node17 -->
<g id="edge31_Node000017_Node000017" class="edge">
<title>Node17&#45;&gt;Node17</title>
<g id="a_edge31_Node000017_Node000017"><a xlink:title=" ">
<path fill="none" stroke="#63b8ff" d="M190.37,-526.34C179.1,-534.98 187.89,-544 216.75,-544 232.53,-544 242.31,-541.3 246.09,-537.44"/>
<polygon fill="#63b8ff" stroke="#63b8ff" points="249.48,-536.56 243.52,-527.8 242.71,-538.37 249.48,-536.56"/>
</a>
</g>
</g>
<!-- Node18 -->
<g id="Node000018" class="node">
<title>Node18</title>
<g id="a_Node000018"><a xlink:href="namespaceshared.html#ad05481a6e28afc976d57ddcba12e8a4d" target="_top" xlink:title="A Blocking Parser that returns the first count of the output.">
<polygon fill="white" stroke="#666666" points="421.12,-697 348.88,-697 348.88,-677 421.12,-677 421.12,-697"/>
<text text-anchor="middle" x="385" y="-683.5" font-family="Helvetica,sans-Serif" font-size="10.00">shared::head</text>
</a>
</g>
</g>
<!-- Node17&#45;&gt;Node18 -->
<g id="edge26_Node000017_Node000018" class="edge">
<title>Node17&#45;&gt;Node18</title>
<g id="a_edge26_Node000017_Node000018"><a xlink:title=" ">
<path fill="none" stroke="#63b8ff" d="M222.87,-526.49C236.69,-553.75 277.38,-627.48 332,-668 334.01,-669.49 336.14,-670.87 338.36,-672.15"/>
<polygon fill="#63b8ff" stroke="#63b8ff" points="336.59,-675.18 347.11,-676.48 339.7,-668.91 336.59,-675.18"/>
</a>
</g>
</g>
<!-- Node19 -->
<g id="Node000019" class="node">
<title>Node19</title>
<g id="a_Node000019"><a xlink:href="namespaceshared.html#a565b1c521d1f0509c5ec0f237a727f8e" target="_top" xlink:title="Compose a return value from an accumulator function.">
<polygon fill="white" stroke="#666666" points="417,-659 353,-659 353,-639 417,-639 417,-659"/>
<text text-anchor="middle" x="385" y="-645.5" font-family="Helvetica,sans-Serif" font-size="10.00">shared::init</text>
</a>
</g>
</g>
<!-- Node17&#45;&gt;Node19 -->
<g id="edge27_Node000017_Node000019" class="edge">
<title>Node17&#45;&gt;Node19</title>
<g id="a_edge27_Node000017_Node000019"><a xlink:title=" ">
<path fill="none" stroke="#63b8ff" d="M225.48,-526.31C242.45,-548.3 285.21,-600.19 332,-630 335.26,-632.08 338.78,-633.97 342.4,-635.69"/>
<polygon fill="#63b8ff" stroke="#63b8ff" points="340.74,-638.79 351.32,-639.47 343.48,-632.34 340.74,-638.79"/>
</a>
</g>
</g>
<!-- Node20 -->
<g id="Node000020" class="node">
<title>Node20</title>
<g id="a_Node000020"><a xlink:href="namespaceshared.html#a4ddc24b4d99e824f9b941fa905fb0a81" target="_top" xlink:title="A Blocking Parser that returns the first line of output.">
<polygon fill="white" stroke="#666666" points="428.62,-621 341.38,-621 341.38,-601 428.62,-601 428.62,-621"/>
<text text-anchor="middle" x="385" y="-607.5" font-family="Helvetica,sans-Serif" font-size="10.00">shared::one_line</text>
</a>
</g>
</g>
<!-- Node17&#45;&gt;Node20 -->
<g id="edge30_Node000017_Node000020" class="edge">
<title>Node17&#45;&gt;Node20</title>
<g id="a_edge30_Node000017_Node000020"><a xlink:title=" ">
<path fill="none" stroke="#63b8ff" d="M231.17,-526.47C251.89,-542.27 293.32,-572.42 332,-592 334.89,-593.47 337.93,-594.87 341.02,-596.22"/>
<polygon fill="#63b8ff" stroke="#63b8ff" points="339.61,-599.42 350.19,-599.94 342.24,-592.94 339.61,-599.42"/>
</a>
</g>
</g>
<!-- Node21 -->
<g id="Node000021" class="node">
<title>Node21</title>
<g id="a_Node000021"><a xlink:href="namespaceshared.html#a15763c51cb9218c385860ced9f47ac05" target="_top" xlink:title="Batch multiple iterations of an accumulator function together.">
<polygon fill="white" stroke="#666666" points="438,-583 332,-583 332,-563 438,-563 438,-583"/>
<text text-anchor="middle" x="385" y="-569.5" font-family="Helvetica,sans-Serif" font-size="10.00">shared::single_batch</text>
</a>
</g>
</g>
<!-- Node17&#45;&gt;Node21 -->
<g id="edge34_Node000017_Node000021" class="edge">
<title>Node17&#45;&gt;Node21</title>
<g id="a_edge34_Node000017_Node000021"><a xlink:title=" ">
<path fill="none" stroke="#63b8ff" d="M248.24,-526.45C274.76,-535.55 313.41,-548.8 342.7,-558.84"/>
<polygon fill="#63b8ff" stroke="#63b8ff" points="341.39,-562.09 351.99,-562.02 343.66,-555.47 341.39,-562.09"/>
</a>
</g>
</g>
<!-- Node22 -->
<g id="Node000022" class="node">
<title>Node22</title>
<g id="a_Node000022"><a xlink:href="namespaceshared.html#ae0ec3e8d4de79340eda47eabfd075feb" target="_top" xlink:title="Strip all instance of character from a string.">
<polygon fill="white" stroke="#666666" points="420,-545 350,-545 350,-525 420,-525 420,-545"/>
<text text-anchor="middle" x="385" y="-531.5" font-family="Helvetica,sans-Serif" font-size="10.00">shared::strip</text>
</a>
</g>
</g>
<!-- Node17&#45;&gt;Node22 -->
<g id="edge35_Node000017_Node000022" class="edge">
<title>Node17&#45;&gt;Node22</title>
<g id="a_edge35_Node000017_Node000022"><a xlink:title=" ">
<path fill="none" stroke="#63b8ff" d="M256.73,-520.45C281.2,-523.25 312.86,-526.87 338.48,-529.8"/>
<polygon fill="#63b8ff" stroke="#63b8ff" points="337.94,-533.26 348.27,-530.92 338.73,-526.3 337.94,-533.26"/>
</a>
</g>
</g>
<!-- Node23 -->
<g id="Node000023" class="node">
<title>Node23</title>
<g id="a_Node000023"><a xlink:href="namespaceshared.html#a77e45bc6735a35fbc38891b166e40a7b" target="_top" xlink:title="Trim characters from the front and end of a string.">
<polygon fill="white" stroke="#666666" points="418.88,-735 351.12,-735 351.12,-715 418.88,-715 418.88,-735"/>
<text text-anchor="middle" x="385" y="-721.5" font-family="Helvetica,sans-Serif" font-size="10.00">shared::trim</text>
</a>
</g>
</g>
<!-- Node17&#45;&gt;Node23 -->
<g id="edge36_Node000017_Node000023" class="edge">
<title>Node17&#45;&gt;Node23</title>
<g id="a_edge36_Node000017_Node000023"><a xlink:title=" ">
<path fill="none" stroke="#63b8ff" d="M221.14,-526.31C232.01,-557.85 269.06,-654.07 332,-706 334.66,-708.19 337.59,-710.14 340.67,-711.88"/>
<polygon fill="#63b8ff" stroke="#63b8ff" points="338.94,-714.93 349.47,-716.06 341.94,-708.61 338.94,-714.93"/>
</a>
</g>
</g>
<!-- Node24&#45;&gt;Node11 -->
<g id="edge41_Node000024_Node000011" class="edge">
<title>Node24&#45;&gt;Node11</title>
<g id="a_edge41_Node000024_Node000011"><a xlink:title=" ">
<path fill="none" stroke="#63b8ff" d="M256.97,-193C313.28,-193 416.67,-193 474.92,-193"/>
<polygon fill="#63b8ff" stroke="#63b8ff" points="474.77,-196.5 484.77,-193 474.77,-189.5 474.77,-196.5"/>
</a>
</g>
</g>
<!-- Node25 -->
<g id="Node000025" class="node">
<title>Node25</title>
<g id="a_Node000025"><a xlink:href="namespaceshared.html#ad10b700d545b2e01515db6e550c9b2e6" target="_top" xlink:title="Wait for an inotify watcher.">
<polygon fill="white" stroke="#666666" points="435.38,-165 334.62,-165 334.62,-145 435.38,-145 435.38,-165"/>
<text text-anchor="middle" x="385" y="-151.5" font-family="Helvetica,sans-Serif" font-size="10.00">shared::inotify_wait</text>
</a>
</g>
</g>
<!-- Node24&#45;&gt;Node25 -->
<g id="edge40_Node000024_Node000025" class="edge">
<title>Node24&#45;&gt;Node25</title>
<g id="a_edge40_Node000024_Node000025"><a xlink:title=" ">
<path fill="none" stroke="#63b8ff" d="M256.73,-184.09C277.68,-179.3 303.9,-173.31 327.08,-168.01"/>
<polygon fill="#63b8ff" stroke="#63b8ff" points="327.74,-171.45 336.71,-165.81 326.18,-164.62 327.74,-171.45"/>
</a>
</g>
</g>
<!-- Node27&#45;&gt;Node3 -->
<g id="edge44_Node000027_Node000003" class="edge">
<title>Node27&#45;&gt;Node3</title>
<g id="a_edge44_Node000027_Node000003"><a xlink:title=" ">
<path fill="none" stroke="#63b8ff" d="M563.73,-845.65C573.71,-847.15 584.4,-848.77 594.64,-850.32"/>
<polygon fill="#63b8ff" stroke="#63b8ff" points="594.05,-853.77 604.46,-851.8 595.09,-846.84 594.05,-853.77"/>
</a>
</g>
</g>
<!-- Node28&#45;&gt;Node3 -->
<g id="edge46_Node000028_Node000003" class="edge">
<title>Node28&#45;&gt;Node3</title>
<g id="a_edge46_Node000028_Node000003"><a xlink:title=" ">
<path fill="none" stroke="#63b8ff" d="M261.78,-916.31C328.11,-917.3 457.21,-915.43 563.5,-891 580.95,-886.99 599.53,-879.78 614.58,-873.12"/>
<polygon fill="#63b8ff" stroke="#63b8ff" points="615.84,-876.39 623.47,-869.05 612.92,-870.03 615.84,-876.39"/>
</a>
</g>
</g>
</g>
</svg>

<g id="navigator" transform="translate(0 0)" fill="#404254">
  <rect fill="#f2f5e9" fill-opacity="0.5" stroke="#606060" stroke-width=".5" x="0" y="0" width="60" height="60"/>
  <use id="zoomplus" xlink:href="#zoomPlus" x="17" y="9" onmousedown="handleZoom(evt,'in')"/>
  <use id="zoomminus" xlink:href="#zoomMin" x="42" y="9" onmousedown="handleZoom(evt,'out')"/>
  <use id="reset" xlink:href="#resetDef" x="30" y="36" onmousedown="handleReset()"/>
   <use id="arrowup" xlink:href="#arrowUp" x="0" y="0" onmousedown="handlePan(0,-1)"/>
  <use id="arrowright" xlink:href="#arrowRight" x="0" y="0" onmousedown="handlePan(1,0)"/>
  <use id="arrowdown" xlink:href="#arrowDown" x="0" y="0" onmousedown="handlePan(0,1)"/>
  <use id="arrowleft" xlink:href="#arrowLeft" x="0" y="0" onmousedown="handlePan(-1,0)"/>
</g>
<svg viewBox="0 0 15 15" width="100%" height="30px" preserveAspectRatio="xMaxYMin meet">
 <g id="arrow_out" transform="scale(0.3 0.3)">
  <a xlink:href="namespacegenerate_a5c0026523dd30f942c55ad25f1b607b4_cgraph_org.svg" target="_base">
   <rect id="button" ry="5" rx="5" y="6" x="6" height="38" width="38"
        fill="#f2f5e9" fill-opacity="0.5" stroke="#606060" stroke-width="1.0"/>
   <path id="arrow"
     d="M 11.500037,31.436501 C 11.940474,20.09759 22.043105,11.32322 32.158766,21.979434 L 37.068811,17.246167 C 37.068811,17.246167 37.088388,32 37.088388,32 L 22.160133,31.978069 C 22.160133,31.978069 26.997745,27.140456 26.997745,27.140456 C 18.528582,18.264221 13.291696,25.230495 11.500037,31.436501 z"
     style="fill:#404040;"/>
  </a>
 </g>
</svg>

<style type='text/css'>
<![CDATA[
[data-mouse-over-selected='false'] { opacity: 0.7; }
[data-mouse-over-selected='true']  { opacity: 1.0; }
]]>
</style>
<script type="application/ecmascript"><![CDATA[
document.addEventListener('DOMContentLoaded', (event) => {
  highlightEdges();
  highlightAdjacentNodes();
});
]]></script>
</svg>
