<?xml version="1.0" encoding="UTF-8" standalone="no"?>
<!DOCTYPE svg PUBLIC "-//W3C//DTD SVG 1.1//EN"
 "http://www.w3.org/Graphics/SVG/1.1/DTD/svg11.dtd">
<!-- Generated by graphviz version 12.2.1 (0)
 -->
<!-- Title: generate::proxy_lib Pages: 1 -->
<!--zoomable 573 -->

<svg id="main" version="1.1" xmlns="http://www.w3.org/2000/svg" xmlns:xlink="http://www.w3.org/1999/xlink" xml:space="preserve" onload="init(evt)">

<style type="text/css"><![CDATA[
.node, .edge {opacity: 0.7;}
.node.selected, .edge.selected {opacity: 1;}
.edge:hover path { stroke: red; }
.edge:hover polygon { stroke: red; fill: red; }
]]></style>

<defs>
  <circle id="rim" cx="0" cy="0" r="7"/>
  <circle id="rim2" cx="0" cy="0" r="3.5"/>
  <g id="zoomPlus">
    <use xlink:href="#rim" fill="#404040"><set attributeName="fill" to="#808080" begin="zoomplus.mouseover" end="zoomplus.mouseout"/></use>
    <path d="M-4,0h8M0,-4v8" fill="none" stroke="white" stroke-width="1.5" pointer-events="none"/>
  </g>
  <g id="zoomMin">
    <use xlink:href="#rim" fill="#404040"><set attributeName="fill" to="#808080" begin="zoomminus.mouseover" end="zoomminus.mouseout"/></use>
    <path d="M-4,0h8" fill="none" stroke="white" stroke-width="1.5" pointer-events="none"/>
  </g>
  <g id="arrowUp" transform="translate(30 24)">
    <use xlink:href="#rim"/>
    <path pointer-events="none" fill="none" stroke="white" stroke-width="1.5" d="M0,-3.0v7 M-2.5,-0.5L0,-3.0L2.5,-0.5"/>
  </g>
  <g id="arrowRight" transform="rotate(90) translate(36 -43)">
    <use xlink:href="#rim"/>
    <path pointer-events="none" fill="none" stroke="white" stroke-width="1.5" d="M0,-3.0v7 M-2.5,-0.5L0,-3.0L2.5,-0.5"/>
  </g>
  <g id="arrowDown" transform="rotate(180) translate(-30 -48)">
    <use xlink:href="#rim"/>
    <path pointer-events="none" fill="none" stroke="white" stroke-width="1.5" d="M0,-3.0v7 M-2.5,-0.5L0,-3.0L2.5,-0.5"/>
  </g>
  <g id="arrowLeft" transform="rotate(270) translate(-36 17)">
    <use xlink:href="#rim"/>
    <path pointer-events="none" fill="none" stroke="white" stroke-width="1.5" d="M0,-3.0v7 M-2.5,-0.5L0,-3.0L2.5,-0.5"/>
  </g>
  <g id="resetDef">
    <use xlink:href="#rim2" fill="#404040"><set attributeName="fill" to="#808080" begin="reset.mouseover" end="reset.mouseout"/></use>
  </g>
</defs>
<script type="application/ecmascript">
var viewWidth = 854;
var viewHeight = 573;
var sectionId = 'dynsection-3';
</script>
<script type="application/ecmascript" xlink:href="svg.min.js"/>
<svg id="graph" class="graph">
<g id="viewport">
<title>generate::proxy_lib</title>
<!-- Node1 -->
<g id="Node000001" class="node">
<title>Node1</title>
<g id="a_Node000001"><a xlink:title="Setup the Proxy&#39;s SOF.">
<polygon fill="#999999" stroke="#666666" points="98.5,-305.2 0,-305.2 0,-285.2 98.5,-285.2 98.5,-305.2"/>
<text text-anchor="middle" x="49.25" y="-291.7" font-family="Helvetica,sans-Serif" font-size="10.00">generate::proxy_lib</text>
</a>
</g>
</g>
<!-- Node2 -->
<g id="Node000002" class="node">
<title>Node2</title>
<g id="a_Node000002"><a xlink:href="namespaceshared.html#a9ed709af90ab0108e5c3a8afdd3e7042" target="_top" xlink:title="Split the contents of an FD.">
<polygon fill="white" stroke="#666666" points="610.25,-296.2 516.25,-296.2 516.25,-276.2 610.25,-276.2 610.25,-296.2"/>
<text text-anchor="middle" x="563.25" y="-282.7" font-family="Helvetica,sans-Serif" font-size="10.00">shared::fd_splitter</text>
</a>
</g>
</g>
<!-- Node1&#45;&gt;Node2 -->
<g id="edge1_Node000001_Node000002" class="edge">
<title>Node1&#45;&gt;Node2</title>
<g id="a_edge1_Node000001_Node000002"><a xlink:title=" ">
<path fill="none" stroke="#63b8ff" d="M52.27,-305.68C58.8,-336.91 81.96,-430.64 134.5,-486.2 204.57,-560.31 262.95,-586.39 356.25,-545.2 464.24,-497.53 531.58,-359.55 553.96,-306.93"/>
<polygon fill="#63b8ff" stroke="#63b8ff" points="557.09,-308.5 557.69,-297.93 550.63,-305.83 557.09,-308.5"/>
</a>
</g>
</g>
<!-- Node6 -->
<g id="Node000006" class="node">
<title>Node6</title>
<g id="a_Node000006"><a xlink:href="namespacelibraries.html#a4dfd6ab45adf8dc18ea57bc1f88eaedf" target="_top" xlink:title="Recursively resolve all shared&#45;libraries needed by a library.">
<polygon fill="white" stroke="#666666" points="337.88,-134.2 268.62,-134.2 268.62,-114.2 337.88,-114.2 337.88,-134.2"/>
<text text-anchor="middle" x="303.25" y="-120.7" font-family="Helvetica,sans-Serif" font-size="10.00">libraries::get</text>
</a>
</g>
</g>
<!-- Node1&#45;&gt;Node6 -->
<g id="edge6_Node000001_Node000006" class="edge">
<title>Node1&#45;&gt;Node6</title>
<g id="a_edge6_Node000001_Node000006"><a xlink:title=" ">
<path fill="none" stroke="#63b8ff" d="M60.55,-284.74C75.86,-269.5 105.89,-240.79 134.5,-220.2 179.43,-187.88 236.1,-157.36 270.73,-139.73"/>
<polygon fill="#63b8ff" stroke="#63b8ff" points="272.03,-143 279.38,-135.37 268.87,-136.75 272.03,-143"/>
</a>
</g>
</g>
<!-- Node11 -->
<g id="Node000011" class="node">
<title>Node11</title>
<g id="a_Node000011"><a xlink:href="namespaceshared.html#a99724c73af55fa92ae29fee700152917" target="_top" xlink:title="Log output to console, if verbose.">
<polygon fill="white" stroke="#666666" points="468.25,-400.2 404.25,-400.2 404.25,-380.2 468.25,-380.2 468.25,-400.2"/>
<text text-anchor="middle" x="436.25" y="-386.7" font-family="Helvetica,sans-Serif" font-size="10.00">shared::log</text>
</a>
</g>
</g>
<!-- Node1&#45;&gt;Node11 -->
<g id="edge22_Node000001_Node000011" class="edge">
<title>Node1&#45;&gt;Node11</title>
<g id="a_edge22_Node000001_Node000011"><a xlink:title=" ">
<path fill="none" stroke="#63b8ff" d="M54.61,-305.52C72.01,-344.97 140.83,-486 250.25,-523.2 294.85,-538.37 318.07,-550.8 356.25,-523.2 397.6,-493.31 359.76,-453.54 392.25,-414.2 394.47,-411.52 397.06,-409.09 399.86,-406.89"/>
<polygon fill="#63b8ff" stroke="#63b8ff" points="401.62,-409.92 408.03,-401.48 397.76,-404.08 401.62,-409.92"/>
</a>
</g>
</g>
<!-- Node12 -->
<g id="Node000012" class="node">
<title>Node12</title>
<g id="a_Node000012"><a xlink:href="namespaceshared.html#afac154f1bef460ef6f24705f6c033f37" target="_top" xlink:title="Read a file.">
<polygon fill="white" stroke="#666666" points="480.25,-68.2 392.25,-68.2 392.25,-48.2 480.25,-48.2 480.25,-68.2"/>
<text text-anchor="middle" x="436.25" y="-54.7" font-family="Helvetica,sans-Serif" font-size="10.00">shared::read_file</text>
</a>
</g>
</g>
<!-- Node1&#45;&gt;Node12 -->
<g id="edge38_Node000001_Node000012" class="edge">
<title>Node1&#45;&gt;Node12</title>
<g id="a_edge38_Node000001_Node000012"><a xlink:title=" ">
<path fill="none" stroke="#63b8ff" d="M54.57,-284.73C71.82,-244.61 140.16,-100.75 250.25,-56.2 291.67,-39.44 342.7,-41.49 380.67,-46.85"/>
<polygon fill="#63b8ff" stroke="#63b8ff" points="380.09,-50.3 390.51,-48.37 381.16,-43.39 380.09,-50.3"/>
</a>
</g>
</g>
<!-- Node15 -->
<g id="Node000015" class="node">
<title>Node15</title>
<g id="a_Node000015"><a xlink:href="namespaceshared.html#a4a708359d4c8dbeeaa8b744eec56c0e5" target="_top" xlink:title="Hash a string.">
<polygon fill="white" stroke="#666666" points="210.5,-249.2 138.25,-249.2 138.25,-229.2 210.5,-229.2 210.5,-249.2"/>
<text text-anchor="middle" x="174.38" y="-235.7" font-family="Helvetica,sans-Serif" font-size="10.00">shared::hash</text>
</a>
</g>
</g>
<!-- Node1&#45;&gt;Node15 -->
<g id="edge19_Node000001_Node000015" class="edge">
<title>Node1&#45;&gt;Node15</title>
<g id="a_edge19_Node000001_Node000015"><a xlink:title=" ">
<path fill="none" stroke="#63b8ff" d="M73.12,-284.8C92.04,-276.2 119.16,-263.86 140.42,-254.19"/>
<polygon fill="#63b8ff" stroke="#63b8ff" points="141.6,-257.5 149.25,-250.18 138.7,-251.13 141.6,-257.5"/>
</a>
</g>
</g>
<!-- Node16 -->
<g id="Node000016" class="node">
<title>Node16</title>
<g id="a_Node000016"><a xlink:href="namespaceshared.html#a48902b7bb96ff218057c3b363b43ea8a" target="_top" xlink:title="Compose a return value from an accumulator function.">
<polygon fill="white" stroke="#666666" points="335.25,-514.2 271.25,-514.2 271.25,-494.2 335.25,-494.2 335.25,-514.2"/>
<text text-anchor="middle" x="303.25" y="-500.7" font-family="Helvetica,sans-Serif" font-size="10.00">shared::init</text>
</a>
</g>
</g>
<!-- Node1&#45;&gt;Node16 -->
<g id="edge21_Node000001_Node000016" class="edge">
<title>Node1&#45;&gt;Node16</title>
<g id="a_edge21_Node000001_Node000016"><a xlink:title=" ">
<path fill="none" stroke="#63b8ff" d="M59.3,-305.63C85.99,-335.87 167.68,-424.99 250.25,-480.2 254.98,-483.37 260.2,-486.32 265.45,-488.99"/>
<polygon fill="#63b8ff" stroke="#63b8ff" points="263.57,-491.97 274.1,-493.12 266.59,-485.66 263.57,-491.97"/>
</a>
</g>
</g>
<!-- Node17 -->
<g id="Node000017" class="node">
<title>Node17</title>
<g id="a_Node000017"><a xlink:href="namespacebinaries.html#ac1478c81b2eb2c4ecdba98e92c4e7651" target="_top" xlink:title="Parse a binary to determine dependencies.">
<polygon fill="white" stroke="#666666" points="214.25,-305.2 134.5,-305.2 134.5,-285.2 214.25,-285.2 214.25,-305.2"/>
<text text-anchor="middle" x="174.38" y="-291.7" font-family="Helvetica,sans-Serif" font-size="10.00">binaries::parse</text>
</a>
</g>
</g>
<!-- Node1&#45;&gt;Node17 -->
<g id="edge23_Node000001_Node000017" class="edge">
<title>Node1&#45;&gt;Node17</title>
<g id="a_edge23_Node000001_Node000017"><a xlink:title=" ">
<path fill="none" stroke="#63b8ff" d="M98.91,-295.2C106.77,-295.2 114.92,-295.2 122.82,-295.2"/>
<polygon fill="#63b8ff" stroke="#63b8ff" points="122.64,-298.7 132.64,-295.2 122.64,-291.7 122.64,-298.7"/>
</a>
</g>
</g>
<!-- Node3 -->
<g id="Node000003" class="node">
<title>Node3</title>
<g id="a_Node000003"><a xlink:href="namespaceshared.html#a80f3b59804700742a5a0c6ea15bf24f9" target="_top" xlink:title="A Blocking Parser that returns the output in a single string.">
<polygon fill="white" stroke="#666666" points="724.12,-400.2 648.88,-400.2 648.88,-380.2 724.12,-380.2 724.12,-400.2"/>
<text text-anchor="middle" x="686.5" y="-386.7" font-family="Helvetica,sans-Serif" font-size="10.00">shared::dump</text>
</a>
</g>
</g>
<!-- Node2&#45;&gt;Node3 -->
<g id="edge2_Node000002_Node000003" class="edge">
<title>Node2&#45;&gt;Node3</title>
<g id="a_edge2_Node000002_Node000003"><a xlink:title=" ">
<path fill="none" stroke="#63b8ff" d="M576.32,-296.55C597.02,-314.31 639.51,-350.76 664.95,-372.58"/>
<polygon fill="#63b8ff" stroke="#63b8ff" points="662.46,-375.05 672.33,-378.91 667.02,-369.74 662.46,-375.05"/>
</a>
</g>
</g>
<!-- Node4 -->
<g id="Node000004" class="node">
<title>Node4</title>
<g id="a_Node000004"><a xlink:href="namespaceshared.html#a6282d0d8d2ab3f70038d7428729c15ca" target="_top" xlink:title="Escape a string.">
<polygon fill="white" stroke="#666666" points="845.5,-296.2 762.75,-296.2 762.75,-276.2 845.5,-276.2 845.5,-296.2"/>
<text text-anchor="middle" x="804.12" y="-282.7" font-family="Helvetica,sans-Serif" font-size="10.00">shared::escape</text>
</a>
</g>
</g>
<!-- Node2&#45;&gt;Node4 -->
<g id="edge3_Node000002_Node000004" class="edge">
<title>Node2&#45;&gt;Node4</title>
<g id="a_edge3_Node000002_Node000004"><a xlink:title=" ">
<path fill="none" stroke="#63b8ff" d="M610.59,-286.2C650.9,-286.2 709.25,-286.2 751.13,-286.2"/>
<polygon fill="#63b8ff" stroke="#63b8ff" points="750.97,-289.7 760.97,-286.2 750.97,-282.7 750.97,-289.7"/>
</a>
</g>
</g>
<!-- Node5 -->
<g id="Node000005" class="node">
<title>Node5</title>
<g id="a_Node000005"><a xlink:href="namespaceshared.html#a690cc836408825d804377522d9d99a07" target="_top" xlink:title="Split a string.">
<polygon fill="white" stroke="#666666" points="726.75,-277.2 646.25,-277.2 646.25,-257.2 726.75,-257.2 726.75,-277.2"/>
<text text-anchor="middle" x="686.5" y="-263.7" font-family="Helvetica,sans-Serif" font-size="10.00">shared::splitter</text>
</a>
</g>
</g>
<!-- Node2&#45;&gt;Node5 -->
<g id="edge4_Node000002_Node000005" class="edge">
<title>Node2&#45;&gt;Node5</title>
<g id="a_edge4_Node000002_Node000005"><a xlink:title=" ">
<path fill="none" stroke="#63b8ff" d="M610.44,-278.97C618.35,-277.73 626.61,-276.43 634.64,-275.17"/>
<polygon fill="#63b8ff" stroke="#63b8ff" points="634.94,-278.67 644.28,-273.66 633.86,-271.75 634.94,-278.67"/>
</a>
</g>
</g>
<!-- Node5&#45;&gt;Node4 -->
<g id="edge5_Node000005_Node000004" class="edge">
<title>Node5&#45;&gt;Node4</title>
<g id="a_edge5_Node000005_Node000004"><a xlink:title=" ">
<path fill="none" stroke="#63b8ff" d="M726.97,-273.69C734.71,-274.96 742.93,-276.31 751.01,-277.64"/>
<polygon fill="#63b8ff" stroke="#63b8ff" points="750.33,-281.07 760.77,-279.24 751.47,-274.17 750.33,-281.07"/>
</a>
</g>
</g>
<!-- Node6&#45;&gt;Node2 -->
<g id="edge10_Node000006_Node000002" class="edge">
<title>Node6&#45;&gt;Node2</title>
<g id="a_edge10_Node000006_Node000002"><a xlink:title=" ">
<path fill="none" stroke="#63b8ff" d="M315.84,-134.5C332.07,-148.58 362.91,-174.04 392.25,-191.2 429.02,-212.71 443.02,-208.5 480.25,-229.2 501.46,-241 523.98,-256.93 540.05,-268.95"/>
<polygon fill="#63b8ff" stroke="#63b8ff" points="537.86,-271.69 547.94,-274.95 542.09,-266.11 537.86,-271.69"/>
</a>
</g>
</g>
<!-- Node7 -->
<g id="Node000007" class="node">
<title>Node7</title>
<g id="a_Node000007"><a xlink:href="namespaceshared.html#a993cd576fb1a43b497dc350728bd8c80" target="_top" xlink:title="Batch multiple iterations of an accumulator function together, threaded.">
<polygon fill="white" stroke="#666666" points="473.88,-106.2 398.62,-106.2 398.62,-86.2 473.88,-86.2 473.88,-106.2"/>
<text text-anchor="middle" x="436.25" y="-92.7" font-family="Helvetica,sans-Serif" font-size="10.00">shared::batch</text>
</a>
</g>
</g>
<!-- Node6&#45;&gt;Node7 -->
<g id="edge7_Node000006_Node000007" class="edge">
<title>Node6&#45;&gt;Node7</title>
<g id="a_edge7_Node000006_Node000007"><a xlink:title=" ">
<path fill="none" stroke="#63b8ff" d="M338.33,-116.92C353.36,-113.71 371.28,-109.88 387.6,-106.39"/>
<polygon fill="#63b8ff" stroke="#63b8ff" points="388.06,-109.87 397.11,-104.36 386.6,-103.02 388.06,-109.87"/>
</a>
</g>
</g>
<!-- Node9 -->
<g id="Node000009" class="node">
<title>Node9</title>
<g id="a_Node000009"><a xlink:href="namespaceshared.html#aa381bd3e7caf6ab85ad8d8518fd4adf2" target="_top" xlink:title="Execute stuff.">
<polygon fill="white" stroke="#666666" points="599.38,-144.2 527.12,-144.2 527.12,-124.2 599.38,-124.2 599.38,-144.2"/>
<text text-anchor="middle" x="563.25" y="-130.7" font-family="Helvetica,sans-Serif" font-size="10.00">shared::exec</text>
</a>
</g>
</g>
<!-- Node6&#45;&gt;Node9 -->
<g id="edge9_Node000006_Node000009" class="edge">
<title>Node6&#45;&gt;Node9</title>
<g id="a_edge9_Node000006_Node000009"><a xlink:title=" ">
<path fill="none" stroke="#63b8ff" d="M338.24,-125.52C383.69,-127.28 464.44,-130.41 515.56,-132.39"/>
<polygon fill="#63b8ff" stroke="#63b8ff" points="515.3,-135.89 525.43,-132.78 515.57,-128.89 515.3,-135.89"/>
</a>
</g>
</g>
<!-- Node10 -->
<g id="Node000010" class="node">
<title>Node10</title>
<g id="a_Node000010"><a xlink:href="namespaceshared.html#a2f7cb04abbe01ba7193f2d2a6d520355" target="_top" xlink:title="Join a vector into a string.">
<polygon fill="white" stroke="#666666" points="469.38,-258.2 403.12,-258.2 403.12,-238.2 469.38,-238.2 469.38,-258.2"/>
<text text-anchor="middle" x="436.25" y="-244.7" font-family="Helvetica,sans-Serif" font-size="10.00">shared::join</text>
</a>
</g>
</g>
<!-- Node6&#45;&gt;Node10 -->
<g id="edge11_Node000006_Node000010" class="edge">
<title>Node6&#45;&gt;Node10</title>
<g id="a_edge11_Node000006_Node000010"><a xlink:title=" ">
<path fill="none" stroke="#63b8ff" d="M336.17,-134.7C343.4,-138.16 350.6,-142.61 356.25,-148.2 382.81,-174.5 366.72,-196.91 392.25,-224.2 394.82,-226.95 397.78,-229.46 400.91,-231.74"/>
<polygon fill="#63b8ff" stroke="#63b8ff" points="399.03,-234.69 409.36,-237.05 402.76,-228.77 399.03,-234.69"/>
</a>
</g>
</g>
<!-- Node6&#45;&gt;Node11 -->
<g id="edge12_Node000006_Node000011" class="edge">
<title>Node6&#45;&gt;Node11</title>
<g id="a_edge12_Node000006_Node000011"><a xlink:title=" ">
<path fill="none" stroke="#63b8ff" d="M310.39,-134.56C320.5,-151.82 341.08,-187.69 356.25,-219.2 374.22,-256.54 374.89,-267.58 392.25,-305.2 402.6,-327.62 415.5,-352.8 424.46,-369.9"/>
<polygon fill="#63b8ff" stroke="#63b8ff" points="421.24,-371.3 429,-378.51 427.43,-368.04 421.24,-371.3"/>
</a>
</g>
</g>
<!-- Node6&#45;&gt;Node12 -->
<g id="edge13_Node000006_Node000012" class="edge">
<title>Node6&#45;&gt;Node12</title>
<g id="a_edge13_Node000006_Node000012"><a xlink:title=" ">
<path fill="none" stroke="#63b8ff" d="M322.92,-113.71C340.6,-103.9 367.96,-89.04 392.25,-77.2 394.98,-75.87 397.82,-74.53 400.68,-73.21"/>
<polygon fill="#63b8ff" stroke="#63b8ff" points="401.95,-76.47 409.62,-69.17 399.06,-70.1 401.95,-76.47"/>
</a>
</g>
</g>
<!-- Node13 -->
<g id="Node000013" class="node">
<title>Node13</title>
<g id="a_Node000013"><a xlink:href="namespaceshared.html#a219683cbcfb575bb29797638cadafb7b" target="_top" xlink:title="A Blocking Parser that splits the output into a set.">
<polygon fill="white" stroke="#666666" points="479.12,-296.2 393.38,-296.2 393.38,-276.2 479.12,-276.2 479.12,-296.2"/>
<text text-anchor="middle" x="436.25" y="-282.7" font-family="Helvetica,sans-Serif" font-size="10.00">shared::setorize</text>
</a>
</g>
</g>
<!-- Node6&#45;&gt;Node13 -->
<g id="edge14_Node000006_Node000013" class="edge">
<title>Node6&#45;&gt;Node13</title>
<g id="a_edge14_Node000006_Node000013"><a xlink:title=" ">
<path fill="none" stroke="#63b8ff" d="M314.43,-134.47C325.7,-146.22 343.9,-166.42 356.25,-186.2 377.11,-219.62 364.36,-239.38 392.25,-267.2 393.12,-268.07 394.03,-268.9 394.98,-269.69"/>
<polygon fill="#63b8ff" stroke="#63b8ff" points="392.81,-272.45 403.07,-275.09 396.69,-266.62 392.81,-272.45"/>
</a>
</g>
</g>
<!-- Node14 -->
<g id="Node000014" class="node">
<title>Node14</title>
<g id="a_Node000014"><a xlink:href="namespaceshared.html#a6955b6b671ef8b660a0d6ed018712923" target="_top" xlink:title="Resolve wildcard patterns.">
<polygon fill="white" stroke="#666666" points="479.88,-182.2 392.62,-182.2 392.62,-162.2 479.88,-162.2 479.88,-182.2"/>
<text text-anchor="middle" x="436.25" y="-168.7" font-family="Helvetica,sans-Serif" font-size="10.00">shared::wildcard</text>
</a>
</g>
</g>
<!-- Node6&#45;&gt;Node14 -->
<g id="edge16_Node000006_Node000014" class="edge">
<title>Node6&#45;&gt;Node14</title>
<g id="a_edge16_Node000006_Node000014"><a xlink:title=" ">
<path fill="none" stroke="#63b8ff" d="M332.68,-134.62C351.3,-141.44 375.89,-150.45 396.32,-157.94"/>
<polygon fill="#63b8ff" stroke="#63b8ff" points="394.87,-161.13 405.46,-161.29 397.27,-154.56 394.87,-161.13"/>
</a>
</g>
</g>
<!-- Node8 -->
<g id="Node000008" class="node">
<title>Node8</title>
<g id="a_Node000008"><a xlink:href="namespaceshared.html#a1636cc0cb46e6be8f452dbc1e92a1e28" target="_top" xlink:title="Extend a container in place.">
<polygon fill="white" stroke="#666666" points="603.5,-106.2 523,-106.2 523,-86.2 603.5,-86.2 603.5,-106.2"/>
<text text-anchor="middle" x="563.25" y="-92.7" font-family="Helvetica,sans-Serif" font-size="10.00">shared::extend</text>
</a>
</g>
</g>
<!-- Node7&#45;&gt;Node8 -->
<g id="edge8_Node000007_Node000008" class="edge">
<title>Node7&#45;&gt;Node8</title>
<g id="a_edge8_Node000007_Node000008"><a xlink:title=" ">
<path fill="none" stroke="#63b8ff" d="M474.08,-96.2C485.77,-96.2 498.91,-96.2 511.4,-96.2"/>
<polygon fill="#63b8ff" stroke="#63b8ff" points="511.12,-99.7 521.12,-96.2 511.12,-92.7 511.12,-99.7"/>
</a>
</g>
</g>
<!-- Node13&#45;&gt;Node2 -->
<g id="edge15_Node000013_Node000002" class="edge">
<title>Node13&#45;&gt;Node2</title>
<g id="a_edge15_Node000013_Node000002"><a xlink:title=" ">
<path fill="none" stroke="#63b8ff" d="M479.57,-286.2C487.65,-286.2 496.24,-286.2 504.71,-286.2"/>
<polygon fill="#63b8ff" stroke="#63b8ff" points="504.6,-289.7 514.6,-286.2 504.6,-282.7 504.6,-289.7"/>
</a>
</g>
</g>
<!-- Node14&#45;&gt;Node2 -->
<g id="edge18_Node000014_Node000002" class="edge">
<title>Node14&#45;&gt;Node2</title>
<g id="a_edge18_Node000014_Node000002"><a xlink:title=" ">
<path fill="none" stroke="#63b8ff" d="M459.11,-182.63C466.16,-186.45 473.82,-191.1 480.25,-196.2 506.89,-217.33 532.42,-247.43 547.72,-266.89"/>
<polygon fill="#63b8ff" stroke="#63b8ff" points="544.75,-268.78 553.63,-274.55 550.29,-264.5 544.75,-268.78"/>
</a>
</g>
</g>
<!-- Node14&#45;&gt;Node9 -->
<g id="edge17_Node000014_Node000009" class="edge">
<title>Node14&#45;&gt;Node9</title>
<g id="a_edge17_Node000014_Node000009"><a xlink:title=" ">
<path fill="none" stroke="#63b8ff" d="M471.74,-161.72C485.81,-157.44 502.27,-152.44 517.27,-147.88"/>
<polygon fill="#63b8ff" stroke="#63b8ff" points="517.88,-151.35 526.43,-145.09 515.84,-144.65 517.88,-151.35"/>
</a>
</g>
</g>
<!-- Node15&#45;&gt;Node15 -->
<g id="edge20_Node000015_Node000015" class="edge">
<title>Node15&#45;&gt;Node15</title>
<g id="a_edge20_Node000015_Node000015"><a xlink:title=" ">
<path fill="none" stroke="#63b8ff" d="M154.49,-249.54C146,-258.18 152.62,-267.2 174.38,-267.2 186.27,-267.2 193.64,-264.5 196.49,-260.65"/>
<polygon fill="#63b8ff" stroke="#63b8ff" points="199.96,-260.14 194.55,-251.03 193.1,-261.52 199.96,-260.14"/>
</a>
</g>
</g>
<!-- Node17&#45;&gt;Node3 -->
<g id="edge24_Node000017_Node000003" class="edge">
<title>Node17&#45;&gt;Node3</title>
<g id="a_edge24_Node000017_Node000003"><a xlink:title=" ">
<path fill="none" stroke="#63b8ff" d="M179.41,-305.33C191.15,-334.23 226,-415.92 250.25,-430.2 382.37,-508.01 577.09,-438.07 653.27,-405.14"/>
<polygon fill="#63b8ff" stroke="#63b8ff" points="654.51,-408.42 662.25,-401.19 651.68,-402.02 654.51,-408.42"/>
</a>
</g>
</g>
<!-- Node17&#45;&gt;Node6 -->
<g id="edge26_Node000017_Node000006" class="edge">
<title>Node17&#45;&gt;Node6</title>
<g id="a_edge26_Node000017_Node000006"><a xlink:title=" ">
<path fill="none" stroke="#63b8ff" d="M203.77,-284.93C207.69,-282.55 211.36,-279.66 214.25,-276.2 252.1,-230.82 211.9,-193.16 250.25,-148.2 252.78,-145.24 255.75,-142.62 258.97,-140.31"/>
<polygon fill="#63b8ff" stroke="#63b8ff" points="260.46,-143.5 267.25,-135.36 256.87,-137.49 260.46,-143.5"/>
</a>
</g>
</g>
<!-- Node17&#45;&gt;Node9 -->
<g id="edge25_Node000017_Node000009" class="edge">
<title>Node17&#45;&gt;Node9</title>
<g id="a_edge25_Node000017_Node000009"><a xlink:title=" ">
<path fill="none" stroke="#63b8ff" d="M204.89,-284.71C208.47,-282.39 211.74,-279.58 214.25,-276.2 273.36,-196.68 178.7,-124.74 250.25,-56.2 324.27,14.7 393.64,15.61 480.25,-39.2 511.83,-59.19 489.16,-89.45 516.25,-115.2 517.16,-116.07 518.11,-116.89 519.1,-117.68"/>
<polygon fill="#63b8ff" stroke="#63b8ff" points="517.2,-120.62 527.51,-123.07 520.97,-114.73 517.2,-120.62"/>
</a>
</g>
</g>
<!-- Node17&#45;&gt;Node10 -->
<g id="edge29_Node000017_Node000010" class="edge">
<title>Node17&#45;&gt;Node10</title>
<g id="a_edge29_Node000017_Node000010"><a xlink:title=" ">
<path fill="none" stroke="#63b8ff" d="M202.89,-284.73C207.02,-282.35 210.99,-279.52 214.25,-276.2 240.73,-249.26 218.38,-219.48 250.25,-199.2 290,-173.91 311.29,-185.12 356.25,-199.2 374.84,-205.02 375.73,-213.89 392.25,-224.2 396.61,-226.92 401.29,-229.69 405.91,-232.33"/>
<polygon fill="#63b8ff" stroke="#63b8ff" points="404,-235.27 414.43,-237.11 407.42,-229.17 404,-235.27"/>
</a>
</g>
</g>
<!-- Node17&#45;&gt;Node11 -->
<g id="edge30_Node000017_Node000011" class="edge">
<title>Node17&#45;&gt;Node11</title>
<g id="a_edge30_Node000017_Node000011"><a xlink:title=" ">
<path fill="none" stroke="#63b8ff" d="M178.46,-305.6C186.09,-329.21 208.36,-386.6 250.25,-409.2 297.71,-434.81 361.98,-418.92 400.93,-404.78"/>
<polygon fill="#63b8ff" stroke="#63b8ff" points="402.17,-408.05 410.27,-401.22 399.68,-401.51 402.17,-408.05"/>
</a>
</g>
</g>
<!-- Node17&#45;&gt;Node12 -->
<g id="edge33_Node000017_Node000012" class="edge">
<title>Node17&#45;&gt;Node12</title>
<g id="a_edge33_Node000017_Node000012"><a xlink:title=" ">
<path fill="none" stroke="#63b8ff" d="M204.36,-284.85C208.11,-282.49 211.57,-279.64 214.25,-276.2 261.98,-214.94 196.48,-161.24 250.25,-105.2 283.7,-70.34 339.05,-59.94 380.51,-57.45"/>
<polygon fill="#63b8ff" stroke="#63b8ff" points="380.46,-60.96 390.29,-57.01 380.15,-53.97 380.46,-60.96"/>
</a>
</g>
</g>
<!-- Node17&#45;&gt;Node13 -->
<g id="edge34_Node000017_Node000013" class="edge">
<title>Node17&#45;&gt;Node13</title>
<g id="a_edge34_Node000017_Node000013"><a xlink:title=" ">
<path fill="none" stroke="#63b8ff" d="M201.73,-284.81C206.19,-282.38 210.56,-279.51 214.25,-276.2 236.56,-256.2 224.01,-233.67 250.25,-219.2 291.51,-196.46 314.11,-198.13 356.25,-219.2 380.1,-231.13 371.38,-250.61 392.25,-267.2 393.57,-268.25 394.95,-269.25 396.38,-270.21"/>
<polygon fill="#63b8ff" stroke="#63b8ff" points="394.58,-273.21 405,-275.13 398.05,-267.13 394.58,-273.21"/>
</a>
</g>
</g>
<!-- Node17&#45;&gt;Node16 -->
<g id="edge28_Node000017_Node000016" class="edge">
<title>Node17&#45;&gt;Node16</title>
<g id="a_edge28_Node000017_Node000016"><a xlink:title=" ">
<path fill="none" stroke="#63b8ff" d="M178.4,-305.36C188.88,-340.03 224.43,-453.12 250.25,-480.2 253.36,-483.47 257.01,-486.33 260.9,-488.83"/>
<polygon fill="#63b8ff" stroke="#63b8ff" points="259.13,-491.85 269.58,-493.59 262.49,-485.71 259.13,-491.85"/>
</a>
</g>
</g>
<!-- Node17&#45;&gt;Node17 -->
<g id="edge32_Node000017_Node000017" class="edge">
<title>Node17&#45;&gt;Node17</title>
<g id="a_edge32_Node000017_Node000017"><a xlink:title=" ">
<path fill="none" stroke="#63b8ff" d="M154.49,-305.54C146,-314.18 152.62,-323.2 174.38,-323.2 186.27,-323.2 193.64,-320.5 196.49,-316.65"/>
<polygon fill="#63b8ff" stroke="#63b8ff" points="199.96,-316.14 194.55,-307.03 193.1,-317.52 199.96,-316.14"/>
</a>
</g>
</g>
<!-- Node18 -->
<g id="Node000018" class="node">
<title>Node18</title>
<g id="a_Node000018"><a xlink:href="namespaceshared.html#ad05481a6e28afc976d57ddcba12e8a4d" target="_top" xlink:title="A Blocking Parser that returns the first count of the output.">
<polygon fill="white" stroke="#666666" points="339.38,-400.2 267.12,-400.2 267.12,-380.2 339.38,-380.2 339.38,-400.2"/>
<text text-anchor="middle" x="303.25" y="-386.7" font-family="Helvetica,sans-Serif" font-size="10.00">shared::head</text>
</a>
</g>
</g>
<!-- Node17&#45;&gt;Node18 -->
<g id="edge27_Node000017_Node000018" class="edge">
<title>Node17&#45;&gt;Node18</title>
<g id="a_edge27_Node000017_Node000018"><a xlink:title=" ">
<path fill="none" stroke="#63b8ff" d="M183.01,-305.48C195.45,-321.57 221.59,-352.77 250.25,-371.2 252.35,-372.55 254.56,-373.83 256.84,-375.02"/>
<polygon fill="#63b8ff" stroke="#63b8ff" points="255.19,-378.12 265.73,-379.15 258.13,-371.77 255.19,-378.12"/>
</a>
</g>
</g>
<!-- Node19 -->
<g id="Node000019" class="node">
<title>Node19</title>
<g id="a_Node000019"><a xlink:href="namespaceshared.html#a4ddc24b4d99e824f9b941fa905fb0a81" target="_top" xlink:title="A Blocking Parser that returns the first line of output.">
<polygon fill="white" stroke="#666666" points="346.88,-362.2 259.62,-362.2 259.62,-342.2 346.88,-342.2 346.88,-362.2"/>
<text text-anchor="middle" x="303.25" y="-348.7" font-family="Helvetica,sans-Serif" font-size="10.00">shared::one_line</text>
</a>
</g>
</g>
<!-- Node17&#45;&gt;Node19 -->
<g id="edge31_Node000017_Node000019" class="edge">
<title>Node17&#45;&gt;Node19</title>
<g id="a_edge31_Node000017_Node000019"><a xlink:title=" ">
<path fill="none" stroke="#63b8ff" d="M194.46,-305.69C209.42,-313.71 230.86,-324.78 250.25,-333.2 253.8,-334.74 257.51,-336.27 261.25,-337.75"/>
<polygon fill="#63b8ff" stroke="#63b8ff" points="259.76,-340.92 270.35,-341.21 262.25,-334.38 259.76,-340.92"/>
</a>
</g>
</g>
<!-- Node20 -->
<g id="Node000020" class="node">
<title>Node20</title>
<g id="a_Node000020"><a xlink:href="namespaceshared.html#a8d237bf1ea1e2a6fb5c7d30bcb51f593" target="_top" xlink:title="Batch multiple iterations of an accumulator function together.">
<polygon fill="white" stroke="#666666" points="356.25,-324.2 250.25,-324.2 250.25,-304.2 356.25,-304.2 356.25,-324.2"/>
<text text-anchor="middle" x="303.25" y="-310.7" font-family="Helvetica,sans-Serif" font-size="10.00">shared::single_batch</text>
</a>
</g>
</g>
<!-- Node17&#45;&gt;Node20 -->
<g id="edge35_Node000017_Node000020" class="edge">
<title>Node17&#45;&gt;Node20</title>
<g id="a_edge35_Node000017_Node000020"><a xlink:title=" ">
<path fill="none" stroke="#63b8ff" d="M214.48,-301.06C222.19,-302.21 230.46,-303.45 238.74,-304.69"/>
<polygon fill="#63b8ff" stroke="#63b8ff" points="238.06,-308.13 248.47,-306.15 239.1,-301.21 238.06,-308.13"/>
</a>
</g>
</g>
<!-- Node21 -->
<g id="Node000021" class="node">
<title>Node21</title>
<g id="a_Node000021"><a xlink:href="namespaceshared.html#ae0ec3e8d4de79340eda47eabfd075feb" target="_top" xlink:title="Strip all instance of character from a string.">
<polygon fill="white" stroke="#666666" points="338.25,-286.2 268.25,-286.2 268.25,-266.2 338.25,-266.2 338.25,-286.2"/>
<text text-anchor="middle" x="303.25" y="-272.7" font-family="Helvetica,sans-Serif" font-size="10.00">shared::strip</text>
</a>
</g>
</g>
<!-- Node17&#45;&gt;Node21 -->
<g id="edge36_Node000017_Node000021" class="edge">
<title>Node17&#45;&gt;Node21</title>
<g id="a_edge36_Node000017_Node000021"><a xlink:title=" ">
<path fill="none" stroke="#63b8ff" d="M214.48,-289.35C227.79,-287.35 242.78,-285.11 256.56,-283.04"/>
<polygon fill="#63b8ff" stroke="#63b8ff" points="256.92,-286.53 266.29,-281.59 255.88,-279.61 256.92,-286.53"/>
</a>
</g>
</g>
<!-- Node22 -->
<g id="Node000022" class="node">
<title>Node22</title>
<g id="a_Node000022"><a xlink:href="namespaceshared.html#a77e45bc6735a35fbc38891b166e40a7b" target="_top" xlink:title="Trim characters from the front and end of a string.">
<polygon fill="white" stroke="#666666" points="337.12,-248.2 269.38,-248.2 269.38,-228.2 337.12,-228.2 337.12,-248.2"/>
<text text-anchor="middle" x="303.25" y="-234.7" font-family="Helvetica,sans-Serif" font-size="10.00">shared::trim</text>
</a>
</g>
</g>
<!-- Node17&#45;&gt;Node22 -->
<g id="edge37_Node000017_Node000022" class="edge">
<title>Node17&#45;&gt;Node22</title>
<g id="a_edge37_Node000017_Node000022"><a xlink:title=" ">
<path fill="none" stroke="#63b8ff" d="M196.82,-284.87C202.51,-282.09 208.62,-279.06 214.25,-276.2 230.38,-268.01 233.72,-264.55 250.25,-257.2 253.63,-255.7 257.17,-254.22 260.75,-252.79"/>
<polygon fill="#63b8ff" stroke="#63b8ff" points="261.96,-256.07 270.04,-249.22 259.45,-249.54 261.96,-256.07"/>
</a>
</g>
</g>
</g>
</svg>

<g id="navigator" transform="translate(0 0)" fill="#404254">
  <rect fill="#f2f5e9" fill-opacity="0.5" stroke="#606060" stroke-width=".5" x="0" y="0" width="60" height="60"/>
  <use id="zoomplus" xlink:href="#zoomPlus" x="17" y="9" onmousedown="handleZoom(evt,'in')"/>
  <use id="zoomminus" xlink:href="#zoomMin" x="42" y="9" onmousedown="handleZoom(evt,'out')"/>
  <use id="reset" xlink:href="#resetDef" x="30" y="36" onmousedown="handleReset()"/>
   <use id="arrowup" xlink:href="#arrowUp" x="0" y="0" onmousedown="handlePan(0,-1)"/>
  <use id="arrowright" xlink:href="#arrowRight" x="0" y="0" onmousedown="handlePan(1,0)"/>
  <use id="arrowdown" xlink:href="#arrowDown" x="0" y="0" onmousedown="handlePan(0,1)"/>
  <use id="arrowleft" xlink:href="#arrowLeft" x="0" y="0" onmousedown="handlePan(-1,0)"/>
</g>
<svg viewBox="0 0 15 15" width="100%" height="30px" preserveAspectRatio="xMaxYMin meet">
 <g id="arrow_out" transform="scale(0.3 0.3)">
  <a xlink:href="namespacegenerate_a17cf0da8addab269d21c2c8074d85c4e_cgraph_org.svg" target="_base">
   <rect id="button" ry="5" rx="5" y="6" x="6" height="38" width="38"
        fill="#f2f5e9" fill-opacity="0.5" stroke="#606060" stroke-width="1.0"/>
   <path id="arrow"
     d="M 11.500037,31.436501 C 11.940474,20.09759 22.043105,11.32322 32.158766,21.979434 L 37.068811,17.246167 C 37.068811,17.246167 37.088388,32 37.088388,32 L 22.160133,31.978069 C 22.160133,31.978069 26.997745,27.140456 26.997745,27.140456 C 18.528582,18.264221 13.291696,25.230495 11.500037,31.436501 z"
     style="fill:#404040;"/>
  </a>
 </g>
</svg>

<style type='text/css'>
<![CDATA[
[data-mouse-over-selected='false'] { opacity: 0.7; }
[data-mouse-over-selected='true']  { opacity: 1.0; }
]]>
</style>
<script type="application/ecmascript"><![CDATA[
document.addEventListener('DOMContentLoaded', (event) => {
  highlightEdges();
  highlightAdjacentNodes();
});
]]></script>
</svg>
