<?xml version="1.0" encoding="UTF-8" standalone="no"?>
<!DOCTYPE svg PUBLIC "-//W3C//DTD SVG 1.1//EN"
 "http://www.w3.org/Graphics/SVG/1.1/DTD/svg11.dtd">
<!-- Generated by graphviz version 12.2.1 (0)
 -->
<!-- Title: generate::desktop_entry Pages: 1 -->
<svg width="621pt" height="161pt"
 viewBox="0.00 0.00 621.25 161.00" xmlns="http://www.w3.org/2000/svg" xmlns:xlink="http://www.w3.org/1999/xlink">
<g id="graph0" class="graph" transform="scale(1 1) rotate(0) translate(4 157)">
<title>generate::desktop_entry</title>
<!-- Node1 -->
<g id="Node000001" class="node">
<title>Node1</title>
<g id="a_Node000001"><a xlink:title="Generate a desktop file for the sandbox.">
<polygon fill="#999999" stroke="#666666" points="121,-115 0,-115 0,-95 121,-95 121,-115"/>
<text text-anchor="middle" x="60.5" y="-101.5" font-family="Helvetica,sans-Serif" font-size="10.00">generate::desktop_entry</text>
</a>
</g>
</g>
<!-- Node2 -->
<g id="Node000002" class="node">
<title>Node2</title>
<g id="a_Node000002"><a xlink:href="namespaceshared.html#a2f7cb04abbe01ba7193f2d2a6d520355" target="_top" xlink:title="Join a vector into a string.">
<polygon fill="white" stroke="#666666" points="364.12,-153 297.88,-153 297.88,-133 364.12,-133 364.12,-153"/>
<text text-anchor="middle" x="331" y="-139.5" font-family="Helvetica,sans-Serif" font-size="10.00">shared::join</text>
</a>
</g>
</g>
<!-- Node1&#45;&gt;Node2 -->
<g id="edge1_Node000001_Node000002" class="edge">
<title>Node1&#45;&gt;Node2</title>
<g id="a_edge1_Node000001_Node000002"><a xlink:title=" ">
<path fill="none" stroke="#63b8ff" d="M81.32,-115.47C100.18,-124.8 129.66,-137.76 157,-143 200.33,-151.3 250.9,-150.08 286.13,-147.53"/>
<polygon fill="#63b8ff" stroke="#63b8ff" points="286.25,-151.03 295.94,-146.74 285.7,-144.05 286.25,-151.03"/>
</a>
</g>
</g>
<!-- Node3 -->
<g id="Node000003" class="node">
<title>Node3</title>
<g id="a_Node000003"><a xlink:href="namespaceshared.html#afac154f1bef460ef6f24705f6c033f37" target="_top" xlink:title="Read a file.">
<polygon fill="white" stroke="#666666" points="246.5,-134 158.5,-134 158.5,-114 246.5,-114 246.5,-134"/>
<text text-anchor="middle" x="202.5" y="-120.5" font-family="Helvetica,sans-Serif" font-size="10.00">shared::read_file</text>
</a>
</g>
</g>
<!-- Node1&#45;&gt;Node3 -->
<g id="edge2_Node000001_Node000003" class="edge">
<title>Node1&#45;&gt;Node3</title>
<g id="a_edge2_Node000001_Node000003"><a xlink:title=" ">
<path fill="none" stroke="#63b8ff" d="M121.28,-113.11C129.76,-114.26 138.45,-115.44 146.83,-116.58"/>
<polygon fill="#63b8ff" stroke="#63b8ff" points="146.13,-120.02 156.51,-117.89 147.07,-113.08 146.13,-120.02"/>
</a>
</g>
</g>
<!-- Node4 -->
<g id="Node000004" class="node">
<title>Node4</title>
<g id="a_Node000004"><a xlink:href="namespacegenerate.html#a67b94cdd53f264ff45e467ce97cd44d4" target="_top" xlink:title="Generate a script for the sandbox.">
<polygon fill="white" stroke="#666666" points="244.25,-96 160.75,-96 160.75,-76 244.25,-76 244.25,-96"/>
<text text-anchor="middle" x="202.5" y="-82.5" font-family="Helvetica,sans-Serif" font-size="10.00">generate::script</text>
</a>
</g>
</g>
<!-- Node1&#45;&gt;Node4 -->
<g id="edge3_Node000001_Node000004" class="edge">
<title>Node1&#45;&gt;Node4</title>
<g id="a_edge3_Node000001_Node000004"><a xlink:title=" ">
<path fill="none" stroke="#63b8ff" d="M121.28,-96.89C130.58,-95.62 140.13,-94.33 149.25,-93.09"/>
<polygon fill="#63b8ff" stroke="#63b8ff" points="149.58,-96.58 159.01,-91.77 148.63,-89.64 149.58,-96.58"/>
</a>
</g>
</g>
<!-- Node6 -->
<g id="Node000006" class="node">
<title>Node6</title>
<g id="a_Node000006"><a xlink:href="namespaceshared.html#ae5d42a7f6819f149991304227a611c78" target="_top" xlink:title="A Blocking Parser that splits the output into a vector.">
<polygon fill="white" stroke="#666666" points="248,-58 157,-58 157,-38 248,-38 248,-58"/>
<text text-anchor="middle" x="202.5" y="-44.5" font-family="Helvetica,sans-Serif" font-size="10.00">shared::vectorize</text>
</a>
</g>
</g>
<!-- Node1&#45;&gt;Node6 -->
<g id="edge6_Node000001_Node000006" class="edge">
<title>Node1&#45;&gt;Node6</title>
<g id="a_edge6_Node000001_Node000006"><a xlink:title=" ">
<path fill="none" stroke="#63b8ff" d="M87.18,-94.55C109.18,-85.59 141.11,-72.59 165.64,-62.6"/>
<polygon fill="#63b8ff" stroke="#63b8ff" points="166.64,-65.97 174.58,-58.96 164,-59.49 166.64,-65.97"/>
</a>
</g>
</g>
<!-- Node4&#45;&gt;Node2 -->
<g id="edge5_Node000004_Node000002" class="edge">
<title>Node4&#45;&gt;Node2</title>
<g id="a_edge5_Node000004_Node000002"><a xlink:title=" ">
<path fill="none" stroke="#63b8ff" d="M228.04,-96.32C234.55,-99.1 241.55,-102.13 248,-105 264.5,-112.34 282.73,-120.76 297.81,-127.81"/>
<polygon fill="#63b8ff" stroke="#63b8ff" points="296.25,-130.94 306.79,-132.01 299.22,-124.6 296.25,-130.94"/>
</a>
</g>
</g>
<!-- Node5 -->
<g id="Node000005" class="node">
<title>Node5</title>
<g id="a_Node000005"><a xlink:href="namespaceshared.html#aa381bd3e7caf6ab85ad8d8518fd4adf2" target="_top" xlink:title="Execute stuff.">
<polygon fill="white" stroke="#666666" points="367.12,-96 294.88,-96 294.88,-76 367.12,-76 367.12,-96"/>
<text text-anchor="middle" x="331" y="-82.5" font-family="Helvetica,sans-Serif" font-size="10.00">shared::exec</text>
</a>
</g>
</g>
<!-- Node4&#45;&gt;Node5 -->
<g id="edge4_Node000004_Node000005" class="edge">
<title>Node4&#45;&gt;Node5</title>
<g id="a_edge4_Node000004_Node000005"><a xlink:title=" ">
<path fill="none" stroke="#63b8ff" d="M244.57,-86C256.94,-86 270.61,-86 283.32,-86"/>
<polygon fill="#63b8ff" stroke="#63b8ff" points="283.14,-89.5 293.14,-86 283.14,-82.5 283.14,-89.5"/>
</a>
</g>
</g>
<!-- Node7 -->
<g id="Node000007" class="node">
<title>Node7</title>
<g id="a_Node000007"><a xlink:href="namespaceshared.html#a9ed709af90ab0108e5c3a8afdd3e7042" target="_top" xlink:title="Split the contents of an FD.">
<polygon fill="white" stroke="#666666" points="378,-58 284,-58 284,-38 378,-38 378,-58"/>
<text text-anchor="middle" x="331" y="-44.5" font-family="Helvetica,sans-Serif" font-size="10.00">shared::fd_splitter</text>
</a>
</g>
</g>
<!-- Node6&#45;&gt;Node7 -->
<g id="edge7_Node000006_Node000007" class="edge">
<title>Node6&#45;&gt;Node7</title>
<g id="a_edge7_Node000006_Node000007"><a xlink:title=" ">
<path fill="none" stroke="#63b8ff" d="M248.46,-48C256.27,-48 264.5,-48 272.6,-48"/>
<polygon fill="#63b8ff" stroke="#63b8ff" points="272.39,-51.5 282.39,-48 272.39,-44.5 272.39,-51.5"/>
</a>
</g>
</g>
<!-- Node8 -->
<g id="Node000008" class="node">
<title>Node8</title>
<g id="a_Node000008"><a xlink:href="namespaceshared.html#a80f3b59804700742a5a0c6ea15bf24f9" target="_top" xlink:title="A Blocking Parser that returns the output in a single string.">
<polygon fill="white" stroke="#666666" points="491.88,-96 416.62,-96 416.62,-76 491.88,-76 491.88,-96"/>
<text text-anchor="middle" x="454.25" y="-82.5" font-family="Helvetica,sans-Serif" font-size="10.00">shared::dump</text>
</a>
</g>
</g>
<!-- Node7&#45;&gt;Node8 -->
<g id="edge8_Node000007_Node000008" class="edge">
<title>Node7&#45;&gt;Node8</title>
<g id="a_edge8_Node000007_Node000008"><a xlink:title=" ">
<path fill="none" stroke="#63b8ff" d="M365.45,-58.48C378.97,-62.72 394.76,-67.67 409.19,-72.19"/>
<polygon fill="#63b8ff" stroke="#63b8ff" points="407.87,-75.45 418.46,-75.1 409.97,-68.77 407.87,-75.45"/>
</a>
</g>
</g>
<!-- Node9 -->
<g id="Node000009" class="node">
<title>Node9</title>
<g id="a_Node000009"><a xlink:href="namespaceshared.html#a6282d0d8d2ab3f70038d7428729c15ca" target="_top" xlink:title="Escape a string.">
<polygon fill="white" stroke="#666666" points="613.25,-39 530.5,-39 530.5,-19 613.25,-19 613.25,-39"/>
<text text-anchor="middle" x="571.88" y="-25.5" font-family="Helvetica,sans-Serif" font-size="10.00">shared::escape</text>
</a>
</g>
</g>
<!-- Node7&#45;&gt;Node9 -->
<g id="edge9_Node000007_Node000009" class="edge">
<title>Node7&#45;&gt;Node9</title>
<g id="a_edge9_Node000007_Node000009"><a xlink:title=" ">
<path fill="none" stroke="#63b8ff" d="M378.34,-44.31C418.65,-41.11 477,-36.47 518.88,-33.14"/>
<polygon fill="#63b8ff" stroke="#63b8ff" points="519.03,-36.63 528.72,-32.35 518.48,-29.66 519.03,-36.63"/>
</a>
</g>
</g>
<!-- Node10 -->
<g id="Node000010" class="node">
<title>Node10</title>
<g id="a_Node000010"><a xlink:href="namespaceshared.html#a690cc836408825d804377522d9d99a07" target="_top" xlink:title="Split a string.">
<polygon fill="white" stroke="#666666" points="494.5,-20 414,-20 414,0 494.5,0 494.5,-20"/>
<text text-anchor="middle" x="454.25" y="-6.5" font-family="Helvetica,sans-Serif" font-size="10.00">shared::splitter</text>
</a>
</g>
</g>
<!-- Node7&#45;&gt;Node10 -->
<g id="edge10_Node000007_Node000010" class="edge">
<title>Node7&#45;&gt;Node10</title>
<g id="a_edge10_Node000007_Node000010"><a xlink:title=" ">
<path fill="none" stroke="#63b8ff" d="M365.45,-37.52C378.97,-33.28 394.76,-28.33 409.19,-23.81"/>
<polygon fill="#63b8ff" stroke="#63b8ff" points="409.97,-27.23 418.46,-20.9 407.87,-20.55 409.97,-27.23"/>
</a>
</g>
</g>
<!-- Node10&#45;&gt;Node9 -->
<g id="edge11_Node000010_Node000009" class="edge">
<title>Node10&#45;&gt;Node9</title>
<g id="a_edge11_Node000010_Node000009"><a xlink:title=" ">
<path fill="none" stroke="#63b8ff" d="M494.72,-16.49C502.46,-17.76 510.68,-19.11 518.76,-20.44"/>
<polygon fill="#63b8ff" stroke="#63b8ff" points="518.08,-23.87 528.52,-22.04 519.22,-16.96 518.08,-23.87"/>
</a>
</g>
</g>
</g>
</svg>
