<?xml version="1.0" encoding="UTF-8" standalone="no"?>
<!DOCTYPE svg PUBLIC "-//W3C//DTD SVG 1.1//EN"
 "http://www.w3.org/Graphics/SVG/1.1/DTD/svg11.dtd">
<!-- Generated by graphviz version 12.2.1 (0)
 -->
<!-- Title: libraries::get Pages: 1 -->
<svg width="317pt" height="142pt"
 viewBox="0.00 0.00 317.00 142.00" xmlns="http://www.w3.org/2000/svg" xmlns:xlink="http://www.w3.org/1999/xlink">
<g id="graph0" class="graph" transform="scale(1 1) rotate(0) translate(4 138)">
<title>libraries::get</title>
<!-- Node1 -->
<g id="Node000001" class="node">
<title>Node1</title>
<g id="a_Node000001"><a xlink:title="Recursively resolve all shared&#45;libraries needed by a library.">
<polygon fill="#999999" stroke="#666666" points="69.25,-77 0,-77 0,-57 69.25,-57 69.25,-77"/>
<text text-anchor="middle" x="34.62" y="-63.5" font-family="Helvetica,sans-Serif" font-size="10.00">libraries::get</text>
</a>
</g>
</g>
<!-- Node2 -->
<g id="Node000002" class="node">
<title>Node2</title>
<g id="a_Node000002"><a xlink:href="namespaceshared.html#a993cd576fb1a43b497dc350728bd8c80" target="_top" xlink:title="Batch multiple iterations of an accumulator function together, threaded.">
<polygon fill="white" stroke="#666666" points="186.5,-134 111.25,-134 111.25,-114 186.5,-114 186.5,-134"/>
<text text-anchor="middle" x="148.88" y="-120.5" font-family="Helvetica,sans-Serif" font-size="10.00">shared::batch</text>
</a>
</g>
</g>
<!-- Node1&#45;&gt;Node2 -->
<g id="edge1_Node000001_Node000002" class="edge">
<title>Node1&#45;&gt;Node2</title>
<g id="a_edge1_Node000001_Node000002"><a xlink:title=" ">
<path fill="none" stroke="#63b8ff" d="M53.74,-77.41C67.67,-85.28 87.48,-96.21 105.25,-105 107.95,-106.34 110.76,-107.68 113.6,-109.01"/>
<polygon fill="#63b8ff" stroke="#63b8ff" points="111.89,-112.08 122.44,-113.05 114.8,-105.71 111.89,-112.08"/>
</a>
</g>
</g>
<!-- Node4 -->
<g id="Node000004" class="node">
<title>Node4</title>
<g id="a_Node000004"><a xlink:href="namespaceshared.html#a2f7cb04abbe01ba7193f2d2a6d520355" target="_top" xlink:title="Join a vector into a string.">
<polygon fill="white" stroke="#666666" points="182,-96 115.75,-96 115.75,-76 182,-76 182,-96"/>
<text text-anchor="middle" x="148.88" y="-82.5" font-family="Helvetica,sans-Serif" font-size="10.00">shared::join</text>
</a>
</g>
</g>
<!-- Node1&#45;&gt;Node4 -->
<g id="edge3_Node000001_Node000004" class="edge">
<title>Node1&#45;&gt;Node4</title>
<g id="a_edge3_Node000001_Node000004"><a xlink:title=" ">
<path fill="none" stroke="#63b8ff" d="M69.61,-72.75C80.55,-74.6 92.82,-76.68 104.35,-78.63"/>
<polygon fill="#63b8ff" stroke="#63b8ff" points="103.61,-82.06 114.05,-80.28 104.78,-75.16 103.61,-82.06"/>
</a>
</g>
</g>
<!-- Node5 -->
<g id="Node000005" class="node">
<title>Node5</title>
<g id="a_Node000005"><a xlink:href="namespaceshared.html#a99724c73af55fa92ae29fee700152917" target="_top" xlink:title="Log output to console, if verbose.">
<polygon fill="white" stroke="#666666" points="180.88,-58 116.88,-58 116.88,-38 180.88,-38 180.88,-58"/>
<text text-anchor="middle" x="148.88" y="-44.5" font-family="Helvetica,sans-Serif" font-size="10.00">shared::log</text>
</a>
</g>
</g>
<!-- Node1&#45;&gt;Node5 -->
<g id="edge4_Node000001_Node000005" class="edge">
<title>Node1&#45;&gt;Node5</title>
<g id="a_edge4_Node000001_Node000005"><a xlink:title=" ">
<path fill="none" stroke="#63b8ff" d="M69.61,-61.25C80.95,-59.33 93.74,-57.16 105.63,-55.15"/>
<polygon fill="#63b8ff" stroke="#63b8ff" points="105.92,-58.65 115.19,-53.53 104.75,-51.75 105.92,-58.65"/>
</a>
</g>
</g>
<!-- Node6 -->
<g id="Node000006" class="node">
<title>Node6</title>
<g id="a_Node000006"><a xlink:href="namespaceshared.html#a6955b6b671ef8b660a0d6ed018712923" target="_top" xlink:title="Resolve wildcard patterns.">
<polygon fill="white" stroke="#666666" points="192.5,-20 105.25,-20 105.25,0 192.5,0 192.5,-20"/>
<text text-anchor="middle" x="148.88" y="-6.5" font-family="Helvetica,sans-Serif" font-size="10.00">shared::wildcard</text>
</a>
</g>
</g>
<!-- Node1&#45;&gt;Node6 -->
<g id="edge5_Node000001_Node000006" class="edge">
<title>Node1&#45;&gt;Node6</title>
<g id="a_edge5_Node000001_Node000006"><a xlink:title=" ">
<path fill="none" stroke="#63b8ff" d="M53.74,-56.59C67.67,-48.72 87.48,-37.79 105.25,-29 107.95,-27.66 110.76,-26.32 113.6,-24.99"/>
<polygon fill="#63b8ff" stroke="#63b8ff" points="114.8,-28.29 122.44,-20.95 111.89,-21.92 114.8,-28.29"/>
</a>
</g>
</g>
<!-- Node3 -->
<g id="Node000003" class="node">
<title>Node3</title>
<g id="a_Node000003"><a xlink:href="namespaceshared.html#a1636cc0cb46e6be8f452dbc1e92a1e28" target="_top" xlink:title="Extend a container in place.">
<polygon fill="white" stroke="#666666" points="309,-134 228.5,-134 228.5,-114 309,-114 309,-134"/>
<text text-anchor="middle" x="268.75" y="-120.5" font-family="Helvetica,sans-Serif" font-size="10.00">shared::extend</text>
</a>
</g>
</g>
<!-- Node2&#45;&gt;Node3 -->
<g id="edge2_Node000002_Node000003" class="edge">
<title>Node2&#45;&gt;Node3</title>
<g id="a_edge2_Node000002_Node000003"><a xlink:title=" ">
<path fill="none" stroke="#63b8ff" d="M186.85,-124C196.36,-124 206.77,-124 216.86,-124"/>
<polygon fill="#63b8ff" stroke="#63b8ff" points="216.54,-127.5 226.54,-124 216.54,-120.5 216.54,-127.5"/>
</a>
</g>
</g>
</g>
</svg>
