<?xml version="1.0" encoding="UTF-8" standalone="no"?>
<!DOCTYPE svg PUBLIC "-//W3C//DTD SVG 1.1//EN"
 "http://www.w3.org/Graphics/SVG/1.1/DTD/svg11.dtd">
<!-- Generated by graphviz version 12.2.1 (0)
 -->
<!-- Title: shared::one_line Pages: 1 -->
<svg width="483pt" height="72pt"
 viewBox="0.00 0.00 483.00 72.00" xmlns="http://www.w3.org/2000/svg" xmlns:xlink="http://www.w3.org/1999/xlink">

<svg id="main" version="1.1" xmlns="http://www.w3.org/2000/svg" xmlns:xlink="http://www.w3.org/1999/xlink" xml:space="preserve">

<style type="text/css"><![CDATA[
.node, .edge {opacity: 0.7;}
.node.selected, .edge.selected {opacity: 1;}
.edge:hover path { stroke: red; }
.edge:hover polygon { stroke: red; fill: red; }
]]></style>
<script type="application/ecmascript" xlink:href="svg.min.js"/>
<svg id="graph" class="graph">
<g id="graph0" class="graph" transform="scale(1 1) rotate(0) translate(4 68)">
<title>shared::one_line</title>
<!-- Node1 -->
<g id="Node000001" class="node">
<title>Node1</title>
<g id="a_Node000001"><a xlink:title="A Blocking Parser that returns the first line of output.">
<polygon fill="#999999" stroke="#666666" points="475,-45 387.75,-45 387.75,-25 475,-25 475,-45"/>
<text text-anchor="middle" x="431.38" y="-31.5" font-family="Helvetica,sans-Serif" font-size="10.00">shared::one_line</text>
</a>
</g>
</g>
<!-- Node2 -->
<g id="Node000002" class="node">
<title>Node2</title>
<g id="a_Node000002"><a xlink:href="namespacebinaries.html#ac1478c81b2eb2c4ecdba98e92c4e7651" target="_top" xlink:title="Parse a binary to determine dependencies.">
<polygon fill="white" stroke="#666666" points="351.75,-45 272,-45 272,-25 351.75,-25 351.75,-45"/>
<text text-anchor="middle" x="311.88" y="-31.5" font-family="Helvetica,sans-Serif" font-size="10.00">binaries::parse</text>
</a>
</g>
</g>
<!-- Node1&#45;&gt;Node2 -->
<g id="edge1_Node000001_Node000002" class="edge">
<title>Node1&#45;&gt;Node2</title>
<g id="a_edge1_Node000001_Node000002"><a xlink:title=" ">
<path fill="none" stroke="#63b8ff" d="M376.01,-35C367.93,-35 359.75,-35 352.06,-35"/>
<polygon fill="#63b8ff" stroke="#63b8ff" points="375.78,-38.5 385.78,-35 375.78,-31.5 375.78,-38.5"/>
</a>
</g>
</g>
<!-- Node2&#45;&gt;Node2 -->
<g id="edge3_Node000002_Node000002" class="edge">
<title>Node2&#45;&gt;Node2</title>
<g id="a_edge3_Node000002_Node000002"><a xlink:title=" ">
<path fill="none" stroke="#63b8ff" d="M333,-56.44C330.28,-60.3 323.23,-63 311.88,-63 291.1,-63 284.77,-53.98 292.89,-45.34"/>
<polygon fill="#63b8ff" stroke="#63b8ff" points="336.47,-55.98 331.15,-46.82 329.6,-57.31 336.47,-55.98"/>
</a>
</g>
</g>
<!-- Node3 -->
<g id="Node000003" class="node">
<title>Node3</title>
<g id="a_Node000003"><a xlink:href="namespacegenerate.html#a38dcdfdf9293b8aafe77392021d65019" target="_top" xlink:title="Generate the bulk of the main program command.">
<polygon fill="white" stroke="#666666" points="225.88,-64 147.62,-64 147.62,-44 225.88,-44 225.88,-64"/>
<text text-anchor="middle" x="186.75" y="-50.5" font-family="Helvetica,sans-Serif" font-size="10.00">generate::cmd</text>
</a>
</g>
</g>
<!-- Node2&#45;&gt;Node3 -->
<g id="edge2_Node000002_Node000003" class="edge">
<title>Node2&#45;&gt;Node3</title>
<g id="a_edge2_Node000002_Node000003"><a xlink:title=" ">
<path fill="none" stroke="#63b8ff" d="M260.41,-42.79C249,-44.55 237.07,-46.39 226.25,-48.06"/>
<polygon fill="#63b8ff" stroke="#63b8ff" points="260.73,-46.28 270.08,-41.29 259.67,-39.36 260.73,-46.28"/>
</a>
</g>
</g>
<!-- Node4 -->
<g id="Node000004" class="node">
<title>Node4</title>
<g id="a_Node000004"><a xlink:href="namespacegenerate.html#a17cf0da8addab269d21c2c8074d85c4e" target="_top" xlink:title="Setup the Proxy&#39;s SOF.">
<polygon fill="white" stroke="#666666" points="236,-26 137.5,-26 137.5,-6 236,-6 236,-26"/>
<text text-anchor="middle" x="186.75" y="-12.5" font-family="Helvetica,sans-Serif" font-size="10.00">generate::proxy_lib</text>
</a>
</g>
</g>
<!-- Node2&#45;&gt;Node4 -->
<g id="edge4_Node000002_Node000004" class="edge">
<title>Node2&#45;&gt;Node4</title>
<g id="a_edge4_Node000002_Node000004"><a xlink:title=" ">
<path fill="none" stroke="#63b8ff" d="M260.46,-27.22C252.44,-25.98 244.15,-24.7 236.17,-23.47"/>
<polygon fill="#63b8ff" stroke="#63b8ff" points="259.67,-30.64 270.08,-28.71 260.73,-23.72 259.67,-30.64"/>
</a>
</g>
</g>
<!-- Node5 -->
<g id="Node000005" class="node">
<title>Node5</title>
<g id="a_Node000005"><a xlink:href="namespacegenerate.html#a5c0026523dd30f942c55ad25f1b607b4" target="_top" xlink:title="Spawn an instance of the xdg&#45;dbus&#45;proxy for the application instance.">
<polygon fill="white" stroke="#666666" points="101.5,-32 0,-32 0,0 101.5,0 101.5,-32"/>
<text text-anchor="start" x="8" y="-18.5" font-family="Helvetica,sans-Serif" font-size="10.00">generate::xdg_dbus</text>
<text text-anchor="middle" x="50.75" y="-6.5" font-family="Helvetica,sans-Serif" font-size="10.00">_proxy</text>
</a>
</g>
</g>
<!-- Node4&#45;&gt;Node5 -->
<g id="edge5_Node000004_Node000005" class="edge">
<title>Node4&#45;&gt;Node5</title>
<g id="a_edge5_Node000004_Node000005"><a xlink:title=" ">
<path fill="none" stroke="#63b8ff" d="M126.08,-16C117.99,-16 109.76,-16 101.86,-16"/>
<polygon fill="#63b8ff" stroke="#63b8ff" points="125.86,-19.5 135.86,-16 125.86,-12.5 125.86,-19.5"/>
</a>
</g>
</g>
</g>
</svg>
</svg>

<style type='text/css'>
<![CDATA[
[data-mouse-over-selected='false'] { opacity: 0.7; }
[data-mouse-over-selected='true']  { opacity: 1.0; }
]]>
</style>
<script type="application/ecmascript"><![CDATA[
document.addEventListener('DOMContentLoaded', (event) => {
  highlightEdges();
  highlightAdjacentNodes();
});
]]></script>
</svg>
