<?xml version="1.0" encoding="UTF-8" standalone="no"?>
<!DOCTYPE svg PUBLIC "-//W3C//DTD SVG 1.1//EN"
 "http://www.w3.org/Graphics/SVG/1.1/DTD/svg11.dtd">
<!-- Generated by graphviz version 12.2.1 (0)
 -->
<!-- Title: shared::init Pages: 1 -->
<svg width="364pt" height="279pt"
 viewBox="0.00 0.00 363.50 278.84" xmlns="http://www.w3.org/2000/svg" xmlns:xlink="http://www.w3.org/1999/xlink">
<g id="graph0" class="graph" transform="scale(1 1) rotate(0) translate(4 274.84)">
<title>shared::init</title>
<!-- Node1 -->
<g id="Node000001" class="node">
<title>Node1</title>
<g id="a_Node000001"><a xlink:title="Compose a return value from an accumulator function.">
<polygon fill="#999999" stroke="#666666" points="355.5,-152 291.5,-152 291.5,-132 355.5,-132 355.5,-152"/>
<text text-anchor="middle" x="323.5" y="-138.5" font-family="Helvetica,sans-Serif" font-size="10.00">shared::init</text>
</a>
</g>
</g>
<!-- Node2 -->
<g id="Node000002" class="node">
<title>Node2</title>
<g id="a_Node000002"><a xlink:href="namespacegenerate.html#a38dcdfdf9293b8aafe77392021d65019" target="_top" xlink:title="Generate the bulk of the main program command.">
<polygon fill="white" stroke="#666666" points="89.88,-212 11.62,-212 11.62,-192 89.88,-192 89.88,-212"/>
<text text-anchor="middle" x="50.75" y="-198.5" font-family="Helvetica,sans-Serif" font-size="10.00">generate::cmd</text>
</a>
</g>
</g>
<!-- Node1&#45;&gt;Node2 -->
<g id="edge1_Node000001_Node000002" class="edge">
<title>Node1&#45;&gt;Node2</title>
<g id="a_edge1_Node000001_Node000002"><a xlink:title=" ">
<path fill="none" stroke="#63b8ff" d="M316.94,-163.17C308.61,-190.06 290.04,-235.32 255.5,-255 209.93,-280.96 187.95,-269.33 137.5,-255 108.38,-246.73 79.45,-225.43 63.76,-212.49"/>
<polygon fill="#63b8ff" stroke="#63b8ff" points="320.26,-164.3 319.65,-153.72 313.53,-162.37 320.26,-164.3"/>
</a>
</g>
</g>
<!-- Node3 -->
<g id="Node000003" class="node">
<title>Node3</title>
<g id="a_Node000003"><a xlink:href="classarg_1_1Arg.html#af2111fcb064aca3efb8642f09d9d5c2f" target="_top" xlink:title="Digest arguments.">
<polygon fill="white" stroke="#666666" points="237.88,-246 155.12,-246 155.12,-226 237.88,-226 237.88,-246"/>
<text text-anchor="middle" x="196.5" y="-232.5" font-family="Helvetica,sans-Serif" font-size="10.00">arg::Arg::digest</text>
</a>
</g>
</g>
<!-- Node1&#45;&gt;Node3 -->
<g id="edge2_Node000001_Node000003" class="edge">
<title>Node1&#45;&gt;Node3</title>
<g id="a_edge2_Node000001_Node000003"><a xlink:title=" ">
<path fill="none" stroke="#63b8ff" d="M309.74,-161.28C297.63,-178.19 277.98,-202.3 255.5,-217 250.18,-220.48 244.17,-223.37 238.08,-225.76"/>
<polygon fill="#63b8ff" stroke="#63b8ff" points="312.29,-163.75 315.1,-153.53 306.53,-159.77 312.29,-163.75"/>
</a>
</g>
</g>
<!-- Node4 -->
<g id="Node000004" class="node">
<title>Node4</title>
<g id="a_Node000004"><a xlink:href="namespacesyscalls.html#aabdab752b02a21ab92e3af4fabba493b" target="_top" xlink:title="Generate a syscall filter.">
<polygon fill="white" stroke="#666666" points="234.88,-190 158.12,-190 158.12,-170 234.88,-170 234.88,-190"/>
<text text-anchor="middle" x="196.5" y="-176.5" font-family="Helvetica,sans-Serif" font-size="10.00">syscalls::filter</text>
</a>
</g>
</g>
<!-- Node1&#45;&gt;Node4 -->
<g id="edge3_Node000001_Node000004" class="edge">
<title>Node1&#45;&gt;Node4</title>
<g id="a_edge3_Node000001_Node000004"><a xlink:title=" ">
<path fill="none" stroke="#63b8ff" d="M280.67,-154.72C264.81,-159.54 246.93,-164.97 231.84,-169.56"/>
<polygon fill="#63b8ff" stroke="#63b8ff" points="281.28,-158.19 289.83,-151.93 279.25,-151.49 281.28,-158.19"/>
</a>
</g>
</g>
<!-- Node5 -->
<g id="Node000005" class="node">
<title>Node5</title>
<g id="a_Node000005"><a xlink:href="classarg_1_1Arg.html#a244007ab0c913b151b5a59e39149daea" target="_top" xlink:title="Return all values paired with their modifiers.">
<polygon fill="white" stroke="#666666" points="249.88,-152 143.12,-152 143.12,-132 249.88,-132 249.88,-152"/>
<text text-anchor="middle" x="196.5" y="-138.5" font-family="Helvetica,sans-Serif" font-size="10.00">arg::Arg::get_modlist</text>
</a>
</g>
</g>
<!-- Node1&#45;&gt;Node5 -->
<g id="edge5_Node000001_Node000005" class="edge">
<title>Node1&#45;&gt;Node5</title>
<g id="a_edge5_Node000001_Node000005"><a xlink:title=" ">
<path fill="none" stroke="#63b8ff" d="M280.01,-142C270.42,-142 260.13,-142 250.19,-142"/>
<polygon fill="#63b8ff" stroke="#63b8ff" points="279.77,-145.5 289.77,-142 279.77,-138.5 279.77,-145.5"/>
</a>
</g>
</g>
<!-- Node6 -->
<g id="Node000006" class="node">
<title>Node6</title>
<g id="a_Node000006"><a xlink:href="namespacebinaries.html#ac1478c81b2eb2c4ecdba98e92c4e7651" target="_top" xlink:title="Parse a binary to determine dependencies.">
<polygon fill="white" stroke="#666666" points="236.38,-96 156.62,-96 156.62,-76 236.38,-76 236.38,-96"/>
<text text-anchor="middle" x="196.5" y="-82.5" font-family="Helvetica,sans-Serif" font-size="10.00">binaries::parse</text>
</a>
</g>
</g>
<!-- Node1&#45;&gt;Node6 -->
<g id="edge6_Node000001_Node000006" class="edge">
<title>Node1&#45;&gt;Node6</title>
<g id="a_edge6_Node000001_Node000006"><a xlink:title=" ">
<path fill="none" stroke="#63b8ff" d="M288.9,-126.95C267.29,-117.27 239.77,-104.93 220.59,-96.35"/>
<polygon fill="#63b8ff" stroke="#63b8ff" points="287.34,-130.08 297.9,-130.98 290.21,-123.7 287.34,-130.08"/>
</a>
</g>
</g>
<!-- Node8 -->
<g id="Node000008" class="node">
<title>Node8</title>
<g id="a_Node000008"><a xlink:href="namespacearg.html#a9da86862acc776f92533ebac921afc40" target="_top" xlink:title="Parse command line arguments.">
<polygon fill="white" stroke="#666666" points="238.25,-58 154.75,-58 154.75,-38 238.25,-38 238.25,-58"/>
<text text-anchor="middle" x="196.5" y="-44.5" font-family="Helvetica,sans-Serif" font-size="10.00">arg::parse_args</text>
</a>
</g>
</g>
<!-- Node1&#45;&gt;Node8 -->
<g id="edge10_Node000001_Node000008" class="edge">
<title>Node1&#45;&gt;Node8</title>
<g id="a_edge10_Node000001_Node000008"><a xlink:title=" ">
<path fill="none" stroke="#63b8ff" d="M309.74,-122.72C297.63,-105.81 277.98,-81.7 255.5,-67 250.36,-63.64 244.57,-60.82 238.69,-58.48"/>
<polygon fill="#63b8ff" stroke="#63b8ff" points="306.53,-124.23 315.1,-130.47 312.29,-120.25 306.53,-124.23"/>
</a>
</g>
</g>
<!-- Node9 -->
<g id="Node000009" class="node">
<title>Node9</title>
<g id="a_Node000009"><a xlink:href="namespacesyscalls.html#a501461c3842033cfab85ba4b8f328ed8" target="_top" xlink:title="Append an existing policy with newly discovered syscalls.">
<polygon fill="white" stroke="#666666" points="255.5,-20 137.5,-20 137.5,0 255.5,0 255.5,-20"/>
<text text-anchor="middle" x="196.5" y="-6.5" font-family="Helvetica,sans-Serif" font-size="10.00">syscalls::update_policy</text>
</a>
</g>
</g>
<!-- Node1&#45;&gt;Node9 -->
<g id="edge11_Node000001_Node000009" class="edge">
<title>Node1&#45;&gt;Node9</title>
<g id="a_edge11_Node000001_Node000009"><a xlink:title=" ">
<path fill="none" stroke="#63b8ff" d="M315.3,-120.94C305.58,-95.59 285.91,-53.39 255.5,-29 251.2,-25.55 246.26,-22.72 241.11,-20.4"/>
<polygon fill="#63b8ff" stroke="#63b8ff" points="311.94,-121.96 318.65,-130.16 318.52,-119.56 311.94,-121.96"/>
</a>
</g>
</g>
<!-- Node4&#45;&gt;Node4 -->
<g id="edge4_Node000004_Node000004" class="edge">
<title>Node4&#45;&gt;Node4</title>
<g id="a_edge4_Node000004_Node000004"><a xlink:title=" ">
<path fill="none" stroke="#63b8ff" d="M218.95,-201.44C216.06,-205.3 208.57,-208 196.5,-208 174.42,-208 167.7,-198.98 176.32,-190.34"/>
<polygon fill="#63b8ff" stroke="#63b8ff" points="222.41,-200.92 216.98,-191.82 215.55,-202.32 222.41,-200.92"/>
</a>
</g>
</g>
<!-- Node6&#45;&gt;Node2 -->
<g id="edge7_Node000006_Node000002" class="edge">
<title>Node6&#45;&gt;Node2</title>
<g id="a_edge7_Node000006_Node000002"><a xlink:title=" ">
<path fill="none" stroke="#63b8ff" d="M167.74,-102.32C157.93,-108.45 146.98,-115.7 137.5,-123 108.31,-145.48 77.28,-175.92 61.79,-191.65"/>
<polygon fill="#63b8ff" stroke="#63b8ff" points="169.44,-105.38 176.15,-97.18 165.79,-99.41 169.44,-105.38"/>
</a>
</g>
</g>
<!-- Node6&#45;&gt;Node6 -->
<g id="edge8_Node000006_Node000006" class="edge">
<title>Node6&#45;&gt;Node6</title>
<g id="a_edge8_Node000006_Node000006"><a xlink:title=" ">
<path fill="none" stroke="#63b8ff" d="M218.95,-107.44C216.06,-111.3 208.57,-114 196.5,-114 174.42,-114 167.7,-104.98 176.32,-96.34"/>
<polygon fill="#63b8ff" stroke="#63b8ff" points="222.41,-106.92 216.98,-97.82 215.55,-108.32 222.41,-106.92"/>
</a>
</g>
</g>
<!-- Node7 -->
<g id="Node000007" class="node">
<title>Node7</title>
<g id="a_Node000007"><a xlink:href="namespacegenerate.html#a5c0026523dd30f942c55ad25f1b607b4" target="_top" xlink:title="Spawn an instance of the xdg&#45;dbus&#45;proxy for the application instance.">
<polygon fill="white" stroke="#666666" points="101.5,-102 0,-102 0,-70 101.5,-70 101.5,-102"/>
<text text-anchor="start" x="8" y="-88.5" font-family="Helvetica,sans-Serif" font-size="10.00">generate::xdg_dbus</text>
<text text-anchor="middle" x="50.75" y="-76.5" font-family="Helvetica,sans-Serif" font-size="10.00">_proxy</text>
</a>
</g>
</g>
<!-- Node6&#45;&gt;Node7 -->
<g id="edge9_Node000006_Node000007" class="edge">
<title>Node6&#45;&gt;Node7</title>
<g id="a_edge9_Node000006_Node000007"><a xlink:title=" ">
<path fill="none" stroke="#63b8ff" d="M144.82,-86C130.86,-86 115.73,-86 101.8,-86"/>
<polygon fill="#63b8ff" stroke="#63b8ff" points="144.71,-89.5 154.71,-86 144.71,-82.5 144.71,-89.5"/>
</a>
</g>
</g>
</g>
</svg>
