<?xml version="1.0" encoding="UTF-8" standalone="no"?>
<!DOCTYPE svg PUBLIC "-//W3C//DTD SVG 1.1//EN"
 "http://www.w3.org/Graphics/SVG/1.1/DTD/svg11.dtd">
<!-- Generated by graphviz version 12.2.1 (0)
 -->
<!-- Title: shared::read_file Pages: 1 -->
<svg width="641pt" height="352pt"
 viewBox="0.00 0.00 640.75 351.80" xmlns="http://www.w3.org/2000/svg" xmlns:xlink="http://www.w3.org/1999/xlink">
<g id="graph0" class="graph" transform="scale(1 1) rotate(0) translate(4 347.8)">
<title>shared::read_file</title>
<!-- Node1 -->
<g id="Node000001" class="node">
<title>Node1</title>
<g id="a_Node000001"><a xlink:title="Read a file.">
<polygon fill="#999999" stroke="#666666" points="632.75,-171 544.75,-171 544.75,-151 632.75,-151 632.75,-171"/>
<text text-anchor="middle" x="588.75" y="-157.5" font-family="Helvetica,sans-Serif" font-size="10.00">shared::read_file</text>
</a>
</g>
</g>
<!-- Node2 -->
<g id="Node000002" class="node">
<title>Node2</title>
<g id="a_Node000002"><a xlink:href="namespacegenerate.html#a38dcdfdf9293b8aafe77392021d65019" target="_top" xlink:title="Generate the bulk of the main program command.">
<polygon fill="white" stroke="#666666" points="225.88,-304 147.62,-304 147.62,-284 225.88,-284 225.88,-304"/>
<text text-anchor="middle" x="186.75" y="-290.5" font-family="Helvetica,sans-Serif" font-size="10.00">generate::cmd</text>
</a>
</g>
</g>
<!-- Node1&#45;&gt;Node2 -->
<g id="edge1_Node000001_Node000002" class="edge">
<title>Node1&#45;&gt;Node2</title>
<g id="a_edge1_Node000001_Node000002"><a xlink:title=" ">
<path fill="none" stroke="#63b8ff" d="M580.23,-181.89C569.04,-210.02 545.3,-259.67 508.75,-287 423.04,-351.09 376.74,-352.99 272,-331 247.77,-325.91 221.99,-313.42 205.43,-304.36"/>
<polygon fill="#63b8ff" stroke="#63b8ff" points="583.45,-183.29 583.73,-172.7 576.9,-180.8 583.45,-183.29"/>
</a>
</g>
</g>
<!-- Node3 -->
<g id="Node000003" class="node">
<title>Node3</title>
<g id="a_Node000003"><a xlink:href="namespacegenerate.html#aca905bc877bc18f8cb6a2cb1eaec6988" target="_top" xlink:title="Generate a desktop file for the sandbox.">
<polygon fill="white" stroke="#666666" points="508.75,-152 387.75,-152 387.75,-132 508.75,-132 508.75,-152"/>
<text text-anchor="middle" x="448.25" y="-138.5" font-family="Helvetica,sans-Serif" font-size="10.00">generate::desktop_entry</text>
</a>
</g>
</g>
<!-- Node1&#45;&gt;Node3 -->
<g id="edge2_Node000001_Node000003" class="edge">
<title>Node1&#45;&gt;Node3</title>
<g id="a_edge2_Node000001_Node000003"><a xlink:title=" ">
<path fill="none" stroke="#63b8ff" d="M533.01,-153.49C525.13,-152.41 517,-151.29 509.03,-150.2"/>
<polygon fill="#63b8ff" stroke="#63b8ff" points="532.43,-156.94 542.81,-154.83 533.38,-150.01 532.43,-156.94"/>
</a>
</g>
</g>
<!-- Node4 -->
<g id="Node000004" class="node">
<title>Node4</title>
<g id="a_Node000004"><a xlink:href="namespacesyscalls.html#aabdab752b02a21ab92e3af4fabba493b" target="_top" xlink:title="Generate a syscall filter.">
<polygon fill="white" stroke="#666666" points="486.62,-96 409.88,-96 409.88,-76 486.62,-76 486.62,-96"/>
<text text-anchor="middle" x="448.25" y="-82.5" font-family="Helvetica,sans-Serif" font-size="10.00">syscalls::filter</text>
</a>
</g>
</g>
<!-- Node1&#45;&gt;Node4 -->
<g id="edge3_Node000001_Node000004" class="edge">
<title>Node1&#45;&gt;Node4</title>
<g id="a_edge3_Node000001_Node000004"><a xlink:title=" ">
<path fill="none" stroke="#63b8ff" d="M558.4,-145.11C531.23,-130.39 491.63,-108.95 468.34,-96.34"/>
<polygon fill="#63b8ff" stroke="#63b8ff" points="556.7,-148.17 567.16,-149.85 560.03,-142.01 556.7,-148.17"/>
</a>
</g>
</g>
<!-- Node5 -->
<g id="Node000005" class="node">
<title>Node5</title>
<g id="a_Node000005"><a xlink:href="namespacelibraries.html#a4dfd6ab45adf8dc18ea57bc1f88eaedf" target="_top" xlink:title="Recursively resolve all shared&#45;libraries needed by a library.">
<polygon fill="white" stroke="#666666" points="482.88,-247 413.62,-247 413.62,-227 482.88,-227 482.88,-247"/>
<text text-anchor="middle" x="448.25" y="-233.5" font-family="Helvetica,sans-Serif" font-size="10.00">libraries::get</text>
</a>
</g>
</g>
<!-- Node1&#45;&gt;Node5 -->
<g id="edge5_Node000001_Node000005" class="edge">
<title>Node1&#45;&gt;Node5</title>
<g id="a_edge5_Node000001_Node000005"><a xlink:title=" ">
<path fill="none" stroke="#63b8ff" d="M559.01,-176.77C531.69,-191.76 491.4,-213.87 467.99,-226.72"/>
<polygon fill="#63b8ff" stroke="#63b8ff" points="560.37,-180.02 567.46,-172.14 557.01,-173.88 560.37,-180.02"/>
</a>
</g>
</g>
<!-- Node6 -->
<g id="Node000006" class="node">
<title>Node6</title>
<g id="a_Node000006"><a xlink:href="namespacebinaries.html#ac1478c81b2eb2c4ecdba98e92c4e7651" target="_top" xlink:title="Parse a binary to determine dependencies.">
<polygon fill="white" stroke="#666666" points="351.75,-304 272,-304 272,-284 351.75,-284 351.75,-304"/>
<text text-anchor="middle" x="311.88" y="-290.5" font-family="Helvetica,sans-Serif" font-size="10.00">binaries::parse</text>
</a>
</g>
</g>
<!-- Node1&#45;&gt;Node6 -->
<g id="edge13_Node000001_Node000006" class="edge">
<title>Node1&#45;&gt;Node6</title>
<g id="a_edge13_Node000001_Node000006"><a xlink:title=" ">
<path fill="none" stroke="#63b8ff" d="M576.68,-181.26C563.5,-203.32 539.39,-237.87 508.75,-256 460.01,-284.84 393.63,-292.34 352.02,-294"/>
<polygon fill="#63b8ff" stroke="#63b8ff" points="579.7,-183.02 581.64,-172.6 573.63,-179.53 579.7,-183.02"/>
</a>
</g>
</g>
<!-- Node7 -->
<g id="Node000007" class="node">
<title>Node7</title>
<g id="a_Node000007"><a xlink:href="namespacegenerate.html#a17cf0da8addab269d21c2c8074d85c4e" target="_top" xlink:title="Setup the Proxy&#39;s SOF.">
<polygon fill="white" stroke="#666666" points="236,-228 137.5,-228 137.5,-208 236,-208 236,-228"/>
<text text-anchor="middle" x="186.75" y="-214.5" font-family="Helvetica,sans-Serif" font-size="10.00">generate::proxy_lib</text>
</a>
</g>
</g>
<!-- Node1&#45;&gt;Node7 -->
<g id="edge15_Node000001_Node000007" class="edge">
<title>Node1&#45;&gt;Node7</title>
<g id="a_edge15_Node000001_Node000007"><a xlink:title=" ">
<path fill="none" stroke="#63b8ff" d="M533.49,-168.73C455.11,-179.9 311.41,-200.38 236.34,-211.08"/>
<polygon fill="#63b8ff" stroke="#63b8ff" points="533.66,-172.24 543.06,-167.37 532.67,-165.31 533.66,-172.24"/>
</a>
</g>
</g>
<!-- Node9 -->
<g id="Node000009" class="node">
<title>Node9</title>
<g id="a_Node000009"><a xlink:href="namespacearg.html#a9da86862acc776f92533ebac921afc40" target="_top" xlink:title="Parse command line arguments.">
<polygon fill="white" stroke="#666666" points="490,-58 406.5,-58 406.5,-38 490,-38 490,-58"/>
<text text-anchor="middle" x="448.25" y="-44.5" font-family="Helvetica,sans-Serif" font-size="10.00">arg::parse_args</text>
</a>
</g>
</g>
<!-- Node1&#45;&gt;Node9 -->
<g id="edge14_Node000001_Node000009" class="edge">
<title>Node1&#45;&gt;Node9</title>
<g id="a_edge14_Node000001_Node000009"><a xlink:title=" ">
<path fill="none" stroke="#63b8ff" d="M575.79,-140.94C562.12,-119.67 537.83,-86.49 508.75,-67 503.17,-63.26 496.8,-60.21 490.35,-57.75"/>
<polygon fill="#63b8ff" stroke="#63b8ff" points="572.73,-142.65 580.98,-149.3 578.68,-138.96 572.73,-142.65"/>
</a>
</g>
</g>
<!-- Node10 -->
<g id="Node000010" class="node">
<title>Node10</title>
<g id="a_Node000010"><a xlink:href="namespacesyscalls.html#a501461c3842033cfab85ba4b8f328ed8" target="_top" xlink:title="Append an existing policy with newly discovered syscalls.">
<polygon fill="white" stroke="#666666" points="507.25,-20 389.25,-20 389.25,0 507.25,0 507.25,-20"/>
<text text-anchor="middle" x="448.25" y="-6.5" font-family="Helvetica,sans-Serif" font-size="10.00">syscalls::update_policy</text>
</a>
</g>
</g>
<!-- Node1&#45;&gt;Node10 -->
<g id="edge16_Node000001_Node000010" class="edge">
<title>Node1&#45;&gt;Node10</title>
<g id="a_edge16_Node000001_Node000010"><a xlink:title=" ">
<path fill="none" stroke="#63b8ff" d="M580.67,-140.13C569.76,-111.06 546.09,-58.6 508.75,-29 504.42,-25.56 499.45,-22.74 494.27,-20.43"/>
<polygon fill="#63b8ff" stroke="#63b8ff" points="577.28,-141.04 583.95,-149.28 583.87,-138.68 577.28,-141.04"/>
</a>
</g>
</g>
<!-- Node4&#45;&gt;Node4 -->
<g id="edge4_Node000004_Node000004" class="edge">
<title>Node4&#45;&gt;Node4</title>
<g id="a_edge4_Node000004_Node000004"><a xlink:title=" ">
<path fill="none" stroke="#63b8ff" d="M472.35,-107.44C469.25,-111.3 461.21,-114 448.25,-114 424.54,-114 417.32,-104.98 426.58,-96.34"/>
<polygon fill="#63b8ff" stroke="#63b8ff" points="475.8,-106.84 470.24,-97.82 468.97,-108.33 475.8,-106.84"/>
</a>
</g>
</g>
<!-- Node5&#45;&gt;Node2 -->
<g id="edge6_Node000005_Node000002" class="edge">
<title>Node5&#45;&gt;Node2</title>
<g id="a_edge6_Node000005_Node000002"><a xlink:title=" ">
<path fill="none" stroke="#63b8ff" d="M402.37,-246.62C366.95,-254.25 316.3,-265.2 272,-275 257.07,-278.3 240.66,-281.99 226.32,-285.23"/>
<polygon fill="#63b8ff" stroke="#63b8ff" points="402.79,-250.11 411.83,-244.59 401.32,-243.27 402.79,-250.11"/>
</a>
</g>
</g>
<!-- Node5&#45;&gt;Node6 -->
<g id="edge7_Node000005_Node000006" class="edge">
<title>Node5&#45;&gt;Node6</title>
<g id="a_edge7_Node000005_Node000006"><a xlink:title=" ">
<path fill="none" stroke="#63b8ff" d="M412.02,-251.94C388.53,-261.91 358.25,-274.75 337.37,-283.61"/>
<polygon fill="#63b8ff" stroke="#63b8ff" points="413.37,-255.17 421.21,-248.05 410.64,-248.73 413.37,-255.17"/>
</a>
</g>
</g>
<!-- Node5&#45;&gt;Node7 -->
<g id="edge12_Node000005_Node000007" class="edge">
<title>Node5&#45;&gt;Node7</title>
<g id="a_edge12_Node000005_Node000007"><a xlink:title=" ">
<path fill="none" stroke="#63b8ff" d="M402.12,-233.7C355.76,-230.3 283.84,-225.04 236.28,-221.55"/>
<polygon fill="#63b8ff" stroke="#63b8ff" points="401.59,-237.17 411.82,-234.41 402.1,-230.18 401.59,-237.17"/>
</a>
</g>
</g>
<!-- Node6&#45;&gt;Node2 -->
<g id="edge8_Node000006_Node000002" class="edge">
<title>Node6&#45;&gt;Node2</title>
<g id="a_edge8_Node000006_Node000002"><a xlink:title=" ">
<path fill="none" stroke="#63b8ff" d="M260.41,-294C249,-294 237.07,-294 226.25,-294"/>
<polygon fill="#63b8ff" stroke="#63b8ff" points="260.07,-297.5 270.07,-294 260.07,-290.5 260.07,-297.5"/>
</a>
</g>
</g>
<!-- Node6&#45;&gt;Node6 -->
<g id="edge9_Node000006_Node000006" class="edge">
<title>Node6&#45;&gt;Node6</title>
<g id="a_edge9_Node000006_Node000006"><a xlink:title=" ">
<path fill="none" stroke="#63b8ff" d="M333.99,-315.44C331.14,-319.3 323.77,-322 311.88,-322 290.12,-322 283.5,-312.98 291.99,-304.34"/>
<polygon fill="#63b8ff" stroke="#63b8ff" points="337.46,-314.94 332.05,-305.82 330.6,-316.32 337.46,-314.94"/>
</a>
</g>
</g>
<!-- Node6&#45;&gt;Node7 -->
<g id="edge10_Node000006_Node000007" class="edge">
<title>Node6&#45;&gt;Node7</title>
<g id="a_edge10_Node000006_Node000007"><a xlink:title=" ">
<path fill="none" stroke="#63b8ff" d="M284.36,-277.63C260.09,-262.65 224.94,-240.96 204.41,-228.28"/>
<polygon fill="#63b8ff" stroke="#63b8ff" points="282.38,-280.52 292.73,-282.8 286.05,-274.57 282.38,-280.52"/>
</a>
</g>
</g>
<!-- Node8 -->
<g id="Node000008" class="node">
<title>Node8</title>
<g id="a_Node000008"><a xlink:href="namespacegenerate.html#a5c0026523dd30f942c55ad25f1b607b4" target="_top" xlink:title="Spawn an instance of the xdg&#45;dbus&#45;proxy for the application instance.">
<polygon fill="white" stroke="#666666" points="101.5,-234 0,-234 0,-202 101.5,-202 101.5,-234"/>
<text text-anchor="start" x="8" y="-220.5" font-family="Helvetica,sans-Serif" font-size="10.00">generate::xdg_dbus</text>
<text text-anchor="middle" x="50.75" y="-208.5" font-family="Helvetica,sans-Serif" font-size="10.00">_proxy</text>
</a>
</g>
</g>
<!-- Node7&#45;&gt;Node8 -->
<g id="edge11_Node000007_Node000008" class="edge">
<title>Node7&#45;&gt;Node8</title>
<g id="a_edge11_Node000007_Node000008"><a xlink:title=" ">
<path fill="none" stroke="#63b8ff" d="M126.08,-218C117.99,-218 109.76,-218 101.86,-218"/>
<polygon fill="#63b8ff" stroke="#63b8ff" points="125.86,-221.5 135.86,-218 125.86,-214.5 125.86,-221.5"/>
</a>
</g>
</g>
</g>
</svg>
