<?xml version="1.0" encoding="UTF-8" standalone="no"?>
<!DOCTYPE svg PUBLIC "-//W3C//DTD SVG 1.1//EN"
 "http://www.w3.org/Graphics/SVG/1.1/DTD/svg11.dtd">
<!-- Generated by graphviz version 12.2.1 (0)
 -->
<!-- Title: shared::batch Pages: 1 -->
<svg width="442pt" height="109pt"
 viewBox="0.00 0.00 441.75 109.00" xmlns="http://www.w3.org/2000/svg" xmlns:xlink="http://www.w3.org/1999/xlink">

<svg id="main" version="1.1" xmlns="http://www.w3.org/2000/svg" xmlns:xlink="http://www.w3.org/1999/xlink" xml:space="preserve">

<style type="text/css"><![CDATA[
.node, .edge {opacity: 0.7;}
.node.selected, .edge.selected {opacity: 1;}
.edge:hover path { stroke: red; }
.edge:hover polygon { stroke: red; fill: red; }
]]></style>
<script type="application/ecmascript" xlink:href="svg.min.js"/>
<svg id="graph" class="graph">
<g id="graph0" class="graph" transform="scale(1 1) rotate(0) translate(4 105)">
<title>shared::batch</title>
<!-- Node1 -->
<g id="Node000001" class="node">
<title>Node1</title>
<g id="a_Node000001"><a xlink:title="Batch multiple iterations of an accumulator function together, threaded.">
<polygon fill="#999999" stroke="#666666" points="433.75,-92 358.5,-92 358.5,-72 433.75,-72 433.75,-92"/>
<text text-anchor="middle" x="396.12" y="-78.5" font-family="Helvetica,sans-Serif" font-size="10.00">shared::batch</text>
</a>
</g>
</g>
<!-- Node2 -->
<g id="Node000002" class="node">
<title>Node2</title>
<g id="a_Node000002"><a xlink:href="namespacegenerate.html#a38dcdfdf9293b8aafe77392021d65019" target="_top" xlink:title="Generate the bulk of the main program command.">
<polygon fill="white" stroke="#666666" points="89.88,-101 11.62,-101 11.62,-81 89.88,-81 89.88,-101"/>
<text text-anchor="middle" x="50.75" y="-87.5" font-family="Helvetica,sans-Serif" font-size="10.00">generate::cmd</text>
</a>
</g>
</g>
<!-- Node1&#45;&gt;Node2 -->
<g id="edge1_Node000001_Node000002" class="edge">
<title>Node1&#45;&gt;Node2</title>
<g id="a_edge1_Node000001_Node000002"><a xlink:title=" ">
<path fill="none" stroke="#63b8ff" d="M346.92,-85.1C311.15,-87.24 261.18,-89.89 217.25,-91 173.73,-92.1 123.76,-91.9 90.21,-91.55"/>
<polygon fill="#63b8ff" stroke="#63b8ff" points="346.73,-88.62 356.5,-84.52 346.31,-81.63 346.73,-88.62"/>
</a>
</g>
</g>
<!-- Node3 -->
<g id="Node000003" class="node">
<title>Node3</title>
<g id="a_Node000003"><a xlink:href="namespacelibraries.html#a4dfd6ab45adf8dc18ea57bc1f88eaedf" target="_top" xlink:title="Recursively resolve all shared&#45;libraries needed by a library.">
<polygon fill="white" stroke="#666666" points="322.5,-73 253.25,-73 253.25,-53 322.5,-53 322.5,-73"/>
<text text-anchor="middle" x="287.88" y="-59.5" font-family="Helvetica,sans-Serif" font-size="10.00">libraries::get</text>
</a>
</g>
</g>
<!-- Node1&#45;&gt;Node3 -->
<g id="edge2_Node000001_Node000003" class="edge">
<title>Node1&#45;&gt;Node3</title>
<g id="a_edge2_Node000001_Node000003"><a xlink:title=" ">
<path fill="none" stroke="#63b8ff" d="M346.94,-73.38C338.8,-71.93 330.5,-70.44 322.82,-69.07"/>
<polygon fill="#63b8ff" stroke="#63b8ff" points="346.31,-76.83 356.77,-75.14 347.54,-69.94 346.31,-76.83"/>
</a>
</g>
</g>
<!-- Node3&#45;&gt;Node2 -->
<g id="edge3_Node000003_Node000002" class="edge">
<title>Node3&#45;&gt;Node2</title>
<g id="a_edge3_Node000003_Node000002"><a xlink:title=" ">
<path fill="none" stroke="#63b8ff" d="M241.66,-68.94C233.54,-69.98 225.14,-71.04 217.25,-72 173.76,-77.31 123.78,-82.99 90.23,-86.74"/>
<polygon fill="#63b8ff" stroke="#63b8ff" points="241.92,-72.44 251.39,-67.69 241.02,-65.49 241.92,-72.44"/>
</a>
</g>
</g>
<!-- Node4 -->
<g id="Node000004" class="node">
<title>Node4</title>
<g id="a_Node000004"><a xlink:href="namespacebinaries.html#ac1478c81b2eb2c4ecdba98e92c4e7651" target="_top" xlink:title="Parse a binary to determine dependencies.">
<polygon fill="white" stroke="#666666" points="217.25,-45 137.5,-45 137.5,-25 217.25,-25 217.25,-45"/>
<text text-anchor="middle" x="177.38" y="-31.5" font-family="Helvetica,sans-Serif" font-size="10.00">binaries::parse</text>
</a>
</g>
</g>
<!-- Node3&#45;&gt;Node4 -->
<g id="edge4_Node000003_Node000004" class="edge">
<title>Node3&#45;&gt;Node4</title>
<g id="a_edge4_Node000003_Node000004"><a xlink:title=" ">
<path fill="none" stroke="#63b8ff" d="M241.76,-51.36C233.73,-49.29 225.43,-47.14 217.59,-45.12"/>
<polygon fill="#63b8ff" stroke="#63b8ff" points="240.82,-54.73 251.38,-53.84 242.57,-47.95 240.82,-54.73"/>
</a>
</g>
</g>
<!-- Node5 -->
<g id="Node000005" class="node">
<title>Node5</title>
<g id="a_Node000005"><a xlink:href="namespacegenerate.html#a5c0026523dd30f942c55ad25f1b607b4" target="_top" xlink:title="Spawn an instance of the xdg&#45;dbus&#45;proxy for the application instance.">
<polygon fill="white" stroke="#666666" points="101.5,-32 0,-32 0,0 101.5,0 101.5,-32"/>
<text text-anchor="start" x="8" y="-18.5" font-family="Helvetica,sans-Serif" font-size="10.00">generate::xdg_dbus</text>
<text text-anchor="middle" x="50.75" y="-6.5" font-family="Helvetica,sans-Serif" font-size="10.00">_proxy</text>
</a>
</g>
</g>
<!-- Node3&#45;&gt;Node5 -->
<g id="edge8_Node000003_Node000005" class="edge">
<title>Node3&#45;&gt;Node5</title>
<g id="a_edge8_Node000003_Node000005"><a xlink:title=" ">
<path fill="none" stroke="#63b8ff" d="M267.59,-45.33C254.46,-34.55 236.1,-21.77 217.25,-16 179.75,-4.53 135.18,-5.29 101.75,-8.5"/>
<polygon fill="#63b8ff" stroke="#63b8ff" points="265.14,-47.84 275.01,-51.71 269.71,-42.54 265.14,-47.84"/>
</a>
</g>
</g>
<!-- Node4&#45;&gt;Node2 -->
<g id="edge5_Node000004_Node000002" class="edge">
<title>Node4&#45;&gt;Node2</title>
<g id="a_edge5_Node000004_Node000002"><a xlink:title=" ">
<path fill="none" stroke="#63b8ff" d="M142.88,-50.05C121.33,-59.73 93.89,-72.07 74.77,-80.65"/>
<polygon fill="#63b8ff" stroke="#63b8ff" points="144.16,-53.31 151.85,-46.02 141.29,-46.93 144.16,-53.31"/>
</a>
</g>
</g>
<!-- Node4&#45;&gt;Node4 -->
<g id="edge6_Node000004_Node000004" class="edge">
<title>Node4&#45;&gt;Node4</title>
<g id="a_edge6_Node000004_Node000004"><a xlink:title=" ">
<path fill="none" stroke="#63b8ff" d="M196.91,-56.44C194.39,-60.3 187.88,-63 177.38,-63 158.17,-63 152.31,-53.98 159.82,-45.34"/>
<polygon fill="#63b8ff" stroke="#63b8ff" points="200.39,-56.06 195.2,-46.83 193.5,-57.29 200.39,-56.06"/>
</a>
</g>
</g>
<!-- Node4&#45;&gt;Node5 -->
<g id="edge7_Node000004_Node000005" class="edge">
<title>Node4&#45;&gt;Node5</title>
<g id="a_edge7_Node000004_Node000005"><a xlink:title=" ">
<path fill="none" stroke="#63b8ff" d="M126.14,-27.34C118.09,-26.11 109.75,-24.84 101.7,-23.62"/>
<polygon fill="#63b8ff" stroke="#63b8ff" points="125.38,-30.77 135.79,-28.81 126.43,-23.85 125.38,-30.77"/>
</a>
</g>
</g>
</g>
</svg>
</svg>

<style type='text/css'>
<![CDATA[
[data-mouse-over-selected='false'] { opacity: 0.7; }
[data-mouse-over-selected='true']  { opacity: 1.0; }
]]>
</style>
<script type="application/ecmascript"><![CDATA[
document.addEventListener('DOMContentLoaded', (event) => {
  highlightEdges();
  highlightAdjacentNodes();
});
]]></script>
</svg>
