<?xml version="1.0" encoding="UTF-8" standalone="no"?>
<!DOCTYPE svg PUBLIC "-//W3C//DTD SVG 1.1//EN"
 "http://www.w3.org/Graphics/SVG/1.1/DTD/svg11.dtd">
<!-- Generated by graphviz version 12.2.1 (0)
 -->
<!-- Title: generate::cmd Pages: 1 -->
<!--zoomable 468 -->

<svg id="main" version="1.1" xmlns="http://www.w3.org/2000/svg" xmlns:xlink="http://www.w3.org/1999/xlink" xml:space="preserve" onload="init(evt)">

<style type="text/css"><![CDATA[
.node, .edge {opacity: 0.7;}
.node.selected, .edge.selected {opacity: 1;}
.edge:hover path { stroke: red; }
.edge:hover polygon { stroke: red; fill: red; }
]]></style>

<defs>
  <circle id="rim" cx="0" cy="0" r="7"/>
  <circle id="rim2" cx="0" cy="0" r="3.5"/>
  <g id="zoomPlus">
    <use xlink:href="#rim" fill="#404040"><set attributeName="fill" to="#808080" begin="zoomplus.mouseover" end="zoomplus.mouseout"/></use>
    <path d="M-4,0h8M0,-4v8" fill="none" stroke="white" stroke-width="1.5" pointer-events="none"/>
  </g>
  <g id="zoomMin">
    <use xlink:href="#rim" fill="#404040"><set attributeName="fill" to="#808080" begin="zoomminus.mouseover" end="zoomminus.mouseout"/></use>
    <path d="M-4,0h8" fill="none" stroke="white" stroke-width="1.5" pointer-events="none"/>
  </g>
  <g id="arrowUp" transform="translate(30 24)">
    <use xlink:href="#rim"/>
    <path pointer-events="none" fill="none" stroke="white" stroke-width="1.5" d="M0,-3.0v7 M-2.5,-0.5L0,-3.0L2.5,-0.5"/>
  </g>
  <g id="arrowRight" transform="rotate(90) translate(36 -43)">
    <use xlink:href="#rim"/>
    <path pointer-events="none" fill="none" stroke="white" stroke-width="1.5" d="M0,-3.0v7 M-2.5,-0.5L0,-3.0L2.5,-0.5"/>
  </g>
  <g id="arrowDown" transform="rotate(180) translate(-30 -48)">
    <use xlink:href="#rim"/>
    <path pointer-events="none" fill="none" stroke="white" stroke-width="1.5" d="M0,-3.0v7 M-2.5,-0.5L0,-3.0L2.5,-0.5"/>
  </g>
  <g id="arrowLeft" transform="rotate(270) translate(-36 17)">
    <use xlink:href="#rim"/>
    <path pointer-events="none" fill="none" stroke="white" stroke-width="1.5" d="M0,-3.0v7 M-2.5,-0.5L0,-3.0L2.5,-0.5"/>
  </g>
  <g id="resetDef">
    <use xlink:href="#rim2" fill="#404040"><set attributeName="fill" to="#808080" begin="reset.mouseover" end="reset.mouseout"/></use>
  </g>
</defs>
<script type="application/ecmascript">
var viewWidth = 594;
var viewHeight = 468;
var sectionId = 'dynsection-0';
</script>
<script type="application/ecmascript" xlink:href="svg.min.js"/>
<svg id="graph" class="graph">
<g id="viewport">
<title>generate::cmd</title>
<!-- Node1 -->
<g id="Node000001" class="node">
<title>Node1</title>
<g id="a_Node000001"><a xlink:title="Generate the bulk of the main program command.">
<polygon fill="#999999" stroke="#666666" points="78.25,-288.89 0,-288.89 0,-268.89 78.25,-268.89 78.25,-288.89"/>
<text text-anchor="middle" x="39.12" y="-275.39" font-family="Helvetica,sans-Serif" font-size="10.00">generate::cmd</text>
</a>
</g>
</g>
<!-- Node2 -->
<g id="Node000002" class="node">
<title>Node2</title>
<g id="a_Node000002"><a xlink:href="namespaceshared.html#a993cd576fb1a43b497dc350728bd8c80" target="_top" xlink:title="Batch multiple iterations of an accumulator function together, threaded.">
<polygon fill="white" stroke="#666666" points="463,-269.89 387.75,-269.89 387.75,-249.89 463,-249.89 463,-269.89"/>
<text text-anchor="middle" x="425.38" y="-256.39" font-family="Helvetica,sans-Serif" font-size="10.00">shared::batch</text>
</a>
</g>
</g>
<!-- Node1&#45;&gt;Node2 -->
<g id="edge1_Node000001_Node000002" class="edge">
<title>Node1&#45;&gt;Node2</title>
<g id="a_edge1_Node000001_Node000002"><a xlink:title=" ">
<path fill="none" stroke="#63b8ff" d="M78.73,-276.98C149.33,-273.49 299.07,-266.08 376.21,-262.27"/>
<polygon fill="#63b8ff" stroke="#63b8ff" points="376.17,-265.78 385.98,-261.79 375.82,-258.78 376.17,-265.78"/>
</a>
</g>
</g>
<!-- Node3 -->
<g id="Node000003" class="node">
<title>Node3</title>
<g id="a_Node000003"><a xlink:href="namespaceshared.html#a1636cc0cb46e6be8f452dbc1e92a1e28" target="_top" xlink:title="Extend a container in place.">
<polygon fill="white" stroke="#666666" points="585.5,-364.89 505,-364.89 505,-344.89 585.5,-344.89 585.5,-364.89"/>
<text text-anchor="middle" x="545.25" y="-351.39" font-family="Helvetica,sans-Serif" font-size="10.00">shared::extend</text>
</a>
</g>
</g>
<!-- Node1&#45;&gt;Node3 -->
<g id="edge3_Node000001_Node000003" class="edge">
<title>Node1&#45;&gt;Node3</title>
<g id="a_edge3_Node000001_Node000003"><a xlink:title=" ">
<path fill="none" stroke="#63b8ff" d="M69.38,-289.29C82.89,-293.75 99.23,-298.66 114.25,-301.89 249.52,-330.97 412.42,-345.62 493.39,-351.57"/>
<polygon fill="#63b8ff" stroke="#63b8ff" points="492.99,-355.05 503.22,-352.27 493.5,-348.07 492.99,-355.05"/>
</a>
</g>
</g>
<!-- Node4 -->
<g id="Node000004" class="node">
<title>Node4</title>
<g id="a_Node000004"><a xlink:href="namespacelibraries.html#a4dfd6ab45adf8dc18ea57bc1f88eaedf" target="_top" xlink:title="Recursively resolve all shared&#45;libraries needed by a library.">
<polygon fill="white" stroke="#666666" points="327.38,-231.89 258.12,-231.89 258.12,-211.89 327.38,-211.89 327.38,-231.89"/>
<text text-anchor="middle" x="292.75" y="-218.39" font-family="Helvetica,sans-Serif" font-size="10.00">libraries::get</text>
</a>
</g>
</g>
<!-- Node1&#45;&gt;Node4 -->
<g id="edge4_Node000001_Node000004" class="edge">
<title>Node1&#45;&gt;Node4</title>
<g id="a_edge4_Node000001_Node000004"><a xlink:title=" ">
<path fill="none" stroke="#63b8ff" d="M59.38,-268.49C74.01,-261.04 94.87,-251.39 114.25,-245.89 158.25,-233.4 210.28,-227.34 246.59,-224.44"/>
<polygon fill="#63b8ff" stroke="#63b8ff" points="246.58,-227.95 256.29,-223.72 246.06,-220.97 246.58,-227.95"/>
</a>
</g>
</g>
<!-- Node6 -->
<g id="Node000006" class="node">
<title>Node6</title>
<g id="a_Node000006"><a xlink:href="namespaceshared.html#a99724c73af55fa92ae29fee700152917" target="_top" xlink:title="Log output to console, if verbose.">
<polygon fill="white" stroke="#666666" points="457.38,-155.89 393.38,-155.89 393.38,-135.89 457.38,-135.89 457.38,-155.89"/>
<text text-anchor="middle" x="425.38" y="-142.39" font-family="Helvetica,sans-Serif" font-size="10.00">shared::log</text>
</a>
</g>
</g>
<!-- Node1&#45;&gt;Node6 -->
<g id="edge9_Node000001_Node000006" class="edge">
<title>Node1&#45;&gt;Node6</title>
<g id="a_edge9_Node000001_Node000006"><a xlink:title=" ">
<path fill="none" stroke="#63b8ff" d="M40.63,-268.67C42.87,-234.48 54.63,-122.79 114.25,-60.89 155.68,-17.88 181.03,-23.73 239.75,-12.89 286.08,-4.33 304.83,10.46 345.75,-12.89 387.91,-36.94 409.76,-93.46 418.94,-124.51"/>
<polygon fill="#63b8ff" stroke="#63b8ff" points="415.51,-125.23 421.54,-133.94 422.25,-123.37 415.51,-125.23"/>
</a>
</g>
</g>
<!-- Node8 -->
<g id="Node000008" class="node">
<title>Node8</title>
<g id="a_Node000008"><a xlink:href="namespacebinaries.html#ac1478c81b2eb2c4ecdba98e92c4e7651" target="_top" xlink:title="Parse a binary to determine dependencies.">
<polygon fill="white" stroke="#666666" points="198.88,-155.89 119.12,-155.89 119.12,-135.89 198.88,-135.89 198.88,-155.89"/>
<text text-anchor="middle" x="159" y="-142.39" font-family="Helvetica,sans-Serif" font-size="10.00">binaries::parse</text>
</a>
</g>
</g>
<!-- Node1&#45;&gt;Node8 -->
<g id="edge10_Node000001_Node000008" class="edge">
<title>Node1&#45;&gt;Node8</title>
<g id="a_edge10_Node000001_Node000008"><a xlink:title=" ">
<path fill="none" stroke="#63b8ff" d="M49.37,-268.45C69.26,-246.02 116.3,-192.94 141.46,-164.55"/>
<polygon fill="#63b8ff" stroke="#63b8ff" points="143.78,-167.21 147.79,-157.41 138.54,-162.57 143.78,-167.21"/>
</a>
</g>
</g>
<!-- Node9 -->
<g id="Node000009" class="node">
<title>Node9</title>
<g id="a_Node000009"><a xlink:href="namespaceshared.html#a8d237bf1ea1e2a6fb5c7d30bcb51f593" target="_top" xlink:title="Batch multiple iterations of an accumulator function together.">
<polygon fill="white" stroke="#666666" points="345.75,-41.89 239.75,-41.89 239.75,-21.89 345.75,-21.89 345.75,-41.89"/>
<text text-anchor="middle" x="292.75" y="-28.39" font-family="Helvetica,sans-Serif" font-size="10.00">shared::single_batch</text>
</a>
</g>
</g>
<!-- Node1&#45;&gt;Node9 -->
<g id="edge22_Node000001_Node000009" class="edge">
<title>Node1&#45;&gt;Node9</title>
<g id="a_edge22_Node000001_Node000009"><a xlink:title=" ">
<path fill="none" stroke="#63b8ff" d="M42.95,-268.49C50.55,-242.07 73.67,-171.33 114.25,-126.89 150.55,-87.13 207.42,-60.83 246.97,-46.18"/>
<polygon fill="#63b8ff" stroke="#63b8ff" points="247.98,-49.53 256.21,-42.86 245.61,-42.95 247.98,-49.53"/>
</a>
</g>
</g>
<!-- Node12 -->
<g id="Node000012" class="node">
<title>Node12</title>
<g id="a_Node000012"><a xlink:href="namespacebinaries.html#a8c5deb9459b44c3bdf9bb6d78ee53322" target="_top" xlink:title="Setup the sandbox for the used binaries.">
<polygon fill="white" stroke="#666666" points="332.62,-307.89 252.88,-307.89 252.88,-287.89 332.62,-287.89 332.62,-307.89"/>
<text text-anchor="middle" x="292.75" y="-294.39" font-family="Helvetica,sans-Serif" font-size="10.00">binaries::setup</text>
</a>
</g>
</g>
<!-- Node1&#45;&gt;Node12 -->
<g id="edge18_Node000001_Node000012" class="edge">
<title>Node1&#45;&gt;Node12</title>
<g id="a_edge18_Node000001_Node000012"><a xlink:title=" ">
<path fill="none" stroke="#63b8ff" d="M78.62,-281.79C122.11,-285.08 193.09,-290.44 241.06,-294.06"/>
<polygon fill="#63b8ff" stroke="#63b8ff" points="240.69,-297.54 250.93,-294.8 241.22,-290.56 240.69,-297.54"/>
</a>
</g>
</g>
<!-- Node13 -->
<g id="Node000013" class="node">
<title>Node13</title>
<g id="a_Node000013"><a xlink:href="namespaceshared.html#acf7d9b7a4de8ca12d42e2132f2f4b4e7" target="_top" xlink:title="Share a path with the sandbox using a mode.">
<polygon fill="white" stroke="#666666" points="196.62,-459.89 121.38,-459.89 121.38,-439.89 196.62,-439.89 196.62,-459.89"/>
<text text-anchor="middle" x="159" y="-446.39" font-family="Helvetica,sans-Serif" font-size="10.00">shared::share</text>
</a>
</g>
</g>
<!-- Node1&#45;&gt;Node13 -->
<g id="edge20_Node000001_Node000013" class="edge">
<title>Node1&#45;&gt;Node13</title>
<g id="a_edge20_Node000001_Node000013"><a xlink:title=" ">
<path fill="none" stroke="#63b8ff" d="M42.5,-289.23C49.18,-316.13 70.55,-389.07 114.25,-430.89 115.15,-431.75 116.09,-432.57 117.07,-433.36"/>
<polygon fill="#63b8ff" stroke="#63b8ff" points="115.08,-436.24 125.38,-438.75 118.89,-430.37 115.08,-436.24"/>
</a>
</g>
</g>
<!-- Node14 -->
<g id="Node000014" class="node">
<title>Node14</title>
<g id="a_Node000014"><a xlink:href="namespacebinaries.html#a3dceb9be58009eef337fd18d7ee738d4" target="_top" xlink:title="Symlink to /usr/bin.">
<polygon fill="white" stroke="#666666" points="203.75,-421.89 114.25,-421.89 114.25,-401.89 203.75,-401.89 203.75,-421.89"/>
<text text-anchor="middle" x="159" y="-408.39" font-family="Helvetica,sans-Serif" font-size="10.00">binaries::symlink</text>
</a>
</g>
</g>
<!-- Node1&#45;&gt;Node14 -->
<g id="edge23_Node000001_Node000014" class="edge">
<title>Node1&#45;&gt;Node14</title>
<g id="a_edge23_Node000001_Node000014"><a xlink:title=" ">
<path fill="none" stroke="#63b8ff" d="M44.32,-289.14C53.74,-311.02 78.56,-362.7 114.25,-392.89 115.35,-393.82 116.51,-394.71 117.7,-395.57"/>
<polygon fill="#63b8ff" stroke="#63b8ff" points="115.78,-398.5 126.16,-400.63 119.37,-392.49 115.78,-398.5"/>
</a>
</g>
</g>
<!-- Node15 -->
<g id="Node000015" class="node">
<title>Node15</title>
<g id="a_Node000015"><a xlink:href="namespacelibraries.html#aaf67d1825dab30fecb532ea92077ebe3" target="_top" xlink:title="Add symlink commands.">
<polygon fill="white" stroke="#666666" points="203.75,-383.89 114.25,-383.89 114.25,-363.89 203.75,-363.89 203.75,-383.89"/>
<text text-anchor="middle" x="159" y="-370.39" font-family="Helvetica,sans-Serif" font-size="10.00">libraries::symlink</text>
</a>
</g>
</g>
<!-- Node1&#45;&gt;Node15 -->
<g id="edge25_Node000001_Node000015" class="edge">
<title>Node1&#45;&gt;Node15</title>
<g id="a_edge25_Node000001_Node000015"><a xlink:title=" ">
<path fill="none" stroke="#63b8ff" d="M49.01,-288.93C62.25,-303.52 88.38,-330.92 114.25,-349.89 118.1,-352.71 122.32,-355.43 126.58,-357.96"/>
<polygon fill="#63b8ff" stroke="#63b8ff" points="124.65,-360.89 135.08,-362.74 128.08,-354.79 124.65,-360.89"/>
</a>
</g>
</g>
<!-- Node2&#45;&gt;Node3 -->
<g id="edge2_Node000002_Node000003" class="edge">
<title>Node2&#45;&gt;Node3</title>
<g id="a_edge2_Node000002_Node000003"><a xlink:title=" ">
<path fill="none" stroke="#63b8ff" d="M446.95,-270.15C454.16,-274.09 462.16,-278.85 469,-283.89 490.52,-299.73 512.45,-321.14 527.04,-336.3"/>
<polygon fill="#63b8ff" stroke="#63b8ff" points="524.26,-338.46 533.68,-343.31 529.34,-333.64 524.26,-338.46"/>
</a>
</g>
</g>
<!-- Node4&#45;&gt;Node2 -->
<g id="edge5_Node000004_Node000002" class="edge">
<title>Node4&#45;&gt;Node2</title>
<g id="a_edge5_Node000004_Node000002"><a xlink:title=" ">
<path fill="none" stroke="#63b8ff" d="M327.73,-231.77C343.11,-236.25 361.52,-241.6 378.13,-246.44"/>
<polygon fill="#63b8ff" stroke="#63b8ff" points="376.71,-249.67 387.29,-249.1 378.66,-242.94 376.71,-249.67"/>
</a>
</g>
</g>
<!-- Node5 -->
<g id="Node000005" class="node">
<title>Node5</title>
<g id="a_Node000005"><a xlink:href="namespaceshared.html#a2f7cb04abbe01ba7193f2d2a6d520355" target="_top" xlink:title="Join a vector into a string.">
<polygon fill="white" stroke="#666666" points="458.5,-193.89 392.25,-193.89 392.25,-173.89 458.5,-173.89 458.5,-193.89"/>
<text text-anchor="middle" x="425.38" y="-180.39" font-family="Helvetica,sans-Serif" font-size="10.00">shared::join</text>
</a>
</g>
</g>
<!-- Node4&#45;&gt;Node5 -->
<g id="edge6_Node000004_Node000005" class="edge">
<title>Node4&#45;&gt;Node5</title>
<g id="a_edge6_Node000004_Node000005"><a xlink:title=" ">
<path fill="none" stroke="#63b8ff" d="M327.73,-212C343.98,-207.28 363.61,-201.56 380.93,-196.53"/>
<polygon fill="#63b8ff" stroke="#63b8ff" points="381.84,-199.91 390.46,-193.75 379.88,-193.19 381.84,-199.91"/>
</a>
</g>
</g>
<!-- Node4&#45;&gt;Node6 -->
<g id="edge7_Node000004_Node000006" class="edge">
<title>Node4&#45;&gt;Node6</title>
<g id="a_edge7_Node000004_Node000006"><a xlink:title=" ">
<path fill="none" stroke="#63b8ff" d="M308.27,-211.48C325.37,-199.46 354.87,-179.47 381.75,-164.89 384.09,-163.62 386.54,-162.36 389.02,-161.13"/>
<polygon fill="#63b8ff" stroke="#63b8ff" points="390.34,-164.38 397.9,-156.95 387.36,-158.04 390.34,-164.38"/>
</a>
</g>
</g>
<!-- Node7 -->
<g id="Node000007" class="node">
<title>Node7</title>
<g id="a_Node000007"><a xlink:href="namespaceshared.html#a6955b6b671ef8b660a0d6ed018712923" target="_top" xlink:title="Resolve wildcard patterns.">
<polygon fill="white" stroke="#666666" points="469,-231.89 381.75,-231.89 381.75,-211.89 469,-211.89 469,-231.89"/>
<text text-anchor="middle" x="425.38" y="-218.39" font-family="Helvetica,sans-Serif" font-size="10.00">shared::wildcard</text>
</a>
</g>
</g>
<!-- Node4&#45;&gt;Node7 -->
<g id="edge8_Node000004_Node000007" class="edge">
<title>Node4&#45;&gt;Node7</title>
<g id="a_edge8_Node000004_Node000007"><a xlink:title=" ">
<path fill="none" stroke="#63b8ff" d="M327.73,-221.89C340.73,-221.89 355.91,-221.89 370.33,-221.89"/>
<polygon fill="#63b8ff" stroke="#63b8ff" points="370.16,-225.39 380.16,-221.89 370.16,-218.39 370.16,-225.39"/>
</a>
</g>
</g>
<!-- Node8&#45;&gt;Node4 -->
<g id="edge11_Node000008_Node000004" class="edge">
<title>Node8&#45;&gt;Node4</title>
<g id="a_edge11_Node000008_Node000004"><a xlink:title=" ">
<path fill="none" stroke="#63b8ff" d="M174.59,-156.33C190.29,-167.33 216.17,-184.85 239.75,-197.89 245.24,-200.92 251.19,-203.92 257.03,-206.72"/>
<polygon fill="#63b8ff" stroke="#63b8ff" points="255.39,-209.82 265.94,-210.85 258.34,-203.47 255.39,-209.82"/>
</a>
</g>
</g>
<!-- Node8&#45;&gt;Node5 -->
<g id="edge12_Node000008_Node000005" class="edge">
<title>Node8&#45;&gt;Node5</title>
<g id="a_edge12_Node000008_Node000005"><a xlink:title=" ">
<path fill="none" stroke="#63b8ff" d="M199.29,-153.14C212.16,-155.42 226.55,-157.87 239.75,-159.89 287.96,-167.25 343.48,-174.27 380.94,-178.8"/>
<polygon fill="#63b8ff" stroke="#63b8ff" points="380.11,-182.22 390.46,-179.94 380.95,-175.27 380.11,-182.22"/>
</a>
</g>
</g>
<!-- Node8&#45;&gt;Node6 -->
<g id="edge13_Node000008_Node000006" class="edge">
<title>Node8&#45;&gt;Node6</title>
<g id="a_edge13_Node000008_Node000006"><a xlink:title=" ">
<path fill="none" stroke="#63b8ff" d="M199.29,-145.89C248.17,-145.89 331.29,-145.89 381.69,-145.89"/>
<polygon fill="#63b8ff" stroke="#63b8ff" points="381.63,-149.39 391.63,-145.89 381.63,-142.39 381.63,-149.39"/>
</a>
</g>
</g>
<!-- Node8&#45;&gt;Node8 -->
<g id="edge14_Node000008_Node000008" class="edge">
<title>Node8&#45;&gt;Node8</title>
<g id="a_edge14_Node000008_Node000008"><a xlink:title=" ">
<path fill="none" stroke="#63b8ff" d="M139.95,-156.23C131.81,-164.86 138.16,-173.89 159,-173.89 170.4,-173.89 177.46,-171.19 180.19,-167.33"/>
<polygon fill="#63b8ff" stroke="#63b8ff" points="183.66,-166.87 178.33,-157.71 176.79,-168.19 183.66,-166.87"/>
</a>
</g>
</g>
<!-- Node8&#45;&gt;Node9 -->
<g id="edge15_Node000008_Node000009" class="edge">
<title>Node8&#45;&gt;Node9</title>
<g id="a_edge15_Node000008_Node000009"><a xlink:title=" ">
<path fill="none" stroke="#63b8ff" d="M166.11,-135.49C177.96,-116.19 205.89,-74.62 239.75,-50.89 241.55,-49.63 243.44,-48.44 245.4,-47.32"/>
<polygon fill="#63b8ff" stroke="#63b8ff" points="246.78,-50.54 254.2,-42.98 243.68,-44.26 246.78,-50.54"/>
</a>
</g>
</g>
<!-- Node10 -->
<g id="Node000010" class="node">
<title>Node10</title>
<g id="a_Node000010"><a xlink:href="namespaceshared.html#ae0ec3e8d4de79340eda47eabfd075feb" target="_top" xlink:title="Strip all instance of character from a string.">
<polygon fill="white" stroke="#666666" points="327.75,-79.89 257.75,-79.89 257.75,-59.89 327.75,-59.89 327.75,-79.89"/>
<text text-anchor="middle" x="292.75" y="-66.39" font-family="Helvetica,sans-Serif" font-size="10.00">shared::strip</text>
</a>
</g>
</g>
<!-- Node8&#45;&gt;Node10 -->
<g id="edge16_Node000008_Node000010" class="edge">
<title>Node8&#45;&gt;Node10</title>
<g id="a_edge16_Node000008_Node000010"><a xlink:title=" ">
<path fill="none" stroke="#63b8ff" d="M172.29,-135.48C187.39,-123.09 214.16,-102.39 239.75,-88.89 242.58,-87.4 245.55,-85.97 248.58,-84.62"/>
<polygon fill="#63b8ff" stroke="#63b8ff" points="249.68,-87.95 257.59,-80.9 247.01,-81.48 249.68,-87.95"/>
</a>
</g>
</g>
<!-- Node11 -->
<g id="Node000011" class="node">
<title>Node11</title>
<g id="a_Node000011"><a xlink:href="namespaceshared.html#a77e45bc6735a35fbc38891b166e40a7b" target="_top" xlink:title="Trim characters from the front and end of a string.">
<polygon fill="white" stroke="#666666" points="326.62,-117.89 258.88,-117.89 258.88,-97.89 326.62,-97.89 326.62,-117.89"/>
<text text-anchor="middle" x="292.75" y="-104.39" font-family="Helvetica,sans-Serif" font-size="10.00">shared::trim</text>
</a>
</g>
</g>
<!-- Node8&#45;&gt;Node11 -->
<g id="edge17_Node000008_Node000011" class="edge">
<title>Node8&#45;&gt;Node11</title>
<g id="a_edge17_Node000008_Node000011"><a xlink:title=" ">
<path fill="none" stroke="#63b8ff" d="M196.35,-135.4C212.34,-130.79 231.27,-125.33 248.03,-120.5"/>
<polygon fill="#63b8ff" stroke="#63b8ff" points="248.58,-123.98 257.22,-117.85 246.64,-117.26 248.58,-123.98"/>
</a>
</g>
</g>
<!-- Node12&#45;&gt;Node3 -->
<g id="edge19_Node000012_Node000003" class="edge">
<title>Node12&#45;&gt;Node3</title>
<g id="a_edge19_Node000012_Node000003"><a xlink:title=" ">
<path fill="none" stroke="#63b8ff" d="M333.02,-300.14C368.96,-302.94 423.33,-309.02 469,-321.89 484.49,-326.25 500.95,-333.18 514.51,-339.57"/>
<polygon fill="#63b8ff" stroke="#63b8ff" points="512.8,-342.63 523.32,-343.85 515.86,-336.33 512.8,-342.63"/>
</a>
</g>
</g>
<!-- Node13&#45;&gt;Node3 -->
<g id="edge21_Node000013_Node000003" class="edge">
<title>Node13&#45;&gt;Node3</title>
<g id="a_edge21_Node000013_Node000003"><a xlink:title=" ">
<path fill="none" stroke="#63b8ff" d="M196.65,-447.36C255.51,-442.44 374.14,-429.01 469,-395.89 486.63,-389.73 505.07,-379.75 519.28,-371.18"/>
<polygon fill="#63b8ff" stroke="#63b8ff" points="520.87,-374.31 527.52,-366.06 517.18,-368.37 520.87,-374.31"/>
</a>
</g>
</g>
<!-- Node14&#45;&gt;Node3 -->
<g id="edge24_Node000014_Node000003" class="edge">
<title>Node14&#45;&gt;Node3</title>
<g id="a_edge24_Node000014_Node000003"><a xlink:title=" ">
<path fill="none" stroke="#63b8ff" d="M204.05,-408.57C264.27,-403.6 375.48,-392.82 469,-374.89 478.45,-373.08 488.46,-370.73 497.98,-368.28"/>
<polygon fill="#63b8ff" stroke="#63b8ff" points="498.66,-371.72 507.42,-365.77 496.86,-364.95 498.66,-371.72"/>
</a>
</g>
</g>
<!-- Node15&#45;&gt;Node3 -->
<g id="edge26_Node000015_Node000003" class="edge">
<title>Node15&#45;&gt;Node3</title>
<g id="a_edge26_Node000015_Node000003"><a xlink:title=" ">
<path fill="none" stroke="#63b8ff" d="M204.08,-371.71C275.89,-368.16 417.73,-361.14 493.58,-357.39"/>
<polygon fill="#63b8ff" stroke="#63b8ff" points="493.4,-360.91 503.22,-356.92 493.05,-353.91 493.4,-360.91"/>
</a>
</g>
</g>
</g>
</svg>

<g id="navigator" transform="translate(0 0)" fill="#404254">
  <rect fill="#f2f5e9" fill-opacity="0.5" stroke="#606060" stroke-width=".5" x="0" y="0" width="60" height="60"/>
  <use id="zoomplus" xlink:href="#zoomPlus" x="17" y="9" onmousedown="handleZoom(evt,'in')"/>
  <use id="zoomminus" xlink:href="#zoomMin" x="42" y="9" onmousedown="handleZoom(evt,'out')"/>
  <use id="reset" xlink:href="#resetDef" x="30" y="36" onmousedown="handleReset()"/>
   <use id="arrowup" xlink:href="#arrowUp" x="0" y="0" onmousedown="handlePan(0,-1)"/>
  <use id="arrowright" xlink:href="#arrowRight" x="0" y="0" onmousedown="handlePan(1,0)"/>
  <use id="arrowdown" xlink:href="#arrowDown" x="0" y="0" onmousedown="handlePan(0,1)"/>
  <use id="arrowleft" xlink:href="#arrowLeft" x="0" y="0" onmousedown="handlePan(-1,0)"/>
</g>
<svg viewBox="0 0 15 15" width="100%" height="30px" preserveAspectRatio="xMaxYMin meet">
 <g id="arrow_out" transform="scale(0.3 0.3)">
  <a xlink:href="namespacegenerate_a38dcdfdf9293b8aafe77392021d65019_cgraph_org.svg" target="_base">
   <rect id="button" ry="5" rx="5" y="6" x="6" height="38" width="38"
        fill="#f2f5e9" fill-opacity="0.5" stroke="#606060" stroke-width="1.0"/>
   <path id="arrow"
     d="M 11.500037,31.436501 C 11.940474,20.09759 22.043105,11.32322 32.158766,21.979434 L 37.068811,17.246167 C 37.068811,17.246167 37.088388,32 37.088388,32 L 22.160133,31.978069 C 22.160133,31.978069 26.997745,27.140456 26.997745,27.140456 C 18.528582,18.264221 13.291696,25.230495 11.500037,31.436501 z"
     style="fill:#404040;"/>
  </a>
 </g>
</svg>

<style type='text/css'>
<![CDATA[
[data-mouse-over-selected='false'] { opacity: 0.7; }
[data-mouse-over-selected='true']  { opacity: 1.0; }
]]>
</style>
<script type="application/ecmascript"><![CDATA[
document.addEventListener('DOMContentLoaded', (event) => {
  highlightEdges();
  highlightAdjacentNodes();
});
]]></script>
</svg>
