<?xml version="1.0" encoding="UTF-8" standalone="no"?>
<!DOCTYPE svg PUBLIC "-//W3C//DTD SVG 1.1//EN"
 "http://www.w3.org/Graphics/SVG/1.1/DTD/svg11.dtd">
<!-- Generated by graphviz version 12.2.1 (0)
 -->
<!-- Title: syscalls::update_policy Pages: 1 -->
<svg width="618pt" height="217pt"
 viewBox="0.00 0.00 618.25 217.00" xmlns="http://www.w3.org/2000/svg" xmlns:xlink="http://www.w3.org/1999/xlink">
<g id="graph0" class="graph" transform="scale(1 1) rotate(0) translate(4 213)">
<title>syscalls::update_policy</title>
<!-- Node1 -->
<g id="Node000001" class="node">
<title>Node1</title>
<g id="a_Node000001"><a xlink:title="Append an existing policy with newly discovered syscalls.">
<polygon fill="#999999" stroke="#666666" points="118,-115 0,-115 0,-95 118,-95 118,-115"/>
<text text-anchor="middle" x="59" y="-101.5" font-family="Helvetica,sans-Serif" font-size="10.00">syscalls::update_policy</text>
</a>
</g>
</g>
<!-- Node2 -->
<g id="Node000002" class="node">
<title>Node2</title>
<g id="a_Node000002"><a xlink:href="namespaceshared.html#a4a708359d4c8dbeeaa8b744eec56c0e5" target="_top" xlink:title="Hash a string.">
<polygon fill="white" stroke="#666666" points="235.62,-191 163.38,-191 163.38,-171 235.62,-171 235.62,-191"/>
<text text-anchor="middle" x="199.5" y="-177.5" font-family="Helvetica,sans-Serif" font-size="10.00">shared::hash</text>
</a>
</g>
</g>
<!-- Node1&#45;&gt;Node2 -->
<g id="edge1_Node000001_Node000002" class="edge">
<title>Node1&#45;&gt;Node2</title>
<g id="a_edge1_Node000001_Node000002"><a xlink:title=" ">
<path fill="none" stroke="#63b8ff" d="M75.57,-115.38C93.91,-127.38 125.48,-147.36 154,-162 156.55,-163.31 159.21,-164.61 161.91,-165.87"/>
<polygon fill="#63b8ff" stroke="#63b8ff" points="160.39,-169.03 170.95,-169.94 163.26,-162.65 160.39,-169.03"/>
</a>
</g>
</g>
<!-- Node3 -->
<g id="Node000003" class="node">
<title>Node3</title>
<g id="a_Node000003"><a xlink:href="namespaceshared.html#a565b1c521d1f0509c5ec0f237a727f8e" target="_top" xlink:title="Compose a return value from an accumulator function.">
<polygon fill="white" stroke="#666666" points="231.5,-153 167.5,-153 167.5,-133 231.5,-133 231.5,-153"/>
<text text-anchor="middle" x="199.5" y="-139.5" font-family="Helvetica,sans-Serif" font-size="10.00">shared::init</text>
</a>
</g>
</g>
<!-- Node1&#45;&gt;Node3 -->
<g id="edge3_Node000001_Node000003" class="edge">
<title>Node1&#45;&gt;Node3</title>
<g id="a_edge3_Node000001_Node000003"><a xlink:title=" ">
<path fill="none" stroke="#63b8ff" d="M98.21,-115.48C116.25,-120.43 137.82,-126.35 156.34,-131.43"/>
<polygon fill="#63b8ff" stroke="#63b8ff" points="155.38,-134.8 165.95,-134.07 157.23,-128.05 155.38,-134.8"/>
</a>
</g>
</g>
<!-- Node4 -->
<g id="Node000004" class="node">
<title>Node4</title>
<g id="a_Node000004"><a xlink:href="namespaceshared.html#a2f7cb04abbe01ba7193f2d2a6d520355" target="_top" xlink:title="Join a vector into a string.">
<polygon fill="white" stroke="#666666" points="232.62,-115 166.38,-115 166.38,-95 232.62,-95 232.62,-115"/>
<text text-anchor="middle" x="199.5" y="-101.5" font-family="Helvetica,sans-Serif" font-size="10.00">shared::join</text>
</a>
</g>
</g>
<!-- Node1&#45;&gt;Node4 -->
<g id="edge4_Node000001_Node000004" class="edge">
<title>Node1&#45;&gt;Node4</title>
<g id="a_edge4_Node000001_Node000004"><a xlink:title=" ">
<path fill="none" stroke="#63b8ff" d="M118.34,-105C130.41,-105 142.93,-105 154.39,-105"/>
<polygon fill="#63b8ff" stroke="#63b8ff" points="154.37,-108.5 164.37,-105 154.37,-101.5 154.37,-108.5"/>
</a>
</g>
</g>
<!-- Node5 -->
<g id="Node000005" class="node">
<title>Node5</title>
<g id="a_Node000005"><a xlink:href="namespaceshared.html#afac154f1bef460ef6f24705f6c033f37" target="_top" xlink:title="Read a file.">
<polygon fill="white" stroke="#666666" points="243.5,-77 155.5,-77 155.5,-57 243.5,-57 243.5,-77"/>
<text text-anchor="middle" x="199.5" y="-63.5" font-family="Helvetica,sans-Serif" font-size="10.00">shared::read_file</text>
</a>
</g>
</g>
<!-- Node1&#45;&gt;Node5 -->
<g id="edge5_Node000001_Node000005" class="edge">
<title>Node1&#45;&gt;Node5</title>
<g id="a_edge5_Node000001_Node000005"><a xlink:title=" ">
<path fill="none" stroke="#63b8ff" d="M98.21,-94.52C114.11,-90.15 132.75,-85.04 149.63,-80.41"/>
<polygon fill="#63b8ff" stroke="#63b8ff" points="150.24,-83.87 158.95,-77.85 148.38,-77.12 150.24,-83.87"/>
</a>
</g>
</g>
<!-- Node6 -->
<g id="Node000006" class="node">
<title>Node6</title>
<g id="a_Node000006"><a xlink:href="namespaceshared.html#ae5d42a7f6819f149991304227a611c78" target="_top" xlink:title="A Blocking Parser that splits the output into a vector.">
<polygon fill="white" stroke="#666666" points="245,-39 154,-39 154,-19 245,-19 245,-39"/>
<text text-anchor="middle" x="199.5" y="-25.5" font-family="Helvetica,sans-Serif" font-size="10.00">shared::vectorize</text>
</a>
</g>
</g>
<!-- Node1&#45;&gt;Node6 -->
<g id="edge6_Node000001_Node000006" class="edge">
<title>Node1&#45;&gt;Node6</title>
<g id="a_edge6_Node000001_Node000006"><a xlink:title=" ">
<path fill="none" stroke="#63b8ff" d="M75.57,-94.62C93.91,-82.62 125.48,-62.64 154,-48 156.55,-46.69 159.21,-45.39 161.91,-44.13"/>
<polygon fill="#63b8ff" stroke="#63b8ff" points="163.26,-47.35 170.95,-40.06 160.39,-40.97 163.26,-47.35"/>
</a>
</g>
</g>
<!-- Node2&#45;&gt;Node2 -->
<g id="edge2_Node000002_Node000002" class="edge">
<title>Node2&#45;&gt;Node2</title>
<g id="a_edge2_Node000002_Node000002"><a xlink:title=" ">
<path fill="none" stroke="#63b8ff" d="M179.08,-191.34C170.36,-199.98 177.16,-209 199.5,-209 211.72,-209 219.29,-206.3 222.21,-202.44"/>
<polygon fill="#63b8ff" stroke="#63b8ff" points="225.67,-201.91 220.22,-192.82 218.82,-203.32 225.67,-201.91"/>
</a>
</g>
</g>
<!-- Node7 -->
<g id="Node000007" class="node">
<title>Node7</title>
<g id="a_Node000007"><a xlink:href="namespaceshared.html#a3736db9aa00bd9e0a56aeaf1057066c0" target="_top" xlink:title="Split the contents of an FD.">
<polygon fill="white" stroke="#666666" points="375,-39 281,-39 281,-19 375,-19 375,-39"/>
<text text-anchor="middle" x="328" y="-25.5" font-family="Helvetica,sans-Serif" font-size="10.00">shared::fd_splitter</text>
</a>
</g>
</g>
<!-- Node6&#45;&gt;Node7 -->
<g id="edge7_Node000006_Node000007" class="edge">
<title>Node6&#45;&gt;Node7</title>
<g id="a_edge7_Node000006_Node000007"><a xlink:title=" ">
<path fill="none" stroke="#63b8ff" d="M245.46,-29C253.27,-29 261.5,-29 269.6,-29"/>
<polygon fill="#63b8ff" stroke="#63b8ff" points="269.39,-32.5 279.39,-29 269.39,-25.5 269.39,-32.5"/>
</a>
</g>
</g>
<!-- Node8 -->
<g id="Node000008" class="node">
<title>Node8</title>
<g id="a_Node000008"><a xlink:href="namespaceshared.html#a80f3b59804700742a5a0c6ea15bf24f9" target="_top" xlink:title="A Blocking Parser that returns the output in a single string.">
<polygon fill="white" stroke="#666666" points="488.88,-58 413.62,-58 413.62,-38 488.88,-38 488.88,-58"/>
<text text-anchor="middle" x="451.25" y="-44.5" font-family="Helvetica,sans-Serif" font-size="10.00">shared::dump</text>
</a>
</g>
</g>
<!-- Node7&#45;&gt;Node8 -->
<g id="edge8_Node000007_Node000008" class="edge">
<title>Node7&#45;&gt;Node8</title>
<g id="a_edge8_Node000007_Node000008"><a xlink:title=" ">
<path fill="none" stroke="#63b8ff" d="M375.19,-36.24C383.93,-37.61 393.11,-39.05 401.92,-40.43"/>
<polygon fill="#63b8ff" stroke="#63b8ff" points="401.31,-43.87 411.73,-41.96 402.4,-36.96 401.31,-43.87"/>
</a>
</g>
</g>
<!-- Node9 -->
<g id="Node000009" class="node">
<title>Node9</title>
<g id="a_Node000009"><a xlink:href="namespaceshared.html#a690cc836408825d804377522d9d99a07" target="_top" xlink:title="Split a string.">
<polygon fill="white" stroke="#666666" points="491.5,-20 411,-20 411,0 491.5,0 491.5,-20"/>
<text text-anchor="middle" x="451.25" y="-6.5" font-family="Helvetica,sans-Serif" font-size="10.00">shared::splitter</text>
</a>
</g>
</g>
<!-- Node7&#45;&gt;Node9 -->
<g id="edge9_Node000007_Node000009" class="edge">
<title>Node7&#45;&gt;Node9</title>
<g id="a_edge9_Node000007_Node000009"><a xlink:title=" ">
<path fill="none" stroke="#63b8ff" d="M375.19,-21.76C383.1,-20.52 391.36,-19.23 399.39,-17.97"/>
<polygon fill="#63b8ff" stroke="#63b8ff" points="399.69,-21.47 409.03,-16.46 398.61,-14.55 399.69,-21.47"/>
</a>
</g>
</g>
<!-- Node10 -->
<g id="Node000010" class="node">
<title>Node10</title>
<g id="a_Node000010"><a xlink:href="namespaceshared.html#a6282d0d8d2ab3f70038d7428729c15ca" target="_top" xlink:title="Escape a string.">
<polygon fill="white" stroke="#666666" points="610.25,-20 527.5,-20 527.5,0 610.25,0 610.25,-20"/>
<text text-anchor="middle" x="568.88" y="-6.5" font-family="Helvetica,sans-Serif" font-size="10.00">shared::escape</text>
</a>
</g>
</g>
<!-- Node9&#45;&gt;Node10 -->
<g id="edge10_Node000009_Node000010" class="edge">
<title>Node9&#45;&gt;Node10</title>
<g id="a_edge10_Node000009_Node000010"><a xlink:title=" ">
<path fill="none" stroke="#63b8ff" d="M491.72,-10C499.46,-10 507.68,-10 515.76,-10"/>
<polygon fill="#63b8ff" stroke="#63b8ff" points="515.5,-13.5 525.5,-10 515.5,-6.5 515.5,-13.5"/>
</a>
</g>
</g>
</g>
</svg>
