<?xml version="1.0" encoding="UTF-8" standalone="no"?>
<!DOCTYPE svg PUBLIC "-//W3C//DTD SVG 1.1//EN"
 "http://www.w3.org/Graphics/SVG/1.1/DTD/svg11.dtd">
<!-- Generated by graphviz version 12.2.1 (0)
 -->
<!-- Title: generate::xdg_dbus_proxy Pages: 1 -->
<svg width="937pt" height="825pt"
 viewBox="0.00 0.00 936.75 825.29" xmlns="http://www.w3.org/2000/svg" xmlns:xlink="http://www.w3.org/1999/xlink">
<g id="graph0" class="graph" transform="scale(1 1) rotate(0) translate(4 821.29)">
<title>generate::xdg_dbus_proxy</title>
<!-- Node1 -->
<g id="Node000001" class="node">
<title>Node1</title>
<g id="a_Node000001"><a xlink:title="Spawn an instance of the xdg&#45;dbus&#45;proxy for the application instance.">
<polygon fill="#999999" stroke="#666666" points="101.5,-295.38 0,-295.38 0,-263.38 101.5,-263.38 101.5,-295.38"/>
<text text-anchor="start" x="8" y="-281.88" font-family="Helvetica,sans-Serif" font-size="10.00">generate::xdg_dbus</text>
<text text-anchor="middle" x="50.75" y="-269.88" font-family="Helvetica,sans-Serif" font-size="10.00">_proxy</text>
</a>
</g>
</g>
<!-- Node2 -->
<g id="Node000002" class="node">
<title>Node2</title>
<g id="a_Node000002"><a xlink:href="namespaceshared.html#a585cdabc1b4758c65001d7dd03cb6715" target="_top" xlink:title="Execute stuff.">
<polygon fill="white" stroke="#666666" points="682.62,-580.38 610.38,-580.38 610.38,-560.38 682.62,-560.38 682.62,-580.38"/>
<text text-anchor="middle" x="646.5" y="-566.88" font-family="Helvetica,sans-Serif" font-size="10.00">shared::exec</text>
</a>
</g>
</g>
<!-- Node1&#45;&gt;Node2 -->
<g id="edge1_Node000001_Node000002" class="edge">
<title>Node1&#45;&gt;Node2</title>
<g id="a_edge1_Node000001_Node000002"><a xlink:title=" ">
<path fill="none" stroke="#63b8ff" d="M53.2,-295.73C59.61,-365.05 87.38,-634.24 137.5,-700.38 196.2,-777.86 237.53,-777.52 332,-800.38 433.48,-824.94 486.11,-830.48 563.5,-760.38 614.33,-714.35 634.95,-631.33 642.15,-592.07"/>
<polygon fill="#63b8ff" stroke="#63b8ff" points="645.59,-592.7 643.82,-582.25 638.69,-591.53 645.59,-592.7"/>
</a>
</g>
</g>
<!-- Node3 -->
<g id="Node000003" class="node">
<title>Node3</title>
<g id="a_Node000003"><a xlink:href="namespaceshared.html#ab11bf98c12a2bf0ae3adca902e57befd" target="_top" xlink:title="Extend a container in place.">
<polygon fill="white" stroke="#666666" points="686.75,-150.38 606.25,-150.38 606.25,-130.38 686.75,-130.38 686.75,-150.38"/>
<text text-anchor="middle" x="646.5" y="-136.88" font-family="Helvetica,sans-Serif" font-size="10.00">shared::extend</text>
</a>
</g>
</g>
<!-- Node1&#45;&gt;Node3 -->
<g id="edge2_Node000001_Node000003" class="edge">
<title>Node1&#45;&gt;Node3</title>
<g id="a_edge2_Node000001_Node000003"><a xlink:title=" ">
<path fill="none" stroke="#63b8ff" d="M52.31,-262.94C54.74,-220.45 67.78,-107.04 137.5,-59.38 294.06,47.62 388.7,-9.85 563.5,-83.38 586.61,-93.11 609.78,-110.03 625.56,-122.92"/>
<polygon fill="#63b8ff" stroke="#63b8ff" points="622.88,-125.24 632.79,-128.99 627.38,-119.88 622.88,-125.24"/>
</a>
</g>
</g>
<!-- Node4 -->
<g id="Node000004" class="node">
<title>Node4</title>
<g id="a_Node000004"><a xlink:href="namespacelibraries.html#a4dfd6ab45adf8dc18ea57bc1f88eaedf" target="_top" xlink:title="Recursively resolve all shared&#45;libraries needed by a library.">
<polygon fill="white" stroke="#666666" points="419.62,-447.38 350.38,-447.38 350.38,-427.38 419.62,-427.38 419.62,-447.38"/>
<text text-anchor="middle" x="385" y="-433.88" font-family="Helvetica,sans-Serif" font-size="10.00">libraries::get</text>
</a>
</g>
</g>
<!-- Node1&#45;&gt;Node4 -->
<g id="edge3_Node000001_Node000004" class="edge">
<title>Node1&#45;&gt;Node4</title>
<g id="a_edge3_Node000001_Node000004"><a xlink:title=" ">
<path fill="none" stroke="#63b8ff" d="M61.78,-295.69C75.94,-317.28 103.85,-355.03 137.5,-375.38 200.86,-413.71 287.07,-428.43 338.95,-434.03"/>
<polygon fill="#63b8ff" stroke="#63b8ff" points="338.3,-437.48 348.6,-434.99 339,-430.51 338.3,-437.48"/>
</a>
</g>
</g>
<!-- Node11 -->
<g id="Node000011" class="node">
<title>Node11</title>
<g id="a_Node000011"><a xlink:href="namespaceshared.html#a99724c73af55fa92ae29fee700152917" target="_top" xlink:title="Log output to console, if verbose.">
<polygon fill="white" stroke="#666666" points="550.75,-751.38 486.75,-751.38 486.75,-731.38 550.75,-731.38 550.75,-751.38"/>
<text text-anchor="middle" x="518.75" y="-737.88" font-family="Helvetica,sans-Serif" font-size="10.00">shared::log</text>
</a>
</g>
</g>
<!-- Node1&#45;&gt;Node11 -->
<g id="edge21_Node000001_Node000011" class="edge">
<title>Node1&#45;&gt;Node11</title>
<g id="a_edge21_Node000001_Node000011"><a xlink:title=" ">
<path fill="none" stroke="#63b8ff" d="M52.71,-295.68C56.33,-345.84 72.46,-500.9 137.5,-607.38 197.96,-706.37 223.65,-739.99 332,-781.38 376.01,-798.2 392.16,-792.24 438,-781.38 443.39,-780.11 467.66,-767.77 488.03,-757.13"/>
<polygon fill="#63b8ff" stroke="#63b8ff" points="489.64,-760.23 496.86,-752.49 486.38,-754.04 489.64,-760.23"/>
</a>
</g>
</g>
<!-- Node12 -->
<g id="Node000012" class="node">
<title>Node12</title>
<g id="a_Node000012"><a xlink:href="namespaceshared.html#afac154f1bef460ef6f24705f6c033f37" target="_top" xlink:title="Read a file.">
<polygon fill="white" stroke="#666666" points="562.75,-333.38 474.75,-333.38 474.75,-313.38 562.75,-313.38 562.75,-333.38"/>
<text text-anchor="middle" x="518.75" y="-319.88" font-family="Helvetica,sans-Serif" font-size="10.00">shared::read_file</text>
</a>
</g>
</g>
<!-- Node1&#45;&gt;Node12 -->
<g id="edge37_Node000001_Node000012" class="edge">
<title>Node1&#45;&gt;Node12</title>
<g id="a_edge37_Node000001_Node000012"><a xlink:title=" ">
<path fill="none" stroke="#63b8ff" d="M100.72,-295.79C112.63,-299.19 125.42,-302.35 137.5,-304.38 252.12,-323.68 388.68,-325.43 462.97,-324.64"/>
<polygon fill="#63b8ff" stroke="#63b8ff" points="462.87,-328.14 472.83,-324.51 462.78,-321.14 462.87,-328.14"/>
</a>
</g>
</g>
<!-- Node13 -->
<g id="Node000013" class="node">
<title>Node13</title>
<g id="a_Node000013"><a xlink:href="namespaceshared.html#a219683cbcfb575bb29797638cadafb7b" target="_top" xlink:title="A Blocking Parser that splits the output into a set.">
<polygon fill="white" stroke="#666666" points="561.62,-409.38 475.88,-409.38 475.88,-389.38 561.62,-389.38 561.62,-409.38"/>
<text text-anchor="middle" x="518.75" y="-395.88" font-family="Helvetica,sans-Serif" font-size="10.00">shared::setorize</text>
</a>
</g>
</g>
<!-- Node1&#45;&gt;Node13 -->
<g id="edge38_Node000001_Node000013" class="edge">
<title>Node1&#45;&gt;Node13</title>
<g id="a_edge38_Node000001_Node000013"><a xlink:title=" ">
<path fill="none" stroke="#63b8ff" d="M76.66,-295.76C93.27,-305.98 115.94,-318.62 137.5,-326.38 196.96,-347.79 374.17,-377.13 464.11,-391.2"/>
<polygon fill="#63b8ff" stroke="#63b8ff" points="463.5,-394.65 473.92,-392.73 464.58,-387.73 463.5,-394.65"/>
</a>
</g>
</g>
<!-- Node15 -->
<g id="Node000015" class="node">
<title>Node15</title>
<g id="a_Node000015"><a xlink:href="classshared_1_1TemporaryDirectory.html#a587043a975ec1bb3cb6ce6a663285730" target="_top" xlink:title="Return the path to the directory.">
<polygon fill="white" stroke="#666666" points="285.12,-295.38 148.38,-295.38 148.38,-263.38 285.12,-263.38 285.12,-295.38"/>
<text text-anchor="start" x="156.38" y="-281.88" font-family="Helvetica,sans-Serif" font-size="10.00">shared::TemporaryDirectory</text>
<text text-anchor="middle" x="216.75" y="-269.88" font-family="Helvetica,sans-Serif" font-size="10.00">::get_path</text>
</a>
</g>
</g>
<!-- Node1&#45;&gt;Node15 -->
<g id="edge19_Node000001_Node000015" class="edge">
<title>Node1&#45;&gt;Node15</title>
<g id="a_edge19_Node000001_Node000015"><a xlink:title=" ">
<path fill="none" stroke="#63b8ff" d="M101.85,-279.38C112.91,-279.38 124.89,-279.38 136.79,-279.38"/>
<polygon fill="#63b8ff" stroke="#63b8ff" points="136.63,-282.88 146.63,-279.38 136.63,-275.88 136.63,-282.88"/>
</a>
</g>
</g>
<!-- Node16 -->
<g id="Node000016" class="node">
<title>Node16</title>
<g id="a_Node000016"><a xlink:href="namespaceshared.html#a1f0e43f0520bfb104be776b21ea446ad" target="_top" xlink:title="A Non&#45;Blocking Parser that returns the PID.">
<polygon fill="white" stroke="#666666" points="258.12,-245.38 175.38,-245.38 175.38,-225.38 258.12,-225.38 258.12,-245.38"/>
<text text-anchor="middle" x="216.75" y="-231.88" font-family="Helvetica,sans-Serif" font-size="10.00">shared::get_pid</text>
</a>
</g>
</g>
<!-- Node1&#45;&gt;Node16 -->
<g id="edge20_Node000001_Node000016" class="edge">
<title>Node1&#45;&gt;Node16</title>
<g id="a_edge20_Node000001_Node000016"><a xlink:title=" ">
<path fill="none" stroke="#63b8ff" d="M101.97,-264.33C113.61,-260.95 125.96,-257.46 137.5,-254.38 146.05,-252.1 155.15,-249.79 164.01,-247.59"/>
<polygon fill="#63b8ff" stroke="#63b8ff" points="164.7,-251.03 173.58,-245.26 163.03,-244.23 164.7,-251.03"/>
</a>
</g>
</g>
<!-- Node17 -->
<g id="Node000017" class="node">
<title>Node17</title>
<g id="a_Node000017"><a xlink:href="namespacebinaries.html#ac1478c81b2eb2c4ecdba98e92c4e7651" target="_top" xlink:title="Parse a binary to determine dependencies.">
<polygon fill="white" stroke="#666666" points="256.62,-580.38 176.88,-580.38 176.88,-560.38 256.62,-560.38 256.62,-580.38"/>
<text text-anchor="middle" x="216.75" y="-566.88" font-family="Helvetica,sans-Serif" font-size="10.00">binaries::parse</text>
</a>
</g>
</g>
<!-- Node1&#45;&gt;Node17 -->
<g id="edge22_Node000001_Node000017" class="edge">
<title>Node1&#45;&gt;Node17</title>
<g id="a_edge22_Node000001_Node000017"><a xlink:title=" ">
<path fill="none" stroke="#63b8ff" d="M60.74,-295.48C76.32,-323.38 109.39,-382.52 137.5,-432.38 161.16,-474.35 189.01,-523.39 204.29,-550.25"/>
<polygon fill="#63b8ff" stroke="#63b8ff" points="201.11,-551.73 209.09,-558.69 207.19,-548.27 201.11,-551.73"/>
</a>
</g>
</g>
<!-- Node24 -->
<g id="Node000024" class="node">
<title>Node24</title>
<g id="a_Node000024"><a xlink:href="namespacelibraries.html#adb180a16d1881d4ca1da44e7e3512cc5" target="_top" xlink:title="Setup an SOF directory.">
<polygon fill="white" stroke="#666666" points="256.62,-169.38 176.88,-169.38 176.88,-149.38 256.62,-149.38 256.62,-169.38"/>
<text text-anchor="middle" x="216.75" y="-155.88" font-family="Helvetica,sans-Serif" font-size="10.00">libraries::setup</text>
</a>
</g>
</g>
<!-- Node1&#45;&gt;Node24 -->
<g id="edge39_Node000001_Node000024" class="edge">
<title>Node1&#45;&gt;Node24</title>
<g id="a_edge39_Node000001_Node000024"><a xlink:title=" ">
<path fill="none" stroke="#63b8ff" d="M61.07,-262.95C74.81,-240.31 102.65,-199.87 137.5,-178.38 145.97,-173.16 155.79,-169.37 165.54,-166.63"/>
<polygon fill="#63b8ff" stroke="#63b8ff" points="166.1,-170.09 174.98,-164.31 164.43,-163.29 166.1,-170.09"/>
</a>
</g>
</g>
<!-- Node25 -->
<g id="Node000025" class="node">
<title>Node25</title>
<g id="a_Node000025"><a xlink:href="classshared_1_1TemporaryDirectory.html#adc4a1c0954915b3208e0de0fee6846c9" target="_top" xlink:title="Create a subdirectory/file in the temp dir.">
<polygon fill="white" stroke="#666666" points="296,-131.38 137.5,-131.38 137.5,-111.38 296,-111.38 296,-131.38"/>
<text text-anchor="middle" x="216.75" y="-117.88" font-family="Helvetica,sans-Serif" font-size="10.00">shared::TemporaryDirectory::sub</text>
</a>
</g>
</g>
<!-- Node1&#45;&gt;Node25 -->
<g id="edge40_Node000001_Node000025" class="edge">
<title>Node1&#45;&gt;Node25</title>
<g id="a_edge40_Node000001_Node000025"><a xlink:title=" ">
<path fill="none" stroke="#63b8ff" d="M57.05,-263.21C67.51,-233.92 93.68,-172.21 137.5,-140.38 139.28,-139.09 141.14,-137.88 143.06,-136.76"/>
<polygon fill="#63b8ff" stroke="#63b8ff" points="144.33,-140.04 151.73,-132.46 141.22,-133.77 144.33,-140.04"/>
</a>
</g>
</g>
<!-- Node26 -->
<g id="Node000026" class="node">
<title>Node26</title>
<g id="a_Node000026"><a xlink:href="namespacebinaries.html#a3dceb9be58009eef337fd18d7ee738d4" target="_top" xlink:title="Symlink to /usr/bin.">
<polygon fill="white" stroke="#666666" points="563.5,-112.38 474,-112.38 474,-92.38 563.5,-92.38 563.5,-112.38"/>
<text text-anchor="middle" x="518.75" y="-98.88" font-family="Helvetica,sans-Serif" font-size="10.00">binaries::symlink</text>
</a>
</g>
</g>
<!-- Node1&#45;&gt;Node26 -->
<g id="edge41_Node000001_Node000026" class="edge">
<title>Node1&#45;&gt;Node26</title>
<g id="a_edge41_Node000001_Node000026"><a xlink:title=" ">
<path fill="none" stroke="#63b8ff" d="M53.96,-262.89C59.85,-226.28 79.63,-138.65 137.5,-102.38 243.25,-36.11 400.17,-67.72 475.02,-88.78"/>
<polygon fill="#63b8ff" stroke="#63b8ff" points="473.85,-92.09 484.43,-91.51 475.8,-85.36 473.85,-92.09"/>
</a>
</g>
</g>
<!-- Node27 -->
<g id="Node000027" class="node">
<title>Node27</title>
<g id="a_Node000027"><a xlink:href="namespacelibraries.html#aaf67d1825dab30fecb532ea92077ebe3" target="_top" xlink:title="Add symlink commands.">
<polygon fill="white" stroke="#666666" points="261.5,-207.38 172,-207.38 172,-187.38 261.5,-187.38 261.5,-207.38"/>
<text text-anchor="middle" x="216.75" y="-193.88" font-family="Helvetica,sans-Serif" font-size="10.00">libraries::symlink</text>
</a>
</g>
</g>
<!-- Node1&#45;&gt;Node27 -->
<g id="edge43_Node000001_Node000027" class="edge">
<title>Node1&#45;&gt;Node27</title>
<g id="a_edge43_Node000001_Node000027"><a xlink:title=" ">
<path fill="none" stroke="#63b8ff" d="M69.46,-263.07C85.92,-248.75 111.71,-228.4 137.5,-216.38 144.74,-213.01 152.64,-210.2 160.54,-207.87"/>
<polygon fill="#63b8ff" stroke="#63b8ff" points="161.45,-211.25 170.2,-205.27 159.63,-204.49 161.45,-211.25"/>
</a>
</g>
</g>
<!-- Node4&#45;&gt;Node2 -->
<g id="edge6_Node000004_Node000002" class="edge">
<title>Node4&#45;&gt;Node2</title>
<g id="a_edge6_Node000004_Node000002"><a xlink:title=" ">
<path fill="none" stroke="#63b8ff" d="M420.05,-445.49C426.54,-448.18 432.89,-451.72 438,-456.38 465.62,-481.57 444.78,-509.08 474,-532.38 509.44,-560.65 561.53,-568.9 599,-570.85"/>
<polygon fill="#63b8ff" stroke="#63b8ff" points="598.48,-574.34 608.61,-571.21 598.75,-567.34 598.48,-574.34"/>
</a>
</g>
</g>
<!-- Node5 -->
<g id="Node000005" class="node">
<title>Node5</title>
<g id="a_Node000005"><a xlink:href="namespaceshared.html#a172747218de79644b5c263f15a0da631" target="_top" xlink:title="Batch multiple iterations of an accumulator function together, threaded.">
<polygon fill="white" stroke="#666666" points="556.38,-447.38 481.12,-447.38 481.12,-427.38 556.38,-427.38 556.38,-447.38"/>
<text text-anchor="middle" x="518.75" y="-433.88" font-family="Helvetica,sans-Serif" font-size="10.00">shared::batch</text>
</a>
</g>
</g>
<!-- Node4&#45;&gt;Node5 -->
<g id="edge4_Node000004_Node000005" class="edge">
<title>Node4&#45;&gt;Node5</title>
<g id="a_edge4_Node000004_Node000005"><a xlink:title=" ">
<path fill="none" stroke="#63b8ff" d="M419.93,-437.38C435.04,-437.38 453.12,-437.38 469.6,-437.38"/>
<polygon fill="#63b8ff" stroke="#63b8ff" points="469.18,-440.88 479.18,-437.38 469.18,-433.88 469.18,-440.88"/>
</a>
</g>
</g>
<!-- Node6 -->
<g id="Node000006" class="node">
<title>Node6</title>
<g id="a_Node000006"><a xlink:href="namespaceshared.html#a3736db9aa00bd9e0a56aeaf1057066c0" target="_top" xlink:title="Split the contents of an FD.">
<polygon fill="white" stroke="#666666" points="693.5,-504.38 599.5,-504.38 599.5,-484.38 693.5,-484.38 693.5,-504.38"/>
<text text-anchor="middle" x="646.5" y="-490.88" font-family="Helvetica,sans-Serif" font-size="10.00">shared::fd_splitter</text>
</a>
</g>
</g>
<!-- Node4&#45;&gt;Node6 -->
<g id="edge7_Node000004_Node000006" class="edge">
<title>Node4&#45;&gt;Node6</title>
<g id="a_edge7_Node000004_Node000006"><a xlink:title=" ">
<path fill="none" stroke="#63b8ff" d="M419.93,-444.84C462.67,-454.23 536.78,-470.5 588.34,-481.83"/>
<polygon fill="#63b8ff" stroke="#63b8ff" points="587.31,-485.19 597.82,-483.91 588.81,-478.35 587.31,-485.19"/>
</a>
</g>
</g>
<!-- Node10 -->
<g id="Node000010" class="node">
<title>Node10</title>
<g id="a_Node000010"><a xlink:href="namespaceshared.html#a2f7cb04abbe01ba7193f2d2a6d520355" target="_top" xlink:title="Join a vector into a string.">
<polygon fill="white" stroke="#666666" points="551.88,-675.38 485.62,-675.38 485.62,-655.38 551.88,-655.38 551.88,-675.38"/>
<text text-anchor="middle" x="518.75" y="-661.88" font-family="Helvetica,sans-Serif" font-size="10.00">shared::join</text>
</a>
</g>
</g>
<!-- Node4&#45;&gt;Node10 -->
<g id="edge11_Node000004_Node000010" class="edge">
<title>Node4&#45;&gt;Node10</title>
<g id="a_edge11_Node000004_Node000010"><a xlink:title=" ">
<path fill="none" stroke="#63b8ff" d="M419.97,-444.79C426.62,-447.53 433.05,-451.28 438,-456.38 473.51,-493.02 455.76,-517.74 474,-565.38 484.65,-593.2 498.71,-624.55 507.98,-644.61"/>
<polygon fill="#63b8ff" stroke="#63b8ff" points="504.79,-646.05 512.19,-653.64 511.14,-643.09 504.79,-646.05"/>
</a>
</g>
</g>
<!-- Node4&#45;&gt;Node11 -->
<g id="edge12_Node000004_Node000011" class="edge">
<title>Node4&#45;&gt;Node11</title>
<g id="a_edge12_Node000004_Node000011"><a xlink:title=" ">
<path fill="none" stroke="#63b8ff" d="M420.09,-443.99C426.89,-446.78 433.36,-450.74 438,-456.38 503.19,-535.6 433.52,-590.12 474,-684.38 480.09,-698.57 490.52,-712.36 499.66,-722.82"/>
<polygon fill="#63b8ff" stroke="#63b8ff" points="496.87,-724.96 506.21,-729.97 502.04,-720.23 496.87,-724.96"/>
</a>
</g>
</g>
<!-- Node4&#45;&gt;Node12 -->
<g id="edge13_Node000004_Node000012" class="edge">
<title>Node4&#45;&gt;Node12</title>
<g id="a_edge13_Node000004_Node000012"><a xlink:title=" ">
<path fill="none" stroke="#63b8ff" d="M397.69,-427.27C420.1,-407.88 469.34,-365.28 497.3,-341.08"/>
<polygon fill="#63b8ff" stroke="#63b8ff" points="499.48,-343.82 504.75,-334.63 494.9,-338.53 499.48,-343.82"/>
</a>
</g>
</g>
<!-- Node4&#45;&gt;Node13 -->
<g id="edge14_Node000004_Node000013" class="edge">
<title>Node4&#45;&gt;Node13</title>
<g id="a_edge14_Node000004_Node000013"><a xlink:title=" ">
<path fill="none" stroke="#63b8ff" d="M419.93,-427.6C435.44,-423.12 454.07,-417.75 470.89,-412.9"/>
<polygon fill="#63b8ff" stroke="#63b8ff" points="471.54,-416.36 480.17,-410.22 469.6,-409.63 471.54,-416.36"/>
</a>
</g>
</g>
<!-- Node14 -->
<g id="Node000014" class="node">
<title>Node14</title>
<g id="a_Node000014"><a xlink:href="namespaceshared.html#a6955b6b671ef8b660a0d6ed018712923" target="_top" xlink:title="Resolve wildcard patterns.">
<polygon fill="white" stroke="#666666" points="562.38,-523.38 475.12,-523.38 475.12,-503.38 562.38,-503.38 562.38,-523.38"/>
<text text-anchor="middle" x="518.75" y="-509.88" font-family="Helvetica,sans-Serif" font-size="10.00">shared::wildcard</text>
</a>
</g>
</g>
<!-- Node4&#45;&gt;Node14 -->
<g id="edge16_Node000004_Node000014" class="edge">
<title>Node4&#45;&gt;Node14</title>
<g id="a_edge16_Node000004_Node000014"><a xlink:title=" ">
<path fill="none" stroke="#63b8ff" d="M419.91,-447.58C426.13,-450.06 432.41,-452.99 438,-456.38 456.55,-467.66 456.36,-476.74 474,-489.38 477.88,-492.17 482.12,-494.86 486.38,-497.38"/>
<polygon fill="#63b8ff" stroke="#63b8ff" points="484.46,-500.32 494.89,-502.15 487.88,-494.21 484.46,-500.32"/>
</a>
</g>
</g>
<!-- Node5&#45;&gt;Node3 -->
<g id="edge5_Node000005_Node000003" class="edge">
<title>Node5&#45;&gt;Node3</title>
<g id="a_edge5_Node000005_Node000003"><a xlink:title=" ">
<path fill="none" stroke="#63b8ff" d="M552.51,-427.08C556.61,-424.72 560.43,-421.86 563.5,-418.38 630.8,-342.26 642.95,-213.27 645.08,-162.17"/>
<polygon fill="#63b8ff" stroke="#63b8ff" points="648.58,-162.3 645.39,-152.19 641.58,-162.08 648.58,-162.3"/>
</a>
</g>
</g>
<!-- Node7 -->
<g id="Node000007" class="node">
<title>Node7</title>
<g id="a_Node000007"><a xlink:href="namespaceshared.html#a80f3b59804700742a5a0c6ea15bf24f9" target="_top" xlink:title="A Blocking Parser that returns the output in a single string.">
<polygon fill="white" stroke="#666666" points="807.38,-675.38 732.12,-675.38 732.12,-655.38 807.38,-655.38 807.38,-675.38"/>
<text text-anchor="middle" x="769.75" y="-661.88" font-family="Helvetica,sans-Serif" font-size="10.00">shared::dump</text>
</a>
</g>
</g>
<!-- Node6&#45;&gt;Node7 -->
<g id="edge8_Node000006_Node000007" class="edge">
<title>Node6&#45;&gt;Node7</title>
<g id="a_edge8_Node000006_Node000007"><a xlink:title=" ">
<path fill="none" stroke="#63b8ff" d="M656.28,-504.65C665.78,-515.89 681.19,-534.55 693.5,-551.38 716.94,-583.45 741.92,-622.35 756.39,-645.42"/>
<polygon fill="#63b8ff" stroke="#63b8ff" points="753.36,-647.18 761.62,-653.81 759.3,-643.48 753.36,-647.18"/>
</a>
</g>
</g>
<!-- Node8 -->
<g id="Node000008" class="node">
<title>Node8</title>
<g id="a_Node000008"><a xlink:href="namespaceshared.html#a690cc836408825d804377522d9d99a07" target="_top" xlink:title="Split a string.">
<polygon fill="white" stroke="#666666" points="810,-504.38 729.5,-504.38 729.5,-484.38 810,-484.38 810,-504.38"/>
<text text-anchor="middle" x="769.75" y="-490.88" font-family="Helvetica,sans-Serif" font-size="10.00">shared::splitter</text>
</a>
</g>
</g>
<!-- Node6&#45;&gt;Node8 -->
<g id="edge9_Node000006_Node000008" class="edge">
<title>Node6&#45;&gt;Node8</title>
<g id="a_edge9_Node000006_Node000008"><a xlink:title=" ">
<path fill="none" stroke="#63b8ff" d="M693.69,-494.38C701.51,-494.38 709.67,-494.38 717.62,-494.38"/>
<polygon fill="#63b8ff" stroke="#63b8ff" points="717.51,-497.88 727.51,-494.38 717.51,-490.88 717.51,-497.88"/>
</a>
</g>
</g>
<!-- Node9 -->
<g id="Node000009" class="node">
<title>Node9</title>
<g id="a_Node000009"><a xlink:href="namespaceshared.html#a6282d0d8d2ab3f70038d7428729c15ca" target="_top" xlink:title="Escape a string.">
<polygon fill="white" stroke="#666666" points="928.75,-504.38 846,-504.38 846,-484.38 928.75,-484.38 928.75,-504.38"/>
<text text-anchor="middle" x="887.38" y="-490.88" font-family="Helvetica,sans-Serif" font-size="10.00">shared::escape</text>
</a>
</g>
</g>
<!-- Node8&#45;&gt;Node9 -->
<g id="edge10_Node000008_Node000009" class="edge">
<title>Node8&#45;&gt;Node9</title>
<g id="a_edge10_Node000008_Node000009"><a xlink:title=" ">
<path fill="none" stroke="#63b8ff" d="M810.22,-494.38C817.96,-494.38 826.18,-494.38 834.26,-494.38"/>
<polygon fill="#63b8ff" stroke="#63b8ff" points="834,-497.88 844,-494.38 834,-490.88 834,-497.88"/>
</a>
</g>
</g>
<!-- Node13&#45;&gt;Node6 -->
<g id="edge15_Node000013_Node000006" class="edge">
<title>Node13&#45;&gt;Node6</title>
<g id="a_edge15_Node000013_Node000006"><a xlink:title=" ">
<path fill="none" stroke="#63b8ff" d="M547.79,-409.88C553.18,-412.36 558.65,-415.21 563.5,-418.38 588.59,-434.77 613.25,-459.04 628.86,-475.72"/>
<polygon fill="#63b8ff" stroke="#63b8ff" points="626.19,-477.99 635.53,-482.99 631.35,-473.26 626.19,-477.99"/>
</a>
</g>
</g>
<!-- Node14&#45;&gt;Node2 -->
<g id="edge17_Node000014_Node000002" class="edge">
<title>Node14&#45;&gt;Node2</title>
<g id="a_edge17_Node000014_Node000002"><a xlink:title=" ">
<path fill="none" stroke="#63b8ff" d="M542.81,-523.84C562.22,-532.64 590.23,-545.33 612.1,-555.24"/>
<polygon fill="#63b8ff" stroke="#63b8ff" points="610.65,-558.43 621.2,-559.37 613.54,-552.05 610.65,-558.43"/>
</a>
</g>
</g>
<!-- Node14&#45;&gt;Node6 -->
<g id="edge18_Node000014_Node000006" class="edge">
<title>Node14&#45;&gt;Node6</title>
<g id="a_edge18_Node000014_Node000006"><a xlink:title=" ">
<path fill="none" stroke="#63b8ff" d="M562.67,-506.9C570.89,-505.66 579.61,-504.34 588.19,-503.04"/>
<polygon fill="#63b8ff" stroke="#63b8ff" points="588.47,-506.54 597.83,-501.59 587.42,-499.62 588.47,-506.54"/>
</a>
</g>
</g>
<!-- Node17&#45;&gt;Node2 -->
<g id="edge24_Node000017_Node000002" class="edge">
<title>Node17&#45;&gt;Node2</title>
<g id="a_edge24_Node000017_Node000002"><a xlink:title=" ">
<path fill="none" stroke="#63b8ff" d="M256.84,-570.38C335.73,-570.38 513.67,-570.38 598.63,-570.38"/>
<polygon fill="#63b8ff" stroke="#63b8ff" points="598.47,-573.88 608.47,-570.38 598.47,-566.88 598.47,-573.88"/>
</a>
</g>
</g>
<!-- Node17&#45;&gt;Node4 -->
<g id="edge25_Node000017_Node000004" class="edge">
<title>Node17&#45;&gt;Node4</title>
<g id="a_edge25_Node000017_Node000004"><a xlink:title=" ">
<path fill="none" stroke="#63b8ff" d="M225.48,-560.07C242.45,-538.09 285.21,-486.2 332,-456.38 334.41,-454.85 336.96,-453.41 339.59,-452.07"/>
<polygon fill="#63b8ff" stroke="#63b8ff" points="340.92,-455.32 348.6,-448.01 338.04,-448.93 340.92,-455.32"/>
</a>
</g>
</g>
<!-- Node17&#45;&gt;Node7 -->
<g id="edge23_Node000017_Node000007" class="edge">
<title>Node17&#45;&gt;Node7</title>
<g id="a_edge23_Node000017_Node000007"><a xlink:title=" ">
<path fill="none" stroke="#63b8ff" d="M219.58,-580.86C226.51,-616.78 254.7,-735.33 332,-781.38 474.62,-866.34 679.85,-731.61 746.76,-682.31"/>
<polygon fill="#63b8ff" stroke="#63b8ff" points="748.48,-685.4 754.39,-676.6 744.29,-679.79 748.48,-685.4"/>
</a>
</g>
</g>
<!-- Node17&#45;&gt;Node10 -->
<g id="edge28_Node000017_Node000010" class="edge">
<title>Node17&#45;&gt;Node10</title>
<g id="a_edge28_Node000017_Node000010"><a xlink:title=" ">
<path fill="none" stroke="#63b8ff" d="M223.87,-580.57C238.8,-604.28 279.7,-662.75 332,-684.38 380.39,-704.4 441.68,-691.59 480.32,-679.41"/>
<polygon fill="#63b8ff" stroke="#63b8ff" points="481.23,-682.79 489.63,-676.33 479.03,-676.15 481.23,-682.79"/>
</a>
</g>
</g>
<!-- Node17&#45;&gt;Node11 -->
<g id="edge29_Node000017_Node000011" class="edge">
<title>Node17&#45;&gt;Node11</title>
<g id="a_edge29_Node000017_Node000011"><a xlink:title=" ">
<path fill="none" stroke="#63b8ff" d="M220.18,-580.77C228.64,-614.31 260.3,-719.84 332,-760.38 379.61,-787.31 445.16,-770.49 484.31,-755.89"/>
<polygon fill="#63b8ff" stroke="#63b8ff" points="485.41,-759.22 493.45,-752.32 482.86,-752.7 485.41,-759.22"/>
</a>
</g>
</g>
<!-- Node17&#45;&gt;Node12 -->
<g id="edge32_Node000017_Node000012" class="edge">
<title>Node17&#45;&gt;Node12</title>
<g id="a_edge32_Node000017_Node000012"><a xlink:title=" ">
<path fill="none" stroke="#63b8ff" d="M221.42,-560.11C232.86,-529.56 270.77,-438.35 332,-389.38 370.15,-358.87 423.51,-341.87 463.25,-332.79"/>
<polygon fill="#63b8ff" stroke="#63b8ff" points="463.83,-336.25 472.86,-330.71 462.34,-329.41 463.83,-336.25"/>
</a>
</g>
</g>
<!-- Node17&#45;&gt;Node13 -->
<g id="edge33_Node000017_Node000013" class="edge">
<title>Node17&#45;&gt;Node13</title>
<g id="a_edge33_Node000017_Node000013"><a xlink:title=" ">
<path fill="none" stroke="#63b8ff" d="M221.99,-559.92C234.16,-531.39 272.21,-452.15 332,-418.38 372.12,-395.73 424.95,-392.37 464.01,-393.87"/>
<polygon fill="#63b8ff" stroke="#63b8ff" points="463.72,-397.36 473.89,-394.38 464.08,-390.37 463.72,-397.36"/>
</a>
</g>
</g>
<!-- Node17&#45;&gt;Node17 -->
<g id="edge31_Node000017_Node000017" class="edge">
<title>Node17&#45;&gt;Node17</title>
<g id="a_edge31_Node000017_Node000017"><a xlink:title=" ">
<path fill="none" stroke="#63b8ff" d="M190.37,-580.72C179.1,-589.36 187.89,-598.38 216.75,-598.38 232.53,-598.38 242.31,-595.69 246.09,-591.83"/>
<polygon fill="#63b8ff" stroke="#63b8ff" points="249.48,-590.94 243.52,-582.19 242.71,-592.75 249.48,-590.94"/>
</a>
</g>
</g>
<!-- Node18 -->
<g id="Node000018" class="node">
<title>Node18</title>
<g id="a_Node000018"><a xlink:href="namespaceshared.html#ad05481a6e28afc976d57ddcba12e8a4d" target="_top" xlink:title="A Blocking Parser that returns the first count of the output.">
<polygon fill="white" stroke="#666666" points="421.12,-675.38 348.88,-675.38 348.88,-655.38 421.12,-655.38 421.12,-675.38"/>
<text text-anchor="middle" x="385" y="-661.88" font-family="Helvetica,sans-Serif" font-size="10.00">shared::head</text>
</a>
</g>
</g>
<!-- Node17&#45;&gt;Node18 -->
<g id="edge26_Node000017_Node000018" class="edge">
<title>Node17&#45;&gt;Node18</title>
<g id="a_edge26_Node000017_Node000018"><a xlink:title=" ">
<path fill="none" stroke="#63b8ff" d="M231.17,-580.85C251.89,-596.65 293.32,-626.8 332,-646.38 334.89,-647.85 337.93,-649.26 341.02,-650.6"/>
<polygon fill="#63b8ff" stroke="#63b8ff" points="339.61,-653.81 350.19,-654.32 342.24,-647.32 339.61,-653.81"/>
</a>
</g>
</g>
<!-- Node19 -->
<g id="Node000019" class="node">
<title>Node19</title>
<g id="a_Node000019"><a xlink:href="namespaceshared.html#a565b1c521d1f0509c5ec0f237a727f8e" target="_top" xlink:title="Compose a return value from an accumulator function.">
<polygon fill="white" stroke="#666666" points="417,-637.38 353,-637.38 353,-617.38 417,-617.38 417,-637.38"/>
<text text-anchor="middle" x="385" y="-623.88" font-family="Helvetica,sans-Serif" font-size="10.00">shared::init</text>
</a>
</g>
</g>
<!-- Node17&#45;&gt;Node19 -->
<g id="edge27_Node000017_Node000019" class="edge">
<title>Node17&#45;&gt;Node19</title>
<g id="a_edge27_Node000017_Node000019"><a xlink:title=" ">
<path fill="none" stroke="#63b8ff" d="M248.24,-580.84C274.76,-589.93 313.41,-603.18 342.7,-613.22"/>
<polygon fill="#63b8ff" stroke="#63b8ff" points="341.39,-616.48 351.99,-616.41 343.66,-609.85 341.39,-616.48"/>
</a>
</g>
</g>
<!-- Node20 -->
<g id="Node000020" class="node">
<title>Node20</title>
<g id="a_Node000020"><a xlink:href="namespaceshared.html#a4ddc24b4d99e824f9b941fa905fb0a81" target="_top" xlink:title="A Blocking Parser that returns the first line of output.">
<polygon fill="white" stroke="#666666" points="428.62,-561.38 341.38,-561.38 341.38,-541.38 428.62,-541.38 428.62,-561.38"/>
<text text-anchor="middle" x="385" y="-547.88" font-family="Helvetica,sans-Serif" font-size="10.00">shared::one_line</text>
</a>
</g>
</g>
<!-- Node17&#45;&gt;Node20 -->
<g id="edge30_Node000017_Node000020" class="edge">
<title>Node17&#45;&gt;Node20</title>
<g id="a_edge30_Node000017_Node000020"><a xlink:title=" ">
<path fill="none" stroke="#63b8ff" d="M256.73,-565.93C278.42,-563.45 305.76,-560.33 329.54,-557.61"/>
<polygon fill="#63b8ff" stroke="#63b8ff" points="329.84,-561.1 339.38,-556.48 329.05,-554.14 329.84,-561.1"/>
</a>
</g>
</g>
<!-- Node21 -->
<g id="Node000021" class="node">
<title>Node21</title>
<g id="a_Node000021"><a xlink:href="namespaceshared.html#a48db957c3256c3eb24bc748642cd1bb9" target="_top" xlink:title="Batch multiple iterations of an accumulator function together.">
<polygon fill="white" stroke="#666666" points="438,-523.38 332,-523.38 332,-503.38 438,-503.38 438,-523.38"/>
<text text-anchor="middle" x="385" y="-509.88" font-family="Helvetica,sans-Serif" font-size="10.00">shared::single_batch</text>
</a>
</g>
</g>
<!-- Node17&#45;&gt;Node21 -->
<g id="edge34_Node000017_Node000021" class="edge">
<title>Node17&#45;&gt;Node21</title>
<g id="a_edge34_Node000017_Node000021"><a xlink:title=" ">
<path fill="none" stroke="#63b8ff" d="M248.24,-559.93C274.76,-550.84 313.41,-537.59 342.7,-527.54"/>
<polygon fill="#63b8ff" stroke="#63b8ff" points="343.66,-530.91 351.99,-524.36 341.39,-524.29 343.66,-530.91"/>
</a>
</g>
</g>
<!-- Node22 -->
<g id="Node000022" class="node">
<title>Node22</title>
<g id="a_Node000022"><a xlink:href="namespaceshared.html#ae0ec3e8d4de79340eda47eabfd075feb" target="_top" xlink:title="Strip all instance of character from a string.">
<polygon fill="white" stroke="#666666" points="420,-485.38 350,-485.38 350,-465.38 420,-465.38 420,-485.38"/>
<text text-anchor="middle" x="385" y="-471.88" font-family="Helvetica,sans-Serif" font-size="10.00">shared::strip</text>
</a>
</g>
</g>
<!-- Node17&#45;&gt;Node22 -->
<g id="edge35_Node000017_Node000022" class="edge">
<title>Node17&#45;&gt;Node22</title>
<g id="a_edge35_Node000017_Node000022"><a xlink:title=" ">
<path fill="none" stroke="#63b8ff" d="M231.17,-559.91C251.89,-544.12 293.32,-513.97 332,-494.38 334.89,-492.92 337.93,-491.51 341.02,-490.17"/>
<polygon fill="#63b8ff" stroke="#63b8ff" points="342.24,-493.45 350.19,-486.45 339.61,-486.96 342.24,-493.45"/>
</a>
</g>
</g>
<!-- Node23 -->
<g id="Node000023" class="node">
<title>Node23</title>
<g id="a_Node000023"><a xlink:href="namespaceshared.html#a77e45bc6735a35fbc38891b166e40a7b" target="_top" xlink:title="Trim characters from the front and end of a string.">
<polygon fill="white" stroke="#666666" points="418.88,-751.38 351.12,-751.38 351.12,-731.38 418.88,-731.38 418.88,-751.38"/>
<text text-anchor="middle" x="385" y="-737.88" font-family="Helvetica,sans-Serif" font-size="10.00">shared::trim</text>
</a>
</g>
</g>
<!-- Node17&#45;&gt;Node23 -->
<g id="edge36_Node000017_Node000023" class="edge">
<title>Node17&#45;&gt;Node23</title>
<g id="a_edge36_Node000017_Node000023"><a xlink:title=" ">
<path fill="none" stroke="#63b8ff" d="M223.37,-580.66C238.06,-606.7 280.11,-676.17 332,-717.38 335.96,-720.53 340.4,-723.37 344.97,-725.91"/>
<polygon fill="#63b8ff" stroke="#63b8ff" points="343.2,-728.94 353.71,-730.29 346.34,-722.68 343.2,-728.94"/>
</a>
</g>
</g>
<!-- Node26&#45;&gt;Node3 -->
<g id="edge42_Node000026_Node000003" class="edge">
<title>Node26&#45;&gt;Node3</title>
<g id="a_edge42_Node000026_Node000003"><a xlink:title=" ">
<path fill="none" stroke="#63b8ff" d="M554.44,-112.87C568.6,-117.15 585.16,-122.15 600.25,-126.71"/>
<polygon fill="#63b8ff" stroke="#63b8ff" points="598.88,-129.95 609.47,-129.5 600.91,-123.25 598.88,-129.95"/>
</a>
</g>
</g>
<!-- Node27&#45;&gt;Node3 -->
<g id="edge44_Node000027_Node000003" class="edge">
<title>Node27&#45;&gt;Node3</title>
<g id="a_edge44_Node000027_Node000003"><a xlink:title=" ">
<path fill="none" stroke="#63b8ff" d="M261.92,-191.5C341.83,-180.85 509.98,-158.44 594.59,-147.17"/>
<polygon fill="#63b8ff" stroke="#63b8ff" points="595,-150.64 604.45,-145.85 594.08,-143.71 595,-150.64"/>
</a>
</g>
</g>
</g>
</svg>
