<?xml version="1.0" encoding="UTF-8" standalone="no"?>
<!DOCTYPE svg PUBLIC "-//W3C//DTD SVG 1.1//EN"
 "http://www.w3.org/Graphics/SVG/1.1/DTD/svg11.dtd">
<!-- Generated by graphviz version 12.2.1 (0)
 -->
<!-- Title: shared::wildcard Pages: 1 -->
<svg width="461pt" height="104pt"
 viewBox="0.00 0.00 460.50 104.00" xmlns="http://www.w3.org/2000/svg" xmlns:xlink="http://www.w3.org/1999/xlink">
<g id="graph0" class="graph" transform="scale(1 1) rotate(0) translate(4 100)">
<title>shared::wildcard</title>
<!-- Node1 -->
<g id="Node000001" class="node">
<title>Node1</title>
<g id="a_Node000001"><a xlink:title="Resolve wildcard patterns.">
<polygon fill="#999999" stroke="#666666" points="87.25,-77 0,-77 0,-57 87.25,-57 87.25,-77"/>
<text text-anchor="middle" x="43.62" y="-63.5" font-family="Helvetica,sans-Serif" font-size="10.00">shared::wildcard</text>
</a>
</g>
</g>
<!-- Node2 -->
<g id="Node000002" class="node">
<title>Node2</title>
<g id="a_Node000002"><a xlink:href="namespaceshared.html#aa381bd3e7caf6ab85ad8d8518fd4adf2" target="_top" xlink:title="Execute stuff.">
<polygon fill="white" stroke="#666666" points="206.38,-96 134.12,-96 134.12,-76 206.38,-76 206.38,-96"/>
<text text-anchor="middle" x="170.25" y="-82.5" font-family="Helvetica,sans-Serif" font-size="10.00">shared::exec</text>
</a>
</g>
</g>
<!-- Node1&#45;&gt;Node2 -->
<g id="edge1_Node000001_Node000002" class="edge">
<title>Node1&#45;&gt;Node2</title>
<g id="a_edge1_Node000001_Node000002"><a xlink:title=" ">
<path fill="none" stroke="#63b8ff" d="M87.51,-73.54C98.81,-75.26 111.06,-77.13 122.55,-78.88"/>
<polygon fill="#63b8ff" stroke="#63b8ff" points="121.82,-82.31 132.23,-80.36 122.87,-75.39 121.82,-82.31"/>
</a>
</g>
</g>
<!-- Node3 -->
<g id="Node000003" class="node">
<title>Node3</title>
<g id="a_Node000003"><a xlink:href="namespaceshared.html#a9ed709af90ab0108e5c3a8afdd3e7042" target="_top" xlink:title="Split the contents of an FD.">
<polygon fill="white" stroke="#666666" points="217.25,-58 123.25,-58 123.25,-38 217.25,-38 217.25,-58"/>
<text text-anchor="middle" x="170.25" y="-44.5" font-family="Helvetica,sans-Serif" font-size="10.00">shared::fd_splitter</text>
</a>
</g>
</g>
<!-- Node1&#45;&gt;Node3 -->
<g id="edge2_Node000001_Node000003" class="edge">
<title>Node1&#45;&gt;Node3</title>
<g id="a_edge2_Node000001_Node000003"><a xlink:title=" ">
<path fill="none" stroke="#63b8ff" d="M87.51,-60.46C95.27,-59.28 103.47,-58.03 111.56,-56.8"/>
<polygon fill="#63b8ff" stroke="#63b8ff" points="112.02,-60.27 121.38,-55.3 110.97,-53.35 112.02,-60.27"/>
</a>
</g>
</g>
<!-- Node4 -->
<g id="Node000004" class="node">
<title>Node4</title>
<g id="a_Node000004"><a xlink:href="namespaceshared.html#a80f3b59804700742a5a0c6ea15bf24f9" target="_top" xlink:title="A Blocking Parser that returns the output in a single string.">
<polygon fill="white" stroke="#666666" points="331.12,-96 255.88,-96 255.88,-76 331.12,-76 331.12,-96"/>
<text text-anchor="middle" x="293.5" y="-82.5" font-family="Helvetica,sans-Serif" font-size="10.00">shared::dump</text>
</a>
</g>
</g>
<!-- Node3&#45;&gt;Node4 -->
<g id="edge3_Node000003_Node000004" class="edge">
<title>Node3&#45;&gt;Node4</title>
<g id="a_edge3_Node000003_Node000004"><a xlink:title=" ">
<path fill="none" stroke="#63b8ff" d="M204.7,-58.48C218.22,-62.72 234.01,-67.67 248.44,-72.19"/>
<polygon fill="#63b8ff" stroke="#63b8ff" points="247.12,-75.45 257.71,-75.1 249.22,-68.77 247.12,-75.45"/>
</a>
</g>
</g>
<!-- Node5 -->
<g id="Node000005" class="node">
<title>Node5</title>
<g id="a_Node000005"><a xlink:href="namespaceshared.html#a6282d0d8d2ab3f70038d7428729c15ca" target="_top" xlink:title="Escape a string.">
<polygon fill="white" stroke="#666666" points="452.5,-39 369.75,-39 369.75,-19 452.5,-19 452.5,-39"/>
<text text-anchor="middle" x="411.12" y="-25.5" font-family="Helvetica,sans-Serif" font-size="10.00">shared::escape</text>
</a>
</g>
</g>
<!-- Node3&#45;&gt;Node5 -->
<g id="edge4_Node000003_Node000005" class="edge">
<title>Node3&#45;&gt;Node5</title>
<g id="a_edge4_Node000003_Node000005"><a xlink:title=" ">
<path fill="none" stroke="#63b8ff" d="M217.59,-44.31C257.9,-41.11 316.25,-36.47 358.13,-33.14"/>
<polygon fill="#63b8ff" stroke="#63b8ff" points="358.28,-36.63 367.97,-32.35 357.73,-29.66 358.28,-36.63"/>
</a>
</g>
</g>
<!-- Node6 -->
<g id="Node000006" class="node">
<title>Node6</title>
<g id="a_Node000006"><a xlink:href="namespaceshared.html#a690cc836408825d804377522d9d99a07" target="_top" xlink:title="Split a string.">
<polygon fill="white" stroke="#666666" points="333.75,-20 253.25,-20 253.25,0 333.75,0 333.75,-20"/>
<text text-anchor="middle" x="293.5" y="-6.5" font-family="Helvetica,sans-Serif" font-size="10.00">shared::splitter</text>
</a>
</g>
</g>
<!-- Node3&#45;&gt;Node6 -->
<g id="edge5_Node000003_Node000006" class="edge">
<title>Node3&#45;&gt;Node6</title>
<g id="a_edge5_Node000003_Node000006"><a xlink:title=" ">
<path fill="none" stroke="#63b8ff" d="M204.7,-37.52C218.22,-33.28 234.01,-28.33 248.44,-23.81"/>
<polygon fill="#63b8ff" stroke="#63b8ff" points="249.22,-27.23 257.71,-20.9 247.12,-20.55 249.22,-27.23"/>
</a>
</g>
</g>
<!-- Node6&#45;&gt;Node5 -->
<g id="edge6_Node000006_Node000005" class="edge">
<title>Node6&#45;&gt;Node5</title>
<g id="a_edge6_Node000006_Node000005"><a xlink:title=" ">
<path fill="none" stroke="#63b8ff" d="M333.97,-16.49C341.71,-17.76 349.93,-19.11 358.01,-20.44"/>
<polygon fill="#63b8ff" stroke="#63b8ff" points="357.33,-23.87 367.77,-22.04 358.47,-16.96 357.33,-23.87"/>
</a>
</g>
</g>
</g>
</svg>
