<?xml version="1.0" encoding="UTF-8" standalone="no"?>
<!DOCTYPE svg PUBLIC "-//W3C//DTD SVG 1.1//EN"
 "http://www.w3.org/Graphics/SVG/1.1/DTD/svg11.dtd">
<!-- Generated by graphviz version 12.2.1 (0)
 -->
<!-- Title: shared::join Pages: 1 -->
<!--zoomable 210 -->

<svg id="main" version="1.1" xmlns="http://www.w3.org/2000/svg" xmlns:xlink="http://www.w3.org/1999/xlink" xml:space="preserve" onload="init(evt)">

<style type="text/css"><![CDATA[
.node, .edge {opacity: 0.7;}
.node.selected, .edge.selected {opacity: 1;}
.edge:hover path { stroke: red; }
.edge:hover polygon { stroke: red; fill: red; }
]]></style>

<defs>
  <circle id="rim" cx="0" cy="0" r="7"/>
  <circle id="rim2" cx="0" cy="0" r="3.5"/>
  <g id="zoomPlus">
    <use xlink:href="#rim" fill="#404040"><set attributeName="fill" to="#808080" begin="zoomplus.mouseover" end="zoomplus.mouseout"/></use>
    <path d="M-4,0h8M0,-4v8" fill="none" stroke="white" stroke-width="1.5" pointer-events="none"/>
  </g>
  <g id="zoomMin">
    <use xlink:href="#rim" fill="#404040"><set attributeName="fill" to="#808080" begin="zoomminus.mouseover" end="zoomminus.mouseout"/></use>
    <path d="M-4,0h8" fill="none" stroke="white" stroke-width="1.5" pointer-events="none"/>
  </g>
  <g id="arrowUp" transform="translate(30 24)">
    <use xlink:href="#rim"/>
    <path pointer-events="none" fill="none" stroke="white" stroke-width="1.5" d="M0,-3.0v7 M-2.5,-0.5L0,-3.0L2.5,-0.5"/>
  </g>
  <g id="arrowRight" transform="rotate(90) translate(36 -43)">
    <use xlink:href="#rim"/>
    <path pointer-events="none" fill="none" stroke="white" stroke-width="1.5" d="M0,-3.0v7 M-2.5,-0.5L0,-3.0L2.5,-0.5"/>
  </g>
  <g id="arrowDown" transform="rotate(180) translate(-30 -48)">
    <use xlink:href="#rim"/>
    <path pointer-events="none" fill="none" stroke="white" stroke-width="1.5" d="M0,-3.0v7 M-2.5,-0.5L0,-3.0L2.5,-0.5"/>
  </g>
  <g id="arrowLeft" transform="rotate(270) translate(-36 17)">
    <use xlink:href="#rim"/>
    <path pointer-events="none" fill="none" stroke="white" stroke-width="1.5" d="M0,-3.0v7 M-2.5,-0.5L0,-3.0L2.5,-0.5"/>
  </g>
  <g id="resetDef">
    <use xlink:href="#rim2" fill="#404040"><set attributeName="fill" to="#808080" begin="reset.mouseover" end="reset.mouseout"/></use>
  </g>
</defs>
<script type="application/ecmascript">
var viewWidth = 657;
var viewHeight = 210;
var sectionId = 'dynsection-6';
</script>
<script type="application/ecmascript" xlink:href="svg.min.js"/>
<svg id="graph" class="graph">
<g id="viewport">
<title>shared::join</title>
<!-- Node1 -->
<g id="Node000001" class="node">
<title>Node1</title>
<g id="a_Node000001"><a xlink:title="Join a vector into a string.">
<polygon fill="#999999" stroke="#666666" points="649.25,-115 583,-115 583,-95 649.25,-95 649.25,-115"/>
<text text-anchor="middle" x="616.12" y="-101.5" font-family="Helvetica,sans-Serif" font-size="10.00">shared::join</text>
</a>
</g>
</g>
<!-- Node2 -->
<g id="Node000002" class="node">
<title>Node2</title>
<g id="a_Node000002"><a xlink:href="namespacegenerate.html#aca905bc877bc18f8cb6a2cb1eaec6988" target="_top" xlink:title="Generate a desktop file for the sandbox.">
<polygon fill="white" stroke="#666666" points="393,-200 272,-200 272,-180 393,-180 393,-200"/>
<text text-anchor="middle" x="332.5" y="-186.5" font-family="Helvetica,sans-Serif" font-size="10.00">generate::desktop_entry</text>
</a>
</g>
</g>
<!-- Node1&#45;&gt;Node2 -->
<g id="edge1_Node000001_Node000002" class="edge">
<title>Node1&#45;&gt;Node2</title>
<g id="a_edge1_Node000001_Node000002"><a xlink:title=" ">
<path fill="none" stroke="#63b8ff" d="M603.76,-124.92C592.12,-143.18 572.18,-169.11 547,-181 498.86,-203.73 437.6,-203.8 393.06,-199.48"/>
<polygon fill="#63b8ff" stroke="#63b8ff" points="606.66,-126.89 608.85,-116.52 600.68,-123.26 606.66,-126.89"/>
</a>
</g>
</g>
<!-- Node3 -->
<g id="Node000003" class="node">
<title>Node3</title>
<g id="a_Node000003"><a xlink:href="namespacelibraries.html#a4dfd6ab45adf8dc18ea57bc1f88eaedf" target="_top" xlink:title="Recursively resolve all shared&#45;libraries needed by a library.">
<polygon fill="white" stroke="#666666" points="522.62,-96 453.38,-96 453.38,-76 522.62,-76 522.62,-96"/>
<text text-anchor="middle" x="488" y="-82.5" font-family="Helvetica,sans-Serif" font-size="10.00">libraries::get</text>
</a>
</g>
</g>
<!-- Node1&#45;&gt;Node3 -->
<g id="edge2_Node000001_Node000003" class="edge">
<title>Node1&#45;&gt;Node3</title>
<g id="a_edge2_Node000001_Node000003"><a xlink:title=" ">
<path fill="none" stroke="#63b8ff" d="M571.41,-98.41C555.45,-96.01 537.65,-93.33 522.69,-91.08"/>
<polygon fill="#63b8ff" stroke="#63b8ff" points="570.74,-101.85 581.15,-99.88 571.78,-94.93 570.74,-101.85"/>
</a>
</g>
</g>
<!-- Node5 -->
<g id="Node000005" class="node">
<title>Node5</title>
<g id="a_Node000005"><a xlink:href="namespacebinaries.html#ac1478c81b2eb2c4ecdba98e92c4e7651" target="_top" xlink:title="Parse a binary to determine dependencies.">
<polygon fill="white" stroke="#666666" points="372.38,-134 292.62,-134 292.62,-114 372.38,-114 372.38,-134"/>
<text text-anchor="middle" x="332.5" y="-120.5" font-family="Helvetica,sans-Serif" font-size="10.00">binaries::parse</text>
</a>
</g>
</g>
<!-- Node1&#45;&gt;Node5 -->
<g id="edge10_Node000001_Node000005" class="edge">
<title>Node1&#45;&gt;Node5</title>
<g id="a_edge10_Node000001_Node000005"><a xlink:title=" ">
<path fill="none" stroke="#63b8ff" d="M571.19,-107.96C516.7,-111.64 424.65,-117.85 372.53,-121.37"/>
<polygon fill="#63b8ff" stroke="#63b8ff" points="571.29,-111.47 581.03,-107.3 570.82,-104.48 571.29,-111.47"/>
</a>
</g>
</g>
<!-- Node8 -->
<g id="Node000008" class="node">
<title>Node8</title>
<g id="a_Node000008"><a xlink:href="namespacearg.html#a9da86862acc776f92533ebac921afc40" target="_top" xlink:title="Parse command line arguments.">
<polygon fill="white" stroke="#666666" points="529.75,-58 446.25,-58 446.25,-38 529.75,-38 529.75,-58"/>
<text text-anchor="middle" x="488" y="-44.5" font-family="Helvetica,sans-Serif" font-size="10.00">arg::parse_args</text>
</a>
</g>
</g>
<!-- Node1&#45;&gt;Node8 -->
<g id="edge11_Node000001_Node000008" class="edge">
<title>Node1&#45;&gt;Node8</title>
<g id="a_edge11_Node000001_Node000008"><a xlink:title=" ">
<path fill="none" stroke="#63b8ff" d="M588.82,-88.77C576.42,-81.53 561.25,-73.24 547,-67 539.91,-63.9 532.15,-61.02 524.68,-58.49"/>
<polygon fill="#63b8ff" stroke="#63b8ff" points="586.83,-91.65 597.21,-93.77 590.41,-85.64 586.83,-91.65"/>
</a>
</g>
</g>
<!-- Node9 -->
<g id="Node000009" class="node">
<title>Node9</title>
<g id="a_Node000009"><a xlink:href="namespacegenerate.html#a67b94cdd53f264ff45e467ce97cd44d4" target="_top" xlink:title="Generate a script for the sandbox.">
<polygon fill="white" stroke="#666666" points="529.75,-172 446.25,-172 446.25,-152 529.75,-152 529.75,-172"/>
<text text-anchor="middle" x="488" y="-158.5" font-family="Helvetica,sans-Serif" font-size="10.00">generate::script</text>
</a>
</g>
</g>
<!-- Node1&#45;&gt;Node9 -->
<g id="edge12_Node000001_Node000009" class="edge">
<title>Node1&#45;&gt;Node9</title>
<g id="a_edge12_Node000001_Node000009"><a xlink:title=" ">
<path fill="none" stroke="#63b8ff" d="M584.31,-120.4C572.68,-126.09 559.3,-132.48 547,-138 536.66,-142.64 525.15,-147.47 515.12,-151.57"/>
<polygon fill="#63b8ff" stroke="#63b8ff" points="585.62,-123.66 593.05,-116.1 582.53,-117.38 585.62,-123.66"/>
</a>
</g>
</g>
<!-- Node10 -->
<g id="Node000010" class="node">
<title>Node10</title>
<g id="a_Node000010"><a xlink:href="namespacesyscalls.html#a501461c3842033cfab85ba4b8f328ed8" target="_top" xlink:title="Append an existing policy with newly discovered syscalls.">
<polygon fill="white" stroke="#666666" points="547,-20 429,-20 429,0 547,0 547,-20"/>
<text text-anchor="middle" x="488" y="-6.5" font-family="Helvetica,sans-Serif" font-size="10.00">syscalls::update_policy</text>
</a>
</g>
</g>
<!-- Node1&#45;&gt;Node10 -->
<g id="edge14_Node000001_Node000010" class="edge">
<title>Node1&#45;&gt;Node10</title>
<g id="a_edge14_Node000001_Node000010"><a xlink:title=" ">
<path fill="none" stroke="#63b8ff" d="M602.14,-85.46C589.81,-68.33 569.82,-43.9 547,-29 541.85,-25.64 536.06,-22.83 530.18,-20.49"/>
<polygon fill="#63b8ff" stroke="#63b8ff" points="599.03,-87.12 607.61,-93.33 604.77,-83.12 599.03,-87.12"/>
</a>
</g>
</g>
<!-- Node4 -->
<g id="Node000004" class="node">
<title>Node4</title>
<g id="a_Node000004"><a xlink:href="namespacegenerate.html#a38dcdfdf9293b8aafe77392021d65019" target="_top" xlink:title="Generate the bulk of the main program command.">
<polygon fill="white" stroke="#666666" points="225.88,-115 147.62,-115 147.62,-95 225.88,-95 225.88,-115"/>
<text text-anchor="middle" x="186.75" y="-101.5" font-family="Helvetica,sans-Serif" font-size="10.00">generate::cmd</text>
</a>
</g>
</g>
<!-- Node3&#45;&gt;Node4 -->
<g id="edge3_Node000003_Node000004" class="edge">
<title>Node3&#45;&gt;Node4</title>
<g id="a_edge3_Node000003_Node000004"><a xlink:title=" ">
<path fill="none" stroke="#63b8ff" d="M441.8,-88.87C382.96,-92.61 281.17,-99.07 225.99,-102.57"/>
<polygon fill="#63b8ff" stroke="#63b8ff" points="441.69,-92.38 451.45,-88.26 441.25,-85.4 441.69,-92.38"/>
</a>
</g>
</g>
<!-- Node3&#45;&gt;Node5 -->
<g id="edge4_Node000003_Node000005" class="edge">
<title>Node3&#45;&gt;Node5</title>
<g id="a_edge4_Node000003_Node000005"><a xlink:title=" ">
<path fill="none" stroke="#63b8ff" d="M441.87,-97.17C419.9,-102.61 393.73,-109.09 372.62,-114.32"/>
<polygon fill="#63b8ff" stroke="#63b8ff" points="442.6,-100.6 451.46,-94.8 440.92,-93.8 442.6,-100.6"/>
</a>
</g>
</g>
<!-- Node6 -->
<g id="Node000006" class="node">
<title>Node6</title>
<g id="a_Node000006"><a xlink:href="namespacegenerate.html#a17cf0da8addab269d21c2c8074d85c4e" target="_top" xlink:title="Setup the Proxy&#39;s SOF.">
<polygon fill="white" stroke="#666666" points="236,-77 137.5,-77 137.5,-57 236,-57 236,-77"/>
<text text-anchor="middle" x="186.75" y="-63.5" font-family="Helvetica,sans-Serif" font-size="10.00">generate::proxy_lib</text>
</a>
</g>
</g>
<!-- Node3&#45;&gt;Node6 -->
<g id="edge9_Node000003_Node000006" class="edge">
<title>Node3&#45;&gt;Node6</title>
<g id="a_edge9_Node000003_Node000006"><a xlink:title=" ">
<path fill="none" stroke="#63b8ff" d="M441.76,-83.13C386.43,-79.61 293.14,-73.69 236.33,-70.08"/>
<polygon fill="#63b8ff" stroke="#63b8ff" points="441.25,-86.6 451.45,-83.74 441.69,-79.62 441.25,-86.6"/>
</a>
</g>
</g>
<!-- Node5&#45;&gt;Node4 -->
<g id="edge5_Node000005_Node000004" class="edge">
<title>Node5&#45;&gt;Node4</title>
<g id="a_edge5_Node000005_Node000004"><a xlink:title=" ">
<path fill="none" stroke="#63b8ff" d="M280.98,-117.32C262.91,-114.93 242.85,-112.28 225.99,-110.05"/>
<polygon fill="#63b8ff" stroke="#63b8ff" points="280.35,-120.77 290.72,-118.61 281.26,-113.83 280.35,-120.77"/>
</a>
</g>
</g>
<!-- Node5&#45;&gt;Node5 -->
<g id="edge6_Node000005_Node000005" class="edge">
<title>Node5&#45;&gt;Node5</title>
<g id="a_edge6_Node000005_Node000005"><a xlink:title=" ">
<path fill="none" stroke="#63b8ff" d="M358.26,-145.44C354.94,-149.3 346.36,-152 332.5,-152 307.16,-152 299.45,-142.98 309.34,-134.34"/>
<polygon fill="#63b8ff" stroke="#63b8ff" points="361.69,-144.75 356,-135.81 354.88,-146.35 361.69,-144.75"/>
</a>
</g>
</g>
<!-- Node5&#45;&gt;Node6 -->
<g id="edge7_Node000005_Node000006" class="edge">
<title>Node5&#45;&gt;Node6</title>
<g id="a_edge7_Node000005_Node000006"><a xlink:title=" ">
<path fill="none" stroke="#63b8ff" d="M295.05,-109.46C277.25,-102.37 255.51,-93.72 236,-86 228.97,-83.22 221.36,-80.21 214.3,-77.44"/>
<polygon fill="#63b8ff" stroke="#63b8ff" points="293.58,-112.64 304.16,-113.09 296.17,-106.14 293.58,-112.64"/>
</a>
</g>
</g>
<!-- Node7 -->
<g id="Node000007" class="node">
<title>Node7</title>
<g id="a_Node000007"><a xlink:href="namespacegenerate.html#a5c0026523dd30f942c55ad25f1b607b4" target="_top" xlink:title="Spawn an instance of the xdg&#45;dbus&#45;proxy for the application instance.">
<polygon fill="white" stroke="#666666" points="101.5,-83 0,-83 0,-51 101.5,-51 101.5,-83"/>
<text text-anchor="start" x="8" y="-69.5" font-family="Helvetica,sans-Serif" font-size="10.00">generate::xdg_dbus</text>
<text text-anchor="middle" x="50.75" y="-57.5" font-family="Helvetica,sans-Serif" font-size="10.00">_proxy</text>
</a>
</g>
</g>
<!-- Node6&#45;&gt;Node7 -->
<g id="edge8_Node000006_Node000007" class="edge">
<title>Node6&#45;&gt;Node7</title>
<g id="a_edge8_Node000006_Node000007"><a xlink:title=" ">
<path fill="none" stroke="#63b8ff" d="M126.08,-67C117.99,-67 109.76,-67 101.86,-67"/>
<polygon fill="#63b8ff" stroke="#63b8ff" points="125.86,-70.5 135.86,-67 125.86,-63.5 125.86,-70.5"/>
</a>
</g>
</g>
<!-- Node9&#45;&gt;Node2 -->
<g id="edge13_Node000009_Node000002" class="edge">
<title>Node9&#45;&gt;Node2</title>
<g id="a_edge13_Node000009_Node000002"><a xlink:title=" ">
<path fill="none" stroke="#63b8ff" d="M434.84,-171.52C420.7,-174.09 405.32,-176.9 390.91,-179.53"/>
<polygon fill="#63b8ff" stroke="#63b8ff" points="435.17,-175.01 444.38,-169.78 433.91,-168.13 435.17,-175.01"/>
</a>
</g>
</g>
</g>
</svg>

<g id="navigator" transform="translate(0 0)" fill="#404254">
  <rect fill="#f2f5e9" fill-opacity="0.5" stroke="#606060" stroke-width=".5" x="0" y="0" width="60" height="60"/>
  <use id="zoomplus" xlink:href="#zoomPlus" x="17" y="9" onmousedown="handleZoom(evt,'in')"/>
  <use id="zoomminus" xlink:href="#zoomMin" x="42" y="9" onmousedown="handleZoom(evt,'out')"/>
  <use id="reset" xlink:href="#resetDef" x="30" y="36" onmousedown="handleReset()"/>
   <use id="arrowup" xlink:href="#arrowUp" x="0" y="0" onmousedown="handlePan(0,-1)"/>
  <use id="arrowright" xlink:href="#arrowRight" x="0" y="0" onmousedown="handlePan(1,0)"/>
  <use id="arrowdown" xlink:href="#arrowDown" x="0" y="0" onmousedown="handlePan(0,1)"/>
  <use id="arrowleft" xlink:href="#arrowLeft" x="0" y="0" onmousedown="handlePan(-1,0)"/>
</g>
<svg viewBox="0 0 15 15" width="100%" height="30px" preserveAspectRatio="xMaxYMin meet">
 <g id="arrow_out" transform="scale(0.3 0.3)">
  <a xlink:href="namespaceshared_a2f7cb04abbe01ba7193f2d2a6d520355_icgraph_org.svg" target="_base">
   <rect id="button" ry="5" rx="5" y="6" x="6" height="38" width="38"
        fill="#f2f5e9" fill-opacity="0.5" stroke="#606060" stroke-width="1.0"/>
   <path id="arrow"
     d="M 11.500037,31.436501 C 11.940474,20.09759 22.043105,11.32322 32.158766,21.979434 L 37.068811,17.246167 C 37.068811,17.246167 37.088388,32 37.088388,32 L 22.160133,31.978069 C 22.160133,31.978069 26.997745,27.140456 26.997745,27.140456 C 18.528582,18.264221 13.291696,25.230495 11.500037,31.436501 z"
     style="fill:#404040;"/>
  </a>
 </g>
</svg>

<style type='text/css'>
<![CDATA[
[data-mouse-over-selected='false'] { opacity: 0.7; }
[data-mouse-over-selected='true']  { opacity: 1.0; }
]]>
</style>
<script type="application/ecmascript"><![CDATA[
document.addEventListener('DOMContentLoaded', (event) => {
  highlightEdges();
  highlightAdjacentNodes();
});
]]></script>
</svg>
