<?xml version="1.0" encoding="UTF-8" standalone="no"?>
<!DOCTYPE svg PUBLIC "-//W3C//DTD SVG 1.1//EN"
 "http://www.w3.org/Graphics/SVG/1.1/DTD/svg11.dtd">
<!-- Generated by graphviz version 12.2.1 (0)
 -->
<!-- Title: generate::xdg_dbus_proxy Pages: 1 -->
<svg width="1061pt" height="796pt"
 viewBox="0.00 0.00 1060.75 796.00" xmlns="http://www.w3.org/2000/svg" xmlns:xlink="http://www.w3.org/1999/xlink">
<g id="graph0" class="graph" transform="scale(1 1) rotate(0) translate(4 792)">
<title>generate::xdg_dbus_proxy</title>
<!-- Node1 -->
<g id="Node000001" class="node">
<title>Node1</title>
<g id="a_Node000001"><a xlink:title="Spawn an instance of the xdg&#45;dbus&#45;proxy for the application instance.">
<polygon fill="#999999" stroke="#666666" points="101.5,-159 0,-159 0,-127 101.5,-127 101.5,-159"/>
<text text-anchor="start" x="8" y="-145.5" font-family="Helvetica,sans-Serif" font-size="10.00">generate::xdg_dbus</text>
<text text-anchor="middle" x="50.75" y="-133.5" font-family="Helvetica,sans-Serif" font-size="10.00">_proxy</text>
</a>
</g>
</g>
<!-- Node2 -->
<g id="Node000002" class="node">
<title>Node2</title>
<g id="a_Node000002"><a xlink:href="namespaceshared.html#aa381bd3e7caf6ab85ad8d8518fd4adf2" target="_top" xlink:title="Execute stuff.">
<polygon fill="white" stroke="#666666" points="806.62,-684 734.38,-684 734.38,-664 806.62,-664 806.62,-684"/>
<text text-anchor="middle" x="770.5" y="-670.5" font-family="Helvetica,sans-Serif" font-size="10.00">shared::exec</text>
</a>
</g>
</g>
<!-- Node1&#45;&gt;Node2 -->
<g id="edge1_Node000001_Node000002" class="edge">
<title>Node1&#45;&gt;Node2</title>
<g id="a_edge1_Node000001_Node000002"><a xlink:title=" ">
<path fill="none" stroke="#63b8ff" d="M52.1,-159.27C55.21,-259.41 85.34,-788 375.75,-788 375.75,-788 375.75,-788 511.5,-788 606.22,-788 705.1,-722.91 747.77,-691.1"/>
<polygon fill="#63b8ff" stroke="#63b8ff" points="749.65,-694.07 755.49,-685.23 745.41,-688.5 749.65,-694.07"/>
</a>
</g>
</g>
<!-- Node3 -->
<g id="Node000003" class="node">
<title>Node3</title>
<g id="a_Node000003"><a xlink:href="namespaceshared.html#a1636cc0cb46e6be8f452dbc1e92a1e28" target="_top" xlink:title="Extend a container in place.">
<polygon fill="white" stroke="#666666" points="810.75,-77 730.25,-77 730.25,-57 810.75,-57 810.75,-77"/>
<text text-anchor="middle" x="770.5" y="-63.5" font-family="Helvetica,sans-Serif" font-size="10.00">shared::extend</text>
</a>
</g>
</g>
<!-- Node1&#45;&gt;Node3 -->
<g id="edge2_Node000001_Node000003" class="edge">
<title>Node1&#45;&gt;Node3</title>
<g id="a_edge2_Node000001_Node000003"><a xlink:title=" ">
<path fill="none" stroke="#63b8ff" d="M64.55,-126.55C79.75,-108.39 106.93,-80.01 137.5,-67 235.24,-25.4 269.52,-48 375.75,-48 375.75,-48 375.75,-48 511.5,-48 583.53,-48 666.56,-55.46 718.54,-61.03"/>
<polygon fill="#63b8ff" stroke="#63b8ff" points="717.96,-64.48 728.28,-62.09 718.72,-57.53 717.96,-64.48"/>
</a>
</g>
</g>
<!-- Node4 -->
<g id="Node000004" class="node">
<title>Node4</title>
<g id="a_Node000004"><a xlink:href="classshared_1_1TemporaryDirectory.html#a587043a975ec1bb3cb6ce6a663285730" target="_top" xlink:title="Return the path to the directory.">
<polygon fill="white" stroke="#666666" points="285.12,-222 148.38,-222 148.38,-190 285.12,-190 285.12,-222"/>
<text text-anchor="start" x="156.38" y="-208.5" font-family="Helvetica,sans-Serif" font-size="10.00">shared::TemporaryDirectory</text>
<text text-anchor="middle" x="216.75" y="-196.5" font-family="Helvetica,sans-Serif" font-size="10.00">::get_path</text>
</a>
</g>
</g>
<!-- Node1&#45;&gt;Node4 -->
<g id="edge3_Node000001_Node000004" class="edge">
<title>Node1&#45;&gt;Node4</title>
<g id="a_edge3_Node000001_Node000004"><a xlink:title=" ">
<path fill="none" stroke="#63b8ff" d="M86.44,-159.39C101.91,-166.44 120.45,-174.52 137.5,-181 141.85,-182.65 146.36,-184.29 150.92,-185.89"/>
<polygon fill="#63b8ff" stroke="#63b8ff" points="149.58,-189.13 160.17,-189.05 151.84,-182.51 149.58,-189.13"/>
</a>
</g>
</g>
<!-- Node5 -->
<g id="Node000005" class="node">
<title>Node5</title>
<g id="a_Node000005"><a xlink:href="namespaceshared.html#a1f0e43f0520bfb104be776b21ea446ad" target="_top" xlink:title="A Non&#45;Blocking Parser that returns the PID.">
<polygon fill="white" stroke="#666666" points="258.12,-172 175.38,-172 175.38,-152 258.12,-152 258.12,-172"/>
<text text-anchor="middle" x="216.75" y="-158.5" font-family="Helvetica,sans-Serif" font-size="10.00">shared::get_pid</text>
</a>
</g>
</g>
<!-- Node1&#45;&gt;Node5 -->
<g id="edge4_Node000001_Node000005" class="edge">
<title>Node1&#45;&gt;Node5</title>
<g id="a_edge4_Node000001_Node000005"><a xlink:title=" ">
<path fill="none" stroke="#63b8ff" d="M101.85,-148.8C121.45,-151.08 143.94,-153.68 163.73,-155.97"/>
<polygon fill="#63b8ff" stroke="#63b8ff" points="163.19,-159.43 173.53,-157.11 164,-152.48 163.19,-159.43"/>
</a>
</g>
</g>
<!-- Node6 -->
<g id="Node000006" class="node">
<title>Node6</title>
<g id="a_Node000006"><a xlink:href="namespacegenerate.html#a17cf0da8addab269d21c2c8074d85c4e" target="_top" xlink:title="Setup the Proxy&#39;s SOF.">
<polygon fill="white" stroke="#666666" points="266,-263 167.5,-263 167.5,-243 266,-243 266,-263"/>
<text text-anchor="middle" x="216.75" y="-249.5" font-family="Helvetica,sans-Serif" font-size="10.00">generate::proxy_lib</text>
</a>
</g>
</g>
<!-- Node1&#45;&gt;Node6 -->
<g id="edge5_Node000001_Node000006" class="edge">
<title>Node1&#45;&gt;Node6</title>
<g id="a_edge5_Node000001_Node000006"><a xlink:title=" ">
<path fill="none" stroke="#63b8ff" d="M63.46,-159.5C78.42,-179.36 106.14,-212.36 137.5,-231 143.47,-234.55 150.04,-237.55 156.75,-240.07"/>
<polygon fill="#63b8ff" stroke="#63b8ff" points="155.33,-243.29 165.92,-243.18 157.58,-236.66 155.33,-243.29"/>
</a>
</g>
</g>
<!-- Node26 -->
<g id="Node000026" class="node">
<title>Node26</title>
<g id="a_Node000026"><a xlink:href="classshared_1_1TemporaryDirectory.html#adc4a1c0954915b3208e0de0fee6846c9" target="_top" xlink:title="Create a subdirectory/file in the temp dir.">
<polygon fill="white" stroke="#666666" points="296,-96 137.5,-96 137.5,-76 296,-76 296,-96"/>
<text text-anchor="middle" x="216.75" y="-82.5" font-family="Helvetica,sans-Serif" font-size="10.00">shared::TemporaryDirectory::sub</text>
</a>
</g>
</g>
<!-- Node1&#45;&gt;Node26 -->
<g id="edge44_Node000001_Node000026" class="edge">
<title>Node1&#45;&gt;Node26</title>
<g id="a_edge44_Node000001_Node000026"><a xlink:title=" ">
<path fill="none" stroke="#63b8ff" d="M92.54,-126.64C106.69,-121.13 122.72,-115.1 137.5,-110 147.56,-106.53 158.43,-103.03 168.78,-99.82"/>
<polygon fill="#63b8ff" stroke="#63b8ff" points="169.76,-103.19 178.29,-96.91 167.71,-96.49 169.76,-103.19"/>
</a>
</g>
</g>
<!-- Node27 -->
<g id="Node000027" class="node">
<title>Node27</title>
<g id="a_Node000027"><a xlink:href="namespacebinaries.html#a3dceb9be58009eef337fd18d7ee738d4" target="_top" xlink:title="Symlink to /usr/bin.">
<polygon fill="white" stroke="#666666" points="421.5,-96 332,-96 332,-76 421.5,-76 421.5,-96"/>
<text text-anchor="middle" x="376.75" y="-82.5" font-family="Helvetica,sans-Serif" font-size="10.00">binaries::symlink</text>
</a>
</g>
</g>
<!-- Node1&#45;&gt;Node27 -->
<g id="edge45_Node000001_Node000027" class="edge">
<title>Node1&#45;&gt;Node27</title>
<g id="a_edge45_Node000001_Node000027"><a xlink:title=" ">
<path fill="none" stroke="#63b8ff" d="M101.54,-136.44C151.04,-129.63 229.05,-118.16 296,-105 304.94,-103.24 314.39,-101.18 323.54,-99.07"/>
<polygon fill="#63b8ff" stroke="#63b8ff" points="324.09,-102.53 333.02,-96.84 322.49,-95.72 324.09,-102.53"/>
</a>
</g>
</g>
<!-- Node28 -->
<g id="Node000028" class="node">
<title>Node28</title>
<g id="a_Node000028"><a xlink:href="namespacelibraries.html#aaf67d1825dab30fecb532ea92077ebe3" target="_top" xlink:title="Add symlink commands.">
<polygon fill="white" stroke="#666666" points="421.5,-20 332,-20 332,0 421.5,0 421.5,-20"/>
<text text-anchor="middle" x="376.75" y="-6.5" font-family="Helvetica,sans-Serif" font-size="10.00">libraries::symlink</text>
</a>
</g>
</g>
<!-- Node1&#45;&gt;Node28 -->
<g id="edge47_Node000001_Node000028" class="edge">
<title>Node1&#45;&gt;Node28</title>
<g id="a_edge47_Node000001_Node000028"><a xlink:title=" ">
<path fill="none" stroke="#63b8ff" d="M59.27,-126.64C71.66,-101.8 98.88,-55.21 137.5,-34 194.12,-2.9 269.79,-0.71 320.52,-3.8"/>
<polygon fill="#63b8ff" stroke="#63b8ff" points="320.17,-7.28 330.39,-4.49 320.66,-0.3 320.17,-7.28"/>
</a>
</g>
</g>
<!-- Node7 -->
<g id="Node000007" class="node">
<title>Node7</title>
<g id="a_Node000007"><a xlink:href="namespaceshared.html#a9ed709af90ab0108e5c3a8afdd3e7042" target="_top" xlink:title="Split the contents of an FD.">
<polygon fill="white" stroke="#666666" points="817.5,-456 723.5,-456 723.5,-436 817.5,-436 817.5,-456"/>
<text text-anchor="middle" x="770.5" y="-442.5" font-family="Helvetica,sans-Serif" font-size="10.00">shared::fd_splitter</text>
</a>
</g>
</g>
<!-- Node6&#45;&gt;Node7 -->
<g id="edge6_Node000006_Node000007" class="edge">
<title>Node6&#45;&gt;Node7</title>
<g id="a_edge6_Node000006_Node000007"><a xlink:title=" ">
<path fill="none" stroke="#63b8ff" d="M254.94,-242.55C288.09,-233.24 331.5,-221.07 332,-221 357.87,-217.45 544.18,-217.97 563.5,-222 622.17,-234.23 644.21,-233.55 687.5,-275 731.96,-317.57 755.21,-389.17 764.52,-424.69"/>
<polygon fill="#63b8ff" stroke="#63b8ff" points="761.07,-425.31 766.88,-434.17 767.87,-423.62 761.07,-425.31"/>
</a>
</g>
</g>
<!-- Node11 -->
<g id="Node000011" class="node">
<title>Node11</title>
<g id="a_Node000011"><a xlink:href="namespacelibraries.html#a4dfd6ab45adf8dc18ea57bc1f88eaedf" target="_top" xlink:title="Recursively resolve all shared&#45;libraries needed by a library.">
<polygon fill="white" stroke="#666666" points="545.12,-418 475.88,-418 475.88,-398 545.12,-398 545.12,-418"/>
<text text-anchor="middle" x="510.5" y="-404.5" font-family="Helvetica,sans-Serif" font-size="10.00">libraries::get</text>
</a>
</g>
</g>
<!-- Node6&#45;&gt;Node11 -->
<g id="edge11_Node000006_Node000011" class="edge">
<title>Node6&#45;&gt;Node11</title>
<g id="a_edge11_Node000006_Node000011"><a xlink:title=" ">
<path fill="none" stroke="#63b8ff" d="M237.35,-263.41C287.48,-290.05 420.65,-360.8 480.11,-392.39"/>
<polygon fill="#63b8ff" stroke="#63b8ff" points="478.18,-395.32 488.65,-396.92 481.46,-389.14 478.18,-395.32"/>
</a>
</g>
</g>
<!-- Node14 -->
<g id="Node000014" class="node">
<title>Node14</title>
<g id="a_Node000014"><a xlink:href="namespaceshared.html#a99724c73af55fa92ae29fee700152917" target="_top" xlink:title="Log output to console, if verbose.">
<polygon fill="white" stroke="#666666" points="675.5,-304 611.5,-304 611.5,-284 675.5,-284 675.5,-304"/>
<text text-anchor="middle" x="643.5" y="-290.5" font-family="Helvetica,sans-Serif" font-size="10.00">shared::log</text>
</a>
</g>
</g>
<!-- Node6&#45;&gt;Node14 -->
<g id="edge27_Node000006_Node000014" class="edge">
<title>Node6&#45;&gt;Node14</title>
<g id="a_edge27_Node000006_Node000014"><a xlink:title=" ">
<path fill="none" stroke="#63b8ff" d="M263.41,-242.52C330.72,-229.07 459.8,-210.93 563.5,-242 586.16,-248.79 608.34,-264.41 623.4,-276.77"/>
<polygon fill="#63b8ff" stroke="#63b8ff" points="620.77,-279.12 630.65,-282.95 625.31,-273.8 620.77,-279.12"/>
</a>
</g>
</g>
<!-- Node15 -->
<g id="Node000015" class="node">
<title>Node15</title>
<g id="a_Node000015"><a xlink:href="namespaceshared.html#afac154f1bef460ef6f24705f6c033f37" target="_top" xlink:title="Read a file.">
<polygon fill="white" stroke="#666666" points="687.5,-342 599.5,-342 599.5,-322 687.5,-322 687.5,-342"/>
<text text-anchor="middle" x="643.5" y="-328.5" font-family="Helvetica,sans-Serif" font-size="10.00">shared::read_file</text>
</a>
</g>
</g>
<!-- Node6&#45;&gt;Node15 -->
<g id="edge43_Node000006_Node000015" class="edge">
<title>Node6&#45;&gt;Node15</title>
<g id="a_edge43_Node000006_Node000015"><a xlink:title=" ">
<path fill="none" stroke="#63b8ff" d="M266.48,-251.77C348.97,-250.39 512.16,-250.96 563.5,-275 584.57,-284.87 580.49,-299.59 599.5,-313 601.25,-314.23 603.09,-315.42 604.99,-316.54"/>
<polygon fill="#63b8ff" stroke="#63b8ff" points="602.96,-319.43 613.44,-320.99 606.23,-313.24 602.96,-319.43"/>
</a>
</g>
</g>
<!-- Node18 -->
<g id="Node000018" class="node">
<title>Node18</title>
<g id="a_Node000018"><a xlink:href="namespaceshared.html#a4a708359d4c8dbeeaa8b744eec56c0e5" target="_top" xlink:title="Hash a string.">
<polygon fill="white" stroke="#666666" points="412.88,-134 340.62,-134 340.62,-114 412.88,-114 412.88,-134"/>
<text text-anchor="middle" x="376.75" y="-120.5" font-family="Helvetica,sans-Serif" font-size="10.00">shared::hash</text>
</a>
</g>
</g>
<!-- Node6&#45;&gt;Node18 -->
<g id="edge24_Node000006_Node000018" class="edge">
<title>Node6&#45;&gt;Node18</title>
<g id="a_edge24_Node000006_Node000018"><a xlink:title=" ">
<path fill="none" stroke="#63b8ff" d="M266.12,-245.79C276.73,-242.54 287.37,-237.83 296,-231 321.89,-210.5 311.86,-192.17 332,-166 338.65,-157.36 347.07,-148.84 354.75,-141.76"/>
<polygon fill="#63b8ff" stroke="#63b8ff" points="356.99,-144.45 362.13,-135.19 352.34,-139.22 356.99,-144.45"/>
</a>
</g>
</g>
<!-- Node19 -->
<g id="Node000019" class="node">
<title>Node19</title>
<g id="a_Node000019"><a xlink:href="namespaceshared.html#a48902b7bb96ff218057c3b363b43ea8a" target="_top" xlink:title="Compose a return value from an accumulator function.">
<polygon fill="white" stroke="#666666" points="542.5,-304 478.5,-304 478.5,-284 542.5,-284 542.5,-304"/>
<text text-anchor="middle" x="510.5" y="-290.5" font-family="Helvetica,sans-Serif" font-size="10.00">shared::init</text>
</a>
</g>
</g>
<!-- Node6&#45;&gt;Node19 -->
<g id="edge26_Node000006_Node000019" class="edge">
<title>Node6&#45;&gt;Node19</title>
<g id="a_edge26_Node000006_Node000019"><a xlink:title=" ">
<path fill="none" stroke="#63b8ff" d="M266.37,-260.38C286.65,-263.42 310.46,-266.94 332,-270 378.12,-276.55 431.03,-283.65 467.01,-288.42"/>
<polygon fill="#63b8ff" stroke="#63b8ff" points="466.19,-291.84 476.56,-289.68 467.11,-284.9 466.19,-291.84"/>
</a>
</g>
</g>
<!-- Node20 -->
<g id="Node000020" class="node">
<title>Node20</title>
<g id="a_Node000020"><a xlink:href="namespacebinaries.html#ac1478c81b2eb2c4ecdba98e92c4e7651" target="_top" xlink:title="Parse a binary to determine dependencies.">
<polygon fill="white" stroke="#666666" points="416.62,-513 336.88,-513 336.88,-493 416.62,-493 416.62,-513"/>
<text text-anchor="middle" x="376.75" y="-499.5" font-family="Helvetica,sans-Serif" font-size="10.00">binaries::parse</text>
</a>
</g>
</g>
<!-- Node6&#45;&gt;Node20 -->
<g id="edge28_Node000006_Node000020" class="edge">
<title>Node6&#45;&gt;Node20</title>
<g id="a_edge28_Node000006_Node000020"><a xlink:title=" ">
<path fill="none" stroke="#63b8ff" d="M224.34,-263.42C248.33,-301.38 331.29,-432.65 363.15,-483.06"/>
<polygon fill="#63b8ff" stroke="#63b8ff" points="360.02,-484.67 368.33,-491.25 365.94,-480.93 360.02,-484.67"/>
</a>
</g>
</g>
<!-- Node8 -->
<g id="Node000008" class="node">
<title>Node8</title>
<g id="a_Node000008"><a xlink:href="namespaceshared.html#a80f3b59804700742a5a0c6ea15bf24f9" target="_top" xlink:title="A Blocking Parser that returns the output in a single string.">
<polygon fill="white" stroke="#666666" points="931.38,-636 856.12,-636 856.12,-616 931.38,-616 931.38,-636"/>
<text text-anchor="middle" x="893.75" y="-622.5" font-family="Helvetica,sans-Serif" font-size="10.00">shared::dump</text>
</a>
</g>
</g>
<!-- Node7&#45;&gt;Node8 -->
<g id="edge7_Node000007_Node000008" class="edge">
<title>Node7&#45;&gt;Node8</title>
<g id="a_edge7_Node000007_Node000008"><a xlink:title=" ">
<path fill="none" stroke="#63b8ff" d="M778.54,-456.46C798.13,-485.54 853.5,-567.74 879.26,-605.98"/>
<polygon fill="#63b8ff" stroke="#63b8ff" points="876.35,-607.92 884.84,-614.26 882.16,-604.01 876.35,-607.92"/>
</a>
</g>
</g>
<!-- Node9 -->
<g id="Node000009" class="node">
<title>Node9</title>
<g id="a_Node000009"><a xlink:href="namespaceshared.html#a6282d0d8d2ab3f70038d7428729c15ca" target="_top" xlink:title="Escape a string.">
<polygon fill="white" stroke="#666666" points="1052.75,-456 970,-456 970,-436 1052.75,-436 1052.75,-456"/>
<text text-anchor="middle" x="1011.38" y="-442.5" font-family="Helvetica,sans-Serif" font-size="10.00">shared::escape</text>
</a>
</g>
</g>
<!-- Node7&#45;&gt;Node9 -->
<g id="edge8_Node000007_Node000009" class="edge">
<title>Node7&#45;&gt;Node9</title>
<g id="a_edge8_Node000007_Node000009"><a xlink:title=" ">
<path fill="none" stroke="#63b8ff" d="M817.84,-446C858.15,-446 916.5,-446 958.38,-446"/>
<polygon fill="#63b8ff" stroke="#63b8ff" points="958.22,-449.5 968.22,-446 958.22,-442.5 958.22,-449.5"/>
</a>
</g>
</g>
<!-- Node10 -->
<g id="Node000010" class="node">
<title>Node10</title>
<g id="a_Node000010"><a xlink:href="namespaceshared.html#a690cc836408825d804377522d9d99a07" target="_top" xlink:title="Split a string.">
<polygon fill="white" stroke="#666666" points="934,-475 853.5,-475 853.5,-455 934,-455 934,-475"/>
<text text-anchor="middle" x="893.75" y="-461.5" font-family="Helvetica,sans-Serif" font-size="10.00">shared::splitter</text>
</a>
</g>
</g>
<!-- Node7&#45;&gt;Node10 -->
<g id="edge9_Node000007_Node000010" class="edge">
<title>Node7&#45;&gt;Node10</title>
<g id="a_edge9_Node000007_Node000010"><a xlink:title=" ">
<path fill="none" stroke="#63b8ff" d="M817.69,-453.24C825.6,-454.48 833.86,-455.77 841.89,-457.03"/>
<polygon fill="#63b8ff" stroke="#63b8ff" points="841.11,-460.45 851.53,-458.54 842.19,-453.53 841.11,-460.45"/>
</a>
</g>
</g>
<!-- Node10&#45;&gt;Node9 -->
<g id="edge10_Node000010_Node000009" class="edge">
<title>Node10&#45;&gt;Node9</title>
<g id="a_edge10_Node000010_Node000009"><a xlink:title=" ">
<path fill="none" stroke="#63b8ff" d="M934.22,-458.51C941.96,-457.24 950.18,-455.89 958.26,-454.56"/>
<polygon fill="#63b8ff" stroke="#63b8ff" points="958.72,-458.04 968.02,-452.96 957.58,-451.13 958.72,-458.04"/>
</a>
</g>
</g>
<!-- Node11&#45;&gt;Node2 -->
<g id="edge14_Node000011_Node000002" class="edge">
<title>Node11&#45;&gt;Node2</title>
<g id="a_edge14_Node000011_Node000002"><a xlink:title=" ">
<path fill="none" stroke="#63b8ff" d="M520.89,-418.37C536.85,-435.96 570.39,-472.67 599.5,-503 653.81,-559.6 719.7,-624.96 751.11,-655.93"/>
<polygon fill="#63b8ff" stroke="#63b8ff" points="748.36,-658.13 757.94,-662.65 753.27,-653.14 748.36,-658.13"/>
</a>
</g>
</g>
<!-- Node11&#45;&gt;Node7 -->
<g id="edge15_Node000011_Node000007" class="edge">
<title>Node11&#45;&gt;Node7</title>
<g id="a_edge15_Node000011_Node000007"><a xlink:title=" ">
<path fill="none" stroke="#63b8ff" d="M545.41,-410.44C580.97,-413.29 638.41,-418.69 687.5,-427 697.34,-428.67 707.77,-430.79 717.77,-433.02"/>
<polygon fill="#63b8ff" stroke="#63b8ff" points="716.81,-436.39 727.34,-435.22 718.38,-429.57 716.81,-436.39"/>
</a>
</g>
</g>
<!-- Node12 -->
<g id="Node000012" class="node">
<title>Node12</title>
<g id="a_Node000012"><a xlink:href="namespaceshared.html#a993cd576fb1a43b497dc350728bd8c80" target="_top" xlink:title="Batch multiple iterations of an accumulator function together, threaded.">
<polygon fill="white" stroke="#666666" points="681.12,-380 605.88,-380 605.88,-360 681.12,-360 681.12,-380"/>
<text text-anchor="middle" x="643.5" y="-366.5" font-family="Helvetica,sans-Serif" font-size="10.00">shared::batch</text>
</a>
</g>
</g>
<!-- Node11&#45;&gt;Node12 -->
<g id="edge12_Node000011_Node000012" class="edge">
<title>Node11&#45;&gt;Node12</title>
<g id="a_edge12_Node000011_Node000012"><a xlink:title=" ">
<path fill="none" stroke="#63b8ff" d="M545.58,-398.12C561,-393.64 579.47,-388.28 596.13,-383.45"/>
<polygon fill="#63b8ff" stroke="#63b8ff" points="596.68,-386.94 605.31,-380.79 594.73,-380.21 596.68,-386.94"/>
</a>
</g>
</g>
<!-- Node13 -->
<g id="Node000013" class="node">
<title>Node13</title>
<g id="a_Node000013"><a xlink:href="namespaceshared.html#a2f7cb04abbe01ba7193f2d2a6d520355" target="_top" xlink:title="Join a vector into a string.">
<polygon fill="white" stroke="#666666" points="676.62,-656 610.38,-656 610.38,-636 676.62,-636 676.62,-656"/>
<text text-anchor="middle" x="643.5" y="-642.5" font-family="Helvetica,sans-Serif" font-size="10.00">shared::join</text>
</a>
</g>
</g>
<!-- Node11&#45;&gt;Node13 -->
<g id="edge16_Node000011_Node000013" class="edge">
<title>Node11&#45;&gt;Node13</title>
<g id="a_edge16_Node000011_Node000013"><a xlink:title=" ">
<path fill="none" stroke="#63b8ff" d="M523.28,-418.29C534.89,-428.97 552.43,-446.65 563.5,-465 587.89,-505.45 580.38,-521.81 599.5,-565 608.93,-586.29 621.62,-609.69 630.76,-625.84"/>
<polygon fill="#63b8ff" stroke="#63b8ff" points="627.68,-627.51 635.7,-634.44 633.76,-624.02 627.68,-627.51"/>
</a>
</g>
</g>
<!-- Node11&#45;&gt;Node14 -->
<g id="edge17_Node000011_Node000014" class="edge">
<title>Node11&#45;&gt;Node14</title>
<g id="a_edge17_Node000011_Node000014"><a xlink:title=" ">
<path fill="none" stroke="#63b8ff" d="M520.21,-397.57C538.65,-375.69 581.38,-325.93 599.5,-313 601.05,-311.89 602.68,-310.83 604.36,-309.81"/>
<polygon fill="#63b8ff" stroke="#63b8ff" points="605.81,-313 612.97,-305.19 602.5,-306.83 605.81,-313"/>
</a>
</g>
</g>
<!-- Node11&#45;&gt;Node15 -->
<g id="edge18_Node000011_Node000015" class="edge">
<title>Node11&#45;&gt;Node15</title>
<g id="a_edge18_Node000011_Node000015"><a xlink:title=" ">
<path fill="none" stroke="#63b8ff" d="M538.27,-397.55C546.64,-393.79 555.72,-389.18 563.5,-384 581.57,-371.98 581.33,-362.88 599.5,-351 601.34,-349.79 603.28,-348.63 605.26,-347.52"/>
<polygon fill="#63b8ff" stroke="#63b8ff" points="606.74,-350.69 614.06,-343.04 603.56,-344.45 606.74,-350.69"/>
</a>
</g>
</g>
<!-- Node16 -->
<g id="Node000016" class="node">
<title>Node16</title>
<g id="a_Node000016"><a xlink:href="namespaceshared.html#a219683cbcfb575bb29797638cadafb7b" target="_top" xlink:title="A Blocking Parser that splits the output into a set.">
<polygon fill="white" stroke="#666666" points="686.38,-494 600.62,-494 600.62,-474 686.38,-474 686.38,-494"/>
<text text-anchor="middle" x="643.5" y="-480.5" font-family="Helvetica,sans-Serif" font-size="10.00">shared::setorize</text>
</a>
</g>
</g>
<!-- Node11&#45;&gt;Node16 -->
<g id="edge19_Node000011_Node000016" class="edge">
<title>Node11&#45;&gt;Node16</title>
<g id="a_edge19_Node000011_Node000016"><a xlink:title=" ">
<path fill="none" stroke="#63b8ff" d="M538.27,-418.45C546.64,-422.21 555.72,-426.82 563.5,-432 581.57,-444.02 581.33,-453.12 599.5,-465 601.34,-466.21 603.28,-467.37 605.26,-468.48"/>
<polygon fill="#63b8ff" stroke="#63b8ff" points="603.56,-471.55 614.06,-472.96 606.74,-465.31 603.56,-471.55"/>
</a>
</g>
</g>
<!-- Node17 -->
<g id="Node000017" class="node">
<title>Node17</title>
<g id="a_Node000017"><a xlink:href="namespaceshared.html#a6955b6b671ef8b660a0d6ed018712923" target="_top" xlink:title="Resolve wildcard patterns.">
<polygon fill="white" stroke="#666666" points="687.12,-456 599.88,-456 599.88,-436 687.12,-436 687.12,-456"/>
<text text-anchor="middle" x="643.5" y="-442.5" font-family="Helvetica,sans-Serif" font-size="10.00">shared::wildcard</text>
</a>
</g>
</g>
<!-- Node11&#45;&gt;Node17 -->
<g id="edge21_Node000011_Node000017" class="edge">
<title>Node11&#45;&gt;Node17</title>
<g id="a_edge21_Node000011_Node000017"><a xlink:title=" ">
<path fill="none" stroke="#63b8ff" d="M545.58,-417.88C561,-422.36 579.47,-427.72 596.13,-432.55"/>
<polygon fill="#63b8ff" stroke="#63b8ff" points="594.73,-435.79 605.31,-435.21 596.68,-429.06 594.73,-435.79"/>
</a>
</g>
</g>
<!-- Node12&#45;&gt;Node3 -->
<g id="edge13_Node000012_Node000003" class="edge">
<title>Node12&#45;&gt;Node3</title>
<g id="a_edge13_Node000012_Node000003"><a xlink:title=" ">
<path fill="none" stroke="#63b8ff" d="M676.72,-359.63C680.74,-357.29 684.49,-354.44 687.5,-351 755.81,-272.78 767.36,-140.78 769.21,-88.88"/>
<polygon fill="#63b8ff" stroke="#63b8ff" points="772.7,-89.1 769.46,-79.01 765.7,-88.92 772.7,-89.1"/>
</a>
</g>
</g>
<!-- Node16&#45;&gt;Node7 -->
<g id="edge20_Node000016_Node000007" class="edge">
<title>Node16&#45;&gt;Node7</title>
<g id="a_edge20_Node000016_Node000007"><a xlink:title=" ">
<path fill="none" stroke="#63b8ff" d="M678.99,-473.52C693.06,-469.24 709.52,-464.23 724.52,-459.67"/>
<polygon fill="#63b8ff" stroke="#63b8ff" points="725.13,-463.15 733.68,-456.89 723.09,-456.45 725.13,-463.15"/>
</a>
</g>
</g>
<!-- Node17&#45;&gt;Node2 -->
<g id="edge22_Node000017_Node000002" class="edge">
<title>Node17&#45;&gt;Node2</title>
<g id="a_edge22_Node000017_Node000002"><a xlink:title=" ">
<path fill="none" stroke="#63b8ff" d="M676,-456.38C680.23,-458.74 684.22,-461.58 687.5,-465 739.7,-519.45 759.84,-611.01 766.56,-652.46"/>
<polygon fill="#63b8ff" stroke="#63b8ff" points="763.1,-652.96 768.04,-662.33 770.02,-651.93 763.1,-652.96"/>
</a>
</g>
</g>
<!-- Node17&#45;&gt;Node7 -->
<g id="edge23_Node000017_Node000007" class="edge">
<title>Node17&#45;&gt;Node7</title>
<g id="a_edge23_Node000017_Node000007"><a xlink:title=" ">
<path fill="none" stroke="#63b8ff" d="M687.52,-446C695.39,-446 703.72,-446 711.94,-446"/>
<polygon fill="#63b8ff" stroke="#63b8ff" points="711.9,-449.5 721.9,-446 711.9,-442.5 711.9,-449.5"/>
</a>
</g>
</g>
<!-- Node18&#45;&gt;Node18 -->
<g id="edge25_Node000018_Node000018" class="edge">
<title>Node18&#45;&gt;Node18</title>
<g id="a_edge25_Node000018_Node000018"><a xlink:title=" ">
<path fill="none" stroke="#63b8ff" d="M355.5,-134.34C346.42,-142.98 353.5,-152 376.75,-152 389.46,-152 397.34,-149.3 400.39,-145.44"/>
<polygon fill="#63b8ff" stroke="#63b8ff" points="403.84,-144.86 398.32,-135.82 397,-146.33 403.84,-144.86"/>
</a>
</g>
</g>
<!-- Node20&#45;&gt;Node2 -->
<g id="edge30_Node000020_Node000002" class="edge">
<title>Node20&#45;&gt;Node2</title>
<g id="a_edge30_Node000020_Node000002"><a xlink:title=" ">
<path fill="none" stroke="#63b8ff" d="M378.75,-513.28C382.43,-544.59 398.21,-638.95 457.5,-677 540.93,-730.54 664.53,-706 728.22,-687.65"/>
<polygon fill="#63b8ff" stroke="#63b8ff" points="728.99,-691.07 737.58,-684.86 726.99,-684.36 728.99,-691.07"/>
</a>
</g>
</g>
<!-- Node20&#45;&gt;Node8 -->
<g id="edge29_Node000020_Node000008" class="edge">
<title>Node20&#45;&gt;Node8</title>
<g id="a_edge29_Node000020_Node000008"><a xlink:title=" ">
<path fill="none" stroke="#63b8ff" d="M378.18,-513.28C380.21,-547.52 391.81,-658.32 457.5,-707 586.15,-802.33 673.93,-763.9 817.5,-693 841.36,-681.22 863.44,-659.77 877.43,-644.32"/>
<polygon fill="#63b8ff" stroke="#63b8ff" points="879.73,-647 883.68,-637.16 874.46,-642.39 879.73,-647"/>
</a>
</g>
</g>
<!-- Node20&#45;&gt;Node11 -->
<g id="edge31_Node000020_Node000011" class="edge">
<title>Node20&#45;&gt;Node11</title>
<g id="a_edge31_Node000020_Node000011"><a xlink:title=" ">
<path fill="none" stroke="#63b8ff" d="M387.28,-492.78C401.5,-477.96 429.59,-450.28 457.5,-432 462.31,-428.85 467.61,-425.89 472.93,-423.21"/>
<polygon fill="#63b8ff" stroke="#63b8ff" points="474.15,-426.5 481.68,-419.05 471.14,-420.18 474.15,-426.5"/>
</a>
</g>
</g>
<!-- Node20&#45;&gt;Node13 -->
<g id="edge34_Node000020_Node000013" class="edge">
<title>Node20&#45;&gt;Node13</title>
<g id="a_edge34_Node000020_Node000013"><a xlink:title=" ">
<path fill="none" stroke="#63b8ff" d="M379.44,-513.23C384.77,-541.86 404.2,-622.78 457.5,-655 501.93,-681.86 563.89,-671.26 603.61,-659.77"/>
<polygon fill="#63b8ff" stroke="#63b8ff" points="604.45,-663.17 612.99,-656.9 602.4,-656.48 604.45,-663.17"/>
</a>
</g>
</g>
<!-- Node20&#45;&gt;Node14 -->
<g id="edge35_Node000020_Node000014" class="edge">
<title>Node20&#45;&gt;Node14</title>
<g id="a_edge35_Node000020_Node000014"><a xlink:title=" ">
<path fill="none" stroke="#63b8ff" d="M379.96,-492.84C386.53,-465.06 408.65,-387.2 457.5,-347 468.65,-337.82 549.15,-316.86 600.22,-304.22"/>
<polygon fill="#63b8ff" stroke="#63b8ff" points="600.91,-307.66 609.79,-301.87 599.24,-300.86 600.91,-307.66"/>
</a>
</g>
</g>
<!-- Node20&#45;&gt;Node15 -->
<g id="edge38_Node000020_Node000015" class="edge">
<title>Node20&#45;&gt;Node15</title>
<g id="a_edge38_Node000020_Node000015"><a xlink:title=" ">
<path fill="none" stroke="#63b8ff" d="M382.07,-492.77C392.01,-470.49 418.65,-417.3 457.5,-389 478.45,-373.73 541.34,-356.17 588.01,-344.62"/>
<polygon fill="#63b8ff" stroke="#63b8ff" points="588.84,-348.02 597.72,-342.25 587.18,-341.22 588.84,-348.02"/>
</a>
</g>
</g>
<!-- Node20&#45;&gt;Node16 -->
<g id="edge39_Node000020_Node000016" class="edge">
<title>Node20&#45;&gt;Node16</title>
<g id="a_edge39_Node000020_Node000016"><a xlink:title=" ">
<path fill="none" stroke="#63b8ff" d="M394.07,-492.55C409.65,-483.23 434.16,-470.28 457.5,-465 503.73,-454.55 557.78,-462.33 595.48,-470.88"/>
<polygon fill="#63b8ff" stroke="#63b8ff" points="594.61,-474.27 605.15,-473.18 596.24,-467.46 594.61,-474.27"/>
</a>
</g>
</g>
<!-- Node20&#45;&gt;Node19 -->
<g id="edge33_Node000020_Node000019" class="edge">
<title>Node20&#45;&gt;Node19</title>
<g id="a_edge33_Node000020_Node000019"><a xlink:title=" ">
<path fill="none" stroke="#63b8ff" d="M379.5,-492.76C385.21,-462.25 405.98,-370.84 457.5,-318 460.65,-314.77 464.32,-311.93 468.22,-309.44"/>
<polygon fill="#63b8ff" stroke="#63b8ff" points="469.82,-312.56 476.92,-304.7 466.46,-306.41 469.82,-312.56"/>
</a>
</g>
</g>
<!-- Node20&#45;&gt;Node20 -->
<g id="edge37_Node000020_Node000020" class="edge">
<title>Node20&#45;&gt;Node20</title>
<g id="a_edge37_Node000020_Node000020"><a xlink:title=" ">
<path fill="none" stroke="#63b8ff" d="M355.5,-513.34C346.42,-521.98 353.5,-531 376.75,-531 389.46,-531 397.34,-528.3 400.39,-524.44"/>
<polygon fill="#63b8ff" stroke="#63b8ff" points="403.84,-523.86 398.32,-514.82 397,-525.33 403.84,-523.86"/>
</a>
</g>
</g>
<!-- Node21 -->
<g id="Node000021" class="node">
<title>Node21</title>
<g id="a_Node000021"><a xlink:href="namespaceshared.html#ad05481a6e28afc976d57ddcba12e8a4d" target="_top" xlink:title="A Blocking Parser that returns the first count of the output.">
<polygon fill="white" stroke="#666666" points="546.62,-646 474.38,-646 474.38,-626 546.62,-626 546.62,-646"/>
<text text-anchor="middle" x="510.5" y="-632.5" font-family="Helvetica,sans-Serif" font-size="10.00">shared::head</text>
</a>
</g>
</g>
<!-- Node20&#45;&gt;Node21 -->
<g id="edge32_Node000020_Node000021" class="edge">
<title>Node20&#45;&gt;Node21</title>
<g id="a_edge32_Node000020_Node000021"><a xlink:title=" ">
<path fill="none" stroke="#63b8ff" d="M382.34,-513.42C392.61,-535.6 419.58,-587.85 457.5,-617 459.51,-618.55 461.66,-619.98 463.9,-621.3"/>
<polygon fill="#63b8ff" stroke="#63b8ff" points="462.26,-624.39 472.77,-625.73 465.39,-618.13 462.26,-624.39"/>
</a>
</g>
</g>
<!-- Node22 -->
<g id="Node000022" class="node">
<title>Node22</title>
<g id="a_Node000022"><a xlink:href="namespaceshared.html#a4ddc24b4d99e824f9b941fa905fb0a81" target="_top" xlink:title="A Blocking Parser that returns the first line of output.">
<polygon fill="white" stroke="#666666" points="554.12,-608 466.88,-608 466.88,-588 554.12,-588 554.12,-608"/>
<text text-anchor="middle" x="510.5" y="-594.5" font-family="Helvetica,sans-Serif" font-size="10.00">shared::one_line</text>
</a>
</g>
</g>
<!-- Node20&#45;&gt;Node22 -->
<g id="edge36_Node000020_Node000022" class="edge">
<title>Node20&#45;&gt;Node22</title>
<g id="a_edge36_Node000020_Node000022"><a xlink:title=" ">
<path fill="none" stroke="#63b8ff" d="M386.03,-513.25C399.49,-529.29 427.61,-560.43 457.5,-579 459.66,-580.34 461.92,-581.6 464.25,-582.8"/>
<polygon fill="#63b8ff" stroke="#63b8ff" points="462.79,-585.98 473.34,-586.93 465.69,-579.61 462.79,-585.98"/>
</a>
</g>
</g>
<!-- Node23 -->
<g id="Node000023" class="node">
<title>Node23</title>
<g id="a_Node000023"><a xlink:href="namespaceshared.html#a8d237bf1ea1e2a6fb5c7d30bcb51f593" target="_top" xlink:title="Batch multiple iterations of an accumulator function together.">
<polygon fill="white" stroke="#666666" points="563.5,-570 457.5,-570 457.5,-550 563.5,-550 563.5,-570"/>
<text text-anchor="middle" x="510.5" y="-556.5" font-family="Helvetica,sans-Serif" font-size="10.00">shared::single_batch</text>
</a>
</g>
</g>
<!-- Node20&#45;&gt;Node23 -->
<g id="edge40_Node000020_Node000023" class="edge">
<title>Node20&#45;&gt;Node23</title>
<g id="a_edge40_Node000020_Node000023"><a xlink:title=" ">
<path fill="none" stroke="#63b8ff" d="M398.16,-513.38C414.13,-521.34 437,-532.39 457.5,-541 461.11,-542.52 464.89,-544.03 468.69,-545.51"/>
<polygon fill="#63b8ff" stroke="#63b8ff" points="467.33,-548.73 477.92,-548.99 469.81,-542.19 467.33,-548.73"/>
</a>
</g>
</g>
<!-- Node24 -->
<g id="Node000024" class="node">
<title>Node24</title>
<g id="a_Node000024"><a xlink:href="namespaceshared.html#ae0ec3e8d4de79340eda47eabfd075feb" target="_top" xlink:title="Strip all instance of character from a string.">
<polygon fill="white" stroke="#666666" points="545.5,-532 475.5,-532 475.5,-512 545.5,-512 545.5,-532"/>
<text text-anchor="middle" x="510.5" y="-518.5" font-family="Helvetica,sans-Serif" font-size="10.00">shared::strip</text>
</a>
</g>
</g>
<!-- Node20&#45;&gt;Node24 -->
<g id="edge41_Node000020_Node000024" class="edge">
<title>Node20&#45;&gt;Node24</title>
<g id="a_edge41_Node000020_Node000024"><a xlink:title=" ">
<path fill="none" stroke="#63b8ff" d="M416.92,-508.65C431.67,-510.78 448.57,-513.21 463.86,-515.42"/>
<polygon fill="#63b8ff" stroke="#63b8ff" points="463.28,-518.87 473.67,-516.83 464.28,-511.94 463.28,-518.87"/>
</a>
</g>
</g>
<!-- Node25 -->
<g id="Node000025" class="node">
<title>Node25</title>
<g id="a_Node000025"><a xlink:href="namespaceshared.html#a77e45bc6735a35fbc38891b166e40a7b" target="_top" xlink:title="Trim characters from the front and end of a string.">
<polygon fill="white" stroke="#666666" points="544.38,-494 476.62,-494 476.62,-474 544.38,-474 544.38,-494"/>
<text text-anchor="middle" x="510.5" y="-480.5" font-family="Helvetica,sans-Serif" font-size="10.00">shared::trim</text>
</a>
</g>
</g>
<!-- Node20&#45;&gt;Node25 -->
<g id="edge42_Node000020_Node000025" class="edge">
<title>Node20&#45;&gt;Node25</title>
<g id="a_edge42_Node000020_Node000025"><a xlink:title=" ">
<path fill="none" stroke="#63b8ff" d="M416.92,-497.35C432.18,-495.15 449.74,-492.62 465.44,-490.35"/>
<polygon fill="#63b8ff" stroke="#63b8ff" points="465.58,-493.87 474.98,-488.98 464.59,-486.94 465.58,-493.87"/>
</a>
</g>
</g>
<!-- Node27&#45;&gt;Node3 -->
<g id="edge46_Node000027_Node000003" class="edge">
<title>Node27&#45;&gt;Node3</title>
<g id="a_edge46_Node000027_Node000003"><a xlink:title=" ">
<path fill="none" stroke="#63b8ff" d="M421.93,-83.86C495.11,-80.31 641.09,-73.23 718.52,-69.47"/>
<polygon fill="#63b8ff" stroke="#63b8ff" points="718.56,-72.97 728.38,-68.99 718.22,-65.98 718.56,-72.97"/>
</a>
</g>
</g>
<!-- Node28&#45;&gt;Node3 -->
<g id="edge48_Node000028_Node000003" class="edge">
<title>Node28&#45;&gt;Node3</title>
<g id="a_edge48_Node000028_Node000003"><a xlink:title=" ">
<path fill="none" stroke="#63b8ff" d="M422,-9.23C482.69,-9.11 594.81,-12.3 687.5,-34 704.93,-38.08 723.51,-45.3 738.57,-51.94"/>
<polygon fill="#63b8ff" stroke="#63b8ff" points="736.91,-55.04 747.46,-56 739.82,-48.67 736.91,-55.04"/>
</a>
</g>
</g>
</g>
</svg>
