<?xml version="1.0" encoding="UTF-8" standalone="no"?>
<!DOCTYPE svg PUBLIC "-//W3C//DTD SVG 1.1//EN"
 "http://www.w3.org/Graphics/SVG/1.1/DTD/svg11.dtd">
<!-- Generated by graphviz version 12.2.1 (0)
 -->
<!-- Title: syscalls::filter Pages: 1 -->
<!--zoomable 255 -->

<svg id="main" version="1.1" xmlns="http://www.w3.org/2000/svg" xmlns:xlink="http://www.w3.org/1999/xlink" xml:space="preserve" onload="init(evt)">

<style type="text/css"><![CDATA[
.node, .edge {opacity: 0.7;}
.node.selected, .edge.selected {opacity: 1;}
.edge:hover path { stroke: red; }
.edge:hover polygon { stroke: red; fill: red; }
]]></style>

<defs>
  <circle id="rim" cx="0" cy="0" r="7"/>
  <circle id="rim2" cx="0" cy="0" r="3.5"/>
  <g id="zoomPlus">
    <use xlink:href="#rim" fill="#404040"><set attributeName="fill" to="#808080" begin="zoomplus.mouseover" end="zoomplus.mouseout"/></use>
    <path d="M-4,0h8M0,-4v8" fill="none" stroke="white" stroke-width="1.5" pointer-events="none"/>
  </g>
  <g id="zoomMin">
    <use xlink:href="#rim" fill="#404040"><set attributeName="fill" to="#808080" begin="zoomminus.mouseover" end="zoomminus.mouseout"/></use>
    <path d="M-4,0h8" fill="none" stroke="white" stroke-width="1.5" pointer-events="none"/>
  </g>
  <g id="arrowUp" transform="translate(30 24)">
    <use xlink:href="#rim"/>
    <path pointer-events="none" fill="none" stroke="white" stroke-width="1.5" d="M0,-3.0v7 M-2.5,-0.5L0,-3.0L2.5,-0.5"/>
  </g>
  <g id="arrowRight" transform="rotate(90) translate(36 -43)">
    <use xlink:href="#rim"/>
    <path pointer-events="none" fill="none" stroke="white" stroke-width="1.5" d="M0,-3.0v7 M-2.5,-0.5L0,-3.0L2.5,-0.5"/>
  </g>
  <g id="arrowDown" transform="rotate(180) translate(-30 -48)">
    <use xlink:href="#rim"/>
    <path pointer-events="none" fill="none" stroke="white" stroke-width="1.5" d="M0,-3.0v7 M-2.5,-0.5L0,-3.0L2.5,-0.5"/>
  </g>
  <g id="arrowLeft" transform="rotate(270) translate(-36 17)">
    <use xlink:href="#rim"/>
    <path pointer-events="none" fill="none" stroke="white" stroke-width="1.5" d="M0,-3.0v7 M-2.5,-0.5L0,-3.0L2.5,-0.5"/>
  </g>
  <g id="resetDef">
    <use xlink:href="#rim2" fill="#404040"><set attributeName="fill" to="#808080" begin="reset.mouseover" end="reset.mouseout"/></use>
  </g>
</defs>
<script type="application/ecmascript">
var viewWidth = 577;
var viewHeight = 255;
var sectionId = 'dynsection-0';
</script>
<script type="application/ecmascript" xlink:href="svg.min.js"/>
<svg id="graph" class="graph">
<g id="viewport">
<title>syscalls::filter</title>
<!-- Node1 -->
<g id="Node000001" class="node">
<title>Node1</title>
<g id="a_Node000001"><a xlink:title="Generate a syscall filter.">
<polygon fill="#999999" stroke="#666666" points="76.75,-134 0,-134 0,-114 76.75,-114 76.75,-134"/>
<text text-anchor="middle" x="38.38" y="-120.5" font-family="Helvetica,sans-Serif" font-size="10.00">syscalls::filter</text>
</a>
</g>
</g>
<!-- Node1&#45;&gt;Node1 -->
<g id="edge2_Node000001_Node000001" class="edge">
<title>Node1&#45;&gt;Node1</title>
<g id="a_edge2_Node000001_Node000001"><a xlink:title=" ">
<path fill="none" stroke="#63b8ff" d="M19.33,-134.34C11.19,-142.98 17.54,-152 38.38,-152 49.77,-152 56.83,-149.3 59.56,-145.44"/>
<polygon fill="#63b8ff" stroke="#63b8ff" points="63.04,-144.98 57.71,-135.82 56.16,-146.31 63.04,-144.98"/>
</a>
</g>
</g>
<!-- Node2 -->
<g id="Node000002" class="node">
<title>Node2</title>
<g id="a_Node000002"><a xlink:href="namespaceshared.html#ab11bf98c12a2bf0ae3adca902e57befd" target="_top" xlink:title="Extend a container in place.">
<polygon fill="white" stroke="#666666" points="198.5,-247 118,-247 118,-227 198.5,-227 198.5,-247"/>
<text text-anchor="middle" x="158.25" y="-233.5" font-family="Helvetica,sans-Serif" font-size="10.00">shared::extend</text>
</a>
</g>
</g>
<!-- Node1&#45;&gt;Node2 -->
<g id="edge1_Node000001_Node000002" class="edge">
<title>Node1&#45;&gt;Node2</title>
<g id="a_edge1_Node000001_Node000002"><a xlink:title=" ">
<path fill="none" stroke="#63b8ff" d="M45.1,-134.44C55.99,-153.43 81.41,-193.89 112.75,-218 114.08,-219.02 115.48,-220 116.92,-220.94"/>
<polygon fill="#63b8ff" stroke="#63b8ff" points="115.13,-223.95 125.57,-225.76 118.54,-217.84 115.13,-223.95"/>
</a>
</g>
</g>
<!-- Node3 -->
<g id="Node000003" class="node">
<title>Node3</title>
<g id="a_Node000003"><a xlink:href="namespaceshared.html#a4a708359d4c8dbeeaa8b744eec56c0e5" target="_top" xlink:title="Hash a string.">
<polygon fill="white" stroke="#666666" points="194.38,-191 122.12,-191 122.12,-171 194.38,-171 194.38,-191"/>
<text text-anchor="middle" x="158.25" y="-177.5" font-family="Helvetica,sans-Serif" font-size="10.00">shared::hash</text>
</a>
</g>
</g>
<!-- Node1&#45;&gt;Node3 -->
<g id="edge3_Node000001_Node000003" class="edge">
<title>Node1&#45;&gt;Node3</title>
<g id="a_edge3_Node000001_Node000003"><a xlink:title=" ">
<path fill="none" stroke="#63b8ff" d="M58.49,-134.4C73.19,-142.27 94.07,-153.19 112.75,-162 115.67,-163.38 118.72,-164.77 121.79,-166.14"/>
<polygon fill="#63b8ff" stroke="#63b8ff" points="120.2,-169.27 130.77,-170.07 123.01,-162.85 120.2,-169.27"/>
</a>
</g>
</g>
<!-- Node4 -->
<g id="Node000004" class="node">
<title>Node4</title>
<g id="a_Node000004"><a xlink:href="namespaceshared.html#a565b1c521d1f0509c5ec0f237a727f8e" target="_top" xlink:title="Compose a return value from an accumulator function.">
<polygon fill="white" stroke="#666666" points="190.25,-153 126.25,-153 126.25,-133 190.25,-133 190.25,-153"/>
<text text-anchor="middle" x="158.25" y="-139.5" font-family="Helvetica,sans-Serif" font-size="10.00">shared::init</text>
</a>
</g>
</g>
<!-- Node1&#45;&gt;Node4 -->
<g id="edge5_Node000001_Node000004" class="edge">
<title>Node1&#45;&gt;Node4</title>
<g id="a_edge5_Node000001_Node000004"><a xlink:title=" ">
<path fill="none" stroke="#63b8ff" d="M77,-130.06C89.07,-132.01 102.52,-134.18 114.9,-136.17"/>
<polygon fill="#63b8ff" stroke="#63b8ff" points="113.98,-139.57 124.41,-137.71 115.1,-132.66 113.98,-139.57"/>
</a>
</g>
</g>
<!-- Node5 -->
<g id="Node000005" class="node">
<title>Node5</title>
<g id="a_Node000005"><a xlink:href="namespaceshared.html#a99724c73af55fa92ae29fee700152917" target="_top" xlink:title="Log output to console, if verbose.">
<polygon fill="white" stroke="#666666" points="190.25,-115 126.25,-115 126.25,-95 190.25,-95 190.25,-115"/>
<text text-anchor="middle" x="158.25" y="-101.5" font-family="Helvetica,sans-Serif" font-size="10.00">shared::log</text>
</a>
</g>
</g>
<!-- Node1&#45;&gt;Node5 -->
<g id="edge6_Node000001_Node000005" class="edge">
<title>Node1&#45;&gt;Node5</title>
<g id="a_edge6_Node000001_Node000005"><a xlink:title=" ">
<path fill="none" stroke="#63b8ff" d="M77,-117.94C89.07,-115.99 102.52,-113.82 114.9,-111.83"/>
<polygon fill="#63b8ff" stroke="#63b8ff" points="115.1,-115.34 124.41,-110.29 113.98,-108.43 115.1,-115.34"/>
</a>
</g>
</g>
<!-- Node6 -->
<g id="Node000006" class="node">
<title>Node6</title>
<g id="a_Node000006"><a xlink:href="namespaceshared.html#afac154f1bef460ef6f24705f6c033f37" target="_top" xlink:title="Read a file.">
<polygon fill="white" stroke="#666666" points="202.25,-77 114.25,-77 114.25,-57 202.25,-57 202.25,-77"/>
<text text-anchor="middle" x="158.25" y="-63.5" font-family="Helvetica,sans-Serif" font-size="10.00">shared::read_file</text>
</a>
</g>
</g>
<!-- Node1&#45;&gt;Node6 -->
<g id="edge7_Node000001_Node000006" class="edge">
<title>Node1&#45;&gt;Node6</title>
<g id="a_edge7_Node000001_Node000006"><a xlink:title=" ">
<path fill="none" stroke="#63b8ff" d="M58.49,-113.6C73.19,-105.73 94.07,-94.81 112.75,-86 115.67,-84.62 118.72,-83.23 121.79,-81.86"/>
<polygon fill="#63b8ff" stroke="#63b8ff" points="123.01,-85.15 130.77,-77.93 120.2,-78.73 123.01,-85.15"/>
</a>
</g>
</g>
<!-- Node7 -->
<g id="Node000007" class="node">
<title>Node7</title>
<g id="a_Node000007"><a xlink:href="namespaceshared.html#ae5d42a7f6819f149991304227a611c78" target="_top" xlink:title="A Blocking Parser that splits the output into a vector.">
<polygon fill="white" stroke="#666666" points="203.75,-39 112.75,-39 112.75,-19 203.75,-19 203.75,-39"/>
<text text-anchor="middle" x="158.25" y="-25.5" font-family="Helvetica,sans-Serif" font-size="10.00">shared::vectorize</text>
</a>
</g>
</g>
<!-- Node1&#45;&gt;Node7 -->
<g id="edge8_Node000001_Node000007" class="edge">
<title>Node1&#45;&gt;Node7</title>
<g id="a_edge8_Node000001_Node000007"><a xlink:title=" ">
<path fill="none" stroke="#63b8ff" d="M47.13,-113.63C59.49,-97.7 85.11,-67.04 112.75,-48 114.51,-46.78 116.37,-45.62 118.28,-44.52"/>
<polygon fill="#63b8ff" stroke="#63b8ff" points="119.48,-47.83 126.77,-40.14 116.27,-41.61 119.48,-47.83"/>
</a>
</g>
</g>
<!-- Node3&#45;&gt;Node3 -->
<g id="edge4_Node000003_Node000003" class="edge">
<title>Node3&#45;&gt;Node3</title>
<g id="a_edge4_Node000003_Node000003"><a xlink:title=" ">
<path fill="none" stroke="#63b8ff" d="M139.2,-191.34C131.06,-199.98 137.41,-209 158.25,-209 169.65,-209 176.71,-206.3 179.44,-202.44"/>
<polygon fill="#63b8ff" stroke="#63b8ff" points="182.91,-201.98 177.58,-192.82 176.04,-203.31 182.91,-201.98"/>
</a>
</g>
</g>
<!-- Node8 -->
<g id="Node000008" class="node">
<title>Node8</title>
<g id="a_Node000008"><a xlink:href="namespaceshared.html#a3736db9aa00bd9e0a56aeaf1057066c0" target="_top" xlink:title="Split the contents of an FD.">
<polygon fill="white" stroke="#666666" points="333.75,-39 239.75,-39 239.75,-19 333.75,-19 333.75,-39"/>
<text text-anchor="middle" x="286.75" y="-25.5" font-family="Helvetica,sans-Serif" font-size="10.00">shared::fd_splitter</text>
</a>
</g>
</g>
<!-- Node7&#45;&gt;Node8 -->
<g id="edge9_Node000007_Node000008" class="edge">
<title>Node7&#45;&gt;Node8</title>
<g id="a_edge9_Node000007_Node000008"><a xlink:title=" ">
<path fill="none" stroke="#63b8ff" d="M204.21,-29C212.02,-29 220.25,-29 228.35,-29"/>
<polygon fill="#63b8ff" stroke="#63b8ff" points="228.14,-32.5 238.14,-29 228.14,-25.5 228.14,-32.5"/>
</a>
</g>
</g>
<!-- Node9 -->
<g id="Node000009" class="node">
<title>Node9</title>
<g id="a_Node000009"><a xlink:href="namespaceshared.html#a80f3b59804700742a5a0c6ea15bf24f9" target="_top" xlink:title="A Blocking Parser that returns the output in a single string.">
<polygon fill="white" stroke="#666666" points="447.62,-58 372.38,-58 372.38,-38 447.62,-38 447.62,-58"/>
<text text-anchor="middle" x="410" y="-44.5" font-family="Helvetica,sans-Serif" font-size="10.00">shared::dump</text>
</a>
</g>
</g>
<!-- Node8&#45;&gt;Node9 -->
<g id="edge10_Node000008_Node000009" class="edge">
<title>Node8&#45;&gt;Node9</title>
<g id="a_edge10_Node000008_Node000009"><a xlink:title=" ">
<path fill="none" stroke="#63b8ff" d="M333.94,-36.24C342.68,-37.61 351.86,-39.05 360.67,-40.43"/>
<polygon fill="#63b8ff" stroke="#63b8ff" points="360.06,-43.87 370.48,-41.96 361.15,-36.96 360.06,-43.87"/>
</a>
</g>
</g>
<!-- Node10 -->
<g id="Node000010" class="node">
<title>Node10</title>
<g id="a_Node000010"><a xlink:href="namespaceshared.html#a690cc836408825d804377522d9d99a07" target="_top" xlink:title="Split a string.">
<polygon fill="white" stroke="#666666" points="450.25,-20 369.75,-20 369.75,0 450.25,0 450.25,-20"/>
<text text-anchor="middle" x="410" y="-6.5" font-family="Helvetica,sans-Serif" font-size="10.00">shared::splitter</text>
</a>
</g>
</g>
<!-- Node8&#45;&gt;Node10 -->
<g id="edge11_Node000008_Node000010" class="edge">
<title>Node8&#45;&gt;Node10</title>
<g id="a_edge11_Node000008_Node000010"><a xlink:title=" ">
<path fill="none" stroke="#63b8ff" d="M333.94,-21.76C341.85,-20.52 350.11,-19.23 358.14,-17.97"/>
<polygon fill="#63b8ff" stroke="#63b8ff" points="358.44,-21.47 367.78,-16.46 357.36,-14.55 358.44,-21.47"/>
</a>
</g>
</g>
<!-- Node11 -->
<g id="Node000011" class="node">
<title>Node11</title>
<g id="a_Node000011"><a xlink:href="namespaceshared.html#a6282d0d8d2ab3f70038d7428729c15ca" target="_top" xlink:title="Escape a string.">
<polygon fill="white" stroke="#666666" points="569,-20 486.25,-20 486.25,0 569,0 569,-20"/>
<text text-anchor="middle" x="527.62" y="-6.5" font-family="Helvetica,sans-Serif" font-size="10.00">shared::escape</text>
</a>
</g>
</g>
<!-- Node10&#45;&gt;Node11 -->
<g id="edge12_Node000010_Node000011" class="edge">
<title>Node10&#45;&gt;Node11</title>
<g id="a_edge12_Node000010_Node000011"><a xlink:title=" ">
<path fill="none" stroke="#63b8ff" d="M450.47,-10C458.21,-10 466.43,-10 474.51,-10"/>
<polygon fill="#63b8ff" stroke="#63b8ff" points="474.25,-13.5 484.25,-10 474.25,-6.5 474.25,-13.5"/>
</a>
</g>
</g>
</g>
</svg>

<g id="navigator" transform="translate(0 0)" fill="#404254">
  <rect fill="#f2f5e9" fill-opacity="0.5" stroke="#606060" stroke-width=".5" x="0" y="0" width="60" height="60"/>
  <use id="zoomplus" xlink:href="#zoomPlus" x="17" y="9" onmousedown="handleZoom(evt,'in')"/>
  <use id="zoomminus" xlink:href="#zoomMin" x="42" y="9" onmousedown="handleZoom(evt,'out')"/>
  <use id="reset" xlink:href="#resetDef" x="30" y="36" onmousedown="handleReset()"/>
   <use id="arrowup" xlink:href="#arrowUp" x="0" y="0" onmousedown="handlePan(0,-1)"/>
  <use id="arrowright" xlink:href="#arrowRight" x="0" y="0" onmousedown="handlePan(1,0)"/>
  <use id="arrowdown" xlink:href="#arrowDown" x="0" y="0" onmousedown="handlePan(0,1)"/>
  <use id="arrowleft" xlink:href="#arrowLeft" x="0" y="0" onmousedown="handlePan(-1,0)"/>
</g>
<svg viewBox="0 0 15 15" width="100%" height="30px" preserveAspectRatio="xMaxYMin meet">
 <g id="arrow_out" transform="scale(0.3 0.3)">
  <a xlink:href="namespacesyscalls_aabdab752b02a21ab92e3af4fabba493b_cgraph_org.svg" target="_base">
   <rect id="button" ry="5" rx="5" y="6" x="6" height="38" width="38"
        fill="#f2f5e9" fill-opacity="0.5" stroke="#606060" stroke-width="1.0"/>
   <path id="arrow"
     d="M 11.500037,31.436501 C 11.940474,20.09759 22.043105,11.32322 32.158766,21.979434 L 37.068811,17.246167 C 37.068811,17.246167 37.088388,32 37.088388,32 L 22.160133,31.978069 C 22.160133,31.978069 26.997745,27.140456 26.997745,27.140456 C 18.528582,18.264221 13.291696,25.230495 11.500037,31.436501 z"
     style="fill:#404040;"/>
  </a>
 </g>
</svg>

<style type='text/css'>
<![CDATA[
[data-mouse-over-selected='false'] { opacity: 0.7; }
[data-mouse-over-selected='true']  { opacity: 1.0; }
]]>
</style>
<script type="application/ecmascript"><![CDATA[
document.addEventListener('DOMContentLoaded', (event) => {
  highlightEdges();
  highlightAdjacentNodes();
});
]]></script>
</svg>
