<?xml version="1.0" encoding="UTF-8" standalone="no"?>
<!DOCTYPE svg PUBLIC "-//W3C//DTD SVG 1.1//EN"
 "http://www.w3.org/Graphics/SVG/1.1/DTD/svg11.dtd">
<!-- Generated by graphviz version 12.2.1 (0)
 -->
<!-- Title: libraries::setup Pages: 1 -->
<svg width="225pt" height="66pt"
 viewBox="0.00 0.00 224.50 66.00" xmlns="http://www.w3.org/2000/svg" xmlns:xlink="http://www.w3.org/1999/xlink">
<g id="graph0" class="graph" transform="scale(1 1) rotate(0) translate(4 62)">
<title>libraries::setup</title>
<!-- Node1 -->
<g id="Node000001" class="node">
<title>Node1</title>
<g id="a_Node000001"><a xlink:title="Setup an SOF directory.">
<polygon fill="#999999" stroke="#666666" points="79.75,-39 0,-39 0,-19 79.75,-19 79.75,-39"/>
<text text-anchor="middle" x="39.88" y="-25.5" font-family="Helvetica,sans-Serif" font-size="10.00">libraries::setup</text>
</a>
</g>
</g>
<!-- Node2 -->
<g id="Node000002" class="node">
<title>Node2</title>
<g id="a_Node000002"><a xlink:href="namespaceshared.html#ad10b700d545b2e01515db6e550c9b2e6" target="_top" xlink:title="Wait for an inotify watcher.">
<polygon fill="white" stroke="#666666" points="216.5,-58 115.75,-58 115.75,-38 216.5,-38 216.5,-58"/>
<text text-anchor="middle" x="166.12" y="-44.5" font-family="Helvetica,sans-Serif" font-size="10.00">shared::inotify_wait</text>
</a>
</g>
</g>
<!-- Node1&#45;&gt;Node2 -->
<g id="edge1_Node000001_Node000002" class="edge">
<title>Node1&#45;&gt;Node2</title>
<g id="a_edge1_Node000001_Node000002"><a xlink:title=" ">
<path fill="none" stroke="#63b8ff" d="M80.19,-35.01C87.91,-36.19 96.18,-37.46 104.42,-38.72"/>
<polygon fill="#63b8ff" stroke="#63b8ff" points="103.66,-42.14 114.08,-40.19 104.72,-35.22 103.66,-42.14"/>
</a>
</g>
</g>
<!-- Node3 -->
<g id="Node000003" class="node">
<title>Node3</title>
<g id="a_Node000003"><a xlink:href="namespaceshared.html#a99724c73af55fa92ae29fee700152917" target="_top" xlink:title="Log output to console, if verbose.">
<polygon fill="white" stroke="#666666" points="198.12,-20 134.12,-20 134.12,0 198.12,0 198.12,-20"/>
<text text-anchor="middle" x="166.12" y="-6.5" font-family="Helvetica,sans-Serif" font-size="10.00">shared::log</text>
</a>
</g>
</g>
<!-- Node1&#45;&gt;Node3 -->
<g id="edge2_Node000001_Node000003" class="edge">
<title>Node1&#45;&gt;Node3</title>
<g id="a_edge2_Node000001_Node000003"><a xlink:title=" ">
<path fill="none" stroke="#63b8ff" d="M80.19,-22.99C93.74,-20.92 108.98,-18.59 122.76,-16.48"/>
<polygon fill="#63b8ff" stroke="#63b8ff" points="123.08,-19.97 132.44,-15 122.02,-13.05 123.08,-19.97"/>
</a>
</g>
</g>
</g>
</svg>
