<?xml version="1.0" encoding="UTF-8" standalone="no"?>
<!DOCTYPE svg PUBLIC "-//W3C//DTD SVG 1.1//EN"
 "http://www.w3.org/Graphics/SVG/1.1/DTD/svg11.dtd">
<!-- Generated by graphviz version 12.2.1 (0)
 -->
<!-- Title: shared::log Pages: 1 -->
<svg width="614pt" height="352pt"
 viewBox="0.00 0.00 613.75 352.43" xmlns="http://www.w3.org/2000/svg" xmlns:xlink="http://www.w3.org/1999/xlink">
<g id="graph0" class="graph" transform="scale(1 1) rotate(0) translate(4 348.43)">
<title>shared::log</title>
<!-- Node1 -->
<g id="Node000001" class="node">
<title>Node1</title>
<g id="a_Node000001"><a xlink:title="Log output to console, if verbose.">
<polygon fill="#999999" stroke="#666666" points="605.75,-171 541.75,-171 541.75,-151 605.75,-151 605.75,-171"/>
<text text-anchor="middle" x="573.75" y="-157.5" font-family="Helvetica,sans-Serif" font-size="10.00">shared::log</text>
</a>
</g>
</g>
<!-- Node2 -->
<g id="Node000002" class="node">
<title>Node2</title>
<g id="a_Node000002"><a xlink:href="namespacegenerate.html#a38dcdfdf9293b8aafe77392021d65019" target="_top" xlink:title="Generate the bulk of the main program command.">
<polygon fill="white" stroke="#666666" points="225.88,-304 147.62,-304 147.62,-284 225.88,-284 225.88,-304"/>
<text text-anchor="middle" x="186.75" y="-290.5" font-family="Helvetica,sans-Serif" font-size="10.00">generate::cmd</text>
</a>
</g>
</g>
<!-- Node1&#45;&gt;Node2 -->
<g id="edge1_Node000001_Node000002" class="edge">
<title>Node1&#45;&gt;Node2</title>
<g id="a_edge1_Node000001_Node000002"><a xlink:title=" ">
<path fill="none" stroke="#63b8ff" d="M567.21,-182.4C558.75,-210.78 539.89,-260.46 505.75,-288 423.53,-354.32 375.38,-352.7 272,-331 247.77,-325.91 221.99,-313.42 205.43,-304.36"/>
<polygon fill="#63b8ff" stroke="#63b8ff" points="570.57,-183.38 569.89,-172.81 563.83,-181.5 570.57,-183.38"/>
</a>
</g>
</g>
<!-- Node3 -->
<g id="Node000003" class="node">
<title>Node3</title>
<g id="a_Node000003"><a xlink:href="namespacegenerate.html#a856a8762019042bef78ae7778e85bca1" target="_top" xlink:title="Handle an encrypted FS Sandbox.">
<polygon fill="white" stroke="#666666" points="497.88,-152 395.62,-152 395.62,-132 497.88,-132 497.88,-152"/>
<text text-anchor="middle" x="446.75" y="-138.5" font-family="Helvetica,sans-Serif" font-size="10.00">generate::encrypted</text>
</a>
</g>
</g>
<!-- Node1&#45;&gt;Node3 -->
<g id="edge2_Node000001_Node000003" class="edge">
<title>Node1&#45;&gt;Node3</title>
<g id="a_edge2_Node000001_Node000003"><a xlink:title=" ">
<path fill="none" stroke="#63b8ff" d="M530.24,-154.54C519.88,-152.96 508.69,-151.26 498,-149.64"/>
<polygon fill="#63b8ff" stroke="#63b8ff" points="529.62,-157.98 540.03,-156.03 530.67,-151.06 529.62,-157.98"/>
</a>
</g>
</g>
<!-- Node4 -->
<g id="Node000004" class="node">
<title>Node4</title>
<g id="a_Node000004"><a xlink:href="namespacesyscalls.html#aabdab752b02a21ab92e3af4fabba493b" target="_top" xlink:title="Generate a syscall filter.">
<polygon fill="white" stroke="#666666" points="485.12,-96 408.38,-96 408.38,-76 485.12,-76 485.12,-96"/>
<text text-anchor="middle" x="446.75" y="-82.5" font-family="Helvetica,sans-Serif" font-size="10.00">syscalls::filter</text>
</a>
</g>
</g>
<!-- Node1&#45;&gt;Node4 -->
<g id="edge3_Node000001_Node000004" class="edge">
<title>Node1&#45;&gt;Node4</title>
<g id="a_edge3_Node000001_Node000004"><a xlink:title=" ">
<path fill="none" stroke="#63b8ff" d="M545.61,-144.71C521.11,-130.01 485.81,-108.84 464.98,-96.34"/>
<polygon fill="#63b8ff" stroke="#63b8ff" points="543.7,-147.65 554.07,-149.79 547.3,-141.65 543.7,-147.65"/>
</a>
</g>
</g>
<!-- Node5 -->
<g id="Node000005" class="node">
<title>Node5</title>
<g id="a_Node000005"><a xlink:href="namespaceshared.html#a00b81f070735db096bbcd00c9d87188e" target="_top" xlink:title="Attach an environment variable to the sandbox.">
<polygon fill="white" stroke="#666666" points="482.88,-58 410.62,-58 410.62,-38 482.88,-38 482.88,-58"/>
<text text-anchor="middle" x="446.75" y="-44.5" font-family="Helvetica,sans-Serif" font-size="10.00">shared::genv</text>
</a>
</g>
</g>
<!-- Node1&#45;&gt;Node5 -->
<g id="edge5_Node000001_Node000005" class="edge">
<title>Node1&#45;&gt;Node5</title>
<g id="a_edge5_Node000001_Node000005"><a xlink:title=" ">
<path fill="none" stroke="#63b8ff" d="M563.02,-140.36C551.97,-119.07 532.03,-86.32 505.75,-67 499.09,-62.1 491.11,-58.43 483.22,-55.68"/>
<polygon fill="#63b8ff" stroke="#63b8ff" points="559.84,-141.83 567.42,-149.23 566.11,-138.72 559.84,-141.83"/>
</a>
</g>
</g>
<!-- Node6 -->
<g id="Node000006" class="node">
<title>Node6</title>
<g id="a_Node000006"><a xlink:href="namespacelibraries.html#a4dfd6ab45adf8dc18ea57bc1f88eaedf" target="_top" xlink:title="Recursively resolve all shared&#45;libraries needed by a library.">
<polygon fill="white" stroke="#666666" points="481.38,-247 412.12,-247 412.12,-227 481.38,-227 481.38,-247"/>
<text text-anchor="middle" x="446.75" y="-233.5" font-family="Helvetica,sans-Serif" font-size="10.00">libraries::get</text>
</a>
</g>
</g>
<!-- Node1&#45;&gt;Node6 -->
<g id="edge6_Node000001_Node000006" class="edge">
<title>Node1&#45;&gt;Node6</title>
<g id="a_edge6_Node000001_Node000006"><a xlink:title=" ">
<path fill="none" stroke="#63b8ff" d="M545.83,-177.37C521.2,-192.35 485.51,-214.04 464.66,-226.72"/>
<polygon fill="#63b8ff" stroke="#63b8ff" points="547.61,-180.38 554.34,-172.19 543.98,-174.4 547.61,-180.38"/>
</a>
</g>
</g>
<!-- Node7 -->
<g id="Node000007" class="node">
<title>Node7</title>
<g id="a_Node000007"><a xlink:href="namespacebinaries.html#ac1478c81b2eb2c4ecdba98e92c4e7651" target="_top" xlink:title="Parse a binary to determine dependencies.">
<polygon fill="white" stroke="#666666" points="351.75,-304 272,-304 272,-284 351.75,-284 351.75,-304"/>
<text text-anchor="middle" x="311.88" y="-290.5" font-family="Helvetica,sans-Serif" font-size="10.00">binaries::parse</text>
</a>
</g>
</g>
<!-- Node1&#45;&gt;Node7 -->
<g id="edge14_Node000001_Node000007" class="edge">
<title>Node1&#45;&gt;Node7</title>
<g id="a_edge14_Node000001_Node000007"><a xlink:title=" ">
<path fill="none" stroke="#63b8ff" d="M564,-181.53C553.49,-203.56 533.72,-237.85 505.75,-256 458.94,-286.37 393.25,-293.45 351.89,-294.6"/>
<polygon fill="#63b8ff" stroke="#63b8ff" points="567.08,-183.2 568.02,-172.65 560.71,-180.31 567.08,-183.2"/>
</a>
</g>
</g>
<!-- Node8 -->
<g id="Node000008" class="node">
<title>Node8</title>
<g id="a_Node000008"><a xlink:href="namespacegenerate.html#a17cf0da8addab269d21c2c8074d85c4e" target="_top" xlink:title="Setup the Proxy&#39;s SOF.">
<polygon fill="white" stroke="#666666" points="236,-228 137.5,-228 137.5,-208 236,-208 236,-228"/>
<text text-anchor="middle" x="186.75" y="-214.5" font-family="Helvetica,sans-Serif" font-size="10.00">generate::proxy_lib</text>
</a>
</g>
</g>
<!-- Node1&#45;&gt;Node8 -->
<g id="edge15_Node000001_Node000008" class="edge">
<title>Node1&#45;&gt;Node8</title>
<g id="a_edge15_Node000001_Node000008"><a xlink:title=" ">
<path fill="none" stroke="#63b8ff" d="M530.24,-167.29C458.18,-177.96 312.45,-199.54 236.41,-210.8"/>
<polygon fill="#63b8ff" stroke="#63b8ff" points="530.69,-170.76 540.07,-165.84 529.67,-163.84 530.69,-170.76"/>
</a>
</g>
</g>
<!-- Node10 -->
<g id="Node000010" class="node">
<title>Node10</title>
<g id="a_Node000010"><a xlink:href="namespacesyscalls.html#a501461c3842033cfab85ba4b8f328ed8" target="_top" xlink:title="Append an existing policy with newly discovered syscalls.">
<polygon fill="white" stroke="#666666" points="505.75,-20 387.75,-20 387.75,0 505.75,0 505.75,-20"/>
<text text-anchor="middle" x="446.75" y="-6.5" font-family="Helvetica,sans-Serif" font-size="10.00">syscalls::update_policy</text>
</a>
</g>
</g>
<!-- Node1&#45;&gt;Node10 -->
<g id="edge16_Node000001_Node000010" class="edge">
<title>Node1&#45;&gt;Node10</title>
<g id="a_edge16_Node000001_Node000010"><a xlink:title=" ">
<path fill="none" stroke="#63b8ff" d="M567.5,-139.81C559.22,-110.74 540.4,-58.72 505.75,-29 501.73,-25.55 497.06,-22.72 492.16,-20.41"/>
<polygon fill="#63b8ff" stroke="#63b8ff" points="564.06,-140.52 570.03,-149.27 570.83,-138.71 564.06,-140.52"/>
</a>
</g>
</g>
<!-- Node4&#45;&gt;Node4 -->
<g id="edge4_Node000004_Node000004" class="edge">
<title>Node4&#45;&gt;Node4</title>
<g id="a_edge4_Node000004_Node000004"><a xlink:title=" ">
<path fill="none" stroke="#63b8ff" d="M469.2,-107.44C466.31,-111.3 458.82,-114 446.75,-114 424.67,-114 417.95,-104.98 426.57,-96.34"/>
<polygon fill="#63b8ff" stroke="#63b8ff" points="472.66,-106.92 467.23,-97.82 465.8,-108.32 472.66,-106.92"/>
</a>
</g>
</g>
<!-- Node6&#45;&gt;Node2 -->
<g id="edge7_Node000006_Node000002" class="edge">
<title>Node6&#45;&gt;Node2</title>
<g id="a_edge7_Node000006_Node000002"><a xlink:title=" ">
<path fill="none" stroke="#63b8ff" d="M400.93,-246.72C365.84,-254.35 315.79,-265.27 272,-275 257.07,-278.32 240.66,-282.01 226.32,-285.25"/>
<polygon fill="#63b8ff" stroke="#63b8ff" points="401.27,-250.23 410.3,-244.68 399.78,-243.39 401.27,-250.23"/>
</a>
</g>
</g>
<!-- Node6&#45;&gt;Node7 -->
<g id="edge8_Node000006_Node000007" class="edge">
<title>Node6&#45;&gt;Node7</title>
<g id="a_edge8_Node000006_Node000007"><a xlink:title=" ">
<path fill="none" stroke="#63b8ff" d="M410.91,-251.94C387.69,-261.91 357.74,-274.75 337.09,-283.61"/>
<polygon fill="#63b8ff" stroke="#63b8ff" points="412.18,-255.21 419.99,-248.05 409.42,-248.78 412.18,-255.21"/>
</a>
</g>
</g>
<!-- Node6&#45;&gt;Node8 -->
<g id="edge13_Node000006_Node000008" class="edge">
<title>Node6&#45;&gt;Node8</title>
<g id="a_edge13_Node000006_Node000008"><a xlink:title=" ">
<path fill="none" stroke="#63b8ff" d="M400.34,-233.66C354.35,-230.27 283.46,-225.05 236.36,-221.58"/>
<polygon fill="#63b8ff" stroke="#63b8ff" points="400.02,-237.14 410.25,-234.39 400.53,-230.16 400.02,-237.14"/>
</a>
</g>
</g>
<!-- Node7&#45;&gt;Node2 -->
<g id="edge9_Node000007_Node000002" class="edge">
<title>Node7&#45;&gt;Node2</title>
<g id="a_edge9_Node000007_Node000002"><a xlink:title=" ">
<path fill="none" stroke="#63b8ff" d="M260.41,-294C249,-294 237.07,-294 226.25,-294"/>
<polygon fill="#63b8ff" stroke="#63b8ff" points="260.07,-297.5 270.07,-294 260.07,-290.5 260.07,-297.5"/>
</a>
</g>
</g>
<!-- Node7&#45;&gt;Node7 -->
<g id="edge10_Node000007_Node000007" class="edge">
<title>Node7&#45;&gt;Node7</title>
<g id="a_edge10_Node000007_Node000007"><a xlink:title=" ">
<path fill="none" stroke="#63b8ff" d="M333.99,-315.44C331.14,-319.3 323.77,-322 311.88,-322 290.12,-322 283.5,-312.98 291.99,-304.34"/>
<polygon fill="#63b8ff" stroke="#63b8ff" points="337.46,-314.94 332.05,-305.82 330.6,-316.32 337.46,-314.94"/>
</a>
</g>
</g>
<!-- Node7&#45;&gt;Node8 -->
<g id="edge11_Node000007_Node000008" class="edge">
<title>Node7&#45;&gt;Node8</title>
<g id="a_edge11_Node000007_Node000008"><a xlink:title=" ">
<path fill="none" stroke="#63b8ff" d="M284.36,-277.63C260.09,-262.65 224.94,-240.96 204.41,-228.28"/>
<polygon fill="#63b8ff" stroke="#63b8ff" points="282.38,-280.52 292.73,-282.8 286.05,-274.57 282.38,-280.52"/>
</a>
</g>
</g>
<!-- Node9 -->
<g id="Node000009" class="node">
<title>Node9</title>
<g id="a_Node000009"><a xlink:href="namespacegenerate.html#a5c0026523dd30f942c55ad25f1b607b4" target="_top" xlink:title="Spawn an instance of the xdg&#45;dbus&#45;proxy for the application instance.">
<polygon fill="white" stroke="#666666" points="101.5,-234 0,-234 0,-202 101.5,-202 101.5,-234"/>
<text text-anchor="start" x="8" y="-220.5" font-family="Helvetica,sans-Serif" font-size="10.00">generate::xdg_dbus</text>
<text text-anchor="middle" x="50.75" y="-208.5" font-family="Helvetica,sans-Serif" font-size="10.00">_proxy</text>
</a>
</g>
</g>
<!-- Node8&#45;&gt;Node9 -->
<g id="edge12_Node000008_Node000009" class="edge">
<title>Node8&#45;&gt;Node9</title>
<g id="a_edge12_Node000008_Node000009"><a xlink:title=" ">
<path fill="none" stroke="#63b8ff" d="M126.08,-218C117.99,-218 109.76,-218 101.86,-218"/>
<polygon fill="#63b8ff" stroke="#63b8ff" points="125.86,-221.5 135.86,-218 125.86,-214.5 125.86,-221.5"/>
</a>
</g>
</g>
</g>
</svg>
