<?xml version="1.0" encoding="UTF-8" standalone="no"?>
<!DOCTYPE svg PUBLIC "-//W3C//DTD SVG 1.1//EN"
 "http://www.w3.org/Graphics/SVG/1.1/DTD/svg11.dtd">
<!-- Generated by graphviz version 12.2.1 (0)
 -->
<!-- Title: shared::batch Pages: 1 -->
<svg width="576pt" height="109pt"
 viewBox="0.00 0.00 576.25 109.00" xmlns="http://www.w3.org/2000/svg" xmlns:xlink="http://www.w3.org/1999/xlink">
<g id="graph0" class="graph" transform="scale(1 1) rotate(0) translate(4 105)">
<title>shared::batch</title>
<!-- Node1 -->
<g id="Node000001" class="node">
<title>Node1</title>
<g id="a_Node000001"><a xlink:title="Batch multiple iterations of an accumulator function together, threaded.">
<polygon fill="#999999" stroke="#666666" points="568.25,-92 493,-92 493,-72 568.25,-72 568.25,-92"/>
<text text-anchor="middle" x="530.62" y="-78.5" font-family="Helvetica,sans-Serif" font-size="10.00">shared::batch</text>
</a>
</g>
</g>
<!-- Node2 -->
<g id="Node000002" class="node">
<title>Node2</title>
<g id="a_Node000002"><a xlink:href="namespacegenerate.html#a38dcdfdf9293b8aafe77392021d65019" target="_top" xlink:title="Generate the bulk of the main program command.">
<polygon fill="white" stroke="#666666" points="225.88,-101 147.62,-101 147.62,-81 225.88,-81 225.88,-101"/>
<text text-anchor="middle" x="186.75" y="-87.5" font-family="Helvetica,sans-Serif" font-size="10.00">generate::cmd</text>
</a>
</g>
</g>
<!-- Node1&#45;&gt;Node2 -->
<g id="edge1_Node000001_Node000002" class="edge">
<title>Node1&#45;&gt;Node2</title>
<g id="a_edge1_Node000001_Node000002"><a xlink:title=" ">
<path fill="none" stroke="#63b8ff" d="M481.42,-85.1C445.65,-87.24 395.68,-89.89 351.75,-91 308.77,-92.09 259.44,-91.89 226.2,-91.55"/>
<polygon fill="#63b8ff" stroke="#63b8ff" points="481.23,-88.62 491,-84.52 480.81,-81.63 481.23,-88.62"/>
</a>
</g>
</g>
<!-- Node3 -->
<g id="Node000003" class="node">
<title>Node3</title>
<g id="a_Node000003"><a xlink:href="namespacelibraries.html#a4dfd6ab45adf8dc18ea57bc1f88eaedf" target="_top" xlink:title="Recursively resolve all shared&#45;libraries needed by a library.">
<polygon fill="white" stroke="#666666" points="457,-73 387.75,-73 387.75,-53 457,-53 457,-73"/>
<text text-anchor="middle" x="422.38" y="-59.5" font-family="Helvetica,sans-Serif" font-size="10.00">libraries::get</text>
</a>
</g>
</g>
<!-- Node1&#45;&gt;Node3 -->
<g id="edge2_Node000001_Node000003" class="edge">
<title>Node1&#45;&gt;Node3</title>
<g id="a_edge2_Node000001_Node000003"><a xlink:title=" ">
<path fill="none" stroke="#63b8ff" d="M481.44,-73.38C473.3,-71.93 465,-70.44 457.32,-69.07"/>
<polygon fill="#63b8ff" stroke="#63b8ff" points="480.81,-76.83 491.27,-75.14 482.04,-69.94 480.81,-76.83"/>
</a>
</g>
</g>
<!-- Node3&#45;&gt;Node2 -->
<g id="edge3_Node000003_Node000002" class="edge">
<title>Node3&#45;&gt;Node2</title>
<g id="a_edge3_Node000003_Node000002"><a xlink:title=" ">
<path fill="none" stroke="#63b8ff" d="M376.16,-68.93C368.04,-69.97 359.64,-71.03 351.75,-72 308.79,-77.26 259.45,-82.93 226.21,-86.69"/>
<polygon fill="#63b8ff" stroke="#63b8ff" points="376.42,-72.43 385.89,-67.68 375.52,-65.49 376.42,-72.43"/>
</a>
</g>
</g>
<!-- Node4 -->
<g id="Node000004" class="node">
<title>Node4</title>
<g id="a_Node000004"><a xlink:href="namespacebinaries.html#ac1478c81b2eb2c4ecdba98e92c4e7651" target="_top" xlink:title="Parse a binary to determine dependencies.">
<polygon fill="white" stroke="#666666" points="351.75,-45 272,-45 272,-25 351.75,-25 351.75,-45"/>
<text text-anchor="middle" x="311.88" y="-31.5" font-family="Helvetica,sans-Serif" font-size="10.00">binaries::parse</text>
</a>
</g>
</g>
<!-- Node3&#45;&gt;Node4 -->
<g id="edge4_Node000003_Node000004" class="edge">
<title>Node3&#45;&gt;Node4</title>
<g id="a_edge4_Node000003_Node000004"><a xlink:title=" ">
<path fill="none" stroke="#63b8ff" d="M376.26,-51.36C368.23,-49.29 359.93,-47.14 352.09,-45.12"/>
<polygon fill="#63b8ff" stroke="#63b8ff" points="375.32,-54.73 385.88,-53.84 377.07,-47.95 375.32,-54.73"/>
</a>
</g>
</g>
<!-- Node5 -->
<g id="Node000005" class="node">
<title>Node5</title>
<g id="a_Node000005"><a xlink:href="namespacegenerate.html#a17cf0da8addab269d21c2c8074d85c4e" target="_top" xlink:title="Setup the Proxy&#39;s SOF.">
<polygon fill="white" stroke="#666666" points="236,-26 137.5,-26 137.5,-6 236,-6 236,-26"/>
<text text-anchor="middle" x="186.75" y="-12.5" font-family="Helvetica,sans-Serif" font-size="10.00">generate::proxy_lib</text>
</a>
</g>
</g>
<!-- Node3&#45;&gt;Node5 -->
<g id="edge9_Node000003_Node000005" class="edge">
<title>Node3&#45;&gt;Node5</title>
<g id="a_edge9_Node000003_Node000005"><a xlink:title=" ">
<path fill="none" stroke="#63b8ff" d="M402.09,-45.33C388.96,-34.55 370.6,-21.77 351.75,-16 314.18,-4.51 269.46,-5.4 236.21,-8.67"/>
<polygon fill="#63b8ff" stroke="#63b8ff" points="399.64,-47.84 409.51,-51.71 404.21,-42.54 399.64,-47.84"/>
</a>
</g>
</g>
<!-- Node4&#45;&gt;Node2 -->
<g id="edge5_Node000004_Node000002" class="edge">
<title>Node4&#45;&gt;Node2</title>
<g id="a_edge5_Node000004_Node000002"><a xlink:title=" ">
<path fill="none" stroke="#63b8ff" d="M277.78,-50.05C256.49,-59.73 229.38,-72.07 210.5,-80.65"/>
<polygon fill="#63b8ff" stroke="#63b8ff" points="278.97,-53.35 286.63,-46.03 276.08,-46.98 278.97,-53.35"/>
</a>
</g>
</g>
<!-- Node4&#45;&gt;Node4 -->
<g id="edge6_Node000004_Node000004" class="edge">
<title>Node4&#45;&gt;Node4</title>
<g id="a_edge6_Node000004_Node000004"><a xlink:title=" ">
<path fill="none" stroke="#63b8ff" d="M331.41,-56.44C328.89,-60.3 322.38,-63 311.88,-63 292.67,-63 286.81,-53.98 294.32,-45.34"/>
<polygon fill="#63b8ff" stroke="#63b8ff" points="334.89,-56.06 329.7,-46.83 328,-57.29 334.89,-56.06"/>
</a>
</g>
</g>
<!-- Node4&#45;&gt;Node5 -->
<g id="edge7_Node000004_Node000005" class="edge">
<title>Node4&#45;&gt;Node5</title>
<g id="a_edge7_Node000004_Node000005"><a xlink:title=" ">
<path fill="none" stroke="#63b8ff" d="M260.46,-27.22C252.44,-25.98 244.15,-24.7 236.17,-23.47"/>
<polygon fill="#63b8ff" stroke="#63b8ff" points="259.67,-30.64 270.08,-28.71 260.73,-23.72 259.67,-30.64"/>
</a>
</g>
</g>
<!-- Node6 -->
<g id="Node000006" class="node">
<title>Node6</title>
<g id="a_Node000006"><a xlink:href="namespacegenerate.html#a5c0026523dd30f942c55ad25f1b607b4" target="_top" xlink:title="Spawn an instance of the xdg&#45;dbus&#45;proxy for the application instance.">
<polygon fill="white" stroke="#666666" points="101.5,-32 0,-32 0,0 101.5,0 101.5,-32"/>
<text text-anchor="start" x="8" y="-18.5" font-family="Helvetica,sans-Serif" font-size="10.00">generate::xdg_dbus</text>
<text text-anchor="middle" x="50.75" y="-6.5" font-family="Helvetica,sans-Serif" font-size="10.00">_proxy</text>
</a>
</g>
</g>
<!-- Node5&#45;&gt;Node6 -->
<g id="edge8_Node000005_Node000006" class="edge">
<title>Node5&#45;&gt;Node6</title>
<g id="a_edge8_Node000005_Node000006"><a xlink:title=" ">
<path fill="none" stroke="#63b8ff" d="M126.08,-16C117.99,-16 109.76,-16 101.86,-16"/>
<polygon fill="#63b8ff" stroke="#63b8ff" points="125.86,-19.5 135.86,-16 125.86,-12.5 125.86,-19.5"/>
</a>
</g>
</g>
</g>
</svg>
