<?xml version="1.0" encoding="UTF-8" standalone="no"?>
<!DOCTYPE svg PUBLIC "-//W3C//DTD SVG 1.1//EN"
 "http://www.w3.org/Graphics/SVG/1.1/DTD/svg11.dtd">
<!-- Generated by graphviz version 12.2.1 (0)
 -->
<!-- Title: shared::vectorize Pages: 1 -->
<svg width="256pt" height="198pt"
 viewBox="0.00 0.00 256.00 198.00" xmlns="http://www.w3.org/2000/svg" xmlns:xlink="http://www.w3.org/1999/xlink">
<g id="graph0" class="graph" transform="scale(1 1) rotate(0) translate(4 194)">
<title>shared::vectorize</title>
<!-- Node1 -->
<g id="Node000001" class="node">
<title>Node1</title>
<g id="a_Node000001"><a xlink:title="A Blocking Parser that splits the output into a vector.">
<polygon fill="#999999" stroke="#666666" points="248,-96 157,-96 157,-76 248,-76 248,-96"/>
<text text-anchor="middle" x="202.5" y="-82.5" font-family="Helvetica,sans-Serif" font-size="10.00">shared::vectorize</text>
</a>
</g>
</g>
<!-- Node2 -->
<g id="Node000002" class="node">
<title>Node2</title>
<g id="a_Node000002"><a xlink:href="namespacegenerate.html#a38dcdfdf9293b8aafe77392021d65019" target="_top" xlink:title="Generate the bulk of the main program command.">
<polygon fill="white" stroke="#666666" points="99.62,-190 21.38,-190 21.38,-170 99.62,-170 99.62,-190"/>
<text text-anchor="middle" x="60.5" y="-176.5" font-family="Helvetica,sans-Serif" font-size="10.00">generate::cmd</text>
</a>
</g>
</g>
<!-- Node1&#45;&gt;Node2 -->
<g id="edge1_Node000001_Node000002" class="edge">
<title>Node1&#45;&gt;Node2</title>
<g id="a_edge1_Node000001_Node000002"><a xlink:title=" ">
<path fill="none" stroke="#63b8ff" d="M185.8,-104.75C170.75,-121.63 146.59,-146.02 121,-161 114.54,-164.78 107.24,-167.9 100.03,-170.45"/>
<polygon fill="#63b8ff" stroke="#63b8ff" points="188.27,-107.24 192.18,-97.39 182.99,-102.65 188.27,-107.24"/>
</a>
</g>
</g>
<!-- Node3 -->
<g id="Node000003" class="node">
<title>Node3</title>
<g id="a_Node000003"><a xlink:href="namespacegenerate.html#aca905bc877bc18f8cb6a2cb1eaec6988" target="_top" xlink:title="Generate a desktop file for the sandbox.">
<polygon fill="white" stroke="#666666" points="121,-152 0,-152 0,-132 121,-132 121,-152"/>
<text text-anchor="middle" x="60.5" y="-138.5" font-family="Helvetica,sans-Serif" font-size="10.00">generate::desktop_entry</text>
</a>
</g>
</g>
<!-- Node1&#45;&gt;Node3 -->
<g id="edge2_Node000001_Node000003" class="edge">
<title>Node1&#45;&gt;Node3</title>
<g id="a_edge2_Node000001_Node000003"><a xlink:title=" ">
<path fill="none" stroke="#63b8ff" d="M170.48,-101.33C155.68,-108.36 137.62,-116.56 121,-123 113.22,-126.02 104.73,-128.94 96.67,-131.55"/>
<polygon fill="#63b8ff" stroke="#63b8ff" points="171.76,-104.6 179.25,-97.11 168.72,-98.29 171.76,-104.6"/>
</a>
</g>
</g>
<!-- Node4 -->
<g id="Node000004" class="node">
<title>Node4</title>
<g id="a_Node000004"><a xlink:href="namespacesyscalls.html#aabdab752b02a21ab92e3af4fabba493b" target="_top" xlink:title="Generate a syscall filter.">
<polygon fill="white" stroke="#666666" points="98.88,-96 22.12,-96 22.12,-76 98.88,-76 98.88,-96"/>
<text text-anchor="middle" x="60.5" y="-82.5" font-family="Helvetica,sans-Serif" font-size="10.00">syscalls::filter</text>
</a>
</g>
</g>
<!-- Node1&#45;&gt;Node4 -->
<g id="edge3_Node000001_Node000004" class="edge">
<title>Node1&#45;&gt;Node4</title>
<g id="a_edge3_Node000001_Node000004"><a xlink:title=" ">
<path fill="none" stroke="#63b8ff" d="M145.67,-86C130.06,-86 113.47,-86 99.18,-86"/>
<polygon fill="#63b8ff" stroke="#63b8ff" points="145.3,-89.5 155.3,-86 145.3,-82.5 145.3,-89.5"/>
</a>
</g>
</g>
<!-- Node5 -->
<g id="Node000005" class="node">
<title>Node5</title>
<g id="a_Node000005"><a xlink:href="namespacearg.html#a9da86862acc776f92533ebac921afc40" target="_top" xlink:title="Parse command line arguments.">
<polygon fill="white" stroke="#666666" points="102.25,-58 18.75,-58 18.75,-38 102.25,-38 102.25,-58"/>
<text text-anchor="middle" x="60.5" y="-44.5" font-family="Helvetica,sans-Serif" font-size="10.00">arg::parse_args</text>
</a>
</g>
</g>
<!-- Node1&#45;&gt;Node5 -->
<g id="edge5_Node000001_Node000005" class="edge">
<title>Node1&#45;&gt;Node5</title>
<g id="a_edge5_Node000001_Node000005"><a xlink:title=" ">
<path fill="none" stroke="#63b8ff" d="M151.96,-72.55C134.9,-67.92 116.05,-62.81 100,-58.45"/>
<polygon fill="#63b8ff" stroke="#63b8ff" points="150.85,-75.88 161.41,-75.12 152.68,-69.12 150.85,-75.88"/>
</a>
</g>
</g>
<!-- Node6 -->
<g id="Node000006" class="node">
<title>Node6</title>
<g id="a_Node000006"><a xlink:href="namespacesyscalls.html#a501461c3842033cfab85ba4b8f328ed8" target="_top" xlink:title="Append an existing policy with newly discovered syscalls.">
<polygon fill="white" stroke="#666666" points="119.5,-20 1.5,-20 1.5,0 119.5,0 119.5,-20"/>
<text text-anchor="middle" x="60.5" y="-6.5" font-family="Helvetica,sans-Serif" font-size="10.00">syscalls::update_policy</text>
</a>
</g>
</g>
<!-- Node1&#45;&gt;Node6 -->
<g id="edge6_Node000001_Node000006" class="edge">
<title>Node1&#45;&gt;Node6</title>
<g id="a_edge6_Node000001_Node000006"><a xlink:title=" ">
<path fill="none" stroke="#63b8ff" d="M180.64,-68.51C165.03,-56.11 142.7,-39.82 121,-29 114.5,-25.76 107.32,-22.91 100.28,-20.48"/>
<polygon fill="#63b8ff" stroke="#63b8ff" points="178.29,-71.11 188.26,-74.69 182.7,-65.67 178.29,-71.11"/>
</a>
</g>
</g>
<!-- Node4&#45;&gt;Node4 -->
<g id="edge4_Node000004_Node000004" class="edge">
<title>Node4&#45;&gt;Node4</title>
<g id="a_edge4_Node000004_Node000004"><a xlink:title=" ">
<path fill="none" stroke="#63b8ff" d="M85.6,-107.44C82.36,-111.3 74,-114 60.5,-114 35.82,-114 28.3,-104.98 37.94,-96.34"/>
<polygon fill="#63b8ff" stroke="#63b8ff" points="89.04,-106.78 83.4,-97.81 82.21,-108.34 89.04,-106.78"/>
</a>
</g>
</g>
</g>
</svg>
