<?xml version="1.0" encoding="UTF-8" standalone="no"?>
<!DOCTYPE svg PUBLIC "-//W3C//DTD SVG 1.1//EN"
 "http://www.w3.org/Graphics/SVG/1.1/DTD/svg11.dtd">
<!-- Generated by graphviz version 12.2.1 (0)
 -->
<!-- Title: shared::extend Pages: 1 -->
<!--zoomable 472 -->

<svg id="main" version="1.1" xmlns="http://www.w3.org/2000/svg" xmlns:xlink="http://www.w3.org/1999/xlink" xml:space="preserve" onload="init(evt)">

<style type="text/css"><![CDATA[
.node, .edge {opacity: 0.7;}
.node.selected, .edge.selected {opacity: 1;}
.edge:hover path { stroke: red; }
.edge:hover polygon { stroke: red; fill: red; }
]]></style>

<defs>
  <circle id="rim" cx="0" cy="0" r="7"/>
  <circle id="rim2" cx="0" cy="0" r="3.5"/>
  <g id="zoomPlus">
    <use xlink:href="#rim" fill="#404040"><set attributeName="fill" to="#808080" begin="zoomplus.mouseover" end="zoomplus.mouseout"/></use>
    <path d="M-4,0h8M0,-4v8" fill="none" stroke="white" stroke-width="1.5" pointer-events="none"/>
  </g>
  <g id="zoomMin">
    <use xlink:href="#rim" fill="#404040"><set attributeName="fill" to="#808080" begin="zoomminus.mouseover" end="zoomminus.mouseout"/></use>
    <path d="M-4,0h8" fill="none" stroke="white" stroke-width="1.5" pointer-events="none"/>
  </g>
  <g id="arrowUp" transform="translate(30 24)">
    <use xlink:href="#rim"/>
    <path pointer-events="none" fill="none" stroke="white" stroke-width="1.5" d="M0,-3.0v7 M-2.5,-0.5L0,-3.0L2.5,-0.5"/>
  </g>
  <g id="arrowRight" transform="rotate(90) translate(36 -43)">
    <use xlink:href="#rim"/>
    <path pointer-events="none" fill="none" stroke="white" stroke-width="1.5" d="M0,-3.0v7 M-2.5,-0.5L0,-3.0L2.5,-0.5"/>
  </g>
  <g id="arrowDown" transform="rotate(180) translate(-30 -48)">
    <use xlink:href="#rim"/>
    <path pointer-events="none" fill="none" stroke="white" stroke-width="1.5" d="M0,-3.0v7 M-2.5,-0.5L0,-3.0L2.5,-0.5"/>
  </g>
  <g id="arrowLeft" transform="rotate(270) translate(-36 17)">
    <use xlink:href="#rim"/>
    <path pointer-events="none" fill="none" stroke="white" stroke-width="1.5" d="M0,-3.0v7 M-2.5,-0.5L0,-3.0L2.5,-0.5"/>
  </g>
  <g id="resetDef">
    <use xlink:href="#rim2" fill="#404040"><set attributeName="fill" to="#808080" begin="reset.mouseover" end="reset.mouseout"/></use>
  </g>
</defs>
<script type="application/ecmascript">
var viewWidth = 715;
var viewHeight = 472;
var sectionId = 'dynsection-5';
</script>
<script type="application/ecmascript" xlink:href="svg.min.js"/>
<svg id="graph" class="graph">
<g id="viewport">
<title>shared::extend</title>
<!-- Node1 -->
<g id="Node000001" class="node">
<title>Node1</title>
<g id="a_Node000001"><a xlink:title="Extend a container in place.">
<polygon fill="#999999" stroke="#666666" points="706.5,-304 626,-304 626,-284 706.5,-284 706.5,-304"/>
<text text-anchor="middle" x="666.25" y="-290.5" font-family="Helvetica,sans-Serif" font-size="10.00">shared::extend</text>
</a>
</g>
</g>
<!-- Node2 -->
<g id="Node000002" class="node">
<title>Node2</title>
<g id="a_Node000002"><a xlink:href="namespaceshared.html#a993cd576fb1a43b497dc350728bd8c80" target="_top" xlink:title="Batch multiple iterations of an accumulator function together, threaded.">
<polygon fill="white" stroke="#666666" points="589.25,-190 514,-190 514,-170 589.25,-170 589.25,-190"/>
<text text-anchor="middle" x="551.62" y="-176.5" font-family="Helvetica,sans-Serif" font-size="10.00">shared::batch</text>
</a>
</g>
</g>
<!-- Node1&#45;&gt;Node2 -->
<g id="edge1_Node000001_Node000002" class="edge">
<title>Node1&#45;&gt;Node2</title>
<g id="a_edge1_Node000001_Node000002"><a xlink:title=" ">
<path fill="none" stroke="#63b8ff" d="M651.58,-274.38C637.54,-255.08 614.34,-225.47 590,-204 584.33,-199 577.53,-194.31 571.28,-190.43"/>
<polygon fill="#63b8ff" stroke="#63b8ff" points="648.68,-276.35 657.34,-282.45 654.38,-272.28 648.68,-276.35"/>
</a>
</g>
</g>
<!-- Node3 -->
<g id="Node000003" class="node">
<title>Node3</title>
<g id="a_Node000003"><a xlink:href="namespacegenerate.html#a38dcdfdf9293b8aafe77392021d65019" target="_top" xlink:title="Generate the bulk of the main program command.">
<polygon fill="white" stroke="#666666" points="225.88,-209 147.62,-209 147.62,-189 225.88,-189 225.88,-209"/>
<text text-anchor="middle" x="186.75" y="-195.5" font-family="Helvetica,sans-Serif" font-size="10.00">generate::cmd</text>
</a>
</g>
</g>
<!-- Node1&#45;&gt;Node3 -->
<g id="edge11_Node000001_Node000003" class="edge">
<title>Node1&#45;&gt;Node3</title>
<g id="a_edge11_Node000001_Node000003"><a xlink:title=" ">
<path fill="none" stroke="#63b8ff" d="M635.13,-278.53C621.6,-272.07 605.28,-264.94 590,-260 522.46,-238.16 313,-213.01 226.12,-203.21"/>
<polygon fill="#63b8ff" stroke="#63b8ff" points="633.42,-281.59 643.94,-282.84 636.49,-275.3 633.42,-281.59"/>
</a>
</g>
</g>
<!-- Node7 -->
<g id="Node000007" class="node">
<title>Node7</title>
<g id="a_Node000007"><a xlink:href="namespacegenerate.html#a5c0026523dd30f942c55ad25f1b607b4" target="_top" xlink:title="Spawn an instance of the xdg&#45;dbus&#45;proxy for the application instance.">
<polygon fill="white" stroke="#666666" points="101.5,-225 0,-225 0,-193 101.5,-193 101.5,-225"/>
<text text-anchor="start" x="8" y="-211.5" font-family="Helvetica,sans-Serif" font-size="10.00">generate::xdg_dbus</text>
<text text-anchor="middle" x="50.75" y="-199.5" font-family="Helvetica,sans-Serif" font-size="10.00">_proxy</text>
</a>
</g>
</g>
<!-- Node1&#45;&gt;Node7 -->
<g id="edge25_Node000001_Node000007" class="edge">
<title>Node1&#45;&gt;Node7</title>
<g id="a_edge25_Node000001_Node000007"><a xlink:title=" ">
<path fill="none" stroke="#63b8ff" d="M656.52,-314.71C644.86,-340.05 621.9,-382.7 590,-408 533.72,-452.64 510.21,-464 438.38,-464 438.38,-464 438.38,-464 315.75,-464 177.79,-464 84.36,-281.62 58.81,-225.34"/>
<polygon fill="#63b8ff" stroke="#63b8ff" points="659.62,-316.36 660.47,-305.79 653.22,-313.52 659.62,-316.36"/>
</a>
</g>
</g>
<!-- Node8 -->
<g id="Node000008" class="node">
<title>Node8</title>
<g id="a_Node000008"><a xlink:href="namespacesyscalls.html#aabdab752b02a21ab92e3af4fabba493b" target="_top" xlink:title="Generate a syscall filter.">
<polygon fill="white" stroke="#666666" points="590,-342 513.25,-342 513.25,-322 590,-322 590,-342"/>
<text text-anchor="middle" x="551.62" y="-328.5" font-family="Helvetica,sans-Serif" font-size="10.00">syscalls::filter</text>
</a>
</g>
</g>
<!-- Node1&#45;&gt;Node8 -->
<g id="edge12_Node000001_Node000008" class="edge">
<title>Node1&#45;&gt;Node8</title>
<g id="a_edge12_Node000001_Node000008"><a xlink:title=" ">
<path fill="none" stroke="#63b8ff" d="M623.43,-308.11C610.23,-312.56 595.9,-317.4 583.6,-321.55"/>
<polygon fill="#63b8ff" stroke="#63b8ff" points="624.39,-311.48 632.74,-304.97 622.15,-304.85 624.39,-311.48"/>
</a>
</g>
</g>
<!-- Node9 -->
<g id="Node000009" class="node">
<title>Node9</title>
<g id="a_Node000009"><a xlink:href="namespaceshared.html#a00b81f070735db096bbcd00c9d87188e" target="_top" xlink:title="Attach an environment variable to the sandbox.">
<polygon fill="white" stroke="#666666" points="587.75,-304 515.5,-304 515.5,-284 587.75,-284 587.75,-304"/>
<text text-anchor="middle" x="551.62" y="-290.5" font-family="Helvetica,sans-Serif" font-size="10.00">shared::genv</text>
</a>
</g>
</g>
<!-- Node1&#45;&gt;Node9 -->
<g id="edge14_Node000001_Node000009" class="edge">
<title>Node1&#45;&gt;Node9</title>
<g id="a_edge14_Node000001_Node000009"><a xlink:title=" ">
<path fill="none" stroke="#63b8ff" d="M614.18,-294C605.41,-294 596.47,-294 588.22,-294"/>
<polygon fill="#63b8ff" stroke="#63b8ff" points="614.03,-297.5 624.03,-294 614.03,-290.5 614.03,-297.5"/>
</a>
</g>
</g>
<!-- Node10 -->
<g id="Node000010" class="node">
<title>Node10</title>
<g id="a_Node000010"><a xlink:href="namespacebinaries.html#a8c5deb9459b44c3bdf9bb6d78ee53322" target="_top" xlink:title="Setup the sandbox for the used binaries.">
<polygon fill="white" stroke="#666666" points="477.25,-351 397.5,-351 397.5,-331 477.25,-331 477.25,-351"/>
<text text-anchor="middle" x="437.38" y="-337.5" font-family="Helvetica,sans-Serif" font-size="10.00">binaries::setup</text>
</a>
</g>
</g>
<!-- Node1&#45;&gt;Node10 -->
<g id="edge15_Node000001_Node000010" class="edge">
<title>Node1&#45;&gt;Node10</title>
<g id="a_edge15_Node000001_Node000010"><a xlink:title=" ">
<path fill="none" stroke="#63b8ff" d="M652.42,-313.7C639.25,-331.95 616.92,-357.88 590,-369 544.97,-387.61 487.33,-365.6 457.77,-351.33"/>
<polygon fill="#63b8ff" stroke="#63b8ff" points="655.28,-315.73 658.07,-305.51 649.51,-311.76 655.28,-315.73"/>
</a>
</g>
</g>
<!-- Node11 -->
<g id="Node000011" class="node">
<title>Node11</title>
<g id="a_Node000011"><a xlink:href="namespaceshared.html#acf7d9b7a4de8ca12d42e2132f2f4b4e7" target="_top" xlink:title="Share a path with the sandbox using a mode.">
<polygon fill="white" stroke="#666666" points="475,-266 399.75,-266 399.75,-246 475,-246 475,-266"/>
<text text-anchor="middle" x="437.38" y="-252.5" font-family="Helvetica,sans-Serif" font-size="10.00">shared::share</text>
</a>
</g>
</g>
<!-- Node1&#45;&gt;Node11 -->
<g id="edge17_Node000001_Node000011" class="edge">
<title>Node1&#45;&gt;Node11</title>
<g id="a_edge17_Node000001_Node000011"><a xlink:title=" ">
<path fill="none" stroke="#63b8ff" d="M616.62,-280.8C607.8,-278.67 598.66,-276.63 590,-275 551.15,-267.69 506.16,-262.45 475.34,-259.35"/>
<polygon fill="#63b8ff" stroke="#63b8ff" points="615.54,-284.13 626.09,-283.15 617.23,-277.34 615.54,-284.13"/>
</a>
</g>
</g>
<!-- Node12 -->
<g id="Node000012" class="node">
<title>Node12</title>
<g id="a_Node000012"><a xlink:href="namespacebinaries.html#a3dceb9be58009eef337fd18d7ee738d4" target="_top" xlink:title="Symlink to /usr/bin.">
<polygon fill="white" stroke="#666666" points="361.5,-342 272,-342 272,-322 361.5,-322 361.5,-342"/>
<text text-anchor="middle" x="316.75" y="-328.5" font-family="Helvetica,sans-Serif" font-size="10.00">binaries::symlink</text>
</a>
</g>
</g>
<!-- Node1&#45;&gt;Node12 -->
<g id="edge19_Node000001_Node000012" class="edge">
<title>Node1&#45;&gt;Node12</title>
<g id="a_edge19_Node000001_Node000012"><a xlink:title=" ">
<path fill="none" stroke="#63b8ff" d="M655.6,-314.56C643.74,-337.11 621.27,-372.08 590,-387 500.35,-429.78 378.69,-368.1 334.59,-342.37"/>
<polygon fill="#63b8ff" stroke="#63b8ff" points="658.69,-316.22 660.02,-305.71 652.42,-313.09 658.69,-316.22"/>
</a>
</g>
</g>
<!-- Node13 -->
<g id="Node000013" class="node">
<title>Node13</title>
<g id="a_Node000013"><a xlink:href="namespacelibraries.html#aaf67d1825dab30fecb532ea92077ebe3" target="_top" xlink:title="Add symlink commands.">
<polygon fill="white" stroke="#666666" points="361.5,-20 272,-20 272,0 361.5,0 361.5,-20"/>
<text text-anchor="middle" x="316.75" y="-6.5" font-family="Helvetica,sans-Serif" font-size="10.00">libraries::symlink</text>
</a>
</g>
</g>
<!-- Node1&#45;&gt;Node13 -->
<g id="edge22_Node000001_Node000013" class="edge">
<title>Node1&#45;&gt;Node13</title>
<g id="a_edge22_Node000001_Node000013"><a xlink:title=" ">
<path fill="none" stroke="#63b8ff" d="M657.65,-273.15C646.49,-244.84 623.3,-194.02 590,-161 516.89,-88.5 401.83,-40.29 347.74,-20.36"/>
<polygon fill="#63b8ff" stroke="#63b8ff" points="654.33,-274.26 661.16,-282.37 660.88,-271.77 654.33,-274.26"/>
</a>
</g>
</g>
<!-- Node2&#45;&gt;Node3 -->
<g id="edge2_Node000002_Node000003" class="edge">
<title>Node2&#45;&gt;Node3</title>
<g id="a_edge2_Node000002_Node000003"><a xlink:title=" ">
<path fill="none" stroke="#63b8ff" d="M502.73,-182.51C429.97,-186.32 293.02,-193.49 226.28,-196.98"/>
<polygon fill="#63b8ff" stroke="#63b8ff" points="502.52,-186.02 512.32,-182.01 502.15,-179.03 502.52,-186.02"/>
</a>
</g>
</g>
<!-- Node4 -->
<g id="Node000004" class="node">
<title>Node4</title>
<g id="a_Node000004"><a xlink:href="namespacelibraries.html#a4dfd6ab45adf8dc18ea57bc1f88eaedf" target="_top" xlink:title="Recursively resolve all shared&#45;libraries needed by a library.">
<polygon fill="white" stroke="#666666" points="472,-129 402.75,-129 402.75,-109 472,-109 472,-129"/>
<text text-anchor="middle" x="437.38" y="-115.5" font-family="Helvetica,sans-Serif" font-size="10.00">libraries::get</text>
</a>
</g>
</g>
<!-- Node2&#45;&gt;Node4 -->
<g id="edge3_Node000002_Node000004" class="edge">
<title>Node2&#45;&gt;Node4</title>
<g id="a_edge3_Node000002_Node000004"><a xlink:title=" ">
<path fill="none" stroke="#63b8ff" d="M521.41,-164.12C501.22,-153.15 474.95,-138.88 457.42,-129.35"/>
<polygon fill="#63b8ff" stroke="#63b8ff" points="519.54,-167.09 530,-168.79 522.88,-160.94 519.54,-167.09"/>
</a>
</g>
</g>
<!-- Node4&#45;&gt;Node3 -->
<g id="edge4_Node000004_Node000003" class="edge">
<title>Node4&#45;&gt;Node3</title>
<g id="a_edge4_Node000004_Node000003"><a xlink:title=" ">
<path fill="none" stroke="#63b8ff" d="M391.65,-130.56C358.4,-139.45 312.04,-152.47 272,-166 251.76,-172.84 229.25,-181.73 212.59,-188.55"/>
<polygon fill="#63b8ff" stroke="#63b8ff" points="392.17,-134.04 400.94,-128.09 390.38,-127.27 392.17,-134.04"/>
</a>
</g>
</g>
<!-- Node5 -->
<g id="Node000005" class="node">
<title>Node5</title>
<g id="a_Node000005"><a xlink:href="namespacebinaries.html#ac1478c81b2eb2c4ecdba98e92c4e7651" target="_top" xlink:title="Parse a binary to determine dependencies.">
<polygon fill="white" stroke="#666666" points="356.62,-96 276.88,-96 276.88,-76 356.62,-76 356.62,-96"/>
<text text-anchor="middle" x="316.75" y="-82.5" font-family="Helvetica,sans-Serif" font-size="10.00">binaries::parse</text>
</a>
</g>
</g>
<!-- Node4&#45;&gt;Node5 -->
<g id="edge5_Node000004_Node000005" class="edge">
<title>Node4&#45;&gt;Node5</title>
<g id="a_edge5_Node000004_Node000005"><a xlink:title=" ">
<path fill="none" stroke="#63b8ff" d="M391.62,-106.55C379.57,-103.2 366.67,-99.61 355.08,-96.38"/>
<polygon fill="#63b8ff" stroke="#63b8ff" points="390.35,-109.83 400.92,-109.14 392.23,-103.09 390.35,-109.83"/>
</a>
</g>
</g>
<!-- Node6 -->
<g id="Node000006" class="node">
<title>Node6</title>
<g id="a_Node000006"><a xlink:href="namespacegenerate.html#a17cf0da8addab269d21c2c8074d85c4e" target="_top" xlink:title="Setup the Proxy&#39;s SOF.">
<polygon fill="white" stroke="#666666" points="236,-96 137.5,-96 137.5,-76 236,-76 236,-96"/>
<text text-anchor="middle" x="186.75" y="-82.5" font-family="Helvetica,sans-Serif" font-size="10.00">generate::proxy_lib</text>
</a>
</g>
</g>
<!-- Node4&#45;&gt;Node6 -->
<g id="edge10_Node000004_Node000006" class="edge">
<title>Node4&#45;&gt;Node6</title>
<g id="a_edge10_Node000004_Node000006"><a xlink:title=" ">
<path fill="none" stroke="#63b8ff" d="M417.54,-101.01C403.37,-88.79 382.81,-73.67 361.5,-67 312.71,-51.72 252.87,-64.79 217.67,-75.5"/>
<polygon fill="#63b8ff" stroke="#63b8ff" points="414.97,-103.41 424.75,-107.49 419.65,-98.2 414.97,-103.41"/>
</a>
</g>
</g>
<!-- Node5&#45;&gt;Node3 -->
<g id="edge6_Node000005_Node000003" class="edge">
<title>Node5&#45;&gt;Node3</title>
<g id="a_edge6_Node000005_Node000003"><a xlink:title=" ">
<path fill="none" stroke="#63b8ff" d="M295.61,-103.78C268.57,-127.65 221.42,-169.28 199.53,-188.6"/>
<polygon fill="#63b8ff" stroke="#63b8ff" points="297.62,-106.67 302.8,-97.43 292.99,-101.42 297.62,-106.67"/>
</a>
</g>
</g>
<!-- Node5&#45;&gt;Node5 -->
<g id="edge7_Node000005_Node000005" class="edge">
<title>Node5&#45;&gt;Node5</title>
<g id="a_edge7_Node000005_Node000005"><a xlink:title=" ">
<path fill="none" stroke="#63b8ff" d="M338.07,-107.44C335.32,-111.3 328.22,-114 316.75,-114 295.78,-114 289.39,-104.98 297.58,-96.34"/>
<polygon fill="#63b8ff" stroke="#63b8ff" points="341.54,-106.98 336.2,-97.82 334.67,-108.31 341.54,-106.98"/>
</a>
</g>
</g>
<!-- Node5&#45;&gt;Node6 -->
<g id="edge8_Node000005_Node000006" class="edge">
<title>Node5&#45;&gt;Node6</title>
<g id="a_edge8_Node000005_Node000006"><a xlink:title=" ">
<path fill="none" stroke="#63b8ff" d="M265.22,-86C255.63,-86 245.62,-86 236.1,-86"/>
<polygon fill="#63b8ff" stroke="#63b8ff" points="265.14,-89.5 275.14,-86 265.14,-82.5 265.14,-89.5"/>
</a>
</g>
</g>
<!-- Node6&#45;&gt;Node7 -->
<g id="edge9_Node000006_Node000007" class="edge">
<title>Node6&#45;&gt;Node7</title>
<g id="a_edge9_Node000006_Node000007"><a xlink:title=" ">
<path fill="none" stroke="#63b8ff" d="M165.97,-104.15C139.89,-128.1 94.38,-169.87 69.4,-192.8"/>
<polygon fill="#63b8ff" stroke="#63b8ff" points="168.21,-106.85 173.21,-97.51 163.48,-101.69 168.21,-106.85"/>
</a>
</g>
</g>
<!-- Node8&#45;&gt;Node8 -->
<g id="edge13_Node000008_Node000008" class="edge">
<title>Node8&#45;&gt;Node8</title>
<g id="a_edge13_Node000008_Node000008"><a xlink:title=" ">
<path fill="none" stroke="#63b8ff" d="M571.82,-353.44C569.22,-357.3 562.49,-360 551.62,-360 531.77,-360 525.71,-350.98 533.47,-342.34"/>
<polygon fill="#63b8ff" stroke="#63b8ff" points="575.3,-353.03 570.05,-343.83 568.42,-354.3 575.3,-353.03"/>
</a>
</g>
</g>
<!-- Node10&#45;&gt;Node3 -->
<g id="edge16_Node000010_Node000003" class="edge">
<title>Node10&#45;&gt;Node3</title>
<g id="a_edge16_Node000010_Node000003"><a xlink:title=" ">
<path fill="none" stroke="#63b8ff" d="M405.21,-325.58C371.8,-308.8 317.43,-280.78 272,-254 247.17,-239.37 219.35,-220.75 202.71,-209.36"/>
<polygon fill="#63b8ff" stroke="#63b8ff" points="403.42,-328.6 413.93,-329.94 406.55,-322.33 403.42,-328.6"/>
</a>
</g>
</g>
<!-- Node11&#45;&gt;Node3 -->
<g id="edge18_Node000011_Node000003" class="edge">
<title>Node11&#45;&gt;Node3</title>
<g id="a_edge18_Node000011_Node000003"><a xlink:title=" ">
<path fill="none" stroke="#63b8ff" d="M388.15,-251.89C355.07,-248.35 310.4,-242.18 272,-232 250.44,-226.28 226.87,-216.76 210.16,-209.4"/>
<polygon fill="#63b8ff" stroke="#63b8ff" points="387.52,-255.34 397.82,-252.87 388.23,-248.38 387.52,-255.34"/>
</a>
</g>
</g>
<!-- Node12&#45;&gt;Node3 -->
<g id="edge20_Node000012_Node000003" class="edge">
<title>Node12&#45;&gt;Node3</title>
<g id="a_edge20_Node000012_Node000003"><a xlink:title=" ">
<path fill="none" stroke="#63b8ff" d="M283.07,-316.06C279.18,-313.59 275.39,-310.89 272,-308 236.55,-277.7 206.22,-230.31 193.78,-209.46"/>
<polygon fill="#63b8ff" stroke="#63b8ff" points="281.08,-318.95 291.49,-320.93 284.59,-312.89 281.08,-318.95"/>
</a>
</g>
</g>
<!-- Node12&#45;&gt;Node7 -->
<g id="edge21_Node000012_Node000007" class="edge">
<title>Node12&#45;&gt;Node7</title>
<g id="a_edge21_Node000012_Node000007"><a xlink:title=" ">
<path fill="none" stroke="#63b8ff" d="M283.01,-316.75C233.09,-293.49 138.34,-249.34 86.97,-225.41"/>
<polygon fill="#63b8ff" stroke="#63b8ff" points="281.33,-319.82 291.87,-320.87 284.28,-313.48 281.33,-319.82"/>
</a>
</g>
</g>
<!-- Node13&#45;&gt;Node3 -->
<g id="edge23_Node000013_Node000003" class="edge">
<title>Node13&#45;&gt;Node3</title>
<g id="a_edge23_Node000013_Node000003"><a xlink:title=" ">
<path fill="none" stroke="#63b8ff" d="M300.51,-28.99C291.91,-39.93 281.08,-54.04 272,-67 241.1,-111.08 207.6,-165.94 194.01,-188.53"/>
<polygon fill="#63b8ff" stroke="#63b8ff" points="302.99,-31.5 306.47,-21.49 297.51,-27.15 302.99,-31.5"/>
</a>
</g>
</g>
<!-- Node13&#45;&gt;Node7 -->
<g id="edge24_Node000013_Node000007" class="edge">
<title>Node13&#45;&gt;Node7</title>
<g id="a_edge24_Node000013_Node000007"><a xlink:title=" ">
<path fill="none" stroke="#63b8ff" d="M260.87,-17.18C222.95,-24.46 173.12,-38.87 137.5,-67 94.33,-101.09 67.85,-163.36 57.18,-192.78"/>
<polygon fill="#63b8ff" stroke="#63b8ff" points="261.02,-20.71 270.24,-15.5 259.78,-13.82 261.02,-20.71"/>
</a>
</g>
</g>
</g>
</svg>

<g id="navigator" transform="translate(0 0)" fill="#404254">
  <rect fill="#f2f5e9" fill-opacity="0.5" stroke="#606060" stroke-width=".5" x="0" y="0" width="60" height="60"/>
  <use id="zoomplus" xlink:href="#zoomPlus" x="17" y="9" onmousedown="handleZoom(evt,'in')"/>
  <use id="zoomminus" xlink:href="#zoomMin" x="42" y="9" onmousedown="handleZoom(evt,'out')"/>
  <use id="reset" xlink:href="#resetDef" x="30" y="36" onmousedown="handleReset()"/>
   <use id="arrowup" xlink:href="#arrowUp" x="0" y="0" onmousedown="handlePan(0,-1)"/>
  <use id="arrowright" xlink:href="#arrowRight" x="0" y="0" onmousedown="handlePan(1,0)"/>
  <use id="arrowdown" xlink:href="#arrowDown" x="0" y="0" onmousedown="handlePan(0,1)"/>
  <use id="arrowleft" xlink:href="#arrowLeft" x="0" y="0" onmousedown="handlePan(-1,0)"/>
</g>
<svg viewBox="0 0 15 15" width="100%" height="30px" preserveAspectRatio="xMaxYMin meet">
 <g id="arrow_out" transform="scale(0.3 0.3)">
  <a xlink:href="namespaceshared_a1636cc0cb46e6be8f452dbc1e92a1e28_icgraph_org.svg" target="_base">
   <rect id="button" ry="5" rx="5" y="6" x="6" height="38" width="38"
        fill="#f2f5e9" fill-opacity="0.5" stroke="#606060" stroke-width="1.0"/>
   <path id="arrow"
     d="M 11.500037,31.436501 C 11.940474,20.09759 22.043105,11.32322 32.158766,21.979434 L 37.068811,17.246167 C 37.068811,17.246167 37.088388,32 37.088388,32 L 22.160133,31.978069 C 22.160133,31.978069 26.997745,27.140456 26.997745,27.140456 C 18.528582,18.264221 13.291696,25.230495 11.500037,31.436501 z"
     style="fill:#404040;"/>
  </a>
 </g>
</svg>

<style type='text/css'>
<![CDATA[
[data-mouse-over-selected='false'] { opacity: 0.7; }
[data-mouse-over-selected='true']  { opacity: 1.0; }
]]>
</style>
<script type="application/ecmascript"><![CDATA[
document.addEventListener('DOMContentLoaded', (event) => {
  highlightEdges();
  highlightAdjacentNodes();
});
]]></script>
</svg>
