<?xml version="1.0" encoding="UTF-8" standalone="no"?>
<!DOCTYPE svg PUBLIC "-//W3C//DTD SVG 1.1//EN"
 "http://www.w3.org/Graphics/SVG/1.1/DTD/svg11.dtd">
<!-- Generated by graphviz version 12.2.1 (0)
 -->
<!-- Title: generate::xdg_dbus_proxy Pages: 1 -->
<!--zoomable 464 -->

<svg id="main" version="1.1" xmlns="http://www.w3.org/2000/svg" xmlns:xlink="http://www.w3.org/1999/xlink" xml:space="preserve" onload="init(evt)">

<style type="text/css"><![CDATA[
.node, .edge {opacity: 0.7;}
.node.selected, .edge.selected {opacity: 1;}
.edge:hover path { stroke: red; }
.edge:hover polygon { stroke: red; fill: red; }
]]></style>

<defs>
  <circle id="rim" cx="0" cy="0" r="7"/>
  <circle id="rim2" cx="0" cy="0" r="3.5"/>
  <g id="zoomPlus">
    <use xlink:href="#rim" fill="#404040"><set attributeName="fill" to="#808080" begin="zoomplus.mouseover" end="zoomplus.mouseout"/></use>
    <path d="M-4,0h8M0,-4v8" fill="none" stroke="white" stroke-width="1.5" pointer-events="none"/>
  </g>
  <g id="zoomMin">
    <use xlink:href="#rim" fill="#404040"><set attributeName="fill" to="#808080" begin="zoomminus.mouseover" end="zoomminus.mouseout"/></use>
    <path d="M-4,0h8" fill="none" stroke="white" stroke-width="1.5" pointer-events="none"/>
  </g>
  <g id="arrowUp" transform="translate(30 24)">
    <use xlink:href="#rim"/>
    <path pointer-events="none" fill="none" stroke="white" stroke-width="1.5" d="M0,-3.0v7 M-2.5,-0.5L0,-3.0L2.5,-0.5"/>
  </g>
  <g id="arrowRight" transform="rotate(90) translate(36 -43)">
    <use xlink:href="#rim"/>
    <path pointer-events="none" fill="none" stroke="white" stroke-width="1.5" d="M0,-3.0v7 M-2.5,-0.5L0,-3.0L2.5,-0.5"/>
  </g>
  <g id="arrowDown" transform="rotate(180) translate(-30 -48)">
    <use xlink:href="#rim"/>
    <path pointer-events="none" fill="none" stroke="white" stroke-width="1.5" d="M0,-3.0v7 M-2.5,-0.5L0,-3.0L2.5,-0.5"/>
  </g>
  <g id="arrowLeft" transform="rotate(270) translate(-36 17)">
    <use xlink:href="#rim"/>
    <path pointer-events="none" fill="none" stroke="white" stroke-width="1.5" d="M0,-3.0v7 M-2.5,-0.5L0,-3.0L2.5,-0.5"/>
  </g>
  <g id="resetDef">
    <use xlink:href="#rim2" fill="#404040"><set attributeName="fill" to="#808080" begin="reset.mouseover" end="reset.mouseout"/></use>
  </g>
</defs>
<script type="application/ecmascript">
var viewWidth = 811;
var viewHeight = 464;
var sectionId = 'dynsection-7';
</script>
<script type="application/ecmascript" xlink:href="svg.min.js"/>
<svg id="graph" class="graph">
<g id="viewport">
<title>generate::xdg_dbus_proxy</title>
<!-- Node1 -->
<g id="Node000001" class="node">
<title>Node1</title>
<g id="a_Node000001"><a xlink:title="Spawn an instance of the xdg&#45;dbus&#45;proxy for the application instance.">
<polygon fill="#999999" stroke="#666666" points="101.5,-121 0,-121 0,-89 101.5,-89 101.5,-121"/>
<text text-anchor="start" x="8" y="-107.5" font-family="Helvetica,sans-Serif" font-size="10.00">generate::xdg_dbus</text>
<text text-anchor="middle" x="50.75" y="-95.5" font-family="Helvetica,sans-Serif" font-size="10.00">_proxy</text>
</a>
</g>
</g>
<!-- Node2 -->
<g id="Node000002" class="node">
<title>Node2</title>
<g id="a_Node000002"><a xlink:href="namespaceshared.html#a1636cc0cb46e6be8f452dbc1e92a1e28" target="_top" xlink:title="Extend a container in place.">
<polygon fill="white" stroke="#666666" points="803.25,-77 722.75,-77 722.75,-57 803.25,-57 803.25,-77"/>
<text text-anchor="middle" x="763" y="-63.5" font-family="Helvetica,sans-Serif" font-size="10.00">shared::extend</text>
</a>
</g>
</g>
<!-- Node1&#45;&gt;Node2 -->
<g id="edge1_Node000001_Node000002" class="edge">
<title>Node1&#45;&gt;Node2</title>
<g id="a_edge1_Node000001_Node000002"><a xlink:title=" ">
<path fill="none" stroke="#63b8ff" d="M81.81,-88.68C97.87,-80.74 118.24,-71.88 137.5,-67 240.47,-40.89 269.52,-48 375.75,-48 375.75,-48 375.75,-48 511.5,-48 580.89,-48 660.79,-55.34 711.33,-60.89"/>
<polygon fill="#63b8ff" stroke="#63b8ff" points="710.76,-64.35 721.08,-61.99 711.54,-57.4 710.76,-64.35"/>
</a>
</g>
</g>
<!-- Node3 -->
<g id="Node000003" class="node">
<title>Node3</title>
<g id="a_Node000003"><a xlink:href="classshared_1_1TemporaryDirectory.html#a587043a975ec1bb3cb6ce6a663285730" target="_top" xlink:title="Return the path to the directory.">
<polygon fill="white" stroke="#666666" points="285.12,-184 148.38,-184 148.38,-152 285.12,-152 285.12,-184"/>
<text text-anchor="start" x="156.38" y="-170.5" font-family="Helvetica,sans-Serif" font-size="10.00">shared::TemporaryDirectory</text>
<text text-anchor="middle" x="216.75" y="-158.5" font-family="Helvetica,sans-Serif" font-size="10.00">::get_path</text>
</a>
</g>
</g>
<!-- Node1&#45;&gt;Node3 -->
<g id="edge2_Node000001_Node000003" class="edge">
<title>Node1&#45;&gt;Node3</title>
<g id="a_edge2_Node000001_Node000003"><a xlink:title=" ">
<path fill="none" stroke="#63b8ff" d="M94.49,-121.46C108.22,-126.75 123.5,-132.62 137.5,-138 145.43,-141.05 153.82,-144.27 162.04,-147.42"/>
<polygon fill="#63b8ff" stroke="#63b8ff" points="160.69,-150.65 171.28,-150.96 163.2,-144.11 160.69,-150.65"/>
</a>
</g>
</g>
<!-- Node4 -->
<g id="Node000004" class="node">
<title>Node4</title>
<g id="a_Node000004"><a xlink:href="namespacegenerate.html#a17cf0da8addab269d21c2c8074d85c4e" target="_top" xlink:title="Setup the Proxy&#39;s SOF.">
<polygon fill="white" stroke="#666666" points="266,-222 167.5,-222 167.5,-202 266,-202 266,-222"/>
<text text-anchor="middle" x="216.75" y="-208.5" font-family="Helvetica,sans-Serif" font-size="10.00">generate::proxy_lib</text>
</a>
</g>
</g>
<!-- Node1&#45;&gt;Node4 -->
<g id="edge3_Node000001_Node000004" class="edge">
<title>Node1&#45;&gt;Node4</title>
<g id="a_edge3_Node000001_Node000004"><a xlink:title=" ">
<path fill="none" stroke="#63b8ff" d="M63.09,-121.34C77.88,-141.35 105.63,-174.82 137.5,-193 143.48,-196.41 150.05,-199.21 156.76,-201.51"/>
<polygon fill="#63b8ff" stroke="#63b8ff" points="155.34,-204.73 165.92,-204.29 157.37,-198.03 155.34,-204.73"/>
</a>
</g>
</g>
<!-- Node15 -->
<g id="Node000015" class="node">
<title>Node15</title>
<g id="a_Node000015"><a xlink:href="classshared_1_1TemporaryDirectory.html#adc4a1c0954915b3208e0de0fee6846c9" target="_top" xlink:title="Create a subdirectory/file in the temp dir.">
<polygon fill="white" stroke="#666666" points="296,-96 137.5,-96 137.5,-76 296,-76 296,-96"/>
<text text-anchor="middle" x="216.75" y="-82.5" font-family="Helvetica,sans-Serif" font-size="10.00">shared::TemporaryDirectory::sub</text>
</a>
</g>
</g>
<!-- Node1&#45;&gt;Node15 -->
<g id="edge21_Node000001_Node000015" class="edge">
<title>Node1&#45;&gt;Node15</title>
<g id="a_edge21_Node000001_Node000015"><a xlink:title=" ">
<path fill="none" stroke="#63b8ff" d="M101.85,-99.2C109.55,-98.3 117.71,-97.36 125.96,-96.4"/>
<polygon fill="#63b8ff" stroke="#63b8ff" points="126.22,-99.9 135.76,-95.27 125.42,-92.94 126.22,-99.9"/>
</a>
</g>
</g>
<!-- Node16 -->
<g id="Node000016" class="node">
<title>Node16</title>
<g id="a_Node000016"><a xlink:href="namespacebinaries.html#a3dceb9be58009eef337fd18d7ee738d4" target="_top" xlink:title="Symlink to /usr/bin.">
<polygon fill="white" stroke="#666666" points="421.5,-20 332,-20 332,0 421.5,0 421.5,-20"/>
<text text-anchor="middle" x="376.75" y="-6.5" font-family="Helvetica,sans-Serif" font-size="10.00">binaries::symlink</text>
</a>
</g>
</g>
<!-- Node1&#45;&gt;Node16 -->
<g id="edge22_Node000001_Node000016" class="edge">
<title>Node1&#45;&gt;Node16</title>
<g id="a_edge22_Node000001_Node000016"><a xlink:title=" ">
<path fill="none" stroke="#63b8ff" d="M65.97,-88.51C81.62,-71.61 108.43,-46.15 137.5,-34 196.44,-9.36 270.48,-5.65 320.24,-6.63"/>
<polygon fill="#63b8ff" stroke="#63b8ff" points="320.12,-10.12 330.21,-6.9 320.31,-3.13 320.12,-10.12"/>
</a>
</g>
</g>
<!-- Node17 -->
<g id="Node000017" class="node">
<title>Node17</title>
<g id="a_Node000017"><a xlink:href="namespacelibraries.html#aaf67d1825dab30fecb532ea92077ebe3" target="_top" xlink:title="Add symlink commands.">
<polygon fill="white" stroke="#666666" points="421.5,-96 332,-96 332,-76 421.5,-76 421.5,-96"/>
<text text-anchor="middle" x="376.75" y="-82.5" font-family="Helvetica,sans-Serif" font-size="10.00">libraries::symlink</text>
</a>
</g>
</g>
<!-- Node1&#45;&gt;Node17 -->
<g id="edge24_Node000001_Node000017" class="edge">
<title>Node1&#45;&gt;Node17</title>
<g id="a_edge24_Node000001_Node000017"><a xlink:title=" ">
<path fill="none" stroke="#63b8ff" d="M101.54,-108.39C151.03,-110.96 229.04,-112.87 296,-105 306.81,-103.73 318.27,-101.52 329.03,-99.06"/>
<polygon fill="#63b8ff" stroke="#63b8ff" points="329.58,-102.53 338.47,-96.77 327.93,-95.72 329.58,-102.53"/>
</a>
</g>
</g>
<!-- Node5 -->
<g id="Node000005" class="node">
<title>Node5</title>
<g id="a_Node000005"><a xlink:href="namespacelibraries.html#a4dfd6ab45adf8dc18ea57bc1f88eaedf" target="_top" xlink:title="Recursively resolve all shared&#45;libraries needed by a library.">
<polygon fill="white" stroke="#666666" points="545.12,-418 475.88,-418 475.88,-398 545.12,-398 545.12,-418"/>
<text text-anchor="middle" x="510.5" y="-404.5" font-family="Helvetica,sans-Serif" font-size="10.00">libraries::get</text>
</a>
</g>
</g>
<!-- Node4&#45;&gt;Node5 -->
<g id="edge4_Node000004_Node000005" class="edge">
<title>Node4&#45;&gt;Node5</title>
<g id="a_edge4_Node000004_Node000005"><a xlink:title=" ">
<path fill="none" stroke="#63b8ff" d="M225.26,-222.23C242.12,-244.6 285.2,-298.47 332,-331 373.42,-359.8 427.33,-381.31 464.82,-394.17"/>
<polygon fill="#63b8ff" stroke="#63b8ff" points="463.38,-397.38 473.98,-397.24 465.61,-390.74 463.38,-397.38"/>
</a>
</g>
</g>
<!-- Node8 -->
<g id="Node000008" class="node">
<title>Node8</title>
<g id="a_Node000008"><a xlink:href="namespaceshared.html#a99724c73af55fa92ae29fee700152917" target="_top" xlink:title="Log output to console, if verbose.">
<polygon fill="white" stroke="#666666" points="675.12,-228 611.12,-228 611.12,-208 675.12,-208 675.12,-228"/>
<text text-anchor="middle" x="643.12" y="-214.5" font-family="Helvetica,sans-Serif" font-size="10.00">shared::log</text>
</a>
</g>
</g>
<!-- Node4&#45;&gt;Node8 -->
<g id="edge12_Node000004_Node000008" class="edge">
<title>Node4&#45;&gt;Node8</title>
<g id="a_edge12_Node000004_Node000008"><a xlink:title=" ">
<path fill="none" stroke="#63b8ff" d="M266.44,-211.21C333.38,-210.34 457.61,-209.48 563.5,-213 575.19,-213.39 587.84,-214.07 599.51,-214.82"/>
<polygon fill="#63b8ff" stroke="#63b8ff" points="599.05,-218.29 609.26,-215.47 599.52,-211.31 599.05,-218.29"/>
</a>
</g>
</g>
<!-- Node10 -->
<g id="Node000010" class="node">
<title>Node10</title>
<g id="a_Node000010"><a xlink:href="namespaceshared.html#a4a708359d4c8dbeeaa8b744eec56c0e5" target="_top" xlink:title="Hash a string.">
<polygon fill="white" stroke="#666666" points="412.88,-134 340.62,-134 340.62,-114 412.88,-114 412.88,-134"/>
<text text-anchor="middle" x="376.75" y="-120.5" font-family="Helvetica,sans-Serif" font-size="10.00">shared::hash</text>
</a>
</g>
</g>
<!-- Node4&#45;&gt;Node10 -->
<g id="edge10_Node000004_Node000010" class="edge">
<title>Node4&#45;&gt;Node10</title>
<g id="a_edge10_Node000004_Node000010"><a xlink:title=" ">
<path fill="none" stroke="#63b8ff" d="M266.22,-204.03C276.39,-201.32 286.8,-197.74 296,-193 309.21,-186.2 337.72,-160.29 356.83,-142.23"/>
<polygon fill="#63b8ff" stroke="#63b8ff" points="359.18,-144.83 364,-135.39 354.35,-139.76 359.18,-144.83"/>
</a>
</g>
</g>
<!-- Node11 -->
<g id="Node000011" class="node">
<title>Node11</title>
<g id="a_Node000011"><a xlink:href="namespacebinaries.html#ac1478c81b2eb2c4ecdba98e92c4e7651" target="_top" xlink:title="Parse a binary to determine dependencies.">
<polygon fill="white" stroke="#666666" points="416.62,-304 336.88,-304 336.88,-284 416.62,-284 416.62,-304"/>
<text text-anchor="middle" x="376.75" y="-290.5" font-family="Helvetica,sans-Serif" font-size="10.00">binaries::parse</text>
</a>
</g>
</g>
<!-- Node4&#45;&gt;Node11 -->
<g id="edge13_Node000004_Node000011" class="edge">
<title>Node4&#45;&gt;Node11</title>
<g id="a_edge13_Node000004_Node000011"><a xlink:title=" ">
<path fill="none" stroke="#63b8ff" d="M237.76,-222.39C265.07,-236.56 314.22,-262.06 345.89,-278.5"/>
<polygon fill="#63b8ff" stroke="#63b8ff" points="344.07,-281.5 354.56,-283 347.29,-275.29 344.07,-281.5"/>
</a>
</g>
</g>
<!-- Node6 -->
<g id="Node000006" class="node">
<title>Node6</title>
<g id="a_Node000006"><a xlink:href="namespaceshared.html#a993cd576fb1a43b497dc350728bd8c80" target="_top" xlink:title="Batch multiple iterations of an accumulator function together, threaded.">
<polygon fill="white" stroke="#666666" points="680.75,-456 605.5,-456 605.5,-436 680.75,-436 680.75,-456"/>
<text text-anchor="middle" x="643.12" y="-442.5" font-family="Helvetica,sans-Serif" font-size="10.00">shared::batch</text>
</a>
</g>
</g>
<!-- Node5&#45;&gt;Node6 -->
<g id="edge5_Node000005_Node000006" class="edge">
<title>Node5&#45;&gt;Node6</title>
<g id="a_edge5_Node000005_Node000006"><a xlink:title=" ">
<path fill="none" stroke="#63b8ff" d="M545.48,-417.88C560.86,-422.36 579.27,-427.72 595.88,-432.55"/>
<polygon fill="#63b8ff" stroke="#63b8ff" points="594.46,-435.78 605.04,-435.21 596.41,-429.06 594.46,-435.78"/>
</a>
</g>
</g>
<!-- Node7 -->
<g id="Node000007" class="node">
<title>Node7</title>
<g id="a_Node000007"><a xlink:href="namespaceshared.html#a2f7cb04abbe01ba7193f2d2a6d520355" target="_top" xlink:title="Join a vector into a string.">
<polygon fill="white" stroke="#666666" points="676.25,-380 610,-380 610,-360 676.25,-360 676.25,-380"/>
<text text-anchor="middle" x="643.12" y="-366.5" font-family="Helvetica,sans-Serif" font-size="10.00">shared::join</text>
</a>
</g>
</g>
<!-- Node5&#45;&gt;Node7 -->
<g id="edge7_Node000005_Node000007" class="edge">
<title>Node5&#45;&gt;Node7</title>
<g id="a_edge7_Node000005_Node000007"><a xlink:title=" ">
<path fill="none" stroke="#63b8ff" d="M545.48,-398.12C561.73,-393.39 581.36,-387.68 598.68,-382.64"/>
<polygon fill="#63b8ff" stroke="#63b8ff" points="599.59,-386.02 608.21,-379.87 597.63,-379.3 599.59,-386.02"/>
</a>
</g>
</g>
<!-- Node5&#45;&gt;Node8 -->
<g id="edge8_Node000005_Node000008" class="edge">
<title>Node5&#45;&gt;Node8</title>
<g id="a_edge8_Node000005_Node000008"><a xlink:title=" ">
<path fill="none" stroke="#63b8ff" d="M522.17,-397.65C533.2,-386.64 550.6,-368.45 563.5,-351 591.27,-313.45 617.64,-265.45 631.66,-238.59"/>
<polygon fill="#63b8ff" stroke="#63b8ff" points="634.72,-240.3 636.19,-229.81 628.5,-237.09 634.72,-240.3"/>
</a>
</g>
</g>
<!-- Node9 -->
<g id="Node000009" class="node">
<title>Node9</title>
<g id="a_Node000009"><a xlink:href="namespaceshared.html#a6955b6b671ef8b660a0d6ed018712923" target="_top" xlink:title="Resolve wildcard patterns.">
<polygon fill="white" stroke="#666666" points="686.75,-418 599.5,-418 599.5,-398 686.75,-398 686.75,-418"/>
<text text-anchor="middle" x="643.12" y="-404.5" font-family="Helvetica,sans-Serif" font-size="10.00">shared::wildcard</text>
</a>
</g>
</g>
<!-- Node5&#45;&gt;Node9 -->
<g id="edge9_Node000005_Node000009" class="edge">
<title>Node5&#45;&gt;Node9</title>
<g id="a_edge9_Node000005_Node000009"><a xlink:title=" ">
<path fill="none" stroke="#63b8ff" d="M545.48,-408C558.48,-408 573.66,-408 588.08,-408"/>
<polygon fill="#63b8ff" stroke="#63b8ff" points="587.91,-411.5 597.91,-408 587.91,-404.5 587.91,-411.5"/>
</a>
</g>
</g>
<!-- Node6&#45;&gt;Node2 -->
<g id="edge6_Node000006_Node000002" class="edge">
<title>Node6&#45;&gt;Node2</title>
<g id="a_edge6_Node000006_Node000002"><a xlink:title=" ">
<path fill="none" stroke="#63b8ff" d="M676.73,-435.54C680.52,-433.22 684,-430.41 686.75,-427 729.68,-373.78 753.45,-157.64 760.07,-88.43"/>
<polygon fill="#63b8ff" stroke="#63b8ff" points="763.52,-89.08 760.96,-78.8 756.55,-88.43 763.52,-89.08"/>
</a>
</g>
</g>
<!-- Node10&#45;&gt;Node10 -->
<g id="edge11_Node000010_Node000010" class="edge">
<title>Node10&#45;&gt;Node10</title>
<g id="a_edge11_Node000010_Node000010"><a xlink:title=" ">
<path fill="none" stroke="#63b8ff" d="M355.5,-134.34C346.42,-142.98 353.5,-152 376.75,-152 389.46,-152 397.34,-149.3 400.39,-145.44"/>
<polygon fill="#63b8ff" stroke="#63b8ff" points="403.84,-144.86 398.32,-135.82 397,-146.33 403.84,-144.86"/>
</a>
</g>
</g>
<!-- Node11&#45;&gt;Node5 -->
<g id="edge14_Node000011_Node000005" class="edge">
<title>Node11&#45;&gt;Node5</title>
<g id="a_edge14_Node000011_Node000005"><a xlink:title=" ">
<path fill="none" stroke="#63b8ff" d="M384.77,-304.43C397.45,-322.63 425.83,-360.47 457.5,-384 461.76,-387.17 466.51,-390.06 471.36,-392.65"/>
<polygon fill="#63b8ff" stroke="#63b8ff" points="469.45,-395.61 479.96,-396.88 472.53,-389.33 469.45,-395.61"/>
</a>
</g>
</g>
<!-- Node11&#45;&gt;Node7 -->
<g id="edge15_Node000011_Node000007" class="edge">
<title>Node11&#45;&gt;Node7</title>
<g id="a_edge15_Node000011_Node000007"><a xlink:title=" ">
<path fill="none" stroke="#63b8ff" d="M388.28,-304.34C402.6,-317.7 429.64,-340.47 457.5,-351 503.39,-368.35 560,-371.79 598.34,-371.72"/>
<polygon fill="#63b8ff" stroke="#63b8ff" points="598.15,-375.22 608.11,-371.61 598.07,-368.22 598.15,-375.22"/>
</a>
</g>
</g>
<!-- Node11&#45;&gt;Node8 -->
<g id="edge16_Node000011_Node000008" class="edge">
<title>Node11&#45;&gt;Node8</title>
<g id="a_edge16_Node000011_Node000008"><a xlink:title=" ">
<path fill="none" stroke="#63b8ff" d="M388.28,-283.66C402.6,-270.3 429.64,-247.53 457.5,-237 503.8,-219.49 561.01,-216.15 599.36,-216.28"/>
<polygon fill="#63b8ff" stroke="#63b8ff" points="599.07,-219.78 609.12,-216.41 599.16,-212.78 599.07,-219.78"/>
</a>
</g>
</g>
<!-- Node11&#45;&gt;Node11 -->
<g id="edge17_Node000011_Node000011" class="edge">
<title>Node11&#45;&gt;Node11</title>
<g id="a_edge17_Node000011_Node000011"><a xlink:title=" ">
<path fill="none" stroke="#63b8ff" d="M355.5,-304.34C346.42,-312.98 353.5,-322 376.75,-322 389.46,-322 397.34,-319.3 400.39,-315.44"/>
<polygon fill="#63b8ff" stroke="#63b8ff" points="403.84,-314.86 398.32,-305.82 397,-316.33 403.84,-314.86"/>
</a>
</g>
</g>
<!-- Node12 -->
<g id="Node000012" class="node">
<title>Node12</title>
<g id="a_Node000012"><a xlink:href="namespaceshared.html#a8d237bf1ea1e2a6fb5c7d30bcb51f593" target="_top" xlink:title="Batch multiple iterations of an accumulator function together.">
<polygon fill="white" stroke="#666666" points="563.5,-304 457.5,-304 457.5,-284 563.5,-284 563.5,-304"/>
<text text-anchor="middle" x="510.5" y="-290.5" font-family="Helvetica,sans-Serif" font-size="10.00">shared::single_batch</text>
</a>
</g>
</g>
<!-- Node11&#45;&gt;Node12 -->
<g id="edge18_Node000011_Node000012" class="edge">
<title>Node11&#45;&gt;Node12</title>
<g id="a_edge18_Node000011_Node000012"><a xlink:title=" ">
<path fill="none" stroke="#63b8ff" d="M416.92,-294C425.97,-294 435.83,-294 445.63,-294"/>
<polygon fill="#63b8ff" stroke="#63b8ff" points="445.54,-297.5 455.54,-294 445.54,-290.5 445.54,-297.5"/>
</a>
</g>
</g>
<!-- Node13 -->
<g id="Node000013" class="node">
<title>Node13</title>
<g id="a_Node000013"><a xlink:href="namespaceshared.html#ae0ec3e8d4de79340eda47eabfd075feb" target="_top" xlink:title="Strip all instance of character from a string.">
<polygon fill="white" stroke="#666666" points="545.5,-266 475.5,-266 475.5,-246 545.5,-246 545.5,-266"/>
<text text-anchor="middle" x="510.5" y="-252.5" font-family="Helvetica,sans-Serif" font-size="10.00">shared::strip</text>
</a>
</g>
</g>
<!-- Node11&#45;&gt;Node13 -->
<g id="edge19_Node000011_Node000013" class="edge">
<title>Node11&#45;&gt;Node13</title>
<g id="a_edge19_Node000011_Node000013"><a xlink:title=" ">
<path fill="none" stroke="#63b8ff" d="M414.1,-283.52C429.57,-279.05 447.78,-273.8 464.12,-269.09"/>
<polygon fill="#63b8ff" stroke="#63b8ff" points="464.99,-272.48 473.63,-266.35 463.05,-265.75 464.99,-272.48"/>
</a>
</g>
</g>
<!-- Node14 -->
<g id="Node000014" class="node">
<title>Node14</title>
<g id="a_Node000014"><a xlink:href="namespaceshared.html#a77e45bc6735a35fbc38891b166e40a7b" target="_top" xlink:title="Trim characters from the front and end of a string.">
<polygon fill="white" stroke="#666666" points="544.38,-342 476.62,-342 476.62,-322 544.38,-322 544.38,-342"/>
<text text-anchor="middle" x="510.5" y="-328.5" font-family="Helvetica,sans-Serif" font-size="10.00">shared::trim</text>
</a>
</g>
</g>
<!-- Node11&#45;&gt;Node14 -->
<g id="edge20_Node000011_Node000014" class="edge">
<title>Node11&#45;&gt;Node14</title>
<g id="a_edge20_Node000011_Node000014"><a xlink:title=" ">
<path fill="none" stroke="#63b8ff" d="M414.1,-304.48C430.09,-309.1 449.02,-314.56 465.78,-319.39"/>
<polygon fill="#63b8ff" stroke="#63b8ff" points="464.39,-322.63 474.97,-322.04 466.33,-315.91 464.39,-322.63"/>
</a>
</g>
</g>
<!-- Node16&#45;&gt;Node2 -->
<g id="edge23_Node000016_Node000002" class="edge">
<title>Node16&#45;&gt;Node2</title>
<g id="a_edge23_Node000016_Node000002"><a xlink:title=" ">
<path fill="none" stroke="#63b8ff" d="M421.99,-8.83C482.65,-8.26 594.63,-10.93 686.75,-34 702.58,-37.97 719.29,-44.98 732.94,-51.52"/>
<polygon fill="#63b8ff" stroke="#63b8ff" points="731.28,-54.61 741.79,-55.93 734.4,-48.34 731.28,-54.61"/>
</a>
</g>
</g>
<!-- Node17&#45;&gt;Node2 -->
<g id="edge25_Node000017_Node000002" class="edge">
<title>Node17&#45;&gt;Node2</title>
<g id="a_edge25_Node000017_Node000002"><a xlink:title=" ">
<path fill="none" stroke="#63b8ff" d="M421.83,-83.82C493.64,-80.27 635.48,-73.26 711.33,-69.51"/>
<polygon fill="#63b8ff" stroke="#63b8ff" points="711.15,-73.02 720.97,-69.03 710.8,-66.03 711.15,-73.02"/>
</a>
</g>
</g>
</g>
</svg>

<g id="navigator" transform="translate(0 0)" fill="#404254">
  <rect fill="#f2f5e9" fill-opacity="0.5" stroke="#606060" stroke-width=".5" x="0" y="0" width="60" height="60"/>
  <use id="zoomplus" xlink:href="#zoomPlus" x="17" y="9" onmousedown="handleZoom(evt,'in')"/>
  <use id="zoomminus" xlink:href="#zoomMin" x="42" y="9" onmousedown="handleZoom(evt,'out')"/>
  <use id="reset" xlink:href="#resetDef" x="30" y="36" onmousedown="handleReset()"/>
   <use id="arrowup" xlink:href="#arrowUp" x="0" y="0" onmousedown="handlePan(0,-1)"/>
  <use id="arrowright" xlink:href="#arrowRight" x="0" y="0" onmousedown="handlePan(1,0)"/>
  <use id="arrowdown" xlink:href="#arrowDown" x="0" y="0" onmousedown="handlePan(0,1)"/>
  <use id="arrowleft" xlink:href="#arrowLeft" x="0" y="0" onmousedown="handlePan(-1,0)"/>
</g>
<svg viewBox="0 0 15 15" width="100%" height="30px" preserveAspectRatio="xMaxYMin meet">
 <g id="arrow_out" transform="scale(0.3 0.3)">
  <a xlink:href="namespacegenerate_a5c0026523dd30f942c55ad25f1b607b4_cgraph_org.svg" target="_base">
   <rect id="button" ry="5" rx="5" y="6" x="6" height="38" width="38"
        fill="#f2f5e9" fill-opacity="0.5" stroke="#606060" stroke-width="1.0"/>
   <path id="arrow"
     d="M 11.500037,31.436501 C 11.940474,20.09759 22.043105,11.32322 32.158766,21.979434 L 37.068811,17.246167 C 37.068811,17.246167 37.088388,32 37.088388,32 L 22.160133,31.978069 C 22.160133,31.978069 26.997745,27.140456 26.997745,27.140456 C 18.528582,18.264221 13.291696,25.230495 11.500037,31.436501 z"
     style="fill:#404040;"/>
  </a>
 </g>
</svg>

<style type='text/css'>
<![CDATA[
[data-mouse-over-selected='false'] { opacity: 0.7; }
[data-mouse-over-selected='true']  { opacity: 1.0; }
]]>
</style>
<script type="application/ecmascript"><![CDATA[
document.addEventListener('DOMContentLoaded', (event) => {
  highlightEdges();
  highlightAdjacentNodes();
});
]]></script>
</svg>
