<?xml version="1.0" encoding="UTF-8" standalone="no"?>
<!DOCTYPE svg PUBLIC "-//W3C//DTD SVG 1.1//EN"
 "http://www.w3.org/Graphics/SVG/1.1/DTD/svg11.dtd">
<!-- Generated by graphviz version 12.2.1 (0)
 -->
<!-- Title: generate::desktop_entry Pages: 1 -->
<svg width="621pt" height="142pt"
 viewBox="0.00 0.00 621.25 142.00" xmlns="http://www.w3.org/2000/svg" xmlns:xlink="http://www.w3.org/1999/xlink">
<g id="graph0" class="graph" transform="scale(1 1) rotate(0) translate(4 138)">
<title>generate::desktop_entry</title>
<!-- Node1 -->
<g id="Node000001" class="node">
<title>Node1</title>
<g id="a_Node000001"><a xlink:title="Generate a desktop file for the sandbox.">
<polygon fill="#999999" stroke="#666666" points="121,-96 0,-96 0,-76 121,-76 121,-96"/>
<text text-anchor="middle" x="60.5" y="-82.5" font-family="Helvetica,sans-Serif" font-size="10.00">generate::desktop_entry</text>
</a>
</g>
</g>
<!-- Node2 -->
<g id="Node000002" class="node">
<title>Node2</title>
<g id="a_Node000002"><a xlink:href="namespaceshared.html#a2f7cb04abbe01ba7193f2d2a6d520355" target="_top" xlink:title="Join a vector into a string.">
<polygon fill="white" stroke="#666666" points="364.12,-134 297.88,-134 297.88,-114 364.12,-114 364.12,-134"/>
<text text-anchor="middle" x="331" y="-120.5" font-family="Helvetica,sans-Serif" font-size="10.00">shared::join</text>
</a>
</g>
</g>
<!-- Node1&#45;&gt;Node2 -->
<g id="edge1_Node000001_Node000002" class="edge">
<title>Node1&#45;&gt;Node2</title>
<g id="a_edge1_Node000001_Node000002"><a xlink:title=" ">
<path fill="none" stroke="#63b8ff" d="M81.32,-96.47C100.18,-105.8 129.66,-118.76 157,-124 200.33,-132.3 250.9,-131.08 286.13,-128.53"/>
<polygon fill="#63b8ff" stroke="#63b8ff" points="286.25,-132.03 295.94,-127.74 285.7,-125.05 286.25,-132.03"/>
</a>
</g>
</g>
<!-- Node3 -->
<g id="Node000003" class="node">
<title>Node3</title>
<g id="a_Node000003"><a xlink:href="namespaceshared.html#afac154f1bef460ef6f24705f6c033f37" target="_top" xlink:title="Read a file.">
<polygon fill="white" stroke="#666666" points="246.5,-115 158.5,-115 158.5,-95 246.5,-95 246.5,-115"/>
<text text-anchor="middle" x="202.5" y="-101.5" font-family="Helvetica,sans-Serif" font-size="10.00">shared::read_file</text>
</a>
</g>
</g>
<!-- Node1&#45;&gt;Node3 -->
<g id="edge2_Node000001_Node000003" class="edge">
<title>Node1&#45;&gt;Node3</title>
<g id="a_edge2_Node000001_Node000003"><a xlink:title=" ">
<path fill="none" stroke="#63b8ff" d="M121.28,-94.11C129.76,-95.26 138.45,-96.44 146.83,-97.58"/>
<polygon fill="#63b8ff" stroke="#63b8ff" points="146.13,-101.02 156.51,-98.89 147.07,-94.08 146.13,-101.02"/>
</a>
</g>
</g>
<!-- Node4 -->
<g id="Node000004" class="node">
<title>Node4</title>
<g id="a_Node000004"><a xlink:href="namespacegenerate.html#a67b94cdd53f264ff45e467ce97cd44d4" target="_top" xlink:title="Generate a script for the sandbox.">
<polygon fill="white" stroke="#666666" points="244.25,-77 160.75,-77 160.75,-57 244.25,-57 244.25,-77"/>
<text text-anchor="middle" x="202.5" y="-63.5" font-family="Helvetica,sans-Serif" font-size="10.00">generate::script</text>
</a>
</g>
</g>
<!-- Node1&#45;&gt;Node4 -->
<g id="edge3_Node000001_Node000004" class="edge">
<title>Node1&#45;&gt;Node4</title>
<g id="a_edge3_Node000001_Node000004"><a xlink:title=" ">
<path fill="none" stroke="#63b8ff" d="M121.28,-77.89C130.58,-76.62 140.13,-75.33 149.25,-74.09"/>
<polygon fill="#63b8ff" stroke="#63b8ff" points="149.58,-77.58 159.01,-72.77 148.63,-70.64 149.58,-77.58"/>
</a>
</g>
</g>
<!-- Node6 -->
<g id="Node000006" class="node">
<title>Node6</title>
<g id="a_Node000006"><a xlink:href="namespaceshared.html#ae5d42a7f6819f149991304227a611c78" target="_top" xlink:title="A Blocking Parser that splits the output into a vector.">
<polygon fill="white" stroke="#666666" points="248,-39 157,-39 157,-19 248,-19 248,-39"/>
<text text-anchor="middle" x="202.5" y="-25.5" font-family="Helvetica,sans-Serif" font-size="10.00">shared::vectorize</text>
</a>
</g>
</g>
<!-- Node1&#45;&gt;Node6 -->
<g id="edge6_Node000001_Node000006" class="edge">
<title>Node1&#45;&gt;Node6</title>
<g id="a_edge6_Node000001_Node000006"><a xlink:title=" ">
<path fill="none" stroke="#63b8ff" d="M87.18,-75.55C109.18,-66.59 141.11,-53.59 165.64,-43.6"/>
<polygon fill="#63b8ff" stroke="#63b8ff" points="166.64,-46.97 174.58,-39.96 164,-40.49 166.64,-46.97"/>
</a>
</g>
</g>
<!-- Node4&#45;&gt;Node2 -->
<g id="edge5_Node000004_Node000002" class="edge">
<title>Node4&#45;&gt;Node2</title>
<g id="a_edge5_Node000004_Node000002"><a xlink:title=" ">
<path fill="none" stroke="#63b8ff" d="M228.04,-77.32C234.55,-80.1 241.55,-83.13 248,-86 264.5,-93.34 282.73,-101.76 297.81,-108.81"/>
<polygon fill="#63b8ff" stroke="#63b8ff" points="296.25,-111.94 306.79,-113.01 299.22,-105.6 296.25,-111.94"/>
</a>
</g>
</g>
<!-- Node5 -->
<g id="Node000005" class="node">
<title>Node5</title>
<g id="a_Node000005"><a xlink:href="namespaceshared.html#a585cdabc1b4758c65001d7dd03cb6715" target="_top" xlink:title="Execute stuff.">
<polygon fill="white" stroke="#666666" points="367.12,-77 294.88,-77 294.88,-57 367.12,-57 367.12,-77"/>
<text text-anchor="middle" x="331" y="-63.5" font-family="Helvetica,sans-Serif" font-size="10.00">shared::exec</text>
</a>
</g>
</g>
<!-- Node4&#45;&gt;Node5 -->
<g id="edge4_Node000004_Node000005" class="edge">
<title>Node4&#45;&gt;Node5</title>
<g id="a_edge4_Node000004_Node000005"><a xlink:title=" ">
<path fill="none" stroke="#63b8ff" d="M244.57,-67C256.94,-67 270.61,-67 283.32,-67"/>
<polygon fill="#63b8ff" stroke="#63b8ff" points="283.14,-70.5 293.14,-67 283.14,-63.5 283.14,-70.5"/>
</a>
</g>
</g>
<!-- Node7 -->
<g id="Node000007" class="node">
<title>Node7</title>
<g id="a_Node000007"><a xlink:href="namespaceshared.html#a3736db9aa00bd9e0a56aeaf1057066c0" target="_top" xlink:title="Split the contents of an FD.">
<polygon fill="white" stroke="#666666" points="378,-39 284,-39 284,-19 378,-19 378,-39"/>
<text text-anchor="middle" x="331" y="-25.5" font-family="Helvetica,sans-Serif" font-size="10.00">shared::fd_splitter</text>
</a>
</g>
</g>
<!-- Node6&#45;&gt;Node7 -->
<g id="edge7_Node000006_Node000007" class="edge">
<title>Node6&#45;&gt;Node7</title>
<g id="a_edge7_Node000006_Node000007"><a xlink:title=" ">
<path fill="none" stroke="#63b8ff" d="M248.46,-29C256.27,-29 264.5,-29 272.6,-29"/>
<polygon fill="#63b8ff" stroke="#63b8ff" points="272.39,-32.5 282.39,-29 272.39,-25.5 272.39,-32.5"/>
</a>
</g>
</g>
<!-- Node8 -->
<g id="Node000008" class="node">
<title>Node8</title>
<g id="a_Node000008"><a xlink:href="namespaceshared.html#a80f3b59804700742a5a0c6ea15bf24f9" target="_top" xlink:title="A Blocking Parser that returns the output in a single string.">
<polygon fill="white" stroke="#666666" points="491.88,-58 416.62,-58 416.62,-38 491.88,-38 491.88,-58"/>
<text text-anchor="middle" x="454.25" y="-44.5" font-family="Helvetica,sans-Serif" font-size="10.00">shared::dump</text>
</a>
</g>
</g>
<!-- Node7&#45;&gt;Node8 -->
<g id="edge8_Node000007_Node000008" class="edge">
<title>Node7&#45;&gt;Node8</title>
<g id="a_edge8_Node000007_Node000008"><a xlink:title=" ">
<path fill="none" stroke="#63b8ff" d="M378.19,-36.24C386.93,-37.61 396.11,-39.05 404.92,-40.43"/>
<polygon fill="#63b8ff" stroke="#63b8ff" points="404.31,-43.87 414.73,-41.96 405.4,-36.96 404.31,-43.87"/>
</a>
</g>
</g>
<!-- Node9 -->
<g id="Node000009" class="node">
<title>Node9</title>
<g id="a_Node000009"><a xlink:href="namespaceshared.html#a690cc836408825d804377522d9d99a07" target="_top" xlink:title="Split a string.">
<polygon fill="white" stroke="#666666" points="494.5,-20 414,-20 414,0 494.5,0 494.5,-20"/>
<text text-anchor="middle" x="454.25" y="-6.5" font-family="Helvetica,sans-Serif" font-size="10.00">shared::splitter</text>
</a>
</g>
</g>
<!-- Node7&#45;&gt;Node9 -->
<g id="edge9_Node000007_Node000009" class="edge">
<title>Node7&#45;&gt;Node9</title>
<g id="a_edge9_Node000007_Node000009"><a xlink:title=" ">
<path fill="none" stroke="#63b8ff" d="M378.19,-21.76C386.1,-20.52 394.36,-19.23 402.39,-17.97"/>
<polygon fill="#63b8ff" stroke="#63b8ff" points="402.69,-21.47 412.03,-16.46 401.61,-14.55 402.69,-21.47"/>
</a>
</g>
</g>
<!-- Node10 -->
<g id="Node000010" class="node">
<title>Node10</title>
<g id="a_Node000010"><a xlink:href="namespaceshared.html#a6282d0d8d2ab3f70038d7428729c15ca" target="_top" xlink:title="Escape a string.">
<polygon fill="white" stroke="#666666" points="613.25,-20 530.5,-20 530.5,0 613.25,0 613.25,-20"/>
<text text-anchor="middle" x="571.88" y="-6.5" font-family="Helvetica,sans-Serif" font-size="10.00">shared::escape</text>
</a>
</g>
</g>
<!-- Node9&#45;&gt;Node10 -->
<g id="edge10_Node000009_Node000010" class="edge">
<title>Node9&#45;&gt;Node10</title>
<g id="a_edge10_Node000009_Node000010"><a xlink:title=" ">
<path fill="none" stroke="#63b8ff" d="M494.72,-10C502.46,-10 510.68,-10 518.76,-10"/>
<polygon fill="#63b8ff" stroke="#63b8ff" points="518.5,-13.5 528.5,-10 518.5,-6.5 518.5,-13.5"/>
</a>
</g>
</g>
</g>
</svg>
