<?xml version="1.0" encoding="UTF-8" standalone="no"?>
<!DOCTYPE svg PUBLIC "-//W3C//DTD SVG 1.1//EN"
 "http://www.w3.org/Graphics/SVG/1.1/DTD/svg11.dtd">
<!-- Generated by graphviz version 12.2.1 (0)
 -->
<!-- Title: shared::log Pages: 1 -->
<svg width="438pt" height="295pt"
 viewBox="0.00 0.00 438.00 295.29" xmlns="http://www.w3.org/2000/svg" xmlns:xlink="http://www.w3.org/1999/xlink">
<g id="graph0" class="graph" transform="scale(1 1) rotate(0) translate(4 291.29)">
<title>shared::log</title>
<!-- Node1 -->
<g id="Node000001" class="node">
<title>Node1</title>
<g id="a_Node000001"><a xlink:title="Log output to console, if verbose.">
<polygon fill="#999999" stroke="#666666" points="430,-152 366,-152 366,-132 430,-132 430,-152"/>
<text text-anchor="middle" x="398" y="-138.5" font-family="Helvetica,sans-Serif" font-size="10.00">shared::log</text>
</a>
</g>
</g>
<!-- Node2 -->
<g id="Node000002" class="node">
<title>Node2</title>
<g id="a_Node000002"><a xlink:href="namespacegenerate.html#a38dcdfdf9293b8aafe77392021d65019" target="_top" xlink:title="Generate the bulk of the main program command.">
<polygon fill="white" stroke="#666666" points="89.88,-284 11.62,-284 11.62,-264 89.88,-264 89.88,-284"/>
<text text-anchor="middle" x="50.75" y="-270.5" font-family="Helvetica,sans-Serif" font-size="10.00">generate::cmd</text>
</a>
</g>
</g>
<!-- Node1&#45;&gt;Node2 -->
<g id="edge1_Node000001_Node000002" class="edge">
<title>Node1&#45;&gt;Node2</title>
<g id="a_edge1_Node000001_Node000002"><a xlink:title=" ">
<path fill="none" stroke="#63b8ff" d="M389.27,-162.92C379.31,-186.83 359.69,-225.32 330,-246 257.69,-296.36 148.05,-289.39 90.36,-281.06"/>
<polygon fill="#63b8ff" stroke="#63b8ff" points="392.41,-164.49 392.82,-153.9 385.9,-161.92 392.41,-164.49"/>
</a>
</g>
</g>
<!-- Node3 -->
<g id="Node000003" class="node">
<title>Node3</title>
<g id="a_Node000003"><a xlink:href="namespacesyscalls.html#aabdab752b02a21ab92e3af4fabba493b" target="_top" xlink:title="Generate a syscall filter.">
<polygon fill="white" stroke="#666666" points="330,-58 253.25,-58 253.25,-38 330,-38 330,-58"/>
<text text-anchor="middle" x="291.62" y="-44.5" font-family="Helvetica,sans-Serif" font-size="10.00">syscalls::filter</text>
</a>
</g>
</g>
<!-- Node1&#45;&gt;Node3 -->
<g id="edge2_Node000001_Node000003" class="edge">
<title>Node1&#45;&gt;Node3</title>
<g id="a_edge2_Node000001_Node000003"><a xlink:title=" ">
<path fill="none" stroke="#63b8ff" d="M377.01,-123.99C355.44,-104.57 321.83,-74.3 304.25,-58.47"/>
<polygon fill="#63b8ff" stroke="#63b8ff" points="374.53,-126.48 384.31,-130.57 379.22,-121.28 374.53,-126.48"/>
</a>
</g>
</g>
<!-- Node4 -->
<g id="Node000004" class="node">
<title>Node4</title>
<g id="a_Node000004"><a xlink:href="namespaceshared.html#a00b81f070735db096bbcd00c9d87188e" target="_top" xlink:title="Attach an environment variable to the sandbox.">
<polygon fill="white" stroke="#666666" points="327.75,-20 255.5,-20 255.5,0 327.75,0 327.75,-20"/>
<text text-anchor="middle" x="291.62" y="-6.5" font-family="Helvetica,sans-Serif" font-size="10.00">shared::genv</text>
</a>
</g>
</g>
<!-- Node1&#45;&gt;Node4 -->
<g id="edge4_Node000001_Node000004" class="edge">
<title>Node1&#45;&gt;Node4</title>
<g id="a_edge4_Node000001_Node000004"><a xlink:title=" ">
<path fill="none" stroke="#63b8ff" d="M388.99,-121.32C378.57,-96.68 358.3,-55.52 330,-29 326.49,-25.71 322.31,-22.86 318.04,-20.43"/>
<polygon fill="#63b8ff" stroke="#63b8ff" points="385.61,-122.31 392.62,-130.25 392.1,-119.67 385.61,-122.31"/>
</a>
</g>
</g>
<!-- Node5 -->
<g id="Node000005" class="node">
<title>Node5</title>
<g id="a_Node000005"><a xlink:href="namespacelibraries.html#a4dfd6ab45adf8dc18ea57bc1f88eaedf" target="_top" xlink:title="Recursively resolve all shared&#45;libraries needed by a library.">
<polygon fill="white" stroke="#666666" points="326.25,-237 257,-237 257,-217 326.25,-217 326.25,-237"/>
<text text-anchor="middle" x="291.62" y="-223.5" font-family="Helvetica,sans-Serif" font-size="10.00">libraries::get</text>
</a>
</g>
</g>
<!-- Node1&#45;&gt;Node5 -->
<g id="edge5_Node000001_Node000005" class="edge">
<title>Node1&#45;&gt;Node5</title>
<g id="a_edge5_Node000001_Node000005"><a xlink:title=" ">
<path fill="none" stroke="#63b8ff" d="M375.27,-159.69C354.07,-176.96 322.55,-202.63 305.2,-216.76"/>
<polygon fill="#63b8ff" stroke="#63b8ff" points="377.48,-162.41 383.03,-153.38 373.06,-156.98 377.48,-162.41"/>
</a>
</g>
</g>
<!-- Node6 -->
<g id="Node000006" class="node">
<title>Node6</title>
<g id="a_Node000006"><a xlink:href="namespacebinaries.html#ac1478c81b2eb2c4ecdba98e92c4e7651" target="_top" xlink:title="Parse a binary to determine dependencies.">
<polygon fill="white" stroke="#666666" points="217.25,-190 137.5,-190 137.5,-170 217.25,-170 217.25,-190"/>
<text text-anchor="middle" x="177.38" y="-176.5" font-family="Helvetica,sans-Serif" font-size="10.00">binaries::parse</text>
</a>
</g>
</g>
<!-- Node1&#45;&gt;Node6 -->
<g id="edge12_Node000001_Node000006" class="edge">
<title>Node1&#45;&gt;Node6</title>
<g id="a_edge12_Node000001_Node000006"><a xlink:title=" ">
<path fill="none" stroke="#63b8ff" d="M354.52,-151.2C346.39,-152.87 337.94,-154.54 330,-156 291.99,-162.98 248.39,-169.75 217.73,-174.31"/>
<polygon fill="#63b8ff" stroke="#63b8ff" points="355.15,-154.65 364.22,-149.18 353.72,-147.8 355.15,-154.65"/>
</a>
</g>
</g>
<!-- Node7 -->
<g id="Node000007" class="node">
<title>Node7</title>
<g id="a_Node000007"><a xlink:href="namespacegenerate.html#a5c0026523dd30f942c55ad25f1b607b4" target="_top" xlink:title="Spawn an instance of the xdg&#45;dbus&#45;proxy for the application instance.">
<polygon fill="white" stroke="#666666" points="101.5,-177 0,-177 0,-145 101.5,-145 101.5,-177"/>
<text text-anchor="start" x="8" y="-163.5" font-family="Helvetica,sans-Serif" font-size="10.00">generate::xdg_dbus</text>
<text text-anchor="middle" x="50.75" y="-151.5" font-family="Helvetica,sans-Serif" font-size="10.00">_proxy</text>
</a>
</g>
</g>
<!-- Node1&#45;&gt;Node7 -->
<g id="edge15_Node000001_Node000007" class="edge">
<title>Node1&#45;&gt;Node7</title>
<g id="a_edge15_Node000001_Node000007"><a xlink:title=" ">
<path fill="none" stroke="#63b8ff" d="M354.8,-131.74C303.04,-120.79 212.89,-107.04 137.5,-123 117.59,-127.21 96.68,-136.37 80.49,-144.64"/>
<polygon fill="#63b8ff" stroke="#63b8ff" points="353.87,-135.12 364.38,-133.84 355.36,-128.28 353.87,-135.12"/>
</a>
</g>
</g>
<!-- Node8 -->
<g id="Node000008" class="node">
<title>Node8</title>
<g id="a_Node000008"><a xlink:href="namespacelibraries.html#adb180a16d1881d4ca1da44e7e3512cc5" target="_top" xlink:title="Setup an SOF directory.">
<polygon fill="white" stroke="#666666" points="217.25,-152 137.5,-152 137.5,-132 217.25,-132 217.25,-152"/>
<text text-anchor="middle" x="177.38" y="-138.5" font-family="Helvetica,sans-Serif" font-size="10.00">libraries::setup</text>
</a>
</g>
</g>
<!-- Node1&#45;&gt;Node8 -->
<g id="edge13_Node000001_Node000008" class="edge">
<title>Node1&#45;&gt;Node8</title>
<g id="a_edge13_Node000001_Node000008"><a xlink:title=" ">
<path fill="none" stroke="#63b8ff" d="M354.25,-142C314.53,-142 255.87,-142 217.4,-142"/>
<polygon fill="#63b8ff" stroke="#63b8ff" points="354.16,-145.5 364.16,-142 354.16,-138.5 354.16,-145.5"/>
</a>
</g>
</g>
<!-- Node3&#45;&gt;Node3 -->
<g id="edge3_Node000003_Node000003" class="edge">
<title>Node3&#45;&gt;Node3</title>
<g id="a_edge3_Node000003_Node000003"><a xlink:title=" ">
<path fill="none" stroke="#63b8ff" d="M310.43,-69.44C308,-73.3 301.74,-76 291.62,-76 273.13,-76 267.5,-66.98 274.72,-58.34"/>
<polygon fill="#63b8ff" stroke="#63b8ff" points="313.92,-69.1 308.78,-59.83 307.02,-70.28 313.92,-69.1"/>
</a>
</g>
</g>
<!-- Node5&#45;&gt;Node2 -->
<g id="edge6_Node000005_Node000002" class="edge">
<title>Node5&#45;&gt;Node2</title>
<g id="a_edge6_Node000005_Node000002"><a xlink:title=" ">
<path fill="none" stroke="#63b8ff" d="M250.24,-240.93C239.6,-244.25 228.07,-247.54 217.25,-250 174.22,-259.8 123.94,-266.42 90.19,-270.19"/>
<polygon fill="#63b8ff" stroke="#63b8ff" points="251.04,-244.35 259.49,-237.96 248.9,-237.68 251.04,-244.35"/>
</a>
</g>
</g>
<!-- Node5&#45;&gt;Node6 -->
<g id="edge7_Node000005_Node000006" class="edge">
<title>Node5&#45;&gt;Node6</title>
<g id="a_edge7_Node000005_Node000006"><a xlink:title=" ">
<path fill="none" stroke="#63b8ff" d="M255.11,-212.13C238.23,-205.06 218.46,-196.79 203.22,-190.4"/>
<polygon fill="#63b8ff" stroke="#63b8ff" points="253.74,-215.35 264.32,-215.98 256.44,-208.89 253.74,-215.35"/>
</a>
</g>
</g>
<!-- Node5&#45;&gt;Node7 -->
<g id="edge11_Node000005_Node000007" class="edge">
<title>Node5&#45;&gt;Node7</title>
<g id="a_edge11_Node000005_Node000007"><a xlink:title=" ">
<path fill="none" stroke="#63b8ff" d="M245.17,-230C214.08,-230.62 172.35,-228.62 137.5,-217 112.03,-208.51 86.77,-190.55 70.34,-177.25"/>
<polygon fill="#63b8ff" stroke="#63b8ff" points="245.13,-233.5 255.01,-229.69 244.91,-226.51 245.13,-233.5"/>
</a>
</g>
</g>
<!-- Node6&#45;&gt;Node2 -->
<g id="edge8_Node000006_Node000002" class="edge">
<title>Node6&#45;&gt;Node2</title>
<g id="a_edge8_Node000006_Node000002"><a xlink:title=" ">
<path fill="none" stroke="#63b8ff" d="M153.53,-197.23C127.83,-216.62 86.91,-247.48 65.63,-263.53"/>
<polygon fill="#63b8ff" stroke="#63b8ff" points="155.48,-200.15 161.35,-191.33 151.26,-194.56 155.48,-200.15"/>
</a>
</g>
</g>
<!-- Node6&#45;&gt;Node6 -->
<g id="edge9_Node000006_Node000006" class="edge">
<title>Node6&#45;&gt;Node6</title>
<g id="a_edge9_Node000006_Node000006"><a xlink:title=" ">
<path fill="none" stroke="#63b8ff" d="M197.57,-201.44C194.97,-205.3 188.24,-208 177.38,-208 157.52,-208 151.46,-198.98 159.22,-190.34"/>
<polygon fill="#63b8ff" stroke="#63b8ff" points="201.05,-201.03 195.8,-191.83 194.17,-202.3 201.05,-201.03"/>
</a>
</g>
</g>
<!-- Node6&#45;&gt;Node7 -->
<g id="edge10_Node000006_Node000007" class="edge">
<title>Node6&#45;&gt;Node7</title>
<g id="a_edge10_Node000006_Node000007"><a xlink:title=" ">
<path fill="none" stroke="#63b8ff" d="M126.14,-172.34C118.09,-171.11 109.75,-169.84 101.7,-168.62"/>
<polygon fill="#63b8ff" stroke="#63b8ff" points="125.38,-175.77 135.79,-173.81 126.43,-168.85 125.38,-175.77"/>
</a>
</g>
</g>
<!-- Node8&#45;&gt;Node7 -->
<g id="edge14_Node000008_Node000007" class="edge">
<title>Node8&#45;&gt;Node7</title>
<g id="a_edge14_Node000008_Node000007"><a xlink:title=" ">
<path fill="none" stroke="#63b8ff" d="M126.14,-149.66C118.09,-150.89 109.75,-152.16 101.7,-153.38"/>
<polygon fill="#63b8ff" stroke="#63b8ff" points="126.43,-153.15 135.79,-148.19 125.38,-146.23 126.43,-153.15"/>
</a>
</g>
</g>
</g>
</svg>
