<?xml version="1.0" encoding="UTF-8" standalone="no"?>
<!DOCTYPE svg PUBLIC "-//W3C//DTD SVG 1.1//EN"
 "http://www.w3.org/Graphics/SVG/1.1/DTD/svg11.dtd">
<!-- Generated by graphviz version 12.2.1 (0)
 -->
<!-- Title: syscalls::filter Pages: 1 -->
<svg width="577pt" height="217pt"
 viewBox="0.00 0.00 577.00 217.00" xmlns="http://www.w3.org/2000/svg" xmlns:xlink="http://www.w3.org/1999/xlink">
<g id="graph0" class="graph" transform="scale(1 1) rotate(0) translate(4 213)">
<title>syscalls::filter</title>
<!-- Node1 -->
<g id="Node000001" class="node">
<title>Node1</title>
<g id="a_Node000001"><a xlink:title="Generate a syscall filter.">
<polygon fill="#999999" stroke="#666666" points="76.75,-115 0,-115 0,-95 76.75,-95 76.75,-115"/>
<text text-anchor="middle" x="38.38" y="-101.5" font-family="Helvetica,sans-Serif" font-size="10.00">syscalls::filter</text>
</a>
</g>
</g>
<!-- Node1&#45;&gt;Node1 -->
<g id="edge1_Node000001_Node000001" class="edge">
<title>Node1&#45;&gt;Node1</title>
<g id="a_edge1_Node000001_Node000001"><a xlink:title=" ">
<path fill="none" stroke="#63b8ff" d="M19.33,-115.34C11.19,-123.98 17.54,-133 38.38,-133 49.77,-133 56.83,-130.3 59.56,-126.44"/>
<polygon fill="#63b8ff" stroke="#63b8ff" points="63.04,-125.98 57.71,-116.82 56.16,-127.31 63.04,-125.98"/>
</a>
</g>
</g>
<!-- Node2 -->
<g id="Node000002" class="node">
<title>Node2</title>
<g id="a_Node000002"><a xlink:href="namespaceshared.html#a4a708359d4c8dbeeaa8b744eec56c0e5" target="_top" xlink:title="Hash a string.">
<polygon fill="white" stroke="#666666" points="194.38,-191 122.12,-191 122.12,-171 194.38,-171 194.38,-191"/>
<text text-anchor="middle" x="158.25" y="-177.5" font-family="Helvetica,sans-Serif" font-size="10.00">shared::hash</text>
</a>
</g>
</g>
<!-- Node1&#45;&gt;Node2 -->
<g id="edge2_Node000001_Node000002" class="edge">
<title>Node1&#45;&gt;Node2</title>
<g id="a_edge2_Node000001_Node000002"><a xlink:title=" ">
<path fill="none" stroke="#63b8ff" d="M50.65,-115.27C64.52,-127.52 89.12,-148.09 112.75,-162 114.93,-163.28 117.21,-164.52 119.53,-165.72"/>
<polygon fill="#63b8ff" stroke="#63b8ff" points="117.98,-168.85 128.51,-169.98 120.98,-162.53 117.98,-168.85"/>
</a>
</g>
</g>
<!-- Node3 -->
<g id="Node000003" class="node">
<title>Node3</title>
<g id="a_Node000003"><a xlink:href="namespaceshared.html#a565b1c521d1f0509c5ec0f237a727f8e" target="_top" xlink:title="Compose a return value from an accumulator function.">
<polygon fill="white" stroke="#666666" points="190.25,-153 126.25,-153 126.25,-133 190.25,-133 190.25,-153"/>
<text text-anchor="middle" x="158.25" y="-139.5" font-family="Helvetica,sans-Serif" font-size="10.00">shared::init</text>
</a>
</g>
</g>
<!-- Node1&#45;&gt;Node3 -->
<g id="edge4_Node000001_Node000003" class="edge">
<title>Node1&#45;&gt;Node3</title>
<g id="a_edge4_Node000001_Node000003"><a xlink:title=" ">
<path fill="none" stroke="#63b8ff" d="M71.9,-115.48C85.36,-119.83 101.15,-124.92 115.46,-129.53"/>
<polygon fill="#63b8ff" stroke="#63b8ff" points="114.02,-132.74 124.61,-132.48 116.17,-126.08 114.02,-132.74"/>
</a>
</g>
</g>
<!-- Node4 -->
<g id="Node000004" class="node">
<title>Node4</title>
<g id="a_Node000004"><a xlink:href="namespaceshared.html#a99724c73af55fa92ae29fee700152917" target="_top" xlink:title="Log output to console, if verbose.">
<polygon fill="white" stroke="#666666" points="190.25,-115 126.25,-115 126.25,-95 190.25,-95 190.25,-115"/>
<text text-anchor="middle" x="158.25" y="-101.5" font-family="Helvetica,sans-Serif" font-size="10.00">shared::log</text>
</a>
</g>
</g>
<!-- Node1&#45;&gt;Node4 -->
<g id="edge5_Node000001_Node000004" class="edge">
<title>Node1&#45;&gt;Node4</title>
<g id="a_edge5_Node000001_Node000004"><a xlink:title=" ">
<path fill="none" stroke="#63b8ff" d="M77,-105C88.94,-105 102.24,-105 114.52,-105"/>
<polygon fill="#63b8ff" stroke="#63b8ff" points="114.39,-108.5 124.39,-105 114.39,-101.5 114.39,-108.5"/>
</a>
</g>
</g>
<!-- Node5 -->
<g id="Node000005" class="node">
<title>Node5</title>
<g id="a_Node000005"><a xlink:href="namespaceshared.html#afac154f1bef460ef6f24705f6c033f37" target="_top" xlink:title="Read a file.">
<polygon fill="white" stroke="#666666" points="202.25,-77 114.25,-77 114.25,-57 202.25,-57 202.25,-77"/>
<text text-anchor="middle" x="158.25" y="-63.5" font-family="Helvetica,sans-Serif" font-size="10.00">shared::read_file</text>
</a>
</g>
</g>
<!-- Node1&#45;&gt;Node5 -->
<g id="edge6_Node000001_Node000005" class="edge">
<title>Node1&#45;&gt;Node5</title>
<g id="a_edge6_Node000001_Node000005"><a xlink:title=" ">
<path fill="none" stroke="#63b8ff" d="M71.9,-94.52C84.91,-90.32 100.09,-85.43 114.01,-80.94"/>
<polygon fill="#63b8ff" stroke="#63b8ff" points="114.95,-84.31 123.39,-77.91 112.8,-77.65 114.95,-84.31"/>
</a>
</g>
</g>
<!-- Node6 -->
<g id="Node000006" class="node">
<title>Node6</title>
<g id="a_Node000006"><a xlink:href="namespaceshared.html#ae5d42a7f6819f149991304227a611c78" target="_top" xlink:title="A Blocking Parser that splits the output into a vector.">
<polygon fill="white" stroke="#666666" points="203.75,-39 112.75,-39 112.75,-19 203.75,-19 203.75,-39"/>
<text text-anchor="middle" x="158.25" y="-25.5" font-family="Helvetica,sans-Serif" font-size="10.00">shared::vectorize</text>
</a>
</g>
</g>
<!-- Node1&#45;&gt;Node6 -->
<g id="edge7_Node000001_Node000006" class="edge">
<title>Node1&#45;&gt;Node6</title>
<g id="a_edge7_Node000001_Node000006"><a xlink:title=" ">
<path fill="none" stroke="#63b8ff" d="M50.65,-94.73C64.52,-82.48 89.12,-61.91 112.75,-48 114.93,-46.72 117.21,-45.48 119.53,-44.28"/>
<polygon fill="#63b8ff" stroke="#63b8ff" points="120.98,-47.47 128.51,-40.02 117.98,-41.15 120.98,-47.47"/>
</a>
</g>
</g>
<!-- Node2&#45;&gt;Node2 -->
<g id="edge3_Node000002_Node000002" class="edge">
<title>Node2&#45;&gt;Node2</title>
<g id="a_edge3_Node000002_Node000002"><a xlink:title=" ">
<path fill="none" stroke="#63b8ff" d="M139.2,-191.34C131.06,-199.98 137.41,-209 158.25,-209 169.65,-209 176.71,-206.3 179.44,-202.44"/>
<polygon fill="#63b8ff" stroke="#63b8ff" points="182.91,-201.98 177.58,-192.82 176.04,-203.31 182.91,-201.98"/>
</a>
</g>
</g>
<!-- Node7 -->
<g id="Node000007" class="node">
<title>Node7</title>
<g id="a_Node000007"><a xlink:href="namespaceshared.html#a3736db9aa00bd9e0a56aeaf1057066c0" target="_top" xlink:title="Split the contents of an FD.">
<polygon fill="white" stroke="#666666" points="333.75,-39 239.75,-39 239.75,-19 333.75,-19 333.75,-39"/>
<text text-anchor="middle" x="286.75" y="-25.5" font-family="Helvetica,sans-Serif" font-size="10.00">shared::fd_splitter</text>
</a>
</g>
</g>
<!-- Node6&#45;&gt;Node7 -->
<g id="edge8_Node000006_Node000007" class="edge">
<title>Node6&#45;&gt;Node7</title>
<g id="a_edge8_Node000006_Node000007"><a xlink:title=" ">
<path fill="none" stroke="#63b8ff" d="M204.21,-29C212.02,-29 220.25,-29 228.35,-29"/>
<polygon fill="#63b8ff" stroke="#63b8ff" points="228.14,-32.5 238.14,-29 228.14,-25.5 228.14,-32.5"/>
</a>
</g>
</g>
<!-- Node8 -->
<g id="Node000008" class="node">
<title>Node8</title>
<g id="a_Node000008"><a xlink:href="namespaceshared.html#a80f3b59804700742a5a0c6ea15bf24f9" target="_top" xlink:title="A Blocking Parser that returns the output in a single string.">
<polygon fill="white" stroke="#666666" points="447.62,-58 372.38,-58 372.38,-38 447.62,-38 447.62,-58"/>
<text text-anchor="middle" x="410" y="-44.5" font-family="Helvetica,sans-Serif" font-size="10.00">shared::dump</text>
</a>
</g>
</g>
<!-- Node7&#45;&gt;Node8 -->
<g id="edge9_Node000007_Node000008" class="edge">
<title>Node7&#45;&gt;Node8</title>
<g id="a_edge9_Node000007_Node000008"><a xlink:title=" ">
<path fill="none" stroke="#63b8ff" d="M333.94,-36.24C342.68,-37.61 351.86,-39.05 360.67,-40.43"/>
<polygon fill="#63b8ff" stroke="#63b8ff" points="360.06,-43.87 370.48,-41.96 361.15,-36.96 360.06,-43.87"/>
</a>
</g>
</g>
<!-- Node9 -->
<g id="Node000009" class="node">
<title>Node9</title>
<g id="a_Node000009"><a xlink:href="namespaceshared.html#a690cc836408825d804377522d9d99a07" target="_top" xlink:title="Split a string.">
<polygon fill="white" stroke="#666666" points="450.25,-20 369.75,-20 369.75,0 450.25,0 450.25,-20"/>
<text text-anchor="middle" x="410" y="-6.5" font-family="Helvetica,sans-Serif" font-size="10.00">shared::splitter</text>
</a>
</g>
</g>
<!-- Node7&#45;&gt;Node9 -->
<g id="edge10_Node000007_Node000009" class="edge">
<title>Node7&#45;&gt;Node9</title>
<g id="a_edge10_Node000007_Node000009"><a xlink:title=" ">
<path fill="none" stroke="#63b8ff" d="M333.94,-21.76C341.85,-20.52 350.11,-19.23 358.14,-17.97"/>
<polygon fill="#63b8ff" stroke="#63b8ff" points="358.44,-21.47 367.78,-16.46 357.36,-14.55 358.44,-21.47"/>
</a>
</g>
</g>
<!-- Node10 -->
<g id="Node000010" class="node">
<title>Node10</title>
<g id="a_Node000010"><a xlink:href="namespaceshared.html#a6282d0d8d2ab3f70038d7428729c15ca" target="_top" xlink:title="Escape a string.">
<polygon fill="white" stroke="#666666" points="569,-20 486.25,-20 486.25,0 569,0 569,-20"/>
<text text-anchor="middle" x="527.62" y="-6.5" font-family="Helvetica,sans-Serif" font-size="10.00">shared::escape</text>
</a>
</g>
</g>
<!-- Node9&#45;&gt;Node10 -->
<g id="edge11_Node000009_Node000010" class="edge">
<title>Node9&#45;&gt;Node10</title>
<g id="a_edge11_Node000009_Node000010"><a xlink:title=" ">
<path fill="none" stroke="#63b8ff" d="M450.47,-10C458.21,-10 466.43,-10 474.51,-10"/>
<polygon fill="#63b8ff" stroke="#63b8ff" points="474.25,-13.5 484.25,-10 474.25,-6.5 474.25,-13.5"/>
</a>
</g>
</g>
</g>
</svg>
