<?xml version="1.0" encoding="UTF-8" standalone="no"?>
<!DOCTYPE svg PUBLIC "-//W3C//DTD SVG 1.1//EN"
 "http://www.w3.org/Graphics/SVG/1.1/DTD/svg11.dtd">
<!-- Generated by graphviz version 12.2.1 (0)
 -->
<!-- Title: arg::config Pages: 1 -->
<svg width="211pt" height="373pt"
 viewBox="0.00 0.00 211.00 373.00" xmlns="http://www.w3.org/2000/svg" xmlns:xlink="http://www.w3.org/1999/xlink">

<svg id="main" version="1.1" xmlns="http://www.w3.org/2000/svg" xmlns:xlink="http://www.w3.org/1999/xlink" xml:space="preserve">

<style type="text/css"><![CDATA[
.node, .edge {opacity: 0.7;}
.node.selected, .edge.selected {opacity: 1;}
.edge:hover path { stroke: red; }
.edge:hover polygon { stroke: red; fill: red; }
]]></style>
<script type="application/ecmascript" xlink:href="svg.min.js"/>
<svg id="graph" class="graph">
<g id="graph0" class="graph" transform="scale(1 1) rotate(0) translate(4 369)">
<title>arg::config</title>
<!-- Node1 -->
<g id="Node000001" class="node">
<title>Node1</title>
<g id="a_Node000001"><a xlink:title=" ">
<polygon fill="#999999" stroke="none" points="123.25,-100 64.75,-100 64.75,0 123.25,0 123.25,-100"/>
<text text-anchor="start" x="71.12" y="-86.5" font-family="Helvetica,sans-Serif" font-size="10.00">arg::config</text>
<text text-anchor="start" x="68.75" y="-70.5" font-family="Helvetica,sans-Serif" font-size="10.00">+</text>
<text text-anchor="start" x="78.75" y="-70.5" font-family="Helvetica,sans-Serif" font-size="10.00">must_set</text>
<text text-anchor="start" x="68.75" y="-54.5" font-family="Helvetica,sans-Serif" font-size="10.00">+</text>
<text text-anchor="start" x="78.75" y="-54.5" font-family="Helvetica,sans-Serif" font-size="10.00">custom</text>
<text text-anchor="start" x="68.75" y="-38.5" font-family="Helvetica,sans-Serif" font-size="10.00">+</text>
<text text-anchor="start" x="78.75" y="-38.5" font-family="Helvetica,sans-Serif" font-size="10.00">list</text>
<text text-anchor="start" x="68.75" y="-22.5" font-family="Helvetica,sans-Serif" font-size="10.00">+</text>
<text text-anchor="start" x="78.75" y="-22.5" font-family="Helvetica,sans-Serif" font-size="10.00">position</text>
<text text-anchor="start" x="92.5" y="-6.5" font-family="Helvetica,sans-Serif" font-size="10.00"> </text>
<polygon fill="#666666" stroke="#666666" points="64.75,-82 64.75,-82 123.25,-82 123.25,-82 64.75,-82"/>
<polygon fill="#666666" stroke="#666666" points="64.75,-18 64.75,-18 76.75,-18 76.75,-18 64.75,-18"/>
<polygon fill="#666666" stroke="#666666" points="76.75,-18 76.75,-18 123.25,-18 123.25,-18 76.75,-18"/>
<polygon fill="none" stroke="#666666" points="64.75,0 64.75,-100 123.25,-100 123.25,0 64.75,0"/>
</a>
</g>
</g>
<!-- Node2 -->
<g id="Node000002" class="node">
<title>Node2</title>
<g id="a_Node000002"><a xlink:title=" ">
<polygon fill="white" stroke="none" points="68.75,-256 17.25,-256 17.25,-204 68.75,-204 68.75,-256"/>
<text text-anchor="start" x="21.25" y="-242.5" font-family="Helvetica,sans-Serif" font-size="10.00">std::string</text>
<text text-anchor="start" x="41.5" y="-226.5" font-family="Helvetica,sans-Serif" font-size="10.00"> </text>
<text text-anchor="start" x="41.5" y="-210.5" font-family="Helvetica,sans-Serif" font-size="10.00"> </text>
<polygon fill="#666666" stroke="#666666" points="17.25,-238 17.25,-238 68.75,-238 68.75,-238 17.25,-238"/>
<polygon fill="#666666" stroke="#666666" points="17.25,-222 17.25,-222 68.75,-222 68.75,-222 17.25,-222"/>
<polygon fill="none" stroke="#666666" points="17.25,-204 17.25,-256 68.75,-256 68.75,-204 17.25,-204"/>
</a>
</g>
</g>
<!-- Node2&#45;&gt;Node1 -->
<g id="edge1_Node000001_Node000002" class="edge">
<title>Node2&#45;&gt;Node1</title>
<g id="a_edge1_Node000001_Node000002"><a xlink:title=" ">
<path fill="none" stroke="#63b8ff" d="M50.09,-204.25C56.91,-180.47 67.47,-143.58 76.53,-111.96"/>
<polygon fill="none" stroke="#63b8ff" points="76.5,-112.09 74.31,-105.22 79.8,-100.55 82,-107.42 76.5,-112.09"/>
</a>
</g>
<text text-anchor="middle" x="94.82" y="-168.5" font-family="Helvetica,sans-Serif" font-size="10.00" fill="grey"> +def</text>
<text text-anchor="middle" x="94.82" y="-156.5" font-family="Helvetica,sans-Serif" font-size="10.00" fill="grey">+help</text>
<text text-anchor="middle" x="94.82" y="-144.5" font-family="Helvetica,sans-Serif" font-size="10.00" fill="grey">+l_name</text>
<text text-anchor="middle" x="94.82" y="-132.5" font-family="Helvetica,sans-Serif" font-size="10.00" fill="grey">+mod</text>
<text text-anchor="middle" x="94.82" y="-120.5" font-family="Helvetica,sans-Serif" font-size="10.00" fill="grey">+s_name</text>
</g>
<!-- Node3 -->
<g id="Node000003" class="node">
<title>Node3</title>
<g id="a_Node000003"><a xlink:title=" ">
<polygon fill="white" stroke="none" points="86,-365 0,-365 0,-301 86,-301 86,-365"/>
<text text-anchor="start" x="4" y="-351.5" font-family="Helvetica,sans-Serif" font-size="10.00">std::basic_string&lt;</text>
<text text-anchor="start" x="26.5" y="-339.5" font-family="Helvetica,sans-Serif" font-size="10.00"> Char &gt;</text>
<text text-anchor="start" x="41.5" y="-323.5" font-family="Helvetica,sans-Serif" font-size="10.00"> </text>
<text text-anchor="start" x="41.5" y="-307.5" font-family="Helvetica,sans-Serif" font-size="10.00"> </text>
<polygon fill="#666666" stroke="#666666" points="0,-335 0,-335 86,-335 86,-335 0,-335"/>
<polygon fill="#666666" stroke="#666666" points="0,-319 0,-319 86,-319 86,-319 0,-319"/>
<polygon fill="none" stroke="#666666" points="0,-301 0,-365 86,-365 86,-301 0,-301"/>
</a>
</g>
</g>
<!-- Node3&#45;&gt;Node2 -->
<g id="edge2_Node000002_Node000003" class="edge">
<title>Node3&#45;&gt;Node2</title>
<g id="a_edge2_Node000002_Node000003"><a xlink:title=" ">
<path fill="none" stroke="#63b8ff" d="M43,-289.88C43,-278.32 43,-266.16 43,-255.91"/>
<polygon fill="none" stroke="#63b8ff" points="39.5,-289.63 43,-299.63 46.5,-289.63 39.5,-289.63"/>
</a>
</g>
</g>
<!-- Node4 -->
<g id="Node000004" class="node">
<title>Node4</title>
<g id="a_Node000004"><a xlink:title=" ">
<polygon fill="white" stroke="none" points="203,-264 87,-264 87,-196 203,-196 203,-264"/>
<text text-anchor="start" x="91" y="-250.5" font-family="Helvetica,sans-Serif" font-size="10.00">std::vector&lt; std::string &gt;</text>
<text text-anchor="start" x="105.56" y="-234.5" font-family="Helvetica,sans-Serif" font-size="10.00">+</text>
<text text-anchor="start" x="130.12" y="-234.5" font-family="Helvetica,sans-Serif" font-size="10.00">elements</text>
<text text-anchor="start" x="105.56" y="-218.5" font-family="Helvetica,sans-Serif" font-size="10.00">+</text>
<text text-anchor="start" x="130.12" y="-218.5" font-family="Helvetica,sans-Serif" font-size="10.00">elements</text>
<text text-anchor="start" x="143.5" y="-202.5" font-family="Helvetica,sans-Serif" font-size="10.00"> </text>
<polygon fill="#666666" stroke="#666666" points="87,-246 87,-246 203,-246 203,-246 87,-246"/>
<polygon fill="#666666" stroke="#666666" points="87,-214 87,-214 128.12,-214 128.12,-214 87,-214"/>
<polygon fill="#666666" stroke="#666666" points="128.12,-214 128.12,-214 203,-214 203,-214 128.12,-214"/>
<polygon fill="none" stroke="#666666" points="87,-196 87,-264 203,-264 203,-196 87,-196"/>
</a>
</g>
</g>
<!-- Node4&#45;&gt;Node1 -->
<g id="edge3_Node000001_Node000004" class="edge">
<title>Node4&#45;&gt;Node1</title>
<g id="a_edge3_Node000001_Node000004"><a xlink:title=" ">
<path fill="none" stroke="#63b8ff" d="M138.46,-196.17C133.74,-173.92 126.85,-143.96 119,-118 118.41,-116.05 117.79,-114.08 117.16,-112.09"/>
<polygon fill="none" stroke="#63b8ff" points="117.13,-112.02 111.43,-107.6 113.31,-100.64 119.01,-105.06 117.13,-112.02"/>
</a>
</g>
<text text-anchor="middle" x="148.46" y="-144.5" font-family="Helvetica,sans-Serif" font-size="10.00" fill="grey"> +valid</text>
</g>
</g>
</svg>
</svg>

<style type='text/css'>
<![CDATA[
[data-mouse-over-selected='false'] { opacity: 0.7; }
[data-mouse-over-selected='true']  { opacity: 1.0; }
]]>
</style>
<script type="application/ecmascript"><![CDATA[
document.addEventListener('DOMContentLoaded', (event) => {
  highlightEdges();
  highlightAdjacentNodes();
});
]]></script>
</svg>
