<?xml version="1.0" encoding="UTF-8" standalone="no"?>
<!DOCTYPE svg PUBLIC "-//W3C//DTD SVG 1.1//EN"
 "http://www.w3.org/Graphics/SVG/1.1/DTD/svg11.dtd">
<!-- Generated by graphviz version 12.2.1 (0)
 -->
<!-- Title: arg::config Pages: 1 -->
<svg width="211pt" height="405pt"
 viewBox="0.00 0.00 211.00 405.00" xmlns="http://www.w3.org/2000/svg" xmlns:xlink="http://www.w3.org/1999/xlink">

<svg id="main" version="1.1" xmlns="http://www.w3.org/2000/svg" xmlns:xlink="http://www.w3.org/1999/xlink" xml:space="preserve">

<style type="text/css"><![CDATA[
.node, .edge {opacity: 0.7;}
.node.selected, .edge.selected {opacity: 1;}
.edge:hover path { stroke: red; }
.edge:hover polygon { stroke: red; fill: red; }
]]></style>
<script type="application/ecmascript" xlink:href="svg.min.js"/>
<svg id="graph" class="graph">
<g id="graph0" class="graph" transform="scale(1 1) rotate(0) translate(4 401)">
<title>arg::config</title>
<!-- Node1 -->
<g id="Node000001" class="node">
<title>Node1</title>
<g id="a_Node000001"><a xlink:title=" ">
<polygon fill="#999999" stroke="none" points="129.62,-132 58.38,-132 58.38,0 129.62,0 129.62,-132"/>
<text text-anchor="start" x="71.12" y="-118.5" font-family="Helvetica,sans-Serif" font-size="10.00">arg::config</text>
<text text-anchor="start" x="62.38" y="-102.5" font-family="Helvetica,sans-Serif" font-size="10.00">+</text>
<text text-anchor="start" x="72.38" y="-102.5" font-family="Helvetica,sans-Serif" font-size="10.00">must_set</text>
<text text-anchor="start" x="62.38" y="-86.5" font-family="Helvetica,sans-Serif" font-size="10.00">+</text>
<text text-anchor="start" x="72.38" y="-86.5" font-family="Helvetica,sans-Serif" font-size="10.00">flag_set</text>
<text text-anchor="start" x="62.38" y="-70.5" font-family="Helvetica,sans-Serif" font-size="10.00">+</text>
<text text-anchor="start" x="72.38" y="-70.5" font-family="Helvetica,sans-Serif" font-size="10.00">custom</text>
<text text-anchor="start" x="62.38" y="-54.5" font-family="Helvetica,sans-Serif" font-size="10.00">+</text>
<text text-anchor="start" x="72.38" y="-54.5" font-family="Helvetica,sans-Serif" font-size="10.00">list</text>
<text text-anchor="start" x="62.38" y="-38.5" font-family="Helvetica,sans-Serif" font-size="10.00">+</text>
<text text-anchor="start" x="72.38" y="-38.5" font-family="Helvetica,sans-Serif" font-size="10.00">position</text>
<text text-anchor="start" x="62.38" y="-22.5" font-family="Helvetica,sans-Serif" font-size="10.00">+</text>
<text text-anchor="start" x="72.38" y="-22.5" font-family="Helvetica,sans-Serif" font-size="10.00">updates_sof</text>
<text text-anchor="start" x="92.5" y="-6.5" font-family="Helvetica,sans-Serif" font-size="10.00"> </text>
<polygon fill="#666666" stroke="#666666" points="58.38,-114 58.38,-114 129.62,-114 129.62,-114 58.38,-114"/>
<polygon fill="#666666" stroke="#666666" points="58.38,-18 58.38,-18 70.38,-18 70.38,-18 58.38,-18"/>
<polygon fill="#666666" stroke="#666666" points="70.38,-18 70.38,-18 129.62,-18 129.62,-18 70.38,-18"/>
<polygon fill="none" stroke="#666666" points="58.38,0 58.38,-132 129.62,-132 129.62,0 58.38,0"/>
</a>
</g>
</g>
<!-- Node2 -->
<g id="Node000002" class="node">
<title>Node2</title>
<g id="a_Node000002"><a xlink:title=" ">
<polygon fill="white" stroke="none" points="68.75,-288 17.25,-288 17.25,-236 68.75,-236 68.75,-288"/>
<text text-anchor="start" x="21.25" y="-274.5" font-family="Helvetica,sans-Serif" font-size="10.00">std::string</text>
<text text-anchor="start" x="41.5" y="-258.5" font-family="Helvetica,sans-Serif" font-size="10.00"> </text>
<text text-anchor="start" x="41.5" y="-242.5" font-family="Helvetica,sans-Serif" font-size="10.00"> </text>
<polygon fill="#666666" stroke="#666666" points="17.25,-270 17.25,-270 68.75,-270 68.75,-270 17.25,-270"/>
<polygon fill="#666666" stroke="#666666" points="17.25,-254 17.25,-254 68.75,-254 68.75,-254 17.25,-254"/>
<polygon fill="none" stroke="#666666" points="17.25,-236 17.25,-288 68.75,-288 68.75,-236 17.25,-236"/>
</a>
</g>
</g>
<!-- Node2&#45;&gt;Node1 -->
<g id="edge1_Node000001_Node000002" class="edge">
<title>Node2&#45;&gt;Node1</title>
<g id="a_edge1_Node000001_Node000002"><a xlink:title=" ">
<path fill="none" stroke="#63b8ff" d="M49.56,-236.04C55.67,-212.8 65.1,-176.95 73.7,-144.22"/>
<polygon fill="none" stroke="#63b8ff" points="73.67,-144.35 71.32,-137.53 76.72,-132.74 79.06,-139.56 73.67,-144.35"/>
</a>
</g>
<text text-anchor="middle" x="91.8" y="-200.5" font-family="Helvetica,sans-Serif" font-size="10.00" fill="grey"> +def</text>
<text text-anchor="middle" x="91.8" y="-188.5" font-family="Helvetica,sans-Serif" font-size="10.00" fill="grey">+help</text>
<text text-anchor="middle" x="91.8" y="-176.5" font-family="Helvetica,sans-Serif" font-size="10.00" fill="grey">+l_name</text>
<text text-anchor="middle" x="91.8" y="-164.5" font-family="Helvetica,sans-Serif" font-size="10.00" fill="grey">+mod</text>
<text text-anchor="middle" x="91.8" y="-152.5" font-family="Helvetica,sans-Serif" font-size="10.00" fill="grey">+s_name</text>
</g>
<!-- Node3 -->
<g id="Node000003" class="node">
<title>Node3</title>
<g id="a_Node000003"><a xlink:title=" ">
<polygon fill="white" stroke="none" points="86,-397 0,-397 0,-333 86,-333 86,-397"/>
<text text-anchor="start" x="4" y="-383.5" font-family="Helvetica,sans-Serif" font-size="10.00">std::basic_string&lt;</text>
<text text-anchor="start" x="26.5" y="-371.5" font-family="Helvetica,sans-Serif" font-size="10.00"> Char &gt;</text>
<text text-anchor="start" x="41.5" y="-355.5" font-family="Helvetica,sans-Serif" font-size="10.00"> </text>
<text text-anchor="start" x="41.5" y="-339.5" font-family="Helvetica,sans-Serif" font-size="10.00"> </text>
<polygon fill="#666666" stroke="#666666" points="0,-367 0,-367 86,-367 86,-367 0,-367"/>
<polygon fill="#666666" stroke="#666666" points="0,-351 0,-351 86,-351 86,-351 0,-351"/>
<polygon fill="none" stroke="#666666" points="0,-333 0,-397 86,-397 86,-333 0,-333"/>
</a>
</g>
</g>
<!-- Node3&#45;&gt;Node2 -->
<g id="edge2_Node000002_Node000003" class="edge">
<title>Node3&#45;&gt;Node2</title>
<g id="a_edge2_Node000002_Node000003"><a xlink:title=" ">
<path fill="none" stroke="#63b8ff" d="M43,-321.88C43,-310.32 43,-298.16 43,-287.91"/>
<polygon fill="none" stroke="#63b8ff" points="39.5,-321.63 43,-331.63 46.5,-321.63 39.5,-321.63"/>
</a>
</g>
</g>
<!-- Node4 -->
<g id="Node000004" class="node">
<title>Node4</title>
<g id="a_Node000004"><a xlink:title=" ">
<polygon fill="white" stroke="none" points="203,-296 87,-296 87,-228 203,-228 203,-296"/>
<text text-anchor="start" x="91" y="-282.5" font-family="Helvetica,sans-Serif" font-size="10.00">std::vector&lt; std::string &gt;</text>
<text text-anchor="start" x="105.56" y="-266.5" font-family="Helvetica,sans-Serif" font-size="10.00">+</text>
<text text-anchor="start" x="130.12" y="-266.5" font-family="Helvetica,sans-Serif" font-size="10.00">elements</text>
<text text-anchor="start" x="105.56" y="-250.5" font-family="Helvetica,sans-Serif" font-size="10.00">+</text>
<text text-anchor="start" x="130.12" y="-250.5" font-family="Helvetica,sans-Serif" font-size="10.00">elements</text>
<text text-anchor="start" x="143.5" y="-234.5" font-family="Helvetica,sans-Serif" font-size="10.00"> </text>
<polygon fill="#666666" stroke="#666666" points="87,-278 87,-278 203,-278 203,-278 87,-278"/>
<polygon fill="#666666" stroke="#666666" points="87,-246 87,-246 128.12,-246 128.12,-246 87,-246"/>
<polygon fill="#666666" stroke="#666666" points="128.12,-246 128.12,-246 203,-246 203,-246 128.12,-246"/>
<polygon fill="none" stroke="#666666" points="87,-228 87,-296 203,-296 203,-228 87,-228"/>
</a>
</g>
</g>
<!-- Node4&#45;&gt;Node1 -->
<g id="edge3_Node000001_Node000004" class="edge">
<title>Node4&#45;&gt;Node1</title>
<g id="a_edge3_Node000001_Node000004"><a xlink:title=" ">
<path fill="none" stroke="#63b8ff" d="M136.53,-228.45C130.76,-206.32 122.94,-176.39 116,-150 115.51,-148.15 115.02,-146.28 114.52,-144.4"/>
<polygon fill="none" stroke="#63b8ff" points="114.49,-144.26 109.09,-139.48 111.43,-132.66 116.83,-137.44 114.49,-144.26"/>
</a>
</g>
<text text-anchor="middle" x="145.69" y="-176.5" font-family="Helvetica,sans-Serif" font-size="10.00" fill="grey"> +valid</text>
</g>
</g>
</svg>
</svg>

<style type='text/css'>
<![CDATA[
[data-mouse-over-selected='false'] { opacity: 0.7; }
[data-mouse-over-selected='true']  { opacity: 1.0; }
]]>
</style>
<script type="application/ecmascript"><![CDATA[
document.addEventListener('DOMContentLoaded', (event) => {
  highlightEdges();
  highlightAdjacentNodes();
});
]]></script>
</svg>
